<svg fill="white" xmlns="http://www.w3.org/2000/svg" width="176.439" height="159.256" viewBox="0 0 176.439 159.256">
  <g id="Group_24" data-name="Group 24" transform="translate(-167.865 -1306.553)">
    <path id="Path_31" data-name="Path 31" d="M1284.745,326.557a12.321,12.321,0,0,0-12.321,12.321v76.673a10,10,0,0,1-10.005,10.005h-18.3a20.128,20.128,0,1,0,0,40.257H1265a21.616,21.616,0,0,0,21.616-21.615V371.072a6.082,6.082,0,0,1,6.082-6.083l87.452-20a6.082,6.082,0,0,1,6.083,6.083v44.479a10.005,10.005,0,0,1-10.005,10.005h-18.3a20.128,20.128,0,1,0,0,40.257h20.883A21.615,21.615,0,0,0,1400.43,424.2V318.878a12.32,12.32,0,0,0-12.32-12.321Z" transform="translate(-1056.125 999.996)"/>
  </g>
</svg>
