<svg fill="white" xmlns="http://www.w3.org/2000/svg" width="172.695" height="172.492" viewBox="0 0 172.695 172.492">
  <g id="Group_51" data-name="Group 51" transform="translate(-1635.097 -1807.99)">
    <path id="Path_178" data-name="Path 178" d="M2836.725,867.047a25.629,25.629,0,0,0-15.829,5.277l-21.511-21.714a26.165,26.165,0,0,0,5.074-15.626,26.99,26.99,0,0,0-53.98,0A25.83,25.83,0,0,0,2755.146,850l-21.713,21.714a26.008,26.008,0,0,0-15.22-4.668,26.99,26.99,0,0,0,0,53.98,28.061,28.061,0,0,0,15.22-4.667l21.916,21.916a26.006,26.006,0,0,0-4.667,15.22,26.99,26.99,0,0,0,53.98,0,25.623,25.623,0,0,0-5.277-15.828l21.714-21.714a27.009,27.009,0,1,0,15.626-48.907m-59.256-50.733a18.647,18.647,0,0,1,16.032,28.208,20.351,20.351,0,0,1-5.885,5.885,18.7,18.7,0,0,1-10.147,3.044,17.913,17.913,0,0,1-10.755-3.45,13.653,13.653,0,0,1-3.044-2.841,13.3,13.3,0,0,1-2.435-3.45,18.778,18.778,0,0,1-2.233-8.929,18.277,18.277,0,0,1,18.467-18.467m-46.877,91.32a13.351,13.351,0,0,1-3.45,2.435,19.754,19.754,0,0,1-9.132,2.435,18.67,18.67,0,1,1,0-37.339,17.571,17.571,0,0,1,9.132,2.435,21.122,21.122,0,0,1,3.45,2.435,39.168,39.168,0,0,1,2.841,3.044,18.772,18.772,0,0,1,0,21.105,12.338,12.338,0,0,1-2.841,3.45m46.877,64.329a18.621,18.621,0,0,1-18.67-18.67,17.063,17.063,0,0,1,2.436-9.132,21.036,21.036,0,0,1,2.435-3.45,13.267,13.267,0,0,1,3.246-2.638,19.063,19.063,0,0,1,10.553-3.247,18.383,18.383,0,0,1,9.944,2.841,20.361,20.361,0,0,1,5.885,5.885,18.381,18.381,0,0,1,2.841,9.944,18.843,18.843,0,0,1-18.67,18.467m37.542-62.1L2793.3,931.58a26.951,26.951,0,0,0-15.829-5.277,25.65,25.65,0,0,0-16.437,5.682l-21.714-21.51a27.208,27.208,0,0,0,0-33.281l21.308-21.308a26.8,26.8,0,0,0,16.64,5.885,27.1,27.1,0,0,0,16.032-5.276l21.51,21.511a26.944,26.944,0,0,0-5.276,15.828,30.358,30.358,0,0,0,5.479,16.032m21.714,2.638a18.381,18.381,0,0,1-9.944-2.841,20.319,20.319,0,0,1-5.885-5.885,18.821,18.821,0,0,1,0-19.887,20.319,20.319,0,0,1,5.885-5.885,18.373,18.373,0,0,1,9.944-2.841,18.67,18.67,0,1,1,0,37.339" transform="translate(-1056.125 999.996)"/>
  </g>
</svg>
