<svg fill="white" xmlns="http://www.w3.org/2000/svg" width="174.509" height="110.126" viewBox="0 0 174.509 110.126">
  <g id="Group_43" data-name="Group 43" transform="translate(844.128 -1851.947)">
    <path id="Path_102" data-name="Path 102" d="M212,887.4v63.534a11.144,11.144,0,0,0,11.143,11.144H375.364a11.144,11.144,0,0,0,11.143-11.144V887.4Zm110.237,60.643a2.536,2.536,0,0,1-2.536,2.537H225.175a2.537,2.537,0,0,1-2.537-2.537v-5.26a2.536,2.536,0,0,1,2.537-2.536H319.7a2.535,2.535,0,0,1,2.536,2.536Zm0-34.866a3.182,3.182,0,0,1-3.182,3.182H225.82a3.182,3.182,0,0,1-3.182-3.182v-9.9a3.182,3.182,0,0,1,3.182-3.182h93.234a3.182,3.182,0,0,1,3.182,3.182Zm22.279-.421a3.6,3.6,0,0,1-3.6,3.6h-9.056a3.6,3.6,0,0,1-3.6-3.6V903.7a3.6,3.6,0,0,1,3.6-3.6h9.056a3.6,3.6,0,0,1,3.6,3.6Z" transform="translate(-1056.125 999.996)"/>
    <path id="Path_103" data-name="Path 103" d="M386.507,872.282v-9.187a11.144,11.144,0,0,0-11.144-11.144H223.142A11.144,11.144,0,0,0,212,863.095v9.187Z" transform="translate(-1056.125 999.996)"/>
  </g>
</svg>
