<svg fill="white" xmlns="http://www.w3.org/2000/svg" width="154.358" height="159.352" viewBox="0 0 154.358 159.352">
  <g id="Group_19" data-name="Group 19" transform="translate(587.096 -1300.328)">
    <path id="Path_21" data-name="Path 21" d="M515.519,303.789v15.584l-9.232,8.281-4.9,4.393V303.789a3.461,3.461,0,0,1,3.457-3.457h7.219a3.461,3.461,0,0,1,3.457,3.457" transform="translate(-1056.125 999.996)"/>
    <path id="Path_22" data-name="Path 22" d="M622.832,375.316a8.026,8.026,0,0,1-7.632,5.252H477.216a8.173,8.173,0,0,1-5.459-14.255l23.9-21.432v0l17.116-15.351,27.983-25.1a8.153,8.153,0,0,1,10.908,0l68.991,61.874a8.023,8.023,0,0,1,2.177,9" transform="translate(-1056.125 999.996)"/>
    <path id="Path_23" data-name="Path 23" d="M607.255,386.3v51.7a21.692,21.692,0,0,1-21.692,21.692H570.689a6.439,6.439,0,0,1-6.439-6.439V420.261A10.153,10.153,0,0,0,554.1,410.105H538.318a10.153,10.153,0,0,0-10.153,10.152v32.988a6.439,6.439,0,0,1-6.439,6.439h-14.87a21.7,21.7,0,0,1-21.7-21.7V386.3Z" transform="translate(-1056.125 999.996)"/>
  </g>
</svg>
