<svg fill="white" xmlns="http://www.w3.org/2000/svg" width="147.568" height="154.195" viewBox="0 0 147.568 154.195">
  <g id="Group_45" data-name="Group 45" transform="translate(329.719 -1822.994)">
    <path id="Path_136" data-name="Path 136" d="M831.955,896.782a31.689,31.689,0,0,1-11.312,24.309h-6.628V897.31a13.206,13.206,0,0,0-26.412,0v28.645a31.768,31.768,0,1,1,44.352-29.173" transform="translate(-1056.125 999.996)"/>
    <path id="Path_137" data-name="Path 137" d="M800.191,823a73.783,73.783,0,0,0-12.438,146.511,15.829,15.829,0,0,1-.15-2.193v-.368l-3.668-11.771A60.67,60.67,0,1,1,845.928,936.5c.04.429.06.857.06,1.3v.4l-2.083,17.99A73.759,73.759,0,0,0,800.191,823" transform="translate(-1056.125 999.996)"/>
    <path id="Path_138" data-name="Path 138" d="M839.151,937.795l-.688,5.95-2,17.272-.727,6.3a9.874,9.874,0,0,1-9.877,9.877H804.307a9.851,9.851,0,0,1-9.378-6.817,9.736,9.736,0,0,1-.489-3.06v-1.4l-2.84-9.129-4.366-14.014a7.736,7.736,0,0,1,7.206-10.026V897.31a6.369,6.369,0,1,1,12.738,0v30.618h22.1a9.872,9.872,0,0,1,9.877,9.867" transform="translate(-1056.125 999.996)"/>
  </g>
</svg>
