<svg xmlns="http://www.w3.org/2000/svg" width="183.67" height="122.243" viewBox="0 0 183.67 122.243">
  <g id="Group_20" data-name="Group 20" transform="translate(350.907 -1329.382)">
    <path id="Path_24" data-name="Path 24" d="M888.886,349.9l-.069,4.3-125.483-2a36.235,36.235,0,0,0-36.34,30.271,26.874,26.874,0,0,1-21.772-26.73,26.791,26.791,0,0,1,27.211-26.359L871.148,331.6A18.038,18.038,0,0,1,888.886,349.9" transform="translate(-1056.125 999.996)"/>
    <path id="Path_25" data-name="Path 25" d="M888.669,363.683,888.26,389.5,787.146,387.9a36.337,36.337,0,0,0-35.1,25.122,26.956,26.956,0,0,1-16.076-24.976l.008-.237a26.772,26.772,0,0,1,27.2-26.127Z" transform="translate(-1056.125 999.996)"/>
    <path id="Path_26" data-name="Path 26" d="M887.92,398.976a58.393,58.393,0,0,1-58.968,52.646l-42.2-.672a27.775,27.775,0,0,1-19.5-8.556,26.3,26.3,0,0,1-7.46-18.98,25.415,25.415,0,0,1,.332-3.514,26.785,26.785,0,0,1,26.872-22.524Z" transform="translate(-1056.125 999.996)"/>
  </g>
</svg>
