<svg xmlns="http://www.w3.org/2000/svg" width="175.912" height="97.652" viewBox="0 0 175.912 97.652">
  <g id="Group_57" data-name="Group 57" transform="translate(602.974 -2112.884)">
    <path id="Path_185" data-name="Path 185" d="M554.58,1126.274v70.88a13.387,13.387,0,0,1-26.773,0v-70.88a13.35,13.35,0,0,1,22.826-9.439,13.214,13.214,0,0,1,3.947,9.439" transform="translate(-1056.125 999.996)"/>
    <path id="Path_186" data-name="Path 186" d="M629.063,1156.823v9.611a13.387,13.387,0,0,1-26.773,0v-9.611a13.35,13.35,0,0,1,22.826-9.439,12.552,12.552,0,0,1,3.947,9.439" transform="translate(-1056.125 999.996)"/>
    <path id="Path_187" data-name="Path 187" d="M591.821,1142.235v38.786a13.387,13.387,0,1,1-26.773,0v-38.786a13.387,13.387,0,0,1,26.773,0" transform="translate(-1056.125 999.996)"/>
    <path id="Path_188" data-name="Path 188" d="M517.166,1142.235v38.786a13.387,13.387,0,1,1-26.773,0v-38.786a13.387,13.387,0,0,1,26.773,0" transform="translate(-1056.125 999.996)"/>
    <path id="Path_189" data-name="Path 189" d="M479.924,1156.823v9.611a13.387,13.387,0,0,1-26.773,0v-9.611a13.35,13.35,0,0,1,22.826-9.439,13.213,13.213,0,0,1,3.947,9.439" transform="translate(-1056.125 999.996)"/>
  </g>
</svg>
