<svg  fill="white" xmlns="http://www.w3.org/2000/svg" width="119.984" height="169.141" viewBox="0 0 119.984 169.141">
  <g id="Group_22" data-name="Group 22" transform="translate(1036.699 -1297.007)">
    <path  id="Path_30" data-name="Path 30" d="M119.2,357.442h-.538v-34.19a26.239,26.239,0,0,0-26.241-26.241h-26a26.239,26.239,0,0,0-26.241,26.241v34.19H39.64a20.213,20.213,0,0,0-20.214,20.214v68.282A20.213,20.213,0,0,0,39.64,466.152h79.553a20.217,20.217,0,0,0,20.217-20.216v-68.28A20.215,20.215,0,0,0,119.2,357.442m-35.4,57.006v12.447a4.376,4.376,0,1,1-8.752,0V414.448a12.372,12.372,0,1,1,8.752,0m20.938-57.006H54.1V324.094A14.093,14.093,0,0,1,68.194,310H90.64a14.092,14.092,0,0,1,14.091,14.092Z" transform="translate(-1056.125 999.996)" fill="#000000"/>
  </g>
</svg>
