<svg fill="white" xmlns="http://www.w3.org/2000/svg" width="170.291" height="170.291" viewBox="0 0 170.291 170.291">
  <g id="Group_48" data-name="Group 48" transform="translate(-651.22 -1814.947)">
    <path id="Path_156" data-name="Path 156" d="M1835.845,900.1a43.355,43.355,0,1,1-43.355-43.355,43.355,43.355,0,0,1,43.355,43.355" transform="translate(-1056.125 999.996)"/>
    <path id="Path_157" data-name="Path 157" d="M1805.978,832.737a14.006,14.006,0,1,1-9.711-17.264,14.006,14.006,0,0,1,9.711,17.264" transform="translate(-1056.125 999.996)"/>
    <path id="Path_158" data-name="Path 158" d="M1754.4,842.929a14.007,14.007,0,1,1-19.074-5.341,14.006,14.006,0,0,1,19.074,5.341" transform="translate(-1056.125 999.996)"/>
    <path id="Path_159" data-name="Path 159" d="M1725.132,886.608a14.006,14.006,0,1,1-17.264,9.711,14.006,14.006,0,0,1,17.264-9.711" transform="translate(-1056.125 999.996)"/>
    <path id="Path_160" data-name="Path 160" d="M1735.323,938.189a14.007,14.007,0,1,1-5.34,19.074,14.006,14.006,0,0,1,5.34-19.074" transform="translate(-1056.125 999.996)"/>
    <path id="Path_161" data-name="Path 161" d="M1779,967.455a14.006,14.006,0,1,1,9.711,17.264A14.007,14.007,0,0,1,1779,967.455" transform="translate(-1056.125 999.996)"/>
    <path id="Path_162" data-name="Path 162" d="M1830.583,957.263a14.007,14.007,0,1,1,19.074,5.341,14.006,14.006,0,0,1-19.074-5.341" transform="translate(-1056.125 999.996)"/>
    <path id="Path_163" data-name="Path 163" d="M1859.849,913.584a14.006,14.006,0,1,1,17.265-9.711,14.006,14.006,0,0,1-17.265,9.711" transform="translate(-1056.125 999.996)"/>
    <path id="Path_164" data-name="Path 164" d="M1849.657,862A14.007,14.007,0,1,1,1855,842.929,14.006,14.006,0,0,1,1849.657,862" transform="translate(-1056.125 999.996)"/>
  </g>
</svg>
