<svg xmlns="http://www.w3.org/2000/svg" width="181.915" height="107.232" viewBox="0 0 181.915 107.232">
  <g id="Group_49" data-name="Group 49" transform="translate(-1140.413 -1837.091)">
    <path id="Path_165" data-name="Path 165" d="M2378.453,894.808c0-6.439-6.6-15.1-36.9-20.881a24.933,24.933,0,0,0-41.816-26.914,49.353,49.353,0,0,0-56.128,25.22c-18.471,2.648-47.074,8.95-47.074,22.575,0,13.572,28.377,19.879,46.855,22.545a49.534,49.534,0,0,0,88.2,0c18.481-2.661,46.863-8.962,46.863-22.545m-58.82-49.833a17.055,17.055,0,0,1,12.307,28.868,16.68,16.68,0,0,1-3.409,2.748,17.06,17.06,0,1,1-8.9-31.616m-32.142,8.017a41.981,41.981,0,0,1,8.575.885,24.935,24.935,0,0,0,32.185,31.56c.011.048.023.1.034.145q.194.857.35,1.722c.026.139.055.277.079.416q.18,1.053.3,2.116c.02.17.035.341.053.512q.089.841.145,1.688c.013.2.027.406.037.61.037.719.062,1.439.062,2.162s-.021,1.448-.058,2.168c-.011.236-.034.469-.05.7-.032.482-.067.964-.116,1.443-.028.279-.065.556-.1.833-.053.434-.109.866-.175,1.3-.045.291-.1.58-.147.87-.074.416-.152.83-.238,1.242q-.09.438-.191.873-.142.615-.3,1.225c-.075.285-.15.57-.231.853-.12.417-.25.831-.383,1.245-.085.266-.167.532-.258.8-.156.454-.326.9-.5,1.354-.072.188-.139.378-.214.565a328.2,328.2,0,0,1-77.725,0c-.074-.185-.139-.372-.211-.558-.172-.45-.343-.9-.5-1.357-.09-.263-.171-.528-.256-.793-.133-.414-.263-.83-.383-1.248-.081-.282-.155-.565-.23-.849q-.16-.612-.3-1.228-.1-.434-.19-.87c-.086-.413-.165-.829-.238-1.245-.051-.289-.1-.578-.146-.868-.066-.432-.122-.866-.175-1.3-.034-.277-.071-.554-.1-.833-.049-.478-.083-.959-.116-1.44-.016-.237-.038-.472-.05-.71-.036-.72-.057-1.443-.057-2.17a42.715,42.715,0,0,1,.241-4.556,41.211,41.211,0,0,1,3.6-12.987,41.985,41.985,0,0,1,37.972-24.273m-83.431,41.816c0-3.468,9.969-10.172,36.238-14.458-.093.3-.175.609-.262.914-.05.175-.1.35-.151.526q-.309,1.13-.564,2.273c-.032.142-.058.286-.088.428q-.207.973-.373,1.956c-.034.2-.068.391-.1.587-.122.776-.23,1.556-.316,2.34-.01.094-.016.188-.025.281-.073.7-.128,1.411-.17,2.121-.013.21-.025.419-.035.629-.038.8-.063,1.6-.063,2.4s.025,1.605.063,2.4q.015.316.035.631c.042.707.1,1.412.169,2.112.01.1.016.194.027.291.085.782.193,1.56.314,2.334.032.2.067.4.1.6q.165.975.37,1.943c.031.146.058.292.091.438q.253,1.141.563,2.268c.048.178.1.354.152.531.077.273.151.546.234.818l-.759-.1.031.068c-25.7-4.291-35.483-10.9-35.483-14.332m83.431,41.639a41.827,41.827,0,0,1-34.054-17.676,342.974,342.974,0,0,0,68.112,0,41.82,41.82,0,0,1-34.058,17.676m47.944-27.3.032-.07-.753.1c.083-.274.158-.55.236-.825.051-.176.1-.352.152-.528q.309-1.129.565-2.272c.032-.145.059-.291.09-.436q.205-.969.372-1.947c.034-.2.068-.394.1-.591.123-.775.231-1.553.316-2.336.011-.1.017-.2.027-.292.072-.7.127-1.4.169-2.109.013-.21.025-.419.035-.629.038-.8.064-1.6.064-2.4,0-.635-.015-1.268-.039-1.9-.008-.2-.021-.4-.031-.607-.022-.433-.047-.866-.081-1.3-.017-.232-.038-.463-.059-.694q-.055-.618-.127-1.233c-.026-.226-.052-.452-.082-.677-.058-.448-.124-.9-.195-1.341-.028-.178-.053-.356-.083-.534-.1-.619-.22-1.236-.349-1.85-.022-.107-.049-.213-.072-.32q-.165-.764-.353-1.522c-.051-.2-.107-.407-.161-.61s-.1-.4-.155-.591q.62-.488,1.205-1.014c25.387,4.347,34.673,10.818,34.673,14.192,0,3.44-9.789,10.05-35.495,14.335" transform="translate(-1056.125 999.996)"/>
  </g>
</svg>
