<svg  fill="white" xmlns="http://www.w3.org/2000/svg" width="155.337" height="106.781" viewBox="0 0 155.337 106.781">
  <g id="Group_35" data-name="Group 35" transform="translate(-903.275 -1600.233)">
    <path id="Path_88" data-name="Path 88" d="M2110.152,613.531a3.207,3.207,0,0,1,3.88,4.885c-19.438,24.751-68.452,85.334-68.452,85.334a8.916,8.916,0,0,1-13.3.555l-28.917-29.855c-.093-.092-.185-.184-.277-.277a.044.044,0,0,0-.027-.013l-2.642-2.739a4.65,4.65,0,0,1,1.384-7.443Z" transform="translate(-1056.125 999.996)"/>
    <path id="Path_89" data-name="Path 89" d="M1997.34,676.957l-6.3,2.708a1.676,1.676,0,0,1-2.267-2.019l2.1-7.051a1.676,1.676,0,0,1,2.812-.685l4.2,4.343a1.676,1.676,0,0,1-.544,2.7" transform="translate(-1056.125 999.996)"/>
    <path id="Path_90" data-name="Path 90" d="M1990.425,663.43l-.158.066a1.82,1.82,0,0,0-.344.2,2.61,2.61,0,0,0-.3.238,1.027,1.027,0,0,0-.172.171,2.565,2.565,0,0,0-.62,1.122l-4.619,15.442a.481.481,0,0,1-.594.409.664.664,0,0,1-.211-.053.509.509,0,0,1-.317-.449l-2.738-22.244a4.479,4.479,0,0,1,2.861-4.736s66.245-26.363,103.433-40.19a2.659,2.659,0,0,1,2.049,4.9c-34.948,16.311-98.267,45.124-98.267,45.124" transform="translate(-1056.125 999.996)"/>
    <path id="Path_91" data-name="Path 91" d="M2099.89,603.8l-117.743,44.546a7.3,7.3,0,0,1-7.767-1.689L1962,634.157a8.88,8.88,0,0,1,5.055-15.086s93.833-13.515,131.936-18.813a1.838,1.838,0,0,1,.9,3.54" transform="translate(-1056.125 999.996)"/>
  </g>
</svg>
