<svg fill="white" xmlns="http://www.w3.org/2000/svg" width="92.485" height="169.431" viewBox="0 0 92.485 169.431">
  <g id="Group_40" data-name="Group 40" transform="translate(812.526 -1555.587)">
    <path id="Path_124" data-name="Path 124" d="M269.43,574.855h40.824l11.211,55.98H258.219Z" transform="translate(-1056.125 999.996)"/>
    <path id="Path_125" data-name="Path 125" d="M320.74,636.264h-61.8A15.344,15.344,0,0,0,243.6,651.608v9.279a1.915,1.915,0,0,0,1.915,1.915h88.655a1.915,1.915,0,0,0,1.915-1.915v-9.279a15.344,15.344,0,0,0-15.344-15.344" transform="translate(-1056.125 999.996)"/>
    <path id="Path_126" data-name="Path 126" d="M289.842,725.022l9.29-57.78h-18.58Z" transform="translate(-1056.125 999.996)"/>
    <path id="Path_127" data-name="Path 127" d="M317.258,555.591H262.426a1.838,1.838,0,0,0-1.838,1.837V562.9a7.578,7.578,0,0,0,7.578,7.578h43.351A7.578,7.578,0,0,0,319.1,562.9v-5.476a1.837,1.837,0,0,0-1.837-1.837" transform="translate(-1056.125 999.996)"/>
  </g>
</svg>
