<svg xmlns="http://www.w3.org/2000/svg" width="108.016" height="133.321" viewBox="0 0 108.016 133.321">
  <g id="Group_46" data-name="Group 46" transform="translate(53.694 -1829.589)">
    <path id="Path_144" data-name="Path 144" d="M1058.678,962.914H1051.1a5.673,5.673,0,0,1-5.674-5.674v-36.6a5.674,5.674,0,0,1,5.674-5.675h7.579a5.674,5.674,0,0,1,5.674,5.675v36.6a5.674,5.674,0,0,1-5.674,5.674" transform="translate(-1056.125 999.996)"/>
    <path id="Path_145" data-name="Path 145" d="M1057.943,911.2h-6.109a2.511,2.511,0,0,1-2.511-2.511V868.055a2.511,2.511,0,0,1,2.511-2.511h6.109a2.511,2.511,0,0,1,2.511,2.511v40.637a2.511,2.511,0,0,1-2.511,2.511" transform="translate(-1056.125 999.996)"/>
    <path id="Path_146" data-name="Path 146" d="M1081.985,850.709V840.428a3,3,0,0,1,3-3h5.089a3,3,0,0,1,3,3v10.281a3,3,0,0,1-3,3h-5.089a3,3,0,0,1-3-3" transform="translate(-1056.125 999.996)"/>
    <path id="Path_147" data-name="Path 147" d="M1070.955,861.542h-32.133a7.764,7.764,0,0,1-7.764-7.764v-16.42a7.765,7.765,0,0,1,7.764-7.765h32.133a7.765,7.765,0,0,1,7.764,7.765v16.42a7.764,7.764,0,0,1-7.764,7.764" transform="translate(-1056.125 999.996)"/>
    <path id="Path_148" data-name="Path 148" d="M1106.1,861.9h-5.429a4.344,4.344,0,0,1-4.343-4.343v-22.79a4.343,4.343,0,0,1,4.343-4.343h5.429a4.342,4.342,0,0,1,4.343,4.343v22.79a4.343,4.343,0,0,1-4.343,4.343" transform="translate(-1056.125 999.996)"/>
    <path id="Path_149" data-name="Path 149" d="M1026.843,842.685v-4a24.727,24.727,0,0,0-24.258,19.35,6.136,6.136,0,0,0,11.956,2.77,12.673,12.673,0,0,1,12.3-9.85v-8.27Z" transform="translate(-1056.125 999.996)"/>
  </g>
</svg>
