<svg xmlns="http://www.w3.org/2000/svg" width="183.67" height="122.243" viewBox="0 0 183.67 122.243">
  <g id="Group_23" data-name="Group 23" transform="translate(91.521 -1333.088)">
    <path id="Path_27" data-name="Path 27" d="M1086.244,446.1a27.78,27.78,0,0,1-19.5,8.556l-42.2.672a58.39,58.39,0,0,1-58.964-52.646l100.922-1.6a26.785,26.785,0,0,1,26.872,22.524,24.818,24.818,0,0,1,.332,3.514,26.292,26.292,0,0,1-7.456,18.98" transform="translate(-1056.125 999.996)"/>
    <path id="Path_28" data-name="Path 28" d="M1117.523,391.75a26.968,26.968,0,0,1-16.081,24.977,36.331,36.331,0,0,0-35.1-25.122l-101.114,1.6-.4-25.821,125.483-2a26.767,26.767,0,0,1,27.2,26.126Z" transform="translate(-1056.125 999.996)"/>
    <path id="Path_29" data-name="Path 29" d="M1148.271,359.455a26.879,26.879,0,0,1-21.776,26.73,36.233,36.233,0,0,0-36.339-30.271l-125.484,2-.065-4.3A18.033,18.033,0,0,1,982.342,335.3l138.715-2.207a26.795,26.795,0,0,1,27.214,26.359" transform="translate(-1056.125 999.996)"/>
  </g>
</svg>
