<svg fill="white" xmlns="http://www.w3.org/2000/svg" xmlns:xlink="http://www.w3.org/1999/xlink" width="175.657" height="64.413" viewBox="0 0 175.657 64.413">
  <defs>
    <clipPath id="clip-path">
      <rect id="Rectangle_2" data-name="Rectangle 2" width="55.389" height="64.102" transform="translate(687.291 1133.857)"/>
    </clipPath>
  </defs>
  <g id="Group_56" data-name="Group 56" transform="translate(368.834 -2133.542)">
    <g id="Group_3" data-name="Group 3" transform="translate(-1056.125 999.996)" style="isolation: isolate">
      <g id="Group_2" data-name="Group 2">
        <g id="Group_1" data-name="Group 1" clip-path="url(#clip-path)">
          <path id="Path_179" data-name="Path 179" d="M735.99,1165.908a38.814,38.814,0,0,0,6.69,21.938,32.051,32.051,0,1,1,0-43.876,38.814,38.814,0,0,0-6.69,21.938"/>
        </g>
      </g>
    </g>
    <path id="Path_180" data-name="Path 180" d="M791.69,1165.908a38.814,38.814,0,0,0,6.69,21.938,31.985,31.985,0,0,1-46.676,0,22.771,22.771,0,0,1-2.489-2.957,25.566,25.566,0,0,1-2.178-3.422,31.506,31.506,0,0,1-4.046-15.715,33.207,33.207,0,0,1,4.046-15.714,25.577,25.577,0,0,1,2.178-3.423,22.827,22.827,0,0,1,2.489-2.956,31.985,31.985,0,0,1,46.676,0,41.885,41.885,0,0,0-6.69,22.249" transform="translate(-1056.125 999.996)"/>
    <path id="Path_181" data-name="Path 181" d="M862.948,1165.908a32.031,32.031,0,0,1-55.389,21.938,22.771,22.771,0,0,1-2.489-2.957,25.559,25.559,0,0,1-2.178-3.422,31.505,31.505,0,0,1-4.046-15.715,33.207,33.207,0,0,1,4.046-15.714,25.571,25.571,0,0,1,2.178-3.423,22.827,22.827,0,0,1,2.489-2.956,32.076,32.076,0,0,1,23.338-10.113,32.473,32.473,0,0,1,32.051,32.362" transform="translate(-1056.125 999.996)"/>
  </g>
</svg>
