<svg fill="white" xmlns="http://www.w3.org/2000/svg" width="157.335" height="157.331" viewBox="0 0 157.335 157.331">
  <g id="Group_21" data-name="Group 21" transform="translate(830.573 -1302.913)">
    <path id="Path_1" data-name="Path 1" d="M333.812,385.757a138.976,138.976,0,0,1-7.372,40.874,141.908,141.908,0,0,1-44.441,0,138.864,138.864,0,0,1-7.372-40.874c9.682-.863,19.621-1.31,29.594-1.31s19.912.447,29.591,1.31" transform="translate(-1056.125 999.996)"/>
    <path id="Path_2" data-name="Path 2" d="M275.582,425.454a139.185,139.185,0,0,1-22.712-6.807,139.627,139.627,0,0,1-4.766-29.323c6.749-1.23,13.723-2.238,20.8-3.006a144.8,144.8,0,0,0,6.673,39.136" transform="translate(-1056.125 999.996)"/>
    <path id="Path_3" data-name="Path 3" d="M246.22,415.814a139.953,139.953,0,0,1-16.516-8.949c-.061-.18-.122-.359-.184-.543-.091-.279-.183-.557-.271-.836-.011-.035-.019-.065-.03-.1q-.154-.486-.3-.974c-.073-.244-.149-.489-.218-.733-.023-.08-.046-.157-.068-.237-.092-.321-.184-.642-.272-.962l-.183-.676-.069-.253c-.088-.34-.172-.683-.256-1.023-.072-.287-.145-.573-.21-.863q-.132-.557-.252-1.112c-.061-.283-.126-.561-.183-.844q-.12-.585-.233-1.169c-.046-.256-.1-.508-.145-.764-.016-.076-.027-.153-.042-.229-.065-.367-.126-.737-.188-1.108-.011-.072-.023-.145-.034-.217,5.069-1.406,10.386-2.678,15.867-3.8a145.82,145.82,0,0,0,3.789,25.393" transform="translate(-1056.125 999.996)"/>
    <path id="Path_4" data-name="Path 4" d="M256.155,443.865a78.787,78.787,0,0,1-22.86-28.2,144.73,144.73,0,0,0,14.827,7.23,144.244,144.244,0,0,0,8.033,20.974" transform="translate(-1056.125 999.996)"/>
    <path id="Path_5" data-name="Path 5" d="M291.277,459.189c-.061-.008-.126-.015-.187-.027-.287-.046-.569-.1-.852-.153-.4-.072-.806-.141-1.207-.217-.294-.058-.588-.122-.882-.184-.386-.08-.776-.16-1.161-.244-.3-.065-.6-.141-.9-.21-.374-.088-.752-.176-1.131-.271-.3-.077-.6-.157-.9-.237-.371-.1-.741-.191-1.108-.294l-.9-.264c-.363-.107-.73-.214-1.092-.324-.3-.1-.6-.191-.9-.291-.363-.114-.722-.229-1.081-.351-.3-.1-.6-.21-.9-.313q-.532-.189-1.065-.382c-.3-.111-.592-.226-.886-.337-.356-.137-.707-.271-1.059-.412-.3-.118-.588-.241-.882-.363-.348-.145-.7-.286-1.043-.435-.294-.13-.588-.26-.878-.39q-.516-.229-1.031-.466c-.291-.134-.581-.275-.875-.416-.336-.161-.676-.325-1.012-.489-.291-.145-.581-.294-.867-.443q-.5-.252-1-.516c-.29-.156-.577-.313-.867-.47-.21-.114-.424-.233-.638-.351a139.216,139.216,0,0,1-11.008-24.774,144.489,144.489,0,0,0,22.753,6.145,144.7,144.7,0,0,0,13.56,27.479" transform="translate(-1056.125 999.996)"/>
    <path id="Path_6" data-name="Path 6" d="M324.194,432.754a139.21,139.21,0,0,1-14.446,27.3c-.069,0-.133.011-.2.015-.21.015-.424.027-.634.038-.336.019-.672.038-1.007.054-.184.011-.372.015-.559.023-.049,0-.1,0-.148.007-.318.012-.631.023-.944.031-.153,0-.306,0-.455.007-.1,0-.194,0-.29,0q-.457.012-.917.012h-.756c-.306,0-.611,0-.917-.012-.088,0-.175,0-.263,0-.156,0-.317,0-.478-.007-.313-.012-.63-.019-.943-.031-.057,0-.11,0-.164-.007l-.539-.023c-.347-.016-.691-.035-1.039-.054l0,0c-.2-.011-.393-.019-.592-.034l-.21-.015a139.21,139.21,0,0,1-14.446-27.3,146.2,146.2,0,0,0,39.95,0" transform="translate(-1056.125 999.996)"/>
    <path id="Path_7" data-name="Path 7" d="M353.472,425.565a138.823,138.823,0,0,1-11.012,24.778l-.63.348c-.291.16-.585.32-.875.473-.325.172-.653.34-.982.508-.294.153-.592.306-.893.455-.13.065-.26.126-.394.191-.2.1-.389.191-.588.282-.3.146-.6.291-.9.432-.333.153-.661.3-.993.447-.306.137-.612.275-.917.4-.333.145-.665.283-1,.42-.309.126-.619.256-.932.382-.332.134-.665.26-1,.39-.317.118-.63.24-.947.359-.333.122-.669.24-1.005.359-.317.11-.638.225-.955.332q-.51.172-1.02.332c-.32.1-.637.21-.958.31-.344.107-.692.206-1.036.3-.32.1-.637.191-.958.279-.352.1-.7.191-1.058.283-.317.084-.634.172-.955.252-.359.092-.718.172-1.081.256-.313.076-.627.153-.943.225-.371.08-.741.157-1.116.233-.309.061-.615.13-.928.191-.386.076-.775.141-1.161.21-.3.054-.6.111-.894.161-.061.011-.118.019-.18.026a144.659,144.659,0,0,0,13.56-27.478,144.653,144.653,0,0,0,22.75-6.146" transform="translate(-1056.125 999.996)"/>
    <path id="Path_8" data-name="Path 8" d="M375.145,415.657a78.718,78.718,0,0,1-22.864,28.212,144.17,144.17,0,0,0,8.032-20.978,144.628,144.628,0,0,0,14.832-7.234" transform="translate(-1056.125 999.996)"/>
    <path id="Path_9" data-name="Path 9" d="M381.871,394.221c-.008.057-.019.115-.027.172-.065.382-.126.768-.2,1.15-.015.08-.026.16-.042.24-.045.237-.091.478-.137.714-.08.4-.157.814-.241,1.219-.057.271-.118.535-.175.8-.085.386-.168.772-.26,1.154,0,.007,0,.015,0,.019-.065.271-.134.542-.2.809-.087.352-.175.7-.267,1.051-.023.1-.053.2-.08.3-.05.2-.107.4-.161.6-.091.333-.183.661-.278.99-.027.091-.054.183-.081.278-.065.222-.129.444-.2.665q-.15.5-.31,1c-.015.05-.026.1-.042.141-.084.256-.164.512-.252.768-.061.191-.126.382-.191.573a139.806,139.806,0,0,1-16.516,8.949A145.707,145.707,0,0,0,366,390.42c5.481,1.123,10.8,2.395,15.867,3.8" transform="translate(-1056.125 999.996)"/>
    <path id="Path_10" data-name="Path 10" d="M360.332,389.324a139.628,139.628,0,0,1-4.767,29.323,139.2,139.2,0,0,1-22.708,6.807,144.856,144.856,0,0,0,6.673-39.136c7.082.768,14.053,1.776,20.8,3.006" transform="translate(-1056.125 999.996)"/>
    <path id="Path_11" data-name="Path 11" d="M360.546,381.582c0,.646-.012,1.3-.019,1.952-6.8-1.219-13.816-2.212-20.928-2.968a145.078,145.078,0,0,0-6.742-42.849,138.532,138.532,0,0,1,22.708,6.807,139.953,139.953,0,0,1,4.981,37.058" transform="translate(-1056.125 999.996)"/>
    <path id="Path_12" data-name="Path 12" d="M382.887,381.582c0,2.3-.111,4.61-.3,6.894-5.233-1.428-10.707-2.723-16.341-3.857.019-1.02.034-2.036.034-3.037a145.874,145.874,0,0,0-4.064-34.224,139.663,139.663,0,0,1,16.524,8.949c.035.111.073.222.111.333.084.252.168.5.248.756.088.267.172.535.256.8l.229.76c.084.271.161.539.241.81.072.252.145.508.214.764s.149.542.221.814c.069.255.134.508.2.763l.206.822c.061.256.122.512.18.764.065.278.126.554.187.832.057.252.115.508.168.764.057.279.115.558.172.837l.149.764c.053.282.1.565.153.848.045.256.091.508.133.76l.138.859c.038.252.076.5.114.76.042.287.081.577.119.864.034.252.069.5.1.756.034.294.069.588.1.886.027.244.057.493.08.741.035.3.061.6.088.9.023.245.046.485.065.73.027.309.046.622.069.932.019.237.038.47.05.706.007.13.015.26.022.39.012.2.019.4.031.6.011.218.023.439.034.657.016.367.023.733.035,1.1,0,.187.011.371.015.554.011.55.019,1.1.019,1.65" transform="translate(-1056.125 999.996)"/>
    <path id="Path_13" data-name="Path 13" d="M375.145,347.514a144.654,144.654,0,0,0-14.832-7.238,144.675,144.675,0,0,0-8.032-20.978,78.737,78.737,0,0,1,22.864,28.216" transform="translate(-1056.125 999.996)"/>
    <path id="Path_14" data-name="Path 14" d="M353.472,337.606a144.786,144.786,0,0,0-22.75-6.15,144.881,144.881,0,0,0-13.556-27.478c.061.011.123.019.184.03.282.046.565.1.848.153.4.069.8.142,1.207.218.3.057.6.126.9.187.378.076.76.153,1.138.237.31.069.619.145.925.218.366.087.737.171,1.1.263.313.08.622.164.935.245.359.1.718.191,1.074.29q.47.132.939.271c.352.1.707.206,1.054.313.318.1.627.2.94.3.348.115.695.222,1.039.34.313.107.623.218.936.329.344.118.684.24,1.027.366q.465.173.929.355c.34.13.676.256,1.012.39.309.126.619.256.928.382.332.137.664.275,1,.42.309.134.619.271.924.409.329.145.657.294.982.443.309.141.615.29.92.435.321.157.646.31.967.47.305.153.611.31.916.466s.635.325.948.493.615.328.92.5c.2.107.4.222.6.333a138.723,138.723,0,0,1,11.012,24.774" transform="translate(-1056.125 999.996)"/>
    <path id="Path_15" data-name="Path 15" d="M324.2,330.418a147.934,147.934,0,0,0-39.957,0,139.007,139.007,0,0,1,14.457-27.3c1.818-.13,3.671-.2,5.523-.2s3.7.068,5.52.2a139.007,139.007,0,0,1,14.457,27.3" transform="translate(-1056.125 999.996)"/>
    <path id="Path_16" data-name="Path 16" d="M291.273,303.978a144.859,144.859,0,0,0-13.556,27.479,144.487,144.487,0,0,0-22.754,6.149,138.747,138.747,0,0,1,11.009-24.77c.21-.119.42-.237.63-.352.29-.156.58-.317.871-.47q.5-.263,1-.515c.29-.149.58-.3.87-.443.211-.107.425-.206.635-.31l.378-.183c.29-.137.58-.279.874-.416s.6-.271.9-.4c.046-.019.092-.042.134-.061.29-.13.58-.26.874-.386.348-.153.7-.3,1.055-.443.29-.119.576-.241.867-.355.359-.146.722-.283,1.081-.421.286-.11.573-.221.863-.328.367-.138.737-.267,1.108-.4.282-.1.565-.2.851-.3.379-.126.757-.249,1.139-.371.278-.091.557-.183.84-.271q.579-.177,1.165-.344c.275-.08.55-.164.829-.244.4-.111.8-.214,1.2-.321.271-.069.539-.145.81-.214.412-.1.832-.2,1.249-.3.26-.057.519-.122.779-.179.432-.1.867-.187,1.3-.275.248-.05.492-.1.741-.153.458-.092.92-.172,1.382-.252.226-.038.451-.084.676-.122.069-.012.134-.02.2-.031" transform="translate(-1056.125 999.996)"/>
    <path id="Path_17" data-name="Path 17" d="M256.151,319.306a144.246,144.246,0,0,0-8.029,20.97,145.667,145.667,0,0,0-14.832,7.234,78.891,78.891,0,0,1,5.333-9.377c.321-.485.649-.97.981-1.448a78.829,78.829,0,0,1,16.547-17.379" transform="translate(-1056.125 999.996)"/>
    <path id="Path_18" data-name="Path 18" d="M242.16,381.582c0,1,.015,2.013.034,3.037-5.634,1.134-11.107,2.429-16.34,3.857-.2-2.284-.3-4.591-.3-6.894,0-.55,0-1.1.016-1.654,0-.176.011-.355.015-.531.011-.374.019-.745.034-1.115.011-.218.023-.432.034-.649.016-.333.031-.665.054-1,.011-.23.031-.463.05-.7q.028-.469.068-.939c.019-.245.042-.485.065-.726.027-.306.058-.607.088-.909.023-.248.054-.493.08-.737.035-.3.069-.6.1-.89.035-.248.069-.5.1-.745.042-.294.08-.588.122-.882.038-.249.076-.5.115-.741.045-.294.091-.585.137-.875.042-.248.088-.5.13-.745.054-.29.1-.577.16-.867.046-.248.1-.493.145-.741.058-.286.115-.577.176-.859.05-.249.1-.5.161-.741.061-.287.126-.573.191-.86.057-.244.118-.489.175-.733.069-.287.142-.573.214-.86.061-.24.126-.481.187-.722.077-.286.157-.576.237-.863.065-.237.13-.473.2-.71.084-.291.168-.577.256-.867.069-.233.141-.466.214-.7q.137-.437.275-.871c.076-.229.149-.455.225-.684.038-.122.084-.244.122-.367a139.746,139.746,0,0,1,16.524-8.949,145.874,145.874,0,0,0-4.064,34.224" transform="translate(-1056.125 999.996)"/>
    <path id="Path_19" data-name="Path 19" d="M275.582,337.717a145.147,145.147,0,0,0-6.742,42.849c-7.116.756-14.132,1.749-20.931,2.968-.008-.654-.019-1.311-.019-1.952a139.952,139.952,0,0,1,4.98-37.058,138.489,138.489,0,0,1,22.712-6.807" transform="translate(-1056.125 999.996)"/>
    <path id="Path_20" data-name="Path 20" d="M333.862,380.008a344.408,344.408,0,0,0-59.285,0A139.156,139.156,0,0,1,282,336.54a141.966,141.966,0,0,1,44.441,0,139.127,139.127,0,0,1,7.422,43.468" transform="translate(-1056.125 999.996)"/>
  </g>
</svg>
