<svg fill="white" xmlns="http://www.w3.org/2000/svg" width="162.469" height="107.332" viewBox="0 0 162.469 107.332">
  <g id="Group_52" data-name="Group 52" transform="translate(-1883.665 -1846.426)">
    <path id="Path_172" data-name="Path 172" d="M3047.319,846.43l-13.146,22.761-13.147,22.566-13.147-22.566-13.146-22.761Z" transform="translate(-1056.125 999.996)"/>
    <path id="Path_173" data-name="Path 173" d="M3047.319,953.762h-52.586L3007.879,931l13.147-22.565L3034.173,931Z" transform="translate(-1056.125 999.996)"/>
    <path id="Path_174" data-name="Path 174" d="M3102.26,852.317l-12.95,22.761-13.147,22.566h-52.391l12.951-22.566,13.147-22.761Z" transform="translate(-1056.125 999.996)"/>
    <path id="Path_175" data-name="Path 175" d="M3102.26,948.464h-52.39L3036.723,925.7l-12.951-22.566h52.391L3089.31,925.7Z" transform="translate(-1056.125 999.996)"/>
    <path id="Path_176" data-name="Path 176" d="M3018.279,897.643h-52.391l-13.146-22.565-12.951-22.762h52.391Z" transform="translate(-1056.125 999.996)"/>
    <path id="Path_177" data-name="Path 177" d="M3018.279,903.137,3005.328,925.7l-13.146,22.762h-52.391l12.951-22.762,13.146-22.565Z" transform="translate(-1056.125 999.996)"/>
  </g>
</svg>
