<svg fill="white" xmlns="http://www.w3.org/2000/svg" width="153.591" height="145.196" viewBox="0 0 153.591 145.196">
  <g id="Group_38" data-name="Group 38" transform="translate(335.867 -1572.549)">
    <path id="Path_54" data-name="Path 54" d="M733.747,662.882h42.868A13.488,13.488,0,0,1,790.1,676.37v27.891a13.488,13.488,0,0,1-13.488,13.488H733.747a13.488,13.488,0,0,1-13.488-13.488V676.37a13.488,13.488,0,0,1,13.488-13.488" transform="translate(-1056.125 999.996)"/>
    <path id="Path_55" data-name="Path 55" d="M736.518,572.554h37.324a16.26,16.26,0,0,1,16.26,16.26V636.03a16.26,16.26,0,0,1-16.26,16.26H736.518a16.261,16.261,0,0,1-16.26-16.26V588.814a16.261,16.261,0,0,1,16.26-16.26" transform="translate(-1056.125 999.996)"/>
    <path id="Path_56" data-name="Path 56" d="M860.361,627.42H817.492a13.487,13.487,0,0,1-13.487-13.488V586.041a13.487,13.487,0,0,1,13.487-13.488h42.869a13.488,13.488,0,0,1,13.488,13.488v27.891a13.488,13.488,0,0,1-13.488,13.488" transform="translate(-1056.125 999.996)"/>
    <path id="Path_57" data-name="Path 57" d="M857.589,717.748H820.265a16.26,16.26,0,0,1-16.26-16.26V654.272a16.259,16.259,0,0,1,16.259-16.26h37.325a16.26,16.26,0,0,1,16.26,16.26v47.216a16.26,16.26,0,0,1-16.26,16.26" transform="translate(-1056.125 999.996)"/>
  </g>
</svg>
