<svg xmlns="http://www.w3.org/2000/svg" width="150.036" height="150.032" viewBox="0 0 150.036 150.032">
  <g id="Group_47" data-name="Group 47" transform="translate(-431.965 -1829.59)">
    <path id="Path_151" data-name="Path 151" d="M1638.127,840.268v51.325a10.674,10.674,0,0,1-21.348,0V875.16a4.081,4.081,0,0,0-4.079-4.07,4.025,4.025,0,0,0-2.86,1.2L1561.432,920.7a10.674,10.674,0,0,1-15.095-15.1l47.724-47.719a4.069,4.069,0,0,0-2.878-6.943h-15.055a10.672,10.672,0,1,1,0-21.344h51.325a10.687,10.687,0,0,1,10.674,10.674" transform="translate(-1056.125 999.996)"/>
    <path id="Path_152" data-name="Path 152" d="M1638.127,840.268v51.325a10.674,10.674,0,0,1-21.348,0V875.16a4.081,4.081,0,0,0-4.079-4.07,4.025,4.025,0,0,0-2.86,1.2L1561.432,920.7a10.674,10.674,0,0,1-15.095-15.1l47.724-47.719a4.069,4.069,0,0,0-2.878-6.943h-15.055a10.672,10.672,0,1,1,0-21.344h51.325a10.687,10.687,0,0,1,10.674,10.674" transform="translate(-1056.125 999.996)"/>
    <path id="Path_153" data-name="Path 153" d="M1638.127,942.953v26a10.683,10.683,0,0,1-10.674,10.67H1498.765a10.684,10.684,0,0,1-10.674-10.67V840.268a10.687,10.687,0,0,1,10.674-10.674h26a10.672,10.672,0,1,1,0,21.344h-.321a15.024,15.024,0,0,0-15.008,15.008v77.328a15.022,15.022,0,0,0,15.008,15.008h77.328a15.022,15.022,0,0,0,15-15.008v-.321a10.674,10.674,0,1,1,21.348,0" transform="translate(-1056.125 999.996)"/>
    <path id="Path_154" data-name="Path 154" d="M1638.127,942.953v26a10.683,10.683,0,0,1-10.674,10.67H1498.765a10.684,10.684,0,0,1-10.674-10.67V840.268a10.687,10.687,0,0,1,10.674-10.674h26a10.672,10.672,0,1,1,0,21.344h-.321a15.024,15.024,0,0,0-15.008,15.008v77.328a15.022,15.022,0,0,0,15.008,15.008h77.328a15.022,15.022,0,0,0,15-15.008v-.321a10.674,10.674,0,1,1,21.348,0" transform="translate(-1056.125 999.996)"/>
  </g>
</svg>
