<svg xmlns="http://www.w3.org/2000/svg" width="191.742" height="122.481" viewBox="0 0 191.742 122.481">
  <g id="Group_30" data-name="Group 30" transform="translate(-1624.794 -1327.232)">
    <path id="Path_58" data-name="Path 58" d="M2746.512,353.938a44.79,44.79,0,0,0-13.192,31.486h-14.669a2.048,2.048,0,0,0-2.042,2.042v15.827a1.927,1.927,0,0,1-3.386,1.265l-24.616-28.524-.009-.018a29.012,29.012,0,0,1-7.675-20.186c.274-15.951,13.617-28.594,29.576-28.594h42.565a29.022,29.022,0,0,1,20.574,8.514,29.441,29.441,0,0,1,3.919,4.874.081.081,0,0,1-.066.125,44.811,44.811,0,0,0-30.979,13.189" transform="translate(-1056.125 999.996)"/>
    <path id="Path_59" data-name="Path 59" d="M2834.014,347.812h-55.609a38,38,0,0,0-38.017,37.615v.4a38.02,38.02,0,0,0,38.017,38.017h44.96a2.655,2.655,0,0,1,2.666,2.652v20.689a2.512,2.512,0,0,0,4.415,1.652l32.171-37.267.015-.028a37.884,37.884,0,0,0,10.024-26.367c-.347-20.856-17.8-37.365-38.642-37.365m-51.679,46.973a8.525,8.525,0,1,1,8.525-8.525,8.527,8.527,0,0,1-8.525,8.525m24.188,0a8.525,8.525,0,1,1,8.525-8.525,8.527,8.527,0,0,1-8.525,8.525m24.187,0a8.525,8.525,0,1,1,8.525-8.525,8.527,8.527,0,0,1-8.525,8.525" transform="translate(-1056.125 999.996)"/>
  </g>
</svg>
