<svg fill="white" xmlns="http://www.w3.org/2000/svg" width="130.891" height="163.807" viewBox="0 0 130.891 163.807">
  <path id="Path_150" data-name="Path 150" d="M1351.231,812.568h-95.338a17.776,17.776,0,0,0-17.777,17.776V958.6a17.776,17.776,0,0,0,17.777,17.776h95.338a17.775,17.775,0,0,0,17.776-17.776V830.344a17.775,17.775,0,0,0-17.776-17.776m-51.877,99.005h-36.9a3.82,3.82,0,1,1,0-7.64h36.9a3.82,3.82,0,0,1,0,7.64m31.49-27.492h-68.392a3.82,3.82,0,1,1,0-7.641h68.392a3.82,3.82,0,0,1,0,7.641m0-27.48h-68.392a3.82,3.82,0,1,1,0-7.64h68.392a3.82,3.82,0,0,1,0,7.64" transform="translate(-1238.116 -812.568)"/>
</svg>
