<svg xmlns="http://www.w3.org/2000/svg" width="158.68" height="158.68" viewBox="0 0 158.68 158.68">
  <path id="Path_104" data-name="Path 104" d="M1784.972,555.592a79.34,79.34,0,1,0,79.346,79.346,79.339,79.339,0,0,0-79.346-79.346m35.5,101.128a9.7,9.7,0,0,1-13.709,13.721l-21.794-21.794-21.782,21.794a9.7,9.7,0,0,1-13.709-13.721l21.782-21.782-21.782-21.782a9.7,9.7,0,0,1,13.709-13.721l21.782,21.782,21.794-21.782a9.7,9.7,0,0,1,13.709,13.721l-21.782,21.782Z" transform="translate(-1705.638 -555.592)"/>
</svg>
