<svg xmlns="http://www.w3.org/2000/svg" width="172.695" height="123.256" viewBox="0 0 172.695 123.256">
  <path id="Path_87" data-name="Path 87" d="M2863.888,640.561a21.155,21.155,0,0,1-8.276,15.866,17.887,17.887,0,0,1-2.448,1.665l-17.09,9.892-1.078.636-16.5,9.549-17.335,9.99-8.815,5.093-8.569,4.946a21.057,21.057,0,0,1-10.97,2.889,21.607,21.607,0,0,1-19.489-12.928,20.732,20.732,0,0,1-1.812-8.618V657.553h-42.211a18.069,18.069,0,1,1,0-36.138H2751.5V599.378a22.3,22.3,0,0,1,1.714-8.569,21.468,21.468,0,0,1,30.557-10.039l8.569,4.946,26.15,15.083,34.67,20.027c.1.049.2.147.294.2a21.289,21.289,0,0,1,10.43,19.539" transform="translate(-2691.223 -577.833)"/>
</svg>
