<svg fill="white" xmlns="http://www.w3.org/2000/svg" width="104.895" height="172.437" viewBox="0 0 104.895 172.437">
  <path id="Path_193" data-name="Path 193" d="M1611.787,1148.355l-.638.905-14.486,20.505L1565.406,1214l-14.475,20.494-8.339,11.807a3.772,3.772,0,0,1-6.727-3.144l2.32-8.663,5.486-20.494,7.574-28.253A3.766,3.766,0,0,0,1547.6,1181H1511.37a3.775,3.775,0,0,1-3.085-5.95l3.734-5.289,14.487-20.505,31.245-44.236,14.475-20.494,5.254-7.434a3.774,3.774,0,0,1,6.727,3.155l-1.149,4.279-5.486,20.494-8.745,32.638a3.765,3.765,0,0,0,3.642,4.743H1608.7a3.773,3.773,0,0,1,3.085,5.95" transform="translate(-1507.588 -1075.483)"/>
</svg>
