<svg xmlns="http://www.w3.org/2000/svg" width="152.855" height="173.819" viewBox="0 0 152.855 173.819">
  <path id="Path_190" data-name="Path 190" d="M80.726,1071.859c-42.159,0-76.31,32.267-76.31,72.071,0,25.2,13.9,47.576,34.857,60.295v37.449a3.721,3.721,0,0,0,3.769,3.768h7.3a3.721,3.721,0,0,0,3.77-3.768v-27.557h7.3v27.792a3.721,3.721,0,0,0,3.769,3.769h8.243a3.721,3.721,0,0,0,3.769-3.769v-27.792h7.3v27.792a3.721,3.721,0,0,0,3.769,3.769h8.244a3.719,3.719,0,0,0,3.767-3.769v-27.792h7.3v27.792a3.72,3.72,0,0,0,3.768,3.769h7.3a3.721,3.721,0,0,0,3.769-3.769V1204.46c20.962-12.954,34.857-35.093,34.857-60.294-.235-40.04-34.385-72.307-76.545-72.307m-12.247,80.079a2.276,2.276,0,0,1,0,3.3l-1.885,1.885a2.276,2.276,0,0,1-3.3,0l-9.892-9.893-9.892,9.893a2.278,2.278,0,0,1-3.3,0l-1.884-1.885a2.276,2.276,0,0,1,0-3.3l9.892-9.892-9.892-9.892a2.278,2.278,0,0,1,0-3.3l1.884-1.884a2.278,2.278,0,0,1,3.3,0l9.892,9.892,9.892-9.892a2.276,2.276,0,0,1,3.3,0l1.885,1.884a2.278,2.278,0,0,1,0,3.3l-9.892,9.892Zm57.233,0a2.276,2.276,0,0,1,0,3.3l-1.885,1.885a2.276,2.276,0,0,1-3.3,0l-9.892-9.893-9.893,9.893a2.275,2.275,0,0,1-3.3,0l-1.886-1.885a2.278,2.278,0,0,1,0-3.3l9.893-9.892-9.893-9.892a2.279,2.279,0,0,1,0-3.3l1.886-1.884a2.275,2.275,0,0,1,3.3,0l9.893,9.892,9.892-9.892a2.276,2.276,0,0,1,3.3,0l1.885,1.884a2.278,2.278,0,0,1,0,3.3l-9.892,9.892Z" transform="translate(-4.416 -1071.859)"/>
</svg>
