<svg xmlns="http://www.w3.org/2000/svg" width="308.419" height="308.422" viewBox="0 0 308.419 308.422">
  <g id="Group_2" data-name="Group 2" transform="translate(-52 -179.602)">
    <path id="Path_46629" data-name="Path 46629" d="M4.227,4.306H304.195V304.274H4.227ZM0,308.5H308.419V.079H0Z" transform="translate(52 179.523)"/>
    <path id="Path_46630" data-name="Path 46630" d="M240.548,45.372a137.613,137.613,0,1,0,29.59,43.884,137.551,137.551,0,0,0-29.59-43.884m-6.392,83.534c-.07.432-.123.871-.173,1.3-.02.163-.04.329-.06.486a91.955,91.955,0,0,0,0,23.646l.08.619.023.017c.047.382.093.775.153,1.151a93.411,93.411,0,0,0,7.616,25.665l-12.152-5.032-1.274-.512L215.023,170.7a61.183,61.183,0,0,1-.549-55.159l13.33-5.521,1.267-.542,12.159-5.039a93.232,93.232,0,0,0-7.074,24.465M51.692,157.09c.057-.363.1-.742.15-1.124.027-.22.053-.439.083-.662a91.234,91.234,0,0,0,0-23.63l-.067-.506-.033-.033c-.013-.1-.023-.19-.037-.286-.037-.326-.076-.655-.126-.984a93.081,93.081,0,0,0-7.613-25.652L56.2,109.245l1.28.512,13.35,5.551a61.217,61.217,0,0,1,.552,55.155l-13.327,5.514-1.284.539-12.153,5.035a93.167,93.167,0,0,0,7.074-24.461m153.024-9.346v.02l.007.057a64.467,64.467,0,0,0,5.218,20.78l-7.17-2.977-1.247-.506-10.057-4.167a40.1,40.1,0,0,1-.542-35.643l10.027-4.151,1.28-.525,7.267-3.01a64.407,64.407,0,0,0-4.773,19.669c-.13,1.636-.256,3.392-.256,5.261s.126,3.665.246,5.192m-123.6-9.525A64.377,64.377,0,0,0,75.9,117.436l7.167,2.967,1.221.506,10.09,4.171a40.137,40.137,0,0,1,.509,35.649l-10.057,4.157-1.214.525-7.27,3.007a64.248,64.248,0,0,0,4.766-19.675c.136-1.666.266-3.446.266-5.261s-.13-3.589-.259-5.261m102.172,4.992a43.807,43.807,0,0,0,3.16,15.661l-7.224-2.993-1.217-.545L167.9,151.146a19.105,19.105,0,0,1-.476-16.1l10.007-4.151,1.247-.5,7.37-3.053a43.741,43.741,0,0,0-2.76,15.871m-80.744-.379a43.861,43.861,0,0,0-3.156-15.661l7.27,3.007,1.217.482,10.074,4.167a19.123,19.123,0,0,1,.469,16.114L108.4,155.088l-1.257.572-7.357,3.046a43.78,43.78,0,0,0,2.757-15.874m43.508-12.648-.525,1.31-2.587,6.239-6.066-14.66a22.732,22.732,0,0,0,12.252-.3Zm-6.841,9.089-5.88-2.434-1.124-.459-7.666-3.176A22.725,22.725,0,0,0,133,124.327l3.076,7.42.555,1.294Zm-1.527,3.712-5.87,2.428-1.1.446-7.669,3.179a22.819,22.819,0,0,0-.3-12.262l7.383,3.063,1.31.562Zm-4.7,6.312,6.236-2.584-2.428,5.853-.486,1.091-3.189,7.693a22.787,22.787,0,0,0-8.877-8.454l7.393-3.06Zm6.825,6.472.545-1.277,2.584-6.246,2.441,5.9.449,1.041,3.176,7.669a22.591,22.591,0,0,0-5.6-.7,22.843,22.843,0,0,0-6.655,1Zm6.848-9.069,5.877,2.434,1.1.459,7.666,3.179a22.774,22.774,0,0,0-8.441,8.877l-3.086-7.407-.532-1.314Zm1.54-3.712,5.873-2.434,1.114-.489,7.649-3.173a22.807,22.807,0,0,0,.3,12.259l-7.4-3.073-1.3-.506Zm4.693-6.3-6.236,2.581,2.438-5.88.452-1.111,3.173-7.656a22.762,22.762,0,0,0,8.877,8.454l-7.42,3.073Zm2.874-29.932-.489,1.224-4.19,10.084a19.064,19.064,0,0,1-16.11.469l-4.157-10.041-.525-1.224-3.056-7.38a43.514,43.514,0,0,0,31.539-.4Zm-24.737,12.8A19.134,19.134,0,0,1,119.961,131.3l-10-4.144-1.227-.516-7.38-3.056A43.494,43.494,0,0,0,123.37,101l2.99,7.22.506,1.28Zm-21.581,39.494,10.057-4.164a19.118,19.118,0,0,1,11.727,11.055l-4.124,10.017-.525,1.25-3.046,7.373a43.559,43.559,0,0,0-22.592-22.017l7.247-3Zm20.63,20.241.489-1.231,4.194-10.074a19.131,19.131,0,0,1,8.554-2.029,18.872,18.872,0,0,1,7.553,1.563l4.161,10.034.529,1.224,3.053,7.387a43.477,43.477,0,0,0-31.542.4Zm24.741-12.868a19.272,19.272,0,0,1,4.649-7.533,19.075,19.075,0,0,1,6.422-4.207l10.014,4.147,8.624,3.569a43.525,43.525,0,0,0-22.02,22.589l-3.512-8.5Zm21.578-39.484L166.343,131.1A19.126,19.126,0,0,1,154.6,120.04l4.141-10,.542-1.227,3.066-7.413a43.536,43.536,0,0,0,22.586,22.02l-7.234,2.993ZM165.535,83.147l-.529,1.247-4.154,10.077a40.022,40.022,0,0,1-35.646.509L121.045,84.96,120.53,83.7l-3.007-7.264A64.527,64.527,0,0,0,137.2,81.215c1.517.116,3.406.263,5.268.263,1.833,0,3.652-.14,5.261-.263A64.368,64.368,0,0,0,168.5,75.993ZM121.291,95.991A40.146,40.146,0,0,1,96.448,121.56L86.417,117.4l-1.284-.5-7.247-3a64.183,64.183,0,0,0,17.3-10.556c1.337-1.154,2.644-2.291,3.888-3.5,1.214-1.181,2.308-2.471,3.366-3.722l.18-.21a64.443,64.443,0,0,0,11-18.375l2.973,7.18.525,1.234ZM85.878,168.813l10.057-4.171A40.08,40.08,0,0,1,121.5,189.486l-4.157,10.034-.519,1.257-3.016,7.25a64.237,64.237,0,0,0-10.546-17.3c-1.1-1.27-2.278-2.617-3.512-3.878-1.267-1.3-2.684-2.5-3.928-3.552a64.442,64.442,0,0,0-18.372-11l7.157-2.967Zm34.415,34.063.532-1.244,4.164-10.084a40.03,40.03,0,0,1,35.643-.512l4.154,10.031.512,1.247,3.013,7.267a64.613,64.613,0,0,0-19.679-4.773c-1.656-.133-3.426-.263-5.258-.263s-3.529.123-5.265.263a64.256,64.256,0,0,0-20.776,5.218Zm44.273-12.858a40.123,40.123,0,0,1,24.847-25.575l10.047,4.167,1.231.489,7.27,3.013a64.5,64.5,0,0,0-17.294,10.543c-1.337,1.157-2.641,2.295-3.885,3.512-1.181,1.144-2.242,2.391-3.266,3.6l-.283.333a64.12,64.12,0,0,0-11.005,18.382l-2.973-7.184-.525-1.231ZM200,117.183l-10.057,4.167a40.116,40.116,0,0,1-25.569-24.844l4.157-10.051.486-1.211,3.013-7.267a64.417,64.417,0,0,0,10.549,17.3c1.214,1.4,2.315,2.661,3.519,3.9,1.241,1.264,2.581,2.4,3.878,3.505l.037.03A64.333,64.333,0,0,0,208.4,113.718l-7.157,2.963ZM176.673,56.261l-.525,1.3L170.62,70.9a61.094,61.094,0,0,1-55.155.545l-5.518-13.317-.535-1.294-5.045-12.169a93.079,93.079,0,0,0,24.475,7.074c.409.07.825.12,1.224.166l.559.07a92.341,92.341,0,0,0,11.813.765,92.626,92.626,0,0,0,11.827-.765c.2-.03.4-.053.609-.076.382-.047.778-.1,1.157-.156a93.2,93.2,0,0,0,25.645-7.6ZM111.514,72.435a61.191,61.191,0,0,1-38.629,39.374l-13.307-5.514-13.466-5.574A93.2,93.2,0,0,0,68.461,88.405c.263-.2.529-.406.792-.609.206-.163.412-.323.625-.482a91.455,91.455,0,0,0,16.7-16.7l.057-.07c.346-.436.705-.891,1.044-1.354a93.16,93.16,0,0,0,12.754-23.51l5.012,12.1ZM59,179.935,72.356,174.4a61.221,61.221,0,0,1,39.378,38.626l-5.514,13.323-.529,1.287L100.642,239.8a93.017,93.017,0,0,0-12.315-22.339c-.3-.4-.6-.792-.9-1.174l-.2-.249a94.729,94.729,0,0,0-7.809-8.89,93.3,93.3,0,0,0-8.9-7.816l-.409-.319c-.336-.259-.669-.522-1-.768a93.162,93.162,0,0,0-23.493-12.755l12.1-5.015Zm50.166,49.814.529-1.3,5.541-13.35a61.094,61.094,0,0,1,55.155-.545l5.508,13.31.539,1.31,5.025,12.143a93.089,93.089,0,0,0-24.481-7.081c-.373-.057-.758-.106-1.144-.153-.213-.027-.422-.053-.639-.083a91.169,91.169,0,0,0-23.646,0c-.233.033-.472.063-.715.093-.353.043-.705.087-1.044.14a93.025,93.025,0,0,0-25.642,7.593Zm65.163-16.19a61.152,61.152,0,0,1,38.629-39.368l13.307,5.5,1.294.539,12.172,5.042a93.48,93.48,0,0,0-22.349,12.312c-.336.249-.665.512-1,.775l-.409.323a90.976,90.976,0,0,0-16.712,16.712c-.16.21-.323.412-.486.619-.2.259-.406.516-.609.782a93.813,93.813,0,0,0-12.754,23.517l-5.019-12.1Zm52.524-107.51L213.5,111.583A61.214,61.214,0,0,1,174.115,72.96l5.514-13.313.536-1.29L185.2,46.181a93.164,93.164,0,0,0,12.315,22.346c.349.472.715.938,1.064,1.387l.023.03a91.318,91.318,0,0,0,16.706,16.706c.472.369.941.732,1.42,1.1A93.237,93.237,0,0,0,240.246,100.5l-12.1,5.015ZM261.8,91.571l-1.32.545-15.073,6.239c-.881-.279-1.862-.6-2.827-.958l-.053-.017c-.13-.043-.253-.093-.379-.143-.15-.06-.3-.12-.422-.163a89.445,89.445,0,0,1-23.979-13.237c-.216-.17-.432-.333-.652-.5-.3-.229-.6-.456-.891-.692a91.312,91.312,0,0,1-7.177-6.442,90.845,90.845,0,0,1-6.449-7.194c-.226-.273-.439-.552-.665-.851-.176-.229-.349-.459-.519-.675a89.429,89.429,0,0,1-13.247-23.972c-.05-.143-.106-.286-.16-.426s-.1-.263-.156-.419c-.193-.529-.369-1.071-.539-1.606l6.236-15.073.559-1.26,1.922-4.646A134.339,134.339,0,0,1,265.834,89.9Zm-71.149-69-.575,1.337L183.84,38.974c-.8.422-1.663.855-2.671,1.34l-.319.14c-.176.076-.353.153-.506.226a89.569,89.569,0,0,1-26.334,7.593l-.313.043c-.535.07-1.071.143-1.6.2a90.5,90.5,0,0,1-9.635.516,90.343,90.343,0,0,1-9.632-.516c-.555-.06-1.117-.136-1.66-.21l-.266-.037a89.527,89.527,0,0,1-26.337-7.639l-.276-.123c-.173-.076-.343-.15-.506-.229-.512-.249-1.024-.509-1.537-.768L96.005,24.43l-2.441-5.893a134.352,134.352,0,0,1,98.727,0Zm-99.136,1.58.539,1.267L98.3,40.487c-.3.951-.612,1.892-.961,2.85-.043.126-.093.253-.143.379-.06.153-.12.306-.17.449a89.281,89.281,0,0,1-13.26,23.992l-.14.186c-.349.462-.675.9-1.041,1.337A89.49,89.49,0,0,1,68.957,83.31c-.329.269-.662.519-1.014.785-.173.13-.346.259-.522.4A89.122,89.122,0,0,1,43.428,97.744l-.229.086c-.193.076-.389.15-.6.223-.525.19-1.074.369-1.613.545L25.9,92.35l-1.264-.516L20,89.908A134.363,134.363,0,0,1,89.833,20.083ZM22.528,95.326l1.29.509,15.066,6.243c.459.875.9,1.753,1.34,2.681.057.11.106.223.156.336.073.17.146.336.226.5A89.33,89.33,0,0,1,48.184,131.9l.09.7c.06.422.113.818.153,1.231a89.845,89.845,0,0,1,0,19.283c-.04.4-.093.792-.15,1.211-.033.236-.063.472-.093.705a89.408,89.408,0,0,1-7.6,26.344c-.043.1-.083.19-.123.286-.073.17-.146.336-.233.512-.239.5-.492,1.008-.755,1.523l-15.083,6.243-1.287.529-4.636,1.916a134.357,134.357,0,0,1-.007-98.737Zm1.527,99.109,1.33-.562,15.069-6.233c.831.263,1.833.589,2.827.948.11.04.223.083.336.126.176.07.353.136.522.2a89.492,89.492,0,0,1,24,13.267c.615.456,1.081.818,1.517,1.174a89.379,89.379,0,0,1,13.623,13.616c.239.3.476.609.712.918.16.21.319.419.479.625a89.4,89.4,0,0,1,13.247,23.982c.05.136.1.269.153.406s.11.289.16.426c.2.562.382,1.124.539,1.616l-6.243,15.073-.555,1.264-1.922,4.64A134.351,134.351,0,0,1,20.011,196.1Zm71.186,68.99.532-1.31,6.246-15.069c.825-.436,1.7-.871,2.667-1.327l.825-.379a89.446,89.446,0,0,1,26.327-7.586c.283-.033.562-.073.841-.11.366-.05.732-.1,1.084-.14a89.859,89.859,0,0,1,19.253,0c.359.043.718.093,1.078.14.289.04.579.077.868.113a89.323,89.323,0,0,1,26.327,7.589l.828.363c.506.249,1,.5,1.5.758l6.243,15.063.525,1.317,1.909,4.606a134.4,134.4,0,0,1-98.727.01Zm99.119-1.536-.539-1.317-6.243-15.059c.306-.964.615-1.909.958-2.847.057-.156.116-.309.176-.466.047-.12.093-.239.14-.369a89.544,89.544,0,0,1,13.233-23.969c.173-.216.343-.439.509-.658.233-.3.452-.592.7-.885a87.647,87.647,0,0,1,6.442-7.177,88.883,88.883,0,0,1,7.2-6.465c.309-.253.622-.5.958-.752q.284-.215.559-.429a89.643,89.643,0,0,1,24-13.25l.825-.316c.529-.183,1.068-.356,1.6-.529l15.056,6.233,1.3.562,4.606,1.9a134.32,134.32,0,0,1-69.805,69.809ZM263.35,190.7l-1.314-.535-15.066-6.246c-.452-.858-.895-1.739-1.344-2.684-.086-.176-.166-.362-.246-.542l-.12-.273a89.24,89.24,0,0,1-7.586-26.34c-.1-.675-.18-1.287-.249-1.9a90.809,90.809,0,0,1,0-19.27c.07-.6.15-1.2.256-1.932a89.135,89.135,0,0,1,7.589-26.34c.043-.09.08-.183.12-.273.076-.17.146-.336.236-.516.233-.476.479-.971.762-1.527l15.063-6.246,1.3-.522,4.633-1.926a134.375,134.375,0,0,1,0,98.743Z" transform="translate(63.29 190.816)"/>
  </g>
</svg>
