<svg xmlns="http://www.w3.org/2000/svg" xmlns:xlink="http://www.w3.org/1999/xlink" width="480" height="489" viewBox="0 0 480 489">
  <defs>
    <clipPath id="clip-path">
      <rect id="Rectangle_7528" data-name="Rectangle 7528" width="378.941" height="198.146" fill="none"/>
    </clipPath>
    <clipPath id="clip-limeMini">
      <rect width="480" height="489"/>
    </clipPath>
  </defs>
  <g id="limeMini" clip-path="url(#clip-limeMini)">
    <rect width="480" height="489" fill="#fff"/>
    <rect id="Rectangle_7529" data-name="Rectangle 7529" width="480" height="489" fill="#f9f18f"/>
    <g id="Group_17636" data-name="Group 17636" transform="translate(50.53 125.29)">
      <text id="HINT_OF" data-name="HINT OF" transform="translate(20.629 61.098)" font-size="35" font-family="ModulaOT-SansBlack, Modula OT" font-weight="800"><tspan x="0" y="0">HINT OF</tspan></text>
      <g id="Group_17635" data-name="Group 17635">
        <g id="Group_17634" data-name="Group 17634" clip-path="url(#clip-path)">
          <path id="Path_57463" data-name="Path 57463" d="M577.841,84.415c-.966-3.186-1.861-6.4-2.652-9.641a35.251,35.251,0,0,0-6.439-13.745c-3.163-3.973-6.9-7.491-10.422-11.175a9.436,9.436,0,0,0-1.695-1.179,34.723,34.723,0,0,1-3.74-2.481A58.1,58.1,0,0,0,534.18,35.711c-10.692-3.773-21.445-7.633-33.074-7.434-2.775.047-5.388-.36-8.31.53a151.708,151.708,0,0,1-19.338,4.172,24.593,24.593,0,0,0-10.137,4.077c2.49,2.7,4.721,5.171,7,7.585q8.261,8.729,16.558,17.415a15.135,15.135,0,0,0,1.274,1.189c1.78,1.468,3.613,2.879,5.355,4.394,5.337,4.621,10.5,9.465,16,13.883A213.479,213.479,0,0,1,525.9,96.57c4.034,4,8.154,7.846,12.5,11.52,6.809,5.762,13.248,11.955,19.811,18,1.136,1.047,2.964,1.544,3.826.564a90.527,90.527,0,0,0,5.862-7.264,48.886,48.886,0,0,0,3.372-6.023,42.585,42.585,0,0,0,2.594-5.658c1.558-4.6,2.676-9.361,4.46-13.869,1.335-3.376.464-6.307-.478-9.428m-69.373-9.209c-2.007-1.71-3.973-3.471-6.033-5.114-5.355-4.267-11.018-8.187-16.052-12.8-4.3-3.949-8.83-7.837-12.2-13.32,5.062-1.695,9.816-3.594,15.493-4.252,6.293,11.667,13.438,22.988,19.537,34.9-.247.2-.5.393-.744.588M492.257,39.485c6.685-1.662,12.779-.507,19.091.2a376.929,376.929,0,0,1,3.409,40.465c-7.95-13.874-12.52-28.713-22.5-40.669m24.972,42.7c-.18-2.552-.436-5.024-.5-7.5-.08-2.983.109-5.971-.023-8.945-.123-2.874-.44-5.743-.8-8.594-.464-3.651-1.482-7.216-.677-11,.345-1.61-.213-3.414-.389-5.446,7.6.128,13.571,4.64,20.891,6.572-6.018,12.1-11.662,23.457-17.344,34.793-.076.156-.63.071-1.155.119m27.207-.128c-6.563-.09-13.135.5-19.82.469,2.263-2.131,5.393-2.424,8.012-3.76,2.888-1.468,5.857-2.775,8.812-4.115,2.841-1.288,5.715-2.5,8.556-3.8s5.649-2.642,8.48-3.977a24.828,24.828,0,0,1,5.858,16.52c-6.828-.488-13.358-1.255-19.9-1.34m20.522,4.65c.781,6.193-1.326,11.26-3.523,16.4-5.474-2.325-10.583-4.427-15.621-6.686a23.473,23.473,0,0,1-4.02-2.68c-3.447-2.543-6.8-5.227-11.118-6.217-.4-.095-.753-.4-1.037-1.245,3.968-.185,7.931-.464,11.9-.53,4.593-.071,9.2-.057,13.783.109,3.2.119,6.378.549,9.636.848m-41.5-7.277-.578-.592c1.444-2.514,2.86-5.043,4.347-7.533.933-1.572,2.112-3.007,2.931-4.631,2.49-4.934,4.867-9.92,7.259-14.9,1.311-2.727,2.594-3.357,4.754-1.53,4.854,4.11,9.48,8.485,14.172,12.78a11.687,11.687,0,0,1,1.264,2.064c-12.169,3.736-22.444,10.734-34.149,14.342m-1.913,7.585a15.608,15.608,0,0,1,2.912.743,71.9,71.9,0,0,1,9.821,5.062,175.989,175.989,0,0,0,15.332,8.708c3.239,1.719,6.652,3.111,10.147,4.721-1.145,4.361-6.137,5.9-5.5,10.658-12.367-8.556-22.515-19.144-32.714-29.892m51.716,11.17a64.977,64.977,0,0,1-7.666,19.347,67.866,67.866,0,0,1-5.062,6.52c-1.766-1.842-3.082-3.215-4.588-4.777a34.079,34.079,0,0,0,8.774-10.256c.5-.89,1.6-1.444,2.244-2a55.562,55.562,0,0,1,.057-7.174c.5-3.85,1.667-7.609,1.179-11.567-.194-1.6.535-2.822,2.566-3.6-2.457-.587-3.29-1.766-3.527-3.707a35.384,35.384,0,0,0-1.619-8.1A33.96,33.96,0,0,0,555.549,58.43c-3.527-2.964-6.671-6.406-10.336-9.176-2.538-1.918-5.635-3.125-8.542-4.513-5.213-2.49-10.384-5.114-16.16-6.137-1.028-.18-2.046-.4-3.083-.526-2.226-.265-4.2-.786-3.968-4.569-.819,1.615-1.2,2.368-1.809,3.571a46.869,46.869,0,0,0-19.678-.7c-6.6,1.17-13.045,3.159-19.523,4.778-1.065-.994-2.225-2.074-3.627-3.381a65.527,65.527,0,0,1,7.022-2.467,181.251,181.251,0,0,1,18.268-3.693c3.835-.473,7.851.734,11.743.5,5.128-.313,9.546,1.942,14.3,2.964a56.807,56.807,0,0,1,12.851,3.935c2.661,1.278,5.786,1.6,8.442,2.888,2.789,1.349,5.256,3.352,7.879,5.057,5.408,3.509,9.593,8.391,14.125,12.855a26.871,26.871,0,0,1,4.844,7.15,56.709,56.709,0,0,1,5.195,13.253,41.576,41.576,0,0,1-.232,17.965" transform="translate(-200.063 -12.187)"/>
          <path id="Path_57464" data-name="Path 57464" d="M461.984,86.228a27.826,27.826,0,0,1,1.891-3.205c.636-.824,1.776-.607,1.88.287a5.39,5.39,0,0,1-.692,3.55c-.8,1.084-2.049.6-3.079-.631" transform="translate(-199.485 -35.627)" fill="#8dc63f"/>
          <path id="Path_57465" data-name="Path 57465" d="M514.881,3.114,518.966,0c1.682,1.774.291,3.173-.4,4.9-1.113-.9-3.256.978-3.688-1.79" transform="translate(-222.326)" fill="#8dc63f"/>
          <path id="Path_57466" data-name="Path 57466" d="M473.981,28h-3.53c-.024-2.089.2-3.834,2.916-4.777.211,1.645.4,3.115.614,4.777" transform="translate(-203.141 -10.03)" fill="#8dc63f"/>
          <path id="Path_57467" data-name="Path 57467" d="M470.428,12.786l-3.439-.773c-.628-1.023-.105-1.653.8-2.216a2.881,2.881,0,0,1,3.982.37l-1.342,2.619" transform="translate(-201.527 -3.959)" fill="#8dc63f"/>
          <path id="Path_57468" data-name="Path 57468" d="M496.348,111.382a32.254,32.254,0,0,1,.459,3.96,1.575,1.575,0,0,1-1.007,1.132,1.732,1.732,0,0,1-1.314-.711c-1.233-1.644-.973-2.416,1.863-4.38" transform="translate(-213.217 -48.095)" fill="#8dc63f"/>
          <path id="Path_57469" data-name="Path 57469" d="M576.865,192.032l-3.955-1.139c.542-1.735,1.476-2.884,3.209-2.293,1.618.552,1.66,1.881.746,3.432" transform="translate(-247.383 -81.37)" fill="#8dc63f"/>
          <path id="Path_57470" data-name="Path 57470" d="M551.131,143.753l3.565-2.4c1.324,1.711.558,2.946-.361,3.6-.649.464-1.905.078-2.89.072l-.315-1.27" transform="translate(-237.979 -61.034)" fill="#8dc63f"/>
          <path id="Path_57471" data-name="Path 57471" d="M505.076,123.364l2.074.83c-.054.663-.081,1.223-.149,1.777-.108.879.014,2.135-1.323,1.931a1.983,1.983,0,0,1-1.64-2.6,8.484,8.484,0,0,1,1.038-1.942" transform="translate(-217.615 -53.269)" fill="#8dc63f"/>
          <path id="Path_57472" data-name="Path 57472" d="M442.351,61.2c-2.387-1.109-2.947-1.86-2.156-3.149a2.153,2.153,0,0,1,1.87-.819c1.309.426,1.373,1.683.286,3.968" transform="translate(-189.931 -24.699)" fill="#8dc63f"/>
          <path id="Path_57473" data-name="Path 57473" d="M420,37.346c-.161-1.46-.743-2.985.514-4.2.316-.3,1.247.031,1.864.071.316,3.79.316,3.79-2.378,4.125" transform="translate(-181.236 -14.26)" fill="#8dc63f"/>
          <path id="Path_57474" data-name="Path 57474" d="M487.732,3.974c1.574.6,2.255,1.159,1.751,2.456-.542,1.4-.982,1.62-3.5,1.365l1.744-3.821" transform="translate(-209.85 -1.716)" fill="#8dc63f"/>
          <path id="Path_57475" data-name="Path 57475" d="M519.092,116.2l-2.411-2.822,2.346-1.705c1.739,2.6,1.739,2.6.065,4.527" transform="translate(-223.103 -48.22)" fill="#8dc63f"/>
          <path id="Path_57476" data-name="Path 57476" d="M512.45,133.513c1.623-2.142,1.623-2.142,3.622-.949-1.042,3.238-1.194,3.287-3.622.949" transform="translate(-221.277 -56.895)" fill="#8dc63f"/>
          <path id="Path_57477" data-name="Path 57477" d="M455.859,73.871c-.264.089-.831.493-1.14.347a8.129,8.129,0,0,1-2.625-1.755c-.212-.237.5-1.3.793-1.989a20.494,20.494,0,0,1,2.051,1.481c.313.285.407.809.92,1.916" transform="translate(-195.198 -30.431)" fill="#8dc63f"/>
          <path id="Path_57478" data-name="Path 57478" d="M450.531,11.93c1.51,1.156,1.947,2.216,1.1,3.306-.4.519-1.343.622-2.04.913a5.478,5.478,0,0,1-.4-2.073,8.007,8.007,0,0,1,1.341-2.146" transform="translate(-193.948 -5.151)" fill="#8dc63f"/>
          <path id="Path_57479" data-name="Path 57479" d="M488.02,90.374c.166-1.214.331-2.428.527-3.858,2.542,1.74,2.531,2.2.315,4.045l-.842-.187" transform="translate(-210.728 -37.358)" fill="#8dc63f"/>
          <path id="Path_57480" data-name="Path 57480" d="M433.647,18.786c1.649.827,2.323,1.87,1.159,3.279a2.034,2.034,0,0,1-1.988.151c-1.377-1.455-.056-2.347.83-3.43" transform="translate(-186.634 -8.112)" fill="#8dc63f"/>
          <path id="Path_57481" data-name="Path 57481" d="M432.865,45.226a29.9,29.9,0,0,1,.63,3.28c.027.3-.475.822-.827.923a1.412,1.412,0,0,1-1.171-.378c-1.048-1.12-.6-2.6,1.368-3.824" transform="translate(-186.083 -19.529)" fill="#8dc63f"/>
          <path id="Path_57482" data-name="Path 57482" d="M484.844,102.776c1.967.482,2.343,1.674,1.736,3.151a1.759,1.759,0,0,1-1.653.377c-1.695-.951-1.144-2.163-.082-3.527" transform="translate(-208.925 -44.379)" fill="#8dc63f"/>
          <path id="Path_57483" data-name="Path 57483" d="M502.69,3.41c-.992.961-1.713,1.7-2.513,2.34A2.469,2.469,0,0,1,499.136,4.7c-.271-1.1.765-2.772,1.585-2.624.556.1,1.028.67,1.969,1.336" transform="translate(-215.508 -0.892)" fill="#8dc63f"/>
          <path id="Path_57484" data-name="Path 57484" d="M467.33,64.065c1.844.16,2.892.736,2.525,2.317-.119.514-1.339,1.3-1.691,1.143-1.428-.638-1.2-1.923-.834-3.46" transform="translate(-201.674 -27.663)" fill="#8dc63f"/>
          <path id="Path_57485" data-name="Path 57485" d="M535.314,152.641c.83-1.34,1.524-2.608,2.986-1.626a2.383,2.383,0,0,1,.19,2.331c-1.09,1.3-2.136.565-3.176-.705" transform="translate(-231.149 -65.058)" fill="#8dc63f"/>
          <path id="Path_57486" data-name="Path 57486" d="M459.128,26.716c-.224,4.142-.529,4.3-3.466,2.417.335-1.845,2.163-1.324,3.466-2.417" transform="translate(-196.755 -11.536)" fill="#8dc63f"/>
          <path id="Path_57487" data-name="Path 57487" d="M503.215,21.162l-1.773-2.483c.879-1.378,1.944-1.641,2.825-.485.924,1.213.42,2.246-1.052,2.968" transform="translate(-216.523 -7.542)" fill="#8dc63f"/>
          <path id="Path_57488" data-name="Path 57488" d="M519.384,16.876c1.351.686,2.107,1.577,1.161,2.955a1.666,1.666,0,0,1-1.617.2c-1.148-1.134-.673-2.185.456-3.151" transform="translate(-223.788 -7.287)" fill="#8dc63f"/>
          <path id="Path_57489" data-name="Path 57489" d="M555.994,173.115a21.662,21.662,0,0,1,1.98-2.67,13.509,13.509,0,0,1,2.221,1.382l-3.311,2.166-.889-.878" transform="translate(-240.079 -73.595)" fill="#8dc63f"/>
          <path id="Path_57490" data-name="Path 57490" d="M526.636,143.318c.986,1.388,1.33,2.531.021,3.439a1.876,1.876,0,0,1-1.789-.193c-.849-1.593.054-2.517,1.768-3.247" transform="translate(-226.499 -61.885)" fill="#8dc63f"/>
          <path id="Path_57491" data-name="Path 57491" d="M569.583,178.463c-.2,4.015-.728,4.341-3.61,2.7l3.61-2.7" transform="translate(-244.388 -77.061)" fill="#8dc63f"/>
          <path id="Path_57492" data-name="Path 57492" d="M476.763,74.932c1.953.524,2.682,1.466,2.3,2.828a2.1,2.1,0,0,1-1.905.7c-1.407-.842-.641-2.082-.4-3.528" transform="translate(-205.682 -32.356)" fill="#8dc63f"/>
          <path id="Path_57493" data-name="Path 57493" d="M472.314,92.277c1.559.609,2.484,1.419,1.673,2.7s-1.943.839-3.1-.359l1.423-2.342" transform="translate(-203.331 -39.845)" fill="#8dc63f"/>
          <path id="Path_57494" data-name="Path 57494" d="M546.678,161.235c.353-.84.411-1.387.709-1.6a9.751,9.751,0,0,1,2.2-1.136c.076-.03.712.864.618,1a8.34,8.34,0,0,1-1.74,1.846c-.26.2-.838-.029-1.788-.1" transform="translate(-236.056 -68.438)" fill="#8dc63f"/>
          <path id="Path_57495" data-name="Path 57495" d="M573.828,162.921a8.95,8.95,0,0,1,1.219,2.524c.037.363-.842.822-1.307,1.237a10.826,10.826,0,0,1-1.165-2.153c-.081-.27.565-.759,1.252-1.608" transform="translate(-247.236 -70.349)" fill="#8dc63f"/>
          <path id="Path_57496" data-name="Path 57496" d="M526.609,129.255l1.833-2.455.781.127.664,3.359-3.277-1.031" transform="translate(-227.39 -54.752)" fill="#8dc63f"/>
          <path id="Path_57497" data-name="Path 57497" d="M563.258,157.834c-1.334-.772-2.012-1.6-.964-2.808.254-.292,1.232-.428,1.425-.219.91.988.919,2.034-.461,3.027" transform="translate(-242.578 -66.802)" fill="#8dc63f"/>
          <path id="Path_57498" data-name="Path 57498" d="M486.731,24.345l1.319-2.787c.42.254.817.352.9.572.263.662.735,1.5.526,2.036-.465,1.194-1.421.661-2.748.178" transform="translate(-210.171 -9.309)" fill="#8dc63f"/>
          <path id="Path_57499" data-name="Path 57499" d="M459.7,56.367c-1.919-1.714-.667-2.553.343-3.819,1.712,1.832,1.12,2.808-.343,3.819" transform="translate(-198.065 -22.69)" fill="#8dc63f"/>
          <path id="Path_57500" data-name="Path 57500" d="M539.033,137.613l2.443-1.776c.327.552,1.047,1.238.913,1.632-.5,1.456-1.745,1.087-2.828.968l-.527-.824" transform="translate(-232.755 -58.655)" fill="#8dc63f"/>
          <path id="Path_57501" data-name="Path 57501" d="M500.7,96.337c1.264,1.112,1.689,2.1.553,3.106a1.548,1.548,0,0,1-1.521-.088c-.988-1.231-.049-2.014.968-3.019" transform="translate(-215.604 -41.598)" fill="#8dc63f"/>
          <path id="Path_57502" data-name="Path 57502" d="M447.487,44.429V40.911c2.515,1.034,2.521,1.094,0,3.518" transform="translate(-193.225 -17.665)" fill="#8dc63f"/>
          <path id="Path_57503" data-name="Path 57503" d="M508.968,107.217,506.36,109.1c-.08-1.073-.365-1.807-.125-2.269.69-1.33,1.557-.911,2.734.384" transform="translate(-218.552 -45.779)" fill="#8dc63f"/>
          <path id="Path_57504" data-name="Path 57504" d="M587.69,178.19c-.617.419-1.167,1.036-1.451.932-.524-.193-.893-.809-1.327-1.248.461-.408.965-1.178,1.371-1.13.469.056.853.834,1.407,1.445" transform="translate(-252.566 -76.317)" fill="#8dc63f"/>
          <path id="Path_57505" data-name="Path 57505" d="M442.145,34.878c-1.568-1.374-.265-2.024.813-2.721.271.976.419,1.927-.813,2.721" transform="translate(-190.605 -13.885)" fill="#8dc63f"/>
          <path id="Path_57506" data-name="Path 57506" d="M577.439,100.672a64.978,64.978,0,0,1-7.666,19.347,67.886,67.886,0,0,1-5.062,6.52c-1.766-1.842-3.082-3.215-4.588-4.777a34.081,34.081,0,0,0,8.774-10.256c.5-.89,1.6-1.444,2.244-2a55.551,55.551,0,0,1,.057-7.174c.5-3.85,1.667-7.609,1.179-11.567-.194-1.6.535-2.822,2.566-3.6-2.457-.587-3.29-1.766-3.527-3.707a35.381,35.381,0,0,0-1.619-8.1A33.961,33.961,0,0,0,559.73,60.922c-3.527-2.964-6.671-6.406-10.336-9.176-2.538-1.918-5.635-3.125-8.542-4.513-5.213-2.49-10.384-5.114-16.16-6.137-1.028-.18-2.046-.4-3.082-.526-2.226-.265-4.2-.786-3.968-4.569-.819,1.615-1.2,2.368-1.809,3.571a46.869,46.869,0,0,0-19.678-.7c-6.6,1.17-13.045,3.159-19.523,4.778-1.065-.994-2.225-2.074-3.627-3.381a65.527,65.527,0,0,1,7.022-2.467,181.249,181.249,0,0,1,18.268-3.693c3.835-.473,7.851.734,11.743.5,5.128-.313,9.546,1.942,14.3,2.964A56.809,56.809,0,0,1,537.187,41.5c2.661,1.278,5.786,1.6,8.442,2.888,2.789,1.349,5.256,3.352,7.879,5.057,5.408,3.509,9.593,8.391,14.125,12.855a26.874,26.874,0,0,1,4.844,7.15,56.709,56.709,0,0,1,5.194,13.253,41.575,41.575,0,0,1-.232,17.965" transform="translate(-204.244 -14.68)" fill="#a6ff1a"/>
          <path id="Path_57507" data-name="Path 57507" d="M574.878,56.747C568.86,68.85,563.216,80.2,557.534,91.54c-.076.156-.63.071-1.155.119-.18-2.552-.436-5.024-.5-7.5-.08-2.983.109-5.971-.024-8.945-.123-2.874-.44-5.743-.8-8.594-.464-3.651-1.482-7.216-.677-11,.345-1.61-.213-3.414-.389-5.446,7.6.128,13.57,4.64,20.891,6.572" transform="translate(-239.212 -21.666)" fill="#cef982"/>
          <path id="Path_57508" data-name="Path 57508" d="M602.864,81.022c-12.169,3.736-22.444,10.734-34.149,14.342l-.578-.592c1.444-2.514,2.86-5.043,4.347-7.533.933-1.572,2.112-3.007,2.931-4.631,2.49-4.934,4.867-9.92,7.259-14.9,1.311-2.727,2.594-3.357,4.754-1.53,4.854,4.11,9.48,8.485,14.172,12.78a11.683,11.683,0,0,1,1.264,2.064" transform="translate(-245.322 -28.127)" fill="#cef982"/>
          <path id="Path_57509" data-name="Path 57509" d="M517.466,83.355c-.246.2-.5.393-.743.587-2.008-1.709-3.973-3.471-6.033-5.114-5.355-4.266-11.018-8.187-16.052-12.8-4.3-3.949-8.831-7.836-12.2-13.319,5.062-1.7,9.816-3.594,15.492-4.252,6.293,11.667,13.438,22.989,19.537,34.9" transform="translate(-208.317 -20.924)" fill="#cef982"/>
          <path id="Path_57510" data-name="Path 57510" d="M536.747,88.062c-7.95-13.874-12.52-28.713-22.5-40.669,6.686-1.662,12.78-.507,19.092.2a376.945,376.945,0,0,1,3.409,40.465" transform="translate(-222.052 -20.096)" fill="#cef982"/>
          <path id="Path_57511" data-name="Path 57511" d="M611.832,146.787c-5.474-2.325-10.583-4.427-15.621-6.686a23.494,23.494,0,0,1-4.02-2.68c-3.447-2.543-6.8-5.227-11.117-6.217-.4-.095-.753-.4-1.037-1.245,3.968-.185,7.931-.464,11.9-.53,4.593-.071,9.2-.057,13.783.109,3.2.118,6.378.549,9.635.847.781,6.193-1.326,11.26-3.523,16.4" transform="translate(-250.461 -55.87)" fill="#cef982"/>
          <path id="Path_57512" data-name="Path 57512" d="M610.913,112.762c-6.828-.488-13.357-1.255-19.9-1.34-6.563-.09-13.134.5-19.82.469,2.263-2.131,5.393-2.424,8.012-3.76,2.888-1.468,5.857-2.775,8.812-4.115,2.841-1.288,5.716-2.5,8.557-3.8s5.648-2.642,8.48-3.977a24.83,24.83,0,0,1,5.857,16.52" transform="translate(-246.643 -41.557)" fill="#cef982"/>
          <path id="Path_57513" data-name="Path 57513" d="M598.5,161.576c-12.368-8.556-22.515-19.144-32.714-29.892a15.617,15.617,0,0,1,2.912.743,71.888,71.888,0,0,1,9.82,5.062,176.1,176.1,0,0,0,15.332,8.708c3.239,1.719,6.653,3.111,10.147,4.721-1.146,4.361-6.137,5.9-5.5,10.658" transform="translate(-244.307 -56.861)" fill="#cef982"/>
          <path id="Path_57514" data-name="Path 57514" d="M332.043,229.033c-2.954-2.118-1.6-5.249-1.948-7.817-.562-4.09-.252-8.293-.47-12.439-.385-7.3-.743-14.606-1.4-21.883-.4-4.426.1-8.777.272-13.161a14.322,14.322,0,0,0-.351-4.127c-8.2,10.091-15.657,20.61-24.369,30.32l-21.948-22.618c-.451.611-.791.857-.8,1.116-.341,9.729-.614,19.461-.981,29.189q-.326,8.66-.9,17.31c-.136,2.1-1.275,2.981-3.24,3.1-2.515.157-5.022.455-7.538.59-5.2.279-10.4.5-15.607.715a5.027,5.027,0,0,1-1.249-.372c-.191-12.489-.33-25-.6-37.509-.123-5.8-.546-11.591-.723-17.39-.056-1.826.336-3.663.364-5.5.092-6.092.172-12.184.135-18.276-.021-3.361-.34-6.72-.424-10.082-.128-5.107-.15-10.217-.263-15.325-.033-1.5-.323-2.995-.31-4.491a27.432,27.432,0,0,1,.43-3.482c.543-.251.782-.47.954-.426,6.224,1.6,12.423.2,18.624-.169,2.995-.179,5.975-.639,8.971-.771a2.723,2.723,0,0,1,2.188,1.142c2.374,5.783,6.421,10.43,10.037,15.391,3.133,4.3,5.885,8.874,8.951,13.224a55.287,55.287,0,0,0,4.458,4.929c1.142-1.194,2.2-2.186,3.128-3.289q7.726-9.192,15.383-18.443a17.856,17.856,0,0,0,2.522-3.758c1.681-3.639,5.044-5.822,7.449-8.829.521-.651,1.844-.828,2.824-.91,2.3-.193,4.609-.155,6.912-.287,3.24-.185,6.484-.36,9.711-.689,2.76-.281,5.5-.787,8.247-1.164,1.194-.164,2.4-.253,3.655-.383a80.713,80.713,0,0,0-.336,21.335,34.254,34.254,0,0,1-.274,3.779c-.052,5.759-.114,11.519-.06,17.277.071,7.484.365,14.968.333,22.451-.016,3.924-.792,7.85-.744,11.769.07,5.775.652,11.542.855,17.318.159,4.5.068,9.018.1,13.528.011,1.594.133,3.192.057,4.781a8.071,8.071,0,0,1-.9,2.15l-1.7-2.41c-5.45,2.137-11.332,2.681-17.287,2.852a12.07,12.07,0,0,0-4.4.918c-2.589,1.135-5.2.957-7.733.809m1.623-2.856c2.247-.275,4.445-.005,6.044-.859,2.828-1.509,5.723-1.518,8.707-1.645,3.787-.162,7.644.024,11.073-1.647.318-6.681.786-13.158.894-19.642.152-9.182.051-18.368.023-27.551,0-1.269-.3-2.537-.3-3.806-.034-6.156-.01-12.312-.018-18.468,0-2.647,0-5.294-.061-7.94-.073-3.331-.27-6.66-.3-9.992-.051-5.9-.014-11.8-.014-17.8a38.38,38.38,0,0,0-5.481.041,63.268,63.268,0,0,1-15.552.782c-1.508-.151-3.329-.139-4.447,1.295-4.342,5.569-8.625,11.186-12.934,16.781q-5.277,6.85-10.57,13.687c-.9,1.155-1.989,2.171-2.808,3.376-1.423,2.092-2.169,2.4-4.2.982a13.625,13.625,0,0,1-2.9-2.886c-1.836-2.4-3.509-4.926-5.305-7.358-5.38-7.284-11-14.4-16.076-21.893-2-2.951-4.185-3.494-7.29-3.209-5.185.478-10.389.765-15.586,1.128-.79.055-1.582.087-2.722.148a31.965,31.965,0,0,0-.328,3.77c.19,6.155.45,12.308.689,18.461.1,2.555.261,5.109.3,7.666.133,8.251.333,16.5.29,24.754-.03,5.662-.576,11.321-.611,16.983-.047,7.641.192,15.283.275,22.925.041,3.786.007,7.572.007,11.5,7.26.786,14.132-1.083,21.332-1.689a27.578,27.578,0,0,0,.813-4.154c.331-8.241.709-16.485.8-24.73.072-6.941-.264-13.885-.349-20.828-.032-2.642.057-2.643,3.094-3L302.9,194.767c1.942-2.214,3.657-4.1,5.291-6.046,3.268-3.9,6.776-7.645,9.653-11.819,2.859-4.149,6.522-7.475,9.869-11.13a6.454,6.454,0,0,1,1.38-1.05c1.211-.752,2.367-.466,2.73.875a27.034,27.034,0,0,1,1.282,6.418c.138,7.719.042,15.443,0,23.165-.016,3.238-.219,6.477-.143,9.712.161,6.933.448,13.863.7,21.284" transform="translate(-107.817 -48.568)"/>
          <path id="Path_57515" data-name="Path 57515" d="M508.248,180.285c-1.54-2.767-3.357-2.593-5.367-1.9a43.523,43.523,0,0,1-4.69,1.284,2.91,2.91,0,0,0-2.392,3.34c.231,3.684.666,7.354,1.038,11.238,7.485.782,14.778-.57,22.171-1.056.092.893.351,1.518.151,1.753-1.828,2.15-1.047,4.653-.937,7,.237,5.066.731,10.12.987,15.186a18.7,18.7,0,0,1-.59,3.831l-.851.126-1.718-3.153c-4.722.582-9.336,1.859-14.233,1.541a104.447,104.447,0,0,0-13.519.4c-2.278.149-4.519.787-6.79,1.12-3.3.486-6.612,1-9.937,1.281a11.6,11.6,0,0,1-3.353-.653,28.315,28.315,0,0,0,1.2-4.762c.38-5.788.7-11.584.835-17.381.1-4.529-.116-9.064-.164-13.6-.018-1.718.121-3.44.056-5.155-.309-8.1-.67-16.191-.993-24.287a19.3,19.3,0,0,1,.135-2.049c.135-1.967.382-3.934.38-5.9-.007-5.221-.5-10.471-.1-15.654.471-6.021-.914-11.979-.131-17.972a8.179,8.179,0,0,0-.123-2.428c-.508-2.9-.131-3.592,3.008-3.784,3.472-.213,6.974.074,10.449-.111,4.953-.264,9.892-.771,14.84-1.15,1.735-.133,3.475-.205,5.213-.287,2.979-.141,6.1.244,8.9-.536a52.673,52.673,0,0,1,9.507-1.544,3.116,3.116,0,0,1,.906.175c.194.263.461.457.444.623a57.458,57.458,0,0,0,.405,14.1c.559,3.814-.2,7.822-.375,11.7-8.643,4.146-18.25,4.268-27.389,7.106-.13,4.413-.272,8.818-.381,13.225a1.71,1.71,0,0,0,1.959,1.921c3.015-.16,6.208.167,8.4-2.6,2.768,1.631,3.562,3.977,3.463,7.044-.107,3.315.394,6.646.506,9.975.109,3.237.09,6.48.051,9.719-.006.5-.417,1-.976,2.257M492.6,158.064c-.2-5.631-.359-10.5-.561-15.361a23.858,23.858,0,0,0-.394-3.772,2.854,2.854,0,0,1,2.69-3.724,28.869,28.869,0,0,0,3.077-.4c3.738-.77,7.435-1.836,11.208-2.313,3.227-.408,5.939-1.87,8.769-3.165a3.143,3.143,0,0,0,1.882-3.695,18.407,18.407,0,0,1-.5-5.15c.6-4.2-1-7.815-2.264-11.572-5.051.351-9.672,1.839-14.52,2.163-2.445.164-4.762-.444-7.143-.177-4.348.488-8.7.909-13.053,1.378-2.843.307-5.683.653-8.862,1.02-.2,7.26-.384,14.513-.611,21.764-.065,2.071-.558,4.171-.332,6.2a166.118,166.118,0,0,1,1.3,18.966c-.02,6.059.98,12.1.384,18.174-.2,2.039-.634,4.071-.656,6.11-.093,8.312-.1,16.624-.07,24.936.01,3.084.2,6.167.316,9.669,2.374-.249,4.421-.412,6.452-.689,3.082-.42,6.141-1.092,9.234-1.34,3.58-.287,7.2-.1,10.78-.36,4.154-.3,8.293-.832,12.43-1.334a21.072,21.072,0,0,0,2.886-.71c.192-3.986.382-7.54.52-11.1.031-.8.132-2.163-.231-2.33-2.1-.967-.786-2.988-1.373-4.334-3.159.2-6.142.4-9.127.559-3.235.172-6.472.342-9.711.4a2.5,2.5,0,0,1-1.263-.565c.088-3.986.281-7.556.191-11.119-.041-1.619.328-3.561-1.724-4.6-.32-.162-.462-1.41-.193-1.861.73-1.221,1.318-2.443,3.187-2.782a61.82,61.82,0,0,0,8.627-2.656,3.583,3.583,0,0,0,2.527-4.075c-.366-3.8-.765-7.605-1.3-11.388-.266-1.885-1.173-2.3-2.948-2.032-3.039.459-6.1.8-9.62,1.252" transform="translate(-202.176 -45.351)"/>
          <path id="Path_57516" data-name="Path 57516" d="M201.843,118.846c1.812,2.506,1.811,5.3,1.81,8.242,0,8.8.3,17.6.4,26.4.039,3.528-.19,7.058-.215,10.588-.014,1.947.191,3.9.211,5.843.045,4.6.676,9.312-.1,13.775-1.11,6.384.3,12.64-.118,18.965-.423,6.359-.074,12.769-.062,19.157,0,2.292.188,4.6-.026,6.871-.265,2.817-.726,3.107-3.476,3.11-3.585,0-7.172-.1-10.756-.024a47.226,47.226,0,0,0-6.193.555c-.67.1-1.252.782-2.193,1.41a13.22,13.22,0,0,1-.623-2.431c-.27-6.021-.486-12.045-.719-18.068a8.864,8.864,0,0,0-.112-2.083c-2.456-8.467-.957-17.02-.657-25.555.189-5.341.347-10.7.155-16.035-.324-9.034-1.08-18.053-1.38-27.088-.242-7.28-.084-14.575-.089-21.863a4.383,4.383,0,0,1,.217-1.364,5.421,5.421,0,0,1,.756-1.073,7.526,7.526,0,0,1,.954.8,5.832,5.832,0,0,1,.552,1.033c3.657,0,7.488-.621,11,.166,3.874.867,6.74-2.552,10.66-1.34M201.356,227.2c-.229-2.154-.555-3.975-.586-5.8-.045-2.631.193-5.266.186-7.9-.021-7.091-.142-14.182-.146-21.273,0-1.847.291-3.693.434-5.541.151-1.964.432-3.932.4-5.893-.173-9.379-.5-18.756-.644-28.135-.107-6.943.045-13.891-.05-20.835-.045-3.336-.394-6.669-.58-9.6-2.7.144-5.078.4-7.45.367-3.361-.045-6.721-.294-10.08-.467-1.392-.072-2.241.408-2.2,1.959.068,2.85.088,5.7.159,8.552.2,8.228.43,16.456.628,24.685.047,1.975-.145,3.968.055,5.924.493,4.817,1.306,9.609.547,14.474a11.252,11.252,0,0,0,.03,2.077c.178,5.532.4,11.063.53,16.6.169,7.11.234,14.222.414,21.332.085,3.324.338,6.645.54,10.457,2.425-.176,4.576-.328,6.726-.49,2.406-.182,4.948-.922,7.168-.366a6.307,6.307,0,0,0,3.928-.124" transform="translate(-76.711 -51.031)"/>
          <path id="Path_57517" data-name="Path 57517" d="M167.393,138.721a5.443,5.443,0,0,1,.53,5.077c-.418,1.131-1.343,1.183-2.165.477-2.3-1.969-1.647-4.346,1.635-5.555" transform="translate(-70.986 -59.9)"/>
          <path id="Path_57518" data-name="Path 57518" d="M229.677,166.911c3.193.432,4.243,1.8,3.432,4.121a2.5,2.5,0,0,1-1.64,1.34,1.521,1.521,0,0,1-1.963-1.453c-.047-1.25.1-2.507.172-4.008" transform="translate(-99.097 -72.072)"/>
          <path id="Path_57519" data-name="Path 57519" d="M507.228,329.1c.033,2.716-.806,4.42-2.429,4.709a2.258,2.258,0,0,1-1.847-.469,1.978,1.978,0,0,1,.132-1.825c.97-1.41,2.136-2.67,4.143-2.414" transform="translate(-217.102 -142.09)"/>
          <path id="Path_57520" data-name="Path 57520" d="M476.662,333.958a17.687,17.687,0,0,1,2.664-2.044,1.916,1.916,0,0,1,1.764.272c.77.766-.193,3.332-1.574,4.142-1.226.719-1.939-.037-2.38-1.155-.127-.321-.251-.643-.473-1.215" transform="translate(-205.823 -143.273)"/>
          <path id="Path_57521" data-name="Path 57521" d="M545.794,163.917c1.054.205,2.219.224,1.914,1.8-.334,1.722-1.886,3.263-3.153,3.122-1.379-.153-1.427-1.178-1-2.027a19.513,19.513,0,0,1,2.236-2.893" transform="translate(-234.606 -70.78)"/>
          <path id="Path_57522" data-name="Path 57522" d="M172.772,300.963l1.124,4.652h-4.524c.622-2.02.442-3.927,3.4-4.652" transform="translate(-73.135 -129.956)"/>
          <path id="Path_57523" data-name="Path 57523" d="M158.034,262.647c-3.265-1.713-3.408-3.533-.441-5.594,2.092,2.764,2.119,3.1.441,5.594" transform="translate(-67.133 -110.996)"/>
          <path id="Path_57524" data-name="Path 57524" d="M169.907,273.131c-2.284-2.369-2.267-2.652.16-5.381,2.646,2.431,2.647,2.885-.16,5.381" transform="translate(-72.638 -115.615)"/>
          <path id="Path_57525" data-name="Path 57525" d="M167.886,159.577c1.167.03,1.792.744,1.58,1.782-.243,1.181-.37,2.7-2.1,2.783-1.222.06-1.553-.77-1.527-1.839.039-1.631.853-2.725,2.048-2.726" transform="translate(-71.608 -68.906)"/>
          <path id="Path_57526" data-name="Path 57526" d="M155.239,204.03a3.489,3.489,0,0,1,1.607,3.746,1.492,1.492,0,0,1-2.848.451c-.951-1.656-.522-3.074,1.24-4.2" transform="translate(-66.284 -88.1)"/>
          <path id="Path_57527" data-name="Path 57527" d="M172.4,324.943c-2.438-2.43-2.376-4.258-.031-6.2,1.74,1.966.989,3.871.031,6.2" transform="translate(-73.662 -137.635)"/>
          <path id="Path_57528" data-name="Path 57528" d="M241.262,124.334c2.063,3.136,2.009,3.489-.615,5.222-2.011-2.905-1.986-3.2.615-5.222" transform="translate(-103.294 -53.688)"/>
          <path id="Path_57529" data-name="Path 57529" d="M461.971,199.25c-1.717.544-3.15.515-3.439-1.027-.334-1.777,1.027-2.757,3.059-4.068l.38,5.1" transform="translate(-197.973 -83.836)"/>
          <path id="Path_57530" data-name="Path 57530" d="M378.875,316.261a3.408,3.408,0,0,1,1.956,3.758c-.052.481-1,1.111-1.626,1.229-1.029.2-1.954-.394-1.723-1.546a19.608,19.608,0,0,1,1.393-3.441" transform="translate(-162.982 -136.562)"/>
          <path id="Path_57531" data-name="Path 57531" d="M166.2,233.036c.992-1.6,1.217-3.656,3.206-2.807.7.3,1.369,2.539.952,3.217-1.177,1.916-2.464.148-4.158-.41" transform="translate(-71.766 -99.328)"/>
          <path id="Path_57532" data-name="Path 57532" d="M231.51,185.5c.193,1.374.385,2.748.581,4.149-1.811.825-2.911.391-3.361-1.046-.521-1.66.744-2.432,1.78-3.231l1,.128" transform="translate(-98.713 -80.046)"/>
          <path id="Path_57533" data-name="Path 57533" d="M156.185,235.9a4.1,4.1,0,0,1,2.31,4.461c-.029.492-.729.945-1.122,1.416-.4-.357-1.094-.683-1.134-1.076-.14-1.387-.055-2.8-.055-4.8" transform="translate(-67.43 -101.862)"/>
          <path id="Path_57534" data-name="Path 57534" d="M155.281,155.289c2.047,1.043,2.006,2.4,1.54,3.526a2.537,2.537,0,0,1-2.037,1.227,1.384,1.384,0,0,1-1.027-2.094,26.827,26.827,0,0,1,1.523-2.66" transform="translate(-66.322 -67.054)"/>
          <path id="Path_57535" data-name="Path 57535" d="M188.558,339.6l-2.328,3.219c-1.68-.694-2.4-1.6-1.609-3.069.671-1.249,2.1-1.324,3.937-.15" transform="translate(-79.581 -146.28)"/>
          <path id="Path_57536" data-name="Path 57536" d="M522.73,243c-.508-3.488-.085-4.052,3.092-4.115.106,2.671-.18,3.052-3.092,4.115" transform="translate(-225.637 -103.152)"/>
          <path id="Path_57537" data-name="Path 57537" d="M241.889,282.112c1.968,1.585,2.986,2.685,1.877,4.357a1.948,1.948,0,0,1-1.607.778,1.877,1.877,0,0,1-1.16-1.392,20.646,20.646,0,0,1,.89-3.743" transform="translate(-104.064 -121.816)"/>
          <path id="Path_57538" data-name="Path 57538" d="M365.82,310.21c-1.555.322-2.077-.672-2.227-1.91-.2-1.64,1.265-1.94,2.173-2.753,1.2,1.923,1.2,1.923.054,4.663" transform="translate(-156.992 -131.936)"/>
          <path id="Path_57539" data-name="Path 57539" d="M273.046,325.514c-.042-2.547,1.043-3.783,3.106-4.417.755,2.659,0,3.765-3.106,4.417" transform="translate(-117.901 -138.65)"/>
          <path id="Path_57540" data-name="Path 57540" d="M379.227,298.556c1.867,3.256,1.541,4.064-1.891,4.716a4.5,4.5,0,0,1,1.891-4.716" transform="translate(-162.899 -128.917)"/>
          <path id="Path_57541" data-name="Path 57541" d="M365.029,341.283c-1.209-2.423-.867-3.208,1.878-4.732,1.352,2.335,1.352,2.335-1.878,4.732" transform="translate(-157.334 -145.323)"/>
          <path id="Path_57542" data-name="Path 57542" d="M461.408,134.17c1.549,3.33,1.233,4.284-1.592,5.509a5.192,5.192,0,0,1,1.592-5.509" transform="translate(-198.455 -57.935)"/>
          <path id="Path_57543" data-name="Path 57543" d="M462.628,158.249l-3.586-2.188,2.032-2.662c2.06,1.5,2.089,1.594,1.553,4.85" transform="translate(-198.215 -66.238)"/>
          <path id="Path_57544" data-name="Path 57544" d="M530.966,169.3c-.3-2.3-.2-4.019,2.253-4.543,1.506,2.153.968,3.425-2.253,4.543" transform="translate(-229.22 -71.141)"/>
          <path id="Path_57545" data-name="Path 57545" d="M366.123,324.545c1.468,2.081,1.439,2.319-.568,4.662-2.273-2.3-2.242-2.563.568-4.662" transform="translate(-157.144 -140.139)"/>
          <path id="Path_57546" data-name="Path 57546" d="M366.1,271.955c1.649,1.18,2.394,2.224,1.734,3.729-.234.533-1.025,1.344-1.259,1.253-.641-.251-1.6-.946-1.572-1.405a15.983,15.983,0,0,1,1.1-3.576" transform="translate(-157.609 -117.43)"/>
          <path id="Path_57547" data-name="Path 57547" d="M232.222,330.119c-3.081-.926-3.138-2.414-.581-4.647,1.868,1.4.163,3.107.581,4.647" transform="translate(-99.232 -140.539)"/>
          <path id="Path_57548" data-name="Path 57548" d="M460.808,238.488c-.442,1.363-.785,2.421-1.262,3.892l-3.435-1.561c1.9-2.345,1.9-2.345,4.7-2.331" transform="translate(-196.949 -102.978)"/>
          <path id="Path_57549" data-name="Path 57549" d="M260.3,341.1a8.423,8.423,0,0,1-.083-2.455c.22-.683.739-1.677,1.243-1.752a2.156,2.156,0,0,1,1.8,1.153,3.187,3.187,0,0,1-.6,2.372c-.307.421-1.236.388-2.358.681" transform="translate(-112.33 -145.469)"/>
          <path id="Path_57550" data-name="Path 57550" d="M460.275,218.071c1.206,3.7,1.093,3.919-2.123,4.474-.274-2.745-.274-2.745,2.123-4.474" transform="translate(-197.778 -94.163)"/>
          <path id="Path_57551" data-name="Path 57551" d="M155.824,140.184a3.457,3.457,0,0,1,.826,4.429,2.054,2.054,0,0,1-2.836-1.442c-.467-1.431.483-2.331,2.01-2.988" transform="translate(-66.366 -60.532)"/>
          <path id="Path_57552" data-name="Path 57552" d="M460.92,116.844c2.361,1.289,3.018,2.532,1.474,4.569l-3.4-1.147,1.931-3.422" transform="translate(-198.192 -50.453)"/>
          <path id="Path_57553" data-name="Path 57553" d="M360.873,256.476c.862-1.307,1.677-2.341,3.044-.974.986.986.582,2.172-1.247,3.732l-1.8-2.758" transform="translate(-155.825 -110.048)"/>
          <path id="Path_57554" data-name="Path 57554" d="M154.036,189.107c1.618,1.523,2.355,2.856.52,4.42-3.118-2.107-3.184-2.55-.52-4.42" transform="translate(-65.687 -81.657)"/>
          <path id="Path_57555" data-name="Path 57555" d="M242.091,202.839c1.707,1.4,1.318,2.828.494,4.045-.267.395-1.438.358-2.116.193-.22-.054-.441-1.259-.22-1.729a15.568,15.568,0,0,1,1.843-2.509" transform="translate(-103.7 -87.586)"/>
          <path id="Path_57556" data-name="Path 57556" d="M457.589,308.3l2.107-2.6c1.9,1.684,2.393,2.943,1.455,3.722-1.41,1.168-2.18-.16-3.561-1.124" transform="translate(-197.587 -132.003)"/>
          <path id="Path_57557" data-name="Path 57557" d="M520.207,313.37c.93,2.548-.348,3.631-2.07,4.568-1.457-2.605-1.362-2.835,2.07-4.568" transform="translate(-223.347 -135.314)"/>
          <path id="Path_57558" data-name="Path 57558" d="M231.392,146.159c2.235,2.26,1.877,4.1,1.306,6.517-2.346-1.993-1.941-3.872-1.306-6.517" transform="translate(-99.703 -63.112)"/>
          <path id="Path_57559" data-name="Path 57559" d="M229.734,124.064l1.477,6.069c-.74-.135-1.819-.068-1.963-.4-.7-1.621-1.3-3.361.486-5.666" transform="translate(-98.693 -53.571)"/>
          <path id="Path_57560" data-name="Path 57560" d="M491.837,337.349c-.106-2.325-.522-4.288,2.026-5.12.8,2.757.518,3.565-2.026,5.12" transform="translate(-212.337 -143.457)"/>
          <path id="Path_57561" data-name="Path 57561" d="M167.949,214.107a14.917,14.917,0,0,1,.462,3.135c-.02.417-1.077,1.217-1.317,1.1-.6-.282-1.445-1.028-1.4-1.509a9.714,9.714,0,0,1,1.139-2.743l1.113.013" transform="translate(-71.547 -92.446)"/>
          <path id="Path_57562" data-name="Path 57562" d="M242.691,169.525c.245,1.723-.138,2.586-1.286,2.412a2.5,2.5,0,0,1-1.607-1.415c-.348-.931,1.042-2.709,1.776-2.382.632.281.98,1.2,1.118,1.386" transform="translate(-103.521 -72.586)"/>
          <path id="Path_57563" data-name="Path 57563" d="M463.6,334.946a3,3,0,0,1,.832,3.8c-.221.5-1.248.634-1.909.935-.185-.59-.643-1.262-.5-1.753a17.572,17.572,0,0,1,1.573-2.983" transform="translate(-199.49 -144.63)"/>
          <path id="Path_57564" data-name="Path 57564" d="M463.354,259.663l-2.634-.472a12.38,12.38,0,0,1,.9-2.692c.28-.452,1.043-.606,1.589-.894.286.563.8,1.124.8,1.689a9.006,9.006,0,0,1-.66,2.368" transform="translate(-198.939 -110.371)"/>
          <path id="Path_57565" data-name="Path 57565" d="M380.749,270.521c-3.425-1.664-3.607-3.151-.989-5.594.327,1.849.6,3.39.989,5.594" transform="translate(-163.207 -114.396)"/>
          <path id="Path_57566" data-name="Path 57566" d="M159.121,330.126a4.007,4.007,0,0,1-.645,4.936c-1.739-2.165-1.705-2.436.645-4.936" transform="translate(-67.902 -142.549)"/>
          <path id="Path_57567" data-name="Path 57567" d="M244.187,302.431a11.481,11.481,0,0,1-.51,3.086c-.186.415-1.277.426-1.958.62-.157-.6-.614-1.342-.409-1.762A13.549,13.549,0,0,1,243.157,302l1.03.434" transform="translate(-104.176 -130.403)"/>
          <path id="Path_57568" data-name="Path 57568" d="M244.853,320.566c.064,1.26.187,2.522.145,3.777-.009.273-.6.72-.939.733a1.241,1.241,0,0,1-1-.659c-.261-1.408-.607-2.9.756-3.934l1.038.082" transform="translate(-104.849 -138.385)"/>
          <path id="Path_57569" data-name="Path 57569" d="M242.394,259.77c1.356,1.334,2.719,2.348,1.234,3.938a2.121,2.121,0,0,1-2.064.175c-1.438-1.471-.181-2.616.83-4.113" transform="translate(-104.027 -112.169)"/>
          <path id="Path_57570" data-name="Path 57570" d="M273.666,343.282c-.669-.377-1.681-.6-1.931-1.166-.444-1,.6-2.195,2.336-2.859.093,1.16.18,2.239.266,3.317l-.672.707" transform="translate(-117.291 -146.492)"/>
          <path id="Path_57571" data-name="Path 57571" d="M519.273,172.216c-.594-2.168.013-3.4,1.785-4.131,1.161,2.089.939,2.682-1.785,4.131" transform="translate(-224.127 -72.579)"/>
          <path id="Path_57572" data-name="Path 57572" d="M494.178,319c-1.143-3.1-1.053-3.314,1.847-4.694A4.391,4.391,0,0,1,494.178,319" transform="translate(-213.092 -135.719)"/>
          <path id="Path_57573" data-name="Path 57573" d="M506.977,318.6a4.4,4.4,0,0,1-.79-1.485c-.134-1.194,1.166-2.84,2.122-2.667a1.7,1.7,0,0,1,.982,1.362c-.172,1.2-.249,2.649-2.313,2.79" transform="translate(-218.568 -135.774)"/>
          <path id="Path_57574" data-name="Path 57574" d="M399.265,329.987a7.6,7.6,0,0,1,.285,2.632c-.185.612-.966,1.044-1.485,1.555-.462-.591-1.155-1.12-1.333-1.788-.251-.942.212-1.3,2.533-2.4" transform="translate(-171.283 -142.489)"/>
          <path id="Path_57575" data-name="Path 57575" d="M169.715,339.56l2.219-3.071c1.214,1.256,1.79,2.453.917,3.544-.433.54-1.711.4-2.607.572q-.265-.522-.529-1.044" transform="translate(-73.283 -145.296)"/>
          <path id="Path_57576" data-name="Path 57576" d="M367.074,289.953a13.26,13.26,0,0,1,.372,3.011c-.032.378-1.023,1-1.468.922a1.771,1.771,0,0,1-1.091-1.376,10.946,10.946,0,0,1,1.007-2.642l1.18.085" transform="translate(-157.558 -125.165)"/>
          <path id="Path_57577" data-name="Path 57577" d="M462.978,174.763a10.1,10.1,0,0,1,1.109,2.336,2.59,2.59,0,0,1-.435,1.8,1.507,1.507,0,0,1-1.5.051,2.844,2.844,0,0,1-.907-1.968c.107-.663.9-1.214,1.73-2.218" transform="translate(-199.163 -75.463)"/>
          <path id="Path_57578" data-name="Path 57578" d="M261.936,326.419l-2.989,2.893c-1.33-1.524-1.171-2.813,0-3.693.407-.306,1.564.386,2.99.8" transform="translate(-111.408 -140.57)"/>
          <path id="Path_57579" data-name="Path 57579" d="M242.934,242.18c1.47,2.029,1.47,2.029-.485,3.847-1.938-1.77-1.938-1.77.485-3.847" transform="translate(-104.086 -104.574)"/>
          <path id="Path_57580" data-name="Path 57580" d="M173.861,248.949l-2.164,1.87c-.422-.7-1.123-1.39-1.172-2.118-.035-.536.785-1.129,1.223-1.7l2.112,1.945" transform="translate(-73.633 -106.657)"/>
          <path id="Path_57581" data-name="Path 57581" d="M155.52,227.323c-.726-1.357-1.359-1.994-1.268-2.5a7.227,7.227,0,0,1,1.211-2.14c.53.626,1.385,1.2,1.493,1.894.094.6-.655,1.339-1.436,2.746" transform="translate(-66.603 -96.155)"/>
          <path id="Path_57582" data-name="Path 57582" d="M229.25,208.587c.358-1.736.654-3.173,1-4.855,2.3,2.241,2.028,3.8-1,4.855" transform="translate(-98.99 -87.972)"/>
          <path id="Path_57583" data-name="Path 57583" d="M165.618,182.536c.147-.8.051-1.654.424-2.006a5.07,5.07,0,0,1,2.258-1.022c.147-.036.861,1.026.73,1.32a4.959,4.959,0,0,1-1.572,1.946c-.323.231-1.061-.116-1.84-.238" transform="translate(-71.514 -77.512)"/>
          <path id="Path_57584" data-name="Path 57584" d="M240.335,147.971a6.982,6.982,0,0,1,1.187.667c1.128,1.069.319,2.127-.152,3.111-.107.225-1.156.275-1.17.228a11.6,11.6,0,0,1-.524-2.521c-.024-.389.34-.8.66-1.486" transform="translate(-103.492 -63.894)"/>
          <path id="Path_57585" data-name="Path 57585" d="M156.27,173.327l.813,3.966c-1.068,1.1-1.8.737-2.356-.208-.755-1.271-.552-1.842,1.543-3.758" transform="translate(-66.638 -74.843)"/>
          <path id="Path_57586" data-name="Path 57586" d="M232.828,338.11c1.039,1.539,1.235,2.724.089,3.929-2.888-1.572-2.9-1.929-.089-3.929" transform="translate(-99.631 -145.996)"/>
          <path id="Path_57587" data-name="Path 57587" d="M241.674,185.615a8.853,8.853,0,0,1,.712,2.13,3.3,3.3,0,0,1-.493,1.831,1.566,1.566,0,0,1-1.44-.193,3.215,3.215,0,0,1-.538-2.1c.1-.5.882-.877,1.759-1.665" transform="translate(-103.583 -80.149)"/>
          <path id="Path_57588" data-name="Path 57588" d="M462.191,319.455c1.126,1.167,1.72,2.25.518,3.374a1.726,1.726,0,0,1-1.677-.232c-.853-1.257-.45-2.315,1.159-3.142" transform="translate(-198.886 -137.941)"/>
          <path id="Path_57589" data-name="Path 57589" d="M413.957,318.738c.223.832.551,1.381.447,1.83a5.074,5.074,0,0,1-.994,1.885c-.1.122-1.067-.134-1.121-.345a3.958,3.958,0,0,1-.09-2.192c.168-.459.974-.684,1.757-1.178" transform="translate(-177.935 -137.631)"/>
          <path id="Path_57590" data-name="Path 57590" d="M395.087,319.817a11.417,11.417,0,0,1-.25,2.6,3.141,3.141,0,0,1-1.184,1.387c-.2.127-1.025-.248-1.111-.532-.183-.6-.328-1.5-.013-1.9.464-.592,1.345-.857,2.557-1.553" transform="translate(-169.415 -138.097)"/>
          <path id="Path_57591" data-name="Path 57591" d="M231.993,301.111c2.139,2.33,2.114,2.756-.014,4.255-1.465-1.29-.976-2.6.014-4.255" transform="translate(-99.77 -130.02)"/>
          <path id="Path_57592" data-name="Path 57592" d="M169.212,289.535a9.656,9.656,0,0,1,.76-2.177,3.573,3.573,0,0,1,1.446-1.144c.2-.083.941.467.967.768.054.635.014,1.592-.38,1.877-.6.432-1.524.405-2.793.676" transform="translate(-73.066 -123.584)"/>
          <path id="Path_57593" data-name="Path 57593" d="M312.726,247.784a4.169,4.169,0,0,1-.321-4.659c2.8,2.469,2.8,2.5.321,4.659" transform="translate(-134.653 -104.982)"/>
          <path id="Path_57594" data-name="Path 57594" d="M233.776,245.437a18.633,18.633,0,0,1-2.409,2.12c-.139.087-1.327-1.046-1.263-1.152a8.836,8.836,0,0,1,1.859-2.2c.124-.1.949.634,1.813,1.236" transform="translate(-99.358 -105.442)"/>
          <path id="Path_57595" data-name="Path 57595" d="M448.083,333.57c.953,1.473,1.131,2.722-.323,3.672a1.267,1.267,0,0,1-1.216-.252c-.883-1.588.028-2.547,1.539-3.421" transform="translate(-192.669 -144.036)"/>
          <path id="Path_57596" data-name="Path 57596" d="M379.405,249.641a13.913,13.913,0,0,1,.742,3.03,1.225,1.225,0,0,1-1.892,1.178,2.126,2.126,0,0,1-.676-1.888c.156-.667.9-1.2,1.826-2.321" transform="translate(-163.027 -107.795)"/>
          <path id="Path_57597" data-name="Path 57597" d="M530.919,174.921c1.7,2.964,1.328,3.959-1.744,4.639l1.744-4.639" transform="translate(-228.498 -75.531)"/>
          <path id="Path_57598" data-name="Path 57598" d="M329.12,267.2l1.059-3.424a2.071,2.071,0,0,1,1.542,2.758c-.318,1.239-1.261,1.069-2.6.666" transform="translate(-142.114 -113.897)"/>
          <path id="Path_57599" data-name="Path 57599" d="M462.076,296.267c-1.271-1.269-2.09-2.305-.7-3.619a1.479,1.479,0,0,1,1.453.041c1.008,1.179.649,2.274-.756,3.578" transform="translate(-198.91 -126.292)"/>
          <path id="Path_57600" data-name="Path 57600" d="M160.594,313.468c.339,1.907,1.3,3.21-.478,3.931a1.6,1.6,0,0,1-1.48-.495c-.632-1.556.609-2.165,1.958-3.436" transform="translate(-68.426 -135.356)"/>
          <path id="Path_57601" data-name="Path 57601" d="M446.535,319.475a3.306,3.306,0,0,1-.994,3.918c-1.775-2.061-1.561-2.843.994-3.918" transform="translate(-191.885 -137.95)"/>
          <path id="Path_57602" data-name="Path 57602" d="M232.816,261.533a8.087,8.087,0,0,1,.341,2.043,13.082,13.082,0,0,1-.8,2.435c-.04.1-.887.006-.9-.059a12.254,12.254,0,0,1-.184-2.876c.043-.393.686-.722,1.536-1.543" transform="translate(-99.853 -112.93)"/>
          <path id="Path_57603" data-name="Path 57603" d="M477.644,322.922c-.319-.258-.455-.311-.478-.4-.368-1.3-.4-2.542,1.073-3.168a1.221,1.221,0,0,1,1.083.506,2.388,2.388,0,0,1-1.677,3.058" transform="translate(-205.948 -137.89)"/>
          <path id="Path_57604" data-name="Path 57604" d="M416.118,332.041a8.745,8.745,0,0,1-2.226,1.671c-.257.08-1.3-1.056-1.208-1.457.165-.712.923-1.286,1.433-1.919l2,1.705" transform="translate(-178.195 -142.639)"/>
          <path id="Path_57605" data-name="Path 57605" d="M380.034,233.227a15.686,15.686,0,0,1-.857,3.222c-.109.222-1.319-.1-2.294-.193.559-1.694.883-2.986,3.151-3.029" transform="translate(-162.739 -100.708)"/>
          <path id="Path_57606" data-name="Path 57606" d="M242.44,224.827c1.231,1.081,1.564,2.228.386,3.276a2.071,2.071,0,0,1-1.943-.474c-.868-1.588.5-2.1,1.556-2.8" transform="translate(-103.895 -97.081)"/>
          <path id="Path_57607" data-name="Path 57607" d="M517.812,334.3c-2.286-1.842-2.294-1.945-.437-3.9,1.06,1.107,1.2,2.266.437,3.9" transform="translate(-222.824 -142.665)"/>
          <path id="Path_57608" data-name="Path 57608" d="M382.356,334.119c.78,1.852.91,3.271-1.345,4.311-.344-1.794-1.091-3.39,1.345-4.311" transform="translate(-164.356 -144.273)"/>
          <path id="Path_57609" data-name="Path 57609" d="M171.641,196.809c-1.384.625-2.138,1.261-2.594,1.093a2.316,2.316,0,0,1-1.107-1.7c-.044-.375.906-1.28,1.16-1.2a12.034,12.034,0,0,1,2.542,1.8" transform="translate(-72.516 -84.202)"/>
          <path id="Path_57610" data-name="Path 57610" d="M229.944,222.746c2.321,1.963,2.308,2.084-.5,4.731.194-1.843.33-3.123.5-4.731" transform="translate(-99.075 -96.182)"/>
          <path id="Path_57611" data-name="Path 57611" d="M322.755,253.527c1.831,1.41,2.247,2.4,1.189,3.413-.306.292-1.153.017-1.753,0l.564-3.414" transform="translate(-139.122 -109.473)"/>
          <path id="Path_57612" data-name="Path 57612" d="M462.161,273.874c1.265.928,1.709,1.909.667,2.946a1.723,1.723,0,0,1-1.685-.151c-1.011-1.186-.264-2.015,1.019-2.795" transform="translate(-198.919 -118.259)"/>
          <path id="Path_57613" data-name="Path 57613" d="M231.667,283.853c1.582.639,2.1,1.6,1.5,2.833a1.845,1.845,0,0,1-1.749.261c-1.01-.934-.8-2.007.247-3.094" transform="translate(-99.644 -122.568)"/>
          <path id="Path_57614" data-name="Path 57614" d="M379.843,286.339c1.647,2.052,1.611,2.144-1.2,2.948a2.044,2.044,0,0,1,1.2-2.948" transform="translate(-163.405 -123.642)"/>
          <path id="Path_57615" data-name="Path 57615" d="M246.658,341.441l2.127-3.857c1.156,3.119,1.071,3.3-2.127,3.857" transform="translate(-106.507 -145.769)"/>
          <path id="Path_57616" data-name="Path 57616" d="M186.191,326.389c.127-1.14.238-2.138.344-3.093,1.655-.11,1.979.745,1.955,1.685-.031,1.132-.828,1.461-2.3,1.409" transform="translate(-80.397 -139.595)"/>
          <path id="Path_57617" data-name="Path 57617" d="M204.247,325.886c-.735-1.456-.726-2.482.577-3.124a1.287,1.287,0,0,1,1.2.374c.54,1.351-.208,2.09-1.78,2.75" transform="translate(-87.982 -139.352)"/>
          <path id="Path_57618" data-name="Path 57618" d="M312.179,256.817c1.367,2.493,1.367,2.493.085,3.864-1.525-1.037-.437-2.1-.085-3.864" transform="translate(-134.495 -110.894)"/>
          <path id="Path_57619" data-name="Path 57619" d="M520.928,179.308c1.642,1.738,1.667,2.768.68,3.68-.195.18-1.185-.134-1.182-.163.091-.989.258-1.972.5-3.518" transform="translate(-224.72 -77.425)"/>
          <path id="Path_57620" data-name="Path 57620" d="M319.542,270.636c1.148.551,1.947,1.25.979,2.563a1.214,1.214,0,0,1-1.156.228c-1.021-.911-1.106-1.884.177-2.791" transform="translate(-137.567 -116.861)"/>
          <path id="Path_57621" data-name="Path 57621" d="M201.6,336.137c.673,1.368.674,2.456-2.051,2.969l1.086-3.294.964.325" transform="translate(-86.165 -145.004)"/>
          <path id="Path_57622" data-name="Path 57622" d="M336.57,229.42c-.252-7.421-.539-14.351-.7-21.284-.076-3.235.127-6.475.143-9.712.038-7.722.134-15.446,0-23.165a27.033,27.033,0,0,0-1.282-6.418c-.363-1.342-1.519-1.627-2.73-.875a6.455,6.455,0,0,0-1.38,1.05c-3.347,3.655-7.01,6.981-9.869,11.13-2.877,4.175-6.385,7.918-9.653,11.819-1.634,1.951-3.349,3.832-5.291,6.046L283.057,174.6c-3.037.36-3.126.361-3.094,3,.085,6.943.422,13.888.349,20.828-.086,8.246-.465,16.489-.8,24.73a27.582,27.582,0,0,1-.813,4.154c-7.2.606-14.073,2.475-21.332,1.689,0-3.925.034-7.71-.007-11.5-.083-7.642-.322-15.284-.275-22.925.035-5.662.581-11.321.611-16.983.043-8.25-.157-16.5-.29-24.754-.041-2.556-.2-5.11-.3-7.666-.239-6.153-.5-12.306-.689-18.461a31.971,31.971,0,0,1,.328-3.77c1.14-.061,1.932-.093,2.722-.148,5.2-.363,10.4-.649,15.586-1.128,3.1-.286,5.29.258,7.29,3.209,5.075,7.49,10.7,14.608,16.076,21.893,1.8,2.432,3.469,4.958,5.305,7.358a13.627,13.627,0,0,0,2.9,2.886c2.026,1.42,2.772,1.11,4.2-.982.819-1.2,1.91-2.221,2.808-3.376q5.308-6.825,10.57-13.687c4.309-5.6,8.592-11.212,12.934-16.781,1.118-1.434,2.939-1.446,4.447-1.295a63.268,63.268,0,0,0,15.552-.782,38.38,38.38,0,0,1,5.481-.041c0,6-.036,11.9.014,17.8.028,3.331.226,6.66.3,9.992.059,2.646.058,5.293.061,7.94.008,6.156-.015,12.312.018,18.468.007,1.269.3,2.537.3,3.806.028,9.184.129,18.37-.023,27.551-.108,6.483-.577,12.96-.894,19.642-3.429,1.671-7.286,1.485-11.073,1.647-2.984.127-5.879.136-8.707,1.645-1.6.853-3.8.584-6.044.859" transform="translate(-110.72 -51.811)" fill="#a6ff1a"/>
          <path id="Path_57623" data-name="Path 57623" d="M495.422,161.018c3.525-.452,6.581-.794,9.62-1.252,1.776-.268,2.682.148,2.948,2.032.534,3.783.932,7.585,1.3,11.388a3.583,3.583,0,0,1-2.527,4.075,61.82,61.82,0,0,1-8.627,2.656c-1.869.339-2.457,1.561-3.187,2.782-.269.451-.127,1.7.193,1.861,2.053,1.037,1.684,2.979,1.724,4.6.09,3.563-.1,7.132-.191,11.119a2.5,2.5,0,0,0,1.263.565c3.239-.061,6.476-.232,9.711-.4,2.985-.158,5.968-.363,9.127-.559.588,1.346-.727,3.368,1.373,4.334.363.166.262,1.526.231,2.33-.138,3.556-.328,7.109-.52,11.1a21.072,21.072,0,0,1-2.886.71c-4.137.5-8.276,1.033-12.43,1.334-3.584.26-7.2.073-10.78.36-3.093.248-6.151.92-9.234,1.34-2.031.277-4.078.44-6.452.689-.12-3.5-.306-6.585-.316-9.669-.027-8.312-.023-16.624.07-24.936.023-2.039.457-4.071.656-6.11.6-6.073-.4-12.115-.384-18.174a166.118,166.118,0,0,0-1.3-18.966c-.226-2.028.267-4.129.332-6.2.227-7.251.41-14.5.611-21.764,3.18-.368,6.019-.713,8.862-1.02,4.35-.47,8.7-.891,13.053-1.378,2.381-.267,4.7.34,7.143.177,4.848-.324,9.468-1.811,14.52-2.163,1.265,3.757,2.864,7.37,2.264,11.572a18.406,18.406,0,0,0,.5,5.15,3.143,3.143,0,0,1-1.882,3.695c-2.83,1.3-5.542,2.757-8.769,3.165-3.773.476-7.47,1.542-11.208,2.313a28.873,28.873,0,0,1-3.077.4,2.854,2.854,0,0,0-2.69,3.724,23.857,23.857,0,0,1,.394,3.772c.2,4.864.359,9.73.561,15.361" transform="translate(-204.997 -48.305)" fill="#a6ff1a"/>
          <path id="Path_57624" data-name="Path 57624" d="M106.427,213.859c-3.352-.923-3.6-3.485-4.21-5.2-2.765-.189-5.165-.516-7.562-.478a201.132,201.132,0,0,1-29.537-1.435c-1.984-.265-2.386-.573-2.315-2.651.047-1.506.455-3.011.388-4.5-.426-9.46-.947-18.921-1.411-28.382-.213-4.366-.436-8.736-.531-13.107-.156-7.112-.236-14.229-.3-21.346-.028-2.969.071-5.942.1-8.916.014-1.151-.3-2.14-1.634-2.259a81.319,81.319,0,0,0-10.033-.7c-4.38.166-8.712.976-13.125.071-1.3-.265-2.765.275-3.916.417a32.724,32.724,0,0,1,1.189,5.175c.265,5.909.473,11.833.511,17.752.085,12.779.061,25.564.057,38.348,0,2.869-.1,5.739-.166,8.608-.033,1.477-.1,2.955-.132,4.427-.095,4.351-.114,8.7-.28,13.05-.222,5.677-.658,11.35-.814,17.032-.085,3.177,1.113,4.469,4.115,4.621q10.085.5,20.171.757c4.384.114,8.769.01,13.154.028,7.888.034,15.777.1,23.665.128,1.619.005,3.243-.094,4.858-.213,3.432-.246,4.276-1.08,4.6-4.408.085-.881.176-1.757.2-2.022-.327.246,1.6-4.981,1.226-4.551-.227-1.936-.379-3.537-.606-5.128-.274-1.946-.435-3.83,2.335-5.114m-14.57,18.206a19.538,19.538,0,0,1-7.453-.753,21.273,21.273,0,0,0-6.818-.852c-3.21.114-6.435-.185-9.654-.128-2.178.033-4.347.459-6.525.554-2.06.09-4.124-.052-6.184-.047-5.734.028-11.468.08-17.2.109a10.194,10.194,0,0,1-1.43-.26c0-8.419.048-16.866-.014-25.313-.066-8.49-.421-16.985-.327-25.479s.72-16.965.876-25.455c.161-8.528.038-17.06.038-25.8,4.313,1.042,7.955.521,11.615.01a48.615,48.615,0,0,1,6.142-.545c1.832-.019,2.623,1.231,2.689,2.969q.377,9.894.734,19.8c.251,7.079.52,14.153.7,21.232.147,5.9.043,11.819.284,17.714.161,3.925.8,7.831,1.089,11.757.156,2.173.028,4.366.028,6.937a22.639,22.639,0,0,0,3.494.8c6.691.511,13.386.947,20.081,1.4,4.28.284,8.566.531,12.846.857a33.245,33.245,0,0,1,3.627.715c.208,6.624.412,13.092.63,20-3.324-2.069-6.335-.488-9.262-.213" transform="translate(-13.966 -53.915)"/>
          <path id="Path_57625" data-name="Path 57625" d="M83.123,339.352c1.106-.889,2.416-2.741,3.415-2.586,2.309.359,1.176,2.816,1.469,4.361a2.61,2.61,0,0,1-.929,2.264c-1.036.516-1.9-.238-2.4-1.31-.37-.793-.865-1.529-1.557-2.73" transform="translate(-35.893 -145.412)"/>
          <path id="Path_57626" data-name="Path 57626" d="M7.47,225.947c-.009,1.644-.794,2.7-2,2.678a2.318,2.318,0,0,1-2.38-2.687c.071-1.655,1.092-2.822,2.415-2.761,1.161.053,1.972,1.2,1.964,2.77" transform="translate(-1.333 -96.367)"/>
          <path id="Path_57627" data-name="Path 57627" d="M4.531,323.3c-.065,1.125-.185,2.395-1.912,2.559C1.1,326-.03,324.742,0,322.929a2.8,2.8,0,0,1,2.367-2.545c1.074.064,2.109,1.371,2.163,2.914" transform="translate(0 -138.342)"/>
          <path id="Path_57628" data-name="Path 57628" d="M69.221,341.745c.863-1.891,1.307-3.071,1.939-4.14a1.647,1.647,0,0,1,1.362-.684,1.779,1.779,0,0,1,1.079,1.126,4.245,4.245,0,0,1-.019,2.036c-.2.838-.463,2.2-.938,2.313-.893.207-1.957-.322-3.423-.652" transform="translate(-29.89 -145.478)"/>
          <path id="Path_57629" data-name="Path 57629" d="M102.375,341.054c.1-2.136,1.706-2.677,2.964-3.561,2.1,2.427,2.124,2.964.219,5.784l-3.183-2.223" transform="translate(-44.206 -145.73)"/>
          <path id="Path_57630" data-name="Path 57630" d="M9.209,159.1a15.009,15.009,0,0,1,.58,3.386,2.363,2.363,0,0,1-1.287,1.76,2.226,2.226,0,0,1-1.982-.757,3.035,3.035,0,0,1-.4-2.456c.361-.843,1.34-1.422,2.052-2.114l1.035.181" transform="translate(-2.591 -68.62)"/>
          <path id="Path_57631" data-name="Path 57631" d="M22.8,222.6c2.184,1.342,1.034,3.179.945,4.89-1.435.527-2.717,1.019-3.384-.633-.61-1.511.371-3.085,2.439-4.257" transform="translate(-8.716 -96.12)"/>
          <path id="Path_57632" data-name="Path 57632" d="M3.485,243.331c1.622-.18,2.257.549,2.227,1.728a9.735,9.735,0,0,1-.6,3.225c-.109.279-1.374.452-1.793.182A2.433,2.433,0,0,1,2.2,246.649a15.066,15.066,0,0,1,1.282-3.317" transform="translate(-0.948 -105.059)"/>
          <path id="Path_57633" data-name="Path 57633" d="M4.923,341.151c.036,1.763-1.266,3.069-2.436,2.975a1.8,1.8,0,0,1-1.832-2.058c.02-1.373,1.118-2.952,2.144-2.64.92.28,1.619,1.288,2.124,1.723" transform="translate(-0.282 -146.548)"/>
          <path id="Path_57634" data-name="Path 57634" d="M2.636,283.139c3.087,1.792,3.606,3.085,2.3,4.88a2.131,2.131,0,0,1-1.649.845,1.87,1.87,0,0,1-1.215-1.351,32.144,32.144,0,0,1,.566-4.375" transform="translate(-0.894 -122.26)"/>
          <path id="Path_57635" data-name="Path 57635" d="M34.886,338.959a7.575,7.575,0,0,1,.894,2.267,2.561,2.561,0,0,1-2.67,2.485,1.515,1.515,0,0,1-1.54-1.83,3.1,3.1,0,0,1,3.315-2.921" transform="translate(-13.629 -146.36)"/>
          <path id="Path_57636" data-name="Path 57636" d="M22,177.923c1.834,1.58,1.533,3.132,1.148,4.671-2.19.819-3.03-.565-4.21-2.23L22,177.923" transform="translate(-8.178 -76.827)"/>
          <path id="Path_57637" data-name="Path 57637" d="M7.54,202.312l-2.062,2.209c-.526-.653-1.352-1.243-1.506-1.974a8.032,8.032,0,0,1,.252-3.131c.026-.13,1.26-.3,1.469-.053a22.671,22.671,0,0,1,1.847,2.95" transform="translate(-1.682 -86.031)"/>
          <path id="Path_57638" data-name="Path 57638" d="M23.65,248.186c-.953.934-1.561,2.043-2.255,2.1-1.358.11-1.9-1.052-1.9-2.352,0-1.434,1.013-2.8,1.847-2.355.853.456,1.384,1.515,2.307,2.607" transform="translate(-8.418 -106.004)"/>
          <path id="Path_57639" data-name="Path 57639" d="M21.4,199.6c2.157,1.616,1.823,3.22,1.26,4.669a2.062,2.062,0,0,1-1.895.74,2.076,2.076,0,0,1-1.067-1.744,19.8,19.8,0,0,1,1.7-3.665" transform="translate(-8.502 -86.186)"/>
          <path id="Path_57640" data-name="Path 57640" d="M22.21,287.5c-2.033.683-2.033.683-4.06-3.243.98-.234,2.017-.846,2.7-.573,1.718.688,1.313,2.395,1.361,3.817" transform="translate(-7.837 -122.464)"/>
          <path id="Path_57641" data-name="Path 57641" d="M3.089,180.98c.862-.665,1.435-1.028,1.911-1.492.8-.78,1.8-.974,2.362-.089a2.709,2.709,0,0,1-.056,2.456,2.73,2.73,0,0,1-2.273.947c-.68-.122-1.209-1.088-1.943-1.822" transform="translate(-1.334 -77.212)"/>
          <path id="Path_57642" data-name="Path 57642" d="M8.1,148.884c-1.813-1.716-1.327-3.448-.99-5.271,2.93.8,3.289,2.83.99,5.271" transform="translate(-2.93 -62.012)"/>
          <path id="Path_57643" data-name="Path 57643" d="M20.083,326.935c-1.843.5-2.927.22-3.313-1.347-.251-1.022-.389-2.215.913-2.614,1.354-.414,1.805.588,2.009,1.711.119.655.228,1.311.391,2.25" transform="translate(-7.17 -139.419)"/>
          <path id="Path_57644" data-name="Path 57644" d="M124.891,330.262c-1.915-3.121-1.68-3.83,1.412-4.8.6,1.828.879,3.505-1.412,4.8" transform="translate(-53.4 -140.535)"/>
          <path id="Path_57645" data-name="Path 57645" d="M54.2,325.485c1.181,1.491,2.781,2.471,1.089,4.075a1.862,1.862,0,0,1-1.8.127c-1.66-1.483-.241-2.606.715-4.2" transform="translate(-22.766 -140.545)"/>
          <path id="Path_57646" data-name="Path 57646" d="M108.656,323.61a19.285,19.285,0,0,1,.6,3.533,1.357,1.357,0,0,1-2.659.461c-.378-1.436-.515-2.968,2.057-3.993" transform="translate(-45.939 -139.735)"/>
          <path id="Path_57647" data-name="Path 57647" d="M6.609,300.785c1.658.809,1.894,1.98,1.172,3.184-.3.508-1.263.624-1.923.919-.26-.664-.842-1.408-.7-1.971a7.379,7.379,0,0,1,1.452-2.131" transform="translate(-2.217 -129.879)"/>
          <path id="Path_57648" data-name="Path 57648" d="M23.378,147.635c-2.9-.989-3.037-1.359-1.41-3.839,2.632,1.137,2.632,1.137,1.41,3.839" transform="translate(-9.035 -62.091)"/>
          <path id="Path_57649" data-name="Path 57649" d="M20.658,161.433c.873.3,1.309.413,1.707.6,1.31.619.944,1.738.631,2.692-.127.388-.791.6-1.211.89a12.213,12.213,0,0,1-1.39-2.142c-.178-.443.117-1.076.262-2.042" transform="translate(-8.783 -69.707)"/>
          <path id="Path_57650" data-name="Path 57650" d="M19.312,301.327a2.669,2.669,0,0,1,.686.309c1.372,1.26.767,2.507-.185,3.6a1.494,1.494,0,0,1-1.467-.023c-1.105-1.115-.67-2.278.215-3.329a3.824,3.824,0,0,1,.751-.558" transform="translate(-7.638 -130.113)"/>
          <path id="Path_57651" data-name="Path 57651" d="M68.812,323.832c1.9.61,3.342,1.044,2.731,2.735s-2.055.86-3.74.853l1.009-3.588" transform="translate(-29.277 -139.831)"/>
          <path id="Path_57652" data-name="Path 57652" d="M33.233,329.454c.8-1.176,1.236-2.25,2.034-2.8.4-.275,1.455.406,2.667.8-1.347,1.545-1.972,2.972-4.7,2" transform="translate(-14.35 -141.02)"/>
          <path id="Path_57653" data-name="Path 57653" d="M4.728,267.128c.028-1.221-.928-2.8,1.1-3.327,1.165-.3,1.712.71,1.657,1.689-.089,1.589-1.013,2.23-2.759,1.638" transform="translate(-1.955 -113.886)"/>
          <path id="Path_57654" data-name="Path 57654" d="M52.482,340.019c1.389.36,2.682.642,1.905,2.246-.269.555-1.464,1.256-1.811,1.075-1.555-.809-.971-2-.094-3.321" transform="translate(-22.285 -146.821)"/>
          <path id="Path_57655" data-name="Path 57655" d="M22.446,267.225c-.785.67-1.384,1.345-1.512,1.265a19.364,19.364,0,0,1-2.166-1.747c.43-.448,1.063-1.351,1.255-1.265a13.974,13.974,0,0,1,2.423,1.747" transform="translate(-8.104 -114.631)"/>
          <path id="Path_57656" data-name="Path 57656" d="M88.364,324.841a5.915,5.915,0,0,1,.382,1.636,15.224,15.224,0,0,1-.544,2.072,4.8,4.8,0,0,1-1.676-.713,1.459,1.459,0,0,1,.218-2.352,7.664,7.664,0,0,1,1.62-.643" transform="translate(-37.147 -140.267)"/>
          <path id="Path_57657" data-name="Path 57657" d="M15.214,343.969c.986-1.444,2.045-2.069,3.4-.881.242.211.056,1.42-.305,1.723-1.27,1.065-2.224.422-3.1-.842" transform="translate(-6.569 -147.876)"/>
          <path id="Path_57658" data-name="Path 57658" d="M125.074,341.123c-.05.617-.08,1.238-.177,1.847-.011.073-.567.138-.571.123-.166-.6-.3-1.217-.434-1.829l1.182-.141" transform="translate(-53.497 -147.297)"/>
          <path id="Path_57659" data-name="Path 57659" d="M104.076,234.744c-3.324-2.069-6.335-.488-9.262-.213a19.538,19.538,0,0,1-7.453-.753,21.273,21.273,0,0,0-6.818-.852c-3.21.114-6.435-.185-9.654-.128-2.178.033-4.347.459-6.525.554-2.06.09-4.124-.052-6.184-.047-5.734.028-11.468.08-17.2.109a10.2,10.2,0,0,1-1.43-.26c0-8.419.048-16.866-.014-25.313-.066-8.49-.421-16.985-.327-25.479s.72-16.965.876-25.455c.161-8.528.038-17.06.038-25.8,4.313,1.042,7.955.521,11.615.01a48.618,48.618,0,0,1,6.142-.545c1.832-.019,2.623,1.231,2.689,2.969q.377,9.894.734,19.8c.251,7.079.52,14.153.7,21.232.147,5.9.043,11.819.284,17.714.161,3.925.8,7.831,1.089,11.757.156,2.173.028,4.366.028,6.937a22.639,22.639,0,0,0,3.494.8c6.691.511,13.386.947,20.081,1.4,4.28.284,8.566.531,12.846.857a33.245,33.245,0,0,1,3.627.715c.208,6.624.412,13.092.63,20" transform="translate(-16.922 -56.38)" fill="#a6ff1a"/>
          <path id="Path_57660" data-name="Path 57660" d="M203.619,230.189a6.307,6.307,0,0,1-3.928.124c-2.219-.556-4.762.184-7.168.366-2.15.162-4.3.314-6.726.49-.2-3.813-.455-7.133-.54-10.457-.181-7.11-.245-14.222-.414-21.332-.132-5.533-.351-11.064-.53-16.6a11.252,11.252,0,0,1-.03-2.077c.759-4.865-.054-9.657-.547-14.474-.2-1.956-.008-3.949-.055-5.924-.2-8.229-.425-16.457-.628-24.685-.07-2.85-.09-5.7-.159-8.552-.037-1.551.812-2.03,2.2-1.959,3.36.173,6.719.422,10.08.467,2.372.031,4.747-.223,7.45-.367.186,2.931.535,6.263.58,9.6.095,6.944-.057,13.891.05,20.835.145,9.379.47,18.756.644,28.135.036,1.961-.245,3.93-.4,5.893-.142,1.848-.435,3.694-.434,5.541,0,7.091.125,14.182.146,21.273.007,2.633-.231,5.268-.186,7.9.031,1.826.357,3.647.586,5.8" transform="translate(-78.973 -54.021)" fill="#a6ff1a"/>
        </g>
      </g>
    </g>
  </g>
</svg>
