<?xml version="1.0" encoding="utf-8"?>
<!-- Generator: Adobe Illustrator 26.1.0, SVG Export Plug-In . SVG Version: 6.00 Build 0)  -->
<svg version="1.1" id="Layer_1" xmlns="http://www.w3.org/2000/svg" xmlns:xlink="http://www.w3.org/1999/xlink" x="0px" y="0px"
	 viewBox="0 0 258.1 401.7" enable-background="new 0 0 258.1 401.7" xml:space="preserve">
<g>
	<path fill="#FFFFFF" d="M233,181.7V90.1H29.5v132.5h12.6c10.5,0,19.1,8.6,19.1,19.1v25.9h161v-10.8c-8.6-4.4-14.6-13.3-14.6-23.7
		c0-6.9,2.7-13.3,7.1-18c-1.9-3.3-2.9-7-2.9-11.1C211.8,192.1,221.2,182.4,233,181.7z M102.3,243.5c0,2.7-2.2,5-5,5H77.8
		c-2.8,0-5-2.2-5-5v-26.9c0-2.7,2.2-5,5-5h19.5c2.7,0,5,2.2,5,5V243.5z M102.3,192.3c0,2.7-2.2,5-5,5H77.8c-2.8,0-5-2.2-5-5v-26.9
		c0-2.7,2.2-5,5-5h19.5c2.7,0,5,2.2,5,5V192.3z M102.3,141.2c0,2.7-2.2,5-5,5H77.8c-2.8,0-5-2.2-5-5v-26.9c0-2.7,2.2-5,5-5h19.5
		c2.7,0,5,2.2,5,5V141.2z M145.9,192.3c0,2.7-2.2,5-5,5h-19.5c-2.8,0-5-2.2-5-5v-26.9c0-2.7,2.2-5,5-5H141c2.7,0,5,2.2,5,5V192.3z
		 M189.6,243.5c0,2.7-2.2,5-5,5h-19.5c-2.8,0-5-2.2-5-5v-26.9c0-2.7,2.2-5,5-5h19.5c2.7,0,5,2.2,5,5V243.5z M189.6,192.3
		c0,2.7-2.2,5-5,5h-19.5c-2.8,0-5-2.2-5-5v-26.9c0-2.7,2.2-5,5-5h19.5c2.7,0,5,2.2,5,5V192.3z M189.6,141.2c0,2.7-2.2,5-5,5h-19.5
		c-2.8,0-5-2.2-5-5v-26.9c0-2.7,2.2-5,5-5h19.5c2.7,0,5,2.2,5,5V141.2z"/>
	<path fill="#FFFFFF" d="M240.4,258.9v8.7h-12.5v-8.7c1.6,0.4,3.3,0.6,5.1,0.7c0.4,0,0.8,0,1.2,0
		C236.3,259.6,238.4,259.4,240.4,258.9z"/>
	<path fill="#FFFFFF" d="M119.8,3.2c7.1-4.2,15.9-4.2,23,0l59.7,35.5l43.1,25.7C253.3,69,250,81,240.9,81H131.2H21.6
		C12.4,81,9.1,69,17,64.3l43.1-25.7L119.8,3.2z"/>
	<g>
		<path fill="#FFFFFF" d="M55.5,241.7v26.1H0v-26.1c0-7.4,6-13.4,13.4-13.4h28.7C49.5,228.3,55.5,234.3,55.5,241.7z"/>
	</g>
	<g>
		<path fill="#FFFFFF" d="M254.9,233.1c0,7-3.5,13.3-8.9,17c-0.9,0.6-1.9,1.2-2.8,1.7c-0.9,0.4-1.9,0.8-2.8,1.1c-2,0.6-4.1,1-6.2,1
			c-0.4,0-0.8,0-1.2,0c-1.8-0.1-3.5-0.4-5.1-0.9c-1-0.3-1.9-0.7-2.8-1.1c-1-0.5-2-1-2.8-1.7c-5.4-3.8-8.9-10-8.9-17
			c0-5.1,1.8-9.8,4.9-13.4c3.8,3.9,9,6.4,14.7,6.7c0.4,0,0.8,0,1.2,0c6.2,0,11.9-2.6,15.9-6.7C253.1,223.3,254.9,228,254.9,233.1z"
			/>
	</g>
	<g>
		<path fill="#FFFFFF" d="M250.8,204.1c0,2.6-0.6,5-1.7,7.2c-0.4,0.9-0.9,1.7-1.5,2.5c-0.5,0.8-1.2,1.5-1.9,2.2
			c-3,3-7.1,4.8-11.7,4.8c-0.4,0-0.8,0-1.2,0c-4.1-0.3-7.8-2-10.5-4.8c-0.7-0.7-1.3-1.4-1.9-2.2c-0.6-0.8-1-1.6-1.5-2.4
			c-1.1-2.2-1.7-4.6-1.7-7.2c0-8.8,6.8-16,15.5-16.6c0.4,0,0.8,0,1.2,0C243.3,187.4,250.8,194.9,250.8,204.1z"/>
	</g>
</g>
<g>
	<path fill="#FFFFFF" d="M45.6,310.1v50.3H34.8v-21.1H13v21.1H2.2v-50.3H13v20.3h21.8v-20.3H45.6z"/>
	<path fill="#FFFFFF" d="M90.9,342.4c0,10.8-7.5,18.4-18.9,18.4c-11.4,0-19-7.6-19-18.4S60.5,324,72,324
		C83.3,324,90.9,331.6,90.9,342.4z M80.3,342.4c0-5.8-3.2-9.9-8.3-9.9c-5.2,0-8.4,4.1-8.4,9.9c0,5.9,3.2,9.9,8.4,9.9
		C77.1,352.3,80.3,348.3,80.3,342.4z"/>
	<path fill="#FFFFFF" d="M155.8,338.4v22h-10.4v-20.2c0-4.3-2.1-7.2-6.2-7.2c-5.2,0-7.2,4.6-7.2,8.8v18.6h-10.4v-20.2
		c0-4.3-2.1-7.2-6.2-7.2c-5.1,0-7.2,4.6-7.2,8.8v18.6H97.6v-36l8.2-0.3c0.8,2.1,1.3,6,1.3,7.5h0.2c1.7-4.3,5.1-7.6,11.3-7.6
		c6.4,0,10.5,3.3,12.3,8.2c1.6-4.6,5.1-8.2,11.6-8.2C151.2,324.1,155.8,330.2,155.8,338.4z"/>
	<path fill="#FFFFFF" d="M192,348.8l5,5.7c-2.4,3.2-7.7,6.3-15.5,6.3c-12.1,0-19.3-7.6-19.3-18.4c0-10.7,7.2-18.4,18.4-18.4
		c10.5,0,16.5,7.2,16.5,17c0,2.3-0.3,3.8-0.3,3.8h-24.2c0.9,4.8,4.3,8.2,10.2,8.2C187.8,353,190.5,350.5,192,348.8z M172.5,339.4h15
		c-0.1-4.3-2.7-7.5-7-7.5C176.4,331.9,173.3,334.6,172.5,339.4z"/>
	<path fill="#FFFFFF" d="M203.9,306.6h10.4v53.8h-10.4V306.6z"/>
	<path fill="#FFFFFF" d="M228.1,376.4c-4.1,0-6.7-1.4-6.7-1.4l1.5-8c0,0,2,1.1,4.3,1.1c3.3,0,5-1.6,6.2-4.3l0.7-1.8l-14.9-37.6h11.2
		l7.4,21.3c0.6,1.9,0.8,2.8,1.1,4.7h0.2c0.4-2,0.6-3,1.1-4.7l7.2-21.3h10.5l-15.3,40.8C240.4,371.5,236,376.4,228.1,376.4z"/>
	<path fill="#FFFFFF" d="M15.7,385.8c0,3.9-2.7,5.8-6.4,5.8H6.4v4.8H2.9v-16.5h5.9C13.1,379.9,15.7,381.9,15.7,385.8z M12.1,385.8
		c0-1.9-1.2-3-3.7-3h-2v6.1h2.2C10.8,388.8,12.1,387.7,12.1,385.8z"/>
	<path fill="#FFFFFF" d="M25.8,384.8l-0.9,3.3c-0.4-0.3-0.8-0.4-1.3-0.4c-1.3,0-2.4,1-2.4,3v5.7h-3.4v-11.8l2.7-0.1
		c0.2,0.8,0.4,2.1,0.4,2.6h0.1c0.4-1.5,1.4-2.6,3.1-2.6C24.7,384.5,25.3,384.6,25.8,384.8z"/>
	<path fill="#FFFFFF" d="M38.7,390.5c0,3.5-2.5,6-6.2,6c-3.7,0-6.2-2.5-6.2-6s2.5-6,6.2-6C36.2,384.5,38.7,387,38.7,390.5z
		 M35.2,390.5c0-1.9-1-3.2-2.7-3.2c-1.7,0-2.7,1.3-2.7,3.2c0,1.9,1,3.2,2.7,3.2C34.1,393.8,35.2,392.4,35.2,390.5z"/>
	<path fill="#FFFFFF" d="M53.2,390.5c0,3.8-2.3,6-5.4,6c-1.7,0-2.8-0.7-3.5-1.6v6.6h-3.4v-16.9l2.7-0.1c0.2,0.7,0.4,2,0.4,2.3H44
		c0.6-1.4,1.8-2.4,3.9-2.4C51.2,384.5,53.2,387,53.2,390.5z M49.7,390.5c0-1.9-1-3.2-2.7-3.2s-2.7,1.4-2.7,2.8v0.8
		c0,1.3,1,2.8,2.8,2.8C48.7,393.7,49.7,392.4,49.7,390.5z"/>
	<path fill="#FFFFFF" d="M64.6,392.6l1.6,1.9c-0.8,1-2.5,2.1-5.1,2.1c-4,0-6.3-2.5-6.3-6c0-3.5,2.4-6,6-6c3.4,0,5.4,2.3,5.4,5.6
		c0,0.8-0.1,1.2-0.1,1.2h-7.9c0.3,1.6,1.4,2.7,3.3,2.7C63.2,394,64.1,393.2,64.6,392.6z M58.2,389.5h4.9c0-1.4-0.9-2.4-2.3-2.4
		C59.5,387.1,58.5,387.9,58.2,389.5z"/>
	<path fill="#FFFFFF" d="M76.6,384.8l-0.9,3.3c-0.4-0.3-0.8-0.4-1.3-0.4c-1.3,0-2.4,1-2.4,3v5.7h-3.4v-11.8l2.7-0.1
		c0.2,0.8,0.4,2.1,0.4,2.6h0.1c0.4-1.5,1.4-2.6,3.1-2.6C75.5,384.5,76.1,384.6,76.6,384.8z"/>
	<path fill="#FFFFFF" d="M87.1,395.7c0,0-1.2,0.8-3.5,0.8c-3.1,0-4.7-1.7-4.7-5v-4.3h-1.8v-2.6H79v-3.3l3.3-0.1v3.4h4.1v2.6h-4.1
		v4.2c0,1.6,0.6,2.3,1.9,2.3c1.2,0,1.9-0.6,1.9-0.6L87.1,395.7z"/>
	<path fill="#FFFFFF" d="M90.3,401.7c-1.3,0-2.2-0.5-2.2-0.5l0.5-2.6c0,0,0.6,0.4,1.4,0.4c1.1,0,1.6-0.5,2-1.4l0.2-0.6l-4.9-12.3
		h3.7l2.4,7c0.2,0.6,0.3,0.9,0.4,1.5H94c0.1-0.6,0.2-1,0.4-1.5l2.3-7h3.4l-5,13.4C94.4,400,92.9,401.7,90.3,401.7z"/>
	<path fill="#FFFFFF" d="M124.6,396.4h-3.5l0-8.7c0-0.8,0.1-1.8,0.1-2l-0.1,0c0,0.2-0.3,1.1-0.5,1.5l-4,9.2h-1.9l-4.1-9.3
		c-0.2-0.6-0.4-1.3-0.5-1.5l-0.1,0c0.1,0.1,0.1,1.2,0.1,2l0,8.7h-3.5v-16.5h3.8l4,8.7c0.5,1,1,2.5,1.1,2.9h0.1
		c0.1-0.4,0.7-1.8,1.1-2.9l4-8.7h3.7V396.4z"/>
	<path fill="#FFFFFF" d="M139.3,396.3c0,0-0.7,0.2-1.7,0.2c-1.6,0-2.5-0.6-2.7-1.9c-0.4,0.7-1.3,1.9-3.8,1.9c-2.5,0-4-1.3-4-3.2
		c0-2.9,3.1-3.6,7.5-3.7h0.1V389c0-1.2-0.7-2-2.1-2c-1.3,0-2,0.5-2,1.4c0,0.2,0,0.3,0.1,0.5l-3,0.5c0,0-0.1-0.5-0.1-1.2
		c0-2.2,2-3.7,5.2-3.7c3.5,0,5.3,1.8,5.3,4.7v3.8c0,0.5,0.2,0.8,0.6,0.8c0.2,0,0.3,0,0.4-0.1L139.3,396.3z M134.7,392.2v-0.9h-0.1
		c-2.8,0.1-4.1,0.5-4.1,1.6c0,0.8,0.6,1.2,1.6,1.2C133.7,394,134.7,393.2,134.7,392.2z"/>
	<path fill="#FFFFFF" d="M152.7,389.2v7.2h-3.4v-6.6c0-1.4-0.7-2.3-2.1-2.3c-1.7,0-2.5,1.5-2.5,2.9v6.1h-3.4v-11.8l2.7-0.1
		c0.2,0.8,0.4,2,0.4,2.5h0.1c0.6-1.4,1.7-2.5,3.8-2.5C151.2,384.5,152.7,386.5,152.7,389.2z"/>
	<path fill="#FFFFFF" d="M167,396.3c0,0-0.7,0.2-1.7,0.2c-1.6,0-2.5-0.6-2.7-1.9c-0.4,0.7-1.3,1.9-3.8,1.9c-2.5,0-4-1.3-4-3.2
		c0-2.9,3.1-3.6,7.5-3.7h0.1V389c0-1.2-0.7-2-2.1-2c-1.3,0-2,0.5-2,1.4c0,0.2,0,0.3,0.1,0.5l-3,0.5c0,0-0.1-0.5-0.1-1.2
		c0-2.2,2-3.7,5.2-3.7c3.5,0,5.3,1.8,5.3,4.7v3.8c0,0.5,0.2,0.8,0.6,0.8c0.2,0,0.3,0,0.4-0.1L167,396.3z M162.4,392.2v-0.9h-0.1
		c-2.8,0.1-4.1,0.5-4.1,1.6c0,0.8,0.6,1.2,1.6,1.2C161.4,394,162.4,393.2,162.4,392.2z"/>
	<path fill="#FFFFFF" d="M180.6,397.8c0,1.9-1.4,3.8-6.4,3.8c-4.3,0-6.3-1.2-6.3-3.1c0-1.2,0.7-2,2-2.4c-0.8-0.5-1.3-1.2-1.3-2.2
		c0-1.2,0.8-1.9,1.7-2.2c-0.8-0.7-1.3-1.8-1.3-3c0-2.6,2.1-4.3,5.2-4.3c1.2,0,2.2,0.2,3.1,0.7c0.8-0.5,1.1-1.6,1.1-2.8l2.6,0.7
		c0,1.8-1.4,2.9-2.4,3.2c0.6,0.7,0.9,1.6,0.9,2.6c0,2.6-2.1,4.3-5.3,4.3c-0.8,0-1.5-0.1-2.2-0.3c-0.5,0.1-0.8,0.3-0.8,0.7
		c0,0.6,0.5,0.8,1.9,0.8h2.6C178.6,394.3,180.6,395.4,180.6,397.8z M177.4,398c0-0.8-0.6-1.1-2-1.1h-2.2c-1.7,0-2.3,0.5-2.3,1.1
		c0,0.8,0.9,1.2,3.2,1.2C176.6,399.3,177.4,398.9,177.4,398z M174.1,390.7c1.3,0,2.1-0.7,2.1-1.8c0-1.1-0.8-1.9-2.1-1.9
		c-1.2,0-2.1,0.7-2.1,1.8C172.1,389.9,172.9,390.6,174.1,390.7z"/>
	<path fill="#FFFFFF" d="M191.2,392.6l1.6,1.9c-0.8,1-2.5,2.1-5.1,2.1c-4,0-6.3-2.5-6.3-6c0-3.5,2.4-6,6-6c3.4,0,5.4,2.3,5.4,5.6
		c0,0.8-0.1,1.2-0.1,1.2h-7.9c0.3,1.6,1.4,2.7,3.3,2.7C189.8,394,190.7,393.2,191.2,392.6z M184.8,389.5h4.9c0-1.4-0.9-2.4-2.3-2.4
		C186.1,387.1,185,387.9,184.8,389.5z"/>
	<path fill="#FFFFFF" d="M214.2,389.2v7.2h-3.4v-6.6c0-1.4-0.7-2.3-2-2.3c-1.7,0-2.4,1.5-2.4,2.9v6.1h-3.4v-6.6c0-1.4-0.7-2.3-2-2.3
		c-1.7,0-2.3,1.5-2.3,2.9v6.1h-3.4v-11.8l2.7-0.1c0.2,0.7,0.4,2,0.4,2.5h0.1c0.5-1.4,1.7-2.5,3.7-2.5c2.1,0,3.4,1.1,4,2.7
		c0.5-1.5,1.7-2.7,3.8-2.7C212.7,384.5,214.2,386.5,214.2,389.2z"/>
	<path fill="#FFFFFF" d="M226.1,392.6l1.6,1.9c-0.8,1-2.5,2.1-5.1,2.1c-4,0-6.3-2.5-6.3-6c0-3.5,2.4-6,6-6c3.4,0,5.4,2.3,5.4,5.6
		c0,0.8-0.1,1.2-0.1,1.2h-7.9c0.3,1.6,1.4,2.7,3.3,2.7C224.7,394,225.6,393.2,226.1,392.6z M219.7,389.5h4.9c0-1.4-0.9-2.4-2.3-2.4
		C221,387.1,219.9,387.9,219.7,389.5z"/>
	<path fill="#FFFFFF" d="M241.4,389.2v7.2H238v-6.6c0-1.4-0.7-2.3-2.1-2.3c-1.7,0-2.5,1.5-2.5,2.9v6.1H230v-11.8l2.7-0.1
		c0.2,0.8,0.4,2,0.4,2.5h0.1c0.6-1.4,1.7-2.5,3.8-2.5C239.9,384.5,241.4,386.5,241.4,389.2z"/>
	<path fill="#FFFFFF" d="M253,395.7c0,0-1.2,0.8-3.5,0.8c-3.1,0-4.7-1.7-4.7-5v-4.3H243v-2.6h1.9v-3.3l3.3-0.1v3.4h4.1v2.6h-4.1v4.2
		c0,1.6,0.6,2.3,1.9,2.3c1.2,0,1.9-0.6,1.9-0.6L253,395.7z"/>
</g>
</svg>
