<?xml version="1.0" encoding="utf-8"?>
<!-- Generator: Adobe Illustrator 26.1.0, SVG Export Plug-In . SVG Version: 6.00 Build 0)  -->
<svg version="1.1" id="Layer_1" xmlns="http://www.w3.org/2000/svg" xmlns:xlink="http://www.w3.org/1999/xlink" x="0px" y="0px"
	 viewBox="0 0 1439 161.6" enable-background="new 0 0 1439 161.6" xml:space="preserve">
<g>
	<g>
		<rect x="265.8" y="69.2" fill="#F29C1F" width="90.1" height="17.6"/>
		<g>
			<path fill="#F29C1F" d="M235.2,69.2v17.6h-9c-1.4,0-2.6-1.2-2.6-2.6V71.8c0-1.4,1.2-2.6,2.6-2.6H235.2z"/>
			<path fill="#FFFFFF" d="M265.2,31.8v92.5c0,1.6-1.2,3-2.6,3H255c-1.4,0-2.6-1.3-2.6-3V31.8c0-1.6,1.2-3,2.6-3h7.6
				C264,28.8,265.2,30.1,265.2,31.8z"/>
			<path fill="#F29C1F" d="M267.3,31.8v92.5c0,1.6-1.1,3-2.5,3h-7.5c-1.4,0-2.5-1.3-2.5-3V31.8c0-1.6,1.1-3,2.5-3h7.5
				C266.1,28.8,267.3,30.1,267.3,31.8z"/>
			<path fill="#FFFFFF" d="M252.4,41.3v73.5h-7.2c-1.4,0-2.6-1.2-2.6-2.6V43.8c0-1.4,1.2-2.6,2.6-2.6H252.4z"/>
			<path fill="#F29C1F" d="M252.4,41.3v73.5h-5.6c-1.1,0-2-1.2-2-2.6V43.8c0-1.4,0.9-2.6,2-2.6H252.4z"/>
			<path fill="#FFFFFF" d="M242.6,54.6v46.8h-5.4c-1.1,0-2.1-0.9-2.1-2.1V56.6c0-1.1,0.9-2.1,2.1-2.1H242.6z"/>
			<path fill="#F29C1F" d="M242.6,54.6v46.8h-3.9c-0.8,0-1.5-0.9-1.5-2.1V56.6c0-1.1,0.7-2.1,1.5-2.1H242.6z"/>
		</g>
		<g>
			<path fill="#F29C1F" d="M385.1,69.2v17.6h9c1.4,0,2.6-1.2,2.6-2.6V71.8c0-1.4-1.2-2.6-2.6-2.6H385.1z"/>
			<path fill="#FFFFFF" d="M354.8,31.8v92.5c0,1.6,1.2,3,2.6,3h7.8c1.4,0,2.6-1.3,2.6-3V31.8c0-1.6-1.2-3-2.6-3h-7.8
				C356,28.8,354.8,30.1,354.8,31.8z"/>
			<path fill="#F29C1F" d="M353,31.8v92.5c0,1.6,1.1,3,2.5,3h7.5c1.4,0,2.5-1.3,2.5-3V31.8c0-1.6-1.1-3-2.5-3h-7.5
				C354.2,28.8,353,30.1,353,31.8z"/>
			<path fill="#FFFFFF" d="M367.9,41.3v73.5h7.2c1.4,0,2.6-1.2,2.6-2.6V43.8c0-1.4-1.2-2.6-2.6-2.6H367.9z"/>
			<path fill="#F29C1F" d="M367.9,41.3v73.5h5.6c1.1,0,2-1.2,2-2.6V43.8c0-1.4-0.9-2.6-2-2.6H367.9z"/>
			<path fill="#FFFFFF" d="M377.7,54.6v46.8h5.4c1.1,0,2.1-0.9,2.1-2.1V56.6c0-1.1-0.9-2.1-2.1-2.1H377.7z"/>
			<path fill="#F29C1F" d="M377.7,54.6v46.8h3.9c0.8,0,1.5-0.9,1.5-2.1V56.6c0-1.1-0.7-2.1-1.5-2.1H377.7z"/>
		</g>
	</g>
	<g>
		<rect x="766.9" y="69.2" fill="#F29C1F" width="269.7" height="17.6"/>
		<g>
			<path fill="#F29C1F" d="M1070.4,66.5v23h11.8c1.9,0,3.4-1.5,3.4-3.4V69.9c0-1.9-1.5-3.4-3.4-3.4H1070.4z"/>
			<path fill="#FFFFFF" d="M1030.8,17.6v120.8c0,2.2,1.5,3.9,3.4,3.9h10.2c1.9,0,3.4-1.8,3.4-3.9V17.6c0-2.1-1.6-3.9-3.4-3.9h-10.2
				C1032.3,13.7,1030.8,15.5,1030.8,17.6z"/>
			<path fill="#F29C1F" d="M1028.5,17.6v120.8c0,2.2,1.5,3.9,3.3,3.9h9.7c1.8,0,3.3-1.8,3.3-3.9V17.6c0-2.1-1.5-3.9-3.3-3.9h-9.7
				C1029.9,13.7,1028.5,15.5,1028.5,17.6z"/>
			<path fill="#FFFFFF" d="M1047.9,30v96h9.4c1.9,0,3.4-1.5,3.4-3.4V33.4c0-1.9-1.5-3.4-3.4-3.4H1047.9z"/>
			<path fill="#F29C1F" d="M1047.9,30v96h7.3c1.4,0,2.6-1.5,2.6-3.4V33.4c0-1.9-1.2-3.4-2.6-3.4H1047.9z"/>
			<path fill="#FFFFFF" d="M1060.7,47.4v61.2h7c1.5,0,2.7-1.2,2.7-2.7V50.1c0-1.5-1.2-2.7-2.7-2.7H1060.7z"/>
			<path fill="#F29C1F" d="M1060.7,47.4v61.2h5.1c1.1,0,2-1.2,2-2.7V50.1c0-1.5-0.9-2.7-2-2.7H1060.7z"/>
		</g>
		<g>
			<path fill="#F29C1F" d="M727.2,66.5v23h-11.8c-1.9,0-3.4-1.5-3.4-3.4V69.9c0-1.9,1.5-3.4,3.4-3.4H727.2z"/>
			<path fill="#FFFFFF" d="M766.7,17.6v120.8c0,2.2-1.5,3.9-3.4,3.9h-10.2c-1.9,0-3.4-1.8-3.4-3.9V17.6c0-2.1,1.6-3.9,3.4-3.9h10.2
				C765.2,13.7,766.7,15.5,766.7,17.6z"/>
			<path fill="#F29C1F" d="M769.1,17.6v120.8c0,2.2-1.5,3.9-3.3,3.9H756c-1.8,0-3.3-1.8-3.3-3.9V17.6c0-2.1,1.5-3.9,3.3-3.9h9.7
				C767.6,13.7,769.1,15.5,769.1,17.6z"/>
			<path fill="#FFFFFF" d="M749.7,30v96h-9.4c-1.9,0-3.4-1.5-3.4-3.4V33.4c0-1.9,1.5-3.4,3.4-3.4H749.7z"/>
			<path fill="#F29C1F" d="M749.7,30v96h-7.3c-1.4,0-2.6-1.5-2.6-3.4V33.4c0-1.9,1.2-3.4,2.6-3.4H749.7z"/>
			<path fill="#FFFFFF" d="M736.9,47.4v61.2h-7c-1.5,0-2.7-1.2-2.7-2.7V50.1c0-1.5,1.2-2.7,2.7-2.7H736.9z"/>
			<path fill="#F29C1F" d="M736.9,47.4v61.2h-5.1c-1.1,0-2-1.2-2-2.7V50.1c0-1.5,0.9-2.7,2-2.7H736.9z"/>
		</g>
	</g>
	<g>
		<path fill="#F29C1F" d="M1439,60.5c0,0,0,74.2,0,79.1c0,4.9-1,11.8-2.8,13.2c-1.8,1.3-8.9,3.2-23.6,3.2s-21.7-1.9-23.6-3.2
			c-1.8-1.3-2.8-8.2-2.8-13.2c0-4.9,0-79.1,0-79.1s0.4-2.5,3.4-7.4c3-4.9,4.6-9.5-1.5-12.9c0,0-1.6-0.6-1.6-2.7
			c0-2.1-0.6-5.5,2.2-7.2c0,0,11.8-2.4,24-2.4s24,2.4,24,2.4c2.8,1.8,2.2,5.2,2.2,7.2c0,2.1-1.6,2.7-1.6,2.7
			c-6.1,3.4-4.5,8.1-1.5,12.9C1438.6,58.1,1439,60.5,1439,60.5z"/>
		<path fill="#FFFFFF" d="M1438.3,29c0,1.1-1.8,1.3-1.8,1.3s-11.8-2.4-24-2.4s-24,2.4-24,2.4s-1.8-0.2-1.8-1.3
			c0-1.1,1.3-12.9,1.3-12.9s2.4-4.5,16.3-6c0,0,1.3-0.1,1.1-7.8h-2.3c0,0,0.1-2.3,9.5-2.3s9.6,2.3,9.6,2.3h-2.5
			c-0.3,7.7,1.1,7.8,1.1,7.8c14,1.6,16.3,6,16.3,6S1438.3,27.9,1438.3,29z"/>
	</g>
	<g>
		<path fill="#F29C1F" d="M1282,98.1c0,10.3-3.3,19.7-9,27.4c0,0-13.8,5.7-37.2,5.7c-23.4,0-37.2-5.7-37.2-5.7
			c-5.7-7.7-9-17.1-9-27.4c0-10.5,3.5-20.3,9.5-28.1c1.7-2.3,3.7-4.4,5.8-6.3c8.2-7.4,19-11.8,30.9-11.8c11.9,0,22.7,4.5,30.9,11.8
			c2.1,1.9,4.1,4,5.8,6.3C1278.4,77.8,1282,87.5,1282,98.1z"/>
		<path fill="#FFFFFF" d="M1275.9,75.3c-1.7-2.3-7.1-9.6-9.3-11.5c0,0,42.2-44.5-30.9-44.5c-73.1,0-30.9,44.5-30.9,44.5
			c-2.1,1.9-7.1,7.3-8.8,9.6c0,0-53-66,39.7-66C1328.5,7.3,1275.9,75.3,1275.9,75.3z"/>
	</g>
	<g>
		<path fill="#FFFFFF" d="M51.2,20.9l-1.8,6l-7.1,22.8l-5-1.5l10.1-32.6l0.1-0.4l3.7,1.1c-0.1,0.7-0.2,1.4-0.2,2.2
			C50.9,19.3,51,20.1,51.2,20.9z"/>
		<path fill="#FFFFFF" d="M80.2,18.3c-1.5-7.7-8.3-13.4-16.4-13.4c-8.2,0-15.1,6-16.5,13.8c-0.2,0.9-0.3,1.9-0.3,2.9
			c0,3.1,0.8,5.9,2.3,8.4c2.9,5,8.3,8.3,14.5,8.3c6.2,0,11.6-3.4,14.5-8.4c1.4-2.4,2.2-5.3,2.2-8.3C80.5,20.4,80.4,19.3,80.2,18.3z
			 M63.8,34.4c-6.3,0-11.5-4.5-12.6-10.4c-0.2-0.8-0.2-1.6-0.2-2.4c0-0.7,0.1-1.5,0.2-2.2c1-6.1,6.3-10.7,12.7-10.7
			c6.4,0,11.6,4.6,12.7,10.7c0.1,0.7,0.2,1.4,0.2,2.1c0,0.8-0.1,1.5-0.2,2.2v0C75.3,29.8,70.1,34.4,63.8,34.4z"/>
		<path fill="#F29C1F" d="M80.2,15.2C78.6,7.6,71.9,1.8,63.8,1.8c-8.2,0-15.1,6-16.5,13.8c-0.2,0.9-0.3,1.9-0.3,2.9
			c0,3.1,0.8,5.9,2.3,8.4c2.9,5,8.3,8.3,14.5,8.3c6.2,0,11.6-3.4,14.5-8.4c1.4-2.4,2.2-5.3,2.2-8.3C80.5,17.4,80.4,16.3,80.2,15.2z
			 M63.8,31.3c-6.3,0-11.5-4.5-12.6-10.4c-0.2-0.8-0.2-1.6-0.2-2.4c0-0.7,0.1-1.5,0.2-2.2c1-6.1,6.3-10.7,12.7-10.7
			c6.4,0,11.6,4.6,12.7,10.7c0.1,0.7,0.2,1.4,0.2,2.1c0,0.8-0.1,1.5-0.2,2.2v0C75.3,26.8,70.1,31.3,63.8,31.3z"/>
		<path fill="#F29C1F" d="M90.4,48.2l-5,1.5l-7.1-22.9l-1.9-6.1v0c0.1-0.7,0.2-1.5,0.2-2.2c0-0.7-0.1-1.4-0.2-2.1l3.7-1.2l0,0
			L90.4,48.2z"/>
		<path fill="#FFFFFF" d="M107.3,132.2L93.6,94.1l-8.4-23.6l-6.5-18.3c-1.2-3.3,0.6-7,3.9-8.2l8.2-2.9c3.3-1.2,7,0.5,8.2,3.9
			l6.5,18.2c0,0,0,0,0,0.1l22,61.7c1.2,3.3-0.6,7-3.9,8.2l-8.3,3C112.1,137.2,108.4,135.5,107.3,132.2z"/>
		<path fill="#F29C1F" d="M88.7,63.2l9.6-3.4c3-1.1,6.2,0.5,7.3,3.5l22.3,62.3c1.1,3-0.5,6.2-3.5,7.3l-9.6,3.4
			c-3,1.1-6.2-0.5-7.3-3.5L85.2,70.5C84.2,67.6,85.7,64.3,88.7,63.2z"/>
		<path fill="#FFFFFF" d="M21.5,132.1L35.1,94l8.4-23.6l6.5-18.3c1.2-3.3-0.6-7-3.9-8.2L37.9,41c-3.3-1.2-7,0.5-8.2,3.9l-6.5,18.2
			c0,0,0,0,0,0.1l-22,61.7c-1.2,3.3,0.6,7,3.9,8.2l8.3,3C16.6,137.1,20.3,135.4,21.5,132.1z"/>
		<path fill="#F29C1F" d="M40.1,63.1l-9.6-3.4c-3-1.1-6.2,0.5-7.3,3.5L1,125.5c-1.1,3,0.5,6.2,3.5,7.3l9.6,3.4
			c3,1.1,6.2-0.5,7.3-3.5l22.3-62.3C44.6,67.5,43,64.2,40.1,63.1z"/>
	</g>
	<g>
		<path fill="#FFFFFF" d="M545.7,101.9c0,0-41.4-29.1-48.9-47.5c6.7-16.4,20.2-29.3,37-35.1C533.8,19.3,529.7,68.1,545.7,101.9z"/>
		<path fill="#F29C1F" d="M616.6,78c0,3.2-0.2,6.3-0.7,9.3c-0.7,4.9-2,9.6-3.8,14c-4.4,10.8-11.7,20.1-21,26.9
			c-1,0.8-2.1,1.5-3.2,2.2c-9.7,6.2-21.2,9.8-33.5,9.8c-34.4,0-62.2-27.8-62.2-62.2c0-8.4,1.6-16.3,4.6-23.6
			c7.4,18.4,48.9,47.5,48.9,47.5c-16-33.8-11.8-82.6-11.8-82.6c6.4-2.3,13.3-3.5,20.5-3.5C588.7,15.8,616.6,43.6,616.6,78z"/>
		<path fill="#FFFFFF" d="M615.9,87.3c-0.7,4.9-2,9.6-3.8,14c-4.4,10.8-11.7,20.1-21,26.9c-14.9-20.8-19-84.7-19-84.7
			C583.5,60.7,600.3,75.8,615.9,87.3z"/>
	</g>
</g>
</svg>
