<?xml version="1.0" encoding="utf-8"?>
<!-- Generator: Adobe Illustrator 26.1.0, SVG Export Plug-In . SVG Version: 6.00 Build 0)  -->
<svg version="1.1" id="Layer_1" xmlns="http://www.w3.org/2000/svg" xmlns:xlink="http://www.w3.org/1999/xlink" x="0px" y="0px"
	 viewBox="0 0 385.1 382.8" enable-background="new 0 0 385.1 382.8" xml:space="preserve">
<g>
	<g>
		<path fill="#2B92F9" d="M80.9,346.2c0,1-0.1,2-0.3,3.2l-3.2,20.3c-0.1,1-0.7,1.4-1.6,1.4h-4.3c-1.1,0-1.6-0.6-1.4-1.7l3.1-19.7
			c0.1-0.7,0.2-1.5,0.2-2.1c0-3.2-1.6-4.7-4.8-4.7c-3.7,0-5.8,2.3-6.6,6.9l-3.2,19.9c-0.1,1-0.7,1.4-1.6,1.4h-4.3
			c-1.1,0-1.6-0.6-1.4-1.7l7.1-44.5c0.1-1,0.7-1.4,1.6-1.4h4.3c1.1,0,1.6,0.6,1.4,1.7l-2.2,13.6h0.1c1.8-1.6,4.1-2.3,6.9-2.3
			C77.3,336.5,80.9,340,80.9,346.2z"/>
		<path fill="#2B92F9" d="M114.4,337.3c1.1,0,1.6,0.6,1.4,1.7l-5,31.6c-1.2,7.7-6.4,12.2-14.5,12.2c-4.6,0-8.6-1.3-11.1-3.6
			c-0.7-0.6-0.7-1.4-0.1-2.2l2.1-2.8c0.7-0.8,1.4-0.8,2.2-0.1c2,1.6,4.3,2.3,6.9,2.3c4.1,0,6.6-2.2,7.3-6.3l0.3-1.8h-0.1
			c-1.8,1.6-4.1,2.4-6.9,2.4c-6.5,0-10.1-3.5-10.1-9.9c0-1,0.1-2,0.3-3.1l3-19c0.1-1,0.7-1.4,1.6-1.4h4.3c1.1,0,1.6,0.6,1.4,1.7
			l-2.9,18.5c-0.1,0.7-0.2,1.4-0.2,2c0,3.3,1.6,4.8,4.8,4.8c3.7,0,5.8-2.3,6.5-6.9l3-18.7c0.1-1,0.7-1.4,1.6-1.4H114.4z"/>
		<path fill="#2B92F9" d="M148.7,347c0,0.9-0.1,1.8-0.2,2.7l-1.6,9.6c-1.3,8.4-5.8,12.6-13.4,12.6c-3.2,0-5.5-1-6.9-3h-0.1
			l-1.9,11.6c-0.1,1-0.7,1.4-1.6,1.4h-4.3c-1.1,0-1.6-0.6-1.4-1.7l4.9-31.1c1.3-8.3,6.1-12.6,14.5-12.6
			C144.4,336.5,148.7,340.3,148.7,347z M141,349.9c0.1-0.7,0.2-1.5,0.2-2.1c0-3.3-1.6-5-5-5c-3.9,0-6.1,2.3-6.9,7.1l-1.3,8.4
			c-0.1,0.7-0.2,1.4-0.2,2c0,3.3,1.8,5,5,5c3.9,0,6-2.3,6.8-7.1L141,349.9z"/>
		<path fill="#2B92F9" d="M180.7,347c0,0.8-0.1,1.8-0.2,2.7l-0.9,5.4c-0.1,1-0.7,1.4-1.6,1.4h-17.1l-0.2,1.4
			c-0.1,0.8-0.2,1.6-0.2,2.3c0,3.7,2,5.3,6,5.3c2.3,0,4.3-0.8,6.1-2.4c0.9-0.7,1.6-0.6,2.2,0.3l1.7,2.7c0.5,0.8,0.4,1.6-0.3,2.2
			c-3,2.4-6.5,3.6-10.3,3.6c-8.4,0-13.1-3.7-13.1-10.7c0-0.9,0.1-1.8,0.3-3l1.4-9c1.4-8.4,6-12.6,14.2-12.6
			C176.4,336.5,180.7,340.3,180.7,347z M161.8,350l-0.1,1h11.6l0.1-1c0.1-0.8,0.2-1.6,0.2-2.2c0-3.3-1.6-4.8-4.9-4.8
			C164.7,342.9,162.6,345.2,161.8,350z"/>
		<path fill="#2B92F9" d="M186.7,349c1.4-8.4,5.6-12.5,13.1-12.5c3.1,0,5.8,0.7,7.8,2c0.8,0.5,1,1.3,0.4,2.2l-1.8,2.9
			c-0.6,0.9-1.3,1-2.2,0.4c-1.2-0.7-2.4-1.1-3.9-1.1c-3.5,0-5.4,2-6.1,6.2l-3.3,20.6c-0.1,1-0.7,1.4-1.6,1.4h-4.3
			c-1.1,0-1.6-0.6-1.4-1.7L186.7,349z"/>
		<path fill="#2B92F9" d="M236.6,346.9c0,0.9-0.1,1.8-0.3,2.8l-3.3,20.9c-1.2,7.7-6.3,12.2-14.5,12.2c-4.6,0-8.5-1.3-11.1-3.6
			c-0.7-0.6-0.7-1.4-0.1-2.2l2.1-2.8c0.7-0.8,1.4-0.8,2.2-0.1c2,1.6,4.3,2.3,6.9,2.3c4.1,0,6.6-2.2,7.2-6.3l0.3-1.6h-0.1
			c-1.7,1.5-3.9,2.2-6.6,2.2c-6.9,0-10.8-3.7-10.8-10.1c0-1,0.1-2,0.3-3.1l1.3-8.3c1.4-8.3,6.1-12.6,14.5-12.6
			C232.1,336.5,236.6,340.3,236.6,346.9z M228.8,349.9c0.1-0.7,0.2-1.5,0.2-2.1c0-3.3-1.6-5-5-5c-3.9,0-6,2.3-6.8,7.1l-1.2,7.1
			c-0.1,0.7-0.2,1.5-0.2,2.1c0,3.3,1.6,5,5,5c3.8,0,6.1-2.4,6.8-7.1L228.8,349.9z"/>
		<path fill="#2B92F9" d="M242.5,371.1c-1.1,0-1.6-0.6-1.4-1.7l7.1-44.5c0.1-1,0.7-1.4,1.6-1.4h4.3c1.1,0,1.6,0.6,1.4,1.7l-7.1,44.5
			c-0.1,1-0.7,1.4-1.6,1.4H242.5z"/>
		<path fill="#2B92F9" d="M258.1,371.1c-1.1,0-1.6-0.6-1.4-1.7l4.9-30.7c0.1-1,0.7-1.4,1.6-1.4h4.3c1.1,0,1.6,0.6,1.4,1.7l-4.9,30.7
			c-0.1,1-0.7,1.4-1.6,1.4H258.1z M262.7,327.6c0-2.8,2-4.8,4.6-4.8c2.5,0,4.1,1.6,4.1,4.1c0,2.8-2.1,4.7-4.7,4.7
			C264.4,331.7,262.7,330,262.7,327.6z"/>
		<path fill="#2B92F9" d="M303.2,323.5c1.1,0,1.6,0.6,1.4,1.7l-5.4,34.1c-1.3,8.3-6.2,12.6-14.5,12.6c-7.8,0-12.2-3.8-12.2-10.4
			c0-0.9,0.1-1.8,0.3-2.8l1.5-9.6c1.4-8.4,5.9-12.6,13.5-12.6c3.2,0,5.5,1,6.9,3h0.1l2.4-14.5c0.1-1,0.7-1.4,1.6-1.4H303.2z
			 M293.3,349.9c0.1-0.7,0.1-1.4,0.1-2c0-3.4-1.6-5.1-4.8-5.1c-4,0-6.3,2.3-7,7.1l-1.3,8.4c-0.1,0.7-0.2,1.5-0.2,2.1
			c0,3.3,1.6,5,5,5c3.9,0,6.1-2.3,6.9-7.1L293.3,349.9z"/>
		<path fill="#2B92F9" d="M333.8,347c0,0.8-0.1,1.8-0.2,2.7l-0.9,5.4c-0.1,1-0.7,1.4-1.6,1.4h-17.1l-0.2,1.4
			c-0.1,0.8-0.2,1.6-0.2,2.3c0,3.7,2,5.3,6,5.3c2.3,0,4.3-0.8,6.1-2.4c0.9-0.7,1.6-0.6,2.2,0.3l1.7,2.7c0.5,0.8,0.4,1.6-0.3,2.2
			c-3,2.4-6.5,3.6-10.3,3.6c-8.4,0-13.1-3.7-13.1-10.7c0-0.9,0.1-1.8,0.3-3l1.4-9c1.4-8.4,6-12.6,14.2-12.6
			C329.5,336.5,333.8,340.3,333.8,347z M314.9,350l-0.1,1h11.6l0.1-1c0.1-0.8,0.2-1.6,0.2-2.2c0-3.3-1.6-4.8-4.9-4.8
			C317.8,342.9,315.7,345.2,314.9,350z"/>
	</g>
	<g>
		<path fill="#2B92F9" d="M385.1,96.6c0-23.4-19.1-42.5-42.6-42.5h-40.8c1-3.7,1.6-7.5,1.6-11.5c0-23.5-19.1-42.5-42.6-42.5h-87.6
			c-14.6,0-26.4,11.8-26.4,26.4V27h-50c-23.5,0-42.6,19.1-42.6,42.6c0,4.1,0.6,8.1,1.7,11.9c-21.1,2.5-37.5,20.5-37.5,42.2
			c0,23.5,19.1,42.5,42.5,42.5H83c-1,3.7-1.6,7.5-1.6,11.5c0,4,0.6,7.9,1.6,11.5H42.6C19.1,189.2,0,208.3,0,231.8
			c0,23.4,19.1,42.5,42.6,42.5h104.3v0.6c0,14.6,11.8,26.4,26.4,26.4h69.5c5.1,0,10-0.9,14.6-2.6c16.3-5.9,28-21.6,28-39.9
			c0-4-0.6-7.8-1.6-11.5h31.8c23.4,0,42.5-19.1,42.5-42.5s-19.1-42.5-42.5-42.5h-49.9c1-3.7,1.6-7.5,1.6-11.5c0-4-0.6-7.9-1.6-11.5
			h77C366,139.1,385.1,120.1,385.1,96.6z M61,115.9c-4.2,0-7.7,3.5-7.7,7.7c0,4.3,3.5,7.7,7.7,7.7h163.5c10.7,0,19.3,8.7,19.3,19.3
			c0,10.7-8.7,19.3-19.3,19.3H123.9c-4.2,0-7.7,3.5-7.7,7.7c0,4.3,3.5,7.7,7.7,7.7h191.5c10.7,0,19.3,8.7,19.3,19.3
			c0,10.7-8.7,19.3-19.3,19.3H42.5c-4.3,0-7.7,3.5-7.7,7.7c0,4.3,3.5,7.7,7.7,7.7h200.1c10.7,0,19.3,8.7,19.3,19.3
			c0,10.7-8.7,19.3-19.3,19.3H179c-3.2,0-5.8-2.6-5.8-5.8c0-3.2,2.6-5.8,5.8-5.8h63.7c4.3,0,7.7-3.5,7.7-7.7c0-4.3-3.5-7.7-7.7-7.7
			H42.5c-10.6,0-19.3-8.7-19.3-19.3c0-10.7,8.7-19.3,19.3-19.3h272.9c4.2,0,7.7-3.4,7.7-7.7c0-4.3-3.5-7.7-7.7-7.7H123.9
			c-10.7,0-19.3-8.7-19.3-19.3c0-10.6,8.7-19.3,19.3-19.3h100.7c4.3,0,7.7-3.4,7.7-7.7c0-4.3-3.5-7.7-7.7-7.7H61
			c-10.7,0-19.3-8.7-19.3-19.3c0-10.6,8.7-19.3,19.3-19.3h281.5c4.3,0,7.7-3.5,7.7-7.7c0-4.3-3.4-7.7-7.7-7.7H96.8
			c-10.7,0-19.3-8.7-19.3-19.3c0-10.6,8.7-19.3,19.3-19.3h164c4.2,0,7.7-3.5,7.7-7.7c0-4.2-3.5-7.7-7.7-7.7H179
			c-3.2,0-5.8-2.6-5.8-5.8s2.6-5.8,5.8-5.8h81.8c10.7,0,19.3,8.7,19.3,19.3c0,10.7-8.7,19.3-19.3,19.3h-164c-4.3,0-7.7,3.5-7.7,7.7
			c0,4.3,3.5,7.7,7.7,7.7h245.7c10.7,0,19.3,8.7,19.3,19.3c0,10.7-8.7,19.3-19.3,19.3H61z"/>
	</g>
</g>
</svg>
