<?xml version="1.0" encoding="utf-8"?>
<!-- Generator: Adobe Illustrator 26.1.0, SVG Export Plug-In . SVG Version: 6.00 Build 0)  -->
<svg version="1.1" id="Layer_1" xmlns="http://www.w3.org/2000/svg" xmlns:xlink="http://www.w3.org/1999/xlink" x="0px" y="0px"
	 viewBox="0 0 1000 389" enable-background="new 0 0 1000 389" xml:space="preserve">
<g>
	<polygon fill="#F91244" points="945.3,306.9 978.4,169.9 945.3,32.9 725.2,16 270,16 79.4,38.4 79.4,301.3 270,323.7 725.2,323.7 	
		"/>
	<polygon fill="#EA658E" points="904.2,251 942.6,303.1 978.4,169.9 919.5,169.9 	"/>
	<polygon fill="#EA658E" points="905.9,88.7 927.9,171.4 977.2,164.5 938.9,41.5 	"/>
	<polygon fill="#EA658E" points="555.4,224.6 599.8,171.4 555.4,112.3 539.1,171.4 	"/>
	<polygon fill="#7F0336" points="242.1,80.8 193.2,171.4 242.1,262 553.8,232.5 539.1,171.4 553.8,110.3 	"/>
	<g>
		<line fill="none" stroke="#231F20" stroke-width="4.8743" stroke-miterlimit="10" x1="516.4" y1="106.8" x2="227.3" y2="106.8"/>
		<line fill="none" stroke="#231F20" stroke-width="4.8743" stroke-miterlimit="10" x1="550.9" y1="120.7" x2="219.4" y2="120.7"/>
		<line fill="none" stroke="#231F20" stroke-width="4.8743" stroke-miterlimit="10" x1="547" y1="134.5" x2="210.8" y2="134.5"/>
		<line fill="none" stroke="#231F20" stroke-width="4.8743" stroke-miterlimit="10" x1="543.5" y1="148.4" x2="203.6" y2="148.4"/>
		<line fill="none" stroke="#231F20" stroke-width="4.8743" stroke-miterlimit="10" x1="539.7" y1="162.3" x2="195.7" y2="162.3"/>
		<line fill="none" stroke="#231F20" stroke-width="4.8743" stroke-miterlimit="10" x1="539.1" y1="176.2" x2="193.2" y2="176.2"/>
		<line fill="none" stroke="#231F20" stroke-width="4.8743" stroke-miterlimit="10" x1="542.5" y1="190.1" x2="201.1" y2="190.1"/>
		<line fill="none" stroke="#231F20" stroke-width="4.8743" stroke-miterlimit="10" x1="546.2" y1="204" x2="209" y2="204"/>
		<line fill="none" stroke="#231F20" stroke-width="4.8743" stroke-miterlimit="10" x1="549.5" y1="217.8" x2="219.4" y2="217.8"/>
		<line fill="none" stroke="#231F20" stroke-width="4.8743" stroke-miterlimit="10" x1="516.4" y1="231.7" x2="227.3" y2="231.7"/>
	</g>
	<polygon fill="#AA0B44" points="275.8,16 340.1,88.7 589.4,24.2 	"/>
	<polygon fill="#AA0B44" points="275.8,329.4 340.1,256.6 589.4,321.2 	"/>
	<polygon fill="#EA658E" points="646,326.7 737.1,326.7 821,314.7 737.1,270.4 	"/>
	<polygon fill="#EA658E" points="648.1,19.7 737.1,12 821,24.1 737.1,68.3 	"/>
	<line fill="none" stroke="#231F20" stroke-width="17.06" stroke-miterlimit="10" x1="831.8" y1="24.2" x2="737.1" y2="68.4"/>
	<line fill="none" stroke="#231F20" stroke-width="17.06" stroke-miterlimit="10" x1="831.8" y1="315.6" x2="737.1" y2="270.4"/>
	<polyline fill="none" stroke="#231F20" stroke-width="17.06" stroke-miterlimit="10" points="843.5,25.1 904.2,88.7 922.9,169.9 	
		"/>
	<polyline fill="none" stroke="#231F20" stroke-width="17.06" stroke-miterlimit="10" points="843.5,314.7 904.2,251 922.9,169.9 	
		"/>
	<path fill="none" stroke="#231F20" stroke-width="18.1923" stroke-miterlimit="10" d="M838.1,169.4c0,55.8-45.2,101-101,101
		c-55.8,0-101-45.2-101-101c0-55.8,45.2-101,101-101C792.9,68.4,838.1,113.6,838.1,169.4z"/>
	<line fill="none" stroke="#231F20" stroke-width="17.06" stroke-miterlimit="10" x1="838.1" y1="169.9" x2="978.4" y2="169.9"/>
	<line fill="none" stroke="#231F20" stroke-width="17.06" stroke-miterlimit="10" x1="945.3" y1="32.9" x2="904.2" y2="88.7"/>
	<line fill="none" stroke="#231F20" stroke-width="17.06" stroke-miterlimit="10" x1="945.3" y1="306.9" x2="904.2" y2="251"/>
	<polygon fill="none" stroke="#231F20" stroke-width="24.3714" stroke-linejoin="round" stroke-miterlimit="10" points="
		978.4,169.9 945.3,306.9 725.2,323.7 270,323.7 79.4,301.3 79.4,38.4 270,16 725.2,16 945.3,32.9 	"/>
	<line fill="none" stroke="#231F20" stroke-width="17.06" stroke-miterlimit="10" x1="537.1" y1="169.9" x2="601.3" y2="169.4"/>
	<polyline fill="none" stroke="#231F20" stroke-width="17.06" stroke-linejoin="round" stroke-miterlimit="10" points="626,323.2 
		345.4,252.3 270,323.7 	"/>
	<polyline fill="none" stroke="#231F20" stroke-width="17.06" stroke-linejoin="round" stroke-miterlimit="10" points="626,19.7 
		341.5,90.2 270,16 	"/>
	<polyline fill="none" stroke="#231F20" stroke-width="17.06" stroke-miterlimit="10" points="242.1,80.8 190.5,171.4 242.1,262 	
		"/>
	<line fill="none" stroke="#231F20" stroke-width="17.06" stroke-miterlimit="10" x1="190.5" y1="171.4" x2="79.4" y2="171.4"/>
	<g>
		<path fill="#FCA38B" stroke="#231F20" stroke-width="12.1857" stroke-linejoin="round" stroke-miterlimit="10" d="M320.3,363.6
			V382H293v-17c0-0.4,0-0.9,0-1.3H320.3z"/>
		<path fill="#F90041" stroke="#231F20" stroke-width="12.1857" stroke-linejoin="round" stroke-miterlimit="10" d="M583.1,355.3
			v5.1h-55.5c0-3.9-1.6-7.5-4.2-10.1c-2.6-2.6-6.2-4.2-10.1-4.2c-7.9,0-14.3,6.4-14.3,14.3v3.2H348.8c0-3.9-1.6-7.5-4.2-10.1
			c-2.6-2.6-6.2-4.2-10.1-4.2c-7.8,0-14.3,6.4-14.3,14.3h-27.4c-0.5-9.7-6.4-17.5-13.6-17.5c-7.5,0-13.6,8.5-13.6,18.8v1.2h-23.4
			v-39.5h328.9c-3.9,0-7.5,1.6-10.1,4.2c-2.6,2.6-4.2,6.2-4.2,10.1c0,7.9,6.4,14.3,14.3,14.3H583.1z"/>
		
			<rect x="348.8" y="363.6" fill="#FCA38B" stroke="#231F20" stroke-width="12.1857" stroke-linejoin="round" stroke-miterlimit="10" width="150.2" height="18.3"/>
		
			<rect x="527.7" y="360.4" fill="#FCA38B" stroke="#231F20" stroke-width="12.1857" stroke-linejoin="round" stroke-miterlimit="10" width="55.5" height="21.5"/>
	</g>
	<g>
		
			<polyline fill="none" stroke="#231F20" stroke-width="17.06" stroke-linecap="round" stroke-linejoin="round" stroke-miterlimit="10" points="
			11.3,34.1 46.9,34.1 46.9,374 		"/>
		
			<rect x="12.2" y="186.8" fill="#FCA38B" stroke="#231F20" stroke-width="12.1857" stroke-linejoin="round" stroke-miterlimit="10" width="33.8" height="74.5"/>
		
			<rect x="12.2" y="278.4" fill="#FCA38B" stroke="#231F20" stroke-width="12.1857" stroke-linejoin="round" stroke-miterlimit="10" width="33.8" height="24.5"/>
		
			<rect x="12.2" y="145.3" fill="#FCA38B" stroke="#231F20" stroke-width="12.1857" stroke-linejoin="round" stroke-miterlimit="10" width="33.8" height="24.5"/>
	</g>
	
		<circle fill="none" stroke="#231F20" stroke-width="24.3714" stroke-linejoin="round" stroke-miterlimit="10" cx="737.1" cy="169.9" r="47.4"/>
	<polygon fill="#EA658E" stroke="#231F20" stroke-width="12.1857" stroke-linejoin="round" stroke-miterlimit="10" points="
		203.6,95.6 172.9,148.4 172.9,80.8 	"/>
	<polygon fill="#EA658E" stroke="#231F20" stroke-width="12.1857" stroke-linejoin="round" stroke-miterlimit="10" points="
		203.6,246.1 172.9,193.3 172.9,260.9 	"/>
	<path fill="none" stroke="#231F20" stroke-width="17.06" stroke-miterlimit="10" d="M737.1,270.4L626,323.2l-72.1-90.6l-16.7-62.7
		l16.7-59.5L626,19.7l111.1,48.7c-55.8,0-101,45.2-101,101C636.1,225.2,681.3,270.4,737.1,270.4z"/>
	<polyline fill="none" stroke="#231F20" stroke-width="17.06" stroke-miterlimit="10" points="553.8,232.5 242.1,262 79.4,304.4 	
		"/>
	<polyline fill="none" stroke="#231F20" stroke-width="17.06" stroke-miterlimit="10" points="79.4,38.4 242.1,80.8 553.8,110.3 
		601.3,169.4 553.8,232.5 631.1,268.5 601.3,169.4 631.1,81.9 553.8,110.3 	"/>
</g>
</svg>
