<?xml version="1.0" encoding="utf-8"?>
<!-- Generator: Adobe Illustrator 26.1.0, SVG Export Plug-In . SVG Version: 6.00 Build 0)  -->
<svg version="1.1" id="Layer_1" xmlns="http://www.w3.org/2000/svg" xmlns:xlink="http://www.w3.org/1999/xlink" x="0px" y="0px"
	 viewBox="0 0 596.4 318.1" enable-background="new 0 0 596.4 318.1" xml:space="preserve">
<g>
	<g>
		<path d="M42.3,99.6v-20h-3.4v20h-5.1V60.2h5.1v14.4h3.4V60.2h5.1v39.4H42.3z"/>
		<path d="M51.8,99.6V60.2h5.1v39.4H51.8z"/>
		<path d="M69.9,99.6V84.5l-3.4-5.6v20.7h-5.1V60.2h5.1v10.6l3.4,5.6V60.2h5.1v39.4H69.9z"/>
		<path d="M86.3,65.2v34.4h-5.1V65.2h-3.7v-5.1H90v5.1H86.3z"/>
		<path d="M107.8,100.2c-3.8,0-6.8-3-6.8-6.8v-27c0-3.8,3-6.8,6.8-6.8s6.8,3,6.8,6.8v27C114.5,97.2,111.6,100.2,107.8,100.2z
			 M109.5,66.4c0-1-0.7-1.7-1.7-1.7s-1.7,0.7-1.7,1.7v27c0,1,0.7,1.7,1.7,1.7s1.7-0.7,1.7-1.7V66.4z"/>
		<path d="M123.6,65.2v10.7h5.1V81h-5.1v18.6h-5.1V60.2h10.4v5.1H123.6z"/>
	</g>
	<g>
		<g>
			<path d="M594,116.1c-1.5-5-2.9-10.1-4.2-15.2c-1.9-7.9-5.1-15.3-10.1-21.6c-5-6.3-10.9-11.8-16.4-17.6c-0.7-0.8-1.8-1.3-2.7-1.9
				c-2-1.3-4.1-2.4-5.9-3.9c-8.7-7.5-18.8-12.7-29.5-16.5c-16.8-5.9-33.8-12-52.1-11.7c-4.4,0.1-8.5-0.6-13.1,0.8
				c-9.9,3-20.2,4.9-30.4,6.6c-6,1-11.1,3.1-16,6.4c3.9,4.3,7.4,8.1,11,11.9c8.7,9.2,17.4,18.3,26.1,27.4c0.6,0.7,1.3,1.3,2,1.9
				c2.8,2.3,5.7,4.5,8.4,6.9c8.4,7.3,16.5,14.9,25.2,21.9c9.1,7.3,17.5,15.5,25.8,23.7c6.3,6.3,12.8,12.3,19.7,18.1
				c10.7,9.1,20.9,18.8,31.2,28.3c1.8,1.6,4.7,2.4,6,0.9c3.2-3.7,6.4-7.4,9.2-11.4c2.1-2.9,3.7-6.3,5.3-9.5c1.5-2.9,3-5.8,4.1-8.9
				c2.5-7.2,4.2-14.7,7-21.8C596.8,125.6,595.5,121,594,116.1z M484.8,101.6c-3.2-2.7-6.3-5.5-9.5-8c-8.4-6.7-17.3-12.9-25.3-20.1
				c-6.8-6.2-13.9-12.3-19.2-21c8-2.7,15.5-5.7,24.4-6.7c9.9,18.4,21.2,36.2,30.8,54.9C485.6,100.9,485.2,101.3,484.8,101.6z
				 M459.3,45.3c10.5-2.6,20.1-0.8,30.1,0.3c2.8,20.7,4.7,41.4,5.4,63.7C482.2,87.5,475,64.2,459.3,45.3z M498.6,112.5
				c-0.3-4-0.7-7.9-0.8-11.8c-0.1-4.7,0.2-9.4,0-14.1c-0.2-4.5-0.7-9-1.3-13.5c-0.7-5.7-2.3-11.4-1.1-17.3c0.5-2.5-0.3-5.4-0.6-8.6
				c12,0.2,21.4,7.3,32.9,10.3c-9.5,19-18.4,36.9-27.3,54.8C500.3,112.6,499.4,112.5,498.6,112.5z M541.4,112.3
				c-10.3-0.1-20.7,0.8-31.2,0.7c3.6-3.4,8.5-3.8,12.6-5.9c4.5-2.3,9.2-4.4,13.9-6.5c4.5-2,9-3.9,13.5-6c4.5-2,8.9-4.2,13.3-6.3
				c6.3,7.6,9.3,16.2,9.2,26C562,113.7,551.7,112.5,541.4,112.3z M573.7,119.7c1.2,9.7-2.1,17.7-5.5,25.8c-8.6-3.7-16.7-7-24.6-10.5
				c-2.3-1-4.3-2.7-6.3-4.2c-5.4-4-10.7-8.2-17.5-9.8c-0.6-0.1-1.2-0.6-1.6-2c6.2-0.3,12.5-0.7,18.7-0.8c7.2-0.1,14.5-0.1,21.7,0.2
				C563.6,118.5,568.6,119.2,573.7,119.7z M508.4,108.2c-0.3-0.3-0.6-0.6-0.9-0.9c2.3-4,4.5-7.9,6.8-11.9c1.5-2.5,3.3-4.7,4.6-7.3
				c3.9-7.8,7.7-15.6,11.4-23.5c2.1-4.3,4.1-5.3,7.5-2.4c7.6,6.5,14.9,13.4,22.3,20.1c0.6,0.6,0.9,1.5,2,3.2
				C543,91.5,526.8,102.5,508.4,108.2z M505.4,120.1c1.5,0.4,3.2,0.5,4.6,1.2c5.2,2.5,10.5,4.7,15.5,8c7.7,5.1,16,9.4,24.1,13.7
				c5.1,2.7,10.5,4.9,16,7.4c-1.8,6.9-9.7,9.3-8.7,16.8C537.4,153.7,521.4,137.1,505.4,120.1z M586.8,137.7
				c-2.4,10.8-6.4,21-12.1,30.5c-2,3.4-4.9,6.3-8,10.3c-2.8-2.9-4.9-5.1-7.2-7.5c6-4.8,10.4-10,13.8-16.1c0.8-1.4,2.5-2.3,3.5-3.1
				c0-3.9-0.4-7.6,0.1-11.3c0.8-6.1,2.6-12,1.9-18.2c-0.3-2.5,0.8-4.4,4-5.7c-3.9-0.9-5.2-2.8-5.6-5.8c-0.5-4.3-1.1-8.7-2.5-12.7
				c-3.3-8.9-8.5-16.6-15.8-22.7c-5.6-4.7-10.5-10.1-16.3-14.4c-4-3-8.9-4.9-13.4-7.1c-8.2-3.9-16.3-8-25.4-9.7
				c-1.6-0.3-3.2-0.6-4.9-0.8c-3.5-0.4-6.6-1.2-6.2-7.2c-1.3,2.5-1.9,3.7-2.8,5.6c-10.1-2.5-20.6-2.9-31-1.1
				c-10.4,1.8-20.5,5-30.7,7.5c-1.7-1.6-3.5-3.3-5.7-5.3c3.8-1.4,7.3-3,11.1-3.9c9.5-2.2,19.1-4.6,28.8-5.8c6-0.7,12.4,1.2,18.5,0.8
				c8.1-0.5,15,3.1,22.5,4.7c6.9,1.5,13.7,3.1,20.2,6.2c4.2,2,9.1,2.5,13.3,4.5c4.4,2.1,8.3,5.3,12.4,8c8.5,5.5,15.1,13.2,22.2,20.2
				c3.2,3.1,5.6,7.2,7.6,11.3c3.3,6.7,6.6,13.4,8.2,20.9C589.2,119,588.8,128.3,586.8,137.7z"/>
			<g>
				<path fill="#8DC63F" d="M412.5,82c1-1.7,1.8-3.5,3-5c1-1.3,2.8-1,3,0.5c0.2,1.8-0.1,4.2-1.1,5.6C416.1,84.7,414.2,84,412.5,82z"
					/>
				<path fill="#8DC63F" d="M459.8,7.3c2.3-1.8,4.3-3.3,6.4-4.9c2.6,2.8,0.5,5-0.6,7.7C463.9,8.7,460.5,11.6,459.8,7.3z"/>
				<path fill="#8DC63F" d="M425.7,30.7c-2.2,0-3.8,0-5.6,0c0-3.3,0.3-6,4.6-7.5C425,25.7,425.3,28,425.7,30.7z"/>
				<path fill="#8DC63F" d="M422.6,16.3c-2.3-0.5-3.8-0.9-5.4-1.2c-1-1.6-0.2-2.6,1.3-3.5c2.1-1.3,4-1.5,6.3,0.6
					C424.1,13.4,423.4,14.8,422.6,16.3z"/>
				<path fill="#8DC63F" d="M445,102c0.3,2.6,0.7,4.4,0.7,6.2c0,0.6-0.9,1.6-1.6,1.8c-0.6,0.1-1.6-0.5-2.1-1.1
					C440.1,106.3,440.6,105.1,445,102z"/>
				<path fill="#8DC63F" d="M518,176.6c-2.1-0.6-4-1.2-6.2-1.8c0.9-2.7,2.3-4.5,5.1-3.6C519.3,172,519.4,174.1,518,176.6z"/>
				<path fill="#8DC63F" d="M492.3,132.6c1.9-1.3,3.7-2.5,5.6-3.8c2.1,2.7,0.9,4.6-0.6,5.7c-1,0.7-3,0.1-4.5,0.1
					C492.6,133.9,492.4,133.2,492.3,132.6z"/>
				<path fill="#8DC63F" d="M451.8,112.7c1.2,0.5,2.1,0.8,3.3,1.3c-0.1,1-0.1,1.9-0.2,2.8c-0.2,1.4,0,3.4-2.1,3c-2-0.3-3-2-2.6-4.1
					C450.4,114.8,451.2,113.9,451.8,112.7z"/>
				<path fill="#8DC63F" d="M396.7,59.8c-3.8-1.7-4.6-2.9-3.4-5c0.5-0.8,2.2-1.5,2.9-1.3C398.3,54.2,398.4,56.2,396.7,59.8z"/>
				<path fill="#8DC63F" d="M375.2,38.7c-0.3-2.3-1.2-4.7,0.8-6.6c0.5-0.5,2,0,2.9,0.1C379.4,38.2,379.4,38.2,375.2,38.7z"/>
				<path fill="#8DC63F" d="M436.8,5.9c2.5,0.9,3.5,1.8,2.8,3.9c-0.9,2.2-1.5,2.5-5.5,2.1C434.9,9.9,435.8,8.1,436.8,5.9z"/>
				<path fill="#8DC63F" d="M465.3,109.4c-1.1-1.3-2.3-2.7-3.8-4.4c1.3-1,2.5-1.8,3.7-2.7C467.9,106.3,467.9,106.3,465.3,109.4z"/>
				<path fill="#8DC63F" d="M457.7,123c2.6-3.4,2.6-3.4,5.7-1.5C461.7,126.6,461.5,126.6,457.7,123z"/>
				<path fill="#8DC63F" d="M409.6,70.7c-0.4,0.1-1.3,0.8-1.8,0.5c-1.5-0.7-3.1-1.6-4.1-2.8c-0.3-0.4,0.8-2.1,1.2-3.1
					c1.1,0.8,2.3,1.4,3.2,2.3C408.7,68.2,408.8,69,409.6,70.7z"/>
				<path fill="#8DC63F" d="M403.2,13c2.4,1.8,3.1,3.5,1.7,5.2c-0.6,0.8-2.1,1-3.2,1.4c-0.2-1.1-0.8-2.3-0.6-3.3
					C401.4,15.3,402.3,14.4,403.2,13z"/>
				<path fill="#8DC63F" d="M435.8,85.8c0.3-1.9,0.5-3.8,0.8-6.1c4,2.7,4,3.5,0.5,6.4C436.7,86,436.3,85.9,435.8,85.8z"/>
				<path fill="#8DC63F" d="M388.2,19.2c2.6,1.3,3.7,2.9,1.8,5.2c-0.5,0.6-2.6,0.7-3.1,0.2C384.7,22.3,386.8,20.9,388.2,19.2z"/>
				<path fill="#8DC63F" d="M387.8,42.8c0.4,1.9,0.8,3.5,1,5.2c0,0.5-0.7,1.3-1.3,1.5c-0.5,0.2-1.4-0.2-1.8-0.6
					C384,47.1,384.7,44.7,387.8,42.8z"/>
				<path fill="#8DC63F" d="M433.7,94.3c3.1,0.8,3.7,2.6,2.7,5c-0.2,0.5-2,0.9-2.6,0.6C431.1,98.3,432,96.4,433.7,94.3z"/>
				<path fill="#8DC63F" d="M451.4,6.3c-1.6,1.5-2.7,2.7-4,3.7c-0.1,0.1-1.5-1-1.6-1.7c-0.4-1.7,1.2-4.4,2.5-4.1
					C449.2,4.4,449.9,5.3,451.4,6.3z"/>
				<path fill="#8DC63F" d="M417.5,59.7c2.9,0.3,4.6,1.2,4,3.6c-0.2,0.8-2.1,2-2.7,1.8C416.6,64.1,416.9,62.1,417.5,59.7z"/>
				<path fill="#8DC63F" d="M478.1,140.2c1.3-2.1,2.4-4.1,4.7-2.6c0.7,0.5,0.9,3,0.3,3.7C481.4,143.4,479.8,142.2,478.1,140.2z"/>
				<path fill="#8DC63F" d="M412.3,26.3c-0.4,6.5-0.8,6.8-5.5,3.8C407.4,27.2,410.3,28,412.3,26.3z"/>
				<path fill="#8DC63F" d="M450.6,23.8c-1.1-1.5-1.9-2.7-2.8-3.9c1.4-2.2,3.1-2.6,4.4-0.8C453.7,21,452.9,22.7,450.6,23.8z"/>
				<path fill="#8DC63F" d="M464.6,17.5c2.1,1.1,3.3,2.5,1.8,4.7c-0.3,0.5-2.1,0.7-2.5,0.3C462.1,20.6,462.9,19,464.6,17.5z"/>
				<path fill="#8DC63F" d="M496.6,159c1-1.4,1.9-3,3.1-4.2c0.2-0.2,1.8,1.1,3.5,2.2c-2.2,1.5-3.7,2.4-5.2,3.4
					C497.5,159.9,497.1,159.5,496.6,159z"/>
				<path fill="#8DC63F" d="M471.8,130.5c1.6,2.2,2.1,4,0,5.4c-0.6,0.4-2.6,0.2-2.8-0.3C467.7,133.1,469.1,131.7,471.8,130.5z"/>
				<path fill="#8DC63F" d="M511.2,162c-0.3,6.3-1.1,6.8-5.7,4.3C507.3,164.9,508.8,163.8,511.2,162z"/>
				<path fill="#8DC63F" d="M426,69.4c3.1,0.8,4.2,2.3,3.6,4.5c-0.2,0.6-2.4,1.5-3,1.1C424.5,73.6,425.7,71.7,426,69.4z"/>
				<path fill="#8DC63F" d="M422.7,84.9c2.5,1,3.9,2.2,2.6,4.3c-1.3,2-3.1,1.3-4.9-0.6C421.2,87.4,422,86.1,422.7,84.9z"/>
				<path fill="#8DC63F" d="M488.3,148.4c0.6-1.3,0.6-2.2,1.1-2.5c1-0.8,2.3-1.3,3.5-1.8c0.1,0,1.1,1.4,1,1.6
					c-0.8,1.1-1.7,2.1-2.7,2.9C490.7,148.9,489.8,148.5,488.3,148.4z"/>
				<path fill="#8DC63F" d="M513.4,148.1c0.9,1.7,1.8,2.8,1.9,4c0.1,0.6-1.3,1.3-2.1,1.9c-0.6-1.1-1.5-2.2-1.8-3.4
					C511.3,150.2,512.3,149.4,513.4,148.1z"/>
				<path fill="#8DC63F" d="M470.3,119.6c1.2-1.6,2-2.7,2.9-3.9c0.4,0.1,0.8,0.1,1.2,0.2c0.3,1.5,0.6,3,1,5.3
					C473.4,120.6,472.2,120.2,470.3,119.6z"/>
				<path fill="#8DC63F" d="M504.1,145.7c-2.1-1.2-3.2-2.5-1.5-4.4c0.4-0.5,1.9-0.7,2.2-0.3C506.3,142.4,506.3,144.1,504.1,145.7z"
					/>
				<path fill="#8DC63F" d="M434.7,26c0.8-1.8,1.4-3,2.1-4.4c0.7,0.4,1.3,0.6,1.4,0.9c0.4,1,1.2,2.4,0.8,3.2
					C438.3,27.6,436.8,26.8,434.7,26z"/>
				<path fill="#8DC63F" d="M411.2,55.4c-3-2.7-1-4,0.5-6C414.4,52.2,413.5,53.8,411.2,55.4z"/>
				<path fill="#8DC63F" d="M481.4,126.6c1.3-0.9,2.6-1.9,3.8-2.8c0.5,0.9,1.6,1.9,1.4,2.6c-0.8,2.3-2.7,1.7-4.5,1.5
					C482,127.5,481.7,127.1,481.4,126.6z"/>
				<path fill="#8DC63F" d="M448.1,88.5c2,1.8,2.7,3.3,0.9,4.9c-0.4,0.4-2,0.3-2.4-0.1C445,91.3,446.5,90.1,448.1,88.5z"/>
				<path fill="#8DC63F" d="M399.6,44.5c0-2.4,0-3.9,0-5.5C403.5,40.6,403.5,40.7,399.6,44.5z"/>
				<path fill="#8DC63F" d="M456.5,99.1c-1.4,1-2.5,1.8-4.1,3c-0.1-1.7-0.6-2.8-0.2-3.6C453.3,96.4,454.6,97,456.5,99.1z"/>
				<path fill="#8DC63F" d="M526.9,162.7c-1,0.7-1.8,1.6-2.3,1.5c-0.8-0.3-1.4-1.3-2.1-2c0.7-0.6,1.5-1.9,2.2-1.8
					C525.4,160.5,526,161.8,526.9,162.7z"/>
				<path fill="#8DC63F" d="M395.3,35.4c-2.5-2.2-0.4-3.2,1.3-4.3C397,32.7,397.2,34.2,395.3,35.4z"/>
			</g>
			<path fill="#A6FF1A" d="M586.8,137.7c-2.4,10.8-6.4,21-12.1,30.5c-2,3.4-4.9,6.3-8,10.3c-2.8-2.9-4.9-5.1-7.2-7.5
				c6-4.8,10.4-10,13.8-16.1c0.8-1.4,2.5-2.3,3.5-3.1c0-3.9-0.4-7.6,0.1-11.3c0.8-6.1,2.6-12,1.9-18.2c-0.3-2.5,0.8-4.4,4-5.7
				c-3.9-0.9-5.2-2.8-5.6-5.8c-0.5-4.3-1.1-8.7-2.5-12.7c-3.3-8.9-8.5-16.6-15.8-22.7c-5.6-4.7-10.5-10.1-16.3-14.4
				c-4-3-8.9-4.9-13.4-7.1c-8.2-3.9-16.3-8-25.4-9.7c-1.6-0.3-3.2-0.6-4.9-0.8c-3.5-0.4-6.6-1.2-6.2-7.2c-1.3,2.5-1.9,3.7-2.8,5.6
				c-10.1-2.5-20.6-2.9-31-1.1c-10.4,1.8-20.5,5-30.7,7.5c-1.7-1.6-3.5-3.3-5.7-5.3c3.8-1.4,7.3-3,11.1-3.9
				c9.5-2.2,19.1-4.6,28.8-5.8c6-0.7,12.4,1.2,18.5,0.8c8.1-0.5,15,3.1,22.5,4.7c6.9,1.5,13.7,3.1,20.2,6.2c4.2,2,9.1,2.5,13.3,4.5
				c4.4,2.1,8.3,5.3,12.4,8c8.5,5.5,15.1,13.2,22.2,20.2c3.2,3.1,5.6,7.2,7.6,11.3c3.3,6.7,6.6,13.4,8.2,20.9
				C589.2,119,588.8,128.3,586.8,137.7z"/>
			<path fill="#CEF982" d="M527.7,57.6c-9.5,19-18.4,36.9-27.3,54.8c-0.1,0.2-1,0.1-1.8,0.2c-0.3-4-0.7-7.9-0.8-11.8
				c-0.1-4.7,0.2-9.4,0-14.1c-0.2-4.5-0.7-9-1.3-13.5c-0.7-5.7-2.3-11.4-1.1-17.3c0.5-2.5-0.3-5.4-0.6-8.6
				C506.8,47.4,516.2,54.5,527.7,57.6z"/>
			<path fill="#CEF982" d="M562.1,85.6c-19.2,5.9-35.3,16.9-53.8,22.6c-0.3-0.3-0.6-0.6-0.9-0.9c2.3-4,4.5-7.9,6.8-11.9
				c1.5-2.5,3.3-4.7,4.6-7.3c3.9-7.8,7.7-15.6,11.4-23.5c2.1-4.3,4.1-5.3,7.5-2.4c7.6,6.5,14.9,13.4,22.3,20.1
				C560.8,83,561.1,83.9,562.1,85.6z"/>
			<path fill="#CEF982" d="M486,100.6c-0.4,0.3-0.8,0.6-1.2,0.9c-3.2-2.7-6.3-5.5-9.5-8c-8.4-6.7-17.3-12.9-25.3-20.1
				c-6.8-6.2-13.9-12.3-19.2-21c8-2.7,15.5-5.7,24.4-6.7C465.1,64.1,476.4,81.9,486,100.6z"/>
			<path fill="#CEF982" d="M494.7,109.3c-12.5-21.8-19.7-45.2-35.4-64c10.5-2.6,20.1-0.8,30.1,0.3C492.2,66.4,494,87.1,494.7,109.3z
				"/>
			<path fill="#CEF982" d="M568.2,145.5c-8.6-3.7-16.7-7-24.6-10.5c-2.3-1-4.3-2.7-6.3-4.2c-5.4-4-10.7-8.2-17.5-9.8
				c-0.6-0.1-1.2-0.6-1.6-2c6.2-0.3,12.5-0.7,18.7-0.8c7.2-0.1,14.5-0.1,21.7,0.2c5,0.2,10,0.9,15.2,1.3
				C574.9,129.4,571.6,137.4,568.2,145.5z"/>
			<path fill="#CEF982" d="M572.7,114.4c-10.7-0.8-21-2-31.3-2.1c-10.3-0.1-20.7,0.8-31.2,0.7c3.6-3.4,8.5-3.8,12.6-5.9
				c4.5-2.3,9.2-4.4,13.9-6.5c4.5-2,9-3.9,13.5-6c4.5-2,8.9-4.2,13.3-6.3C569.8,96,572.8,104.6,572.7,114.4z"/>
			<path fill="#CEF982" d="M556.9,167.2c-19.5-13.5-35.4-30.1-51.5-47.1c1.5,0.4,3.2,0.5,4.6,1.2c5.2,2.5,10.5,4.7,15.5,8
				c7.7,5.1,16,9.4,24.1,13.7c5.1,2.7,10.5,4.9,16,7.4C563.7,157.3,555.9,159.7,556.9,167.2z"/>
		</g>
		<path d="M352.3,286.4c-4.6-3.3-2.5-8.3-3.1-12.3c-0.9-6.4-0.4-13.1-0.7-19.6c-0.6-11.5-1.2-23-2.2-34.4c-0.6-7,0.2-13.8,0.4-20.7
			c0.1-2.1,0-4.2-0.6-6.5c-12.9,15.9-24.6,32.4-38.4,47.7c-11.8-12.2-23.1-23.8-34.5-35.6c-0.7,1-1.2,1.4-1.3,1.8
			c-0.5,15.3-1,30.6-1.5,45.9c-0.3,9.1-0.8,18.2-1.4,27.2c-0.2,3.3-2,4.7-5.1,4.9c-4,0.2-7.9,0.7-11.9,0.9
			c-8.2,0.4-16.4,0.8-24.6,1.1c-0.5,0-1-0.3-2-0.6c-0.3-19.7-0.5-39.4-0.9-59c-0.2-9.1-0.9-18.2-1.1-27.4c-0.1-2.9,0.5-5.8,0.6-8.7
			c0.1-9.6,0.3-19.2,0.2-28.8c0-5.3-0.5-10.6-0.7-15.9c-0.2-8-0.2-16.1-0.4-24.1c-0.1-2.4-0.5-4.7-0.5-7.1c0-1.9,0.5-3.9,0.7-5.5
			c0.9-0.4,1.2-0.7,1.5-0.7c9.8,2.5,19.6,0.3,29.3-0.3c4.7-0.3,9.4-1,14.1-1.2c1.2-0.1,3.1,0.9,3.4,1.8c3.7,9.1,10.1,16.4,15.8,24.2
			c4.9,6.8,9.3,14,14.1,20.8c1.9,2.7,4.4,4.9,7,7.8c1.8-1.9,3.5-3.4,4.9-5.2c8.1-9.6,16.2-19.3,24.2-29c1.5-1.8,3-3.8,4-5.9
			c2.6-5.7,7.9-9.2,11.7-13.9c0.8-1,2.9-1.3,4.4-1.4c3.6-0.3,7.3-0.2,10.9-0.5c5.1-0.3,10.2-0.6,15.3-1.1c4.3-0.4,8.7-1.2,13-1.8
			c1.9-0.3,3.8-0.4,5.8-0.6c-1.8,11.6-1.7,22.6-0.5,33.6c0.2,1.9-0.4,4-0.4,5.9c-0.1,9.1-0.2,18.1-0.1,27.2
			c0.1,11.8,0.6,23.6,0.5,35.3c0,6.2-1.2,12.4-1.2,18.5c0.1,9.1,1,18.2,1.3,27.3c0.3,7.1,0.1,14.2,0.2,21.3c0,2.5,0.2,5,0.1,7.5
			c0,0.9-0.7,1.8-1.4,3.4c-1.1-1.5-1.7-2.5-2.7-3.8c-8.6,3.4-17.8,4.2-27.2,4.5c-2.3,0.1-4.8,0.5-6.9,1.4
			C360.4,286.9,356.3,286.7,352.3,286.4z M354.9,281.9c3.5-0.4,7,0,9.5-1.4c4.5-2.4,9-2.4,13.7-2.6c6-0.3,12,0,17.4-2.6
			c0.5-10.5,1.2-20.7,1.4-30.9c0.2-14.5,0.1-28.9,0-43.4c0-2-0.5-4-0.5-6c-0.1-9.7,0-19.4,0-29.1c0-4.2,0-8.3-0.1-12.5
			c-0.1-5.2-0.4-10.5-0.5-15.7c-0.1-9.3,0-18.6,0-28c-2.9,0-5.8-0.3-8.6,0.1c-8.1,1.2-16.2,2.1-24.5,1.2c-2.4-0.2-5.2-0.2-7,2
			c-6.8,8.8-13.6,17.6-20.4,26.4c-5.5,7.2-11.1,14.4-16.6,21.5c-1.4,1.8-3.1,3.4-4.4,5.3c-2.2,3.3-3.4,3.8-6.6,1.5
			c-1.7-1.2-3.3-2.8-4.6-4.5c-2.9-3.8-5.5-7.8-8.4-11.6c-8.5-11.5-17.3-22.7-25.3-34.5c-3.1-4.6-6.6-5.5-11.5-5.1
			c-8.2,0.8-16.4,1.2-24.5,1.8c-1.2,0.1-2.5,0.1-4.3,0.2c-0.2,2.1-0.6,4-0.5,5.9c0.3,9.7,0.7,19.4,1.1,29.1c0.2,4,0.4,8,0.5,12.1
			c0.2,13,0.5,26,0.5,39c0,8.9-0.9,17.8-1,26.7c-0.1,12,0.3,24.1,0.4,36.1c0.1,6,0,11.9,0,18.1c11.4,1.2,22.2-1.7,33.6-2.7
			c0.5-2.3,1.2-4.4,1.3-6.5c0.5-13,1.1-25.9,1.3-38.9c0.1-10.9-0.4-21.9-0.5-32.8c-0.1-4.2,0.1-4.2,4.9-4.7
			c11.9,12.3,23.8,24.5,35.8,36.9c3.1-3.5,5.8-6.4,8.3-9.5c5.1-6.1,10.7-12,15.2-18.6c4.5-6.5,10.3-11.8,15.5-17.5
			c0.6-0.7,1.4-1.2,2.2-1.7c1.9-1.2,3.7-0.7,4.3,1.4c0.9,3.3,2,6.7,2,10.1c0.2,12.2,0.1,24.3,0,36.5c0,5.1-0.3,10.2-0.2,15.3
			C354,259.3,354.5,270.2,354.9,281.9z"/>
		<path d="M481.1,214.8c-2.4-4.4-5.3-4.1-8.4-3c-2.4,0.8-4.9,1.5-7.4,2c-2.9,0.6-3.9,2.7-3.8,5.3c0.4,5.8,1,11.6,1.6,17.7
			c11.8,1.2,23.3-0.9,34.9-1.7c0.1,1.4,0.6,2.4,0.2,2.8c-2.9,3.4-1.6,7.3-1.5,11c0.4,8,1.2,15.9,1.6,23.9c0.1,2-0.6,4-0.9,6
			c-0.4,0.1-0.9,0.1-1.3,0.2c-0.9-1.6-1.8-3.3-2.7-5c-7.4,0.9-14.7,2.9-22.4,2.4c-7.1-0.5-14.2,0.2-21.3,0.6
			c-3.6,0.2-7.1,1.2-10.7,1.8c-5.2,0.8-10.4,1.6-15.6,2c-1.8,0.2-3.8-0.7-5.3-1c0.8-2.9,1.7-5.2,1.9-7.5c0.6-9.1,1.1-18.2,1.3-27.4
			c0.2-7.1-0.2-14.3-0.3-21.4c0-2.7,0.2-5.4,0.1-8.1c-0.5-12.7-1.1-25.5-1.6-38.2c0-1.1,0.1-2.1,0.2-3.2c0.2-3.1,0.6-6.2,0.6-9.3
			c0-8.2-0.8-16.5-0.2-24.6c0.7-9.5-1.4-18.9-0.2-28.3c0.2-1.2,0-2.6-0.2-3.8c-0.8-4.6-0.2-5.7,4.7-6c5.5-0.3,11,0.1,16.4-0.2
			c7.8-0.4,15.6-1.2,23.4-1.8c2.7-0.2,5.5-0.3,8.2-0.5c4.7-0.2,9.6,0.4,14-0.8c5-1.4,9.9-2,15-2.4c0.5,0,1,0.2,1.4,0.3
			c0.3,0.4,0.7,0.7,0.7,1c-0.7,7.4-0.5,14.7,0.6,22.2c0.9,6-0.3,12.3-0.6,18.4c-13.6,6.5-28.7,6.7-43.1,11.2
			c-0.2,6.9-0.4,13.9-0.6,20.8c-0.1,2,1.2,3.1,3.1,3c4.7-0.3,9.8,0.3,13.2-4.1c4.4,2.6,5.6,6.3,5.5,11.1c-0.2,5.2,0.6,10.5,0.8,15.7
			c0.2,5.1,0.1,10.2,0.1,15.3C482.7,212,482,212.8,481.1,214.8z M456.5,179.8c-0.3-8.9-0.6-16.5-0.9-24.2c-0.1-2-0.2-4-0.6-5.9
			c-0.7-3.2,1-5.5,4.2-5.9c1.6-0.2,3.3-0.3,4.8-0.6c5.9-1.2,11.7-2.9,17.6-3.6c5.1-0.6,9.3-2.9,13.8-5c2.5-1.1,3.4-3.1,3-5.8
			c-0.4-2.7-1.2-5.5-0.8-8.1c0.9-6.6-1.6-12.3-3.6-18.2c-8,0.6-15.2,2.9-22.9,3.4c-3.9,0.3-7.5-0.7-11.2-0.3
			c-6.8,0.8-13.7,1.4-20.5,2.2c-4.5,0.5-8.9,1-13.9,1.6c-0.3,11.4-0.6,22.8-1,34.3c-0.1,3.3-0.9,6.6-0.5,9.8
			c1.1,9.9,2.1,19.8,2,29.9c0,9.5,1.5,19,0.6,28.6c-0.3,3.2-1,6.4-1,9.6c-0.1,13.1-0.2,26.2-0.1,39.2c0,4.9,0.3,9.7,0.5,15.2
			c3.7-0.4,7-0.6,10.2-1.1c4.9-0.7,9.7-1.7,14.5-2.1c5.6-0.5,11.3-0.2,17-0.6c6.5-0.5,13.1-1.3,19.6-2.1c1.7-0.2,3.4-0.8,4.5-1.1
			c0.3-6.3,0.6-11.9,0.8-17.5c0-1.3,0.2-3.4-0.4-3.7c-3.3-1.5-1.2-4.7-2.2-6.8c-5,0.3-9.7,0.6-14.4,0.9c-5.1,0.3-10.2,0.5-15.3,0.6
			c-0.9,0-1.8-0.8-2-0.9c0.1-6.3,0.4-11.9,0.3-17.5c-0.1-2.5,0.5-5.6-2.7-7.2c-0.5-0.3-0.7-2.2-0.3-2.9c1.1-1.9,2.1-3.8,5-4.4
			c4.6-0.8,9.1-2.7,13.6-4.2c3-1,4.3-3.4,4-6.4c-0.6-6-1.2-12-2-17.9c-0.4-3-1.8-3.6-4.6-3.2C466.9,178.5,462,179.1,456.5,179.8z"/>
		<path d="M196.3,109.1c2.9,3.9,2.8,8.3,2.8,13c0,13.9,0.5,27.7,0.6,41.6c0.1,5.6-0.3,11.1-0.3,16.7c0,3.1,0.3,6.1,0.3,9.2
			c0.1,7.2,1.1,14.7-0.2,21.7c-1.7,10,0.5,19.9-0.2,29.9c-0.7,10-0.1,20.1-0.1,30.2c0,3.6,0.3,7.2,0,10.8c-0.4,4.4-1.1,4.9-5.5,4.9
			c-5.6,0-11.3-0.1-16.9,0c-3.3,0.1-6.5,0.4-9.7,0.9c-1.1,0.2-2,1.2-3.5,2.2c-0.4-1.6-0.9-2.7-1-3.8c-0.4-9.5-0.8-19-1.1-28.4
			c0-1.1,0.1-2.3-0.2-3.3c-3.9-13.3-1.5-26.8-1-40.2c0.3-8.4,0.5-16.8,0.2-25.2c-0.5-14.2-1.7-28.4-2.2-42.6
			c-0.4-11.5-0.1-22.9-0.1-34.4c0-0.7,0.1-1.5,0.3-2.1c0.2-0.5,0.6-0.9,1.2-1.7c0.6,0.5,1.1,0.8,1.5,1.3c0.3,0.4,0.5,0.9,0.9,1.6
			c5.8,0,11.8-1,17.3,0.3C185.6,112.6,190.1,107.2,196.3,109.1z M195.6,279.7c-0.4-3.4-0.9-6.3-0.9-9.1c-0.1-4.1,0.3-8.3,0.3-12.4
			c0-11.2-0.2-22.3-0.2-33.5c0-2.9,0.5-5.8,0.7-8.7c0.2-3.1,0.7-6.2,0.6-9.3c-0.3-14.8-0.8-29.5-1-44.3c-0.2-10.9,0.1-21.9-0.1-32.8
			c-0.1-5.3-0.6-10.5-0.9-15.1c-4.3,0.2-8,0.6-11.7,0.6c-5.3-0.1-10.6-0.5-15.9-0.7c-2.2-0.1-3.5,0.6-3.5,3.1
			c0.1,4.5,0.1,9,0.2,13.5c0.3,13,0.7,25.9,1,38.9c0.1,3.1-0.2,6.2,0.1,9.3c0.8,7.6,2.1,15.1,0.9,22.8c-0.2,1.1,0,2.2,0,3.3
			c0.3,8.7,0.6,17.4,0.8,26.1c0.3,11.2,0.4,22.4,0.7,33.6c0.1,5.2,0.5,10.5,0.8,16.5c3.8-0.3,7.2-0.5,10.6-0.8
			c3.8-0.3,7.8-1.5,11.3-0.6C191.7,280.4,193.3,280.4,195.6,279.7z"/>
		<path d="M151.1,126.4c1.7,2.8,1.8,5.4,0.8,8c-0.7,1.8-2.1,1.9-3.4,0.8C144.9,132.1,145.9,128.3,151.1,126.4z"/>
		<path d="M204.9,151.6c5,0.7,6.7,2.8,5.4,6.5c-0.3,0.9-1.6,1.9-2.6,2.1c-1.5,0.3-3-0.4-3.1-2.3C204.5,156,204.8,154,204.9,151.6z"
			/>
		<path d="M456,296.7c0.1,4.3-1.3,7-3.8,7.4c-0.9,0.2-2.4-0.1-2.9-0.7c-0.5-0.6-0.3-2.2,0.2-2.9C451,298.3,452.9,296.3,456,296.7z"
			/>
		<path d="M425.7,302.5c1.6-1.3,2.8-2.5,4.2-3.2c0.7-0.4,2.2-0.1,2.8,0.4c1.2,1.2-0.3,5.2-2.5,6.5c-1.9,1.1-3.1-0.1-3.7-1.8
			C426.2,303.9,426,303.4,425.7,302.5z"/>
		<path d="M489.2,149c1.7,0.3,3.5,0.4,3,2.8c-0.5,2.7-3,5.1-5,4.9c-2.2-0.2-2.2-1.9-1.6-3.2C486.4,152,487.8,150.7,489.2,149z"/>
		<path d="M156.2,271.5c0.6,2.5,1.1,4.6,1.8,7.3c-2.7,0-4.7,0-7.1,0C151.8,275.7,151.5,272.7,156.2,271.5z"/>
		<path d="M142.4,241.1c-5.1-2.7-5.4-5.6-0.7-8.8C145,236.6,145.1,237.1,142.4,241.1z"/>
		<path d="M152.5,250.3c-3.6-3.7-3.6-4.2,0.3-8.5C156.9,245.7,156.9,246.4,152.5,250.3z"/>
		<path d="M150.9,145.1c1.8,0,2.8,1.2,2.5,2.8c-0.4,1.9-0.6,4.2-3.3,4.4c-1.9,0.1-2.4-1.2-2.4-2.9
			C147.7,146.8,149,145.1,150.9,145.1z"/>
		<path d="M139.4,184.8c2.4,1.6,2.8,3.7,2.5,5.9c-0.1,0.8-1.2,1.9-2,2.1c-0.7,0.1-2.1-0.6-2.5-1.4
			C135.9,188.8,136.6,186.6,139.4,184.8z"/>
		<path d="M154.8,297.2c-3.8-3.8-3.7-6.7,0-9.8C157.5,290.5,156.3,293.5,154.8,297.2z"/>
		<path d="M216.5,113.6c3.2,4.9,3.2,5.5-1,8.2C212.4,117.2,212.4,116.8,216.5,113.6z"/>
		<path d="M414.9,184c-2.7,0.9-5,0.8-5.4-1.6c-0.5-2.8,1.6-4.3,4.8-6.4C414.6,179.5,414.7,181.8,414.9,184z"/>
		<path d="M339.2,285.2c3,1.6,3.3,3.8,3.1,5.9c-0.1,0.8-1.6,1.7-2.6,1.9c-1.6,0.3-3.1-0.6-2.7-2.4
			C337.3,288.8,338.4,287.2,339.2,285.2z"/>
		<path d="M148,212.8c1.6-2.5,1.9-5.8,5-4.4c1.1,0.5,2.2,4,1.5,5.1C152.7,216.5,150.7,213.7,148,212.8z"/>
		<path d="M208.4,168.4c0.3,2.2,0.6,4.3,0.9,6.5c-2.9,1.3-4.6,0.6-5.3-1.6c-0.8-2.6,1.2-3.8,2.8-5.1
			C207.3,168.2,207.9,168.3,208.4,168.4z"/>
		<path d="M139.1,213.3c3.8,2.3,3.8,4.7,3.6,7c0,0.8-1.1,1.5-1.8,2.2c-0.6-0.6-1.7-1.1-1.8-1.7C138.9,218.7,139.1,216.5,139.1,213.3
			z"/>
		<path d="M139.4,141.3c3.2,1.6,3.2,3.8,2.4,5.6c-0.4,1-2.2,2-3.2,1.9c-1.6-0.1-2.3-1.7-1.6-3.3C137.6,144,138.5,142.8,139.4,141.3z
			"/>
		<path d="M170.9,306.7c-1.2,1.7-2.5,3.4-3.7,5.1c-2.6-1.1-3.8-2.5-2.5-4.8C165.8,304.9,168,304.8,170.9,306.7z"/>
		<path d="M467,222.5c-0.8-5.5-0.1-6.4,4.9-6.5C472,220.2,471.6,220.8,467,222.5z"/>
		<path d="M216.3,254.7c3.1,2.5,4.7,4.2,3,6.9c-0.5,0.7-1.8,1.4-2.5,1.2c-0.8-0.2-1.9-1.4-1.8-2.2
			C215,258.9,215.6,257.2,216.3,254.7z"/>
		<path d="M328.1,283c-2.4,0.5-3.3-1.1-3.5-3c-0.3-2.6,2-3.1,3.4-4.3C329.9,278.7,329.9,278.7,328.1,283z"/>
		<path d="M243.6,296.5c-0.1-4,1.6-6,4.9-7C249.6,293.7,248.5,295.5,243.6,296.5z"/>
		<path d="M339.9,269.4c2.9,5.1,2.4,6.4-3,7.4C336.4,273.7,337.3,271.3,339.9,269.4z"/>
		<path d="M326.3,310.8c-1.9-3.8-1.4-5,3-7.4C331.4,307,331.4,307,326.3,310.8z"/>
		<path d="M413.3,122.4c2.4,5.2,1.9,6.7-2.5,8.7C410,127.8,410.4,125.2,413.3,122.4z"/>
		<path d="M415.6,147.2c-2-1.2-3.5-2.1-5.6-3.4c1-1.3,2.1-2.8,3.2-4.2C416.3,141.9,416.4,142.1,415.6,147.2z"/>
		<path d="M474.3,156.9c-0.5-3.6-0.3-6.3,3.5-7.2C480.2,153.1,479.4,155.1,474.3,156.9z"/>
		<path d="M328.3,292.6c2.3,3.3,2.3,3.7-0.9,7.3C323.8,296.3,323.9,295.9,328.3,292.6z"/>
		<path d="M327.5,245.6c2.6,1.9,3.8,3.5,2.7,5.9c-0.4,0.8-1.6,2.1-2,2c-1-0.4-2.5-1.5-2.5-2.2C325.9,249.4,326.8,247.7,327.5,245.6z
			"/>
		<path d="M208.7,300.8c-4.8-1.5-4.9-3.8-0.9-7.3C210.7,295.7,208,298.3,208.7,300.8z"/>
		<path d="M414.7,215.7c-0.7,2.1-1.2,3.8-2,6.1c-2-0.9-3.6-1.7-5.4-2.5C410.3,215.6,410.3,215.6,414.7,215.7z"/>
		<path d="M232.3,310.3c-0.1-1.8-0.4-2.9-0.1-3.9c0.3-1.1,1.2-2.6,2-2.8c0.9-0.1,2.6,1,2.8,1.8c0.3,1.1-0.2,2.7-0.9,3.7
			C235.5,309.9,234,309.8,232.3,310.3z"/>
		<path d="M412.5,197.4c1.9,5.8,1.7,6.2-3.3,7C408.8,200.1,408.8,200.1,412.5,197.4z"/>
		<path d="M140.2,127.7c2.4,2.3,2.5,4.6,1.3,7c-2.5,0.8-3.9-0.5-4.5-2.3C136.3,130.2,137.8,128.8,140.2,127.7z"/>
		<path d="M412.9,106.9c3.7,2,4.7,4,2.3,7.2c-1.5-0.5-3.1-1-5.4-1.8C410.9,110.4,411.8,108.9,412.9,106.9z"/>
		<path d="M322.1,232.9c1.4-2.1,2.6-3.7,4.8-1.5c1.6,1.6,0.9,3.4-2,5.9C324,235.7,323,234.3,322.1,232.9z"/>
		<path d="M138.4,171.5c2.5,2.4,3.7,4.5,0.8,7C134.3,175.1,134.2,174.4,138.4,171.5z"/>
		<path d="M217.2,183.8c2.7,2.2,2.1,4.5,0.8,6.4c-0.4,0.6-2.3,0.6-3.3,0.3c-0.3-0.1-0.7-2-0.3-2.7
			C214.9,186.3,216.1,185.2,217.2,183.8z"/>
		<path d="M408.6,279.9c1.4-1.7,2.3-2.9,3.3-4.1c3,2.6,3.8,4.6,2.3,5.9C412,283.5,410.8,281.4,408.6,279.9z"/>
		<path d="M466.6,282.6c1.5,4-0.5,5.7-3.3,7.2C461.1,285.7,461.2,285.4,466.6,282.6z"/>
		<path d="M206.6,133.1c3.5,3.6,3,6.5,2.1,10.3C205,140.2,205.6,137.2,206.6,133.1z"/>
		<path d="M205.6,113.3c0.9,3.8,1.6,6.4,2.3,9.6c-1.2-0.2-2.9-0.1-3.1-0.6C203.8,119.7,202.8,117,205.6,113.3z"/>
		<path d="M439.3,307.6c-0.2-3.7-0.8-6.7,3.2-8.1C443.7,303.8,443.3,305.1,439.3,307.6z"/>
		<path d="M151.1,193.9c0.3,1.6,0.8,3.3,0.7,4.9c0,0.7-1.7,1.9-2.1,1.7c-0.9-0.4-2.3-1.6-2.2-2.4c0.1-1.5,1.1-2.9,1.8-4.3
			C149.9,193.9,150.5,193.9,151.1,193.9z"/>
		<path d="M218.4,155c0.4,2.7-0.2,4.1-2,3.8c-1-0.1-2.2-1.3-2.5-2.2c-0.5-1.5,1.6-4.3,2.8-3.7C217.7,153.2,218.2,154.7,218.4,155z"
			/>
		<path d="M415.1,301.9c2.4,2.2,2.1,4.2,1.3,6c-0.3,0.8-2,1-3,1.5c-0.3-0.9-1-2-0.8-2.8C413,305.2,414,303.8,415.1,301.9z"/>
		<path d="M415.6,237.4c-1.5-0.3-2.6-0.5-4.1-0.7c0.5-1.6,0.7-3.1,1.4-4.2c0.4-0.7,1.6-1,2.5-1.4c0.5,0.9,1.3,1.8,1.3,2.7
			C416.6,234.8,416,236,415.6,237.4z"/>
		<path d="M341.8,248.1c-5.4-2.6-5.7-5-1.6-8.8C340.7,242.2,341.2,244.6,341.8,248.1z"/>
		<path d="M142.9,297.6c1.5,3.3,1,5.6-1,7.8C139.2,302,139.2,301.6,142.9,297.6z"/>
		<path d="M219.7,273.1c-0.2,1.6-0.2,3.4-0.8,4.9c-0.3,0.7-2,0.7-3.1,1c-0.2-0.9-1-2.1-0.6-2.8c0.7-1.4,1.9-2.5,2.9-3.7
			C218.7,272.7,219.2,272.9,219.7,273.1z"/>
		<path d="M219.7,289.1c0.1,2,0.3,4,0.2,5.9c0,0.4-0.9,1.1-1.5,1.2c-0.5,0-1.5-0.6-1.6-1c-0.4-2.2-1-4.6,1.2-6.2
			C218.6,289,219.2,289.1,219.7,289.1z"/>
		<path d="M217.2,234.7c2.1,2.1,4.3,3.7,1.9,6.2c-0.6,0.6-2.7,0.8-3.2,0.3C213.6,238.9,215.6,237.1,217.2,234.7z"/>
		<path d="M245.5,312.1c-1.1-0.6-2.6-0.9-3-1.8c-0.7-1.6,0.9-3.5,3.7-4.5c0.1,1.8,0.3,3.5,0.4,5.2
			C246.2,311.4,245.8,311.7,245.5,312.1z"/>
		<path d="M463.9,159.2c-0.9-3.4,0-5.4,2.8-6.5C468.6,156,468.2,156.9,463.9,159.2z"/>
		<path d="M441.8,290.9c-1.8-4.9-1.7-5.2,2.9-7.4C445.2,286.4,444.5,288.7,441.8,290.9z"/>
		<path d="M453.3,290.1c-0.4-0.7-1.1-1.5-1.2-2.3c-0.2-1.9,1.8-4.5,3.3-4.2c0.7,0.1,1.6,1.5,1.5,2.1
			C456.7,287.6,456.6,289.9,453.3,290.1z"/>
		<path d="M358.2,297.5c0.2,1.7,0.8,3.1,0.4,4.1c-0.3,1-1.5,1.6-2.3,2.4c-0.7-0.9-1.8-1.8-2.1-2.8
			C353.8,299.8,354.6,299.2,358.2,297.5z"/>
		<path d="M151.1,308.1c1.1-1.5,2.2-3,3.5-4.8c1.9,2,2.8,3.9,1.4,5.6c-0.7,0.9-2.7,0.6-4.1,0.9C151.7,309.2,151.4,308.7,151.1,308.1
			z"/>
		<path d="M329.1,261.7c0.2,1.6,0.7,3.2,0.6,4.7c-0.1,0.6-1.6,1.6-2.3,1.5c-0.7-0.1-1.8-1.5-1.7-2.2c0.2-1.4,1-2.8,1.6-4.2
			C327.9,261.7,328.5,261.7,329.1,261.7z"/>
		<path d="M414.6,158.7c0.9,1.8,1.6,2.7,1.7,3.7c0.1,0.9-0.1,2.1-0.7,2.8c-0.3,0.4-2,0.5-2.4,0.1c-0.8-0.8-1.6-2.1-1.4-3.1
			C412.1,161.1,413.3,160.3,414.6,158.7z"/>
		<path d="M236.3,294.9c-2.1,2-3.3,3.2-4.7,4.6c-2.1-2.4-1.8-4.4,0-5.8C232.2,293.2,234,294.2,236.3,294.9z"/>
		<path d="M217.9,219c2.3,3.2,2.3,3.2-0.8,6.1C214.1,222.2,214.1,222.2,217.9,219z"/>
		<path d="M157.1,226.3c-1.5,1.3-2.5,2.1-3.4,2.9c-0.7-1.1-1.8-2.2-1.8-3.3c-0.1-0.8,1.2-1.8,1.9-2.7
			C154.7,224.1,155.6,225,157.1,226.3z"/>
		<path d="M139.3,208.8c-1.1-2.1-2.1-3.1-2-3.9c0.2-1.2,1.2-2.3,1.9-3.4c0.8,1,2.2,1.9,2.4,3C141.7,205.5,140.5,206.6,139.3,208.8z"
			/>
		<path d="M204.4,192.2c0.6-2.7,1-5,1.6-7.6C209.6,188.1,209.2,190.6,204.4,192.2z"/>
		<path d="M147.5,167.7c0.2-1.3,0.1-2.6,0.7-3.2c0.9-0.9,2.3-1.3,3.6-1.6c0.2-0.1,1.4,1.6,1.1,2.1c-0.5,1.2-1.4,2.3-2.5,3.1
			C149.9,168.4,148.7,167.9,147.5,167.7z"/>
		<path d="M214.8,134.7c1,0.5,1.5,0.7,1.9,1c1.8,1.7,0.5,3.3-0.2,4.9c-0.2,0.4-1.8,0.4-1.8,0.4c-0.4-1.3-0.7-2.6-0.8-4
			C213.7,136.4,214.2,135.8,214.8,134.7z"/>
		<path d="M140.4,157.4c0.5,2.7,0.9,4.5,1.3,6.2c-1.7,1.7-2.8,1.2-3.7-0.3C136.8,161.3,137.1,160.4,140.4,157.4z"/>
		<path d="M209,304.8c1.6,2.4,1.9,4.3,0.1,6.2C204.6,308.5,204.6,307.9,209,304.8z"/>
		<path d="M216.7,168.4c0.6,1.7,1.1,2.5,1.1,3.4c0,1-0.2,2.1-0.8,2.9c-0.2,0.3-2,0.1-2.3-0.3c-0.6-0.9-1-2.3-0.8-3.3
			C214.1,170.2,215.3,169.6,216.7,168.4z"/>
		<path d="M413.8,288.1c1.8,1.8,2.7,3.5,0.8,5.3c-0.4,0.4-2.3,0.2-2.6-0.4C410.6,291,411.3,289.4,413.8,288.1z"/>
		<path d="M370.9,287.4c0.4,1.3,0.9,2.2,0.7,2.9c-0.2,1.1-0.9,2.1-1.6,3c-0.1,0.2-1.7-0.2-1.8-0.5c-0.3-1.1-0.5-2.4-0.1-3.4
			C368.4,288.6,369.6,288.2,370.9,287.4z"/>
		<path d="M354.6,288.4c-0.2,2.1,0,3.2-0.4,4.1c-0.3,0.9-1.1,1.7-1.9,2.2c-0.3,0.2-1.6-0.4-1.7-0.8c-0.3-0.9-0.5-2.4,0-3
			C351.3,289.9,352.7,289.5,354.6,288.4z"/>
		<path d="M207.5,271.7c3.4,3.7,3.3,4.3,0,6.7C205.2,276.3,205.9,274.3,207.5,271.7z"/>
		<path d="M150.7,263.6c0.6-1.8,0.7-2.8,1.2-3.4c0.6-0.8,1.4-1.4,2.3-1.8c0.3-0.1,1.5,0.7,1.5,1.2c0.1,1,0,2.5-0.6,3
			C154.2,263.2,152.7,263.2,150.7,263.6z"/>
		<path d="M279.6,227.1c-1.7-2.6-1.8-4.9-0.5-7.3C283.5,223.7,283.6,223.7,279.6,227.1z"/>
		<path d="M210.9,222.7c-1.5,1.4-2.5,2.5-3.8,3.3c-0.2,0.1-2.1-1.6-2-1.8c0.8-1.3,1.8-2.5,2.9-3.5
			C208.3,220.6,209.6,221.8,210.9,222.7z"/>
		<path d="M401.4,300.7c1.5,2.3,1.8,4.3-0.5,5.8c-0.4,0.3-1.7,0-1.9-0.4C397.6,303.6,399,302.1,401.4,300.7z"/>
		<path d="M339.9,225.6c0.6,2.2,1.2,3.5,1.2,4.8c0,1.8-1.4,2.7-3,1.9c-0.7-0.4-1.3-2.1-1.1-3C337.3,228.2,338.5,227.4,339.9,225.6z"
			/>
		<path d="M475.4,158.8c2.7,4.7,2.1,6.2-2.7,7.3C473.6,163.6,474.4,161.5,475.4,158.8z"/>
		<path d="M293.7,243.7c0.6-1.8,1.1-3.4,1.7-5.4c2.5,0.9,2.9,2.6,2.4,4.3C297.3,244.6,295.8,244.3,293.7,243.7z"/>
		<path d="M413.6,269.9c-2-2-3.3-3.6-1.1-5.7c0.4-0.4,1.9-0.3,2.3,0.1C416.4,266.1,415.8,267.9,413.6,269.9z"/>
		<path d="M144.4,282.7c0.5,3,2,5.1-0.8,6.2c-0.6,0.2-2.1-0.3-2.3-0.8C140.4,285.7,142.3,284.7,144.4,282.7z"/>
		<path d="M400.2,288.1c0.8,2.4,0.5,4.5-1.6,6.2C395.8,291,396.2,289.8,400.2,288.1z"/>
		<path d="M208.6,236.3c0.3,1.9,0.7,2.6,0.5,3.2c-0.3,1.3-0.7,2.6-1.3,3.8c-0.1,0.2-1.4,0-1.4-0.1c-0.2-1.5-0.5-3-0.3-4.5
			C206.3,238.1,207.3,237.6,208.6,236.3z"/>
		<path d="M427,293.6c-0.5-0.4-0.7-0.5-0.8-0.6c-0.6-2.1-0.6-4,1.7-5c0.4-0.2,1.6,0.4,1.7,0.8C430.2,291,429.4,292.6,427,293.6z"/>
		<path d="M373.9,300.5c-1.5,1.2-2.4,2.3-3.5,2.6c-0.4,0.1-2-1.7-1.9-2.3c0.3-1.1,1.5-2,2.3-3C371.6,298.5,372.4,299.3,373.9,300.5z
			"/>
		<path d="M341.4,211c-0.5,1.9-0.6,3.6-1.3,5.1c-0.2,0.3-2.1-0.2-3.6-0.3C337.3,213.1,337.8,211,341.4,211z"/>
		<path d="M217.4,203.4c1.9,1.7,2.5,3.5,0.6,5.2c-0.5,0.4-2.7-0.1-3.1-0.7C213.6,205.4,215.8,204.5,217.4,203.4z"/>
		<path d="M463.7,304c-3.6-2.9-3.6-3.1-0.7-6.1C464.7,299.6,464.9,301.4,463.7,304z"/>
		<path d="M342.5,301.2c1.2,2.9,1.4,5.1-2.1,6.8C339.8,305.2,338.7,302.6,342.5,301.2z"/>
		<path d="M155.4,179.6c-2.2,1-3.4,2-4.1,1.7c-0.8-0.3-1.6-1.7-1.7-2.7c-0.1-0.6,1.4-2,1.8-1.9C152.5,177.1,153.4,178.1,155.4,179.6
			z"/>
		<path d="M205.3,201.6c3.7,3.1,3.6,3.3-0.8,7.4C204.9,206.1,205.1,204.1,205.3,201.6z"/>
		<path d="M288.4,229.1c2.9,2.2,3.5,3.8,1.9,5.4c-0.5,0.5-1.8,0-2.8,0C287.8,233,288,231.4,288.4,229.1z"/>
		<path d="M413.7,247.3c2,1.5,2.7,3,1,4.6c-0.4,0.4-2.2,0.3-2.7-0.2C410.5,249.8,411.7,248.5,413.7,247.3z"/>
		<path d="M207.2,256.2c2.5,1,3.3,2.5,2.4,4.5c-0.2,0.5-2.3,0.8-2.8,0.4C205.2,259.6,205.5,257.9,207.2,256.2z"/>
		<path d="M340,258.5c2.6,3.2,2.5,3.4-1.9,4.6C337.4,260.9,337.9,259.4,340,258.5z"/>
		<path d="M220,310.4c1.4-2.5,2.2-4,3.3-6.1C225.1,309.2,225,309.5,220,310.4z"/>
		<path d="M165.9,296.4c0.2-1.8,0.4-3.4,0.5-4.9c2.6-0.2,3.1,1.2,3.1,2.7C169.4,296,168.2,296.5,165.9,296.4z"/>
		<path d="M182.4,296c-1.2-2.3-1.1-3.9,0.9-4.9c0.5-0.2,1.7,0.2,1.9,0.6C186,293.8,184.8,294.9,182.4,296z"/>
		<path d="M279,232.1c2.2,3.9,2.2,3.9,0.1,6.1C276.8,236.5,278.5,234.8,279,232.1z"/>
		<path d="M465.6,162.7c2.6,2.7,2.6,4.4,1.1,5.8c-0.3,0.3-1.9-0.2-1.9-0.3C464.9,166.7,465.2,165.2,465.6,162.7z"/>
		<path d="M285.8,244.4c1.8,0.9,3.1,2,1.5,4c-0.3,0.4-1.5,0.6-1.8,0.4C283.9,247.4,283.8,245.8,285.8,244.4z"/>
		<path d="M181.1,303.2c1.1,2.2,1.1,3.9-3.2,4.7c0.7-2.2,1.2-3.7,1.7-5.2C180,302.9,180.5,303,181.1,303.2z"/>
		<path fill="#A6FF1A" d="M354.9,281.9c-0.4-11.7-0.8-22.6-1.1-33.5c-0.1-5.1,0.2-10.2,0.2-15.3c0.1-12.2,0.2-24.3,0-36.5
			c-0.1-3.4-1.1-6.8-2-10.1c-0.6-2.1-2.4-2.6-4.3-1.4c-0.8,0.5-1.6,1-2.2,1.7c-5.3,5.8-11,11-15.5,17.5
			c-4.5,6.6-10.1,12.5-15.2,18.6c-2.6,3.1-5.3,6-8.3,9.5c-12-12.4-23.9-24.6-35.8-36.9c-4.8,0.6-4.9,0.6-4.9,4.7
			c0.1,10.9,0.7,21.9,0.5,32.8c-0.1,13-0.7,26-1.3,38.9c-0.1,2.1-0.8,4.2-1.3,6.5c-11.3,1-22.2,3.9-33.6,2.7c0-6.2,0.1-12.1,0-18.1
			c-0.1-12-0.5-24.1-0.4-36.1c0.1-8.9,0.9-17.8,1-26.7c0.1-13-0.2-26-0.5-39c-0.1-4-0.3-8-0.5-12.1c-0.4-9.7-0.8-19.4-1.1-29.1
			c-0.1-1.9,0.3-3.8,0.5-5.9c1.8-0.1,3-0.1,4.3-0.2c8.2-0.6,16.4-1,24.5-1.8c4.9-0.5,8.3,0.4,11.5,5.1c8,11.8,16.8,23,25.3,34.5
			c2.8,3.8,5.5,7.8,8.4,11.6c1.3,1.7,2.8,3.3,4.6,4.5c3.2,2.2,4.4,1.7,6.6-1.5c1.3-1.9,3-3.5,4.4-5.3c5.6-7.2,11.1-14.4,16.6-21.5
			c6.8-8.8,13.5-17.6,20.4-26.4c1.8-2.3,4.6-2.3,7-2c8.3,0.8,16.3,0,24.5-1.2c2.8-0.4,5.7-0.1,8.6-0.1c0,9.4-0.1,18.7,0,28
			c0,5.2,0.4,10.5,0.5,15.7c0.1,4.2,0.1,8.3,0.1,12.5c0,9.7,0,19.4,0,29.1c0,2,0.5,4,0.5,6c0,14.5,0.2,28.9,0,43.4
			c-0.2,10.2-0.9,20.4-1.4,30.9c-5.4,2.6-11.5,2.3-17.4,2.6c-4.7,0.2-9.3,0.2-13.7,2.6C361.8,281.9,358.4,281.5,354.9,281.9z"/>
		<path fill="#A6FF1A" d="M456.5,179.8c5.5-0.7,10.4-1.2,15.1-2c2.8-0.4,4.2,0.2,4.6,3.2c0.8,6,1.5,11.9,2,17.9c0.3,3-1,5.4-4,6.4
			c-4.5,1.5-9,3.3-13.6,4.2c-2.9,0.5-3.9,2.5-5,4.4c-0.4,0.7-0.2,2.7,0.3,2.9c3.2,1.6,2.6,4.7,2.7,7.2c0.1,5.6-0.2,11.2-0.3,17.5
			c0.2,0.1,1.1,0.9,2,0.9c5.1-0.1,10.2-0.4,15.3-0.6c4.7-0.2,9.4-0.6,14.4-0.9c0.9,2.1-1.1,5.3,2.2,6.8c0.6,0.3,0.4,2.4,0.4,3.7
			c-0.2,5.6-0.5,11.2-0.8,17.5c-1.1,0.3-2.8,0.9-4.5,1.1c-6.5,0.8-13,1.6-19.6,2.1c-5.6,0.4-11.3,0.1-17,0.6
			c-4.9,0.4-9.7,1.4-14.5,2.1c-3.2,0.4-6.4,0.7-10.2,1.1c-0.2-5.5-0.5-10.4-0.5-15.2c0-13.1,0-26.2,0.1-39.2c0-3.2,0.7-6.4,1-9.6
			c0.9-9.6-0.6-19.1-0.6-28.6c0-10-0.9-19.9-2-29.9c-0.4-3.2,0.4-6.5,0.5-9.8c0.4-11.4,0.6-22.8,1-34.3c5-0.6,9.5-1.1,13.9-1.6
			c6.8-0.7,13.7-1.4,20.5-2.2c3.7-0.4,7.4,0.5,11.2,0.3c7.6-0.5,14.9-2.9,22.9-3.4c2,5.9,4.5,11.6,3.6,18.2
			c-0.4,2.6,0.4,5.4,0.8,8.1c0.4,2.7-0.5,4.7-3,5.8c-4.5,2-8.7,4.3-13.8,5c-5.9,0.7-11.8,2.4-17.6,3.6c-1.6,0.3-3.2,0.5-4.8,0.6
			c-3.3,0.3-4.9,2.7-4.2,5.9c0.4,1.9,0.5,4,0.6,5.9C455.9,163.3,456.2,170.9,456.5,179.8z"/>
		<g>
			<path d="M144.9,254.1c-5.3-1.5-5.7-5.5-6.6-8.2c-4.4-0.3-8.1-0.8-11.9-0.8c-15.5,0.2-31.1-0.2-46.5-2.3c-3.1-0.4-3.8-0.9-3.6-4.2
				c0.1-2.4,0.7-4.7,0.6-7.1c-0.7-14.9-1.5-29.8-2.2-44.7c-0.3-6.9-0.7-13.8-0.8-20.6c-0.2-11.2-0.4-22.4-0.5-33.6
				c0-4.7,0.1-9.4,0.2-14c0-1.8-0.5-3.4-2.6-3.6c-5.3-0.5-10.6-1.3-15.8-1.1c-6.9,0.3-13.7,1.5-20.7,0.1c-2-0.4-4.4,0.4-6.2,0.7
				c0.8,3.6,1.8,5.8,1.9,8.1c0.4,9.3,0.7,18.6,0.8,27.9c0.1,20.1,0.1,40.2,0.1,60.4c0,4.5-0.2,9-0.3,13.5c-0.1,2.3-0.2,4.7-0.2,7
				c-0.1,6.8-0.2,13.7-0.4,20.5c-0.4,8.9-1,17.9-1.3,26.8c-0.1,5,1.8,7,6.5,7.3c10.6,0.5,21.2,0.9,31.7,1.2c6.9,0.2,13.8,0,20.7,0
				c12.4,0.1,24.8,0.2,37.3,0.2c2.5,0,5.1-0.1,7.6-0.3c5.4-0.4,6.7-1.7,7.2-6.9c0.1-1.4,0.3-2.8,0.3-3.2c-0.5,0.4,2.5-7.8,1.9-7.2
				c-0.4-3-0.6-5.6-1-8.1C140.8,259.1,140.5,256.1,144.9,254.1z M122,282.8c-4.1,0.4-8-0.1-11.7-1.2c-3.6-1-7-1.5-10.7-1.3
				c-5.1,0.2-10.1-0.3-15.2-0.2c-3.4,0.1-6.8,0.7-10.3,0.9c-3.2,0.1-6.5-0.1-9.7-0.1c-9,0-18.1,0.1-27.1,0.2c-0.5,0-1-0.2-2.3-0.4
				c0-13.3,0.1-26.5,0-39.8c-0.1-13.4-0.7-26.7-0.5-40.1c0.2-13.4,1.1-26.7,1.4-40.1c0.3-13.4,0.1-26.9,0.1-40.6
				c6.8,1.6,12.5,0.8,18.3,0c3.2-0.4,6.4-0.8,9.7-0.9c2.9,0,4.1,1.9,4.2,4.7c0.4,10.4,0.8,20.8,1.2,31.2c0.4,11.1,0.8,22.3,1.1,33.4
				c0.2,9.3,0.1,18.6,0.4,27.9c0.3,6.2,1.3,12.3,1.7,18.5c0.2,3.4,0,6.9,0,10.9c1.8,0.4,3.6,1.1,5.5,1.3c10.5,0.8,21.1,1.5,31.6,2.2
				c6.7,0.4,13.5,0.8,20.2,1.3c1.8,0.1,3.5,0.7,5.7,1.1c0.3,10.4,0.6,20.6,1,31.5C131.3,279.9,126.6,282.4,122,282.8z"/>
			<path d="M73.7,307.6c1.7-1.4,3.8-4.3,5.4-4.1c3.6,0.6,1.9,4.4,2.3,6.9c0.2,1.1-0.6,3.1-1.5,3.6c-1.6,0.8-3-0.4-3.8-2.1
				C75.6,310.7,74.8,309.5,73.7,307.6z"/>
			<path d="M9,206.3c0,2.6-1.2,4.2-3.1,4.2c-2.4,0-3.9-1.7-3.7-4.2c0.1-2.6,1.7-4.4,3.8-4.3C7.8,202.1,9,203.9,9,206.3z"/>
			<path d="M6.5,293.5c-0.1,1.8-0.3,3.8-3,4c-2.4,0.2-4.2-1.8-4.1-4.6c0-1.9,2.1-4.1,3.7-4C4.8,289,6.4,291.1,6.5,293.5z"/>
			<path d="M61.3,311.3c1.4-3,2.1-4.8,3.1-6.5c0.4-0.6,1.5-1.2,2.1-1.1c0.7,0.1,1.5,1,1.7,1.8c0.3,1,0.2,2.2,0,3.2
				c-0.3,1.3-0.7,3.5-1.5,3.6C65.2,312.6,63.6,311.8,61.3,311.3z"/>
			<path d="M90.9,309.8c0.2-3.4,2.7-4.2,4.7-5.6c3.3,3.8,3.3,4.7,0.3,9.1C94.2,312.1,92.5,310.9,90.9,309.8z"/>
			<path d="M9.8,144.8c0.3,1.8,1,3.6,0.9,5.3c0,1-1.1,2.5-2,2.8c-0.9,0.3-2.6-0.4-3.1-1.2c-0.7-1-1.1-2.8-0.6-3.9
				c0.6-1.3,2.1-2.2,3.2-3.3C8.7,144.6,9.2,144.7,9.8,144.8z"/>
			<path d="M21.5,201.5c3.4,2.1,1.6,5,1.5,7.7c-2.3,0.8-4.3,1.6-5.3-1C16.7,205.8,18.3,203.3,21.5,201.5z"/>
			<path d="M3.3,220c2.6-0.3,3.6,0.9,3.5,2.7c0,1.7-0.3,3.5-0.9,5.1c-0.2,0.4-2.2,0.7-2.8,0.3c-0.9-0.6-1.9-2-1.8-2.9
				C1.6,223.5,2.6,221.9,3.3,220z"/>
			<path d="M6.7,308.7c0.1,2.8-2,4.8-3.8,4.7c-1.9-0.2-2.9-1.2-2.9-3.2c0-2.2,1.8-4.6,3.4-4.2C4.8,306.4,5.9,308,6.7,308.7z"/>
			<path d="M2.1,255.6c4.9,2.8,5.7,4.9,3.6,7.7c-0.5,0.7-1.8,1.5-2.6,1.3c-0.8-0.1-1.9-1.4-1.9-2.1C1.2,260.4,1.7,258.3,2.1,255.6z"
				/>
			<path d="M32.8,305.5c0.4,0.9,1.3,2.2,1.4,3.6c0.2,2.1-2.1,4.1-4.2,3.9c-1.7-0.1-2.6-1.1-2.4-2.9
				C27.8,307.6,29.8,305.3,32.8,305.5z"/>
			<path d="M21.1,161.5c2.9,2.5,2.4,4.9,1.8,7.4c-3.4,1.3-4.8-0.9-6.6-3.5C18.1,163.9,19.6,162.7,21.1,161.5z"/>
			<path d="M8.6,185.4c-1.3,1.4-2.3,2.4-3.2,3.5c-0.8-1-2.1-2-2.4-3.1c-0.3-1.6,0.1-3.3,0.4-4.9c0-0.2,2-0.5,2.3-0.1
				C6.7,182,7.5,183.6,8.6,185.4z"/>
			<path d="M23.3,226.2c-1.5,1.5-2.5,3.2-3.5,3.3c-2.1,0.2-3-1.7-3-3.7c0-2.3,1.6-4.4,2.9-3.7C21,222.8,21.9,224.4,23.3,226.2z"/>
			<path d="M19.7,180.9c3.4,2.5,2.9,5.1,2,7.3c-0.3,0.7-2.2,1.4-3,1.2c-0.8-0.3-1.9-1.9-1.7-2.7C17.4,184.8,18.5,183.2,19.7,180.9z"
				/>
			<path d="M22,262.1c-3.2,1.1-3.2,1.1-6.4-5.1c1.5-0.4,3.2-1.3,4.2-0.9C22.5,257.2,21.9,259.9,22,262.1z"/>
			<path d="M2.1,165.7c1.4-1,2.3-1.6,3-2.3c1.3-1.2,2.8-1.5,3.7-0.1c0.6,0.9,0.5,2.9-0.1,3.9c-0.6,0.9-2.5,1.7-3.6,1.5
				C4.1,168.4,3.3,166.9,2.1,165.7z"/>
			<path d="M7.5,139.1c-2.9-2.7-2.1-5.4-1.6-8.3C10.5,132.1,11.1,135.3,7.5,139.1z"/>
			<path d="M19.7,297.5c-2.9,0.8-4.6,0.3-5.2-2.1c-0.4-1.6-0.6-3.5,1.4-4.1c2.1-0.7,2.8,0.9,3.2,2.7C19.3,295,19.4,296,19.7,297.5z"
				/>
			<path d="M111.9,301c-3-4.9-2.6-6,2.2-7.6C115.1,296.3,115.5,299,111.9,301z"/>
			<path d="M48.8,293.5c1.9,2.3,4.4,3.9,1.7,6.4c-0.6,0.5-2.3,0.7-2.8,0.2C45.1,297.7,47.3,296,48.8,293.5z"/>
			<path d="M98.1,291.8c0.4,2.2,1,3.9,0.9,5.6c0,0.8-1,2.1-1.8,2.2c-0.7,0.1-2.2-0.8-2.4-1.5C94.2,295.8,94,293.4,98.1,291.8z"/>
			<path d="M6.3,271.4c2.6,1.3,3,3.1,1.8,5c-0.5,0.8-2,1-3,1.4c-0.4-1-1.3-2.2-1.1-3.1C4.3,273.5,5.5,272.5,6.3,271.4z"/>
			<path d="M21.9,137c-4.6-1.6-4.8-2.1-2.2-6C23.9,132.8,23.9,132.8,21.9,137z"/>
			<path d="M18,146.7c1.4,0.5,2.1,0.7,2.7,0.9c2.1,1,1.5,2.7,1,4.2c-0.2,0.6-1.2,0.9-1.9,1.4c-0.8-1.1-1.7-2.2-2.2-3.4
				C17.4,149.3,17.8,148.3,18,146.7z"/>
			<path d="M17.7,271.9c0.5,0.2,0.8,0.3,1.1,0.5c2.2,2,1.2,3.9-0.3,5.7c-0.3,0.4-1.9,0.4-2.3,0c-1.7-1.8-1.1-3.6,0.3-5.2
				C16.9,272.4,17.4,272.1,17.7,271.9z"/>
			<path d="M61.6,292c3,1,5.3,1.6,4.3,4.3c-1,2.7-3.2,1.4-5.9,1.3C60.6,295.5,61.1,293.9,61.6,292z"/>
			<path d="M29.1,299c1.3-1.9,1.9-3.5,3.2-4.4c0.6-0.4,2.3,0.6,4.2,1.3C34.4,298.2,33.4,300.5,29.1,299z"/>
			<path d="M3.7,243.6c0-1.9-1.5-4.4,1.7-5.2c1.8-0.5,2.7,1.1,2.6,2.7C7.9,243.5,6.5,244.5,3.7,243.6z"/>
			<path d="M46.9,306.5c2.2,0.6,4.2,1,3,3.5c-0.4,0.9-2.3,2-2.9,1.7C44.6,310.4,45.5,308.5,46.9,306.5z"/>
			<path d="M21.9,242.6c-1.2,1.1-2.2,2.1-2.4,2c-1.2-0.8-2.3-1.8-3.4-2.7c0.7-0.7,1.7-2.1,2-2C19.4,240.4,20.4,241.4,21.9,242.6z"/>
			<path d="M80,292.9c0.3,1.3,0.7,1.9,0.6,2.6c-0.1,1.1-0.6,2.2-0.9,3.3c-0.9-0.4-2-0.5-2.6-1.1c-1.2-1.2-1-2.6,0.3-3.7
				C77.9,293.5,78.7,293.4,80,292.9z"/>
			<path d="M13,311c1.6-2.3,3.2-3.3,5.4-1.4c0.4,0.3,0.1,2.2-0.5,2.7C15.8,314,14.3,313,13,311z"/>
			<path d="M112,307.5c-0.1,1-0.1,1.9-0.3,2.9c0,0.1-0.9,0.2-0.9,0.2c-0.3-1-0.5-1.9-0.7-2.9C110.8,307.6,111.4,307.5,112,307.5z"/>
			<path fill="#A6FF1A" d="M136.5,283.1c-5.2-3.3-10-0.8-14.6-0.3c-4.1,0.4-8-0.1-11.7-1.2c-3.6-1-7-1.5-10.7-1.3
				c-5.1,0.2-10.1-0.3-15.2-0.2c-3.4,0.1-6.8,0.7-10.3,0.9c-3.2,0.1-6.5-0.1-9.7-0.1c-9,0-18.1,0.1-27.1,0.2c-0.5,0-1-0.2-2.3-0.4
				c0-13.3,0.1-26.5,0-39.8c-0.1-13.4-0.7-26.7-0.5-40.1c0.2-13.4,1.1-26.7,1.4-40.1c0.3-13.4,0.1-26.9,0.1-40.6
				c6.8,1.6,12.5,0.8,18.3,0c3.2-0.4,6.4-0.8,9.7-0.9c2.9,0,4.1,1.9,4.2,4.7c0.4,10.4,0.8,20.8,1.2,31.2c0.4,11.1,0.8,22.3,1.1,33.4
				c0.2,9.3,0.1,18.6,0.4,27.9c0.3,6.2,1.3,12.3,1.7,18.5c0.2,3.4,0,6.9,0,10.9c1.8,0.4,3.6,1.1,5.5,1.3c10.5,0.8,21.1,1.5,31.6,2.2
				c6.7,0.4,13.5,0.8,20.2,1.3c1.8,0.1,3.5,0.7,5.7,1.1C135.9,262.1,136.2,272.2,136.5,283.1z"/>
		</g>
		<path fill="#A6FF1A" d="M195.6,279.7c-2.2,0.7-3.9,0.8-6.2,0.2c-3.5-0.9-7.5,0.3-11.3,0.6c-3.4,0.3-6.8,0.5-10.6,0.8
			c-0.3-6-0.7-11.2-0.8-16.5c-0.3-11.2-0.4-22.4-0.7-33.6c-0.2-8.7-0.6-17.4-0.8-26.1c0-1.1-0.2-2.2,0-3.3
			c1.2-7.7-0.1-15.2-0.9-22.8c-0.3-3.1,0-6.2-0.1-9.3c-0.3-13-0.7-25.9-1-38.9c-0.1-4.5-0.1-9-0.2-13.5c-0.1-2.4,1.3-3.2,3.5-3.1
			c5.3,0.3,10.6,0.7,15.9,0.7c3.7,0,7.5-0.4,11.7-0.6c0.3,4.6,0.8,9.9,0.9,15.1c0.1,10.9-0.1,21.9,0.1,32.8
			c0.2,14.8,0.7,29.5,1,44.3c0.1,3.1-0.4,6.2-0.6,9.3c-0.2,2.9-0.7,5.8-0.7,8.7c0,11.2,0.2,22.3,0.2,33.5c0,4.1-0.4,8.3-0.3,12.4
			C194.7,273.4,195.2,276.3,195.6,279.7z"/>
	</g>
</g>
</svg>
