<?xml version="1.0" encoding="utf-8"?>
<!-- Generator: Adobe Illustrator 26.1.0, SVG Export Plug-In . SVG Version: 6.00 Build 0)  -->
<svg version="1.1" id="Layer_1" xmlns="http://www.w3.org/2000/svg" xmlns:xlink="http://www.w3.org/1999/xlink" x="0px" y="0px"
	 viewBox="0 0 1216.7 880.2" enable-background="new 0 0 1216.7 880.2" xml:space="preserve">
<pattern  x="-390.3" y="1581.1" width="785" height="785" patternUnits="userSpaceOnUse" id="chips_2" viewBox="0 -785 785 785" overflow="visible">
	<g>
		<rect y="-785" fill="none" width="785" height="785"/>
		<path fill="none" d="M785-99.7V0H631.9c-1-3.1-2.7-6.3-5.1-9.3c-0.9-1.2-2-2.3-3-3.4c-10-12.1-22.5-21.5-34.3-31.7
			c-11.3-9.7-23.1-18.8-36.6-25.1c-17.6-8.3-24.3-5.9-31.3,12c-0.2,0.5-0.4,0.9-0.5,1.4c-5.8,18.3-7.3,37.1-8,56.1H321.7
			c0-0.2-0.1-0.3-0.1-0.5c-1.7-7.6-3.8-15.2-7.2-22.2C309.1-33.6,300.6-39.3,288-33c-3.3,1.7-7.2,2.3-10.6,4
			c-13.2,6.7-26.4,13.3-39.2,20.7c-3.5,2-7,5-9.5,8.3h-43.5c-0.5-9.9-1.6-19.8-2.5-29.7c-0.8-9.3-1.2-18.5-4.3-27.5
			c-1.9-5.6-5.2-8.5-10.5-9.4c-2.9-0.5-6-0.8-9-0.5c-16.8,1.6-33.5,3.4-49.7,8.7C99-55,88.6-52.2,78.5-48.3
			c-10.5,4-19.3,10.7-25.8,20.2c-4.1,6-3.6,11.7-0.8,17.2C53.8-7.5,56.6-3.7,60,0H0v-99.7c4.9-0.8,9.7-3.1,13.7-6.7
			c1.8-1.7,3.8-3.3,5.6-5c4.4-4.1,9-8,13.1-12.3c7.1-7.5,13.6-15.5,20.9-22.9c8-8.1,14.8-17.1,20.7-26.8c3.2-5.2,3.2-10.3-0.3-14.8
			c-4.2-5.3-8.6-10.7-14-14.5c-9-6.4-18.7-11.9-28.5-17c-10.3-5.4-20.7-10.7-31.1-15.9v-52.9c2.7,0.5,5.4,1,8.1,1.6
			c8.1,1.9,16.1,4.1,24,6.4c7.8,2.2,13.1-4,13.5-10.3c0.2-4,0-8.1,0-12.1c0.4,0,0.8-0.1,1.2-0.1c-1.2-8.7-1.9-17.5-3.8-26
			c-1.7-7.6-3.8-15.2-7.2-22.2c-5.3-10.9-13.8-16.7-26.4-10.4c-3,1.5-6.4,2.2-9.5,3.5v-60.6c5.5-0.8,11-1.9,16.5-3.4
			c0-1.6,0.1-3.1,0-4.5c-0.7-8.3-3.8-15.7-8.6-22.3c-2.8-3.8-5.4-7.8-7.9-11.8V-583c0.9-0.1,1.8-0.2,2.6-0.4
			c11.3-1.9,22.7-3.1,33.6-7.8c9.4-4,19-7.7,29.3-9.6c9.9-1.8,19-6.9,24.1-15.6c7.7-13.2,7.7-27.3,0.7-41.2
			c-6.7-13.3-17.8-23.2-28.1-33.3c-13.1-12.8-27.6-24.2-41.9-35.6c-6.3-5-13.2-9.2-20.2-13V-785h60c3.7,4.1,8.1,8.1,12.7,11.5
			c16,11.8,31.8,23.8,48.4,34.8c10.6,7.1,22,13.3,33.7,18.5c12.9,5.7,22.4,0.2,25.2-13.5c1.9-9.4,3.4-18.8,4.5-28.3
			c0.8-7,1.3-14.1,1-21.1c0-0.7-0.1-1.3-0.1-2h43.5c-0.8,1.1-1.5,2.1-2.1,3.3c-6.3,12-6.7,24,9.8,28.4c10.2,2.7,20.6,4.5,30.9,6.5
			c6.4,1.3,12.9,2.1,19.3,3.5c8.1,1.9,16.1,4.1,24,6.4c7.8,2.2,13.1-4,13.5-10.3c0.2-4,0-8.1,0-12.1c0.4,0,0.8-0.1,1.2-0.1
			c-1.2-8.5-1.9-17.2-3.7-25.6H513c0,0.2,0,0.3,0,0.5c-0.3,10,0,20.1-0.9,30.1c-0.8,8.7,0,17.1,2.5,25.3c1.2,4,3.7,7.7,6,11.1
			c3,4.4,6.8,6.5,12.2,3.3c2.3-1.4,4.9-2.4,7.5-3.3c7.2-2.8,14.5-5.4,21.7-8.2c4-1.5,8.1-2.7,11.9-4.7c9.1-4.8,18-10.1,26.9-15.1
			c0.2,0.3,0.4,0.6,0.5,0.9c6.4-3.9,13.1-7.5,19.3-11.7c10.8-7.2,14.7-17.7,11.2-28.2H785v45.5c-1.1-0.6-2.2-1.2-3.3-1.8
			c-5-2.6-10.9-4.1-16.5-4.7c-7.9-0.9-13.7,3.6-15.1,11.4c-1.8,9.9-3.1,19.9-4.2,29.8c-1,8.7-1.5,17.5-2.2,26.2c0.5,0,1.1,0,1.6,0.1
			c0,8.6-0.5,17.1,0.1,25.7c1.2,16,0.9,32.2,5.2,47.9c3.2,11.4,10.4,18.5,22.1,21.4c4.2,1,8.3,1,12.3,0.5v122.4
			c-4.8-7.7-9.3-15.5-13.8-23.5c-8.7-15.5-19.5-29.8-29.6-44.5c-3.2-4.7-8-5.9-13.4-4.3c-6,1.8-11.2,4.6-14.2,10.4
			c-7.3,14.3-19.1,25.1-28.4,38c-10,14-19.6,28-27.1,43.4c-2.5,5.1-2.2,10.3-1,15.5c0.8,3.3,2.7,5.9,6.5,6.5
			c2.5,0.4,4.9,1.5,7.3,1.6c6.2,0.4,12.7-0.4,18.7,0.7c19.9,3.7,39.7,0,59.5,0c11.7,0,23.4-0.2,35.3-1.9v60.6
			c-0.4,0.2-0.7,0.3-1,0.5c-13.2,6.7-26.4,13.3-39.2,20.7c-4.6,2.7-9.2,6.9-11.6,11.5c-6.3,12-6.7,24,9.8,28.4
			c10.2,2.7,20.6,4.5,30.9,6.5c3.7,0.7,7.4,1.3,11.1,2v52.9c-6.2-3.1-12.5-6.1-18.7-9.1c-7.8-3.8-15.2-9-24.6-9.5
			c-0.8,0.8-1.5,2.1-2.5,2.6c-8.2,4.2-8.3,11-6.4,18.7c0.9,3.6,1.3,7.4,1.8,11.1c2.6,17.4,4.7,34.9,8,52.2
			c2.6,13.6,6.5,26.9,10.3,40.2c1.5,5.5,3.7,11,6.4,16c2,3.7,4.8,7.3,8.2,9.7C772.6-99.9,778.9-98.7,785-99.7z M560-642.5
			c1.6,3.1,3.8,6.1,6.3,8.4c10.7,9.6,21.1,19.6,32.6,28c11.9,8.7,24.8,16.4,37.8,23.4c10.1,5.5,20.8,10.6,32.3,9.3
			c2,0.2,3.2,0.4,4.5,0.4c8.4,0,14.1-6.1,13.6-14.5c-0.1-1.2-0.4-2.5-0.6-3.7c-4.2-23.3-8.1-46.6-12.8-69.8
			c-2.1-10.1-5.3-20-9.1-29.5c-5.4-13.2-16.2-16.6-28.4-12.6c-7.1,2.3-13.5,6.5-20.1,10.1c-5.7,3.1-10.8,7.8-16.8,9.8
			c-11.3,3.8-22.1,8.2-32.1,14.7C557.3-661.9,554.5-652.8,560-642.5z M496.2-537.7c10.2,2.7,20.6,4.5,30.9,6.5
			c6.4,1.3,12.9,2.1,19.3,3.5c8.1,1.9,16.1,4.1,24,6.4c7.8,2.2,13.1-4,13.5-10.3c0.2-4,0-8.1,0-12.1c0.4,0,0.8-0.1,1.2-0.1
			c-1.2-8.7-1.9-17.5-3.8-26c-1.7-7.6-3.8-15.2-7.2-22.2c-5.3-10.9-13.8-16.7-26.4-10.4c-3.3,1.7-7.2,2.3-10.6,4
			c-13.2,6.7-26.4,13.3-39.2,20.7c-4.6,2.7-9.2,6.9-11.6,11.5C480.1-554.2,479.7-542.2,496.2-537.7z M346.8-655.1
			c5.3,2.8,10.9,5.2,16.7,6.8c19.2,5.3,38.4,10.4,57.7,15.1c8.3,2,16.9,2.9,26.1,4.4c5.8-1.3,12.2-2.4,18.4-4.3
			c6.5-2,8.7-5.3,7.4-11.8c-2.6-12.5-5.2-25.1-9.1-37.3c-5.1-15.5-11.4-30.7-17.4-45.9c-3.2-8.2-6.6-16.4-10.3-24.4
			c-3.5-7.5-8.3-8.9-16-6.5c-10,3.1-17.4,10.3-24.9,16.7c-12.2,10.5-23.4,22.2-34.5,33.8c-7.3,7.6-14.8,15.4-20.3,24.3
			C332-670.6,334.2-661.8,346.8-655.1z M304.2-522.3c4,4.4,8.5,8.6,13.4,12c16.3,11.4,32.7,22.7,49.3,33.6
			c7.1,4.7,14.9,8.4,23.1,12.9c5.9,0.7,12.3,1.8,18.8,2.1c6.8,0.3,10-2,10.9-8.7c1.7-12.7,3.6-25.4,3.9-38.2
			c0.4-16.3-0.5-32.7-1-49.1c-0.3-8.8-0.7-17.6-1.5-26.4c-0.8-8.3-4.8-11.2-12.9-11.5c-10.5-0.4-19.9,3.8-29.1,7.4
			c-15,5.8-29.5,13-43.8,20.3c-9.4,4.7-19.1,9.5-27.3,16C295.4-541.9,294.6-532.9,304.2-522.3z M334.8-370.7
			c-0.4-1.6-0.9-3.1-1.3-4.6c-4-16.2-11.7-30.9-18.4-46c-6.4-14.4-13.6-28.6-23.6-40.8c-13.1-16-20.6-16.8-35.5-2.8
			c-0.4,0.4-0.8,0.7-1.2,1.1c-14,15-24.1,32.5-33.4,50.6c-4.9,9.4-9.1,19.3-14.6,28.4c-4.8,8-7.8,16.4-9.1,25.4
			c-0.6,4.4,0,9,0.7,13.4c0.9,5.5,3.6,9.4,10.1,8.7c2.9-0.3,5.8,0,8.7,0.2c8.2,0.6,16.3,1.4,24.5,2.1c4.5,0.4,9,1.1,13.5,0.9
			c10.9-0.5,21.8-1.4,32.7-2.2c0,0.4,0.1,0.7,0.1,1.1c7.9-0.8,15.9-1.3,23.8-2.4C329.6-340.1,338.6-353.4,334.8-370.7z M172.5-638.5
			c2.2,10.8,5.5,21.5,9.1,31.9c6,17.6,12.5,35,19.1,52.4c3.1,8.1,4.9,17,11.4,23.8c1.2-0.1,2.5-0.5,3.6-0.2
			c8.8,2.5,13.6-2.4,17.5-9.3c1.8-3.3,4.1-6.3,6.3-9.4c10-14.5,20.5-28.6,30-43.4c7.4-11.6,13.7-24,20.1-36.3
			c2.7-5.1,4.9-10.5,6.3-16c1.1-4,1.5-8.6,0.7-12.6c-2.2-11.4-12.7-19.4-24.6-19.5c-2.5,0-5-0.2-7.5-0.2c-6-0.1-12-0.4-18,0
			c-10.3,0.6-20.6,1.9-30.9,2.3c-11.4,0.4-22.5,2.3-33.5,5.3c-5.9,1.6-9.4,5.3-9.9,11C171.7-652,171.2-645,172.5-638.5z M78.6-446.8
			c11.9,8.7,24.8,16.4,37.8,23.4c10.1,5.5,20.8,10.6,32.3,9.3c2,0.2,3.2,0.4,4.5,0.4c8.4,0,14.1-6.1,13.6-14.5
			c-0.1-1.2-0.4-2.5-0.6-3.7c-4.2-23.3-8.1-46.6-12.8-69.8c-2.1-10.1-5.3-20-9.1-29.5c-5.4-13.2-16.2-16.6-28.4-12.6
			c-7.1,2.3-13.5,6.5-20.1,10.1c-5.7,3.1-10.8,7.8-16.8,9.8c-11.3,3.8-22.1,8.2-32.1,14.7c-9.8,6.4-12.6,15.6-7.1,25.9
			c1.6,3.1,3.8,6.1,6.3,8.4C56.7-465.3,67.1-455.3,78.6-446.8z M175.9-217.1c4.1-5.7,7.9-11.7,11-18c4.7-9.5,8.7-19.3,13-28.9
			c3.7-8.5,7.8-16.8,9.4-26.2c1-5.8-0.5-9.9-4.7-13.3c-2.3-1.9-4.9-3.6-7.7-4.8c-15.5-6.7-31-13.2-47.7-16.3
			c-10.6-2-21.1-4.5-31.8-6c-11.2-1.5-22,0.1-32.3,5.3c-6.5,3.3-8.8,8.5-9,14.7c0.1,8.2,2.8,19.8,7.4,29.7
			c8.4,18,16.4,36.2,25.6,53.8c5.9,11.3,12.9,22.3,20.6,32.4c8.5,11.2,19.5,11,28.6,0.3C164.5-201.7,170.4-209.3,175.9-217.1z
			 M320.2-113.5c-0.7-8.3-3.8-15.7-8.6-22.3c-8.1-11.2-14.9-23.2-21.7-35.2c-8.7-15.5-19.5-29.8-29.6-44.5c-3.2-4.7-8-5.9-13.4-4.3
			c-6,1.8-11.2,4.6-14.2,10.4c-7.3,14.3-19.1,25.1-28.4,38c-10,14-19.6,28-27.1,43.4c-2.5,5.1-2.2,10.3-1,15.5
			c0.8,3.3,2.7,5.9,6.5,6.5c2.5,0.4,4.9,1.5,7.3,1.6c6.2,0.4,12.7-0.4,18.7,0.7c19.9,3.7,39.7,0,59.5,0c17,0,34.2-0.5,51.8-5.4
			C320.2-110.6,320.3-112.1,320.2-113.5z M328.4-239.9c10.7,9.6,21.1,19.6,32.6,28c11.9,8.7,24.8,16.4,37.8,23.4
			c10.1,5.5,20.8,10.6,32.3,9.3c2,0.2,3.2,0.4,4.5,0.4c8.4,0,14.1-6.1,13.6-14.5c-0.1-1.2-0.4-2.5-0.6-3.7
			c-4.2-23.3-8.1-46.6-12.8-69.8c-2.1-10.1-5.3-20-9.1-29.5c-5.4-13.2-16.2-16.6-28.4-12.6c-7.1,2.3-13.5,6.5-20.1,10.1
			c-5.7,3.1-10.8,7.8-16.8,9.8c-11.3,3.8-22.1,8.2-32.1,14.7c-9.8,6.4-12.6,15.6-7.1,25.9C323.7-245.2,325.9-242.2,328.4-239.9z
			 M494-128.3c-2.7-19.3-8.3-23.6-27.2-19.7c-0.5,0.1-1,0.2-1.5,0.3c-18.6,5.2-35.4,14.4-51.8,24.3c-8.6,5.2-16.8,11-25.7,15.7
			c-7.8,4.1-14.3,9.4-19.8,16c-2.6,3.2-4.4,7.3-6,11.2c-2,4.9-1.7,9.3,3.9,12c2.4,1.2,4.7,2.8,6.9,4.4c6.3,4.5,12.5,9.1,18.7,13.7
			c3.4,2.5,6.7,5.3,10.4,7.4c9,5,18.3,9.5,27.4,14.3c-0.2,0.3-0.3,0.6-0.5,1c6.8,3.3,13.4,6.8,20.4,9.8c15.5,6.6,29.4,0.4,34.7-15.4
			c0.5-1.4,0.8-2.9,1.3-4.3c4.7-15,5.7-30.6,7.8-46.1C494.9-98.6,496.1-113.5,494-128.3z M519.5-301.7c8.1-3.7,13.7-10.1,18.6-17.4
			c4.4-8.3,9.3-16.5,13.2-25.1c6.8-15,13-30.3,19.4-45.5c8.2-19.6,14.6-39.6,14.5-61.1c0-18.4-11.1-28-29.1-24
			c-12.6,2.8-24.6,7-35.7,13.8c-16.9,10.4-34.4,19.8-51.2,30.2c-11.9,7.3-24.4,14.4-31.7,27.1c-1.9,3.3-3.8,7.3-3.7,11
			c0,5.7,1,11.7,2.8,17.1c5.3,16,15.9,28.8,27.7,40.3c8,7.8,17.5,14.1,26.3,21.1c4.8,3.8,9.9,7.2,14.5,11.2
			C509.7-299,514.4-299.3,519.5-301.7z M638.9-162.4c4-0.3,8-0.6,12-1c5.3-0.6,9.1-3.3,9.4-9c0.4-6,1-12.1,0.1-17.9
			c-0.9-6.4-3.3-12.6-5.1-18.8c-4.5-15.5-3.6-32-8.7-47.3c-0.7-2.1-1.1-4.4-1.5-6.6c-3.8-18.7-3.5-38-8-56.7
			c-1.2-4.9-2.7-8.5-6.1-12.2c-4.2-4.6-8.9-5-13.6-2.7c-4.8,2.5-9.8,5.6-13.1,9.8c-9.4,12.1-18.3,24.6-26.8,37.4
			c-7.1,10.7-13.1,22.1-20.1,32.8c-10.1,15.6-20.8,30.9-30.7,46.6c-3.9,6.1-6.4,13.1-9.4,19.7c-1.9,4.1-0.3,7.4,3.1,9.9
			c1.6,1.2,3.3,2.3,5.1,3.1c12.1,5.6,24.6,10,38.1,11.2c14.5,1.3,29,3,38.5,4C617.7-161.1,628.3-161.7,638.9-162.4z M735.1-89.2
			c-0.2-12.2-5.6-21-19.6-20.5c-3.7,0.1-7.5-0.9-11.3-0.8c-14.8,0.6-29.6,1-44.3,2.4c-5.3,0.5-11.2,2.4-15.4,5.6
			c-10.7,8.2-16.1,19-2.9,29.9c8.1,6.7,16.8,12.7,25.4,18.9c5.3,3.8,10.9,7.3,16,11.3c6.6,5.1,12.9,10.5,19.2,15.8
			c6.2,5.2,13.6,1.9,16.6-3.7c1.9-3.6,3.4-7.3,5.1-11c0.4,0.1,0.8,0.3,1.1,0.4c2.5-8.4,5.5-16.7,7.4-25.2
			C734-73.6,735.2-81.5,735.1-89.2z"/>
		<path d="M638.9-162.4c-10.6,0.7-21.1,1.3-36.7,2.3c-9.6-1-24-2.7-38.5-4c-13.5-1.2-26-5.6-38.1-11.2c-1.8-0.8-3.5-1.9-5.1-3.1
			c-3.4-2.5-4.9-5.8-3.1-9.9c3-6.6,5.6-13.6,9.4-19.7c9.9-15.7,20.7-30.9,30.7-46.6c6.9-10.8,13-22.2,20.1-32.8
			c8.5-12.8,17.4-25.3,26.8-37.4c3.3-4.2,8.3-7.3,13.1-9.8c4.6-2.4,9.3-2,13.6,2.7c3.4,3.7,4.9,7.3,6.1,12.2
			c4.6,18.7,4.3,37.9,8,56.7c0.4,2.2,0.8,4.5,1.5,6.6c5,15.4,4.2,31.8,8.7,47.3c1.8,6.3,4.2,12.4,5.1,18.8c0.8,5.9,0.2,12-0.1,17.9
			c-0.3,5.7-4.1,8.4-9.4,9C646.9-163,642.9-162.7,638.9-162.4z M646.8-168.8c8.4-0.7,9.4-1.6,9.4-12.6c-1.2-7.2-2.6-16.9-4.4-26.5
			c-3-15.6-6.3-31.1-9.4-46.6c-1.5-7.4-2.6-14.8-4.1-22.2c-0.8-4.2-2.4-8.2-3.1-12.4c-2-11.6-3.6-23.4-5.6-35
			c-1.2-6.9-5.1-9.2-11.2-5.5c-4.4,2.6-8.5,6.4-11.6,10.5c-6.5,8.6-12.2,17.8-18.3,26.8c-5.4,7.9-10.9,15.7-16.3,23.6
			c-7.4,11.1-13.8,23-22.4,33.1c-11.8,13.9-19.7,29.7-26.3,46.3c-2.3,5.7-1.7,7.4,3.9,10.1c9.3,4.6,19,7.9,29.5,8.8
			c7,0.6,14.1,0.8,20.9,2.3c7.1,1.6,14,0.5,21,0.4c5.5-0.1,11.1-1.2,16.5-0.7C625.9-167.4,636.3-167.9,646.8-168.8z"/>
		<path fill="#F9F18F" d="M646.8-168.8c-10.5,0.9-20.9,1.4-31.5,0.4c-5.4-0.5-11,0.5-16.5,0.7c-7,0.2-13.9,1.3-21-0.4
			c-6.8-1.6-13.9-1.7-20.9-2.3c-10.4-0.9-20.1-4.2-29.5-8.8c-5.6-2.7-6.2-4.4-3.9-10.1c6.7-16.6,14.6-32.4,26.3-46.3
			c8.5-10.1,14.9-22.1,22.4-33.1c5.3-7.9,10.9-15.7,16.3-23.6c6.1-8.9,11.8-18.1,18.3-26.8c3.1-4.1,7.2-7.8,11.6-10.5
			c6.1-3.6,10.1-1.4,11.2,5.5c2,11.7,3.6,23.4,5.6,35c0.7,4.2,2.3,8.2,3.1,12.4c1.5,7.4,2.6,14.8,4.1,22.2c3.1,15.5,6.4,31,9.4,46.6
			c1.8,9.6,3.2,19.3,4.4,26.5C656.2-170.3,655.2-169.5,646.8-168.8z M564-227c-2.2,7.6-5.9,14.8-6.6,23.2
			C564.3-205.4,567.6-216.8,564-227z M592.9-271.9c9.3,2.5,21.4-1.8,29.1-10.7c-3.7,0.5-6.4,0.4-8.7,1.2c-5.4,2-10.5,4.4-15.8,6.7
			C596-273.9,594.7-273,592.9-271.9z M596.6-244.8c0,9.4,2.8,16.4,5.3,24.2C604.8-226.6,602.8-236.4,596.6-244.8z M633.5-197.8
			c-7.6-0.1-18.5,6-22.6,12.9C617.4-185.3,630.8-193.2,633.5-197.8z"/>
		<path d="M622-282.6c-3.7,0.5-6.4,0.4-8.7,1.2c-5.4,2-10.5,4.4-15.8,6.7c-1.5,0.7-2.8,1.6-4.6,2.7
			C602.1-269.4,614.3-273.7,622-282.6z"/>
		<path d="M557.4-203.8c7-1.6,10.2-13,6.6-23.2C561.8-219.4,558.1-212.2,557.4-203.8z"/>
		<path d="M610.9-184.9c6.6-0.4,20-8.3,22.6-12.9C625.8-197.9,614.9-191.8,610.9-184.9z"/>
		<path d="M601.9-220.6c2.9-6,0.9-15.8-5.3-24.2C596.6-235.5,599.4-228.4,601.9-220.6z"/>
		<path d="M340.4-684.1c5.5-8.9,13-16.7,20.3-24.3c11.1-11.6,22.3-23.3,34.5-33.8c7.5-6.5,14.9-13.6,24.9-16.7
			c7.8-2.4,12.5-1.1,16,6.5c3.8,8,7.1,16.1,10.3,24.4c6,15.2,12.4,30.4,17.4,45.9c4,12.1,6.5,24.7,9.1,37.3
			c1.4,6.6-0.8,9.8-7.4,11.8c-6.2,1.9-12.6,3-18.4,4.3c-9.3-1.5-17.8-2.4-26.1-4.4c-19.3-4.7-38.6-9.8-57.7-15.1
			c-5.8-1.6-11.4-4-16.7-6.8C334.2-661.8,332-670.6,340.4-684.1z M343-669.8c0.9,8.2,1.9,10.4,9.9,12.9c3.8,1.2,7.8,1.9,11.8,2.9
			c5.6,1.4,11.2,2.8,16.7,4.5c20,6.1,40.1,12.3,61.4,10.9c4.5,0,9.1,0,13.6,0c6.7,0,11.4-4.7,10.6-11.4c-0.5-4.2-1.9-8.3-3.1-12.3
			c-3.2-10.8-6.3-21.8-10-32.4c-4.3-12.3-9.4-24.4-14.1-36.6c-1.8-4.7-3.7-9.4-5.8-13.9c-3.6-7.6-11.9-10.3-18.9-5.8
			c-7.6,5-15.3,10-21.8,16.2c-14.6,14.2-28.5,29.2-42.6,43.9C345.1-685.1,342.1-678.4,343-669.8z"/>
		<path fill="#F9F18F" d="M343-669.8c-0.9-8.6,2.2-15.3,7.7-21.1c14.1-14.8,28-29.7,42.6-43.9c6.4-6.3,14.2-11.3,21.8-16.2
			c7-4.6,15.2-1.8,18.9,5.8c2.2,4.5,4,9.3,5.8,13.9c4.8,12.2,9.8,24.3,14.1,36.6c3.8,10.7,6.8,21.6,10,32.4
			c1.2,4.1,2.6,8.1,3.1,12.3c0.8,6.7-3.9,11.4-10.6,11.4c-4.5,0-9.1,0-13.6,0c-21.4,1.4-41.4-4.8-61.4-10.9
			c-5.5-1.7-11.1-3.1-16.7-4.5c-3.9-1-7.9-1.7-11.8-2.9C344.9-659.4,343.9-661.6,343-669.8z M447-668.6c0.5-0.3,0.9-0.6,1.4-0.9
			c-2.7-4.3-5.4-8.6-8.1-12.9C439.1-675.6,442.3-671.6,447-668.6z M402.1-709.2c1.9,0.2,3.9,0.3,5.7,0.7c2.2,0.5,4.3,1.4,6.4,2.1
			c1.6,0.5,3.1,1,4.7,1.6C414.2-710.2,408.9-712.7,402.1-709.2z M401-669.8c1.3,2.1,1.7,3.6,2.6,3.9c7.2,2.4,14.1,6.1,21.9,6.6
			c0.2-0.7,0.4-1.5,0.6-2.2C418.1-664.1,410.2-666.7,401-669.8z M366.2-676.9c6.6-1.5,11.3-5.1,16.3-9.7
			C375.4-685.9,369.1-682.1,366.2-676.9z"/>
		<path d="M403.6-665.9c7.2,2.4,14.1,6.1,21.9,6.6c0.2-0.7,0.4-1.5,0.6-2.2c-7.9-2.6-15.9-5.3-25.1-8.4
			C402.3-667.7,402.7-666.1,403.6-665.9z"/>
		<path d="M366.2-676.9c6.6-1.5,11.3-5.1,16.3-9.7C375.4-685.9,369.1-682.1,366.2-676.9z"/>
		<path d="M447-668.6c0.5-0.3,0.9-0.6,1.4-0.9c-2.7-4.3-5.4-8.6-8.1-12.9C439.1-675.6,442.3-671.6,447-668.6z"/>
		<path d="M414.2-706.4c1.6,0.5,3.1,1,4.7,1.6c-4.6-5.4-10-7.9-16.8-4.4c1.9,0.2,3.9,0.3,5.7,0.7C410-708,412.1-707.1,414.2-706.4z"
			/>
		<path d="M304.2-522.3c-9.6-10.6-8.7-19.6,3.7-29.5c8.2-6.5,17.9-11.3,27.3-16c14.4-7.2,28.9-14.5,43.8-20.3
			c9.2-3.6,18.6-7.8,29.1-7.4c8.1,0.3,12.1,3.2,12.9,11.5c0.9,8.8,1.3,17.6,1.5,26.4c0.5,16.4,1.4,32.8,1,49.1
			c-0.3,12.8-2.2,25.5-3.9,38.2c-0.9,6.6-4.1,9-10.9,8.7c-6.5-0.3-12.9-1.4-18.8-2.1c-8.2-4.6-16-8.3-23.1-12.9
			c-16.6-10.9-33-22.2-49.3-33.6C312.7-513.7,308.2-517.9,304.2-522.3z M310.5-522c3.2,2.4,6.8,4.4,10.1,6.7
			c4.8,3.2,9.6,6.4,14.2,9.9c16.8,12.4,33.6,25,54.2,30.9c4.3,1.5,8.6,3.1,12.8,4.6c6.4,2.3,12.4-0.6,13.8-7.2
			c0.9-4.1,1-8.4,1.2-12.6c0.6-11.3,1.4-22.6,1.4-33.9c0-13.1-0.6-26.1-1-39.2c-0.2-5-0.3-10.1-0.8-15.1
			c-0.9-8.4-7.7-13.7-15.8-11.8c-8.8,2.1-17.8,4.2-26,8c-18.5,8.5-36.7,17.9-54.9,27.1c-7.2,3.6-12.4,8.9-14.4,17.3
			C303.6-529.5,303.8-527.1,310.5-522z"/>
		<path fill="#F9F18F" d="M305.5-537.5c2-8.4,7.2-13.7,14.4-17.3c18.2-9.2,36.4-18.6,54.9-27.1c8.2-3.7,17.2-5.8,26-8
			c8.1-2,15,3.4,15.8,11.8c0.5,5,0.6,10.1,0.8,15.1c0.4,13.1,1.1,26.1,1,39.2c0,11.3-0.9,22.6-1.4,33.9c-0.2,4.2-0.3,8.5-1.2,12.6
			c-1.5,6.6-7.5,9.4-13.8,7.2c-4.3-1.5-8.6-3.1-12.8-4.6c-20.6-5.9-37.4-18.5-54.2-30.9c-4.6-3.4-9.5-6.6-14.2-9.9
			c-3.3-2.3-6.9-4.2-10.1-6.7C303.8-527.1,303.6-529.5,305.5-537.5z M403.1-501.4c0.5-0.1,1.1-0.2,1.6-0.4c-1.1-5-2.2-9.9-3.3-14.9
			C398-510.7,399.7-505.8,403.1-501.4z M374.4-554.7c1.7,0.8,3.6,1.5,5.2,2.6c1.9,1.2,3.6,2.8,5.3,4.2c1.3,1,2.6,2,3.9,3
			C386.2-551.6,382-555.7,374.4-554.7z M360.1-518c0.5,2.4,0.4,4,1.1,4.6c6,4.7,11.2,10.5,18.4,13.6c0.4-0.6,0.9-1.2,1.3-1.9
			C374.4-506.8,367.8-512,360.1-518z M329.7-536.3c6.7,0.8,12.3-1,18.7-3.7C341.4-541.8,334.2-540.3,329.7-536.3z"/>
		<path d="M379.7-499.8c0.4-0.6,0.9-1.2,1.3-1.9c-6.6-5.2-13.2-10.3-20.8-16.3c0.5,2.4,0.4,4,1.1,4.6
			C367.3-508.7,372.5-502.9,379.7-499.8z"/>
		<path d="M348.4-540c-7-1.7-14.2-0.3-18.7,3.7C336.5-535.5,342.1-537.3,348.4-540z"/>
		<path d="M404.7-501.8c-1.1-5-2.2-9.9-3.3-14.9c-3.4,6-1.7,10.8,1.7,15.3C403.6-501.5,404.2-501.6,404.7-501.8z"/>
		<path d="M384.9-548c1.3,1,2.6,2,3.9,3c-2.6-6.7-6.8-10.8-14.4-9.8c1.7,0.8,3.6,1.5,5.2,2.6C381.4-550.9,383.1-549.4,384.9-548z"/>
		<path d="M172.5-638.5c-1.3-6.5-0.8-13.5-0.2-20.2c0.5-5.7,4-9.4,9.9-11c11-3,22.1-4.8,33.5-5.3c10.3-0.4,20.6-1.7,30.9-2.3
			c6-0.3,12,0,18,0c2.5,0,5,0.2,7.5,0.2c11.9,0.1,22.4,8.1,24.6,19.5c0.8,4.1,0.4,8.6-0.7,12.6c-1.5,5.5-3.7,10.9-6.3,16
			c-6.4,12.3-12.7,24.6-20.1,36.3c-9.4,14.8-19.9,29-30,43.4c-2.1,3.1-4.5,6.1-6.3,9.4c-3.9,6.9-8.6,11.8-17.5,9.3
			c-1.1-0.3-2.5,0.1-3.6,0.2c-6.4-6.8-8.2-15.7-11.4-23.8c-6.7-17.4-13.1-34.8-19.1-52.4C178-617,174.7-627.7,172.5-638.5z
			 M177-651.8c2.1,13.6,4.9,27.1,7.5,40.7c0,0.2,0.2,0.5,0.3,0.7c4.3,11,8.7,22,13,33.1c2.4,6.1,5.2,12.1,6.8,18.4
			c2,7.8,6.4,14.2,10.3,20.9c1.9,3.3,4.2,3.6,7.6,1.5c2.1-1.3,4.3-2.8,5.9-4.7c2.9-3.5,5.3-7.3,8.1-10.9
			c17.4-22.6,33.4-46.1,44.7-72.5c3.2-7.4,6.8-14.6,10.2-21.9c3.5-7.4,0.2-13.6-3.6-19.7c-1.2-0.7-2.2-1.7-3.3-2
			c-3.8-1-7.7-2.2-11.6-2.5c-10-0.8-19.9-2.5-30.1-0.6c-6.4,1.2-13,1.8-19.4,1.5c-11.9-0.6-23.6,1.2-35.3,3
			C177.7-665.2,175.5-662,177-651.8z"/>
		<path fill="#F9F18F" d="M177-651.8c-1.6-10.3,0.6-13.4,11-15c11.6-1.8,23.3-3.6,35.3-3c6.5,0.3,13.1-0.3,19.4-1.5
			c10.1-1.9,20.1-0.2,30.1,0.6c3.9,0.3,7.8,1.5,11.6,2.5c1.2,0.3,2.2,1.3,3.3,2c3.8,6,7,12.2,3.6,19.7c-3.4,7.3-7,14.5-10.2,21.9
			c-11.3,26.4-27.3,49.9-44.7,72.5c-2.8,3.6-5.2,7.4-8.1,10.9c-1.6,1.9-3.7,3.4-5.9,4.7c-3.5,2.1-5.7,1.8-7.6-1.5
			c-3.9-6.7-8.3-13.1-10.3-20.9c-1.6-6.3-4.4-12.3-6.8-18.4c-4.3-11-8.7-22-13-33.1c-0.1-0.2-0.2-0.5-0.3-0.7
			C182-624.6,179.1-638.2,177-651.8z M269.3-631.5c0,0.9,1.4,1.9,3,3.8c1.2-10.8,2.7-20.2,0.9-30.6c-1.2,1.3-2,1.7-2.1,2.3
			C270.4-647.9,269.7-639.7,269.3-631.5z M231-620.8c1.7-0.4,3.2-0.2,3.5-0.8c3.1-5.7,6.3-11.3,8.9-17.2c0.9-2-0.4-4.5-2.4-4.2
			C237.5-635.4,234.4-628.5,231-620.8z M218.1-588.7c1.2,3.1,10.9,12.3,13.9,13.6c0.5-0.3,0.9-0.7,1.4-1
			c-4.5-5.5-9.1-11.1-14.7-17.9C218.3-590.9,217.8-589.6,218.1-588.7z M201-610.1c1.6-0.1,3.2-0.2,5.7-0.4
			c-0.3-5.4-0.7-10.4-0.9-15.4c-0.5-9.9-0.7-10.8-4.2-13C201.5-629.4,201.2-620.3,201-610.1z"/>
		<path d="M205.8-625.8c-0.5-9.9-0.7-10.8-4.2-13c-0.2,9.3-0.4,18.5-0.7,28.7c1.6-0.1,3.2-0.2,5.7-0.4
			C206.4-615.9,206.1-620.8,205.8-625.8z"/>
		<path d="M273.2-658.3c-1.2,1.3-2,1.7-2.1,2.3c-0.7,8.2-1.4,16.4-1.9,24.6c0,0.9,1.4,1.9,3,3.8C273.5-638.5,275-647.9,273.2-658.3z
			"/>
		<path d="M234.5-621.6c3.1-5.7,6.3-11.3,8.9-17.2c0.9-2-0.4-4.5-2.4-4.2c-3.4,7.6-6.5,14.6-9.9,22.2
			C232.8-621.2,234.2-621.1,234.5-621.6z"/>
		<path d="M232.1-575.1c0.5-0.3,0.9-0.7,1.4-1c-4.5-5.5-9.1-11.1-14.7-17.9c-0.4,3.1-1,4.4-0.6,5.3
			C219.4-585.7,229-576.4,232.1-575.1z"/>
		<path d="M333.5-375.3c0.4,1.6,0.9,3.1,1.3,4.6c3.9,17.3-5.2,30.5-22.9,33.1c-7.9,1.1-15.9,1.6-23.8,2.4c0-0.4-0.1-0.7-0.1-1.1
			c-10.9,0.8-21.8,1.7-32.7,2.2c-4.5,0.2-9-0.5-13.5-0.9c-8.2-0.7-16.3-1.4-24.5-2.1c-2.9-0.2-5.8-0.5-8.7-0.2
			c-6.6,0.7-9.3-3.1-10.1-8.7c-0.7-4.4-1.3-9.1-0.7-13.4c1.3-9,4.3-17.4,9.1-25.4c5.5-9.1,9.7-18.9,14.6-28.4
			c9.4-18,19.5-35.6,33.4-50.6c0.4-0.4,0.8-0.7,1.2-1.1c14.9-14,22.4-13.2,35.5,2.8c10,12.2,17.2,26.3,23.6,40.8
			C321.8-406.2,329.5-391.5,333.5-375.3z M330.2-369.3c-4.5-13.4-9.3-26.7-14.7-39.8c-5.5-13.4-12.7-25.8-20.9-37.8
			c-5-7.3-9.8-14.4-16.5-20.3c-4.5-3.9-7.1-4-11.8-0.2c-1.6,1.3-3.3,2.8-4.5,4.5c-7.9,10.4-16.5,20.4-23.5,31.4
			c-9.1,14.4-17.4,29.4-25.1,44.6c-4.6,9-8.3,18.6-10.7,28.3c-3,12,1,16.2,13.4,16.4c8.8,0.1,17.6,0.1,26.4,0.4
			c10.1,0.4,20.2,2.7,30.1-1.3c0.8-0.3,2,0.2,3.1,0.3c5.3,0.4,10.5,0.8,15.8,1.2c8.4,0.8,15.8-1.7,22.8-6.1c1.5-1,3.5-1.3,5.3-1.8
			C329.8-352.5,333.7-358.9,330.2-369.3z"/>
		<path fill="#F9F18F" d="M330.2-369.3c3.5,10.5-0.4,16.8-10.9,19.9c-1.8,0.5-3.8,0.8-5.3,1.8c-7,4.4-14.4,6.9-22.8,6.1
			c-5.3-0.4-10.5-0.8-15.8-1.2c-1-0.1-2.2-0.6-3.1-0.3c-9.9,4-20,1.7-30.1,1.3c-8.8-0.3-17.6-0.3-26.4-0.4
			c-12.3-0.2-16.4-4.4-13.4-16.4c2.4-9.7,6.2-19.4,10.7-28.3c7.7-15.2,16-30.2,25.1-44.6c7-11,15.6-21,23.5-31.4
			c1.3-1.7,2.9-3.1,4.5-4.5c4.7-3.8,7.3-3.8,11.8,0.2c6.8,5.9,11.5,13,16.5,20.3c8.2,12,15.4,24.4,20.9,37.8
			C320.8-396,325.7-382.7,330.2-369.3z M252.5-367c-8.3-2.9-14.9-5.3-21.6-7.6C236.7-370,242.3-365,252.5-367z M253.1-426.8
			c-1.8,8.2-3.4,15.6-5,23C254.2-406.7,256.4-415.8,253.1-426.8z M295.9-410.9c-6.2,5.6-12.4,11.2-19.4,17.5
			C285.8-395,294.3-403,295.9-410.9z M307.2-365.5c-3.5-4.7-3.6-11.9-10.6-15.1C302.4-367.7,303-366.9,307.2-365.5z"/>
		<path d="M295.9-410.9c-6.2,5.6-12.4,11.2-19.4,17.5C285.8-395,294.3-403,295.9-410.9z"/>
		<path d="M248-403.8c6.2-2.9,8.4-12.1,5-23C251.3-418.6,249.6-411.1,248-403.8z"/>
		<path d="M252.5-367c-8.3-2.9-14.9-5.3-21.6-7.6C236.7-370,242.3-365,252.5-367z"/>
		<path d="M296.6-380.6c5.9,12.9,6.4,13.7,10.6,15.1C303.6-370.1,303.6-377.3,296.6-380.6z"/>
		<path d="M494-128.3c2.1,14.8,0.9,29.7-1,44.4c-2.1,15.4-3.1,31.1-7.8,46.1c-0.5,1.4-0.8,2.9-1.3,4.3c-5.3,15.8-19.2,22-34.7,15.4
			c-6.9-3-13.6-6.5-20.4-9.8c0.2-0.3,0.3-0.6,0.5-1c-9.1-4.7-18.4-9.3-27.4-14.3c-3.7-2-7-4.9-10.4-7.4c-6.2-4.6-12.5-9.2-18.7-13.7
			c-2.2-1.6-4.4-3.3-6.9-4.4c-5.6-2.7-5.9-7.1-3.9-12c1.6-3.9,3.4-8,6-11.2c5.5-6.6,12-11.9,19.8-16c8.9-4.7,17.1-10.5,25.7-15.7
			c16.4-9.9,33.2-19.1,51.8-24.3c0.5-0.1,1-0.2,1.5-0.3C485.7-151.9,491.3-147.6,494-128.3z M489.1-114.5
			c-0.4-8.3-0.8-16.4-3.3-24.5c-1.7-5.3-3.8-6.7-9.4-5.9c-2,0.3-4,0.7-5.9,1.4c-11.5,4.5-23.3,8.3-34.3,13.7
			c-14.4,7.1-28.4,15.2-42.1,23.6c-8.1,5-15.8,10.9-22.5,17.6c-8.3,8.2-7.1,13.6,2.7,19.8c7,4.4,14.2,8.7,21.1,13.3
			c7.9,5.3,15,12.1,24.9,13.7c0.8,0.1,1.5,1.1,2.3,1.7c4,2.9,8.1,5.8,12.1,8.7c6.4,4.8,13.6,6.4,21.4,6.3c1.7,0,3.4,0.7,5.1,1.2
			c9.9,2.7,16.2-0.5,18.5-10.7c3-13,5.6-26.1,7.7-39.3C489.5-87.3,489.8-100.9,489.1-114.5z"/>
		<path fill="#F9F18F" d="M489.1-114.5c0.7,13.7,0.4,27.2-1.8,40.7c-2.1,13.2-4.7,26.3-7.7,39.3c-2.3,10.1-8.6,13.4-18.5,10.7
			c-1.7-0.5-3.4-1.2-5.1-1.2c-7.8,0.1-15-1.5-21.4-6.3c-4.1-2.9-8.1-5.8-12.1-8.7c-0.8-0.6-1.5-1.6-2.3-1.7
			c-9.9-1.7-16.9-8.5-24.9-13.7c-6.9-4.6-14.1-8.9-21.1-13.3c-9.8-6.2-11-11.6-2.7-19.8c6.7-6.6,14.5-12.6,22.5-17.6
			c13.7-8.5,27.7-16.5,42.1-23.6c11-5.4,22.8-9.3,34.3-13.7c1.9-0.7,3.9-1.1,5.9-1.4c5.7-0.8,7.8,0.6,9.4,5.9
			C488.3-131,488.6-122.9,489.1-114.5z M415.9-70.9c-5.3-6.5-9.4-11.6-13.6-16.7C404.6-81.1,406.7-74.3,415.9-70.9z M445.7-118.8
			c-5.5,5.7-10.4,10.9-15.3,16.1C436.8-102,443-108.3,445.7-118.8z M458.1-60.2c-1.6,13.3-1.6,14.1,1.1,17.4
			C458.6-48.3,462.1-54.1,458.1-60.2z M472.4-84.9c-7.8,1.5-15.5,2.9-24.2,4.6C456.4-77.1,467.2-79.3,472.4-84.9z"/>
		<path d="M472.4-84.9c-7.8,1.5-15.5,2.9-24.2,4.6C456.4-77.1,467.2-79.3,472.4-84.9z"/>
		<path d="M445.7-118.8c-5.5,5.7-10.4,10.9-15.3,16.1C436.8-102,443-108.3,445.7-118.8z"/>
		<path d="M415.9-70.9c-5.3-6.5-9.4-11.6-13.6-16.7C404.6-81.1,406.7-74.3,415.9-70.9z"/>
		<path d="M458.1-60.2c-1.6,13.3-1.6,14.1,1.1,17.4C458.6-48.3,462.1-54.1,458.1-60.2z"/>
		<path d="M512.1-754.4c-0.8,8.7,0,17.1,2.5,25.3c1.2,4,3.7,7.7,6,11.1c3,4.4,6.8,6.5,12.2,3.3c2.3-1.4,4.9-2.4,7.5-3.3
			c7.2-2.8,14.5-5.4,21.7-8.2c4-1.5,8.1-2.7,11.9-4.7c9.1-4.8,18-10.1,26.9-15.1c0.2,0.3,0.4,0.6,0.5,0.9
			c6.4-3.9,13.1-7.5,19.3-11.7c10.8-7.2,14.7-17.7,11.2-28.2h-4.2c2,5.2,0.1,10.1-5.4,15c-1.3,1.2-2.9,2.2-3.8,3.7
			c-4.2,6.6-9.4,11.8-17,14.5c-4.7,1.8-9.3,3.6-14,5.4c-0.9,0.3-2.1,0.4-2.7,1c-6.8,7.4-16.4,9.5-25.1,13.3
			c-7.6,3.3-15.1,6.9-22.7,10.4c-10.6,4.8-15.7,2.9-18-8.6c-1.9-9.3-2.6-19-2.4-28.5c0.2-8.7,0.6-17.5,1.2-26.2H513
			c0,0.2,0,0.3,0,0.5C512.6-774.5,513-764.4,512.1-754.4z"/>
		<path fill="#F9F18F" d="M516.6-758.8c0.2-8.7,0.6-17.5,1.2-26.2h75.1c7.7,6.4,8.7,6.7,12.5,6.3c-2.9-1.5-5.2-4.3-8.1-6.3h30.3
			c2,5.2,0.1,10.1-5.4,15c-1.3,1.2-2.9,2.2-3.8,3.7c-4.2,6.6-9.4,11.8-17,14.5c-4.7,1.8-9.3,3.6-14,5.4c-0.9,0.3-2.1,0.4-2.7,1
			c-6.8,7.4-16.4,9.5-25.1,13.3c-7.6,3.3-15.1,6.9-22.7,10.4c-10.6,4.8-15.7,2.9-18-8.6C517.1-739.6,516.4-749.3,516.6-758.8z
			 M536.7-755.6c6.8,1.7,13.7,3.6,21.5-2.2C549.9-757,543.3-756.3,536.7-755.6z"/>
		<path d="M558.1-757.8c-8.3,0.9-14.9,1.6-21.5,2.2C543.5-753.9,550.4-752,558.1-757.8z"/>
		<path d="M605.4-778.7c-2.9-1.5-5.2-4.3-8.1-6.3h-4.4C600.6-778.6,601.6-778.3,605.4-778.7z"/>
		<path d="M175.9-217.1c-5.5,7.8-11.4,15.4-17.6,22.6c-9.1,10.7-20,10.9-28.6-0.3c-7.7-10.2-14.7-21.1-20.6-32.4
			c-9.2-17.6-17.3-35.8-25.6-53.8c-4.6-9.9-7.3-21.4-7.4-29.7c0.2-6.2,2.5-11.4,9-14.7c10.3-5.2,21.1-6.8,32.3-5.3
			c10.7,1.5,21.2,4.1,31.8,6c16.7,3.1,32.2,9.6,47.7,16.3c2.7,1.2,5.3,2.9,7.7,4.8c4.2,3.4,5.7,7.5,4.7,13.3
			c-1.6,9.4-5.7,17.7-9.4,26.2c-4.2,9.7-8.3,19.5-13,28.9C183.8-228.8,180-222.8,175.9-217.1z M163-208.1
			c13.2-24,26.9-47.8,38.7-72.4c7.6-15.8,5-19-9.8-25.5c-0.2-0.1-0.5-0.1-0.7-0.2c-19-8.2-38.9-13.7-59.1-17.9
			c-7.6-1.6-15.4-2-23-2.9c-7.2-0.1-13.6,2.2-20,4.6c-5,1.9-8,5.3-8,10.7c0,3,0,6.2,1,8.9c3.7,10.4,7.4,20.9,11.9,30.9
			c8.5,18.8,17.3,37.4,26.7,55.8c3.7,7.3,8.7,14.2,14.3,20.2c6.4,6.9,12.1,6.5,18.9-0.2C157.3-199.7,160.6-203.8,163-208.1z"/>
		<path fill="#F9F18F" d="M201.7-280.5c-11.8,24.7-25.5,48.4-38.7,72.4c-2.4,4.3-5.7,8.4-9.2,11.9c-6.8,6.8-12.6,7.1-18.9,0.2
			c-5.5-6-10.6-12.9-14.3-20.2c-9.4-18.3-18.2-37-26.7-55.8c-4.6-10.1-8.2-20.5-11.9-30.9c-1-2.7-1-5.9-1-8.9c0.1-5.4,3-8.9,8-10.7
			c6.4-2.4,12.8-4.7,20-4.6c7.7,0.9,15.5,1.4,23,2.9c20.2,4.2,40.1,9.7,59.1,17.9c0.2,0.1,0.5,0.1,0.7,0.2
			C206.7-299.6,209.2-296.3,201.7-280.5z M119.7-272.2c-2.1-4.6-4.8-8.6-9.6-11c-0.4,0.4-0.8,0.8-1.2,1.2c3,3.7,6,7.5,9.1,11.2
			C118.5-271.3,119.1-271.7,119.7-272.2z M135.4-311.7c1.5,3.6,2.9,7.2,4.4,10.8c0.6-0.2,1.3-0.4,1.9-0.6
			C140.9-305.4,140.9-309.7,135.4-311.7z M146.1-242.5c-5.8-4.4-10.6-1.1-15.3,1.9C135.9-241.3,141-241.9,146.1-242.5z M157.7-222.5
			c-5.7-2.3-8.9-2.4-16.6-0.1C151.8-220,155.1-220.1,157.7-222.5z M159.6-282.7c-4,4.8-7.5,8.9-10.9,13.1
			C156.2-273.1,159.3-277.1,159.6-282.7z M187.5-279.1c-2.6-0.9-5.2-1.8-7.7-2.7c-0.2,0.5-0.4,0.9-0.6,1.4c2.4,1.2,4.8,2.5,7.2,3.7
			C186.7-277.5,187.1-278.3,187.5-279.1z"/>
		<path d="M141.1-222.7c10.7,2.6,14,2.6,16.6,0.1C152-224.8,148.8-224.9,141.1-222.7z"/>
		<path d="M159.6-282.7c-4,4.8-7.5,8.9-10.9,13.1C156.2-273.1,159.3-277.1,159.6-282.7z"/>
		<path d="M110.1-283.2c-0.4,0.4-0.8,0.8-1.2,1.2c3,3.7,6,7.5,9.1,11.2c0.6-0.5,1.1-0.9,1.7-1.4
			C117.6-276.8,114.8-280.8,110.1-283.2z"/>
		<path d="M130.8-240.6c5.1-0.6,10.2-1.3,15.3-1.9C140.3-246.9,135.5-243.6,130.8-240.6z"/>
		<path d="M141.7-301.4c-0.8-4-0.7-8.3-6.3-10.2c1.5,3.6,2.9,7.2,4.4,10.8C140.4-301,141-301.2,141.7-301.4z"/>
		<path d="M179.1-280.4c2.4,1.2,4.8,2.5,7.2,3.7c0.4-0.8,0.8-1.6,1.2-2.4c-2.6-0.9-5.2-1.8-7.7-2.7
			C179.6-281.3,179.4-280.9,179.1-280.4z"/>
		<path d="M72.7-773.5c16,11.8,31.8,23.8,48.4,34.8c10.6,7.1,22,13.3,33.7,18.5c12.9,5.7,22.4,0.2,25.2-13.5
			c1.9-9.4,3.4-18.8,4.5-28.3c0.8-7,1.3-14.1,1-21.1c0-0.7-0.1-1.3-0.1-2h-7.8c0,12.4-0.1,24.7-0.1,37.1c0,5-1,10.1-2.4,14.8
			c-2.7,9.2-7.6,12.3-16.5,9.3c-7.8-2.6-15.5-6.2-22.2-10.8c-17.1-11.6-33.8-23.7-50.3-36c-6-4.5-11.8-9.4-17.5-14.4H60
			C63.7-780.9,68-776.9,72.7-773.5z"/>
		<path fill="#F9F18F" d="M86-770.6c-6-4.5-11.8-9.4-17.5-14.4h29.8c3.1,1.3,6.3,2.6,9.4,3.9c0.3-0.7,0.5-1.4,0.8-2
			c-0.9-0.6-1.8-1.3-2.7-1.8h71.6c0,12.4-0.1,24.7-0.1,37.1c0,5-1,10.1-2.4,14.8c-2.7,9.2-7.6,12.3-16.5,9.3
			c-7.8-2.6-15.5-6.2-22.2-10.8C119.2-746.1,102.5-758.2,86-770.6z M151.2-750.1c10.6-2.9,13.5-4.5,14.6-7.9
			C159.7-757.2,156.8-755.8,151.2-750.1z M133.5-760.9c4.2-3,8.3-6,12.5-9C138.8-771,136.2-765.8,133.5-760.9z"/>
		<path d="M165.8-758c-6.1,0.7-8.9,2.2-14.6,7.9C161.8-752.9,164.7-754.6,165.8-758z"/>
		<path d="M108.5-783.2c-0.9-0.6-1.8-1.3-2.7-1.8h-7.6c3.1,1.3,6.3,2.6,9.4,3.9C108-781.8,108.3-782.5,108.5-783.2z"/>
		<path d="M133.5-760.9c4.2-3,8.3-6,12.5-9C138.8-771,136.2-765.8,133.5-760.9z"/>
		<path d="M320.2-113.5c0.1,1.5,0,2.9,0,4.5c-17.7,4.9-34.8,5.4-51.8,5.4c-19.8,0-39.6,3.8-59.5,0c-6.1-1.1-12.5-0.4-18.7-0.7
			c-2.5-0.2-4.9-1.2-7.3-1.6c-3.8-0.6-5.8-3.2-6.5-6.5c-1.2-5.2-1.5-10.4,1-15.5c7.5-15.5,17.1-29.5,27.1-43.4
			c9.2-12.9,21.1-23.7,28.4-38c2.9-5.8,8.2-8.6,14.2-10.4c5.4-1.6,10.2-0.4,13.4,4.3c10.1,14.7,20.9,29,29.6,44.5
			c6.8,12.1,13.6,24,21.7,35.2C316.4-129.2,319.6-121.8,320.2-113.5z M316-113.6c-0.9-3.3-1-6.1-2.3-8.4
			c-4.2-7.4-8.7-14.7-13.3-21.9c-5.7-9.2-11.6-18.2-17.4-27.4c-7-11.1-13.9-22.1-20.7-33.3c-3.1-5.1-8.6-6.7-13.2-9.6
			c-2.8-1.7-6-0.2-8.2,2.1c-1.6,1.6-2.9,3.5-4.2,5.3c-6.1,8.2-10.1,17.9-18.6,24.3c-1.7,1.3-2.7,3.6-4.1,5.4
			c-2.7,3.7-5.3,7.3-7.9,11c-8.9,12.5-18.2,24.8-24.3,39c-5.3,12.3-1.6,18,11.9,18.8c4.5,0.3,9.1,0.3,13.6,0.3
			c11.6,0.1,23.1,0.3,34.7,0.3c4.8,0,9.6-0.7,14.3-0.5C276-107.6,295.4-109.3,316-113.6z"/>
		<path fill="#F9F18F" d="M313.7-122c1.3,2.3,1.5,5.2,2.3,8.4c-20.5,4.4-40,6-59.7,5.3c-4.8-0.2-9.6,0.5-14.3,0.5
			c-11.6,0-23.1-0.1-34.7-0.3c-4.5-0.1-9.1-0.1-13.6-0.3c-13.5-0.8-17.2-6.5-11.9-18.8c6.1-14.2,15.4-26.5,24.3-39
			c2.6-3.7,5.3-7.4,7.9-11c1.3-1.8,2.3-4.1,4.1-5.4c8.6-6.3,12.6-16.1,18.6-24.3c1.3-1.8,2.6-3.7,4.2-5.3c2.3-2.3,5.5-3.8,8.2-2.1
			c4.6,2.9,10.1,4.5,13.2,9.6c6.8,11.2,13.8,22.2,20.7,33.3c5.8,9.2,11.6,18.2,17.4,27.4C304.9-136.7,309.5-129.5,313.7-122z
			 M243.5-135.2c-12.2-2.7-22.5,2.4-23.2,12.3c3.9-2.9,6.5-5.8,9.8-7.2c3.6-1.5,7.7-1.5,11.6-2.4
			C242.4-132.6,242.8-134.1,243.5-135.2z M261.4-164.7c-5.5-2.3-10.3-3.4-14-6c-3.7-2.5-6.3-6.6-9.5-9.9c-0.5,0.4-0.9,0.7-1.4,1.1
			c0,0.7-0.3,1.6,0,2.1c4.1,7.8,11,12.3,18.9,15.2C256.8-161.7,259-163.6,261.4-164.7z M288.8-132.6c-4.9-6.5-12.5-11.5-17.4-11.5
			C275.1-138.3,284.5-132,288.8-132.6z"/>
		<path d="M238-180.7c-0.5,0.4-0.9,0.7-1.4,1.1c0,0.7-0.3,1.6,0,2.1c4.1,7.8,11,12.3,18.9,15.2c1.3,0.5,3.5-1.4,5.9-2.5
			c-5.5-2.3-10.3-3.4-14-6C243.8-173.3,241.1-177.3,238-180.7z"/>
		<path d="M220.3-122.9c3.9-2.9,6.5-5.8,9.8-7.2c3.6-1.5,7.7-1.5,11.6-2.4c0.8-0.2,1.2-1.7,1.9-2.8
			C231.3-137.9,221-132.8,220.3-122.9z"/>
		<path d="M271.5-144.1c3.6,5.8,13,12.1,17.4,11.5C283.9-139.1,276.3-144.2,271.5-144.1z"/>
		<path d="M519.5-301.7c-5.1,2.4-9.8,2.7-14.5-1.3c-4.7-3.9-9.7-7.4-14.5-11.2c-8.9-6.9-18.4-13.2-26.3-21.1
			c-11.7-11.5-22.3-24.3-27.7-40.3c-1.8-5.4-2.8-11.4-2.8-17.1c0-3.7,1.8-7.7,3.7-11c7.3-12.8,19.8-19.8,31.7-27.1
			c16.9-10.4,34.3-19.8,51.2-30.2c11.1-6.9,23.2-11.1,35.7-13.8c18-4,29.1,5.5,29.1,24c0,21.6-6.4,41.5-14.5,61.1
			c-6.3,15.2-12.6,30.5-19.4,45.5c-3.9,8.6-8.8,16.7-13.2,25.1C533.2-311.8,527.6-305.4,519.5-301.7z M521.6-308.8
			c4.4-3.6,8.2-8,12.7-12.5c7.9-16.5,16.5-33.1,23.7-50.2c6.6-15.7,12.1-31.9,17.3-48.2c4-12.5,7-25.4,3.4-38.7
			c-2.1-8-7.5-13.2-15.6-12.6c-13.6,1-26.4,5.5-37.3,13.7c-10.7,8.1-21.8,16-34.2,20.7c-15.2,5.8-27.8,15.3-40.7,24.4
			c-9.8,6.9-13.7,17.5-10.8,29.2c2.4,9.4,6.5,18.6,13.7,25.6c13.1,12.7,26.5,25.3,39.9,37.7c4.2,3.9,8.9,7.4,13.5,10.9
			C512-305.3,517.1-305.2,521.6-308.8z"/>
		<path fill="#F9F18F" d="M521.6-308.8c-4.5,3.6-9.6,3.6-14.3-0.1c-4.5-3.6-9.2-7-13.5-10.9c-13.4-12.4-26.8-25-39.9-37.7
			c-7.2-7-11.3-16.2-13.7-25.6c-3-11.6,1-22.2,10.8-29.2c12.9-9.1,25.5-18.6,40.7-24.4c12.3-4.7,23.4-12.6,34.2-20.7
			c10.9-8.2,23.7-12.7,37.3-13.7c8.1-0.6,13.5,4.6,15.6,12.6c3.6,13.4,0.6,26.2-3.4,38.7c-5.2,16.3-10.7,32.5-17.3,48.2
			c-7.2,17.1-15.8,33.7-23.7,50.2C529.8-316.9,526-312.4,521.6-308.8z M552.1-406.8c-0.8-5.5-1.4-10-2-14.4c-0.5-4.4,3.5-9-0.3-13.6
			C542.4-427.5,543.2-416.1,552.1-406.8z M517.8-420.5c-0.4-0.6-0.8-1.2-1.3-1.9c-2.3,1.3-5,2.3-6.9,4.1
			c-7.1,6.8-13.5,14.8-25.6,14.1c2.9,4.5,6.3,4.8,9.4,3.5C503.7-404.7,511.4-411.8,517.8-420.5z M517.8-360.6
			c-7.8,9-10.4,16.9-6.6,24.9c1.1-4.2,2.6-8.3,3.4-12.5C515.3-352.2,519.6-355.4,517.8-360.6z"/>
		<path d="M517.8-420.5c-0.4-0.6-0.8-1.2-1.3-1.9c-2.3,1.3-5,2.3-6.9,4.1c-7.1,6.8-13.5,14.8-25.6,14.1c2.9,4.5,6.3,4.8,9.4,3.5
			C503.7-404.7,511.4-411.8,517.8-420.5z"/>
		<path d="M550.2-421.2c-0.5-4.4,3.5-9-0.3-13.6c-7.5,7.3-6.6,18.8,2.3,28C551.4-412.4,550.7-416.8,550.2-421.2z"/>
		<path d="M511.2-335.7c1.1-4.2,2.6-8.3,3.4-12.5c0.7-4,5.1-7.2,3.3-12.4C510-351.5,507.5-343.7,511.2-335.7z"/>
		<path d="M361-211.9c-11.5-8.4-21.9-18.5-32.6-28c-2.6-2.3-4.7-5.3-6.3-8.4c-5.5-10.3-2.7-19.5,7.1-25.9
			c10-6.6,20.8-10.9,32.1-14.7c6-2,11.1-6.7,16.8-9.8c6.6-3.6,13-7.8,20.1-10.1c12.3-4,23.1-0.6,28.4,12.6
			c3.9,9.5,7.1,19.5,9.1,29.5c4.7,23.2,8.6,46.5,12.8,69.8c0.2,1.2,0.5,2.5,0.6,3.7c0.5,8.4-5.2,14.5-13.6,14.5
			c-1.3,0-2.5-0.2-4.5-0.4c-11.5,1.3-22.2-3.8-32.3-9.3C385.8-195.6,373-203.2,361-211.9z M331.4-243.6c11.6,10.4,23.2,21,35.4,30.7
			c6.4,5.1,14.4,8.2,21.1,13c10.2,7.3,21.6,11.8,33.4,15.4c3.1,1,6.4,1.2,9.2,1.7c2.5-0.3,4.5-0.5,6.5-0.9c6.6-1.4,8.6-3.8,8-10.5
			c-0.3-3.7-1.2-7.5-2.4-11c-3.3-10.4-5.7-20.9-6.5-31.7c-0.4-5.3-0.3-10.7-1.6-15.7c-3.5-13.1-7.6-26-11.7-39
			c-0.8-2.6-2.2-5.1-3.8-7.3c-4.7-6.5-11.1-8.7-18.6-5.9c-4.9,1.8-9.6,4.4-14.2,6.9c-7.9,4.3-15.5,9.3-23.7,13.3
			c-10.2,4.9-20.9,8.8-31.1,13.6c-2.4,1.1-5.3,4-5.7,6.4C324.5-256.9,325.1-249.2,331.4-243.6z"/>
		<path fill="#F9F18F" d="M366.8-212.9c-12.2-9.8-23.7-20.3-35.4-30.7c-6.3-5.6-7-13.3-5.6-21c0.4-2.5,3.3-5.3,5.7-6.4
			c10.2-4.8,20.9-8.7,31.1-13.6c8.1-3.9,15.7-8.9,23.7-13.3c4.6-2.5,9.3-5.1,14.2-6.9c7.4-2.8,13.9-0.6,18.6,5.9
			c1.6,2.2,3,4.8,3.8,7.3c4.1,12.9,8.2,25.9,11.7,39c1.4,5,1.2,10.5,1.6,15.7c0.9,10.9,3.2,21.4,6.5,31.7c1.1,3.6,2,7.3,2.4,11
			c0.6,6.7-1.4,9.1-8,10.5c-2,0.4-4,0.6-6.5,0.9c-2.8-0.5-6.1-0.8-9.2-1.7c-11.8-3.7-23.2-8.1-33.4-15.4
			C381.2-204.6,373.2-207.7,366.8-212.9z M397.9-284.3c0.6,4.9,1.2,9.3,1.7,14c1.1-0.1,2.4-0.2,3.7-0.3c0.3-5.7,2.8-11.1-0.9-16.3
			C400.6-285.8,399.2-285,397.9-284.3z M393.9-238c2,7,13.5,14,20.4,13C407.4-229.4,401.3-233.3,393.9-238z M361.8-255.1
			c-0.1-0.7-2.1-1.1-4.3-2.1c1.9,6.9,3.5,12.6,5.1,18.3C366.7-244.8,362.6-249.8,361.8-255.1z"/>
		<path d="M403.3-270.5c0.3-5.7,2.8-11.1-0.9-16.3c-1.8,1-3.2,1.8-4.5,2.5c0.6,4.9,1.2,9.3,1.7,14
			C400.7-270.3,402-270.4,403.3-270.5z"/>
		<path d="M414.4-225c-6.9-4.4-13-8.3-20.4-13C395.9-231.1,407.4-224,414.4-225z"/>
		<path d="M357.5-257.2c1.9,6.9,3.5,12.6,5.1,18.3c4.1-6,0.1-10.9-0.8-16.2C361.7-255.8,359.7-256.2,357.5-257.2z"/>
		<path d="M560-642.5c-5.5-10.3-2.7-19.5,7.1-25.9c10-6.6,20.8-10.9,32.1-14.7c6-2,11.1-6.7,16.8-9.8c6.6-3.6,13-7.8,20.1-10.1
			c12.3-4,23.1-0.6,28.4,12.6c3.9,9.5,7.1,19.5,9.1,29.5c4.7,23.2,8.6,46.5,12.8,69.8c0.2,1.2,0.5,2.5,0.6,3.7
			c0.5,8.4-5.2,14.5-13.6,14.5c-1.3,0-2.5-0.2-4.5-0.4c-11.5,1.3-22.2-3.8-32.3-9.3c-13-7-25.9-14.7-37.8-23.4
			c-11.5-8.4-21.9-18.5-32.6-28C563.7-636.4,561.6-639.4,560-642.5z M569.3-637.7c11.6,10.4,23.2,21,35.4,30.7
			c6.4,5.1,14.4,8.2,21.1,13c10.2,7.3,21.6,11.8,33.4,15.4c3.1,1,6.4,1.2,9.2,1.7c2.5-0.3,4.5-0.5,6.5-0.9c6.6-1.4,8.6-3.8,8-10.5
			c-0.3-3.7-1.2-7.5-2.4-11c-3.3-10.4-5.7-20.9-6.5-31.7c-0.4-5.3-0.3-10.7-1.6-15.7c-3.5-13.1-7.6-26-11.7-39
			c-0.8-2.6-2.2-5.1-3.8-7.3c-4.7-6.5-11.1-8.7-18.6-5.9c-4.9,1.8-9.6,4.4-14.2,6.9c-7.9,4.3-15.5,9.3-23.7,13.3
			c-10.2,4.9-20.9,8.8-31.1,13.6c-2.4,1.1-5.3,4-5.7,6.4C562.3-651.1,563-643.4,569.3-637.7z"/>
		<path fill="#F9F18F" d="M563.7-658.7c0.4-2.5,3.3-5.3,5.7-6.4c10.2-4.8,20.9-8.7,31.1-13.6c8.1-3.9,15.7-8.9,23.7-13.3
			c4.6-2.5,9.3-5.1,14.2-6.9c7.4-2.8,13.9-0.6,18.6,5.9c1.6,2.2,3,4.8,3.8,7.3c4.1,12.9,8.2,25.9,11.7,39c1.4,5,1.2,10.5,1.6,15.7
			c0.9,10.9,3.2,21.4,6.5,31.7c1.1,3.6,2,7.3,2.4,11c0.6,6.7-1.4,9.1-8,10.5c-2,0.4-4,0.6-6.5,0.9c-2.8-0.5-6.1-0.8-9.2-1.7
			c-11.8-3.7-23.2-8.1-33.4-15.4c-6.7-4.8-14.7-7.9-21.1-13c-12.2-9.8-23.7-20.3-35.4-30.7C563-643.4,562.3-651.1,563.7-658.7z
			 M635.7-678.4c0.6,4.9,1.2,9.3,1.7,14c1.1-0.1,2.4-0.2,3.7-0.3c0.3-5.7,2.8-11.1-0.9-16.3C638.5-679.9,637-679.1,635.7-678.4z
			 M631.8-632.2c2,7,13.5,14,20.4,13C645.3-623.6,639.2-627.4,631.8-632.2z M595.3-651.3c1.9,6.9,3.5,12.6,5.1,18.3
			c4.1-6,0.1-10.9-0.8-16.2C599.5-649.9,597.5-650.3,595.3-651.3z"/>
		<path d="M641.2-664.7c0.3-5.7,2.8-11.1-0.9-16.3c-1.8,1-3.2,1.8-4.5,2.5c0.6,4.9,1.2,9.3,1.7,14
			C638.5-664.5,639.9-664.6,641.2-664.7z"/>
		<path d="M652.2-619.2c-6.9-4.4-13-8.3-20.4-13C633.8-625.2,645.3-618.2,652.2-619.2z"/>
		<path d="M599.7-649.2c-0.1-0.7-2.1-1.1-4.3-2.1c1.9,6.9,3.5,12.6,5.1,18.3C604.6-639,600.5-644,599.7-649.2z"/>
		<path d="M78.6-446.8c-11.5-8.4-21.9-18.5-32.6-28c-2.6-2.3-4.7-5.3-6.3-8.4c-5.5-10.3-2.7-19.5,7.1-25.9
			c10-6.6,20.8-10.9,32.1-14.7c6-2,11.1-6.7,16.8-9.8c6.6-3.6,13-7.8,20.1-10.1c12.3-4,23.1-0.6,28.4,12.6
			c3.9,9.5,7.1,19.5,9.1,29.5c4.7,23.2,8.6,46.5,12.8,69.8c0.2,1.2,0.5,2.5,0.6,3.7c0.5,8.4-5.2,14.5-13.6,14.5
			c-1.3,0-2.5-0.2-4.5-0.4c-11.5,1.3-22.2-3.8-32.3-9.3C103.4-430.5,90.6-438.1,78.6-446.8z M49-478.5c11.6,10.4,23.2,21,35.4,30.7
			c6.4,5.1,14.4,8.2,21.1,13c10.2,7.3,21.6,11.8,33.4,15.4c3.1,1,6.4,1.2,9.2,1.7c2.5-0.3,4.5-0.5,6.5-0.9c6.6-1.4,8.6-3.8,8-10.5
			c-0.3-3.7-1.2-7.5-2.4-11c-3.3-10.4-5.7-20.9-6.5-31.7c-0.4-5.3-0.3-10.7-1.6-15.7c-3.5-13.1-7.6-26-11.7-39
			c-0.8-2.6-2.2-5.1-3.8-7.3c-4.7-6.5-11.1-8.7-18.6-5.9c-4.9,1.8-9.6,4.4-14.2,6.9c-7.9,4.3-15.5,9.3-23.7,13.3
			c-10.2,4.9-20.9,8.8-31.1,13.6c-2.4,1.1-5.3,4-5.7,6.4C42.1-491.8,42.7-484.1,49-478.5z"/>
		<path fill="#F9F18F" d="M84.4-447.8c-12.2-9.8-23.7-20.3-35.4-30.7c-6.3-5.6-7-13.3-5.6-21c0.4-2.5,3.3-5.3,5.7-6.4
			c10.2-4.8,20.9-8.7,31.1-13.6c8.1-3.9,15.7-8.9,23.7-13.3c4.6-2.5,9.3-5.1,14.2-6.9c7.4-2.8,13.9-0.6,18.6,5.9
			c1.6,2.2,3,4.8,3.8,7.3c4.1,12.9,8.2,25.9,11.7,39c1.4,5,1.2,10.5,1.6,15.7c0.9,10.9,3.2,21.4,6.5,31.7c1.1,3.6,2,7.3,2.4,11
			c0.6,6.7-1.4,9.1-8,10.5c-2,0.4-4,0.6-6.5,0.9c-2.8-0.5-6.1-0.8-9.2-1.7c-11.8-3.7-23.2-8.1-33.4-15.4
			C98.8-439.5,90.8-442.6,84.4-447.8z M115.5-519.2c0.6,4.9,1.2,9.3,1.7,14c1.1-0.1,2.4-0.2,3.7-0.3c0.3-5.7,2.8-11.1-0.9-16.3
			C118.2-520.7,116.8-519.9,115.5-519.2z M111.5-472.9c2,7,13.5,14,20.4,13C125-464.3,118.9-468.2,111.5-472.9z M79.4-490
			c-0.1-0.7-2.1-1.1-4.3-2.1c1.9,6.9,3.5,12.6,5.1,18.3C84.3-479.7,80.2-484.7,79.4-490z"/>
		<path d="M120.9-505.4c0.3-5.7,2.8-11.1-0.9-16.3c-1.8,1-3.2,1.8-4.5,2.5c0.6,4.9,1.2,9.3,1.7,14
			C118.3-505.2,119.6-505.3,120.9-505.4z"/>
		<path d="M132-459.9c-6.9-4.4-13-8.3-20.4-13C113.5-466,125-458.9,132-459.9z"/>
		<path d="M75.1-492.1c1.9,6.9,3.5,12.6,5.1,18.3c4.1-6,0.1-10.9-0.8-16.2C79.3-490.7,77.3-491.1,75.1-492.1z"/>
		<path d="M236.4-753.4c10.2,2.7,20.6,4.5,30.9,6.5c6.4,1.3,12.9,2.1,19.3,3.5c8.1,1.9,16.1,4.1,24,6.4c7.8,2.2,13.1-4,13.5-10.3
			c0.2-4,0-8.1,0-12.1c0.4,0,0.8-0.1,1.2-0.1c-1.2-8.5-1.9-17.2-3.7-25.6h-5c0.1,0.4,0.2,0.7,0.3,1.1c1.6,5.2,2.9,10.7,3,16.2
			c0.2,6.5-0.7,13-1.6,19.4c-0.8,6-2.7,7.2-8.5,6.4c-1.5-0.2-3.2-0.2-4.4-0.9c-12.6-6.8-26.7-6.2-40.3-8.2
			c-10.2-1.5-20.4-3-30.1-6.8c-7.4-2.9-7.4-2.8-7.5-10.6c0-6,2.4-11.9,6.6-16.5h-5.5c-0.8,1.1-1.5,2.1-2.1,3.3
			C220.3-769.8,220-757.8,236.4-753.4z"/>
		<path fill="#F9F18F" d="M227.7-768.5c0-6,2.4-11.9,6.6-16.5h42c-0.1,0.2-0.1,0.3-0.2,0.5c0.2-0.2,0.3-0.3,0.4-0.5h40.2
			c0.1,0.4,0.2,0.7,0.3,1.1c1.6,5.2,2.9,10.7,3,16.2c0.2,6.5-0.7,13-1.6,19.4c-0.8,6-2.7,7.2-8.5,6.4c-1.5-0.2-3.2-0.2-4.4-0.9
			c-12.6-6.8-26.7-6.2-40.3-8.2c-10.2-1.5-20.4-3-30.1-6.8C227.8-760.8,227.7-760.7,227.7-768.5z M292.4-771.3c2.8,0.5,5.4,1,8,1.6
			c2.6,0.6,5.1,1.3,9.1,2.3C301.3-772.9,296.8-773.8,292.4-771.3z M244.9-774c4.8,2.7,9.2,5.1,13.6,7.6
			C255.5-772.6,251.6-775,244.9-774z"/>
		<path d="M309.4-767.5c-8.1-5.4-12.6-6.3-17-3.8c2.8,0.5,5.4,1,8,1.6C302.9-769.2,305.4-768.5,309.4-767.5z"/>
		<path d="M244.9-774c4.8,2.7,9.2,5.1,13.6,7.6C255.5-772.6,251.6-775,244.9-774z"/>
		<path d="M276.5-785h-0.2c-0.1,0.2-0.1,0.3-0.2,0.5C276.2-784.7,276.3-784.8,276.5-785z"/>
		<path d="M623.8-12.7c-10-12.1-22.5-21.5-34.3-31.7c-11.3-9.7-23.1-18.8-36.6-25.1c-17.6-8.3-24.3-5.9-31.3,12
			c-0.2,0.5-0.4,0.9-0.5,1.4c-5.8,18.3-7.3,37.1-8,56.1h4.8c0.5-7.3,1.2-14.7,2-22c1.5-12.2,4.7-24.2,7.3-36.2
			c0.4-1.9,1.2-3.9,2-5.7c2.5-5.2,4.7-6.2,10.1-4.7c8.2,2.3,15.1,6.4,22.3,10.6c11.8,6.9,23,14.5,33.1,23.7
			c9.9,9,19.4,18.3,28.6,27.9c2.1,2.1,3.4,4.2,4.2,6.3h4.2c-1-3.1-2.7-6.3-5.1-9.3C625.8-10.5,624.8-11.6,623.8-12.7z"/>
		<path fill="#F9F18F" d="M623.4-6.3c2.1,2.1,3.4,4.2,4.2,6.3h-30.3c-1.9-1.3-4.2-2.3-7.1-2.3c1,0.8,1.9,1.6,2.7,2.3h-75.1
			c0.5-7.3,1.2-14.7,2-22c1.5-12.2,4.7-24.2,7.3-36.2c0.4-1.9,1.2-3.9,2-5.7c2.5-5.2,4.7-6.2,10.1-4.7c8.2,2.3,15.1,6.4,22.3,10.6
			c11.8,6.9,23,14.5,33.1,23.7C604.6-25.3,614.2-15.9,623.4-6.3z M534.4-23.9c1.8,7.7,3.4,14.7,5.1,21.6
			C543.6-7.3,541.7-16,534.4-23.9z M577.3-27.8c-3,7.3-6,14.6-9.4,22.8C575.2-10.1,579.2-20.4,577.3-27.8z"/>
		<path d="M567.9-5c7.2-5.2,11.2-15.4,9.4-22.8C574.3-20.5,571.3-13.2,567.9-5z"/>
		<path d="M539.5-2.3c4.1-5,2.2-13.7-5.1-21.6C536.2-16.2,537.9-9.2,539.5-2.3z"/>
		<path d="M592.9,0h4.4c-1.9-1.3-4.2-2.3-7.1-2.3C591.2-1.4,592.1-0.7,592.9,0z"/>
		<path d="M178.5-57.1c-1.9-5.6-5.2-8.5-10.5-9.4c-2.9-0.5-6-0.8-9-0.5c-16.8,1.6-33.5,3.4-49.7,8.7C99-55,88.6-52.2,78.5-48.3
			c-10.5,4-19.3,10.7-25.8,20.2c-4.1,6-3.6,11.7-0.8,17.2C53.8-7.5,56.6-3.7,60,0h8.6c-2.6-2.3-5.3-4.6-7.9-7
			c-2.2-1.9-3.7-4.7-5.1-7.3c-2.5-4.8-1.6-9.2,1.9-13.3c4.5-5.2,9-10.3,15.3-13.6c7.2-2.9,14.2-6.3,21.6-8.5
			c19.8-6,39.8-10.8,60.5-12.7c0.2,0,0.5-0.1,0.7-0.1c16.1-1.5,19.9,0.2,20.9,17.6c0.8,15,1,30,1.1,45h7.8
			c-0.5-9.9-1.6-19.8-2.5-29.7C182-38.9,181.6-48.1,178.5-57.1z"/>
		<path fill="#F9F18F" d="M176.4-45c0.8,15,1,30,1.1,45h-71.6c-3.3-2-6.9-3.4-11-3.2c-0.2,0.5-0.3,1.1-0.5,1.6
			C95.7-1.1,97-0.5,98.3,0H68.6c-2.6-2.3-5.3-4.6-7.9-7c-2.2-1.9-3.7-4.7-5.1-7.3c-2.5-4.8-1.6-9.2,1.9-13.3
			c4.5-5.2,9-10.3,15.3-13.6c7.2-2.9,14.2-6.3,21.6-8.5c19.8-6,39.8-10.8,60.5-12.7c0.2,0,0.5-0.1,0.7-0.1
			C171.6-64.1,175.4-62.5,176.4-45z M113.8-34.4c-2.6-3.1-4.6-6.9-10.5-5.9c3,2.5,6,4.9,9.1,7.4C112.8-33.5,113.3-33.9,113.8-34.4z
			 M138.4-26.7c-1.2,6.1-2.2,11.4-3.3,16.7C140.1-16.6,140.9-21.6,138.4-26.7z M164.8-34.2c0-0.9-0.1-1.8-0.1-2.7
			c-2.7,0.5-5.4,0.9-8.1,1.4c0,0.5,0.1,1,0.1,1.5C159.4-34.1,162.1-34.2,164.8-34.2z"/>
		<path d="M135.1-10c5-6.7,5.8-11.6,3.3-16.7C137.2-20.6,136.2-15.3,135.1-10z"/>
		<path d="M94.4-1.6C95.7-1.1,97-0.5,98.3,0h7.6c-3.3-2-6.9-3.4-11-3.2C94.7-2.7,94.5-2.1,94.4-1.6z"/>
		<path d="M103.3-40.3c3,2.5,6,4.9,9.1,7.4c0.5-0.5,0.9-1,1.4-1.4C111.1-37.5,109.1-41.3,103.3-40.3z"/>
		<path d="M156.6-35.6c0,0.5,0.1,1,0.1,1.5c2.7-0.1,5.4-0.1,8.1-0.2c0-0.9-0.1-1.8-0.1-2.7C162-36.5,159.3-36,156.6-35.6z"/>
		<path d="M314.4-22.6C309.1-33.6,300.6-39.3,288-33c-3.3,1.7-7.2,2.3-10.6,4c-13.2,6.7-26.4,13.3-39.2,20.7c-3.5,2-7,5-9.5,8.3h5.5
			c2.9-3.2,6.6-5.7,10.9-7.1c7.1-2.3,13-6.2,19.2-10c8.5-5.2,17.9-9.1,27.3-12.7c5.6-2.2,11-0.1,14.3,5.4c1.8,3,3.4,6.2,4.7,9.4
			c2.1,5,4.4,9.9,6,15h5c0-0.2-0.1-0.3-0.1-0.5C319.9-8,317.8-15.7,314.4-22.6z"/>
		<path fill="#F9F18F" d="M305.9-24.4c-3.3-5.5-8.7-7.5-14.3-5.4c-9.4,3.6-18.8,7.5-27.3,12.7c-6.2,3.8-12.2,7.7-19.2,10
			c-4.3,1.4-8,3.9-10.9,7.1h42c2.6-6.3,6-9.7,11.3-11.9c-3.6,3.9-6.8,7.3-11,11.9h40.2c-1.6-5.1-3.9-10.1-6-15
			C309.3-18.2,307.8-21.4,305.9-24.4z"/>
		<path d="M276.2,0h0.2c4.2-4.5,7.4-8,11-11.9C282.2-9.7,278.9-6.3,276.2,0z"/>
		<path d="M735.1-89.2c0.2,7.7-1.1,15.6-2.7,23.2c-1.9,8.5-4.9,16.8-7.4,25.2c-0.4-0.1-0.8-0.3-1.1-0.4c-1.7,3.7-3.2,7.4-5.1,11
			c-3,5.6-10.4,8.9-16.6,3.7c-6.3-5.3-12.6-10.7-19.2-15.8c-5.2-4-10.7-7.4-16-11.3c-8.5-6.2-17.3-12.1-25.4-18.9
			c-13.1-10.9-7.8-21.6,2.9-29.9c4.2-3.2,10.1-5.1,15.4-5.6c14.7-1.4,29.5-1.8,44.3-2.4c3.7-0.2,7.5,0.9,11.3,0.8
			C729.5-110.1,734.8-101.3,735.1-89.2z M728.2-94.3c-0.7-6.4-4.7-10.5-10.8-10.8c-10-0.6-20.2-1-30.1,0.1c-7.3,0.9-14.3,1.9-21.7,1
			c-10.9-1.3-21.6,4.9-25.8,14.1c-3.2,7.1-3.1,7.1,2.4,12.8c7.2,7.5,15.8,13.1,24.5,18.8c11.5,7.5,24.6,12.8,33.2,24.3
			c0.9,1.1,2.4,1.8,3.6,2.6c5,3.2,7.3,2.9,10.4-2.2c3.4-5.5,7-11.1,9.5-17c2.1-5,3.2-10.5,4-15.9c0.8-5.7,0.8-11.5,1-17.3
			C728.6-87.3,728.5-90.9,728.2-94.3z"/>
		<path fill="#F9F18F" d="M728.2-94.3c0.4,3.5,0.5,7,0.4,10.5c-0.1,5.8-0.1,11.6-1,17.3c-0.8,5.4-1.9,11-4,15.9
			c-2.5,5.9-6.1,11.5-9.5,17c-3.2,5.1-5.5,5.4-10.4,2.2c-1.3-0.8-2.8-1.5-3.6-2.6c-8.6-11.5-21.7-16.8-33.2-24.3
			c-8.7-5.6-17.3-11.3-24.5-18.8c-5.5-5.7-5.6-5.6-2.4-12.8c4.2-9.3,14.9-15.4,25.8-14.1c7.4,0.9,14.4-0.2,21.7-1
			c9.9-1.2,20.1-0.8,30.1-0.1C723.4-104.8,727.5-100.7,728.2-94.3z M667.1-75c-0.1-6.9-2.7-10.7-9.2-12.6
			C661.1-83.2,664.1-79.2,667.1-75z M706.1-90.6c-5.9-0.2-10.4,1.5-15.6,6.4C696.6-86.7,701.1-88.5,706.1-90.6z M713.8-54.8
			c-5.1-8.3-8.8-11-13.9-10.6c2.3,1.7,4.5,3.2,6.6,4.8C708.6-59,710.6-57.4,713.8-54.8z"/>
		<path d="M699.9-65.4c2.3,1.7,4.5,3.2,6.6,4.8c2.1,1.6,4.1,3.3,7.3,5.9C708.7-63.1,704.9-65.8,699.9-65.4z"/>
		<path d="M657.9-87.7c3.2,4.4,6.2,8.5,9.2,12.6C667-82,664.4-85.7,657.9-87.7z"/>
		<path d="M690.6-84.2c6-2.5,10.5-4.3,15.6-6.4C700.3-90.8,695.7-89.1,690.6-84.2z"/>
		<path d="M36.3-591.2c9.4-4,19-7.7,29.3-9.6c9.9-1.8,19-6.9,24.1-15.6c7.7-13.2,7.7-27.3,0.7-41.2c-6.7-13.3-17.8-23.2-28.1-33.3
			c-13.1-12.8-27.6-24.2-41.9-35.6c-6.3-5-13.2-9.2-20.2-13v7.3c18.1,13.1,36.1,26.4,54,39.8c2.8,2.1,4.8,5.1,7.1,7.8
			c5.2,6.1,10.1,12.6,15.7,18.3c8.6,8.7,12.8,19.3,13.5,31.1c0.6,9.4-5.1,22.6-20.2,28.1c-4.5,1.6-9,3-13.6,4.5
			c-11.2,3.7-22.4,7.4-33.6,11.1c-7.5,2.5-15.2,2.7-23,2.6v5.9c0.9-0.1,1.8-0.2,2.6-0.4C14-585.3,25.4-586.6,36.3-591.2z"/>
		<path fill="#F9F18F" d="M0-588.9v-143.3c18.1,13.1,36.1,26.4,54,39.8c2.8,2.1,4.8,5.1,7.1,7.8c5.2,6.1,10.1,12.6,15.7,18.3
			c8.6,8.7,12.8,19.3,13.5,31.1c0.6,9.4-5.1,22.6-20.2,28.1c-4.5,1.6-9,3-13.6,4.5c-11.2,3.7-22.4,7.4-33.6,11.1
			C15.4-589.1,7.8-588.9,0-588.9z M43.1-619.7c3.1,3.1,11.9,4.4,18.8,2.5c1-0.3,1.6-1.8,2.5-3C55.4-622.7,47.4-622.5,43.1-619.7z
			 M22.7-664.3c4.8,5.3,23,14.8,26.7,13.9C41.3-656.3,32.8-661.8,22.7-664.3z"/>
		<path d="M61.8-617.2c1-0.3,1.6-1.8,2.5-3c-9-2.5-17-2.3-21.3,0.5C46.2-616.6,54.9-615.3,61.8-617.2z"/>
		<path d="M49.4-650.4c-8.2-6-16.7-11.4-26.7-13.9C27.5-659,45.8-649.5,49.4-650.4z"/>
		<path d="M19.2-111.4c4.4-4.1,9-8,13.1-12.3c7.1-7.5,13.6-15.5,20.9-22.9c8-8.1,14.8-17.1,20.7-26.8c3.2-5.2,3.2-10.3-0.3-14.8
			c-4.2-5.3-8.6-10.7-14-14.5c-9-6.4-18.7-11.9-28.5-17c-10.3-5.4-20.7-10.7-31.1-15.9v6c10.5,5,21,9.9,31.5,14.8
			c0.2,0.1,0.5,0.2,0.7,0.3c11.1,8.1,22.5,16,33.4,24.5c8.2,6.4,8.7,10.2,2.3,18.4c-7.3,9.3-14.5,18.6-23.6,26.4
			c-4.9,4.2-9.3,9.2-13.1,14.4c-6.1,8.3-14.5,13.9-22.3,20.2c-2.6,2.1-5.7,3.7-8.8,5.4v5.5c4.9-0.8,9.7-3.1,13.7-6.7
			C15.5-108.1,17.4-109.7,19.2-111.4z"/>
		<path fill="#F9F18F" d="M8.8-110.5c-2.6,2.1-5.7,3.7-8.8,5.4v-15.3c0.1-0.8,0.1-1.3,0-1.6v-107.5c10.5,5,21,9.9,31.5,14.8
			c0.2,0.1,0.5,0.2,0.7,0.3c11.1,8.1,22.5,16,33.4,24.5c8.2,6.4,8.7,10.2,2.3,18.4c-7.3,9.3-14.5,18.6-23.6,26.4
			c-4.9,4.2-9.3,9.2-13.1,14.4C25-122.3,16.6-116.8,8.8-110.5z M15.5-199.6c4,3.7,7.6,7.1,11.2,10.6c7.1,6.8,7.9,7.3,11.9,6.6
			c-6.2-6.9-12.4-13.8-19.2-21.3C18.3-202.6,17.2-201.4,15.5-199.6z M8.3-153.8c0.8,2.1,3.3,3,4.7,1.4c-2.8-7.9-5.3-15.1-8-23
			c-1,1.5-2.2,2.4-2,3C4.5-166.2,6.1-159.9,8.3-153.8z"/>
		<path d="M38.6-182.5c-6.2-6.9-12.4-13.8-19.2-21.3c-1.1,1.2-2.2,2.4-3.9,4.2c4,3.7,7.6,7.1,11.2,10.6
			C33.8-182.2,34.6-181.7,38.6-182.5z"/>
		<path d="M0-122.1v1.6C0.1-121.2,0.1-121.8,0-122.1z"/>
		<path d="M13-152.4c-2.8-7.9-5.3-15.1-8-23c-1,1.5-2.2,2.4-2,3c1.6,6.3,3.2,12.6,5.4,18.6C9.1-151.7,11.6-150.8,13-152.4z"/>
		<path d="M16.5-426.6c-0.7-8.3-3.8-15.7-8.6-22.3c-2.8-3.8-5.4-7.8-7.9-11.8v9c3.4,5.5,6.8,11,10,16.6c1.3,2.3,1.5,5.2,2.3,8.4
			c-4.1,0.9-8.2,1.6-12.3,2.3v5.7c5.5-0.8,11-1.9,16.5-3.4C16.5-423.7,16.6-425.1,16.5-426.6z"/>
		<path fill="#F9F18F" d="M10-435.1c-3.2-5.6-6.5-11.1-10-16.6v27.3c4.1-0.7,8.2-1.4,12.3-2.3C11.4-429.9,11.2-432.8,10-435.1z"/>
		<path d="M32.2-280.5c7.8,2.2,13.1-4,13.5-10.3c0.2-4,0-8.1,0-12.1c0.4,0,0.8-0.1,1.2-0.1c-1.2-8.7-1.9-17.5-3.8-26
			c-1.7-7.6-3.8-15.2-7.2-22.2c-5.3-10.9-13.8-16.7-26.4-10.4c-3,1.5-6.4,2.2-9.5,3.5v5.1c4.3-1.9,8.7-3.7,13.2-5.4
			c5.6-2.2,11-0.1,14.3,5.4c1.8,3,3.4,6.2,4.7,9.4c2.3,5.3,4.7,10.6,6.3,16.1c1.6,5.2,2.9,10.7,3,16.2c0.2,6.5-0.7,13-1.6,19.4
			c-0.8,6-2.7,7.2-8.5,6.4c-1.5-0.2-3.2-0.2-4.4-0.9c-8.5-4.6-17.8-5.8-27-6.7v4.7c2.7,0.5,5.4,1,8.1,1.6
			C16.2-285,24.2-282.7,32.2-280.5z"/>
		<path fill="#F9F18F" d="M27-286.4c-8.5-4.6-17.8-5.8-27-6.7v-37.6c3.3-3.5,6-6.4,9-9.7c-3.9,1.6-6.7,3.9-9,7.5v-20
			c4.3-1.9,8.7-3.7,13.2-5.4c5.6-2.2,11-0.1,14.3,5.4c1.8,3,3.4,6.2,4.7,9.4c2.3,5.3,4.7,10.6,6.3,16.1c1.6,5.2,2.9,10.7,3,16.2
			c0.2,6.5-0.7,13-1.6,19.4c-0.8,6-2.7,7.2-8.5,6.4C30-285.7,28.3-285.7,27-286.4z M21.9-313.3c2.6,0.6,5.1,1.3,9.1,2.3
			c-8.1-5.4-12.6-6.3-17-3.8C16.7-314.3,19.3-313.9,21.9-313.3z"/>
		<path d="M13.9-314.9c2.8,0.5,5.4,1,8,1.6c2.6,0.6,5.1,1.3,9.1,2.3C22.8-316.5,18.3-317.4,13.9-314.9z"/>
		<path d="M0-333v2.2c3.3-3.5,6-6.4,9-9.7C5.1-338.8,2.3-336.5,0-333z"/>
		<path d="M765.2-746c-7.9-0.9-13.7,3.6-15.1,11.4c-1.8,9.9-3.1,19.9-4.2,29.8c-1,8.7-1.5,17.5-2.2,26.2c0.5,0,1.1,0,1.6,0.1
			c0,8.6-0.5,17.1,0.1,25.7c1.2,16,0.9,32.2,5.2,47.9c3.2,11.4,10.4,18.5,22.1,21.4c4.2,1,8.3,1,12.3,0.5v-5.9
			c-1.8,0-3.6-0.1-5.5-0.1c-14-0.3-22.1-10.4-25.2-20.2c-3.5-11-3.1-22.4-4-33.6c-1-12.3-1.3-24.6-2.1-39.2
			c0.4-5.3,0.9-12.9,1.7-20.3c0.9-8.3,2.1-16.5,3.2-24.7c0.3-2.5,0.7-5,1.6-7.4c2.2-6.1,7.7-9,13.9-6.8c4.7,1.7,9.4,3.9,13.4,6.8
			c1,0.7,2.1,1.5,3.1,2.2v-7.3c-1.1-0.6-2.2-1.2-3.3-1.8C776.7-743.9,770.8-745.3,765.2-746z"/>
		<path fill="#F9F18F" d="M781.9-734.5c1,0.7,2.1,1.5,3.1,2.2v143.3c-1.8,0-3.6-0.1-5.5-0.1c-14-0.3-22.1-10.4-25.2-20.2
			c-3.5-11-3.1-22.4-4-33.6c-1-12.3-1.3-24.6-2.1-39.2c0.4-5.3,0.9-12.9,1.7-20.3c0.9-8.3,2.1-16.5,3.2-24.7c0.3-2.5,0.7-5,1.6-7.4
			c2.2-6.1,7.7-9,13.9-6.8C773.2-739.5,777.9-737.4,781.9-734.5z M775.3-706.3c2.1-2.1,5.5-3.7,4.6-7.7c-4.6,0.3-14,9.8-17.9,17.8
			C765.6-696.8,765.7-696.7,775.3-706.3z M783.8-622.8c-1.4-6.8-3.2-13.6-4.9-20.4c-0.4-1.5-1.3-3-2.8-6.1c-1,3.1-2,4.6-1.8,6
			c1,6.9,2.2,13.7,3.4,20.6c0.5,2.8,1.1,5.3,5.5,6.2C783.5-618.8,784.2-620.9,783.8-622.8z"/>
		<path d="M776.2-649.2c-1,3.1-2,4.6-1.8,6c1,6.9,2.2,13.7,3.4,20.6c0.5,2.8,1.1,5.3,5.5,6.2c0.3-2.3,1-4.4,0.6-6.3
			c-1.4-6.8-3.2-13.6-4.9-20.4C778.5-644.7,777.6-646.1,776.2-649.2z"/>
		<path d="M779.9-714.1c-4.6,0.3-14,9.8-17.9,17.8c3.6-0.5,3.6-0.4,13.3-10.1C777.4-708.4,780.8-710,779.9-714.1z"/>
		<path d="M741.7-254.2c-0.8,0.8-1.5,2.1-2.5,2.6c-8.2,4.2-8.3,11-6.4,18.7c0.9,3.6,1.3,7.4,1.8,11.1c2.6,17.4,4.7,34.9,8,52.2
			c2.6,13.6,6.5,26.9,10.3,40.2c1.5,5.5,3.7,11,6.4,16c2,3.7,4.8,7.3,8.2,9.7c5.2,3.8,11.5,5,17.6,4v-5.5c-0.5,0.3-0.9,0.5-1.4,0.8
			c-1.1,0.6-2.4,0.6-3.8,0.8c-6.9-1.8-13.5-4.1-16.1-11.9c-2.5-7.6-4.8-15.4-7.6-22.9c-9.8-27-14.4-55-17.2-83.4
			c-0.4-4.5-1.3-9-1.6-13.5c-0.1-2.5,0.4-5,1-7.5c1.1-3.9,2.9-5.2,6.6-4.2c7.5,2.2,15.1,3.9,21.8,8.2c5.5,3.5,11.6,5.9,17.6,8.8
			c0.2,0.1,0.5,0.2,0.7,0.3v-6c-6.2-3.1-12.5-6.1-18.7-9.1C758.4-248.5,751-253.7,741.7-254.2z"/>
		<path fill="#F9F18F" d="M784.3-229.9c0.2,0.1,0.5,0.2,0.7,0.3v107.5c0-0.1,0-0.1-0.1-0.2c-5.1-6.4-10.2-12.9-15.5-19.2
			c-0.6-0.7-2.3-0.4-4.8-0.7c6.6,8.7,11.9,16.5,20.3,22.9c0-0.5,0-0.9,0-1.3v15.3c-0.5,0.3-0.9,0.5-1.4,0.8
			c-1.1,0.6-2.4,0.6-3.8,0.8c-6.9-1.8-13.5-4.1-16.1-11.9c-2.5-7.6-4.8-15.4-7.6-22.9c-9.8-27-14.4-55-17.2-83.4
			c-0.4-4.5-1.3-9-1.6-13.5c-0.1-2.5,0.4-5,1-7.5c1.1-3.9,2.9-5.2,6.6-4.2c7.5,2.2,15.1,3.9,21.8,8.2
			C772.2-235.1,778.4-232.7,784.3-229.9z M780.5-203.3c-1.8-2.5-2.3-3.9-3.2-4.3c-3-1.4-16.4-1.5-19.5-0.4c-0.1,0.6-0.2,1.2-0.3,1.7
			C764.6-205.3,771.7-204.4,780.5-203.3z"/>
		<path d="M769.4-141.4c-0.6-0.7-2.3-0.4-4.8-0.7c6.6,8.7,11.9,16.5,20.3,22.9c0-0.5,0-0.9,0-1.3v-1.6c0-0.1,0-0.1-0.1-0.2
			C779.8-128.7,774.7-135.1,769.4-141.4z"/>
		<path d="M777.3-207.6c-3-1.4-16.4-1.5-19.5-0.4c-0.1,0.6-0.2,1.2-0.3,1.7c7.1,0.9,14.2,1.8,23,2.9
			C778.7-205.8,778.2-207.2,777.3-207.6z"/>
		<path d="M741.6-528.6c-3.2-4.7-8-5.9-13.4-4.3c-6,1.8-11.2,4.6-14.2,10.4c-7.3,14.3-19.1,25.1-28.4,38c-10,14-19.6,28-27.1,43.4
			c-2.5,5.1-2.2,10.3-1,15.5c0.8,3.3,2.7,5.9,6.5,6.5c2.5,0.4,4.9,1.5,7.3,1.6c6.2,0.4,12.7-0.4,18.7,0.7c19.9,3.7,39.7,0,59.5,0
			c11.7,0,23.4-0.2,35.3-1.9v-5.7c-16.1,2.6-31.7,3.6-47.5,3c-4.8-0.2-9.6,0.5-14.3,0.5c-11.6,0-23.1-0.1-34.7-0.3
			c-4.5-0.1-9.1-0.1-13.6-0.3c-13.5-0.8-17.2-6.5-11.9-18.8c6.1-14.2,15.4-26.5,24.3-39c2.6-3.7,5.3-7.4,7.9-11
			c1.3-1.8,2.3-4.1,4.1-5.4c8.6-6.3,12.6-16.1,18.6-24.3c1.3-1.8,2.6-3.7,4.2-5.3c2.3-2.3,5.5-3.8,8.2-2.1
			c4.6,2.9,10.1,4.5,13.2,9.6c6.8,11.2,13.8,22.2,20.7,33.3c5.8,9.2,11.6,18.2,17.4,27.4c1.1,1.8,2.2,3.5,3.3,5.3v-9
			c-4.8-7.7-9.3-15.5-13.8-23.5C762.5-499.6,751.7-513.9,741.6-528.6z"/>
		<path fill="#F9F18F" d="M781.7-457c1.1,1.8,2.2,3.5,3.3,5.3v27.3c-16.1,2.6-31.7,3.6-47.5,3c-4.8-0.2-9.6,0.5-14.3,0.5
			c-11.6,0-23.1-0.1-34.7-0.3c-4.5-0.1-9.1-0.1-13.6-0.3c-13.5-0.8-17.2-6.5-11.9-18.8c6.1-14.2,15.4-26.5,24.3-39
			c2.6-3.7,5.3-7.4,7.9-11c1.3-1.8,2.3-4.1,4.1-5.4c8.6-6.3,12.6-16.1,18.6-24.3c1.3-1.8,2.6-3.7,4.2-5.3c2.3-2.3,5.5-3.8,8.2-2.1
			c4.6,2.9,10.1,4.5,13.2,9.6c6.8,11.2,13.8,22.2,20.7,33.3C770.1-475.2,775.9-466.2,781.7-457z M724.8-448.3
			c-12.2-2.7-22.5,2.4-23.2,12.3c3.9-2.9,6.5-5.8,9.8-7.2c3.6-1.5,7.7-1.5,11.6-2.4C723.7-445.7,724.1-447.2,724.8-448.3z
			 M742.7-477.8c-5.5-2.3-10.3-3.4-14-6c-3.7-2.5-6.3-6.6-9.5-9.9c-0.5,0.4-0.9,0.7-1.4,1.1c0,0.7-0.3,1.6,0,2.1
			c4.1,7.8,11,12.3,18.9,15.2C738.1-474.8,740.3-476.7,742.7-477.8z M770.1-445.7c-4.9-6.5-12.5-11.5-17.4-11.5
			C756.4-451.3,765.8-445.1,770.1-445.7z"/>
		<path d="M719.3-493.7c-0.5,0.4-0.9,0.7-1.4,1.1c0,0.7-0.3,1.6,0,2.1c4.1,7.8,11,12.3,18.9,15.2c1.3,0.5,3.5-1.4,5.9-2.5
			c-5.5-2.3-10.3-3.4-14-6C725.1-486.4,722.4-490.4,719.3-493.7z"/>
		<path d="M701.6-436c3.9-2.9,6.5-5.8,9.8-7.2c3.6-1.5,7.7-1.5,11.6-2.4c0.8-0.2,1.2-1.7,1.9-2.8C712.6-450.9,702.3-445.9,701.6-436
			z"/>
		<path d="M752.7-457.2c3.6,5.8,13,12.1,17.4,11.5C765.2-452.2,757.6-457.2,752.7-457.2z"/>
		<path d="M744.8-336.9c-4.6,2.7-9.2,6.9-11.6,11.5c-6.3,12-6.7,24,9.8,28.4c10.2,2.7,20.6,4.5,30.9,6.5c3.7,0.7,7.4,1.3,11.1,2
			v-4.7c-4.4-0.4-8.9-0.8-13.2-1.5c-10.2-1.5-20.4-3-30.1-6.8c-7.4-2.9-7.4-2.8-7.5-10.6c-0.1-10.2,7.1-20.2,17.5-23.6
			c7-2.3,13-6.2,19.2-10c4.5-2.7,9.3-5.1,14.1-7.3v-5.1c-0.4,0.2-0.7,0.3-1,0.5C770.8-350.9,757.5-344.3,744.8-336.9z"/>
		<path fill="#F9F18F" d="M770.9-345.7c4.5-2.7,9.3-5.1,14.1-7.3v20c-0.9,1.4-1.7,3-2.5,4.9c0.9-0.9,1.7-1.8,2.5-2.6v37.6
			c-4.4-0.4-8.9-0.8-13.2-1.5c-10.2-1.5-20.4-3-30.1-6.8c-7.4-2.9-7.4-2.8-7.5-10.6c-0.1-10.2,7.1-20.2,17.5-23.6
			C758.7-338,764.6-341.9,770.9-345.7z M765-309.9c-3-6.3-6.9-8.6-13.6-7.6C756.2-314.9,760.6-312.4,765-309.9z"/>
		<path d="M751.4-317.6c4.8,2.7,9.2,5.1,13.6,7.6C762-316.2,758.1-318.5,751.4-317.6z"/>
		<path d="M785-330.7v-2.2c-0.9,1.4-1.7,3-2.5,4.9C783.4-329,784.2-329.9,785-330.7z"/>
		<path d="M486.3-566.1c2.4-4.6,7-8.9,11.6-11.5c12.8-7.4,26-14,39.2-20.7c3.3-1.7,7.2-2.3,10.6-4c12.5-6.3,21.1-0.5,26.4,10.4
			c3.4,6.9,5.5,14.6,7.2,22.2c1.9,8.5,2.6,17.3,3.8,26c-0.4,0-0.8,0.1-1.2,0.1c0,4,0.2,8.1,0,12.1c-0.4,6.3-5.7,12.5-13.5,10.3
			c-8-2.2-16-4.5-24-6.4c-6.4-1.5-12.9-2.3-19.3-3.5c-10.3-2.1-20.8-3.8-30.9-6.5C479.7-542.2,480.1-554.2,486.3-566.1z
			 M487.4-552.9c0.1,7.8,0.1,7.7,7.5,10.6c9.7,3.8,19.9,5.3,30.1,6.8c13.6,2,27.7,1.4,40.3,8.2c1.3,0.7,2.9,0.7,4.4,0.9
			c5.9,0.8,7.8-0.4,8.5-6.4c0.8-6.4,1.8-13,1.6-19.4c-0.2-5.4-1.5-10.9-3-16.2c-1.6-5.5-4.1-10.8-6.3-16.1c-1.4-3.2-2.9-6.4-4.7-9.4
			c-3.3-5.5-8.7-7.5-14.3-5.4c-9.4,3.6-18.8,7.5-27.3,12.7c-6.2,3.8-12.2,7.7-19.2,10C494.5-573.1,487.3-563,487.4-552.9z"/>
		<path fill="#F9F18F" d="M487.4-552.9c-0.1-10.2,7.1-20.2,17.5-23.6c7.1-2.3,13-6.2,19.2-10c8.5-5.2,17.9-9.1,27.3-12.7
			c5.6-2.2,11-0.1,14.3,5.4c1.8,3,3.4,6.2,4.7,9.4c2.3,5.3,4.7,10.6,6.3,16.1c1.6,5.2,2.9,10.7,3,16.2c0.2,6.5-0.7,13-1.6,19.4
			c-0.8,6-2.7,7.2-8.5,6.4c-1.5-0.2-3.2-0.2-4.4-0.9c-12.6-6.8-26.7-6.2-40.3-8.2c-10.2-1.5-20.4-3-30.1-6.8
			C487.5-545.1,487.4-545,487.4-552.9z M552.1-555.7c2.8,0.5,5.4,1,8,1.6c2.6,0.6,5.1,1.3,9.1,2.3
			C561-557.3,556.5-558.2,552.1-555.7z M535.8-568.9c4.4-4.8,7.7-8.3,11.5-12.3C541.8-579,538.4-575.5,535.8-568.9z M504.6-558.4
			c4.8,2.7,9.2,5.1,13.6,7.6C515.3-557,511.3-559.3,504.6-558.4z"/>
		<path d="M569.1-551.9c-8.1-5.4-12.6-6.3-17-3.8c2.8,0.5,5.4,1,8,1.6C562.6-553.6,565.2-552.9,569.1-551.9z"/>
		<path d="M504.6-558.4c4.8,2.7,9.2,5.1,13.6,7.6C515.3-557,511.3-559.3,504.6-558.4z"/>
		<path d="M535.8-568.9c4.4-4.8,7.7-8.3,11.5-12.3C541.8-579,538.4-575.5,535.8-568.9z"/>
	</g>
</pattern>
<rect x="-42" y="-29.9" fill="#F9F18F" width="1298.7" height="940"/>
<rect x="-42" y="-29.9" opacity="0.25" fill="url(#chips_2)" width="1298.7" height="940"/>
<g>
	<text transform="matrix(1 0 0 1 313.4832 374.9824)" font-family="'ModulaOT-SansBlack'" font-size="62.5166px">HINT OF</text>
	<g>
		<g>
			<path d="M937.2,393.2c-1.7-5.6-3.2-11.2-4.6-16.8c-2.2-8.8-5.7-17-11.2-24c-5.5-6.9-12.1-13.1-18.2-19.5c-0.8-0.9-2-1.4-3-2.1
				c-2.2-1.4-4.6-2.6-6.5-4.3c-9.7-8.3-20.9-14.1-32.7-18.3c-18.7-6.6-37.5-13.3-57.8-13c-4.8,0.1-9.4-0.6-14.5,0.9
				c-11,3.3-22.4,5.4-33.8,7.3c-6.6,1.1-12.4,3.5-17.7,7.1c4.3,4.7,8.2,9,12.2,13.2c9.6,10.2,19.3,20.3,28.9,30.4
				c0.7,0.7,1.4,1.4,2.2,2.1c3.1,2.6,6.3,5,9.4,7.7c9.3,8.1,18.3,16.5,28,24.2c10.1,8.1,19.4,17.2,28.6,26.3
				c7,7,14.2,13.7,21.8,20.1c11.9,10.1,23.1,20.9,34.6,31.4c2,1.8,5.2,2.7,6.7,1c3.6-4.1,7.1-8.3,10.2-12.7
				c2.3-3.3,4.1-6.9,5.9-10.5c1.7-3.2,3.4-6.5,4.5-9.9c2.7-8,4.7-16.3,7.8-24.2C940.4,403.8,938.9,398.7,937.2,393.2z M816.1,377.1
				c-3.5-3-6.9-6.1-10.5-8.9c-9.4-7.5-19.2-14.3-28-22.4c-7.5-6.9-15.4-13.7-21.3-23.3c8.8-3,17.1-6.3,27.1-7.4
				c11,20.4,23.5,40.1,34.1,60.9C816.9,376.5,816.5,376.8,816.1,377.1z M787.8,314.8c11.7-2.9,22.3-0.9,33.3,0.4
				c3.2,23,5.2,46,6,70.7C813.2,361.6,805.2,335.6,787.8,314.8z M831.4,389.3c-0.3-4.5-0.8-8.8-0.9-13.1c-0.1-5.2,0.2-10.4,0-15.6
				c-0.2-5-0.8-10-1.4-15c-0.8-6.4-2.6-12.6-1.2-19.2c0.6-2.8-0.4-6-0.7-9.5c13.3,0.2,23.7,8.1,36.5,11.5
				c-10.5,21.1-20.4,41-30.3,60.8C833.3,389.4,832.3,389.2,831.4,389.3z M878.9,389.1c-11.5-0.2-22.9,0.9-34.6,0.8
				c4-3.7,9.4-4.2,14-6.6c5-2.6,10.2-4.8,15.4-7.2c5-2.2,10-4.4,14.9-6.6c5-2.3,9.9-4.6,14.8-6.9c7,8.4,10.3,18,10.2,28.9
				C901.7,390.6,890.3,389.3,878.9,389.1z M914.7,397.2c1.4,10.8-2.3,19.7-6.2,28.6c-9.6-4.1-18.5-7.7-27.3-11.7
				c-2.5-1.1-4.8-3-7-4.7c-6-4.4-11.9-9.1-19.4-10.9c-0.7-0.2-1.3-0.7-1.8-2.2c6.9-0.3,13.9-0.8,20.8-0.9c8-0.1,16.1-0.1,24.1,0.2
				C903.5,395.9,909,396.7,914.7,397.2z M842.2,384.5c-0.3-0.3-0.7-0.7-1-1c2.5-4.4,5-8.8,7.6-13.2c1.6-2.7,3.7-5.3,5.1-8.1
				c4.3-8.6,8.5-17.3,12.7-26c2.3-4.8,4.5-5.9,8.3-2.7c8.5,7.2,16.6,14.8,24.8,22.3c0.7,0.6,1,1.7,2.2,3.6
				C880.6,366,862.7,378.2,842.2,384.5z M838.9,397.8c1.7,0.4,3.5,0.6,5.1,1.3c5.8,2.7,11.7,5.2,17.2,8.8
				c8.5,5.7,17.7,10.4,26.8,15.2c5.7,3,11.6,5.4,17.7,8.2c-2,7.6-10.7,10.3-9.6,18.6C874.4,435,856.7,416.5,838.9,397.8z
				 M929.2,417.3c-2.6,12-7.2,23.3-13.4,33.8c-2.2,3.8-5.4,7-8.8,11.4c-3.1-3.2-5.4-5.6-8-8.3c6.7-5.3,11.6-11.1,15.3-17.9
				c0.9-1.6,2.8-2.5,3.9-3.5c0-4.3-0.4-8.5,0.1-12.5c0.9-6.7,2.9-13.3,2.1-20.2c-0.3-2.8,0.9-4.9,4.5-6.3c-4.3-1-5.7-3.1-6.2-6.5
				c-0.6-4.8-1.2-9.7-2.8-14.1c-3.7-9.8-9.4-18.4-17.6-25.2c-6.2-5.2-11.7-11.2-18.1-16c-4.4-3.3-9.8-5.5-14.9-7.9
				c-9.1-4.3-18.1-8.9-28.2-10.7c-1.8-0.3-3.6-0.7-5.4-0.9c-3.9-0.5-7.3-1.4-6.9-8c-1.4,2.8-2.1,4.1-3.2,6.2
				c-11.2-2.8-22.9-3.3-34.4-1.2c-11.5,2-22.8,5.5-34.1,8.3c-1.9-1.7-3.9-3.6-6.3-5.9c4.2-1.5,8.1-3.4,12.3-4.3
				c10.6-2.4,21.2-5.1,31.9-6.5c6.7-0.8,13.7,1.3,20.5,0.9c9-0.5,16.7,3.4,25,5.2c7.7,1.7,15.2,3.4,22.4,6.9
				c4.6,2.2,10.1,2.8,14.7,5c4.9,2.4,9.2,5.9,13.8,8.8c9.4,6.1,16.8,14.7,24.7,22.5c3.5,3.5,6.2,8,8.5,12.5
				c3.7,7.4,7.3,14.9,9.1,23.1C931.9,396.5,931.5,406.8,929.2,417.3z"/>
			<g>
				<path fill="#8DC63F" d="M735.9,355.5c1.1-1.9,2-3.9,3.3-5.6c1.1-1.4,3.1-1.1,3.3,0.5c0.2,2-0.1,4.6-1.2,6.2
					C739.9,358.5,737.7,357.6,735.9,355.5z"/>
				<path fill="#8DC63F" d="M788.4,272.5c2.6-2,4.8-3.6,7.1-5.4c2.9,3.1,0.5,5.5-0.7,8.6C792.9,274.1,789.1,277.4,788.4,272.5z"/>
				<path fill="#8DC63F" d="M750.5,298.5c-2.5,0-4.2,0-6.2,0c0-3.6,0.4-6.7,5.1-8.3C749.8,293,750.1,295.6,750.5,298.5z"/>
				<path fill="#8DC63F" d="M747.1,282.5c-2.5-0.6-4.2-1-6-1.3c-1.1-1.8-0.2-2.9,1.4-3.9c2.3-1.4,4.5-1.7,7,0.6
					C748.7,279.4,747.9,280.9,747.1,282.5z"/>
				<path fill="#8DC63F" d="M771.9,377.6c0.4,2.9,0.8,4.9,0.8,6.9c0,0.7-1,1.8-1.8,2c-0.7,0.1-1.8-0.6-2.3-1.2
					C766.5,382.4,767,381,771.9,377.6z"/>
				<path fill="#8DC63F" d="M852.9,460.4c-2.3-0.7-4.5-1.3-6.9-2c0.9-3,2.6-5,5.6-4C854.4,455.3,854.5,457.6,852.9,460.4z"/>
				<path fill="#8DC63F" d="M824.4,411.5c2.1-1.4,4.1-2.8,6.2-4.2c2.3,3,1,5.1-0.6,6.3c-1.1,0.8-3.3,0.1-5,0.1
					C824.7,413,824.5,412.3,824.4,411.5z"/>
				<path fill="#8DC63F" d="M779.5,389.5c1.3,0.5,2.4,0.9,3.6,1.4c-0.1,1.2-0.1,2.1-0.3,3.1c-0.2,1.5,0,3.7-2.3,3.4
					c-2.3-0.3-3.4-2.2-2.9-4.5C777.9,391.8,778.8,390.8,779.5,389.5z"/>
				<path fill="#8DC63F" d="M718.3,330.8c-4.2-1.9-5.1-3.2-3.8-5.5c0.5-0.9,2.4-1.7,3.3-1.4C720.1,324.6,720.2,326.8,718.3,330.8z"
					/>
				<path fill="#8DC63F" d="M694.4,307.4c-0.3-2.5-1.3-5.2,0.9-7.3c0.6-0.5,2.2,0.1,3.3,0.1C699.1,306.8,699.1,306.8,694.4,307.4z"
					/>
				<path fill="#8DC63F" d="M762.8,271c2.7,1,3.9,2,3.1,4.3c-0.9,2.4-1.7,2.8-6.1,2.4C760.7,275.5,761.7,273.4,762.8,271z"/>
				<path fill="#8DC63F" d="M794.4,385.8c-1.3-1.5-2.5-2.9-4.2-4.9c1.5-1.1,2.8-2,4.1-3C797.3,382.4,797.3,382.4,794.4,385.8z"/>
				<path fill="#8DC63F" d="M786,400.9c2.8-3.7,2.8-3.7,6.3-1.7C790.5,404.9,790.2,405,786,400.9z"/>
				<path fill="#8DC63F" d="M732.7,343c-0.5,0.2-1.5,0.9-2,0.6c-1.7-0.8-3.4-1.7-4.6-3.1c-0.4-0.4,0.9-2.3,1.4-3.5
					c1.2,0.8,2.5,1.6,3.6,2.6C731.6,340.1,731.8,341,732.7,343z"/>
				<path fill="#8DC63F" d="M725.6,278.9c2.6,2,3.4,3.9,1.9,5.8c-0.7,0.9-2.3,1.1-3.6,1.6c-0.3-1.2-0.9-2.5-0.7-3.6
					C723.5,281.5,724.6,280.4,725.6,278.9z"/>
				<path fill="#8DC63F" d="M761.7,359.7c0.3-2.1,0.6-4.2,0.9-6.7c4.4,3,4.4,3.8,0.6,7.1C762.7,359.9,762.2,359.8,761.7,359.7z"/>
				<path fill="#8DC63F" d="M708.9,285.7c2.9,1.4,4.1,3.3,2,5.7c-0.5,0.7-2.9,0.8-3.5,0.3C705,289.2,707.3,287.6,708.9,285.7z"/>
				<path fill="#8DC63F" d="M708.4,312c0.4,2.1,0.9,3.9,1.1,5.7c0,0.5-0.8,1.4-1.4,1.6c-0.6,0.2-1.6-0.2-2-0.7
					C704.2,316.7,705,314.1,708.4,312z"/>
				<path fill="#8DC63F" d="M759.3,369.1c3.4,0.8,4.1,2.9,3,5.5c-0.2,0.6-2.2,1-2.9,0.7C756.5,373.6,757.5,371.5,759.3,369.1z"/>
				<path fill="#8DC63F" d="M779,271.5c-1.7,1.7-3,3-4.4,4.1c-0.1,0.1-1.6-1.1-1.8-1.8c-0.5-1.9,1.3-4.8,2.8-4.6
					C776.5,269.3,777.4,270.3,779,271.5z"/>
				<path fill="#8DC63F" d="M741.4,330.7c3.2,0.3,5,1.3,4.4,4c-0.2,0.9-2.3,2.3-3,2C740.4,335.6,740.8,333.3,741.4,330.7z"/>
				<path fill="#8DC63F" d="M808.7,420c1.5-2.3,2.7-4.6,5.2-2.8c0.7,0.5,1,3.3,0.3,4.1C812.3,423.5,810.5,422.3,808.7,420z"/>
				<path fill="#8DC63F" d="M735.7,293.6c-0.4,7.2-0.9,7.5-6.1,4.2C730.2,294.6,733.4,295.5,735.7,293.6z"/>
				<path fill="#8DC63F" d="M778.1,290.9c-1.2-1.6-2.2-3-3.1-4.3c1.5-2.4,3.4-2.9,4.9-0.8C781.6,287.8,780.7,289.6,778.1,290.9z"/>
				<path fill="#8DC63F" d="M793.7,283.8c2.4,1.2,3.7,2.8,2,5.2c-0.4,0.5-2.4,0.8-2.8,0.3C790.9,287.4,791.7,285.5,793.7,283.8z"/>
				<path fill="#8DC63F" d="M829.2,440.9c1.1-1.6,2.1-3.3,3.5-4.7c0.2-0.2,2,1.2,3.9,2.4c-2.5,1.6-4.1,2.7-5.8,3.8
					C830.2,441.9,829.7,441.4,829.2,440.9z"/>
				<path fill="#8DC63F" d="M801.6,409.3c1.7,2.4,2.3,4.4,0,6c-0.7,0.5-2.8,0.2-3.1-0.3C797.1,412.2,798.6,410.6,801.6,409.3z"/>
				<path fill="#8DC63F" d="M845.4,444.2c-0.3,7-1.3,7.6-6.3,4.7C841,447.4,842.7,446.2,845.4,444.2z"/>
				<path fill="#8DC63F" d="M750.9,341.4c3.4,0.9,4.7,2.6,4,4.9c-0.2,0.7-2.6,1.6-3.3,1.2C749.1,346.1,750.5,344,750.9,341.4z"/>
				<path fill="#8DC63F" d="M747.2,358.7c2.7,1.1,4.3,2.5,2.9,4.7c-1.4,2.2-3.4,1.5-5.4-0.6C745.5,361.4,746.4,360,747.2,358.7z"/>
				<path fill="#8DC63F" d="M819.9,429.2c0.6-1.5,0.7-2.4,1.2-2.8c1.2-0.8,2.5-1.5,3.8-2c0.1-0.1,1.2,1.5,1.1,1.7
					c-0.8,1.2-1.9,2.3-3,3.2C822.6,429.7,821.6,429.3,819.9,429.2z"/>
				<path fill="#8DC63F" d="M847.8,428.8c1,1.9,2,3.1,2.1,4.4c0.1,0.6-1.5,1.4-2.3,2.2c-0.7-1.2-1.6-2.4-2-3.8
					C845.5,431.1,846.6,430.2,847.8,428.8z"/>
				<path fill="#8DC63F" d="M800,397.2c1.3-1.8,2.3-3,3.2-4.3c0.5,0.1,0.9,0.1,1.4,0.2c0.3,1.7,0.7,3.3,1.2,5.9
					C803.4,398.3,802.1,397.8,800,397.2z"/>
				<path fill="#8DC63F" d="M837.5,426.1c-2.3-1.3-3.5-2.8-1.7-4.9c0.4-0.5,2.2-0.7,2.5-0.4C839.9,422.5,839.9,424.3,837.5,426.1z"
					/>
				<path fill="#8DC63F" d="M760.5,293.3c0.9-2,1.6-3.3,2.3-4.9c0.7,0.4,1.4,0.6,1.6,1c0.5,1.2,1.3,2.6,0.9,3.6
					C764.4,295.1,762.8,294.2,760.5,293.3z"/>
				<path fill="#8DC63F" d="M734.4,325.9c-3.4-3-1.2-4.5,0.6-6.7C738,322.4,736.9,324.1,734.4,325.9z"/>
				<path fill="#8DC63F" d="M812.4,405c1.4-1,2.8-2.1,4.3-3.1c0.6,1,1.8,2.2,1.6,2.8c-0.9,2.5-3,1.9-4.9,1.7
					C813,405.9,812.7,405.5,812.4,405z"/>
				<path fill="#8DC63F" d="M775.4,362.7c2.2,1.9,3,3.7,1,5.4c-0.5,0.4-2.3,0.3-2.7-0.2C771.9,365.8,773.6,364.4,775.4,362.7z"/>
				<path fill="#8DC63F" d="M721.5,313.8c0-2.7,0-4.3,0-6.1C725.9,309.5,725.9,309.6,721.5,313.8z"/>
				<path fill="#8DC63F" d="M784.7,374.4c-1.6,1.1-2.7,2-4.6,3.3c-0.1-1.9-0.6-3.2-0.2-4C781.1,371.4,782.6,372.1,784.7,374.4z"/>
				<path fill="#8DC63F" d="M862.7,445c-1.1,0.7-2,1.8-2.5,1.6c-0.9-0.3-1.6-1.4-2.3-2.2c0.8-0.7,1.7-2.1,2.4-2
					C861.1,442.6,861.8,443.9,862.7,445z"/>
				<path fill="#8DC63F" d="M716.8,303.7c-2.7-2.4-0.5-3.5,1.4-4.8C718.6,300.7,718.9,302.4,716.8,303.7z"/>
			</g>
			<path fill="#A6FF1A" d="M929.2,417.3c-2.6,12-7.2,23.3-13.4,33.8c-2.2,3.8-5.4,7-8.8,11.4c-3.1-3.2-5.4-5.6-8-8.3
				c6.7-5.3,11.6-11.1,15.3-17.9c0.9-1.6,2.8-2.5,3.9-3.5c0-4.3-0.4-8.5,0.1-12.5c0.9-6.7,2.9-13.3,2.1-20.2
				c-0.3-2.8,0.9-4.9,4.5-6.3c-4.3-1-5.7-3.1-6.2-6.5c-0.6-4.8-1.2-9.7-2.8-14.1c-3.7-9.8-9.4-18.4-17.6-25.2
				c-6.2-5.2-11.7-11.2-18.1-16c-4.4-3.3-9.8-5.5-14.9-7.9c-9.1-4.3-18.1-8.9-28.2-10.7c-1.8-0.3-3.6-0.7-5.4-0.9
				c-3.9-0.5-7.3-1.4-6.9-8c-1.4,2.8-2.1,4.1-3.2,6.2c-11.2-2.8-22.9-3.3-34.4-1.2c-11.5,2-22.8,5.5-34.1,8.3
				c-1.9-1.7-3.9-3.6-6.3-5.9c4.2-1.5,8.1-3.4,12.3-4.3c10.6-2.4,21.2-5.1,31.9-6.5c6.7-0.8,13.7,1.3,20.5,0.9
				c9-0.5,16.7,3.4,25,5.2c7.7,1.7,15.2,3.4,22.4,6.9c4.6,2.2,10.1,2.8,14.7,5c4.9,2.4,9.2,5.9,13.8,8.8
				c9.4,6.1,16.8,14.7,24.7,22.5c3.5,3.5,6.2,8,8.5,12.5c3.7,7.4,7.3,14.9,9.1,23.1C931.9,396.5,931.5,406.8,929.2,417.3z"/>
			<path fill="#CEF982" d="M863.7,328.4c-10.5,21.1-20.4,41-30.3,60.8c-0.1,0.3-1.1,0.1-2,0.2c-0.3-4.5-0.8-8.8-0.9-13.1
				c-0.1-5.2,0.2-10.4,0-15.6c-0.2-5-0.8-10-1.4-15c-0.8-6.4-2.6-12.6-1.2-19.2c0.6-2.8-0.4-6-0.7-9.5
				C840.5,317.1,850.9,325,863.7,328.4z"/>
			<path fill="#CEF982" d="M901.9,359.5c-21.3,6.5-39.2,18.7-59.6,25c-0.3-0.3-0.7-0.7-1-1c2.5-4.4,5-8.8,7.6-13.2
				c1.6-2.7,3.7-5.3,5.1-8.1c4.3-8.6,8.5-17.3,12.7-26c2.3-4.8,4.5-5.9,8.3-2.7c8.5,7.2,16.6,14.8,24.8,22.3
				C900.4,356.5,900.7,357.5,901.9,359.5z"/>
			<path fill="#CEF982" d="M817.4,376.1c-0.4,0.3-0.9,0.7-1.3,1c-3.5-3-6.9-6.1-10.5-8.9c-9.4-7.5-19.2-14.3-28-22.4
				c-7.5-6.9-15.4-13.7-21.3-23.3c8.8-3,17.1-6.3,27.1-7.4C794.2,335.5,806.7,355.3,817.4,376.1z"/>
			<path fill="#CEF982" d="M827.1,385.8c-13.9-24.2-21.9-50.1-39.3-71c11.7-2.9,22.3-0.9,33.3,0.4
				C824.3,338.1,826.3,361.1,827.1,385.8z"/>
			<path fill="#CEF982" d="M908.6,425.9c-9.6-4.1-18.5-7.7-27.3-11.7c-2.5-1.1-4.8-3-7-4.7c-6-4.4-11.9-9.1-19.4-10.9
				c-0.7-0.2-1.3-0.7-1.8-2.2c6.9-0.3,13.9-0.8,20.8-0.9c8-0.1,16.1-0.1,24.1,0.2c5.6,0.2,11.1,1,16.8,1.5
				C916.1,408,912.4,416.9,908.6,425.9z"/>
			<path fill="#CEF982" d="M913.6,391.4c-11.9-0.9-23.3-2.2-34.7-2.3c-11.5-0.2-22.9,0.9-34.6,0.8c4-3.7,9.4-4.2,14-6.6
				c5-2.6,10.2-4.8,15.4-7.2c5-2.2,10-4.4,14.9-6.6c5-2.3,9.9-4.6,14.8-6.9C910.4,371,913.7,380.6,913.6,391.4z"/>
			<path fill="#CEF982" d="M896,450c-21.6-14.9-39.3-33.4-57.1-52.2c1.7,0.4,3.5,0.6,5.1,1.3c5.8,2.7,11.7,5.2,17.2,8.8
				c8.5,5.7,17.7,10.4,26.8,15.2c5.7,3,11.6,5.4,17.7,8.2C903.6,439,894.9,441.7,896,450z"/>
		</g>
		<path d="M669.1,582.3c-5.2-3.7-2.8-9.2-3.4-13.7c-1-7.1-0.4-14.5-0.8-21.7c-0.7-12.7-1.3-25.5-2.4-38.2c-0.7-7.7,0.2-15.3,0.5-23
			c0.1-2.3,0-4.7-0.6-7.2c-14.3,17.6-27.3,36-42.6,53c-13.1-13.5-25.6-26.4-38.3-39.5c-0.8,1.1-1.4,1.5-1.4,1.9
			c-0.6,17-1.1,34-1.7,51c-0.4,10.1-0.9,20.2-1.6,30.2c-0.2,3.7-2.2,5.2-5.7,5.4c-4.4,0.3-8.8,0.8-13.2,1
			c-9.1,0.5-18.2,0.9-27.3,1.3c-0.5,0-1.1-0.3-2.2-0.6c-0.3-21.8-0.6-43.7-1-65.5c-0.2-10.1-1-20.2-1.3-30.4
			c-0.1-3.2,0.6-6.4,0.6-9.6c0.2-10.6,0.3-21.3,0.2-31.9c0-5.9-0.6-11.7-0.7-17.6c-0.2-8.9-0.3-17.8-0.5-26.8
			c-0.1-2.6-0.6-5.2-0.5-7.8c0-2.1,0.5-4.3,0.8-6.1c0.9-0.4,1.4-0.8,1.7-0.7c10.9,2.8,21.7,0.4,32.5-0.3c5.2-0.3,10.4-1.1,15.7-1.3
			c1.3-0.1,3.4,0.9,3.8,2c4.1,10.1,11.2,18.2,17.5,26.9c5.5,7.5,10.3,15.5,15.6,23.1c2.1,3,4.9,5.4,7.8,8.6c2-2.1,3.8-3.8,5.5-5.7
			c9-10.7,18-21.4,26.9-32.2c1.7-2,3.3-4.2,4.4-6.6c2.9-6.4,8.8-10.2,13-15.4c0.9-1.1,3.2-1.4,4.9-1.6c4-0.3,8-0.3,12.1-0.5
			c5.7-0.3,11.3-0.6,17-1.2c4.8-0.5,9.6-1.4,14.4-2c2.1-0.3,4.2-0.4,6.4-0.7c-2,12.9-1.9,25.1-0.6,37.3c0.2,2.2-0.5,4.4-0.5,6.6
			c-0.1,10.1-0.2,20.1-0.1,30.2c0.1,13.1,0.6,26.1,0.6,39.2c0,6.9-1.4,13.7-1.3,20.6c0.1,10.1,1.1,20.2,1.5,30.2
			c0.3,7.9,0.1,15.7,0.2,23.6c0,2.8,0.2,5.6,0.1,8.4c0,1-0.8,2.1-1.6,3.8c-1.2-1.7-1.9-2.7-3-4.2c-9.5,3.7-19.8,4.7-30.2,5
			c-2.6,0.1-5.3,0.6-7.7,1.6C678,582.8,673.5,582.5,669.1,582.3z M671.9,577.3c3.9-0.5,7.8,0,10.6-1.5c4.9-2.6,10-2.7,15.2-2.9
			c6.6-0.3,13.4,0,19.3-2.9c0.6-11.7,1.4-23,1.6-34.3c0.3-16,0.1-32.1,0-48.1c0-2.2-0.5-4.4-0.5-6.6c-0.1-10.8,0-21.5,0-32.3
			c0-4.6,0-9.2-0.1-13.9c-0.1-5.8-0.5-11.6-0.5-17.5c-0.1-10.3,0-20.6,0-31.1c-3.2,0-6.5-0.4-9.6,0.1c-9,1.3-18,2.3-27.2,1.4
			c-2.6-0.3-5.8-0.2-7.8,2.3c-7.6,9.7-15.1,19.5-22.6,29.3c-6.1,8-12.3,16-18.5,23.9c-1.6,2-3.5,3.8-4.9,5.9
			c-2.5,3.7-3.8,4.2-7.3,1.7c-1.9-1.4-3.6-3.2-5.1-5c-3.2-4.2-6.1-8.6-9.3-12.9c-9.4-12.7-19.2-25.2-28.1-38.2
			c-3.5-5.2-7.3-6.1-12.7-5.6c-9.1,0.8-18.1,1.3-27.2,2c-1.4,0.1-2.8,0.2-4.8,0.3c-0.2,2.3-0.6,4.5-0.6,6.6
			c0.3,10.7,0.8,21.5,1.2,32.2c0.2,4.5,0.5,8.9,0.5,13.4c0.2,14.4,0.6,28.8,0.5,43.2c-0.1,9.9-1,19.8-1.1,29.7
			c-0.1,13.3,0.3,26.7,0.5,40c0.1,6.6,0,13.2,0,20.1c12.7,1.4,24.7-1.9,37.3-2.9c0.5-2.6,1.3-4.9,1.4-7.3
			c0.6-14.4,1.2-28.8,1.4-43.2c0.1-12.1-0.5-24.2-0.6-36.4c-0.1-4.6,0.1-4.6,5.4-5.2c13.3,13.6,26.4,27.1,39.7,40.9
			c3.4-3.9,6.4-7.2,9.2-10.6c5.7-6.8,11.8-13.4,16.9-20.6c5-7.2,11.4-13.1,17.2-19.4c0.7-0.7,1.6-1.3,2.4-1.8
			c2.1-1.3,4.1-0.8,4.8,1.5c1,3.7,2.2,7.5,2.2,11.2c0.2,13.5,0.1,27,0,40.5c0,5.7-0.4,11.3-0.3,17
			C670.9,552.2,671.4,564.3,671.9,577.3z"/>
		<path d="M812,502.7c-2.7-4.8-5.9-4.5-9.4-3.3c-2.7,0.9-5.4,1.6-8.2,2.2c-3.2,0.7-4.4,3-4.2,5.8c0.4,6.4,1.2,12.8,1.8,19.6
			c13.1,1.4,25.8-1,38.7-1.8c0.2,1.6,0.6,2.7,0.3,3.1c-3.2,3.8-1.8,8.1-1.6,12.2c0.4,8.8,1.3,17.7,1.7,26.5c0.1,2.2-0.7,4.5-1,6.7
			c-0.5,0.1-1,0.1-1.5,0.2c-1-1.8-2-3.7-3-5.5c-8.2,1-16.3,3.2-24.9,2.7c-7.8-0.5-15.8,0.2-23.6,0.7c-4,0.3-7.9,1.4-11.9,2
			c-5.8,0.8-11.5,1.7-17.4,2.2c-2,0.2-4.2-0.8-5.9-1.1c0.8-3.2,1.9-5.7,2.1-8.3c0.7-10.1,1.2-20.2,1.5-30.4
			c0.2-7.9-0.2-15.8-0.3-23.7c0-3,0.2-6,0.1-9c-0.5-14.1-1.2-28.3-1.7-42.4c0-1.2,0.2-2.4,0.2-3.6c0.2-3.4,0.7-6.9,0.7-10.3
			c0-9.1-0.9-18.3-0.2-27.3c0.8-10.5-1.6-20.9-0.2-31.4c0.2-1.4,0-2.9-0.2-4.2c-0.9-5.1-0.2-6.3,5.3-6.6c6.1-0.4,12.2,0.1,18.2-0.2
			c8.7-0.5,17.3-1.3,25.9-2c3-0.2,6.1-0.4,9.1-0.5c5.2-0.2,10.7,0.4,15.5-0.9c5.5-1.5,11-2.2,16.6-2.7c0.6-0.1,1.1,0.2,1.6,0.3
			c0.3,0.5,0.8,0.8,0.8,1.1c-0.8,8.2-0.5,16.4,0.7,24.6c1,6.7-0.4,13.7-0.7,20.4c-15.1,7.2-31.9,7.5-47.8,12.4
			c-0.2,7.7-0.5,15.4-0.7,23.1c-0.1,2.3,1.3,3.5,3.4,3.4c5.3-0.3,10.8,0.3,14.7-4.5c4.8,2.8,6.2,6.9,6,12.3
			c-0.2,5.8,0.7,11.6,0.9,17.4c0.2,5.7,0.2,11.3,0.1,17C813.7,499.7,813,500.6,812,502.7z M784.7,463.9c-0.4-9.8-0.6-18.3-1-26.8
			c-0.1-2.2-0.2-4.4-0.7-6.6c-0.7-3.6,1.1-6.2,4.7-6.5c1.8-0.2,3.6-0.3,5.4-0.7c6.5-1.3,13-3.2,19.6-4c5.6-0.7,10.4-3.3,15.3-5.5
			c2.7-1.3,3.7-3.4,3.3-6.5c-0.4-3-1.3-6.1-0.9-9c1-7.3-1.7-13.6-4-20.2c-8.8,0.6-16.9,3.2-25.4,3.8c-4.3,0.3-8.3-0.8-12.5-0.3
			c-7.6,0.9-15.2,1.6-22.8,2.4c-5,0.5-9.9,1.1-15.5,1.8c-0.3,12.7-0.7,25.3-1.1,38c-0.1,3.6-1,7.3-0.6,10.8c1.2,11,2.3,22,2.3,33.1
			c0,10.6,1.7,21.1,0.7,31.7c-0.3,3.6-1.1,7.1-1.1,10.7c-0.2,14.5-0.2,29-0.1,43.5c0,5.4,0.3,10.8,0.6,16.9
			c4.1-0.4,7.7-0.7,11.3-1.2c5.4-0.7,10.7-1.9,16.1-2.3c6.3-0.5,12.6-0.2,18.8-0.6c7.3-0.5,14.5-1.5,21.7-2.3c1.9-0.2,3.8-0.9,5-1.2
			c0.3-7,0.7-13.2,0.9-19.4c0.1-1.4,0.2-3.8-0.4-4.1c-3.7-1.7-1.4-5.2-2.4-7.6c-5.5,0.3-10.7,0.7-15.9,1c-5.7,0.3-11.3,0.6-17,0.7
			c-1,0-2-0.9-2.2-1c0.2-7,0.5-13.2,0.3-19.4c-0.1-2.8,0.6-6.2-3-8c-0.6-0.3-0.8-2.5-0.3-3.2c1.3-2.1,2.3-4.3,5.6-4.9
			c5.1-0.9,10.1-2.9,15.1-4.6c3.3-1.1,4.7-3.7,4.4-7.1c-0.6-6.6-1.3-13.3-2.3-19.9c-0.5-3.3-2-4-5.1-3.6
			C796.2,462.5,790.8,463.1,784.7,463.9z"/>
		<path d="M496,385.5c3.2,4.4,3.2,9.3,3.2,14.4c0,15.4,0.5,30.7,0.7,46.1c0.1,6.2-0.3,12.3-0.4,18.5c0,3.4,0.3,6.8,0.4,10.2
			c0.1,8,1.2,16.3-0.2,24.1c-1.9,11.1,0.5,22.1-0.2,33.1c-0.7,11.1-0.1,22.3-0.1,33.5c0,4,0.3,8,0,12c-0.5,4.9-1.3,5.4-6.1,5.4
			c-6.3,0-12.5-0.2-18.8,0c-3.6,0.1-7.2,0.4-10.8,1c-1.2,0.2-2.2,1.4-3.8,2.5c-0.5-1.7-1-3-1.1-4.2c-0.5-10.5-0.8-21-1.3-31.6
			c0-1.2,0.1-2.5-0.2-3.6c-4.3-14.8-1.7-29.7-1.1-44.6c0.3-9.3,0.6-18.7,0.3-28c-0.6-15.8-1.9-31.5-2.4-47.3
			c-0.4-12.7-0.1-25.5-0.2-38.2c0-0.8,0.1-1.6,0.4-2.4c0.2-0.5,0.7-1,1.3-1.9c0.6,0.5,1.2,0.9,1.7,1.4c0.4,0.4,0.6,1,1,1.8
			c6.4,0,13.1-1.1,19.2,0.3C484.1,389.4,489.1,383.4,496,385.5z M495.1,574.8c-0.4-3.8-1-6.9-1-10.1c-0.1-4.6,0.3-9.2,0.3-13.8
			c0-12.4-0.2-24.8-0.3-37.2c0-3.2,0.5-6.4,0.8-9.7c0.3-3.4,0.8-6.9,0.7-10.3c-0.3-16.4-0.9-32.8-1.1-49.1
			c-0.2-12.1,0.1-24.3-0.1-36.4c-0.1-5.8-0.7-11.6-1-16.8c-4.7,0.3-8.9,0.7-13,0.6c-5.9-0.1-11.7-0.5-17.6-0.8
			c-2.4-0.1-3.9,0.7-3.8,3.4c0.1,5,0.2,10,0.3,14.9c0.4,14.4,0.8,28.7,1.1,43.1c0.1,3.4-0.3,6.9,0.1,10.3c0.9,8.4,2.3,16.8,1,25.3
			c-0.2,1.2,0,2.4,0.1,3.6c0.3,9.7,0.7,19.3,0.9,29c0.3,12.4,0.4,24.8,0.7,37.3c0.1,5.8,0.6,11.6,0.9,18.3c4.2-0.3,8-0.6,11.7-0.9
			c4.2-0.3,8.6-1.6,12.5-0.6C490.9,575.6,492.7,575.6,495.1,574.8z"/>
		<path d="M445.8,404.7c1.9,3.1,2,6,0.9,8.9c-0.7,2-2.3,2.1-3.8,0.8C439,411,440.1,406.9,445.8,404.7z"/>
		<path d="M505.5,432.7c5.6,0.8,7.4,3.1,6,7.2c-0.4,1-1.8,2.1-2.9,2.3c-1.7,0.3-3.4-0.5-3.4-2.5
			C505.1,437.5,505.4,435.3,505.5,432.7z"/>
		<path d="M784.1,593.7c0.1,4.7-1.4,7.7-4.2,8.2c-1,0.2-2.6-0.1-3.2-0.8c-0.5-0.6-0.3-2.4,0.2-3.2
			C778.6,595.4,780.6,593.2,784.1,593.7z"/>
		<path d="M750.5,600.1c1.8-1.4,3.1-2.8,4.7-3.6c0.8-0.4,2.5-0.1,3.1,0.5c1.3,1.3-0.3,5.8-2.7,7.2c-2.1,1.3-3.4-0.1-4.2-2
			C751.1,601.7,750.8,601.1,750.5,600.1z"/>
		<path d="M820.9,429.7c1.8,0.4,3.9,0.4,3.3,3.1c-0.6,3-3.3,5.7-5.5,5.5c-2.4-0.3-2.5-2.1-1.7-3.5
			C817.9,433.1,819.4,431.7,820.9,429.7z"/>
		<path d="M451.5,565.7c0.7,2.7,1.2,5.1,2,8.1c-3,0-5.2,0-7.9,0C446.6,570.3,446.3,567,451.5,565.7z"/>
		<path d="M436.2,531.9c-5.7-3-6-6.2-0.8-9.8C439.1,527,439.1,527.6,436.2,531.9z"/>
		<path d="M447.3,542.2c-4-4.1-4-4.6,0.3-9.4C452.2,537,452.2,537.8,447.3,542.2z"/>
		<path d="M445.6,425.4c2,0.1,3.1,1.3,2.8,3.1c-0.4,2.1-0.6,4.7-3.7,4.9c-2.1,0.1-2.7-1.3-2.7-3.2
			C442.1,427.4,443.5,425.4,445.6,425.4z"/>
		<path d="M432.8,469.6c2.7,1.8,3.2,4.1,2.8,6.5c-0.1,0.9-1.3,2.2-2.2,2.3c-0.8,0.1-2.3-0.7-2.8-1.5
			C429,474,429.7,471.5,432.8,469.6z"/>
		<path d="M449.9,594.2c-4.3-4.2-4.1-7.4-0.1-10.8C452.9,586.8,451.6,590.1,449.9,594.2z"/>
		<path d="M518.4,390.5c3.6,5.5,3.5,6.1-1.1,9.1C513.8,394.5,513.9,394,518.4,390.5z"/>
		<path d="M738.5,468.6c-3,1-5.5,0.9-6-1.8c-0.6-3.1,1.8-4.8,5.3-7.1C738.1,463.6,738.3,466.2,738.5,468.6z"/>
		<path d="M654.5,580.9c3.3,1.8,3.7,4.2,3.4,6.6c-0.1,0.8-1.7,1.9-2.8,2.1c-1.8,0.3-3.4-0.7-3-2.7
			C652.5,584.9,653.6,583.1,654.5,580.9z"/>
		<path d="M442.4,500.6c1.7-2.8,2.1-6.4,5.6-4.9c1.2,0.5,2.4,4.4,1.7,5.6C447.6,504.7,445.3,501.6,442.4,500.6z"/>
		<path d="M509.4,451.3c0.3,2.4,0.7,4.8,1,7.2c-3.2,1.4-5.1,0.7-5.9-1.8c-0.9-2.9,1.3-4.2,3.1-5.6
			C508.2,451.1,508.8,451.2,509.4,451.3z"/>
		<path d="M432.5,501.2c4.2,2.6,4.2,5.3,4,7.8c-0.1,0.9-1.3,1.7-2,2.5c-0.7-0.6-1.9-1.2-2-1.9C432.3,507.1,432.5,504.7,432.5,501.2z
			"/>
		<path d="M432.8,421.2c3.6,1.8,3.5,4.2,2.7,6.2c-0.4,1.1-2.4,2.2-3.6,2.1c-1.7-0.1-2.6-1.9-1.8-3.7
			C430.8,424.3,431.8,422.9,432.8,421.2z"/>
		<path d="M467.8,604.7c-1.4,1.9-2.7,3.8-4.1,5.6c-2.9-1.2-4.2-2.8-2.8-5.4C462.1,602.8,464.6,602.7,467.8,604.7z"/>
		<path d="M796.3,511.3c-0.9-6.1-0.1-7.1,5.4-7.2C801.9,508.8,801.4,509.5,796.3,511.3z"/>
		<path d="M518.2,547c3.4,2.8,5.2,4.7,3.3,7.6c-0.5,0.8-2,1.6-2.8,1.4c-0.9-0.2-2.1-1.6-2-2.4C516.7,551.7,517.4,549.9,518.2,547z"
			/>
		<path d="M642.2,578.4c-2.7,0.6-3.6-1.2-3.9-3.3c-0.3-2.9,2.2-3.4,3.8-4.8C644.2,573.6,644.2,573.6,642.2,578.4z"/>
		<path d="M548.4,593.4c-0.1-4.4,1.8-6.6,5.4-7.7C555.2,590.4,553.8,592.3,548.4,593.4z"/>
		<path d="M655.3,563.4c3.3,5.7,2.7,7.1-3.3,8.2C651.4,568.1,652.4,565.5,655.3,563.4z"/>
		<path d="M640.2,609.3c-2.1-4.2-1.5-5.6,3.3-8.3C645.8,605.1,645.8,605.1,640.2,609.3z"/>
		<path d="M736.7,400.2c2.7,5.8,2.2,7.5-2.8,9.6C733,406.3,733.5,403.3,736.7,400.2z"/>
		<path d="M739.2,427.8c-2.2-1.3-3.9-2.4-6.3-3.8c1.1-1.5,2.3-3.1,3.5-4.6C740.1,421.9,740.2,422.1,739.2,427.8z"/>
		<path d="M804.4,438.5c-0.5-4-0.4-7,3.9-7.9C811,434.3,810.1,436.6,804.4,438.5z"/>
		<path d="M642.4,589.1c2.6,3.6,2.5,4.1-1,8.1C637.5,593.3,637.5,592.8,642.4,589.1z"/>
		<path d="M641.6,537c2.9,2.1,4.2,3.9,3,6.5c-0.4,0.9-1.8,2.3-2.2,2.2c-1.1-0.4-2.8-1.7-2.7-2.5C639.8,541.2,640.8,539.3,641.6,537z
			"/>
		<path d="M509.7,598.2c-5.4-1.6-5.5-4.2-1-8.1C512,592.5,509,595.5,509.7,598.2z"/>
		<path d="M738.3,503.7c-0.8,2.4-1.4,4.2-2.2,6.8c-2.2-1-4-1.8-6-2.7C733.4,503.7,733.4,503.7,738.3,503.7z"/>
		<path d="M535.9,608.7c-0.1-2-0.5-3.2-0.1-4.3c0.4-1.2,1.3-2.9,2.2-3.1c1-0.1,2.9,1.1,3.1,2c0.3,1.2-0.2,3-1,4.1
			C539.5,608.3,537.8,608.2,535.9,608.7z"/>
		<path d="M735.9,483.5c2.1,6.5,1.9,6.8-3.7,7.8C731.7,486.5,731.7,486.5,735.9,483.5z"/>
		<path d="M433.7,406.2c2.6,2.5,2.7,5.1,1.4,7.7c-2.8,0.9-4.3-0.6-5-2.5C429.4,408.9,431,407.3,433.7,406.2z"/>
		<path d="M736.3,383c4.1,2.3,5.3,4.4,2.6,8c-1.6-0.6-3.4-1.2-5.9-2C734.1,387,735,385.2,736.3,383z"/>
		<path d="M635.6,522.8c1.5-2.3,2.9-4.1,5.3-1.7c1.7,1.7,1,3.8-2.2,6.5C637.6,526,636.6,524.4,635.6,522.8z"/>
		<path d="M431.8,454.7c2.8,2.7,4.1,5,0.9,7.7C427.2,458.8,427.1,458,431.8,454.7z"/>
		<path d="M519.1,468.4c3,2.4,2.3,4.9,0.9,7.1c-0.5,0.7-2.5,0.6-3.7,0.3c-0.4-0.1-0.8-2.2-0.4-3C516.6,471.2,517.9,470,519.1,468.4z
			"/>
		<path d="M731.5,575c1.5-1.9,2.6-3.2,3.7-4.5c3.3,2.9,4.2,5.1,2.5,6.5C735.3,579,733.9,576.7,731.5,575z"/>
		<path d="M795.9,578.1c1.6,4.5-0.6,6.3-3.6,8C789.7,581.5,789.9,581.1,795.9,578.1z"/>
		<path d="M507.4,412.1c3.9,3.9,3.3,7.2,2.3,11.4C505.6,420,506.3,416.7,507.4,412.1z"/>
		<path d="M506.3,390.2c1,4.3,1.7,7.1,2.6,10.6c-1.3-0.2-3.2-0.1-3.4-0.7C504.2,397.3,503.2,394.2,506.3,390.2z"/>
		<path d="M765.6,605.7c-0.2-4.1-0.9-7.5,3.5-8.9C770.5,601.6,770,603,765.6,605.7z"/>
		<path d="M445.8,479.6c0.3,1.8,0.9,3.7,0.8,5.5c0,0.7-1.9,2.1-2.3,1.9c-1.1-0.5-2.5-1.8-2.4-2.6c0.2-1.6,1.3-3.2,2-4.8
			C444.5,479.5,445.2,479.6,445.8,479.6z"/>
		<path d="M520.5,436.4c0.4,3-0.2,4.5-2.2,4.2c-1.1-0.2-2.4-1.4-2.8-2.5c-0.6-1.6,1.8-4.7,3.1-4.2
			C519.7,434.5,520.3,436.1,520.5,436.4z"/>
		<path d="M738.7,599.5c2.6,2.4,2.3,4.7,1.5,6.6c-0.4,0.9-2.2,1.1-3.3,1.6c-0.3-1-1.1-2.2-0.9-3.1
			C736.4,603,737.5,601.6,738.7,599.5z"/>
		<path d="M739.2,527.8c-1.6-0.3-2.9-0.5-4.6-0.8c0.6-1.8,0.8-3.4,1.6-4.7c0.5-0.8,1.8-1.1,2.8-1.6c0.5,1,1.4,2,1.4,3
			C740.4,525,739.7,526.3,739.2,527.8z"/>
		<path d="M657.4,539.8c-6-2.9-6.3-5.5-1.7-9.8C656.2,533.2,656.7,535.9,657.4,539.8z"/>
		<path d="M436.8,594.7c1.7,3.7,1.1,6.2-1.1,8.6C432.6,599.5,432.7,599,436.8,594.7z"/>
		<path d="M522,567.5c-0.2,1.8-0.2,3.8-0.9,5.4c-0.3,0.7-2.2,0.7-3.4,1.1c-0.3-1-1.1-2.3-0.7-3.1c0.8-1.5,2.1-2.8,3.2-4.2
			C520.8,567,521.4,567.3,522,567.5z"/>
		<path d="M522,585.3c0.1,2.2,0.3,4.4,0.3,6.6c0,0.5-1.1,1.3-1.6,1.3c-0.6,0-1.7-0.6-1.7-1.2c-0.5-2.5-1.1-5.1,1.3-6.9
			C520.8,585.2,521.4,585.2,522,585.3z"/>
		<path d="M519.1,524.9c2.4,2.3,4.7,4.1,2.2,6.9c-0.6,0.7-3,0.9-3.6,0.3C515.1,529.5,517.3,527.5,519.1,524.9z"/>
		<path d="M550.6,610.8c-1.2-0.7-2.9-1.1-3.4-2c-0.8-1.7,1-3.8,4.1-5c0.2,2,0.3,3.9,0.5,5.8C551.3,609.9,550.9,610.4,550.6,610.8z"
			/>
		<path d="M792.9,441.1c-1-3.8,0-5.9,3.1-7.2C798.1,437.5,797.7,438.6,792.9,441.1z"/>
		<path d="M768.4,587.2c-2-5.4-1.8-5.8,3.2-8.2C772.2,582.3,771.4,584.8,768.4,587.2z"/>
		<path d="M781.1,586.4c-0.4-0.7-1.3-1.6-1.4-2.6c-0.2-2.1,2-5,3.7-4.7c0.7,0.1,1.8,1.6,1.7,2.4
			C784.9,583.6,784.8,586.1,781.1,586.4z"/>
		<path d="M675.6,594.5c0.3,1.9,0.9,3.4,0.5,4.6c-0.3,1.1-1.7,1.8-2.6,2.7c-0.8-1-2-2-2.3-3.1C670.7,597.1,671.6,596.5,675.6,594.5z
			"/>
		<path d="M445.9,606.4c1.2-1.7,2.4-3.4,3.9-5.4c2.1,2.2,3.1,4.3,1.6,6.2c-0.8,0.9-3,0.7-4.6,1C446.5,607.6,446.2,607,445.9,606.4z"
			/>
		<path d="M643.4,554.9c0.3,1.8,0.8,3.5,0.7,5.3c-0.1,0.7-1.8,1.8-2.6,1.6c-0.8-0.1-2-1.6-1.9-2.4c0.2-1.6,1.1-3.1,1.8-4.6
			C642,554.8,642.7,554.8,643.4,554.9z"/>
		<path d="M738.2,440.5c1,2,1.8,3,1.9,4.1c0.1,1-0.1,2.4-0.8,3.1c-0.4,0.5-2.2,0.5-2.6,0.1c-0.8-0.9-1.8-2.4-1.6-3.4
			C735.4,443.2,736.7,442.3,738.2,440.5z"/>
		<path d="M540.3,591.7c-2.3,2.2-3.6,3.5-5.2,5.1c-2.3-2.7-2-4.9,0-6.4C535.8,589.7,537.9,590.9,540.3,591.7z"/>
		<path d="M519.9,507.4c2.6,3.5,2.6,3.5-0.8,6.7C515.7,511,515.7,511,519.9,507.4z"/>
		<path d="M452.5,515.6c-1.7,1.5-2.7,2.4-3.8,3.3c-0.7-1.2-2-2.4-2-3.7c-0.1-0.9,1.4-2,2.1-3C449.8,513.1,450.8,514.1,452.5,515.6z"
			/>
		<path d="M432.7,496.2c-1.3-2.4-2.4-3.5-2.2-4.4c0.2-1.3,1.4-2.5,2.1-3.7c0.9,1.1,2.4,2.1,2.6,3.3
			C435.4,492.4,434.1,493.7,432.7,496.2z"/>
		<path d="M504.9,477.7c0.6-3,1.1-5.5,1.7-8.5C510.7,473.2,510.2,475.9,504.9,477.7z"/>
		<path d="M441.8,450.5c0.3-1.4,0.1-2.9,0.7-3.5c1-1,2.5-1.4,3.9-1.8c0.3-0.1,1.5,1.8,1.3,2.3c-0.6,1.3-1.6,2.6-2.7,3.4
			C444.5,451.3,443.2,450.7,441.8,450.5z"/>
		<path d="M516.4,413.9c1.1,0.6,1.7,0.8,2.1,1.2c2,1.9,0.6,3.7-0.3,5.4c-0.2,0.4-2,0.5-2,0.4c-0.4-1.4-0.8-2.9-0.9-4.4
			C515.2,415.8,515.9,415.1,516.4,413.9z"/>
		<path d="M434,439.1c0.6,3,1,5,1.4,6.9c-1.9,1.9-3.1,1.3-4.1-0.4C430,443.4,430.3,442.4,434,439.1z"/>
		<path d="M510.1,602.6c1.8,2.7,2.2,4.8,0.2,6.9C505.2,606.7,505.2,606.1,510.1,602.6z"/>
		<path d="M518.6,451.3c0.7,1.9,1.2,2.8,1.2,3.7c0,1.1-0.3,2.3-0.9,3.2c-0.3,0.4-2.2,0.2-2.5-0.3c-0.7-1-1.2-2.5-0.9-3.7
			C515.7,453.3,517.1,452.7,518.6,451.3z"/>
		<path d="M737.3,584.1c2,2,3,3.9,0.9,5.9c-0.5,0.5-2.5,0.2-2.9-0.4C733.8,587.4,734.5,585.5,737.3,584.1z"/>
		<path d="M689.7,583.4c0.4,1.5,1,2.4,0.8,3.2c-0.3,1.2-1,2.3-1.7,3.3c-0.2,0.2-1.9-0.2-2-0.6c-0.3-1.2-0.6-2.7-0.2-3.8
			C686.9,584.6,688.3,584.2,689.7,583.4z"/>
		<path d="M671.6,584.4c-0.2,2.3,0,3.6-0.4,4.5c-0.4,1-1.2,1.9-2.1,2.4c-0.3,0.2-1.8-0.4-1.9-0.9c-0.3-1.1-0.6-2.6,0-3.3
			C667.9,586.1,669.5,585.7,671.6,584.4z"/>
		<path d="M508.4,565.9c3.7,4.1,3.7,4.8,0,7.4C505.8,571.1,506.6,568.8,508.4,565.9z"/>
		<path d="M445.4,556.9c0.7-2,0.8-3.1,1.3-3.8c0.6-0.8,1.6-1.6,2.5-2c0.4-0.1,1.6,0.8,1.7,1.3c0.1,1.1,0,2.8-0.7,3.3
			C449.2,556.5,447.6,556.4,445.4,556.9z"/>
		<path d="M588.4,516.5c-1.9-2.9-2-5.4-0.6-8.1C592.8,512.7,592.8,512.7,588.4,516.5z"/>
		<path d="M512.2,511.6c-1.7,1.6-2.8,2.8-4.2,3.7c-0.2,0.2-2.3-1.8-2.2-2c0.9-1.4,2-2.8,3.2-3.8
			C509.3,509.2,510.7,510.5,512.2,511.6z"/>
		<path d="M723.5,598.1c1.7,2.6,2,4.8-0.6,6.4c-0.5,0.3-1.9,0-2.1-0.4C719.3,601.3,720.9,599.6,723.5,598.1z"/>
		<path d="M655.3,514.8c0.6,2.4,1.3,3.9,1.3,5.3c0,2-1.6,3-3.3,2.1c-0.8-0.4-1.4-2.3-1.2-3.3C652.4,517.7,653.7,516.8,655.3,514.8z"
			/>
		<path d="M805.6,440.7c3,5.2,2.3,6.9-3,8.1C803.6,445.9,804.5,443.6,805.6,440.7z"/>
		<path d="M604.1,534.8c0.6-2,1.2-3.8,1.8-6c2.8,1,3.2,2.8,2.7,4.8C608,535.8,606.4,535.5,604.1,534.8z"/>
		<path d="M737.1,563.9c-2.2-2.2-3.7-4-1.2-6.3c0.5-0.4,2.1-0.4,2.5,0.1C740.1,559.7,739.5,561.7,737.1,563.9z"/>
		<path d="M438.4,578.1c0.6,3.3,2.3,5.6-0.8,6.9c-0.7,0.3-2.4-0.3-2.6-0.9C433.9,581.4,436.1,580.4,438.4,578.1z"/>
		<path d="M722.2,584.1c0.9,2.7,0.5,4.9-1.7,6.8C717.4,587.4,717.7,586,722.2,584.1z"/>
		<path d="M509.7,526.6c0.4,2.1,0.7,2.9,0.6,3.6c-0.3,1.5-0.8,2.9-1.4,4.3c-0.1,0.2-1.5,0-1.6-0.1c-0.2-1.7-0.5-3.4-0.3-5
			C507.1,528.6,508.2,528,509.7,526.6z"/>
		<path d="M752,590.2c-0.6-0.5-0.8-0.5-0.8-0.7c-0.6-2.3-0.7-4.4,1.9-5.5c0.5-0.2,1.8,0.4,1.9,0.9
			C755.5,587.3,754.6,589.1,752,590.2z"/>
		<path d="M693,597.9c-1.7,1.3-2.6,2.5-3.9,2.9c-0.4,0.1-2.3-1.8-2.1-2.5c0.3-1.2,1.6-2.2,2.5-3.4
			C690.4,595.7,691.4,596.5,693,597.9z"/>
		<path d="M656.9,498.5c-0.5,2.1-0.7,4-1.5,5.6c-0.2,0.4-2.3-0.2-4-0.3C652.4,500.9,653,498.6,656.9,498.5z"/>
		<path d="M519.4,490.2c2.1,1.9,2.7,3.9,0.7,5.7c-0.5,0.5-3-0.1-3.4-0.8C515.2,492.3,517.6,491.4,519.4,490.2z"/>
		<path d="M792.6,601.8c-4-3.2-4-3.4-0.8-6.8C793.7,596.9,794,598.9,792.6,601.8z"/>
		<path d="M658.2,598.6c1.4,3.2,1.6,5.7-2.3,7.5C655.2,603,653.9,600.3,658.2,598.6z"/>
		<path d="M450.6,463.7c-2.4,1.1-3.7,2.2-4.5,1.9c-0.9-0.3-1.8-1.9-1.9-3c-0.1-0.7,1.6-2.2,2-2.1C447.4,461,448.4,462.1,450.6,463.7
			z"/>
		<path d="M506,488.1c4.1,3.4,4,3.6-0.9,8.3C505.5,493.2,505.7,490.9,506,488.1z"/>
		<path d="M598.2,518.7c3.2,2.5,3.9,4.2,2.1,6c-0.5,0.5-2,0-3.1,0C597.5,522.9,597.7,521.3,598.2,518.7z"/>
		<path d="M737.2,538.9c2.2,1.6,3,3.3,1.2,5.1c-0.5,0.5-2.5,0.3-2.9-0.3C733.6,541.7,735,540.2,737.2,538.9z"/>
		<path d="M508,548.8c2.8,1.1,3.7,2.8,2.6,4.9c-0.3,0.6-2.5,0.9-3.1,0.5C505.8,552.5,506.2,550.7,508,548.8z"/>
		<path d="M655.5,551.2c2.9,3.6,2.8,3.7-2.1,5.1C652.5,554,653,552.3,655.5,551.2z"/>
		<path d="M522.2,608.8c1.5-2.7,2.5-4.5,3.7-6.7C528,607.5,527.8,607.8,522.2,608.8z"/>
		<path d="M462.2,593.3c0.2-2,0.4-3.7,0.6-5.4c2.9-0.2,3.5,1.3,3.4,2.9C466.2,592.8,464.8,593.4,462.2,593.3z"/>
		<path d="M480.5,592.9c-1.3-2.5-1.3-4.3,1-5.5c0.5-0.2,1.9,0.2,2.1,0.7C484.6,590.4,483.3,591.7,480.5,592.9z"/>
		<path d="M587.8,521.9c2.4,4.4,2.4,4.4,0.1,6.7C585.3,526.9,587.2,525,587.8,521.9z"/>
		<path d="M794.8,445c2.9,3,2.9,4.8,1.2,6.4c-0.3,0.3-2.1-0.2-2.1-0.3C794,449.4,794.3,447.7,794.8,445z"/>
		<path d="M595.3,535.6c2,1,3.4,2.2,1.7,4.5c-0.3,0.4-1.7,0.7-2,0.4C593.2,538.9,593,537.2,595.3,535.6z"/>
		<path d="M479.1,600.9c1.2,2.4,1.2,4.3-3.6,5.2c0.8-2.4,1.4-4.1,1.9-5.8C477.9,600.5,478.5,600.7,479.1,600.9z"/>
		<path fill="#A6FF1A" d="M671.9,577.3c-0.4-13-0.9-25.1-1.2-37.2c-0.1-5.6,0.2-11.3,0.3-17c0.1-13.5,0.2-27,0-40.5
			c-0.1-3.8-1.2-7.5-2.2-11.2c-0.6-2.3-2.7-2.8-4.8-1.5c-0.9,0.5-1.7,1.1-2.4,1.8c-5.8,6.4-12.2,12.2-17.2,19.4
			c-5,7.3-11.2,13.8-16.9,20.6c-2.9,3.4-5.8,6.7-9.2,10.6c-13.4-13.7-26.5-27.3-39.7-40.9c-5.3,0.6-5.5,0.6-5.4,5.2
			c0.1,12.1,0.7,24.3,0.6,36.4c-0.2,14.4-0.8,28.8-1.4,43.2c-0.1,2.4-0.9,4.7-1.4,7.3c-12.6,1.1-24.6,4.3-37.3,2.9
			c0-6.9,0.1-13.5,0-20.1c-0.1-13.3-0.6-26.7-0.5-40c0.1-9.9,1-19.8,1.1-29.7c0.1-14.4-0.3-28.8-0.5-43.2c-0.1-4.5-0.4-8.9-0.5-13.4
			c-0.4-10.7-0.9-21.5-1.2-32.2c-0.1-2.1,0.4-4.2,0.6-6.6c2-0.1,3.4-0.2,4.8-0.3c9.1-0.6,18.2-1.1,27.2-2c5.4-0.5,9.2,0.4,12.7,5.6
			c8.9,13.1,18.7,25.5,28.1,38.2c3.1,4.2,6.1,8.7,9.3,12.9c1.4,1.9,3.1,3.7,5.1,5c3.5,2.5,4.8,1.9,7.3-1.7c1.4-2.1,3.3-3.9,4.9-5.9
			c6.2-7.9,12.3-15.9,18.5-23.9c7.5-9.8,15-19.6,22.6-29.3c2-2.5,5.1-2.5,7.8-2.3c9.2,0.9,18.1,0,27.2-1.4c3.1-0.5,6.4-0.1,9.6-0.1
			c0,10.5-0.1,20.8,0,31.1c0,5.8,0.4,11.6,0.5,17.5c0.1,4.6,0.1,9.2,0.1,13.9c0,10.8,0,21.5,0,32.3c0,2.2,0.5,4.4,0.5,6.6
			c0,16,0.2,32.1,0,48.1c-0.2,11.3-1,22.6-1.6,34.3c-6,2.9-12.7,2.6-19.3,2.9c-5.2,0.2-10.3,0.2-15.2,2.9
			C679.7,577.3,675.8,576.8,671.9,577.3z"/>
		<path fill="#A6FF1A" d="M784.7,463.9c6.2-0.8,11.5-1.4,16.8-2.2c3.1-0.5,4.7,0.3,5.1,3.6c0.9,6.6,1.6,13.2,2.3,19.9
			c0.3,3.4-1.1,6-4.4,7.1c-5,1.7-9.9,3.7-15.1,4.6c-3.3,0.6-4.3,2.7-5.6,4.9c-0.5,0.8-0.2,3,0.3,3.2c3.6,1.8,2.9,5.2,3,8
			c0.2,6.2-0.2,12.5-0.3,19.4c0.2,0.1,1.2,1,2.2,1c5.7-0.1,11.3-0.4,17-0.7c5.2-0.3,10.4-0.6,15.9-1c1,2.4-1.3,5.9,2.4,7.6
			c0.6,0.3,0.5,2.7,0.4,4.1c-0.2,6.2-0.6,12.4-0.9,19.4c-1.2,0.3-3.1,1-5,1.2c-7.2,0.9-14.5,1.8-21.7,2.3
			c-6.3,0.5-12.6,0.1-18.8,0.6c-5.4,0.4-10.7,1.6-16.1,2.3c-3.5,0.5-7.1,0.8-11.3,1.2c-0.2-6.1-0.5-11.5-0.6-16.9
			c0-14.5,0-29,0.1-43.5c0-3.6,0.8-7.1,1.1-10.7c1-10.6-0.7-21.2-0.7-31.7c0-11.1-1-22.1-2.3-33.1c-0.4-3.5,0.5-7.2,0.6-10.8
			c0.4-12.7,0.7-25.3,1.1-38c5.6-0.6,10.5-1.2,15.5-1.8c7.6-0.8,15.2-1.6,22.8-2.4c4.2-0.5,8.2,0.6,12.5,0.3
			c8.5-0.6,16.5-3.2,25.4-3.8c2.2,6.6,5,12.9,4,20.2c-0.4,2.9,0.4,6,0.9,9c0.5,3-0.6,5.2-3.3,6.5c-4.9,2.3-9.7,4.8-15.3,5.5
			c-6.6,0.8-13,2.7-19.6,4c-1.8,0.4-3.6,0.5-5.4,0.7c-3.6,0.3-5.4,3-4.7,6.5c0.4,2.2,0.6,4.4,0.7,6.6
			C784,445.6,784.3,454.1,784.7,463.9z"/>
		<g>
			<path d="M438.9,546.4c-5.9-1.6-6.3-6.1-7.4-9.1c-4.8-0.3-9-0.9-13.2-0.8c-17.2,0.3-34.5-0.2-51.6-2.5c-3.5-0.5-4.2-1-4-4.6
				c0.1-2.6,0.8-5.3,0.7-7.9c-0.7-16.5-1.7-33-2.5-49.6c-0.4-7.6-0.8-15.3-0.9-22.9c-0.3-12.4-0.4-24.8-0.5-37.3
				c0-5.2,0.1-10.4,0.2-15.6c0-2-0.5-3.7-2.9-3.9c-5.8-0.5-11.7-1.4-17.5-1.2c-7.6,0.3-15.2,1.7-22.9,0.1c-2.3-0.5-4.8,0.5-6.8,0.7
				c0.9,4,2,6.5,2.1,9c0.5,10.3,0.8,20.7,0.9,31c0.1,22.3,0.1,44.6,0.1,67c0,5-0.2,10-0.3,15c-0.1,2.6-0.2,5.2-0.2,7.7
				c-0.2,7.6-0.2,15.2-0.5,22.8c-0.4,9.9-1.1,19.8-1.4,29.7c-0.1,5.5,1.9,7.8,7.2,8.1c11.7,0.6,23.5,1,35.2,1.3c7.7,0.2,15.3,0,23,0
				c13.8,0.1,27.6,0.2,41.3,0.2c2.8,0,5.7-0.2,8.5-0.4c6-0.4,7.5-1.9,8-7.7c0.1-1.5,0.3-3.1,0.4-3.5c-0.6,0.4,2.8-8.7,2.1-7.9
				c-0.4-3.4-0.7-6.2-1.1-9C434.4,552,434.1,548.7,438.9,546.4z M413.5,578.2c-4.6,0.4-8.8-0.1-13-1.3c-3.9-1.1-7.8-1.6-11.9-1.5
				c-5.6,0.2-11.2-0.3-16.9-0.2c-3.8,0.1-7.6,0.8-11.4,1c-3.6,0.2-7.2-0.1-10.8-0.1c-10,0-20,0.1-30,0.2c-0.6,0-1.1-0.2-2.5-0.5
				c0-14.7,0.1-29.5,0-44.2c-0.1-14.8-0.7-29.7-0.6-44.5c0.2-14.8,1.3-29.6,1.5-44.5c0.3-14.9,0.1-29.8,0.1-45.1
				c7.5,1.8,13.9,0.9,20.3,0c3.5-0.5,7.1-0.9,10.7-1c3.2,0,4.6,2.2,4.7,5.2c0.4,11.5,0.9,23,1.3,34.6c0.4,12.4,0.9,24.7,1.2,37.1
				c0.3,10.3,0.1,20.6,0.5,30.9c0.3,6.9,1.4,13.7,1.9,20.5c0.3,3.8,0,7.6,0,12.1c2,0.5,4,1.2,6.1,1.4c11.7,0.9,23.4,1.7,35.1,2.4
				c7.5,0.5,15,0.9,22.4,1.5c2,0.2,3.9,0.8,6.3,1.2c0.4,11.6,0.7,22.9,1.1,34.9C423.9,575,418.6,577.7,413.5,578.2z"/>
			<path d="M359.9,605.8c1.9-1.6,4.2-4.8,6-4.5c4,0.6,2.1,4.9,2.6,7.6c0.2,1.2-0.6,3.5-1.6,4c-1.8,0.9-3.3-0.4-4.2-2.3
				C362,609.2,361.1,607.9,359.9,605.8z"/>
			<path d="M288.2,493.4c0,2.9-1.4,4.7-3.5,4.7c-2.7,0-4.3-1.8-4.2-4.7c0.1-2.9,1.9-4.9,4.2-4.8
				C286.8,488.6,288.2,490.6,288.2,493.4z"/>
			<path d="M285.4,590.1c-0.1,2-0.3,4.2-3.3,4.5c-2.7,0.3-4.6-1.9-4.6-5.1c0-2.1,2.3-4.6,4.1-4.4
				C283.5,585.1,285.3,587.4,285.4,590.1z"/>
			<path d="M346.1,609.9c1.5-3.3,2.3-5.4,3.4-7.2c0.4-0.7,1.7-1.3,2.4-1.2c0.8,0.1,1.7,1.2,1.9,2c0.3,1.1,0.2,2.4,0,3.6
				c-0.3,1.5-0.8,3.8-1.6,4C350.6,611.4,348.7,610.4,346.1,609.9z"/>
			<path d="M379,608.2c0.2-3.7,3-4.7,5.2-6.2c3.7,4.2,3.7,5.2,0.4,10.1C382.7,610.8,380.8,609.5,379,608.2z"/>
			<path d="M289,425.1c0.4,2,1.1,4,1,5.9c-0.1,1.1-1.2,2.7-2.2,3.1c-1,0.3-2.9-0.4-3.5-1.3c-0.8-1.1-1.2-3.1-0.7-4.3
				c0.6-1.5,2.3-2.5,3.6-3.7C287.8,424.9,288.4,425,289,425.1z"/>
			<path d="M302.1,488c3.8,2.3,1.8,5.6,1.7,8.5c-2.5,0.9-4.7,1.8-5.9-1.1C296.7,492.8,298.4,490,302.1,488z"/>
			<path d="M281.9,508.6c2.8-0.3,3.9,1,3.9,3c0,1.9-0.4,3.9-1.1,5.6c-0.2,0.5-2.4,0.8-3.1,0.3c-1-0.6-2.1-2.2-1.9-3.2
				C279.9,512.5,281,510.7,281.9,508.6z"/>
			<path d="M285.6,606.9c0.1,3.1-2.2,5.4-4.3,5.2c-2.2-0.2-3.2-1.4-3.2-3.6c0-2.4,2-5.2,3.7-4.6
				C283.5,604.4,284.7,606.2,285.6,606.9z"/>
			<path d="M280.5,548.1c5.4,3.1,6.3,5.4,4,8.5c-0.6,0.8-2,1.6-2.9,1.5c-0.9-0.1-2.1-1.5-2.1-2.4
				C279.5,553.4,280.1,551.1,280.5,548.1z"/>
			<path d="M314.6,603.5c0.4,1,1.4,2.5,1.6,4c0.2,2.3-2.3,4.5-4.7,4.3c-1.8-0.1-2.8-1.2-2.7-3.2C309,605.7,311.3,603.2,314.6,603.5z
				"/>
			<path d="M301.6,443.6c3.2,2.8,2.7,5.5,2,8.2c-3.8,1.4-5.3-1-7.4-3.9C298.2,446.3,300,445,301.6,443.6z"/>
			<path d="M287.7,470.2c-1.4,1.5-2.5,2.7-3.6,3.9c-0.9-1.1-2.4-2.2-2.6-3.4c-0.4-1.7,0.1-3.7,0.4-5.5c0-0.2,2.2-0.5,2.6-0.1
				C285.7,466.4,286.5,468.1,287.7,470.2z"/>
			<path d="M304.1,515.4c-1.7,1.6-2.7,3.6-3.9,3.7c-2.4,0.2-3.3-1.8-3.3-4.1c0-2.5,1.8-4.9,3.2-4.1
				C301.5,511.6,302.4,513.5,304.1,515.4z"/>
			<path d="M300,465.2c3.8,2.8,3.2,5.6,2.2,8.2c-0.3,0.8-2.4,1.6-3.3,1.3c-0.9-0.3-2.1-2.2-1.9-3C297.5,469.6,298.7,467.7,300,465.2
				z"/>
			<path d="M302.6,555.3c-3.6,1.2-3.6,1.2-7.1-5.7c1.7-0.4,3.5-1.5,4.7-1C303.2,549.8,302.5,552.8,302.6,555.3z"/>
			<path d="M280.5,448.3c1.5-1.2,2.5-1.8,3.3-2.6c1.4-1.4,3.1-1.7,4.1-0.2c0.7,1.1,0.6,3.3-0.1,4.3c-0.7,1-2.7,1.9-4,1.7
				C282.7,451.3,281.8,449.6,280.5,448.3z"/>
			<path d="M286.5,418.8c-3.2-3-2.3-6-1.7-9.2C289.9,411,290.5,414.5,286.5,418.8z"/>
			<path d="M300,594.6c-3.2,0.9-5.1,0.4-5.8-2.4c-0.4-1.8-0.7-3.9,1.6-4.6c2.4-0.7,3.2,1,3.5,3C299.5,591.8,299.7,592.9,300,594.6z"
				/>
			<path d="M402.3,598.4c-3.3-5.5-2.9-6.7,2.5-8.4C405.8,593.2,406.3,596.2,402.3,598.4z"/>
			<path d="M332.4,590.1c2.1,2.6,4.9,4.3,1.9,7.1c-0.6,0.6-2.6,0.7-3.2,0.2C328.2,594.8,330.7,592.9,332.4,590.1z"/>
			<path d="M387,588.2c0.5,2.5,1.1,4.3,1.1,6.2c0,0.9-1.2,2.4-2,2.5c-0.8,0.1-2.5-0.9-2.7-1.7C382.7,592.7,382.5,590,387,588.2z"/>
			<path d="M285.1,565.6c2.9,1.4,3.3,3.5,2,5.6c-0.5,0.9-2.2,1.1-3.4,1.6c-0.5-1.2-1.5-2.5-1.2-3.4
				C282.9,567.9,284.2,566.8,285.1,565.6z"/>
			<path d="M302.5,416.5c-5.1-1.7-5.3-2.4-2.5-6.7C304.6,411.8,304.6,411.8,302.5,416.5z"/>
			<path d="M298.2,427.3c1.5,0.5,2.3,0.7,3,1.1c2.3,1.1,1.6,3,1.1,4.7c-0.2,0.7-1.4,1-2.1,1.6c-0.8-1.2-1.9-2.4-2.4-3.7
				C297.4,430.1,297.9,429,298.2,427.3z"/>
			<path d="M297.8,566.1c0.5,0.2,0.9,0.3,1.2,0.5c2.4,2.2,1.3,4.4-0.3,6.3c-0.4,0.4-2.1,0.4-2.6,0c-1.9-1.9-1.2-4,0.4-5.8
				C296.9,566.7,297.4,566.4,297.8,566.1z"/>
			<path d="M346.5,588.4c3.3,1.1,5.8,1.8,4.8,4.8c-1.1,3-3.6,1.5-6.5,1.5C345.4,592.3,345.9,590.5,346.5,588.4z"/>
			<path d="M310.4,596.2c1.4-2.1,2.2-3.9,3.6-4.9c0.7-0.5,2.5,0.7,4.7,1.4C316.3,595.4,315.2,597.9,310.4,596.2z"/>
			<path d="M282.3,534.7c0-2.1-1.6-4.9,1.9-5.8c2-0.5,3,1.2,2.9,3C287,534.6,285.3,535.7,282.3,534.7z"/>
			<path d="M330.2,604.5c2.4,0.6,4.7,1.1,3.3,3.9c-0.5,1-2.6,2.2-3.2,1.9C327.6,608.9,328.7,606.8,330.2,604.5z"/>
			<path d="M302.5,533.6c-1.4,1.2-2.4,2.3-2.6,2.2c-1.4-0.9-2.5-2-3.8-3.1c0.8-0.8,1.9-2.4,2.2-2.2
				C299.7,531.2,300.8,532.3,302.5,533.6z"/>
			<path d="M366.9,589.4c0.4,1.4,0.8,2.2,0.7,2.9c-0.2,1.2-0.6,2.4-1,3.6c-1-0.4-2.2-0.5-2.9-1.2c-1.3-1.3-1.1-2.9,0.4-4.1
				C364.6,590.1,365.5,590,366.9,589.4z"/>
			<path d="M292.6,609.6c1.7-2.5,3.6-3.6,5.9-1.5c0.4,0.4,0.1,2.5-0.5,3C295.7,612.9,294.1,611.8,292.6,609.6z"/>
			<path d="M402.5,605.6c-0.1,1.1-0.1,2.2-0.3,3.2c0,0.1-1,0.2-1,0.2c-0.3-1.1-0.5-2.1-0.8-3.2C401.1,605.8,401.8,605.7,402.5,605.6
				z"/>
			<path fill="#A6FF1A" d="M429.7,578.6c-5.8-3.6-11.1-0.9-16.2-0.4c-4.6,0.4-8.8-0.1-13-1.3c-3.9-1.1-7.8-1.6-11.9-1.5
				c-5.6,0.2-11.2-0.3-16.9-0.2c-3.8,0.1-7.6,0.8-11.4,1c-3.6,0.2-7.2-0.1-10.8-0.1c-10,0-20,0.1-30,0.2c-0.6,0-1.1-0.2-2.5-0.5
				c0-14.7,0.1-29.5,0-44.2c-0.1-14.8-0.7-29.7-0.6-44.5c0.2-14.8,1.3-29.6,1.5-44.5c0.3-14.9,0.1-29.8,0.1-45.1
				c7.5,1.8,13.9,0.9,20.3,0c3.5-0.5,7.1-0.9,10.7-1c3.2,0,4.6,2.2,4.7,5.2c0.4,11.5,0.9,23,1.3,34.6c0.4,12.4,0.9,24.7,1.2,37.1
				c0.3,10.3,0.1,20.6,0.5,30.9c0.3,6.9,1.4,13.7,1.9,20.5c0.3,3.8,0,7.6,0,12.1c2,0.5,4,1.2,6.1,1.4c11.7,0.9,23.4,1.7,35.1,2.4
				c7.5,0.5,15,0.9,22.4,1.5c2,0.2,3.9,0.8,6.3,1.2C428.9,555.2,429.3,566.5,429.7,578.6z"/>
		</g>
		<path fill="#A6FF1A" d="M495.1,574.8c-2.5,0.8-4.3,0.9-6.9,0.2c-3.9-1-8.3,0.3-12.5,0.6c-3.8,0.3-7.5,0.5-11.7,0.9
			c-0.4-6.7-0.8-12.5-0.9-18.3c-0.3-12.4-0.4-24.8-0.7-37.3c-0.2-9.7-0.6-19.3-0.9-29c0-1.2-0.2-2.5-0.1-3.6
			c1.3-8.5-0.1-16.9-1-25.3c-0.3-3.4,0-6.9-0.1-10.3c-0.3-14.4-0.7-28.7-1.1-43.1c-0.1-5-0.2-10-0.3-14.9c-0.1-2.7,1.4-3.5,3.8-3.4
			c5.9,0.3,11.7,0.7,17.6,0.8c4.1,0.1,8.3-0.4,13-0.6c0.3,5.1,0.9,10.9,1,16.8c0.2,12.1-0.1,24.3,0.1,36.4
			c0.3,16.4,0.8,32.8,1.1,49.1c0.1,3.4-0.4,6.9-0.7,10.3c-0.2,3.2-0.8,6.5-0.8,9.7c0,12.4,0.2,24.8,0.3,37.2c0,4.6-0.4,9.2-0.3,13.8
			C494.2,567.8,494.7,571,495.1,574.8z"/>
	</g>
</g>
</svg>
