<?xml version="1.0" encoding="utf-8"?>
<!-- Generator: Adobe Illustrator 26.1.0, SVG Export Plug-In . SVG Version: 6.00 Build 0)  -->
<svg version="1.1" id="Layer_1" xmlns="http://www.w3.org/2000/svg" xmlns:xlink="http://www.w3.org/1999/xlink" x="0px" y="0px"
	 viewBox="0 0 1500 900" enable-background="new 0 0 1500 900" xml:space="preserve">
<pattern  x="-427.8" y="1591" width="785" height="785" patternUnits="userSpaceOnUse" id="chips_2" viewBox="0 -785 785 785" overflow="visible">
	<g>
		<rect y="-785" fill="none" width="785" height="785"/>
		<path fill="none" d="M785-99.7V0H631.9c-1-3.1-2.7-6.3-5.1-9.3c-0.9-1.2-2-2.3-3-3.4c-10-12.1-22.5-21.5-34.3-31.7
			c-11.3-9.7-23.1-18.8-36.6-25.1c-17.6-8.3-24.3-5.9-31.3,12c-0.2,0.5-0.4,0.9-0.5,1.4c-5.8,18.3-7.3,37.1-8,56.1H321.7
			c0-0.2-0.1-0.3-0.1-0.5c-1.7-7.6-3.8-15.2-7.2-22.2C309.1-33.6,300.6-39.3,288-33c-3.3,1.7-7.2,2.3-10.6,4
			c-13.2,6.7-26.4,13.3-39.2,20.7c-3.5,2-7,5-9.5,8.3h-43.5c-0.5-9.9-1.6-19.8-2.5-29.7c-0.8-9.3-1.2-18.5-4.3-27.5
			c-1.9-5.6-5.2-8.5-10.5-9.4c-2.9-0.5-6-0.8-9-0.5c-16.8,1.6-33.5,3.4-49.7,8.7C99-55,88.6-52.2,78.5-48.3
			c-10.5,4-19.3,10.7-25.8,20.2c-4.1,6-3.6,11.7-0.8,17.2C53.8-7.5,56.6-3.7,60,0H0v-99.7c4.9-0.8,9.7-3.1,13.7-6.7
			c1.8-1.7,3.8-3.3,5.6-5c4.4-4.1,9-8,13.1-12.3c7.1-7.5,13.6-15.5,20.9-22.9c8-8.1,14.8-17.1,20.7-26.8c3.2-5.2,3.2-10.3-0.3-14.8
			c-4.2-5.3-8.6-10.7-14-14.5c-9-6.4-18.7-11.9-28.5-17c-10.3-5.4-20.7-10.7-31.1-15.9v-52.9c2.7,0.5,5.4,1,8.1,1.6
			c8.1,1.9,16.1,4.1,24,6.4c7.8,2.2,13.1-4,13.5-10.3c0.2-4,0-8.1,0-12.1c0.4,0,0.8-0.1,1.2-0.1c-1.2-8.7-1.9-17.5-3.8-26
			c-1.7-7.6-3.8-15.2-7.2-22.2c-5.3-10.9-13.8-16.7-26.4-10.4c-3,1.5-6.4,2.2-9.5,3.5v-60.6c5.5-0.8,11-1.9,16.5-3.4
			c0-1.6,0.1-3.1,0-4.5c-0.7-8.3-3.8-15.7-8.6-22.3c-2.8-3.8-5.4-7.8-7.9-11.8V-583c0.9-0.1,1.8-0.2,2.6-0.4
			c11.3-1.9,22.7-3.1,33.6-7.8c9.4-4,19-7.7,29.3-9.6c9.9-1.8,19-6.9,24.1-15.6c7.7-13.2,7.7-27.3,0.7-41.2
			c-6.7-13.3-17.8-23.2-28.1-33.3c-13.1-12.8-27.6-24.2-41.9-35.6c-6.3-5-13.2-9.2-20.2-13V-785h60c3.7,4.1,8.1,8.1,12.7,11.5
			c16,11.8,31.8,23.8,48.4,34.8c10.6,7.1,22,13.3,33.7,18.5c12.9,5.7,22.4,0.2,25.2-13.5c1.9-9.4,3.4-18.8,4.5-28.3
			c0.8-7,1.3-14.1,1-21.1c0-0.7-0.1-1.3-0.1-2h43.5c-0.8,1.1-1.5,2.1-2.1,3.3c-6.3,12-6.7,24,9.8,28.4c10.2,2.7,20.6,4.5,30.9,6.5
			c6.4,1.3,12.9,2.1,19.3,3.5c8.1,1.9,16.1,4.1,24,6.4c7.8,2.2,13.1-4,13.5-10.3c0.2-4,0-8.1,0-12.1c0.4,0,0.8-0.1,1.2-0.1
			c-1.2-8.5-1.9-17.2-3.7-25.6H513c0,0.2,0,0.3,0,0.5c-0.3,10,0,20.1-0.9,30.1c-0.8,8.7,0,17.1,2.5,25.3c1.2,4,3.7,7.7,6,11.1
			c3,4.4,6.8,6.5,12.2,3.3c2.3-1.4,4.9-2.4,7.5-3.3c7.2-2.8,14.5-5.4,21.7-8.2c4-1.5,8.1-2.7,11.9-4.7c9.1-4.8,18-10.1,26.9-15.1
			c0.2,0.3,0.4,0.6,0.5,0.9c6.4-3.9,13.1-7.5,19.3-11.7c10.8-7.2,14.7-17.7,11.2-28.2H785v45.5c-1.1-0.6-2.2-1.2-3.3-1.8
			c-5-2.6-10.9-4.1-16.5-4.7c-7.9-0.9-13.7,3.6-15.1,11.4c-1.8,9.9-3.1,19.9-4.2,29.8c-1,8.7-1.5,17.5-2.2,26.2c0.5,0,1.1,0,1.6,0.1
			c0,8.6-0.5,17.1,0.1,25.7c1.2,16,0.9,32.2,5.2,47.9c3.2,11.4,10.4,18.5,22.1,21.4c4.2,1,8.3,1,12.3,0.5v122.4
			c-4.8-7.7-9.3-15.5-13.8-23.5c-8.7-15.5-19.5-29.8-29.6-44.5c-3.2-4.7-8-5.9-13.4-4.3c-6,1.8-11.2,4.6-14.2,10.4
			c-7.3,14.3-19.1,25.1-28.4,38c-10,14-19.6,28-27.1,43.4c-2.5,5.1-2.2,10.3-1,15.5c0.8,3.3,2.7,5.9,6.5,6.5
			c2.5,0.4,4.9,1.5,7.3,1.6c6.2,0.4,12.7-0.4,18.7,0.7c19.9,3.7,39.7,0,59.5,0c11.7,0,23.4-0.2,35.3-1.9v60.6
			c-0.4,0.2-0.7,0.3-1,0.5c-13.2,6.7-26.4,13.3-39.2,20.7c-4.6,2.7-9.2,6.9-11.6,11.5c-6.3,12-6.7,24,9.8,28.4
			c10.2,2.7,20.6,4.5,30.9,6.5c3.7,0.7,7.4,1.3,11.1,2v52.9c-6.2-3.1-12.5-6.1-18.7-9.1c-7.8-3.8-15.2-9-24.6-9.5
			c-0.8,0.8-1.5,2.1-2.5,2.6c-8.2,4.2-8.3,11-6.4,18.7c0.9,3.6,1.3,7.4,1.8,11.1c2.6,17.4,4.7,34.9,8,52.2
			c2.6,13.6,6.5,26.9,10.3,40.2c1.5,5.5,3.7,11,6.4,16c2,3.7,4.8,7.3,8.2,9.7C772.6-99.9,778.9-98.7,785-99.7z M560-642.5
			c1.6,3.1,3.8,6.1,6.3,8.4c10.7,9.6,21.1,19.6,32.6,28c11.9,8.7,24.8,16.4,37.8,23.4c10.1,5.5,20.8,10.6,32.3,9.3
			c2,0.2,3.2,0.4,4.5,0.4c8.4,0,14.1-6.1,13.6-14.5c-0.1-1.2-0.4-2.5-0.6-3.7c-4.2-23.3-8.1-46.6-12.8-69.8
			c-2.1-10.1-5.3-20-9.1-29.5c-5.4-13.2-16.2-16.6-28.4-12.6c-7.1,2.3-13.5,6.5-20.1,10.1c-5.7,3.1-10.8,7.8-16.8,9.8
			c-11.3,3.8-22.1,8.2-32.1,14.7C557.3-661.9,554.5-652.8,560-642.5z M496.2-537.7c10.2,2.7,20.6,4.5,30.9,6.5
			c6.4,1.3,12.9,2.1,19.3,3.5c8.1,1.9,16.1,4.1,24,6.4c7.8,2.2,13.1-4,13.5-10.3c0.2-4,0-8.1,0-12.1c0.4,0,0.8-0.1,1.2-0.1
			c-1.2-8.7-1.9-17.5-3.8-26c-1.7-7.6-3.8-15.2-7.2-22.2c-5.3-10.9-13.8-16.7-26.4-10.4c-3.3,1.7-7.2,2.3-10.6,4
			c-13.2,6.7-26.4,13.3-39.2,20.7c-4.6,2.7-9.2,6.9-11.6,11.5C480.1-554.2,479.7-542.2,496.2-537.7z M346.8-655.1
			c5.3,2.8,10.9,5.2,16.7,6.8c19.2,5.3,38.4,10.4,57.7,15.1c8.3,2,16.9,2.9,26.1,4.4c5.8-1.3,12.2-2.4,18.4-4.3
			c6.5-2,8.7-5.3,7.4-11.8c-2.6-12.5-5.2-25.1-9.1-37.3c-5.1-15.5-11.4-30.7-17.4-45.9c-3.2-8.2-6.6-16.4-10.3-24.4
			c-3.5-7.5-8.3-8.9-16-6.5c-10,3.1-17.4,10.3-24.9,16.7c-12.2,10.5-23.4,22.2-34.5,33.8c-7.3,7.6-14.8,15.4-20.3,24.3
			C332-670.6,334.2-661.8,346.8-655.1z M304.2-522.3c4,4.4,8.5,8.6,13.4,12c16.3,11.4,32.7,22.7,49.3,33.6
			c7.1,4.7,14.9,8.4,23.1,12.9c5.9,0.7,12.3,1.8,18.8,2.1c6.8,0.3,10-2,10.9-8.7c1.7-12.7,3.6-25.4,3.9-38.2
			c0.4-16.3-0.5-32.7-1-49.1c-0.3-8.8-0.7-17.6-1.5-26.4c-0.8-8.3-4.8-11.2-12.9-11.5c-10.5-0.4-19.9,3.8-29.1,7.4
			c-15,5.8-29.5,13-43.8,20.3c-9.4,4.7-19.1,9.5-27.3,16C295.4-541.9,294.6-532.9,304.2-522.3z M334.8-370.7
			c-0.4-1.6-0.9-3.1-1.3-4.6c-4-16.2-11.7-30.9-18.4-46c-6.4-14.4-13.6-28.6-23.6-40.8c-13.1-16-20.6-16.8-35.5-2.8
			c-0.4,0.4-0.8,0.7-1.2,1.1c-14,15-24.1,32.5-33.4,50.6c-4.9,9.4-9.1,19.3-14.6,28.4c-4.8,8-7.8,16.4-9.1,25.4
			c-0.6,4.4,0,9,0.7,13.4c0.9,5.5,3.6,9.4,10.1,8.7c2.9-0.3,5.8,0,8.7,0.2c8.2,0.6,16.3,1.4,24.5,2.1c4.5,0.4,9,1.1,13.5,0.9
			c10.9-0.5,21.8-1.4,32.7-2.2c0,0.4,0.1,0.7,0.1,1.1c7.9-0.8,15.9-1.3,23.8-2.4C329.6-340.1,338.6-353.4,334.8-370.7z M172.5-638.5
			c2.2,10.8,5.5,21.5,9.1,31.9c6,17.6,12.5,35,19.1,52.4c3.1,8.1,4.9,17,11.4,23.8c1.2-0.1,2.5-0.5,3.6-0.2
			c8.8,2.5,13.6-2.4,17.5-9.3c1.8-3.3,4.1-6.3,6.3-9.4c10-14.5,20.5-28.6,30-43.4c7.4-11.6,13.7-24,20.1-36.3
			c2.7-5.1,4.9-10.5,6.3-16c1.1-4,1.5-8.6,0.7-12.6c-2.2-11.4-12.7-19.4-24.6-19.5c-2.5,0-5-0.2-7.5-0.2c-6-0.1-12-0.4-18,0
			c-10.3,0.6-20.6,1.9-30.9,2.3c-11.4,0.4-22.5,2.3-33.5,5.3c-5.9,1.6-9.4,5.3-9.9,11C171.7-652,171.2-645,172.5-638.5z M78.6-446.8
			c11.9,8.7,24.8,16.4,37.8,23.4c10.1,5.5,20.8,10.6,32.3,9.3c2,0.2,3.2,0.4,4.5,0.4c8.4,0,14.1-6.1,13.6-14.5
			c-0.1-1.2-0.4-2.5-0.6-3.7c-4.2-23.3-8.1-46.6-12.8-69.8c-2.1-10.1-5.3-20-9.1-29.5c-5.4-13.2-16.2-16.6-28.4-12.6
			c-7.1,2.3-13.5,6.5-20.1,10.1c-5.7,3.1-10.8,7.8-16.8,9.8c-11.3,3.8-22.1,8.2-32.1,14.7c-9.8,6.4-12.6,15.6-7.1,25.9
			c1.6,3.1,3.8,6.1,6.3,8.4C56.7-465.3,67.1-455.3,78.6-446.8z M175.9-217.1c4.1-5.7,7.9-11.7,11-18c4.7-9.5,8.7-19.3,13-28.9
			c3.7-8.5,7.8-16.8,9.4-26.2c1-5.8-0.5-9.9-4.7-13.3c-2.3-1.9-4.9-3.6-7.7-4.8c-15.5-6.7-31-13.2-47.7-16.3
			c-10.6-2-21.1-4.5-31.8-6c-11.2-1.5-22,0.1-32.3,5.3c-6.5,3.3-8.8,8.5-9,14.7c0.1,8.2,2.8,19.8,7.4,29.7
			c8.4,18,16.4,36.2,25.6,53.8c5.9,11.3,12.9,22.3,20.6,32.4c8.5,11.2,19.5,11,28.6,0.3C164.5-201.7,170.4-209.3,175.9-217.1z
			 M320.2-113.5c-0.7-8.3-3.8-15.7-8.6-22.3c-8.1-11.2-14.9-23.2-21.7-35.2c-8.7-15.5-19.5-29.8-29.6-44.5c-3.2-4.7-8-5.9-13.4-4.3
			c-6,1.8-11.2,4.6-14.2,10.4c-7.3,14.3-19.1,25.1-28.4,38c-10,14-19.6,28-27.1,43.4c-2.5,5.1-2.2,10.3-1,15.5
			c0.8,3.3,2.7,5.9,6.5,6.5c2.5,0.4,4.9,1.5,7.3,1.6c6.2,0.4,12.7-0.4,18.7,0.7c19.9,3.7,39.7,0,59.5,0c17,0,34.2-0.5,51.8-5.4
			C320.2-110.6,320.3-112.1,320.2-113.5z M328.4-239.9c10.7,9.6,21.1,19.6,32.6,28c11.9,8.7,24.8,16.4,37.8,23.4
			c10.1,5.5,20.8,10.6,32.3,9.3c2,0.2,3.2,0.4,4.5,0.4c8.4,0,14.1-6.1,13.6-14.5c-0.1-1.2-0.4-2.5-0.6-3.7
			c-4.2-23.3-8.1-46.6-12.8-69.8c-2.1-10.1-5.3-20-9.1-29.5c-5.4-13.2-16.2-16.6-28.4-12.6c-7.1,2.3-13.5,6.5-20.1,10.1
			c-5.7,3.1-10.8,7.8-16.8,9.8c-11.3,3.8-22.1,8.2-32.1,14.7c-9.8,6.4-12.6,15.6-7.1,25.9C323.7-245.2,325.9-242.2,328.4-239.9z
			 M494-128.3c-2.7-19.3-8.3-23.6-27.2-19.7c-0.5,0.1-1,0.2-1.5,0.3c-18.6,5.2-35.4,14.4-51.8,24.3c-8.6,5.2-16.8,11-25.7,15.7
			c-7.8,4.1-14.3,9.4-19.8,16c-2.6,3.2-4.4,7.3-6,11.2c-2,4.9-1.7,9.3,3.9,12c2.4,1.2,4.7,2.8,6.9,4.4c6.3,4.5,12.5,9.1,18.7,13.7
			c3.4,2.5,6.7,5.3,10.4,7.4c9,5,18.3,9.5,27.4,14.3c-0.2,0.3-0.3,0.6-0.5,1c6.8,3.3,13.4,6.8,20.4,9.8c15.5,6.6,29.4,0.4,34.7-15.4
			c0.5-1.4,0.8-2.9,1.3-4.3c4.7-15,5.7-30.6,7.8-46.1C494.9-98.6,496.1-113.5,494-128.3z M519.5-301.7c8.1-3.7,13.7-10.1,18.6-17.4
			c4.4-8.3,9.3-16.5,13.2-25.1c6.8-15,13-30.3,19.4-45.5c8.2-19.6,14.6-39.6,14.5-61.1c0-18.4-11.1-28-29.1-24
			c-12.6,2.8-24.6,7-35.7,13.8c-16.9,10.4-34.4,19.8-51.2,30.2c-11.9,7.3-24.4,14.4-31.7,27.1c-1.9,3.3-3.8,7.3-3.7,11
			c0,5.7,1,11.7,2.8,17.1c5.3,16,15.9,28.8,27.7,40.3c8,7.8,17.5,14.1,26.3,21.1c4.8,3.8,9.9,7.2,14.5,11.2
			C509.7-299,514.4-299.3,519.5-301.7z M638.9-162.4c4-0.3,8-0.6,12-1c5.3-0.6,9.1-3.3,9.4-9c0.4-6,1-12.1,0.1-17.9
			c-0.9-6.4-3.3-12.6-5.1-18.8c-4.5-15.5-3.6-32-8.7-47.3c-0.7-2.1-1.1-4.4-1.5-6.6c-3.8-18.7-3.5-38-8-56.7
			c-1.2-4.9-2.7-8.5-6.1-12.2c-4.2-4.6-8.9-5-13.6-2.7c-4.8,2.5-9.8,5.6-13.1,9.8c-9.4,12.1-18.3,24.6-26.8,37.4
			c-7.1,10.7-13.1,22.1-20.1,32.8c-10.1,15.6-20.8,30.9-30.7,46.6c-3.9,6.1-6.4,13.1-9.4,19.7c-1.9,4.1-0.3,7.4,3.1,9.9
			c1.6,1.2,3.3,2.3,5.1,3.1c12.1,5.6,24.6,10,38.1,11.2c14.5,1.3,29,3,38.5,4C617.7-161.1,628.3-161.7,638.9-162.4z M735.1-89.2
			c-0.2-12.2-5.6-21-19.6-20.5c-3.7,0.1-7.5-0.9-11.3-0.8c-14.8,0.6-29.6,1-44.3,2.4c-5.3,0.5-11.2,2.4-15.4,5.6
			c-10.7,8.2-16.1,19-2.9,29.9c8.1,6.7,16.8,12.7,25.4,18.9c5.3,3.8,10.9,7.3,16,11.3c6.6,5.1,12.9,10.5,19.2,15.8
			c6.2,5.2,13.6,1.9,16.6-3.7c1.9-3.6,3.4-7.3,5.1-11c0.4,0.1,0.8,0.3,1.1,0.4c2.5-8.4,5.5-16.7,7.4-25.2
			C734-73.6,735.2-81.5,735.1-89.2z"/>
		<path d="M638.9-162.4c-10.6,0.7-21.1,1.3-36.7,2.3c-9.6-1-24-2.7-38.5-4c-13.5-1.2-26-5.6-38.1-11.2c-1.8-0.8-3.5-1.9-5.1-3.1
			c-3.4-2.5-4.9-5.8-3.1-9.9c3-6.6,5.6-13.6,9.4-19.7c9.9-15.7,20.7-30.9,30.7-46.6c6.9-10.8,13-22.2,20.1-32.8
			c8.5-12.8,17.4-25.3,26.8-37.4c3.3-4.2,8.3-7.3,13.1-9.8c4.6-2.4,9.3-2,13.6,2.7c3.4,3.7,4.9,7.3,6.1,12.2
			c4.6,18.7,4.3,37.9,8,56.7c0.4,2.2,0.8,4.5,1.5,6.6c5,15.4,4.2,31.8,8.7,47.3c1.8,6.3,4.2,12.4,5.1,18.8c0.8,5.9,0.2,12-0.1,17.9
			c-0.3,5.7-4.1,8.4-9.4,9C646.9-163,642.9-162.7,638.9-162.4z M646.8-168.8c8.4-0.7,9.4-1.6,9.4-12.6c-1.2-7.2-2.6-16.9-4.4-26.5
			c-3-15.6-6.3-31.1-9.4-46.6c-1.5-7.4-2.6-14.8-4.1-22.2c-0.8-4.2-2.4-8.2-3.1-12.4c-2-11.6-3.6-23.4-5.6-35
			c-1.2-6.9-5.1-9.2-11.2-5.5c-4.4,2.6-8.5,6.4-11.6,10.5c-6.5,8.6-12.2,17.8-18.3,26.8c-5.4,7.9-10.9,15.7-16.3,23.6
			c-7.4,11.1-13.8,23-22.4,33.1c-11.8,13.9-19.7,29.7-26.3,46.3c-2.3,5.7-1.7,7.4,3.9,10.1c9.3,4.6,19,7.9,29.5,8.8
			c7,0.6,14.1,0.8,20.9,2.3c7.1,1.6,14,0.5,21,0.4c5.5-0.1,11.1-1.2,16.5-0.7C625.9-167.4,636.3-167.9,646.8-168.8z"/>
		<path fill="#F9F18F" d="M646.8-168.8c-10.5,0.9-20.9,1.4-31.5,0.4c-5.4-0.5-11,0.5-16.5,0.7c-7,0.2-13.9,1.3-21-0.4
			c-6.8-1.6-13.9-1.7-20.9-2.3c-10.4-0.9-20.1-4.2-29.5-8.8c-5.6-2.7-6.2-4.4-3.9-10.1c6.7-16.6,14.6-32.4,26.3-46.3
			c8.5-10.1,14.9-22.1,22.4-33.1c5.3-7.9,10.9-15.7,16.3-23.6c6.1-8.9,11.8-18.1,18.3-26.8c3.1-4.1,7.2-7.8,11.6-10.5
			c6.1-3.6,10.1-1.4,11.2,5.5c2,11.7,3.6,23.4,5.6,35c0.7,4.2,2.3,8.2,3.1,12.4c1.5,7.4,2.6,14.8,4.1,22.2c3.1,15.5,6.4,31,9.4,46.6
			c1.8,9.6,3.2,19.3,4.4,26.5C656.2-170.3,655.2-169.5,646.8-168.8z M564-227c-2.2,7.6-5.9,14.8-6.6,23.2
			C564.3-205.4,567.6-216.8,564-227z M592.9-271.9c9.3,2.5,21.4-1.8,29.1-10.7c-3.7,0.5-6.4,0.4-8.7,1.2c-5.4,2-10.5,4.4-15.8,6.7
			C596-273.9,594.7-273,592.9-271.9z M596.6-244.8c0,9.4,2.8,16.4,5.3,24.2C604.8-226.6,602.8-236.4,596.6-244.8z M633.5-197.8
			c-7.6-0.1-18.5,6-22.6,12.9C617.4-185.3,630.8-193.2,633.5-197.8z"/>
		<path d="M622-282.6c-3.7,0.5-6.4,0.4-8.7,1.2c-5.4,2-10.5,4.4-15.8,6.7c-1.5,0.7-2.8,1.6-4.6,2.7
			C602.1-269.4,614.3-273.7,622-282.6z"/>
		<path d="M557.4-203.8c7-1.6,10.2-13,6.6-23.2C561.8-219.4,558.1-212.2,557.4-203.8z"/>
		<path d="M610.9-184.9c6.6-0.4,20-8.3,22.6-12.9C625.8-197.9,614.9-191.8,610.9-184.9z"/>
		<path d="M601.9-220.6c2.9-6,0.9-15.8-5.3-24.2C596.6-235.5,599.4-228.4,601.9-220.6z"/>
		<path d="M340.4-684.1c5.5-8.9,13-16.7,20.3-24.3c11.1-11.6,22.3-23.3,34.5-33.8c7.5-6.5,14.9-13.6,24.9-16.7
			c7.8-2.4,12.5-1.1,16,6.5c3.8,8,7.1,16.1,10.3,24.4c6,15.2,12.4,30.4,17.4,45.9c4,12.1,6.5,24.7,9.1,37.3
			c1.4,6.6-0.8,9.8-7.4,11.8c-6.2,1.9-12.6,3-18.4,4.3c-9.3-1.5-17.8-2.4-26.1-4.4c-19.3-4.7-38.6-9.8-57.7-15.1
			c-5.8-1.6-11.4-4-16.7-6.8C334.2-661.8,332-670.6,340.4-684.1z M343-669.8c0.9,8.2,1.9,10.4,9.9,12.9c3.8,1.2,7.8,1.9,11.8,2.9
			c5.6,1.4,11.2,2.8,16.7,4.5c20,6.1,40.1,12.3,61.4,10.9c4.5,0,9.1,0,13.6,0c6.7,0,11.4-4.7,10.6-11.4c-0.5-4.2-1.9-8.3-3.1-12.3
			c-3.2-10.8-6.3-21.8-10-32.4c-4.3-12.3-9.4-24.4-14.1-36.6c-1.8-4.7-3.7-9.4-5.8-13.9c-3.6-7.6-11.9-10.3-18.9-5.8
			c-7.6,5-15.3,10-21.8,16.2c-14.6,14.2-28.5,29.2-42.6,43.9C345.1-685.1,342.1-678.4,343-669.8z"/>
		<path fill="#F9F18F" d="M343-669.8c-0.9-8.6,2.2-15.3,7.7-21.1c14.1-14.8,28-29.7,42.6-43.9c6.4-6.3,14.2-11.3,21.8-16.2
			c7-4.6,15.2-1.8,18.9,5.8c2.2,4.5,4,9.3,5.8,13.9c4.8,12.2,9.8,24.3,14.1,36.6c3.8,10.7,6.8,21.6,10,32.4
			c1.2,4.1,2.6,8.1,3.1,12.3c0.8,6.7-3.9,11.4-10.6,11.4c-4.5,0-9.1,0-13.6,0c-21.4,1.4-41.4-4.8-61.4-10.9
			c-5.5-1.7-11.1-3.1-16.7-4.5c-3.9-1-7.9-1.7-11.8-2.9C344.9-659.4,343.9-661.6,343-669.8z M447-668.6c0.5-0.3,0.9-0.6,1.4-0.9
			c-2.7-4.3-5.4-8.6-8.1-12.9C439.1-675.6,442.3-671.6,447-668.6z M402.1-709.2c1.9,0.2,3.9,0.3,5.7,0.7c2.2,0.5,4.3,1.4,6.4,2.1
			c1.6,0.5,3.1,1,4.7,1.6C414.2-710.2,408.9-712.7,402.1-709.2z M401-669.8c1.3,2.1,1.7,3.6,2.6,3.9c7.2,2.4,14.1,6.1,21.9,6.6
			c0.2-0.7,0.4-1.5,0.6-2.2C418.1-664.1,410.2-666.7,401-669.8z M366.2-676.9c6.6-1.5,11.3-5.1,16.3-9.7
			C375.4-685.9,369.1-682.1,366.2-676.9z"/>
		<path d="M403.6-665.9c7.2,2.4,14.1,6.1,21.9,6.6c0.2-0.7,0.4-1.5,0.6-2.2c-7.9-2.6-15.9-5.3-25.1-8.4
			C402.3-667.7,402.7-666.1,403.6-665.9z"/>
		<path d="M366.2-676.9c6.6-1.5,11.3-5.1,16.3-9.7C375.4-685.9,369.1-682.1,366.2-676.9z"/>
		<path d="M447-668.6c0.5-0.3,0.9-0.6,1.4-0.9c-2.7-4.3-5.4-8.6-8.1-12.9C439.1-675.6,442.3-671.6,447-668.6z"/>
		<path d="M414.2-706.4c1.6,0.5,3.1,1,4.7,1.6c-4.6-5.4-10-7.9-16.8-4.4c1.9,0.2,3.9,0.3,5.7,0.7C410-708,412.1-707.1,414.2-706.4z"
			/>
		<path d="M304.2-522.3c-9.6-10.6-8.7-19.6,3.7-29.5c8.2-6.5,17.9-11.3,27.3-16c14.4-7.2,28.9-14.5,43.8-20.3
			c9.2-3.6,18.6-7.8,29.1-7.4c8.1,0.3,12.1,3.2,12.9,11.5c0.9,8.8,1.3,17.6,1.5,26.4c0.5,16.4,1.4,32.8,1,49.1
			c-0.3,12.8-2.2,25.5-3.9,38.2c-0.9,6.6-4.1,9-10.9,8.7c-6.5-0.3-12.9-1.4-18.8-2.1c-8.2-4.6-16-8.3-23.1-12.9
			c-16.6-10.9-33-22.2-49.3-33.6C312.7-513.7,308.2-517.9,304.2-522.3z M310.5-522c3.2,2.4,6.8,4.4,10.1,6.7
			c4.8,3.2,9.6,6.4,14.2,9.9c16.8,12.4,33.6,25,54.2,30.9c4.3,1.5,8.6,3.1,12.8,4.6c6.4,2.3,12.4-0.6,13.8-7.2
			c0.9-4.1,1-8.4,1.2-12.6c0.6-11.3,1.4-22.6,1.4-33.9c0-13.1-0.6-26.1-1-39.2c-0.2-5-0.3-10.1-0.8-15.1
			c-0.9-8.4-7.7-13.7-15.8-11.8c-8.8,2.1-17.8,4.2-26,8c-18.5,8.5-36.7,17.9-54.9,27.1c-7.2,3.6-12.4,8.9-14.4,17.3
			C303.6-529.5,303.8-527.1,310.5-522z"/>
		<path fill="#F9F18F" d="M305.5-537.5c2-8.4,7.2-13.7,14.4-17.3c18.2-9.2,36.4-18.6,54.9-27.1c8.2-3.7,17.2-5.8,26-8
			c8.1-2,15,3.4,15.8,11.8c0.5,5,0.6,10.1,0.8,15.1c0.4,13.1,1.1,26.1,1,39.2c0,11.3-0.9,22.6-1.4,33.9c-0.2,4.2-0.3,8.5-1.2,12.6
			c-1.5,6.6-7.5,9.4-13.8,7.2c-4.3-1.5-8.6-3.1-12.8-4.6c-20.6-5.9-37.4-18.5-54.2-30.9c-4.6-3.4-9.5-6.6-14.2-9.9
			c-3.3-2.3-6.9-4.2-10.1-6.7C303.8-527.1,303.6-529.5,305.5-537.5z M403.1-501.4c0.5-0.1,1.1-0.2,1.6-0.4c-1.1-5-2.2-9.9-3.3-14.9
			C398-510.7,399.7-505.8,403.1-501.4z M374.4-554.7c1.7,0.8,3.6,1.5,5.2,2.6c1.9,1.2,3.6,2.8,5.3,4.2c1.3,1,2.6,2,3.9,3
			C386.2-551.6,382-555.7,374.4-554.7z M360.1-518c0.5,2.4,0.4,4,1.1,4.6c6,4.7,11.2,10.5,18.4,13.6c0.4-0.6,0.9-1.2,1.3-1.9
			C374.4-506.8,367.8-512,360.1-518z M329.7-536.3c6.7,0.8,12.3-1,18.7-3.7C341.4-541.8,334.2-540.3,329.7-536.3z"/>
		<path d="M379.7-499.8c0.4-0.6,0.9-1.2,1.3-1.9c-6.6-5.2-13.2-10.3-20.8-16.3c0.5,2.4,0.4,4,1.1,4.6
			C367.3-508.7,372.5-502.9,379.7-499.8z"/>
		<path d="M348.4-540c-7-1.7-14.2-0.3-18.7,3.7C336.5-535.5,342.1-537.3,348.4-540z"/>
		<path d="M404.7-501.8c-1.1-5-2.2-9.9-3.3-14.9c-3.4,6-1.7,10.8,1.7,15.3C403.6-501.5,404.2-501.6,404.7-501.8z"/>
		<path d="M384.9-548c1.3,1,2.6,2,3.9,3c-2.6-6.7-6.8-10.8-14.4-9.8c1.7,0.8,3.6,1.5,5.2,2.6C381.4-550.9,383.1-549.4,384.9-548z"/>
		<path d="M172.5-638.5c-1.3-6.5-0.8-13.5-0.2-20.2c0.5-5.7,4-9.4,9.9-11c11-3,22.1-4.8,33.5-5.3c10.3-0.4,20.6-1.7,30.9-2.3
			c6-0.3,12,0,18,0c2.5,0,5,0.2,7.5,0.2c11.9,0.1,22.4,8.1,24.6,19.5c0.8,4.1,0.4,8.6-0.7,12.6c-1.5,5.5-3.7,10.9-6.3,16
			c-6.4,12.3-12.7,24.6-20.1,36.3c-9.4,14.8-19.9,29-30,43.4c-2.1,3.1-4.5,6.1-6.3,9.4c-3.9,6.9-8.6,11.8-17.5,9.3
			c-1.1-0.3-2.5,0.1-3.6,0.2c-6.4-6.8-8.2-15.7-11.4-23.8c-6.7-17.4-13.1-34.8-19.1-52.4C178-617,174.7-627.7,172.5-638.5z
			 M177-651.8c2.1,13.6,4.9,27.1,7.5,40.7c0,0.2,0.2,0.5,0.3,0.7c4.3,11,8.7,22,13,33.1c2.4,6.1,5.2,12.1,6.8,18.4
			c2,7.8,6.4,14.2,10.3,20.9c1.9,3.3,4.2,3.6,7.6,1.5c2.1-1.3,4.3-2.8,5.9-4.7c2.9-3.5,5.3-7.3,8.1-10.9
			c17.4-22.6,33.4-46.1,44.7-72.5c3.2-7.4,6.8-14.6,10.2-21.9c3.5-7.4,0.2-13.6-3.6-19.7c-1.2-0.7-2.2-1.7-3.3-2
			c-3.8-1-7.7-2.2-11.6-2.5c-10-0.8-19.9-2.5-30.1-0.6c-6.4,1.2-13,1.8-19.4,1.5c-11.9-0.6-23.6,1.2-35.3,3
			C177.7-665.2,175.5-662,177-651.8z"/>
		<path fill="#F9F18F" d="M177-651.8c-1.6-10.3,0.6-13.4,11-15c11.6-1.8,23.3-3.6,35.3-3c6.5,0.3,13.1-0.3,19.4-1.5
			c10.1-1.9,20.1-0.2,30.1,0.6c3.9,0.3,7.8,1.5,11.6,2.5c1.2,0.3,2.2,1.3,3.3,2c3.8,6,7,12.2,3.6,19.7c-3.4,7.3-7,14.5-10.2,21.9
			c-11.3,26.4-27.3,49.9-44.7,72.5c-2.8,3.6-5.2,7.4-8.1,10.9c-1.6,1.9-3.7,3.4-5.9,4.7c-3.5,2.1-5.7,1.8-7.6-1.5
			c-3.9-6.7-8.3-13.1-10.3-20.9c-1.6-6.3-4.4-12.3-6.8-18.4c-4.3-11-8.7-22-13-33.1c-0.1-0.2-0.2-0.5-0.3-0.7
			C182-624.6,179.1-638.2,177-651.8z M269.3-631.5c0,0.9,1.4,1.9,3,3.8c1.2-10.8,2.7-20.2,0.9-30.6c-1.2,1.3-2,1.7-2.1,2.3
			C270.4-647.9,269.7-639.7,269.3-631.5z M231-620.8c1.7-0.4,3.2-0.2,3.5-0.8c3.1-5.7,6.3-11.3,8.9-17.2c0.9-2-0.4-4.5-2.4-4.2
			C237.5-635.4,234.4-628.5,231-620.8z M218.1-588.7c1.2,3.1,10.9,12.3,13.9,13.6c0.5-0.3,0.9-0.7,1.4-1
			c-4.5-5.5-9.1-11.1-14.7-17.9C218.3-590.9,217.8-589.6,218.1-588.7z M201-610.1c1.6-0.1,3.2-0.2,5.7-0.4
			c-0.3-5.4-0.7-10.4-0.9-15.4c-0.5-9.9-0.7-10.8-4.2-13C201.5-629.4,201.2-620.3,201-610.1z"/>
		<path d="M205.8-625.8c-0.5-9.9-0.7-10.8-4.2-13c-0.2,9.3-0.4,18.5-0.7,28.7c1.6-0.1,3.2-0.2,5.7-0.4
			C206.4-615.9,206.1-620.8,205.8-625.8z"/>
		<path d="M273.2-658.3c-1.2,1.3-2,1.7-2.1,2.3c-0.7,8.2-1.4,16.4-1.9,24.6c0,0.9,1.4,1.9,3,3.8C273.5-638.5,275-647.9,273.2-658.3z
			"/>
		<path d="M234.5-621.6c3.1-5.7,6.3-11.3,8.9-17.2c0.9-2-0.4-4.5-2.4-4.2c-3.4,7.6-6.5,14.6-9.9,22.2
			C232.8-621.2,234.2-621.1,234.5-621.6z"/>
		<path d="M232.1-575.1c0.5-0.3,0.9-0.7,1.4-1c-4.5-5.5-9.1-11.1-14.7-17.9c-0.4,3.1-1,4.4-0.6,5.3
			C219.4-585.7,229-576.4,232.1-575.1z"/>
		<path d="M333.5-375.3c0.4,1.6,0.9,3.1,1.3,4.6c3.9,17.3-5.2,30.5-22.9,33.1c-7.9,1.1-15.9,1.6-23.8,2.4c0-0.4-0.1-0.7-0.1-1.1
			c-10.9,0.8-21.8,1.7-32.7,2.2c-4.5,0.2-9-0.5-13.5-0.9c-8.2-0.7-16.3-1.4-24.5-2.1c-2.9-0.2-5.8-0.5-8.7-0.2
			c-6.6,0.7-9.3-3.1-10.1-8.7c-0.7-4.4-1.3-9.1-0.7-13.4c1.3-9,4.3-17.4,9.1-25.4c5.5-9.1,9.7-18.9,14.6-28.4
			c9.4-18,19.5-35.6,33.4-50.6c0.4-0.4,0.8-0.7,1.2-1.1c14.9-14,22.4-13.2,35.5,2.8c10,12.2,17.2,26.3,23.6,40.8
			C321.8-406.2,329.5-391.5,333.5-375.3z M330.2-369.3c-4.5-13.4-9.3-26.7-14.7-39.8c-5.5-13.4-12.7-25.8-20.9-37.8
			c-5-7.3-9.8-14.4-16.5-20.3c-4.5-3.9-7.1-4-11.8-0.2c-1.6,1.3-3.3,2.8-4.5,4.5c-7.9,10.4-16.5,20.4-23.5,31.4
			c-9.1,14.4-17.4,29.4-25.1,44.6c-4.6,9-8.3,18.6-10.7,28.3c-3,12,1,16.2,13.4,16.4c8.8,0.1,17.6,0.1,26.4,0.4
			c10.1,0.4,20.2,2.7,30.1-1.3c0.8-0.3,2,0.2,3.1,0.3c5.3,0.4,10.5,0.8,15.8,1.2c8.4,0.8,15.8-1.7,22.8-6.1c1.5-1,3.5-1.3,5.3-1.8
			C329.8-352.5,333.7-358.9,330.2-369.3z"/>
		<path fill="#F9F18F" d="M330.2-369.3c3.5,10.5-0.4,16.8-10.9,19.9c-1.8,0.5-3.8,0.8-5.3,1.8c-7,4.4-14.4,6.9-22.8,6.1
			c-5.3-0.4-10.5-0.8-15.8-1.2c-1-0.1-2.2-0.6-3.1-0.3c-9.9,4-20,1.7-30.1,1.3c-8.8-0.3-17.6-0.3-26.4-0.4
			c-12.3-0.2-16.4-4.4-13.4-16.4c2.4-9.7,6.2-19.4,10.7-28.3c7.7-15.2,16-30.2,25.1-44.6c7-11,15.6-21,23.5-31.4
			c1.3-1.7,2.9-3.1,4.5-4.5c4.7-3.8,7.3-3.8,11.8,0.2c6.8,5.9,11.5,13,16.5,20.3c8.2,12,15.4,24.4,20.9,37.8
			C320.8-396,325.7-382.7,330.2-369.3z M252.5-367c-8.3-2.9-14.9-5.3-21.6-7.6C236.7-370,242.3-365,252.5-367z M253.1-426.8
			c-1.8,8.2-3.4,15.6-5,23C254.2-406.7,256.4-415.8,253.1-426.8z M295.9-410.9c-6.2,5.6-12.4,11.2-19.4,17.5
			C285.8-395,294.3-403,295.9-410.9z M307.2-365.5c-3.5-4.7-3.6-11.9-10.6-15.1C302.4-367.7,303-366.9,307.2-365.5z"/>
		<path d="M295.9-410.9c-6.2,5.6-12.4,11.2-19.4,17.5C285.8-395,294.3-403,295.9-410.9z"/>
		<path d="M248-403.8c6.2-2.9,8.4-12.1,5-23C251.3-418.6,249.6-411.1,248-403.8z"/>
		<path d="M252.5-367c-8.3-2.9-14.9-5.3-21.6-7.6C236.7-370,242.3-365,252.5-367z"/>
		<path d="M296.6-380.6c5.9,12.9,6.4,13.7,10.6,15.1C303.6-370.1,303.6-377.3,296.6-380.6z"/>
		<path d="M494-128.3c2.1,14.8,0.9,29.7-1,44.4c-2.1,15.4-3.1,31.1-7.8,46.1c-0.5,1.4-0.8,2.9-1.3,4.3c-5.3,15.8-19.2,22-34.7,15.4
			c-6.9-3-13.6-6.5-20.4-9.8c0.2-0.3,0.3-0.6,0.5-1c-9.1-4.7-18.4-9.3-27.4-14.3c-3.7-2-7-4.9-10.4-7.4c-6.2-4.6-12.5-9.2-18.7-13.7
			c-2.2-1.6-4.4-3.3-6.9-4.4c-5.6-2.7-5.9-7.1-3.9-12c1.6-3.9,3.4-8,6-11.2c5.5-6.6,12-11.9,19.8-16c8.9-4.7,17.1-10.5,25.7-15.7
			c16.4-9.9,33.2-19.1,51.8-24.3c0.5-0.1,1-0.2,1.5-0.3C485.7-151.9,491.3-147.6,494-128.3z M489.1-114.5
			c-0.4-8.3-0.8-16.4-3.3-24.5c-1.7-5.3-3.8-6.7-9.4-5.9c-2,0.3-4,0.7-5.9,1.4c-11.5,4.5-23.3,8.3-34.3,13.7
			c-14.4,7.1-28.4,15.2-42.1,23.6c-8.1,5-15.8,10.9-22.5,17.6c-8.3,8.2-7.1,13.6,2.7,19.8c7,4.4,14.2,8.7,21.1,13.3
			c7.9,5.3,15,12.1,24.9,13.7c0.8,0.1,1.5,1.1,2.3,1.7c4,2.9,8.1,5.8,12.1,8.7c6.4,4.8,13.6,6.4,21.4,6.3c1.7,0,3.4,0.7,5.1,1.2
			c9.9,2.7,16.2-0.5,18.5-10.7c3-13,5.6-26.1,7.7-39.3C489.5-87.3,489.8-100.9,489.1-114.5z"/>
		<path fill="#F9F18F" d="M489.1-114.5c0.7,13.7,0.4,27.2-1.8,40.7c-2.1,13.2-4.7,26.3-7.7,39.3c-2.3,10.1-8.6,13.4-18.5,10.7
			c-1.7-0.5-3.4-1.2-5.1-1.2c-7.8,0.1-15-1.5-21.4-6.3c-4.1-2.9-8.1-5.8-12.1-8.7c-0.8-0.6-1.5-1.6-2.3-1.7
			c-9.9-1.7-16.9-8.5-24.9-13.7c-6.9-4.6-14.1-8.9-21.1-13.3c-9.8-6.2-11-11.6-2.7-19.8c6.7-6.6,14.5-12.6,22.5-17.6
			c13.7-8.5,27.7-16.5,42.1-23.6c11-5.4,22.8-9.3,34.3-13.7c1.9-0.7,3.9-1.1,5.9-1.4c5.7-0.8,7.8,0.6,9.4,5.9
			C488.3-131,488.6-122.9,489.1-114.5z M415.9-70.9c-5.3-6.5-9.4-11.6-13.6-16.7C404.6-81.1,406.7-74.3,415.9-70.9z M445.7-118.8
			c-5.5,5.7-10.4,10.9-15.3,16.1C436.8-102,443-108.3,445.7-118.8z M458.1-60.2c-1.6,13.3-1.6,14.1,1.1,17.4
			C458.6-48.3,462.1-54.1,458.1-60.2z M472.4-84.9c-7.8,1.5-15.5,2.9-24.2,4.6C456.4-77.1,467.2-79.3,472.4-84.9z"/>
		<path d="M472.4-84.9c-7.8,1.5-15.5,2.9-24.2,4.6C456.4-77.1,467.2-79.3,472.4-84.9z"/>
		<path d="M445.7-118.8c-5.5,5.7-10.4,10.9-15.3,16.1C436.8-102,443-108.3,445.7-118.8z"/>
		<path d="M415.9-70.9c-5.3-6.5-9.4-11.6-13.6-16.7C404.6-81.1,406.7-74.3,415.9-70.9z"/>
		<path d="M458.1-60.2c-1.6,13.3-1.6,14.1,1.1,17.4C458.6-48.3,462.1-54.1,458.1-60.2z"/>
		<path d="M512.1-754.4c-0.8,8.7,0,17.1,2.5,25.3c1.2,4,3.7,7.7,6,11.1c3,4.4,6.8,6.5,12.2,3.3c2.3-1.4,4.9-2.4,7.5-3.3
			c7.2-2.8,14.5-5.4,21.7-8.2c4-1.5,8.1-2.7,11.9-4.7c9.1-4.8,18-10.1,26.9-15.1c0.2,0.3,0.4,0.6,0.5,0.9
			c6.4-3.9,13.1-7.5,19.3-11.7c10.8-7.2,14.7-17.7,11.2-28.2h-4.2c2,5.2,0.1,10.1-5.4,15c-1.3,1.2-2.9,2.2-3.8,3.7
			c-4.2,6.6-9.4,11.8-17,14.5c-4.7,1.8-9.3,3.6-14,5.4c-0.9,0.3-2.1,0.4-2.7,1c-6.8,7.4-16.4,9.5-25.1,13.3
			c-7.6,3.3-15.1,6.9-22.7,10.4c-10.6,4.8-15.7,2.9-18-8.6c-1.9-9.3-2.6-19-2.4-28.5c0.2-8.7,0.6-17.5,1.2-26.2H513
			c0,0.2,0,0.3,0,0.5C512.6-774.5,513-764.4,512.1-754.4z"/>
		<path fill="#F9F18F" d="M516.6-758.8c0.2-8.7,0.6-17.5,1.2-26.2h75.1c7.7,6.4,8.7,6.7,12.5,6.3c-2.9-1.5-5.2-4.3-8.1-6.3h30.3
			c2,5.2,0.1,10.1-5.4,15c-1.3,1.2-2.9,2.2-3.8,3.7c-4.2,6.6-9.4,11.8-17,14.5c-4.7,1.8-9.3,3.6-14,5.4c-0.9,0.3-2.1,0.4-2.7,1
			c-6.8,7.4-16.4,9.5-25.1,13.3c-7.6,3.3-15.1,6.9-22.7,10.4c-10.6,4.8-15.7,2.9-18-8.6C517.1-739.6,516.4-749.3,516.6-758.8z
			 M536.7-755.6c6.8,1.7,13.7,3.6,21.5-2.2C549.9-757,543.3-756.3,536.7-755.6z"/>
		<path d="M558.1-757.8c-8.3,0.9-14.9,1.6-21.5,2.2C543.5-753.9,550.4-752,558.1-757.8z"/>
		<path d="M605.4-778.7c-2.9-1.5-5.2-4.3-8.1-6.3h-4.4C600.6-778.6,601.6-778.3,605.4-778.7z"/>
		<path d="M175.9-217.1c-5.5,7.8-11.4,15.4-17.6,22.6c-9.1,10.7-20,10.9-28.6-0.3c-7.7-10.2-14.7-21.1-20.6-32.4
			c-9.2-17.6-17.3-35.8-25.6-53.8c-4.6-9.9-7.3-21.4-7.4-29.7c0.2-6.2,2.5-11.4,9-14.7c10.3-5.2,21.1-6.8,32.3-5.3
			c10.7,1.5,21.2,4.1,31.8,6c16.7,3.1,32.2,9.6,47.7,16.3c2.7,1.2,5.3,2.9,7.7,4.8c4.2,3.4,5.7,7.5,4.7,13.3
			c-1.6,9.4-5.7,17.7-9.4,26.2c-4.2,9.7-8.3,19.5-13,28.9C183.8-228.8,180-222.8,175.9-217.1z M163-208.1
			c13.2-24,26.9-47.8,38.7-72.4c7.6-15.8,5-19-9.8-25.5c-0.2-0.1-0.5-0.1-0.7-0.2c-19-8.2-38.9-13.7-59.1-17.9
			c-7.6-1.6-15.4-2-23-2.9c-7.2-0.1-13.6,2.2-20,4.6c-5,1.9-8,5.3-8,10.7c0,3,0,6.2,1,8.9c3.7,10.4,7.4,20.9,11.9,30.9
			c8.5,18.8,17.3,37.4,26.7,55.8c3.7,7.3,8.7,14.2,14.3,20.2c6.4,6.9,12.1,6.5,18.9-0.2C157.3-199.7,160.6-203.8,163-208.1z"/>
		<path fill="#F9F18F" d="M201.7-280.5c-11.8,24.7-25.5,48.4-38.7,72.4c-2.4,4.3-5.7,8.4-9.2,11.9c-6.8,6.8-12.6,7.1-18.9,0.2
			c-5.5-6-10.6-12.9-14.3-20.2c-9.4-18.3-18.2-37-26.7-55.8c-4.6-10.1-8.2-20.5-11.9-30.9c-1-2.7-1-5.9-1-8.9c0.1-5.4,3-8.9,8-10.7
			c6.4-2.4,12.8-4.7,20-4.6c7.7,0.9,15.5,1.4,23,2.9c20.2,4.2,40.1,9.7,59.1,17.9c0.2,0.1,0.5,0.1,0.7,0.2
			C206.7-299.6,209.2-296.3,201.7-280.5z M119.7-272.2c-2.1-4.6-4.8-8.6-9.6-11c-0.4,0.4-0.8,0.8-1.2,1.2c3,3.7,6,7.5,9.1,11.2
			C118.5-271.3,119.1-271.7,119.7-272.2z M135.4-311.7c1.5,3.6,2.9,7.2,4.4,10.8c0.6-0.2,1.3-0.4,1.9-0.6
			C140.9-305.4,140.9-309.7,135.4-311.7z M146.1-242.5c-5.8-4.4-10.6-1.1-15.3,1.9C135.9-241.3,141-241.9,146.1-242.5z M157.7-222.5
			c-5.7-2.3-8.9-2.4-16.6-0.1C151.8-220,155.1-220.1,157.7-222.5z M159.6-282.7c-4,4.8-7.5,8.9-10.9,13.1
			C156.2-273.1,159.3-277.1,159.6-282.7z M187.5-279.1c-2.6-0.9-5.2-1.8-7.7-2.7c-0.2,0.5-0.4,0.9-0.6,1.4c2.4,1.2,4.8,2.5,7.2,3.7
			C186.7-277.5,187.1-278.3,187.5-279.1z"/>
		<path d="M141.1-222.7c10.7,2.6,14,2.6,16.6,0.1C152-224.8,148.8-224.9,141.1-222.7z"/>
		<path d="M159.6-282.7c-4,4.8-7.5,8.9-10.9,13.1C156.2-273.1,159.3-277.1,159.6-282.7z"/>
		<path d="M110.1-283.2c-0.4,0.4-0.8,0.8-1.2,1.2c3,3.7,6,7.5,9.1,11.2c0.6-0.5,1.1-0.9,1.7-1.4
			C117.6-276.8,114.8-280.8,110.1-283.2z"/>
		<path d="M130.8-240.6c5.1-0.6,10.2-1.3,15.3-1.9C140.3-246.9,135.5-243.6,130.8-240.6z"/>
		<path d="M141.7-301.4c-0.8-4-0.7-8.3-6.3-10.2c1.5,3.6,2.9,7.2,4.4,10.8C140.4-301,141-301.2,141.7-301.4z"/>
		<path d="M179.1-280.4c2.4,1.2,4.8,2.5,7.2,3.7c0.4-0.8,0.8-1.6,1.2-2.4c-2.6-0.9-5.2-1.8-7.7-2.7
			C179.6-281.3,179.4-280.9,179.1-280.4z"/>
		<path d="M72.7-773.5c16,11.8,31.8,23.8,48.4,34.8c10.6,7.1,22,13.3,33.7,18.5c12.9,5.7,22.4,0.2,25.2-13.5
			c1.9-9.4,3.4-18.8,4.5-28.3c0.8-7,1.3-14.1,1-21.1c0-0.7-0.1-1.3-0.1-2h-7.8c0,12.4-0.1,24.7-0.1,37.1c0,5-1,10.1-2.4,14.8
			c-2.7,9.2-7.6,12.3-16.5,9.3c-7.8-2.6-15.5-6.2-22.2-10.8c-17.1-11.6-33.8-23.7-50.3-36c-6-4.5-11.8-9.4-17.5-14.4H60
			C63.7-780.9,68-776.9,72.7-773.5z"/>
		<path fill="#F9F18F" d="M86-770.6c-6-4.5-11.8-9.4-17.5-14.4h29.8c3.1,1.3,6.3,2.6,9.4,3.9c0.3-0.7,0.5-1.4,0.8-2
			c-0.9-0.6-1.8-1.3-2.7-1.8h71.6c0,12.4-0.1,24.7-0.1,37.1c0,5-1,10.1-2.4,14.8c-2.7,9.2-7.6,12.3-16.5,9.3
			c-7.8-2.6-15.5-6.2-22.2-10.8C119.2-746.1,102.5-758.2,86-770.6z M151.2-750.1c10.6-2.9,13.5-4.5,14.6-7.9
			C159.7-757.2,156.8-755.8,151.2-750.1z M133.5-760.9c4.2-3,8.3-6,12.5-9C138.8-771,136.2-765.8,133.5-760.9z"/>
		<path d="M165.8-758c-6.1,0.7-8.9,2.2-14.6,7.9C161.8-752.9,164.7-754.6,165.8-758z"/>
		<path d="M108.5-783.2c-0.9-0.6-1.8-1.3-2.7-1.8h-7.6c3.1,1.3,6.3,2.6,9.4,3.9C108-781.8,108.3-782.5,108.5-783.2z"/>
		<path d="M133.5-760.9c4.2-3,8.3-6,12.5-9C138.8-771,136.2-765.8,133.5-760.9z"/>
		<path d="M320.2-113.5c0.1,1.5,0,2.9,0,4.5c-17.7,4.9-34.8,5.4-51.8,5.4c-19.8,0-39.6,3.8-59.5,0c-6.1-1.1-12.5-0.4-18.7-0.7
			c-2.5-0.2-4.9-1.2-7.3-1.6c-3.8-0.6-5.8-3.2-6.5-6.5c-1.2-5.2-1.5-10.4,1-15.5c7.5-15.5,17.1-29.5,27.1-43.4
			c9.2-12.9,21.1-23.7,28.4-38c2.9-5.8,8.2-8.6,14.2-10.4c5.4-1.6,10.2-0.4,13.4,4.3c10.1,14.7,20.9,29,29.6,44.5
			c6.8,12.1,13.6,24,21.7,35.2C316.4-129.2,319.6-121.8,320.2-113.5z M316-113.6c-0.9-3.3-1-6.1-2.3-8.4
			c-4.2-7.4-8.7-14.7-13.3-21.9c-5.7-9.2-11.6-18.2-17.4-27.4c-7-11.1-13.9-22.1-20.7-33.3c-3.1-5.1-8.6-6.7-13.2-9.6
			c-2.8-1.7-6-0.2-8.2,2.1c-1.6,1.6-2.9,3.5-4.2,5.3c-6.1,8.2-10.1,17.9-18.6,24.3c-1.7,1.3-2.7,3.6-4.1,5.4
			c-2.7,3.7-5.3,7.3-7.9,11c-8.9,12.5-18.2,24.8-24.3,39c-5.3,12.3-1.6,18,11.9,18.8c4.5,0.3,9.1,0.3,13.6,0.3
			c11.6,0.1,23.1,0.3,34.7,0.3c4.8,0,9.6-0.7,14.3-0.5C276-107.6,295.4-109.3,316-113.6z"/>
		<path fill="#F9F18F" d="M313.7-122c1.3,2.3,1.5,5.2,2.3,8.4c-20.5,4.4-40,6-59.7,5.3c-4.8-0.2-9.6,0.5-14.3,0.5
			c-11.6,0-23.1-0.1-34.7-0.3c-4.5-0.1-9.1-0.1-13.6-0.3c-13.5-0.8-17.2-6.5-11.9-18.8c6.1-14.2,15.4-26.5,24.3-39
			c2.6-3.7,5.3-7.4,7.9-11c1.3-1.8,2.3-4.1,4.1-5.4c8.6-6.3,12.6-16.1,18.6-24.3c1.3-1.8,2.6-3.7,4.2-5.3c2.3-2.3,5.5-3.8,8.2-2.1
			c4.6,2.9,10.1,4.5,13.2,9.6c6.8,11.2,13.8,22.2,20.7,33.3c5.8,9.2,11.6,18.2,17.4,27.4C304.9-136.7,309.5-129.5,313.7-122z
			 M243.5-135.2c-12.2-2.7-22.5,2.4-23.2,12.3c3.9-2.9,6.5-5.8,9.8-7.2c3.6-1.5,7.7-1.5,11.6-2.4
			C242.4-132.6,242.8-134.1,243.5-135.2z M261.4-164.7c-5.5-2.3-10.3-3.4-14-6c-3.7-2.5-6.3-6.6-9.5-9.9c-0.5,0.4-0.9,0.7-1.4,1.1
			c0,0.7-0.3,1.6,0,2.1c4.1,7.8,11,12.3,18.9,15.2C256.8-161.7,259-163.6,261.4-164.7z M288.8-132.6c-4.9-6.5-12.5-11.5-17.4-11.5
			C275.1-138.3,284.5-132,288.8-132.6z"/>
		<path d="M238-180.7c-0.5,0.4-0.9,0.7-1.4,1.1c0,0.7-0.3,1.6,0,2.1c4.1,7.8,11,12.3,18.9,15.2c1.3,0.5,3.5-1.4,5.9-2.5
			c-5.5-2.3-10.3-3.4-14-6C243.8-173.3,241.1-177.3,238-180.7z"/>
		<path d="M220.3-122.9c3.9-2.9,6.5-5.8,9.8-7.2c3.6-1.5,7.7-1.5,11.6-2.4c0.8-0.2,1.2-1.7,1.9-2.8
			C231.3-137.9,221-132.8,220.3-122.9z"/>
		<path d="M271.5-144.1c3.6,5.8,13,12.1,17.4,11.5C283.9-139.1,276.3-144.2,271.5-144.1z"/>
		<path d="M519.5-301.7c-5.1,2.4-9.8,2.7-14.5-1.3c-4.7-3.9-9.7-7.4-14.5-11.2c-8.9-6.9-18.4-13.2-26.3-21.1
			c-11.7-11.5-22.3-24.3-27.7-40.3c-1.8-5.4-2.8-11.4-2.8-17.1c0-3.7,1.8-7.7,3.7-11c7.3-12.8,19.8-19.8,31.7-27.1
			c16.9-10.4,34.3-19.8,51.2-30.2c11.1-6.9,23.2-11.1,35.7-13.8c18-4,29.1,5.5,29.1,24c0,21.6-6.4,41.5-14.5,61.1
			c-6.3,15.2-12.6,30.5-19.4,45.5c-3.9,8.6-8.8,16.7-13.2,25.1C533.2-311.8,527.6-305.4,519.5-301.7z M521.6-308.8
			c4.4-3.6,8.2-8,12.7-12.5c7.9-16.5,16.5-33.1,23.7-50.2c6.6-15.7,12.1-31.9,17.3-48.2c4-12.5,7-25.4,3.4-38.7
			c-2.1-8-7.5-13.2-15.6-12.6c-13.6,1-26.4,5.5-37.3,13.7c-10.7,8.1-21.8,16-34.2,20.7c-15.2,5.8-27.8,15.3-40.7,24.4
			c-9.8,6.9-13.7,17.5-10.8,29.2c2.4,9.4,6.5,18.6,13.7,25.6c13.1,12.7,26.5,25.3,39.9,37.7c4.2,3.9,8.9,7.4,13.5,10.9
			C512-305.3,517.1-305.2,521.6-308.8z"/>
		<path fill="#F9F18F" d="M521.6-308.8c-4.5,3.6-9.6,3.6-14.3-0.1c-4.5-3.6-9.2-7-13.5-10.9c-13.4-12.4-26.8-25-39.9-37.7
			c-7.2-7-11.3-16.2-13.7-25.6c-3-11.6,1-22.2,10.8-29.2c12.9-9.1,25.5-18.6,40.7-24.4c12.3-4.7,23.4-12.6,34.2-20.7
			c10.9-8.2,23.7-12.7,37.3-13.7c8.1-0.6,13.5,4.6,15.6,12.6c3.6,13.4,0.6,26.2-3.4,38.7c-5.2,16.3-10.7,32.5-17.3,48.2
			c-7.2,17.1-15.8,33.7-23.7,50.2C529.8-316.9,526-312.4,521.6-308.8z M552.1-406.8c-0.8-5.5-1.4-10-2-14.4c-0.5-4.4,3.5-9-0.3-13.6
			C542.4-427.5,543.2-416.1,552.1-406.8z M517.8-420.5c-0.4-0.6-0.8-1.2-1.3-1.9c-2.3,1.3-5,2.3-6.9,4.1
			c-7.1,6.8-13.5,14.8-25.6,14.1c2.9,4.5,6.3,4.8,9.4,3.5C503.7-404.7,511.4-411.8,517.8-420.5z M517.8-360.6
			c-7.8,9-10.4,16.9-6.6,24.9c1.1-4.2,2.6-8.3,3.4-12.5C515.3-352.2,519.6-355.4,517.8-360.6z"/>
		<path d="M517.8-420.5c-0.4-0.6-0.8-1.2-1.3-1.9c-2.3,1.3-5,2.3-6.9,4.1c-7.1,6.8-13.5,14.8-25.6,14.1c2.9,4.5,6.3,4.8,9.4,3.5
			C503.7-404.7,511.4-411.8,517.8-420.5z"/>
		<path d="M550.2-421.2c-0.5-4.4,3.5-9-0.3-13.6c-7.5,7.3-6.6,18.8,2.3,28C551.4-412.4,550.7-416.8,550.2-421.2z"/>
		<path d="M511.2-335.7c1.1-4.2,2.6-8.3,3.4-12.5c0.7-4,5.1-7.2,3.3-12.4C510-351.5,507.5-343.7,511.2-335.7z"/>
		<path d="M361-211.9c-11.5-8.4-21.9-18.5-32.6-28c-2.6-2.3-4.7-5.3-6.3-8.4c-5.5-10.3-2.7-19.5,7.1-25.9
			c10-6.6,20.8-10.9,32.1-14.7c6-2,11.1-6.7,16.8-9.8c6.6-3.6,13-7.8,20.1-10.1c12.3-4,23.1-0.6,28.4,12.6
			c3.9,9.5,7.1,19.5,9.1,29.5c4.7,23.2,8.6,46.5,12.8,69.8c0.2,1.2,0.5,2.5,0.6,3.7c0.5,8.4-5.2,14.5-13.6,14.5
			c-1.3,0-2.5-0.2-4.5-0.4c-11.5,1.3-22.2-3.8-32.3-9.3C385.8-195.6,373-203.2,361-211.9z M331.4-243.6c11.6,10.4,23.2,21,35.4,30.7
			c6.4,5.1,14.4,8.2,21.1,13c10.2,7.3,21.6,11.8,33.4,15.4c3.1,1,6.4,1.2,9.2,1.7c2.5-0.3,4.5-0.5,6.5-0.9c6.6-1.4,8.6-3.8,8-10.5
			c-0.3-3.7-1.2-7.5-2.4-11c-3.3-10.4-5.7-20.9-6.5-31.7c-0.4-5.3-0.3-10.7-1.6-15.7c-3.5-13.1-7.6-26-11.7-39
			c-0.8-2.6-2.2-5.1-3.8-7.3c-4.7-6.5-11.1-8.7-18.6-5.9c-4.9,1.8-9.6,4.4-14.2,6.9c-7.9,4.3-15.5,9.3-23.7,13.3
			c-10.2,4.9-20.9,8.8-31.1,13.6c-2.4,1.1-5.3,4-5.7,6.4C324.5-256.9,325.1-249.2,331.4-243.6z"/>
		<path fill="#F9F18F" d="M366.8-212.9c-12.2-9.8-23.7-20.3-35.4-30.7c-6.3-5.6-7-13.3-5.6-21c0.4-2.5,3.3-5.3,5.7-6.4
			c10.2-4.8,20.9-8.7,31.1-13.6c8.1-3.9,15.7-8.9,23.7-13.3c4.6-2.5,9.3-5.1,14.2-6.9c7.4-2.8,13.9-0.6,18.6,5.9
			c1.6,2.2,3,4.8,3.8,7.3c4.1,12.9,8.2,25.9,11.7,39c1.4,5,1.2,10.5,1.6,15.7c0.9,10.9,3.2,21.4,6.5,31.7c1.1,3.6,2,7.3,2.4,11
			c0.6,6.7-1.4,9.1-8,10.5c-2,0.4-4,0.6-6.5,0.9c-2.8-0.5-6.1-0.8-9.2-1.7c-11.8-3.7-23.2-8.1-33.4-15.4
			C381.2-204.6,373.2-207.7,366.8-212.9z M397.9-284.3c0.6,4.9,1.2,9.3,1.7,14c1.1-0.1,2.4-0.2,3.7-0.3c0.3-5.7,2.8-11.1-0.9-16.3
			C400.6-285.8,399.2-285,397.9-284.3z M393.9-238c2,7,13.5,14,20.4,13C407.4-229.4,401.3-233.3,393.9-238z M361.8-255.1
			c-0.1-0.7-2.1-1.1-4.3-2.1c1.9,6.9,3.5,12.6,5.1,18.3C366.7-244.8,362.6-249.8,361.8-255.1z"/>
		<path d="M403.3-270.5c0.3-5.7,2.8-11.1-0.9-16.3c-1.8,1-3.2,1.8-4.5,2.5c0.6,4.9,1.2,9.3,1.7,14
			C400.7-270.3,402-270.4,403.3-270.5z"/>
		<path d="M414.4-225c-6.9-4.4-13-8.3-20.4-13C395.9-231.1,407.4-224,414.4-225z"/>
		<path d="M357.5-257.2c1.9,6.9,3.5,12.6,5.1,18.3c4.1-6,0.1-10.9-0.8-16.2C361.7-255.8,359.7-256.2,357.5-257.2z"/>
		<path d="M560-642.5c-5.5-10.3-2.7-19.5,7.1-25.9c10-6.6,20.8-10.9,32.1-14.7c6-2,11.1-6.7,16.8-9.8c6.6-3.6,13-7.8,20.1-10.1
			c12.3-4,23.1-0.6,28.4,12.6c3.9,9.5,7.1,19.5,9.1,29.5c4.7,23.2,8.6,46.5,12.8,69.8c0.2,1.2,0.5,2.5,0.6,3.7
			c0.5,8.4-5.2,14.5-13.6,14.5c-1.3,0-2.5-0.2-4.5-0.4c-11.5,1.3-22.2-3.8-32.3-9.3c-13-7-25.9-14.7-37.8-23.4
			c-11.5-8.4-21.9-18.5-32.6-28C563.7-636.4,561.6-639.4,560-642.5z M569.3-637.7c11.6,10.4,23.2,21,35.4,30.7
			c6.4,5.1,14.4,8.2,21.1,13c10.2,7.3,21.6,11.8,33.4,15.4c3.1,1,6.4,1.2,9.2,1.7c2.5-0.3,4.5-0.5,6.5-0.9c6.6-1.4,8.6-3.8,8-10.5
			c-0.3-3.7-1.2-7.5-2.4-11c-3.3-10.4-5.7-20.9-6.5-31.7c-0.4-5.3-0.3-10.7-1.6-15.7c-3.5-13.1-7.6-26-11.7-39
			c-0.8-2.6-2.2-5.1-3.8-7.3c-4.7-6.5-11.1-8.7-18.6-5.9c-4.9,1.8-9.6,4.4-14.2,6.9c-7.9,4.3-15.5,9.3-23.7,13.3
			c-10.2,4.9-20.9,8.8-31.1,13.6c-2.4,1.1-5.3,4-5.7,6.4C562.3-651.1,563-643.4,569.3-637.7z"/>
		<path fill="#F9F18F" d="M563.7-658.7c0.4-2.5,3.3-5.3,5.7-6.4c10.2-4.8,20.9-8.7,31.1-13.6c8.1-3.9,15.7-8.9,23.7-13.3
			c4.6-2.5,9.3-5.1,14.2-6.9c7.4-2.8,13.9-0.6,18.6,5.9c1.6,2.2,3,4.8,3.8,7.3c4.1,12.9,8.2,25.9,11.7,39c1.4,5,1.2,10.5,1.6,15.7
			c0.9,10.9,3.2,21.4,6.5,31.7c1.1,3.6,2,7.3,2.4,11c0.6,6.7-1.4,9.1-8,10.5c-2,0.4-4,0.6-6.5,0.9c-2.8-0.5-6.1-0.8-9.2-1.7
			c-11.8-3.7-23.2-8.1-33.4-15.4c-6.7-4.8-14.7-7.9-21.1-13c-12.2-9.8-23.7-20.3-35.4-30.7C563-643.4,562.3-651.1,563.7-658.7z
			 M635.7-678.4c0.6,4.9,1.2,9.3,1.7,14c1.1-0.1,2.4-0.2,3.7-0.3c0.3-5.7,2.8-11.1-0.9-16.3C638.5-679.9,637-679.1,635.7-678.4z
			 M631.8-632.2c2,7,13.5,14,20.4,13C645.3-623.6,639.2-627.4,631.8-632.2z M595.3-651.3c1.9,6.9,3.5,12.6,5.1,18.3
			c4.1-6,0.1-10.9-0.8-16.2C599.5-649.9,597.5-650.3,595.3-651.3z"/>
		<path d="M641.2-664.7c0.3-5.7,2.8-11.1-0.9-16.3c-1.8,1-3.2,1.8-4.5,2.5c0.6,4.9,1.2,9.3,1.7,14
			C638.5-664.5,639.9-664.6,641.2-664.7z"/>
		<path d="M652.2-619.2c-6.9-4.4-13-8.3-20.4-13C633.8-625.2,645.3-618.2,652.2-619.2z"/>
		<path d="M599.7-649.2c-0.1-0.7-2.1-1.1-4.3-2.1c1.9,6.9,3.5,12.6,5.1,18.3C604.6-639,600.5-644,599.7-649.2z"/>
		<path d="M78.6-446.8c-11.5-8.4-21.9-18.5-32.6-28c-2.6-2.3-4.7-5.3-6.3-8.4c-5.5-10.3-2.7-19.5,7.1-25.9
			c10-6.6,20.8-10.9,32.1-14.7c6-2,11.1-6.7,16.8-9.8c6.6-3.6,13-7.8,20.1-10.1c12.3-4,23.1-0.6,28.4,12.6
			c3.9,9.5,7.1,19.5,9.1,29.5c4.7,23.2,8.6,46.5,12.8,69.8c0.2,1.2,0.5,2.5,0.6,3.7c0.5,8.4-5.2,14.5-13.6,14.5
			c-1.3,0-2.5-0.2-4.5-0.4c-11.5,1.3-22.2-3.8-32.3-9.3C103.4-430.5,90.6-438.1,78.6-446.8z M49-478.5c11.6,10.4,23.2,21,35.4,30.7
			c6.4,5.1,14.4,8.2,21.1,13c10.2,7.3,21.6,11.8,33.4,15.4c3.1,1,6.4,1.2,9.2,1.7c2.5-0.3,4.5-0.5,6.5-0.9c6.6-1.4,8.6-3.8,8-10.5
			c-0.3-3.7-1.2-7.5-2.4-11c-3.3-10.4-5.7-20.9-6.5-31.7c-0.4-5.3-0.3-10.7-1.6-15.7c-3.5-13.1-7.6-26-11.7-39
			c-0.8-2.6-2.2-5.1-3.8-7.3c-4.7-6.5-11.1-8.7-18.6-5.9c-4.9,1.8-9.6,4.4-14.2,6.9c-7.9,4.3-15.5,9.3-23.7,13.3
			c-10.2,4.9-20.9,8.8-31.1,13.6c-2.4,1.1-5.3,4-5.7,6.4C42.1-491.8,42.7-484.1,49-478.5z"/>
		<path fill="#F9F18F" d="M84.4-447.8c-12.2-9.8-23.7-20.3-35.4-30.7c-6.3-5.6-7-13.3-5.6-21c0.4-2.5,3.3-5.3,5.7-6.4
			c10.2-4.8,20.9-8.7,31.1-13.6c8.1-3.9,15.7-8.9,23.7-13.3c4.6-2.5,9.3-5.1,14.2-6.9c7.4-2.8,13.9-0.6,18.6,5.9
			c1.6,2.2,3,4.8,3.8,7.3c4.1,12.9,8.2,25.9,11.7,39c1.4,5,1.2,10.5,1.6,15.7c0.9,10.9,3.2,21.4,6.5,31.7c1.1,3.6,2,7.3,2.4,11
			c0.6,6.7-1.4,9.1-8,10.5c-2,0.4-4,0.6-6.5,0.9c-2.8-0.5-6.1-0.8-9.2-1.7c-11.8-3.7-23.2-8.1-33.4-15.4
			C98.8-439.5,90.8-442.6,84.4-447.8z M115.5-519.2c0.6,4.9,1.2,9.3,1.7,14c1.1-0.1,2.4-0.2,3.7-0.3c0.3-5.7,2.8-11.1-0.9-16.3
			C118.2-520.7,116.8-519.9,115.5-519.2z M111.5-472.9c2,7,13.5,14,20.4,13C125-464.3,118.9-468.2,111.5-472.9z M79.4-490
			c-0.1-0.7-2.1-1.1-4.3-2.1c1.9,6.9,3.5,12.6,5.1,18.3C84.3-479.7,80.2-484.7,79.4-490z"/>
		<path d="M120.9-505.4c0.3-5.7,2.8-11.1-0.9-16.3c-1.8,1-3.2,1.8-4.5,2.5c0.6,4.9,1.2,9.3,1.7,14
			C118.3-505.2,119.6-505.3,120.9-505.4z"/>
		<path d="M132-459.9c-6.9-4.4-13-8.3-20.4-13C113.5-466,125-458.9,132-459.9z"/>
		<path d="M75.1-492.1c1.9,6.9,3.5,12.6,5.1,18.3c4.1-6,0.1-10.9-0.8-16.2C79.3-490.7,77.3-491.1,75.1-492.1z"/>
		<path d="M236.4-753.4c10.2,2.7,20.6,4.5,30.9,6.5c6.4,1.3,12.9,2.1,19.3,3.5c8.1,1.9,16.1,4.1,24,6.4c7.8,2.2,13.1-4,13.5-10.3
			c0.2-4,0-8.1,0-12.1c0.4,0,0.8-0.1,1.2-0.1c-1.2-8.5-1.9-17.2-3.7-25.6h-5c0.1,0.4,0.2,0.7,0.3,1.1c1.6,5.2,2.9,10.7,3,16.2
			c0.2,6.5-0.7,13-1.6,19.4c-0.8,6-2.7,7.2-8.5,6.4c-1.5-0.2-3.2-0.2-4.4-0.9c-12.6-6.8-26.7-6.2-40.3-8.2
			c-10.2-1.5-20.4-3-30.1-6.8c-7.4-2.9-7.4-2.8-7.5-10.6c0-6,2.4-11.9,6.6-16.5h-5.5c-0.8,1.1-1.5,2.1-2.1,3.3
			C220.3-769.8,220-757.8,236.4-753.4z"/>
		<path fill="#F9F18F" d="M227.7-768.5c0-6,2.4-11.9,6.6-16.5h42c-0.1,0.2-0.1,0.3-0.2,0.5c0.2-0.2,0.3-0.3,0.4-0.5h40.2
			c0.1,0.4,0.2,0.7,0.3,1.1c1.6,5.2,2.9,10.7,3,16.2c0.2,6.5-0.7,13-1.6,19.4c-0.8,6-2.7,7.2-8.5,6.4c-1.5-0.2-3.2-0.2-4.4-0.9
			c-12.6-6.8-26.7-6.2-40.3-8.2c-10.2-1.5-20.4-3-30.1-6.8C227.8-760.8,227.7-760.7,227.7-768.5z M292.4-771.3c2.8,0.5,5.4,1,8,1.6
			c2.6,0.6,5.1,1.3,9.1,2.3C301.3-772.9,296.8-773.8,292.4-771.3z M244.9-774c4.8,2.7,9.2,5.1,13.6,7.6
			C255.5-772.6,251.6-775,244.9-774z"/>
		<path d="M309.4-767.5c-8.1-5.4-12.6-6.3-17-3.8c2.8,0.5,5.4,1,8,1.6C302.9-769.2,305.4-768.5,309.4-767.5z"/>
		<path d="M244.9-774c4.8,2.7,9.2,5.1,13.6,7.6C255.5-772.6,251.6-775,244.9-774z"/>
		<path d="M276.5-785h-0.2c-0.1,0.2-0.1,0.3-0.2,0.5C276.2-784.7,276.3-784.8,276.5-785z"/>
		<path d="M623.8-12.7c-10-12.1-22.5-21.5-34.3-31.7c-11.3-9.7-23.1-18.8-36.6-25.1c-17.6-8.3-24.3-5.9-31.3,12
			c-0.2,0.5-0.4,0.9-0.5,1.4c-5.8,18.3-7.3,37.1-8,56.1h4.8c0.5-7.3,1.2-14.7,2-22c1.5-12.2,4.7-24.2,7.3-36.2
			c0.4-1.9,1.2-3.9,2-5.7c2.5-5.2,4.7-6.2,10.1-4.7c8.2,2.3,15.1,6.4,22.3,10.6c11.8,6.9,23,14.5,33.1,23.7
			c9.9,9,19.4,18.3,28.6,27.9c2.1,2.1,3.4,4.2,4.2,6.3h4.2c-1-3.1-2.7-6.3-5.1-9.3C625.8-10.5,624.8-11.6,623.8-12.7z"/>
		<path fill="#F9F18F" d="M623.4-6.3c2.1,2.1,3.4,4.2,4.2,6.3h-30.3c-1.9-1.3-4.2-2.3-7.1-2.3c1,0.8,1.9,1.6,2.7,2.3h-75.1
			c0.5-7.3,1.2-14.7,2-22c1.5-12.2,4.7-24.2,7.3-36.2c0.4-1.9,1.2-3.9,2-5.7c2.5-5.2,4.7-6.2,10.1-4.7c8.2,2.3,15.1,6.4,22.3,10.6
			c11.8,6.9,23,14.5,33.1,23.7C604.6-25.3,614.2-15.9,623.4-6.3z M534.4-23.9c1.8,7.7,3.4,14.7,5.1,21.6
			C543.6-7.3,541.7-16,534.4-23.9z M577.3-27.8c-3,7.3-6,14.6-9.4,22.8C575.2-10.1,579.2-20.4,577.3-27.8z"/>
		<path d="M567.9-5c7.2-5.2,11.2-15.4,9.4-22.8C574.3-20.5,571.3-13.2,567.9-5z"/>
		<path d="M539.5-2.3c4.1-5,2.2-13.7-5.1-21.6C536.2-16.2,537.9-9.2,539.5-2.3z"/>
		<path d="M592.9,0h4.4c-1.9-1.3-4.2-2.3-7.1-2.3C591.2-1.4,592.1-0.7,592.9,0z"/>
		<path d="M178.5-57.1c-1.9-5.6-5.2-8.5-10.5-9.4c-2.9-0.5-6-0.8-9-0.5c-16.8,1.6-33.5,3.4-49.7,8.7C99-55,88.6-52.2,78.5-48.3
			c-10.5,4-19.3,10.7-25.8,20.2c-4.1,6-3.6,11.7-0.8,17.2C53.8-7.5,56.6-3.7,60,0h8.6c-2.6-2.3-5.3-4.6-7.9-7
			c-2.2-1.9-3.7-4.7-5.1-7.3c-2.5-4.8-1.6-9.2,1.9-13.3c4.5-5.2,9-10.3,15.3-13.6c7.2-2.9,14.2-6.3,21.6-8.5
			c19.8-6,39.8-10.8,60.5-12.7c0.2,0,0.5-0.1,0.7-0.1c16.1-1.5,19.9,0.2,20.9,17.6c0.8,15,1,30,1.1,45h7.8
			c-0.5-9.9-1.6-19.8-2.5-29.7C182-38.9,181.6-48.1,178.5-57.1z"/>
		<path fill="#F9F18F" d="M176.4-45c0.8,15,1,30,1.1,45h-71.6c-3.3-2-6.9-3.4-11-3.2c-0.2,0.5-0.3,1.1-0.5,1.6
			C95.7-1.1,97-0.5,98.3,0H68.6c-2.6-2.3-5.3-4.6-7.9-7c-2.2-1.9-3.7-4.7-5.1-7.3c-2.5-4.8-1.6-9.2,1.9-13.3
			c4.5-5.2,9-10.3,15.3-13.6c7.2-2.9,14.2-6.3,21.6-8.5c19.8-6,39.8-10.8,60.5-12.7c0.2,0,0.5-0.1,0.7-0.1
			C171.6-64.1,175.4-62.5,176.4-45z M113.8-34.4c-2.6-3.1-4.6-6.9-10.5-5.9c3,2.5,6,4.9,9.1,7.4C112.8-33.5,113.3-33.9,113.8-34.4z
			 M138.4-26.7c-1.2,6.1-2.2,11.4-3.3,16.7C140.1-16.6,140.9-21.6,138.4-26.7z M164.8-34.2c0-0.9-0.1-1.8-0.1-2.7
			c-2.7,0.5-5.4,0.9-8.1,1.4c0,0.5,0.1,1,0.1,1.5C159.4-34.1,162.1-34.2,164.8-34.2z"/>
		<path d="M135.1-10c5-6.7,5.8-11.6,3.3-16.7C137.2-20.6,136.2-15.3,135.1-10z"/>
		<path d="M94.4-1.6C95.7-1.1,97-0.5,98.3,0h7.6c-3.3-2-6.9-3.4-11-3.2C94.7-2.7,94.5-2.1,94.4-1.6z"/>
		<path d="M103.3-40.3c3,2.5,6,4.9,9.1,7.4c0.5-0.5,0.9-1,1.4-1.4C111.1-37.5,109.1-41.3,103.3-40.3z"/>
		<path d="M156.6-35.6c0,0.5,0.1,1,0.1,1.5c2.7-0.1,5.4-0.1,8.1-0.2c0-0.9-0.1-1.8-0.1-2.7C162-36.5,159.3-36,156.6-35.6z"/>
		<path d="M314.4-22.6C309.1-33.6,300.6-39.3,288-33c-3.3,1.7-7.2,2.3-10.6,4c-13.2,6.7-26.4,13.3-39.2,20.7c-3.5,2-7,5-9.5,8.3h5.5
			c2.9-3.2,6.6-5.7,10.9-7.1c7.1-2.3,13-6.2,19.2-10c8.5-5.2,17.9-9.1,27.3-12.7c5.6-2.2,11-0.1,14.3,5.4c1.8,3,3.4,6.2,4.7,9.4
			c2.1,5,4.4,9.9,6,15h5c0-0.2-0.1-0.3-0.1-0.5C319.9-8,317.8-15.7,314.4-22.6z"/>
		<path fill="#F9F18F" d="M305.9-24.4c-3.3-5.5-8.7-7.5-14.3-5.4c-9.4,3.6-18.8,7.5-27.3,12.7c-6.2,3.8-12.2,7.7-19.2,10
			c-4.3,1.4-8,3.9-10.9,7.1h42c2.6-6.3,6-9.7,11.3-11.9c-3.6,3.9-6.8,7.3-11,11.9h40.2c-1.6-5.1-3.9-10.1-6-15
			C309.3-18.2,307.8-21.4,305.9-24.4z"/>
		<path d="M276.2,0h0.2c4.2-4.5,7.4-8,11-11.9C282.2-9.7,278.9-6.3,276.2,0z"/>
		<path d="M735.1-89.2c0.2,7.7-1.1,15.6-2.7,23.2c-1.9,8.5-4.9,16.8-7.4,25.2c-0.4-0.1-0.8-0.3-1.1-0.4c-1.7,3.7-3.2,7.4-5.1,11
			c-3,5.6-10.4,8.9-16.6,3.7c-6.3-5.3-12.6-10.7-19.2-15.8c-5.2-4-10.7-7.4-16-11.3c-8.5-6.2-17.3-12.1-25.4-18.9
			c-13.1-10.9-7.8-21.6,2.9-29.9c4.2-3.2,10.1-5.1,15.4-5.6c14.7-1.4,29.5-1.8,44.3-2.4c3.7-0.2,7.5,0.9,11.3,0.8
			C729.5-110.1,734.8-101.3,735.1-89.2z M728.2-94.3c-0.7-6.4-4.7-10.5-10.8-10.8c-10-0.6-20.2-1-30.1,0.1c-7.3,0.9-14.3,1.9-21.7,1
			c-10.9-1.3-21.6,4.9-25.8,14.1c-3.2,7.1-3.1,7.1,2.4,12.8c7.2,7.5,15.8,13.1,24.5,18.8c11.5,7.5,24.6,12.8,33.2,24.3
			c0.9,1.1,2.4,1.8,3.6,2.6c5,3.2,7.3,2.9,10.4-2.2c3.4-5.5,7-11.1,9.5-17c2.1-5,3.2-10.5,4-15.9c0.8-5.7,0.8-11.5,1-17.3
			C728.6-87.3,728.5-90.9,728.2-94.3z"/>
		<path fill="#F9F18F" d="M728.2-94.3c0.4,3.5,0.5,7,0.4,10.5c-0.1,5.8-0.1,11.6-1,17.3c-0.8,5.4-1.9,11-4,15.9
			c-2.5,5.9-6.1,11.5-9.5,17c-3.2,5.1-5.5,5.4-10.4,2.2c-1.3-0.8-2.8-1.5-3.6-2.6c-8.6-11.5-21.7-16.8-33.2-24.3
			c-8.7-5.6-17.3-11.3-24.5-18.8c-5.5-5.7-5.6-5.6-2.4-12.8c4.2-9.3,14.9-15.4,25.8-14.1c7.4,0.9,14.4-0.2,21.7-1
			c9.9-1.2,20.1-0.8,30.1-0.1C723.4-104.8,727.5-100.7,728.2-94.3z M667.1-75c-0.1-6.9-2.7-10.7-9.2-12.6
			C661.1-83.2,664.1-79.2,667.1-75z M706.1-90.6c-5.9-0.2-10.4,1.5-15.6,6.4C696.6-86.7,701.1-88.5,706.1-90.6z M713.8-54.8
			c-5.1-8.3-8.8-11-13.9-10.6c2.3,1.7,4.5,3.2,6.6,4.8C708.6-59,710.6-57.4,713.8-54.8z"/>
		<path d="M699.9-65.4c2.3,1.7,4.5,3.2,6.6,4.8c2.1,1.6,4.1,3.3,7.3,5.9C708.7-63.1,704.9-65.8,699.9-65.4z"/>
		<path d="M657.9-87.7c3.2,4.4,6.2,8.5,9.2,12.6C667-82,664.4-85.7,657.9-87.7z"/>
		<path d="M690.6-84.2c6-2.5,10.5-4.3,15.6-6.4C700.3-90.8,695.7-89.1,690.6-84.2z"/>
		<path d="M36.3-591.2c9.4-4,19-7.7,29.3-9.6c9.9-1.8,19-6.9,24.1-15.6c7.7-13.2,7.7-27.3,0.7-41.2c-6.7-13.3-17.8-23.2-28.1-33.3
			c-13.1-12.8-27.6-24.2-41.9-35.6c-6.3-5-13.2-9.2-20.2-13v7.3c18.1,13.1,36.1,26.4,54,39.8c2.8,2.1,4.8,5.1,7.1,7.8
			c5.2,6.1,10.1,12.6,15.7,18.3c8.6,8.7,12.8,19.3,13.5,31.1c0.6,9.4-5.1,22.6-20.2,28.1c-4.5,1.6-9,3-13.6,4.5
			c-11.2,3.7-22.4,7.4-33.6,11.1c-7.5,2.5-15.2,2.7-23,2.6v5.9c0.9-0.1,1.8-0.2,2.6-0.4C14-585.3,25.4-586.6,36.3-591.2z"/>
		<path fill="#F9F18F" d="M0-588.9v-143.3c18.1,13.1,36.1,26.4,54,39.8c2.8,2.1,4.8,5.1,7.1,7.8c5.2,6.1,10.1,12.6,15.7,18.3
			c8.6,8.7,12.8,19.3,13.5,31.1c0.6,9.4-5.1,22.6-20.2,28.1c-4.5,1.6-9,3-13.6,4.5c-11.2,3.7-22.4,7.4-33.6,11.1
			C15.4-589.1,7.8-588.9,0-588.9z M43.1-619.7c3.1,3.1,11.9,4.4,18.8,2.5c1-0.3,1.6-1.8,2.5-3C55.4-622.7,47.4-622.5,43.1-619.7z
			 M22.7-664.3c4.8,5.3,23,14.8,26.7,13.9C41.3-656.3,32.8-661.8,22.7-664.3z"/>
		<path d="M61.8-617.2c1-0.3,1.6-1.8,2.5-3c-9-2.5-17-2.3-21.3,0.5C46.2-616.6,54.9-615.3,61.8-617.2z"/>
		<path d="M49.4-650.4c-8.2-6-16.7-11.4-26.7-13.9C27.5-659,45.8-649.5,49.4-650.4z"/>
		<path d="M19.2-111.4c4.4-4.1,9-8,13.1-12.3c7.1-7.5,13.6-15.5,20.9-22.9c8-8.1,14.8-17.1,20.7-26.8c3.2-5.2,3.2-10.3-0.3-14.8
			c-4.2-5.3-8.6-10.7-14-14.5c-9-6.4-18.7-11.9-28.5-17c-10.3-5.4-20.7-10.7-31.1-15.9v6c10.5,5,21,9.9,31.5,14.8
			c0.2,0.1,0.5,0.2,0.7,0.3c11.1,8.1,22.5,16,33.4,24.5c8.2,6.4,8.7,10.2,2.3,18.4c-7.3,9.3-14.5,18.6-23.6,26.4
			c-4.9,4.2-9.3,9.2-13.1,14.4c-6.1,8.3-14.5,13.9-22.3,20.2c-2.6,2.1-5.7,3.7-8.8,5.4v5.5c4.9-0.8,9.7-3.1,13.7-6.7
			C15.5-108.1,17.4-109.7,19.2-111.4z"/>
		<path fill="#F9F18F" d="M8.8-110.5c-2.6,2.1-5.7,3.7-8.8,5.4v-15.3c0.1-0.8,0.1-1.3,0-1.6v-107.5c10.5,5,21,9.9,31.5,14.8
			c0.2,0.1,0.5,0.2,0.7,0.3c11.1,8.1,22.5,16,33.4,24.5c8.2,6.4,8.7,10.2,2.3,18.4c-7.3,9.3-14.5,18.6-23.6,26.4
			c-4.9,4.2-9.3,9.2-13.1,14.4C25-122.3,16.6-116.8,8.8-110.5z M15.5-199.6c4,3.7,7.6,7.1,11.2,10.6c7.1,6.8,7.9,7.3,11.9,6.6
			c-6.2-6.9-12.4-13.8-19.2-21.3C18.3-202.6,17.2-201.4,15.5-199.6z M8.3-153.8c0.8,2.1,3.3,3,4.7,1.4c-2.8-7.9-5.3-15.1-8-23
			c-1,1.5-2.2,2.4-2,3C4.5-166.2,6.1-159.9,8.3-153.8z"/>
		<path d="M38.6-182.5c-6.2-6.9-12.4-13.8-19.2-21.3c-1.1,1.2-2.2,2.4-3.9,4.2c4,3.7,7.6,7.1,11.2,10.6
			C33.8-182.2,34.6-181.7,38.6-182.5z"/>
		<path d="M0-122.1v1.6C0.1-121.2,0.1-121.8,0-122.1z"/>
		<path d="M13-152.4c-2.8-7.9-5.3-15.1-8-23c-1,1.5-2.2,2.4-2,3c1.6,6.3,3.2,12.6,5.4,18.6C9.1-151.7,11.6-150.8,13-152.4z"/>
		<path d="M16.5-426.6c-0.7-8.3-3.8-15.7-8.6-22.3c-2.8-3.8-5.4-7.8-7.9-11.8v9c3.4,5.5,6.8,11,10,16.6c1.3,2.3,1.5,5.2,2.3,8.4
			c-4.1,0.9-8.2,1.6-12.3,2.3v5.7c5.5-0.8,11-1.9,16.5-3.4C16.5-423.7,16.6-425.1,16.5-426.6z"/>
		<path fill="#F9F18F" d="M10-435.1c-3.2-5.6-6.5-11.1-10-16.6v27.3c4.1-0.7,8.2-1.4,12.3-2.3C11.4-429.9,11.2-432.8,10-435.1z"/>
		<path d="M32.2-280.5c7.8,2.2,13.1-4,13.5-10.3c0.2-4,0-8.1,0-12.1c0.4,0,0.8-0.1,1.2-0.1c-1.2-8.7-1.9-17.5-3.8-26
			c-1.7-7.6-3.8-15.2-7.2-22.2c-5.3-10.9-13.8-16.7-26.4-10.4c-3,1.5-6.4,2.2-9.5,3.5v5.1c4.3-1.9,8.7-3.7,13.2-5.4
			c5.6-2.2,11-0.1,14.3,5.4c1.8,3,3.4,6.2,4.7,9.4c2.3,5.3,4.7,10.6,6.3,16.1c1.6,5.2,2.9,10.7,3,16.2c0.2,6.5-0.7,13-1.6,19.4
			c-0.8,6-2.7,7.2-8.5,6.4c-1.5-0.2-3.2-0.2-4.4-0.9c-8.5-4.6-17.8-5.8-27-6.7v4.7c2.7,0.5,5.4,1,8.1,1.6
			C16.2-285,24.2-282.7,32.2-280.5z"/>
		<path fill="#F9F18F" d="M27-286.4c-8.5-4.6-17.8-5.8-27-6.7v-37.6c3.3-3.5,6-6.4,9-9.7c-3.9,1.6-6.7,3.9-9,7.5v-20
			c4.3-1.9,8.7-3.7,13.2-5.4c5.6-2.2,11-0.1,14.3,5.4c1.8,3,3.4,6.2,4.7,9.4c2.3,5.3,4.7,10.6,6.3,16.1c1.6,5.2,2.9,10.7,3,16.2
			c0.2,6.5-0.7,13-1.6,19.4c-0.8,6-2.7,7.2-8.5,6.4C30-285.7,28.3-285.7,27-286.4z M21.9-313.3c2.6,0.6,5.1,1.3,9.1,2.3
			c-8.1-5.4-12.6-6.3-17-3.8C16.7-314.3,19.3-313.9,21.9-313.3z"/>
		<path d="M13.9-314.9c2.8,0.5,5.4,1,8,1.6c2.6,0.6,5.1,1.3,9.1,2.3C22.8-316.5,18.3-317.4,13.9-314.9z"/>
		<path d="M0-333v2.2c3.3-3.5,6-6.4,9-9.7C5.1-338.8,2.3-336.5,0-333z"/>
		<path d="M765.2-746c-7.9-0.9-13.7,3.6-15.1,11.4c-1.8,9.9-3.1,19.9-4.2,29.8c-1,8.7-1.5,17.5-2.2,26.2c0.5,0,1.1,0,1.6,0.1
			c0,8.6-0.5,17.1,0.1,25.7c1.2,16,0.9,32.2,5.2,47.9c3.2,11.4,10.4,18.5,22.1,21.4c4.2,1,8.3,1,12.3,0.5v-5.9
			c-1.8,0-3.6-0.1-5.5-0.1c-14-0.3-22.1-10.4-25.2-20.2c-3.5-11-3.1-22.4-4-33.6c-1-12.3-1.3-24.6-2.1-39.2
			c0.4-5.3,0.9-12.9,1.7-20.3c0.9-8.3,2.1-16.5,3.2-24.7c0.3-2.5,0.7-5,1.6-7.4c2.2-6.1,7.7-9,13.9-6.8c4.7,1.7,9.4,3.9,13.4,6.8
			c1,0.7,2.1,1.5,3.1,2.2v-7.3c-1.1-0.6-2.2-1.2-3.3-1.8C776.7-743.9,770.8-745.3,765.2-746z"/>
		<path fill="#F9F18F" d="M781.9-734.5c1,0.7,2.1,1.5,3.1,2.2v143.3c-1.8,0-3.6-0.1-5.5-0.1c-14-0.3-22.1-10.4-25.2-20.2
			c-3.5-11-3.1-22.4-4-33.6c-1-12.3-1.3-24.6-2.1-39.2c0.4-5.3,0.9-12.9,1.7-20.3c0.9-8.3,2.1-16.5,3.2-24.7c0.3-2.5,0.7-5,1.6-7.4
			c2.2-6.1,7.7-9,13.9-6.8C773.2-739.5,777.9-737.4,781.9-734.5z M775.3-706.3c2.1-2.1,5.5-3.7,4.6-7.7c-4.6,0.3-14,9.8-17.9,17.8
			C765.6-696.8,765.7-696.7,775.3-706.3z M783.8-622.8c-1.4-6.8-3.2-13.6-4.9-20.4c-0.4-1.5-1.3-3-2.8-6.1c-1,3.1-2,4.6-1.8,6
			c1,6.9,2.2,13.7,3.4,20.6c0.5,2.8,1.1,5.3,5.5,6.2C783.5-618.8,784.2-620.9,783.8-622.8z"/>
		<path d="M776.2-649.2c-1,3.1-2,4.6-1.8,6c1,6.9,2.2,13.7,3.4,20.6c0.5,2.8,1.1,5.3,5.5,6.2c0.3-2.3,1-4.4,0.6-6.3
			c-1.4-6.8-3.2-13.6-4.9-20.4C778.5-644.7,777.6-646.1,776.2-649.2z"/>
		<path d="M779.9-714.1c-4.6,0.3-14,9.8-17.9,17.8c3.6-0.5,3.6-0.4,13.3-10.1C777.4-708.4,780.8-710,779.9-714.1z"/>
		<path d="M741.7-254.2c-0.8,0.8-1.5,2.1-2.5,2.6c-8.2,4.2-8.3,11-6.4,18.7c0.9,3.6,1.3,7.4,1.8,11.1c2.6,17.4,4.7,34.9,8,52.2
			c2.6,13.6,6.5,26.9,10.3,40.2c1.5,5.5,3.7,11,6.4,16c2,3.7,4.8,7.3,8.2,9.7c5.2,3.8,11.5,5,17.6,4v-5.5c-0.5,0.3-0.9,0.5-1.4,0.8
			c-1.1,0.6-2.4,0.6-3.8,0.8c-6.9-1.8-13.5-4.1-16.1-11.9c-2.5-7.6-4.8-15.4-7.6-22.9c-9.8-27-14.4-55-17.2-83.4
			c-0.4-4.5-1.3-9-1.6-13.5c-0.1-2.5,0.4-5,1-7.5c1.1-3.9,2.9-5.2,6.6-4.2c7.5,2.2,15.1,3.9,21.8,8.2c5.5,3.5,11.6,5.9,17.6,8.8
			c0.2,0.1,0.5,0.2,0.7,0.3v-6c-6.2-3.1-12.5-6.1-18.7-9.1C758.4-248.5,751-253.7,741.7-254.2z"/>
		<path fill="#F9F18F" d="M784.3-229.9c0.2,0.1,0.5,0.2,0.7,0.3v107.5c0-0.1,0-0.1-0.1-0.2c-5.1-6.4-10.2-12.9-15.5-19.2
			c-0.6-0.7-2.3-0.4-4.8-0.7c6.6,8.7,11.9,16.5,20.3,22.9c0-0.5,0-0.9,0-1.3v15.3c-0.5,0.3-0.9,0.5-1.4,0.8
			c-1.1,0.6-2.4,0.6-3.8,0.8c-6.9-1.8-13.5-4.1-16.1-11.9c-2.5-7.6-4.8-15.4-7.6-22.9c-9.8-27-14.4-55-17.2-83.4
			c-0.4-4.5-1.3-9-1.6-13.5c-0.1-2.5,0.4-5,1-7.5c1.1-3.9,2.9-5.2,6.6-4.2c7.5,2.2,15.1,3.9,21.8,8.2
			C772.2-235.1,778.4-232.7,784.3-229.9z M780.5-203.3c-1.8-2.5-2.3-3.9-3.2-4.3c-3-1.4-16.4-1.5-19.5-0.4c-0.1,0.6-0.2,1.2-0.3,1.7
			C764.6-205.3,771.7-204.4,780.5-203.3z"/>
		<path d="M769.4-141.4c-0.6-0.7-2.3-0.4-4.8-0.7c6.6,8.7,11.9,16.5,20.3,22.9c0-0.5,0-0.9,0-1.3v-1.6c0-0.1,0-0.1-0.1-0.2
			C779.8-128.7,774.7-135.1,769.4-141.4z"/>
		<path d="M777.3-207.6c-3-1.4-16.4-1.5-19.5-0.4c-0.1,0.6-0.2,1.2-0.3,1.7c7.1,0.9,14.2,1.8,23,2.9
			C778.7-205.8,778.2-207.2,777.3-207.6z"/>
		<path d="M741.6-528.6c-3.2-4.7-8-5.9-13.4-4.3c-6,1.8-11.2,4.6-14.2,10.4c-7.3,14.3-19.1,25.1-28.4,38c-10,14-19.6,28-27.1,43.4
			c-2.5,5.1-2.2,10.3-1,15.5c0.8,3.3,2.7,5.9,6.5,6.5c2.5,0.4,4.9,1.5,7.3,1.6c6.2,0.4,12.7-0.4,18.7,0.7c19.9,3.7,39.7,0,59.5,0
			c11.7,0,23.4-0.2,35.3-1.9v-5.7c-16.1,2.6-31.7,3.6-47.5,3c-4.8-0.2-9.6,0.5-14.3,0.5c-11.6,0-23.1-0.1-34.7-0.3
			c-4.5-0.1-9.1-0.1-13.6-0.3c-13.5-0.8-17.2-6.5-11.9-18.8c6.1-14.2,15.4-26.5,24.3-39c2.6-3.7,5.3-7.4,7.9-11
			c1.3-1.8,2.3-4.1,4.1-5.4c8.6-6.3,12.6-16.1,18.6-24.3c1.3-1.8,2.6-3.7,4.2-5.3c2.3-2.3,5.5-3.8,8.2-2.1
			c4.6,2.9,10.1,4.5,13.2,9.6c6.8,11.2,13.8,22.2,20.7,33.3c5.8,9.2,11.6,18.2,17.4,27.4c1.1,1.8,2.2,3.5,3.3,5.3v-9
			c-4.8-7.7-9.3-15.5-13.8-23.5C762.5-499.6,751.7-513.9,741.6-528.6z"/>
		<path fill="#F9F18F" d="M781.7-457c1.1,1.8,2.2,3.5,3.3,5.3v27.3c-16.1,2.6-31.7,3.6-47.5,3c-4.8-0.2-9.6,0.5-14.3,0.5
			c-11.6,0-23.1-0.1-34.7-0.3c-4.5-0.1-9.1-0.1-13.6-0.3c-13.5-0.8-17.2-6.5-11.9-18.8c6.1-14.2,15.4-26.5,24.3-39
			c2.6-3.7,5.3-7.4,7.9-11c1.3-1.8,2.3-4.1,4.1-5.4c8.6-6.3,12.6-16.1,18.6-24.3c1.3-1.8,2.6-3.7,4.2-5.3c2.3-2.3,5.5-3.8,8.2-2.1
			c4.6,2.9,10.1,4.5,13.2,9.6c6.8,11.2,13.8,22.2,20.7,33.3C770.1-475.2,775.9-466.2,781.7-457z M724.8-448.3
			c-12.2-2.7-22.5,2.4-23.2,12.3c3.9-2.9,6.5-5.8,9.8-7.2c3.6-1.5,7.7-1.5,11.6-2.4C723.7-445.7,724.1-447.2,724.8-448.3z
			 M742.7-477.8c-5.5-2.3-10.3-3.4-14-6c-3.7-2.5-6.3-6.6-9.5-9.9c-0.5,0.4-0.9,0.7-1.4,1.1c0,0.7-0.3,1.6,0,2.1
			c4.1,7.8,11,12.3,18.9,15.2C738.1-474.8,740.3-476.7,742.7-477.8z M770.1-445.7c-4.9-6.5-12.5-11.5-17.4-11.5
			C756.4-451.3,765.8-445.1,770.1-445.7z"/>
		<path d="M719.3-493.7c-0.5,0.4-0.9,0.7-1.4,1.1c0,0.7-0.3,1.6,0,2.1c4.1,7.8,11,12.3,18.9,15.2c1.3,0.5,3.5-1.4,5.9-2.5
			c-5.5-2.3-10.3-3.4-14-6C725.1-486.4,722.4-490.4,719.3-493.7z"/>
		<path d="M701.6-436c3.9-2.9,6.5-5.8,9.8-7.2c3.6-1.5,7.7-1.5,11.6-2.4c0.8-0.2,1.2-1.7,1.9-2.8C712.6-450.9,702.3-445.9,701.6-436
			z"/>
		<path d="M752.7-457.2c3.6,5.8,13,12.1,17.4,11.5C765.2-452.2,757.6-457.2,752.7-457.2z"/>
		<path d="M744.8-336.9c-4.6,2.7-9.2,6.9-11.6,11.5c-6.3,12-6.7,24,9.8,28.4c10.2,2.7,20.6,4.5,30.9,6.5c3.7,0.7,7.4,1.3,11.1,2
			v-4.7c-4.4-0.4-8.9-0.8-13.2-1.5c-10.2-1.5-20.4-3-30.1-6.8c-7.4-2.9-7.4-2.8-7.5-10.6c-0.1-10.2,7.1-20.2,17.5-23.6
			c7-2.3,13-6.2,19.2-10c4.5-2.7,9.3-5.1,14.1-7.3v-5.1c-0.4,0.2-0.7,0.3-1,0.5C770.8-350.9,757.5-344.3,744.8-336.9z"/>
		<path fill="#F9F18F" d="M770.9-345.7c4.5-2.7,9.3-5.1,14.1-7.3v20c-0.9,1.4-1.7,3-2.5,4.9c0.9-0.9,1.7-1.8,2.5-2.6v37.6
			c-4.4-0.4-8.9-0.8-13.2-1.5c-10.2-1.5-20.4-3-30.1-6.8c-7.4-2.9-7.4-2.8-7.5-10.6c-0.1-10.2,7.1-20.2,17.5-23.6
			C758.7-338,764.6-341.9,770.9-345.7z M765-309.9c-3-6.3-6.9-8.6-13.6-7.6C756.2-314.9,760.6-312.4,765-309.9z"/>
		<path d="M751.4-317.6c4.8,2.7,9.2,5.1,13.6,7.6C762-316.2,758.1-318.5,751.4-317.6z"/>
		<path d="M785-330.7v-2.2c-0.9,1.4-1.7,3-2.5,4.9C783.4-329,784.2-329.9,785-330.7z"/>
		<path d="M486.3-566.1c2.4-4.6,7-8.9,11.6-11.5c12.8-7.4,26-14,39.2-20.7c3.3-1.7,7.2-2.3,10.6-4c12.5-6.3,21.1-0.5,26.4,10.4
			c3.4,6.9,5.5,14.6,7.2,22.2c1.9,8.5,2.6,17.3,3.8,26c-0.4,0-0.8,0.1-1.2,0.1c0,4,0.2,8.1,0,12.1c-0.4,6.3-5.7,12.5-13.5,10.3
			c-8-2.2-16-4.5-24-6.4c-6.4-1.5-12.9-2.3-19.3-3.5c-10.3-2.1-20.8-3.8-30.9-6.5C479.7-542.2,480.1-554.2,486.3-566.1z
			 M487.4-552.9c0.1,7.8,0.1,7.7,7.5,10.6c9.7,3.8,19.9,5.3,30.1,6.8c13.6,2,27.7,1.4,40.3,8.2c1.3,0.7,2.9,0.7,4.4,0.9
			c5.9,0.8,7.8-0.4,8.5-6.4c0.8-6.4,1.8-13,1.6-19.4c-0.2-5.4-1.5-10.9-3-16.2c-1.6-5.5-4.1-10.8-6.3-16.1c-1.4-3.2-2.9-6.4-4.7-9.4
			c-3.3-5.5-8.7-7.5-14.3-5.4c-9.4,3.6-18.8,7.5-27.3,12.7c-6.2,3.8-12.2,7.7-19.2,10C494.5-573.1,487.3-563,487.4-552.9z"/>
		<path fill="#F9F18F" d="M487.4-552.9c-0.1-10.2,7.1-20.2,17.5-23.6c7.1-2.3,13-6.2,19.2-10c8.5-5.2,17.9-9.1,27.3-12.7
			c5.6-2.2,11-0.1,14.3,5.4c1.8,3,3.4,6.2,4.7,9.4c2.3,5.3,4.7,10.6,6.3,16.1c1.6,5.2,2.9,10.7,3,16.2c0.2,6.5-0.7,13-1.6,19.4
			c-0.8,6-2.7,7.2-8.5,6.4c-1.5-0.2-3.2-0.2-4.4-0.9c-12.6-6.8-26.7-6.2-40.3-8.2c-10.2-1.5-20.4-3-30.1-6.8
			C487.5-545.1,487.4-545,487.4-552.9z M552.1-555.7c2.8,0.5,5.4,1,8,1.6c2.6,0.6,5.1,1.3,9.1,2.3
			C561-557.3,556.5-558.2,552.1-555.7z M535.8-568.9c4.4-4.8,7.7-8.3,11.5-12.3C541.8-579,538.4-575.5,535.8-568.9z M504.6-558.4
			c4.8,2.7,9.2,5.1,13.6,7.6C515.3-557,511.3-559.3,504.6-558.4z"/>
		<path d="M569.1-551.9c-8.1-5.4-12.6-6.3-17-3.8c2.8,0.5,5.4,1,8,1.6C562.6-553.6,565.2-552.9,569.1-551.9z"/>
		<path d="M504.6-558.4c4.8,2.7,9.2,5.1,13.6,7.6C515.3-557,511.3-559.3,504.6-558.4z"/>
		<path d="M535.8-568.9c4.4-4.8,7.7-8.3,11.5-12.3C541.8-579,538.4-575.5,535.8-568.9z"/>
	</g>
</pattern>
<rect x="-38.1" y="-27.4" fill="#F9F18F" width="1570.6" height="940"/>
<rect x="-38.1" y="-27.4" opacity="0.2" fill="url(#chips_2)" width="1570.6" height="940"/>
<g>
	<text transform="matrix(1 0 0 1 455.1285 384.8711)" font-family="'ModulaOT-SansBlack'" font-size="62.5166px">HINT OF</text>
	<g>
		<g>
			<path d="M1078.9,403.1c-1.7-5.6-3.2-11.2-4.6-16.8c-2.2-8.8-5.7-17-11.2-24c-5.5-6.9-12.1-13.1-18.2-19.5c-0.8-0.9-2-1.4-3-2.1
				c-2.2-1.4-4.6-2.6-6.5-4.3c-9.7-8.3-20.9-14.1-32.7-18.3c-18.7-6.6-37.5-13.3-57.8-13c-4.8,0.1-9.4-0.6-14.5,0.9
				c-11,3.3-22.4,5.4-33.8,7.3c-6.6,1.1-12.4,3.5-17.7,7.1c4.3,4.7,8.2,9,12.2,13.2c9.6,10.2,19.3,20.3,28.9,30.4
				c0.7,0.7,1.4,1.4,2.2,2.1c3.1,2.6,6.3,5,9.4,7.7c9.3,8.1,18.3,16.5,28,24.2c10.1,8.1,19.4,17.2,28.6,26.3
				c7,7,14.2,13.7,21.8,20.1c11.9,10.1,23.1,20.9,34.6,31.4c2,1.8,5.2,2.7,6.7,1c3.6-4.1,7.1-8.3,10.2-12.7
				c2.3-3.3,4.1-6.9,5.9-10.5c1.7-3.2,3.4-6.5,4.5-9.9c2.7-8,4.7-16.3,7.8-24.2C1082,413.7,1080.5,408.6,1078.9,403.1z M957.7,387
				c-3.5-3-6.9-6.1-10.5-8.9c-9.4-7.5-19.2-14.3-28-22.4c-7.5-6.9-15.4-13.7-21.3-23.3c8.8-3,17.1-6.3,27.1-7.4
				c11,20.4,23.5,40.1,34.1,60.9C958.6,386.4,958.1,386.7,957.7,387z M929.4,324.6c11.7-2.9,22.3-0.9,33.3,0.4c3.2,23,5.2,46,6,70.7
				C954.8,371.4,946.8,345.5,929.4,324.6z M973,399.2c-0.3-4.5-0.8-8.8-0.9-13.1c-0.1-5.2,0.2-10.4,0-15.6c-0.2-5-0.8-10-1.4-15
				c-0.8-6.4-2.6-12.6-1.2-19.2c0.6-2.8-0.4-6-0.7-9.5c13.3,0.2,23.7,8.1,36.5,11.5c-10.5,21.1-20.4,41-30.3,60.8
				C974.9,399.3,973.9,399.1,973,399.2z M1020.5,399c-11.5-0.2-22.9,0.9-34.6,0.8c4-3.7,9.4-4.2,14-6.6c5-2.6,10.2-4.8,15.4-7.2
				c5-2.2,10-4.4,14.9-6.6c5-2.3,9.9-4.6,14.8-6.9c7,8.4,10.3,18,10.2,28.9C1043.4,400.5,1031.9,399.1,1020.5,399z M1056.4,407.1
				c1.4,10.8-2.3,19.7-6.2,28.6c-9.6-4.1-18.5-7.7-27.3-11.7c-2.5-1.1-4.8-3-7-4.7c-6-4.4-11.9-9.1-19.4-10.9
				c-0.7-0.2-1.3-0.7-1.8-2.2c6.9-0.3,13.9-0.8,20.8-0.9c8-0.1,16.1-0.1,24.1,0.2C1045.1,405.8,1050.7,406.6,1056.4,407.1z
				 M983.9,394.4c-0.3-0.3-0.7-0.7-1-1c2.5-4.4,5-8.8,7.6-13.2c1.6-2.7,3.7-5.3,5.1-8.1c4.3-8.6,8.5-17.3,12.7-26
				c2.3-4.8,4.5-5.9,8.3-2.7c8.5,7.2,16.6,14.8,24.8,22.3c0.7,0.6,1,1.7,2.2,3.6C1022.3,375.9,1004.3,388.1,983.9,394.4z
				 M980.5,407.6c1.7,0.4,3.5,0.6,5.1,1.3c5.8,2.7,11.7,5.2,17.2,8.8c8.5,5.7,17.7,10.4,26.8,15.2c5.7,3,11.6,5.4,17.7,8.2
				c-2,7.6-10.7,10.3-9.6,18.6C1016.1,444.9,998.4,426.4,980.5,407.6z M1070.9,427.2c-2.6,12-7.2,23.3-13.4,33.8
				c-2.2,3.8-5.4,7-8.8,11.4c-3.1-3.2-5.4-5.6-8-8.3c6.7-5.3,11.6-11.1,15.3-17.9c0.9-1.6,2.8-2.5,3.9-3.5c0-4.3-0.4-8.5,0.1-12.5
				c0.9-6.7,2.9-13.3,2.1-20.2c-0.3-2.8,0.9-4.9,4.5-6.3c-4.3-1-5.7-3.1-6.2-6.5c-0.6-4.8-1.2-9.7-2.8-14.1
				c-3.7-9.8-9.4-18.4-17.6-25.2c-6.2-5.2-11.7-11.2-18.1-16c-4.4-3.3-9.8-5.5-14.9-7.9c-9.1-4.3-18.1-8.9-28.2-10.7
				c-1.8-0.3-3.6-0.7-5.4-0.9c-3.9-0.5-7.3-1.4-6.9-8c-1.4,2.8-2.1,4.1-3.2,6.2c-11.2-2.8-22.9-3.3-34.4-1.2
				c-11.5,2-22.8,5.5-34.1,8.3c-1.9-1.7-3.9-3.6-6.3-5.9c4.2-1.5,8.1-3.4,12.3-4.3c10.6-2.4,21.2-5.1,31.9-6.5
				c6.7-0.8,13.7,1.3,20.5,0.9c9-0.5,16.7,3.4,25,5.2c7.7,1.7,15.2,3.4,22.4,6.9c4.6,2.2,10.1,2.8,14.7,5c4.9,2.4,9.2,5.9,13.8,8.8
				c9.4,6.1,16.8,14.7,24.7,22.5c3.5,3.5,6.2,8,8.5,12.5c3.7,7.4,7.3,14.9,9.1,23.1C1073.6,406.3,1073.1,416.7,1070.9,427.2z"/>
			<g>
				<path fill="#8DC63F" d="M877.5,365.3c1.1-1.9,2-3.9,3.3-5.6c1.1-1.4,3.1-1.1,3.3,0.5c0.2,2-0.1,4.6-1.2,6.2
					C881.5,368.3,879.3,367.5,877.5,365.3z"/>
				<path fill="#8DC63F" d="M930,282.4c2.6-2,4.8-3.6,7.1-5.4c2.9,3.1,0.5,5.5-0.7,8.6C934.5,284,930.8,287.2,930,282.4z"/>
				<path fill="#8DC63F" d="M892.1,308.4c-2.5,0-4.2,0-6.2,0c0-3.6,0.4-6.7,5.1-8.3C891.4,302.9,891.7,305.5,892.1,308.4z"/>
				<path fill="#8DC63F" d="M888.7,292.4c-2.5-0.6-4.2-1-6-1.3c-1.1-1.8-0.2-2.9,1.4-3.9c2.3-1.4,4.5-1.7,7,0.6
					C890.3,289.2,889.5,290.8,888.7,292.4z"/>
				<path fill="#8DC63F" d="M913.6,387.5c0.4,2.9,0.8,4.9,0.8,6.9c0,0.7-1,1.8-1.8,2c-0.7,0.1-1.8-0.6-2.3-1.2
					C908.2,392.3,908.6,390.9,913.6,387.5z"/>
				<path fill="#8DC63F" d="M994.5,470.2c-2.3-0.7-4.5-1.3-6.9-2c0.9-3,2.6-5,5.6-4C996,465.2,996.1,467.5,994.5,470.2z"/>
				<path fill="#8DC63F" d="M966,421.4c2.1-1.4,4.1-2.8,6.2-4.2c2.3,3,1,5.1-0.6,6.3c-1.1,0.8-3.3,0.1-5,0.1
					C966.4,422.9,966.2,422.2,966,421.4z"/>
				<path fill="#8DC63F" d="M921.1,399.4c1.3,0.5,2.4,0.9,3.6,1.4c-0.1,1.2-0.1,2.1-0.3,3.1c-0.2,1.5,0,3.7-2.3,3.4
					c-2.3-0.3-3.4-2.2-2.9-4.5C919.6,401.7,920.4,400.7,921.1,399.4z"/>
				<path fill="#8DC63F" d="M859.9,340.7c-4.2-1.9-5.1-3.2-3.8-5.5c0.5-0.9,2.4-1.7,3.3-1.4C861.7,334.5,861.8,336.7,859.9,340.7z"
					/>
				<path fill="#8DC63F" d="M836.1,317.3c-0.3-2.5-1.3-5.2,0.9-7.3c0.6-0.5,2.2,0.1,3.3,0.1C840.8,316.7,840.8,316.7,836.1,317.3z"
					/>
				<path fill="#8DC63F" d="M904.4,280.9c2.7,1,3.9,2,3.1,4.3c-0.9,2.4-1.7,2.8-6.1,2.4C902.4,285.4,903.3,283.3,904.4,280.9z"/>
				<path fill="#8DC63F" d="M936,395.7c-1.3-1.5-2.5-2.9-4.2-4.9c1.5-1.1,2.8-2,4.1-3C939,392.3,939,392.3,936,395.7z"/>
				<path fill="#8DC63F" d="M927.6,410.8c2.8-3.7,2.8-3.7,6.3-1.7C932.1,414.8,931.9,414.9,927.6,410.8z"/>
				<path fill="#8DC63F" d="M874.3,352.8c-0.5,0.2-1.5,0.9-2,0.6c-1.7-0.8-3.4-1.7-4.6-3.1c-0.4-0.4,0.9-2.3,1.4-3.5
					c1.2,0.8,2.5,1.6,3.6,2.6C873.3,350,873.4,350.9,874.3,352.8z"/>
				<path fill="#8DC63F" d="M867.2,288.8c2.6,2,3.4,3.9,1.9,5.8c-0.7,0.9-2.3,1.1-3.6,1.6c-0.3-1.2-0.9-2.5-0.7-3.6
					C865.1,291.3,866.2,290.3,867.2,288.8z"/>
				<path fill="#8DC63F" d="M903.4,369.6c0.3-2.1,0.6-4.2,0.9-6.7c4.4,3,4.4,3.8,0.6,7.1C904.4,369.8,903.9,369.7,903.4,369.6z"/>
				<path fill="#8DC63F" d="M850.5,295.6c2.9,1.4,4.1,3.3,2,5.7c-0.5,0.7-2.9,0.8-3.5,0.3C846.6,299.1,848.9,297.5,850.5,295.6z"/>
				<path fill="#8DC63F" d="M850.1,321.9c0.4,2.1,0.9,3.9,1.1,5.7c0,0.5-0.8,1.4-1.4,1.6c-0.6,0.2-1.6-0.2-2-0.7
					C845.9,326.6,846.6,324,850.1,321.9z"/>
				<path fill="#8DC63F" d="M901,379c3.4,0.8,4.1,2.9,3,5.5c-0.2,0.6-2.2,1-2.9,0.7C898.2,383.5,899.1,381.3,901,379z"/>
				<path fill="#8DC63F" d="M920.6,281.4c-1.7,1.7-3,3-4.4,4.1c-0.1,0.1-1.6-1.1-1.8-1.8c-0.5-1.9,1.3-4.8,2.8-4.6
					C918.2,279.2,919,280.2,920.6,281.4z"/>
				<path fill="#8DC63F" d="M883.1,340.5c3.2,0.3,5,1.3,4.4,4c-0.2,0.9-2.3,2.3-3,2C882,345.5,882.4,343.2,883.1,340.5z"/>
				<path fill="#8DC63F" d="M950.3,429.9c1.5-2.3,2.7-4.6,5.2-2.8c0.7,0.5,1,3.3,0.3,4.1C953.9,433.4,952.1,432.2,950.3,429.9z"/>
				<path fill="#8DC63F" d="M877.3,303.5c-0.4,7.2-0.9,7.5-6.1,4.2C871.9,304.5,875,305.4,877.3,303.5z"/>
				<path fill="#8DC63F" d="M919.8,300.8c-1.2-1.6-2.2-3-3.1-4.3c1.5-2.4,3.4-2.9,4.9-0.8C923.2,297.7,922.4,299.5,919.8,300.8z"/>
				<path fill="#8DC63F" d="M935.3,293.7c2.4,1.2,3.7,2.8,2,5.2c-0.4,0.5-2.4,0.8-2.8,0.3C932.5,297.2,933.4,295.4,935.3,293.7z"/>
				<path fill="#8DC63F" d="M970.8,450.8c1.1-1.6,2.1-3.3,3.5-4.7c0.2-0.2,2,1.2,3.9,2.4c-2.5,1.6-4.1,2.7-5.8,3.8
					C971.9,451.8,971.3,451.3,970.8,450.8z"/>
				<path fill="#8DC63F" d="M943.3,419.2c1.7,2.4,2.3,4.4,0,6c-0.7,0.5-2.8,0.2-3.1-0.3C938.7,422.1,940.3,420.5,943.3,419.2z"/>
				<path fill="#8DC63F" d="M987,454.1c-0.3,7-1.3,7.6-6.3,4.7C982.7,457.3,984.4,456.1,987,454.1z"/>
				<path fill="#8DC63F" d="M892.5,351.3c3.4,0.9,4.7,2.6,4,4.9c-0.2,0.7-2.6,1.6-3.3,1.2C890.8,356,892.1,353.9,892.5,351.3z"/>
				<path fill="#8DC63F" d="M888.9,368.5c2.7,1.1,4.3,2.5,2.9,4.7c-1.4,2.2-3.4,1.5-5.4-0.6C887.2,371.3,888,369.9,888.9,368.5z"/>
				<path fill="#8DC63F" d="M961.6,439c0.6-1.5,0.7-2.4,1.2-2.8c1.2-0.8,2.5-1.5,3.8-2c0.1-0.1,1.2,1.5,1.1,1.7
					c-0.8,1.2-1.9,2.3-3,3.2C964.3,439.6,963.2,439.2,961.6,439z"/>
				<path fill="#8DC63F" d="M989.5,438.6c1,1.9,2,3.1,2.1,4.4c0.1,0.6-1.5,1.4-2.3,2.2c-0.7-1.2-1.6-2.4-2-3.8
					C987.1,441,988.3,440.1,989.5,438.6z"/>
				<path fill="#8DC63F" d="M941.7,407.1c1.3-1.8,2.3-3,3.2-4.3c0.5,0.1,0.9,0.1,1.4,0.2c0.3,1.7,0.7,3.3,1.2,5.9
					C945.1,408.2,943.7,407.7,941.7,407.1z"/>
				<path fill="#8DC63F" d="M979.2,436c-2.3-1.3-3.5-2.8-1.7-4.9c0.4-0.5,2.2-0.7,2.5-0.4C981.5,432.4,981.6,434.2,979.2,436z"/>
				<path fill="#8DC63F" d="M902.1,303.2c0.9-2,1.6-3.3,2.3-4.9c0.7,0.4,1.4,0.6,1.6,1c0.5,1.2,1.3,2.6,0.9,3.6
					C906.1,305,904.4,304.1,902.1,303.2z"/>
				<path fill="#8DC63F" d="M876,335.8c-3.4-3-1.2-4.5,0.6-6.7C879.6,332.3,878.6,334,876,335.8z"/>
				<path fill="#8DC63F" d="M954,414.9c1.4-1,2.8-2.1,4.3-3.1c0.6,1,1.8,2.2,1.6,2.8c-0.9,2.5-3,1.9-4.9,1.7
					C954.6,415.8,954.3,415.4,954,414.9z"/>
				<path fill="#8DC63F" d="M917,372.6c2.2,1.9,3,3.7,1,5.4c-0.5,0.4-2.3,0.3-2.7-0.2C913.6,375.7,915.2,374.3,917,372.6z"/>
				<path fill="#8DC63F" d="M863.2,323.7c0-2.7,0-4.3,0-6.1C867.5,319.4,867.6,319.5,863.2,323.7z"/>
				<path fill="#8DC63F" d="M926.3,384.3c-1.6,1.1-2.7,2-4.6,3.3c-0.1-1.9-0.6-3.2-0.2-4C922.7,381.3,924.2,382,926.3,384.3z"/>
				<path fill="#8DC63F" d="M1004.4,454.9c-1.1,0.7-2,1.8-2.5,1.6c-0.9-0.3-1.6-1.4-2.3-2.2c0.8-0.7,1.7-2.1,2.4-2
					C1002.7,452.5,1003.4,453.8,1004.4,454.9z"/>
				<path fill="#8DC63F" d="M858.4,313.6c-2.7-2.4-0.5-3.5,1.4-4.8C860.3,310.6,860.6,312.3,858.4,313.6z"/>
			</g>
			<path fill="#A6FF1A" d="M1070.9,427.2c-2.6,12-7.2,23.3-13.4,33.8c-2.2,3.8-5.4,7-8.8,11.4c-3.1-3.2-5.4-5.6-8-8.3
				c6.7-5.3,11.6-11.1,15.3-17.9c0.9-1.6,2.8-2.5,3.9-3.5c0-4.3-0.4-8.5,0.1-12.5c0.9-6.7,2.9-13.3,2.1-20.2
				c-0.3-2.8,0.9-4.9,4.5-6.3c-4.3-1-5.7-3.1-6.2-6.5c-0.6-4.8-1.2-9.7-2.8-14.1c-3.7-9.8-9.4-18.4-17.6-25.2
				c-6.2-5.2-11.7-11.2-18.1-16c-4.4-3.3-9.8-5.5-14.9-7.9c-9.1-4.3-18.1-8.9-28.2-10.7c-1.8-0.3-3.6-0.7-5.4-0.9
				c-3.9-0.5-7.3-1.4-6.9-8c-1.4,2.8-2.1,4.1-3.2,6.2c-11.2-2.8-22.9-3.3-34.4-1.2c-11.5,2-22.8,5.5-34.1,8.3
				c-1.9-1.7-3.9-3.6-6.3-5.9c4.2-1.5,8.1-3.4,12.3-4.3c10.6-2.4,21.2-5.1,31.9-6.5c6.7-0.8,13.7,1.3,20.5,0.9
				c9-0.5,16.7,3.4,25,5.2c7.7,1.7,15.2,3.4,22.4,6.9c4.6,2.2,10.1,2.8,14.7,5c4.9,2.4,9.2,5.9,13.8,8.8
				c9.4,6.1,16.8,14.7,24.7,22.5c3.5,3.5,6.2,8,8.5,12.5c3.7,7.4,7.3,14.9,9.1,23.1C1073.6,406.3,1073.1,416.7,1070.9,427.2z"/>
			<path fill="#CEF982" d="M1005.3,338.2c-10.5,21.1-20.4,41-30.3,60.8c-0.1,0.3-1.1,0.1-2,0.2c-0.3-4.5-0.8-8.8-0.9-13.1
				c-0.1-5.2,0.2-10.4,0-15.6c-0.2-5-0.8-10-1.4-15c-0.8-6.4-2.6-12.6-1.2-19.2c0.6-2.8-0.4-6-0.7-9.5
				C982.1,327,992.5,334.9,1005.3,338.2z"/>
			<path fill="#CEF982" d="M1043.5,369.4c-21.3,6.5-39.2,18.7-59.6,25c-0.3-0.3-0.7-0.7-1-1c2.5-4.4,5-8.8,7.6-13.2
				c1.6-2.7,3.7-5.3,5.1-8.1c4.3-8.6,8.5-17.3,12.7-26c2.3-4.8,4.5-5.9,8.3-2.7c8.5,7.2,16.6,14.8,24.8,22.3
				C1042,366.4,1042.4,367.4,1043.5,369.4z"/>
			<path fill="#CEF982" d="M959,386c-0.4,0.3-0.9,0.7-1.3,1c-3.5-3-6.9-6.1-10.5-8.9c-9.4-7.5-19.2-14.3-28-22.4
				c-7.5-6.9-15.4-13.7-21.3-23.3c8.8-3,17.1-6.3,27.1-7.4C935.9,345.4,948.4,365.2,959,386z"/>
			<path fill="#CEF982" d="M968.7,395.7c-13.9-24.2-21.9-50.1-39.3-71c11.7-2.9,22.3-0.9,33.3,0.4C965.9,348,968,371,968.7,395.7z"
				/>
			<path fill="#CEF982" d="M1050.2,435.8c-9.6-4.1-18.5-7.7-27.3-11.7c-2.5-1.1-4.8-3-7-4.7c-6-4.4-11.9-9.1-19.4-10.9
				c-0.7-0.2-1.3-0.7-1.8-2.2c6.9-0.3,13.9-0.8,20.8-0.9c8-0.1,16.1-0.1,24.1,0.2c5.6,0.2,11.1,1,16.8,1.5
				C1057.7,417.9,1054.1,426.8,1050.2,435.8z"/>
			<path fill="#CEF982" d="M1055.3,401.3c-11.9-0.9-23.3-2.2-34.7-2.3c-11.5-0.2-22.9,0.9-34.6,0.8c4-3.7,9.4-4.2,14-6.6
				c5-2.6,10.2-4.8,15.4-7.2c5-2.2,10-4.4,14.9-6.6c5-2.3,9.9-4.6,14.8-6.9C1052,380.9,1055.3,390.4,1055.3,401.3z"/>
			<path fill="#CEF982" d="M1037.7,459.9c-21.6-14.9-39.3-33.4-57.1-52.2c1.7,0.4,3.5,0.6,5.1,1.3c5.8,2.7,11.7,5.2,17.2,8.8
				c8.5,5.7,17.7,10.4,26.8,15.2c5.7,3,11.6,5.4,17.7,8.2C1045.3,448.9,1036.6,451.6,1037.7,459.9z"/>
		</g>
		<path d="M810.7,592.1c-5.2-3.7-2.8-9.2-3.4-13.7c-1-7.1-0.4-14.5-0.8-21.7c-0.7-12.7-1.3-25.5-2.4-38.2c-0.7-7.7,0.2-15.3,0.5-23
			c0.1-2.3,0-4.7-0.6-7.2c-14.3,17.6-27.3,36-42.6,53c-13.1-13.5-25.6-26.4-38.3-39.5c-0.8,1.1-1.4,1.5-1.4,1.9
			c-0.6,17-1.1,34-1.7,51c-0.4,10.1-0.9,20.2-1.6,30.2c-0.2,3.7-2.2,5.2-5.7,5.4c-4.4,0.3-8.8,0.8-13.2,1
			c-9.1,0.5-18.2,0.9-27.3,1.3c-0.5,0-1.1-0.3-2.2-0.6c-0.3-21.8-0.6-43.7-1-65.5c-0.2-10.1-1-20.2-1.3-30.4
			c-0.1-3.2,0.6-6.4,0.6-9.6c0.2-10.6,0.3-21.3,0.2-31.9c0-5.9-0.6-11.7-0.7-17.6c-0.2-8.9-0.3-17.8-0.5-26.8
			c-0.1-2.6-0.6-5.2-0.5-7.8c0-2.1,0.5-4.3,0.8-6.1c0.9-0.4,1.4-0.8,1.7-0.7c10.9,2.8,21.7,0.4,32.5-0.3c5.2-0.3,10.4-1.1,15.7-1.3
			c1.3-0.1,3.4,0.9,3.8,2c4.1,10.1,11.2,18.2,17.5,26.9c5.5,7.5,10.3,15.5,15.6,23.1c2.1,3,4.9,5.4,7.8,8.6c2-2.1,3.8-3.8,5.5-5.7
			c9-10.7,18-21.4,26.9-32.2c1.7-2,3.3-4.2,4.4-6.6c2.9-6.4,8.8-10.2,13-15.4c0.9-1.1,3.2-1.4,4.9-1.6c4-0.3,8-0.3,12.1-0.5
			c5.7-0.3,11.3-0.6,17-1.2c4.8-0.5,9.6-1.4,14.4-2c2.1-0.3,4.2-0.4,6.4-0.7c-2,12.9-1.9,25.1-0.6,37.3c0.2,2.2-0.5,4.4-0.5,6.6
			c-0.1,10.1-0.2,20.1-0.1,30.2c0.1,13.1,0.6,26.1,0.6,39.2c0,6.9-1.4,13.7-1.3,20.6c0.1,10.1,1.1,20.2,1.5,30.2
			c0.3,7.9,0.1,15.7,0.2,23.6c0,2.8,0.2,5.6,0.1,8.4c0,1-0.8,2.1-1.6,3.8c-1.2-1.7-1.9-2.7-3-4.2c-9.5,3.7-19.8,4.7-30.2,5
			c-2.6,0.1-5.3,0.6-7.7,1.6C819.7,592.7,815.1,592.4,810.7,592.1z M813.5,587.2c3.9-0.5,7.8,0,10.6-1.5c4.9-2.6,10-2.7,15.2-2.9
			c6.6-0.3,13.4,0,19.3-2.9c0.6-11.7,1.4-23,1.6-34.3c0.3-16,0.1-32.1,0-48.1c0-2.2-0.5-4.4-0.5-6.6c-0.1-10.8,0-21.5,0-32.3
			c0-4.6,0-9.2-0.1-13.9c-0.1-5.8-0.5-11.6-0.5-17.5c-0.1-10.3,0-20.6,0-31.1c-3.2,0-6.5-0.4-9.6,0.1c-9,1.3-18,2.3-27.2,1.4
			c-2.6-0.3-5.8-0.2-7.8,2.3c-7.6,9.7-15.1,19.5-22.6,29.3c-6.1,8-12.3,16-18.5,23.9c-1.6,2-3.5,3.8-4.9,5.9
			c-2.5,3.7-3.8,4.2-7.3,1.7c-1.9-1.4-3.6-3.2-5.1-5c-3.2-4.2-6.1-8.6-9.3-12.9c-9.4-12.7-19.2-25.2-28.1-38.2
			c-3.5-5.2-7.3-6.1-12.7-5.6c-9.1,0.8-18.1,1.3-27.2,2c-1.4,0.1-2.8,0.2-4.8,0.3c-0.2,2.3-0.6,4.5-0.6,6.6
			c0.3,10.7,0.8,21.5,1.2,32.2c0.2,4.5,0.5,8.9,0.5,13.4c0.2,14.4,0.6,28.8,0.5,43.2c-0.1,9.9-1,19.8-1.1,29.7
			c-0.1,13.3,0.3,26.7,0.5,40c0.1,6.6,0,13.2,0,20.1c12.7,1.4,24.7-1.9,37.3-2.9c0.5-2.6,1.3-4.9,1.4-7.3
			c0.6-14.4,1.2-28.8,1.4-43.2c0.1-12.1-0.5-24.2-0.6-36.4c-0.1-4.6,0.1-4.6,5.4-5.2c13.3,13.6,26.4,27.1,39.7,40.9
			c3.4-3.9,6.4-7.2,9.2-10.6c5.7-6.8,11.8-13.4,16.9-20.6c5-7.2,11.4-13.1,17.2-19.4c0.7-0.7,1.6-1.3,2.4-1.8
			c2.1-1.3,4.1-0.8,4.8,1.5c1,3.7,2.2,7.5,2.2,11.2c0.2,13.5,0.1,27,0,40.5c0,5.7-0.4,11.3-0.3,17
			C812.6,562.1,813.1,574.2,813.5,587.2z"/>
		<path d="M953.6,512.6c-2.7-4.8-5.9-4.5-9.4-3.3c-2.7,0.9-5.4,1.6-8.2,2.2c-3.2,0.7-4.4,3-4.2,5.8c0.4,6.4,1.2,12.8,1.8,19.6
			c13.1,1.4,25.8-1,38.7-1.8c0.2,1.6,0.6,2.7,0.3,3.1c-3.2,3.8-1.8,8.1-1.6,12.2c0.4,8.8,1.3,17.7,1.7,26.5c0.1,2.2-0.7,4.5-1,6.7
			c-0.5,0.1-1,0.1-1.5,0.2c-1-1.8-2-3.7-3-5.5c-8.2,1-16.3,3.2-24.9,2.7c-7.8-0.5-15.8,0.2-23.6,0.7c-4,0.3-7.9,1.4-11.9,2
			c-5.8,0.8-11.5,1.7-17.4,2.2c-2,0.2-4.2-0.8-5.9-1.1c0.8-3.2,1.9-5.7,2.1-8.3c0.7-10.1,1.2-20.2,1.5-30.4
			c0.2-7.9-0.2-15.8-0.3-23.7c0-3,0.2-6,0.1-9c-0.5-14.1-1.2-28.3-1.7-42.4c0-1.2,0.2-2.4,0.2-3.6c0.2-3.4,0.7-6.9,0.7-10.3
			c0-9.1-0.9-18.3-0.2-27.3c0.8-10.5-1.6-20.9-0.2-31.4c0.2-1.4,0-2.9-0.2-4.2c-0.9-5.1-0.2-6.3,5.3-6.6c6.1-0.4,12.2,0.1,18.2-0.2
			c8.7-0.5,17.3-1.3,25.9-2c3-0.2,6.1-0.4,9.1-0.5c5.2-0.2,10.7,0.4,15.5-0.9c5.5-1.5,11-2.2,16.6-2.7c0.6-0.1,1.1,0.2,1.6,0.3
			c0.3,0.5,0.8,0.8,0.8,1.1c-0.8,8.2-0.5,16.4,0.7,24.6c1,6.7-0.4,13.7-0.7,20.4c-15.1,7.2-31.9,7.5-47.8,12.4
			c-0.2,7.7-0.5,15.4-0.7,23.1c-0.1,2.3,1.3,3.5,3.4,3.4c5.3-0.3,10.8,0.3,14.7-4.5c4.8,2.8,6.2,6.9,6,12.3
			c-0.2,5.8,0.7,11.6,0.9,17.4c0.2,5.7,0.2,11.3,0.1,17C955.3,509.6,954.6,510.4,953.6,512.6z M926.3,473.8
			c-0.4-9.8-0.6-18.3-1-26.8c-0.1-2.2-0.2-4.4-0.7-6.6c-0.7-3.6,1.1-6.2,4.7-6.5c1.8-0.2,3.6-0.3,5.4-0.7c6.5-1.3,13-3.2,19.6-4
			c5.6-0.7,10.4-3.3,15.3-5.5c2.7-1.3,3.7-3.4,3.3-6.5c-0.4-3-1.3-6.1-0.9-9c1-7.3-1.7-13.6-4-20.2c-8.8,0.6-16.9,3.2-25.4,3.8
			c-4.3,0.3-8.3-0.8-12.5-0.3c-7.6,0.9-15.2,1.6-22.8,2.4c-5,0.5-9.9,1.1-15.5,1.8c-0.3,12.7-0.7,25.3-1.1,38
			c-0.1,3.6-1,7.3-0.6,10.8c1.2,11,2.3,22,2.3,33.1c0,10.6,1.7,21.1,0.7,31.7c-0.3,3.6-1.1,7.1-1.1,10.7c-0.2,14.5-0.2,29-0.1,43.5
			c0,5.4,0.3,10.8,0.6,16.9c4.1-0.4,7.7-0.7,11.3-1.2c5.4-0.7,10.7-1.9,16.1-2.3c6.3-0.5,12.6-0.2,18.8-0.6
			c7.3-0.5,14.5-1.5,21.7-2.3c1.9-0.2,3.8-0.9,5-1.2c0.3-7,0.7-13.2,0.9-19.4c0.1-1.4,0.2-3.8-0.4-4.1c-3.7-1.7-1.4-5.2-2.4-7.6
			c-5.5,0.3-10.7,0.7-15.9,1c-5.7,0.3-11.3,0.6-17,0.7c-1,0-2-0.9-2.2-1c0.2-7,0.5-13.2,0.3-19.4c-0.1-2.8,0.6-6.2-3-8
			c-0.6-0.3-0.8-2.5-0.3-3.2c1.3-2.1,2.3-4.3,5.6-4.9c5.1-0.9,10.1-2.9,15.1-4.6c3.3-1.1,4.7-3.7,4.4-7.1
			c-0.6-6.6-1.3-13.3-2.3-19.9c-0.5-3.3-2-4-5.1-3.6C937.8,472.4,932.5,473,926.3,473.8z"/>
		<path d="M637.6,395.4c3.2,4.4,3.2,9.3,3.2,14.4c0,15.4,0.5,30.7,0.7,46.1c0.1,6.2-0.3,12.3-0.4,18.5c0,3.4,0.3,6.8,0.4,10.2
			c0.1,8,1.2,16.3-0.2,24.1c-1.9,11.1,0.5,22.1-0.2,33.1c-0.7,11.1-0.1,22.3-0.1,33.5c0,4,0.3,8,0,12c-0.5,4.9-1.3,5.4-6.1,5.4
			c-6.3,0-12.5-0.2-18.8,0c-3.6,0.1-7.2,0.4-10.8,1c-1.2,0.2-2.2,1.4-3.8,2.5c-0.5-1.7-1-3-1.1-4.2c-0.5-10.5-0.8-21-1.3-31.6
			c0-1.2,0.1-2.5-0.2-3.6c-4.3-14.8-1.7-29.7-1.1-44.6c0.3-9.3,0.6-18.7,0.3-28c-0.6-15.8-1.9-31.5-2.4-47.3
			c-0.4-12.7-0.1-25.5-0.2-38.2c0-0.8,0.1-1.6,0.4-2.4c0.2-0.5,0.7-1,1.3-1.9c0.6,0.5,1.2,0.9,1.7,1.4c0.4,0.4,0.6,1,1,1.8
			c6.4,0,13.1-1.1,19.2,0.3C625.8,399.3,630.8,393.3,637.6,395.4z M636.8,584.6c-0.4-3.8-1-6.9-1-10.1c-0.1-4.6,0.3-9.2,0.3-13.8
			c0-12.4-0.2-24.8-0.3-37.2c0-3.2,0.5-6.4,0.8-9.7c0.3-3.4,0.8-6.9,0.7-10.3c-0.3-16.4-0.9-32.8-1.1-49.1
			c-0.2-12.1,0.1-24.3-0.1-36.4c-0.1-5.8-0.7-11.6-1-16.8c-4.7,0.3-8.9,0.7-13,0.6c-5.9-0.1-11.7-0.5-17.6-0.8
			c-2.4-0.1-3.9,0.7-3.8,3.4c0.1,5,0.2,10,0.3,14.9c0.4,14.4,0.8,28.7,1.1,43.1c0.1,3.4-0.3,6.9,0.1,10.3c0.9,8.4,2.3,16.8,1,25.3
			c-0.2,1.2,0,2.4,0.1,3.6c0.3,9.7,0.7,19.3,0.9,29c0.3,12.4,0.4,24.8,0.7,37.3c0.1,5.8,0.6,11.6,0.9,18.3c4.2-0.3,8-0.6,11.7-0.9
			c4.2-0.3,8.6-1.6,12.5-0.6C632.5,585.5,634.3,585.5,636.8,584.6z"/>
		<path d="M587.5,414.6c1.9,3.1,2,6,0.9,8.9c-0.7,2-2.3,2.1-3.8,0.8C580.6,420.9,581.7,416.7,587.5,414.6z"/>
		<path d="M647.2,442.6c5.6,0.8,7.4,3.1,6,7.2c-0.4,1-1.8,2.1-2.9,2.3c-1.7,0.3-3.4-0.5-3.4-2.5C646.8,447.4,647,445.2,647.2,442.6z
			"/>
		<path d="M925.8,603.6c0.1,4.7-1.4,7.7-4.2,8.2c-1,0.2-2.6-0.1-3.2-0.8c-0.5-0.6-0.3-2.4,0.2-3.2
			C920.2,605.3,922.3,603.1,925.8,603.6z"/>
		<path d="M892.1,610c1.8-1.4,3.1-2.8,4.7-3.6c0.8-0.4,2.5-0.1,3.1,0.5c1.3,1.3-0.3,5.8-2.7,7.2c-2.1,1.3-3.4-0.1-4.2-2
			C892.7,611.6,892.5,611,892.1,610z"/>
		<path d="M962.6,439.6c1.8,0.4,3.9,0.4,3.3,3.1c-0.6,3-3.3,5.7-5.5,5.5c-2.4-0.3-2.5-2.1-1.7-3.5C959.5,443,961,441.6,962.6,439.6z
			"/>
		<path d="M593.1,575.6c0.7,2.7,1.2,5.1,2,8.1c-3,0-5.2,0-7.9,0C588.3,580.2,587.9,576.9,593.1,575.6z"/>
		<path d="M577.9,541.8c-5.7-3-6-6.2-0.8-9.8C580.7,536.9,580.8,537.5,577.9,541.8z"/>
		<path d="M589,552.1c-4-4.1-4-4.6,0.3-9.4C593.9,546.9,593.9,547.7,589,552.1z"/>
		<path d="M587.2,435.3c2,0.1,3.1,1.3,2.8,3.1c-0.4,2.1-0.6,4.7-3.7,4.9c-2.1,0.1-2.7-1.3-2.7-3.2
			C583.7,437.2,585.2,435.3,587.2,435.3z"/>
		<path d="M574.5,479.4c2.7,1.8,3.2,4.1,2.8,6.5c-0.1,0.9-1.3,2.2-2.2,2.3c-0.8,0.1-2.3-0.7-2.8-1.5
			C570.6,483.9,571.4,481.4,574.5,479.4z"/>
		<path d="M591.5,604.1c-4.3-4.2-4.1-7.4-0.1-10.8C594.5,596.7,593.2,600,591.5,604.1z"/>
		<path d="M660.1,400.4c3.6,5.5,3.5,6.1-1.1,9.1C655.5,404.4,655.5,403.9,660.1,400.4z"/>
		<path d="M880.2,478.5c-3,1-5.5,0.9-6-1.8c-0.6-3.1,1.8-4.8,5.3-7.1C879.8,473.5,880,476.1,880.2,478.5z"/>
		<path d="M796.1,590.8c3.3,1.8,3.7,4.2,3.4,6.6c-0.1,0.8-1.7,1.9-2.8,2.1c-1.8,0.3-3.4-0.7-3-2.7
			C794.1,594.8,795.2,593,796.1,590.8z"/>
		<path d="M584,510.5c1.7-2.8,2.1-6.4,5.6-4.9c1.2,0.5,2.4,4.4,1.7,5.6C589.2,514.6,587,511.5,584,510.5z"/>
		<path d="M651,461.2c0.3,2.4,0.7,4.8,1,7.2c-3.2,1.4-5.1,0.7-5.9-1.8c-0.9-2.9,1.3-4.2,3.1-5.6C649.9,461,650.4,461.1,651,461.2z"
			/>
		<path d="M574.1,511.1c4.2,2.6,4.2,5.3,4,7.8c-0.1,0.9-1.3,1.7-2,2.5c-0.7-0.6-1.9-1.2-2-1.9C574,517,574.1,514.6,574.1,511.1z"/>
		<path d="M574.5,431.1c3.6,1.8,3.5,4.2,2.7,6.2c-0.4,1.1-2.4,2.2-3.6,2.1c-1.7-0.1-2.6-1.9-1.8-3.7
			C572.5,434.2,573.5,432.8,574.5,431.1z"/>
		<path d="M609.4,614.6c-1.4,1.9-2.7,3.8-4.1,5.6c-2.9-1.2-4.2-2.8-2.8-5.4C603.7,612.7,606.2,612.6,609.4,614.6z"/>
		<path d="M938,521.2c-0.9-6.1-0.1-7.1,5.4-7.2C943.5,518.7,943,519.4,938,521.2z"/>
		<path d="M659.8,556.9c3.4,2.8,5.2,4.7,3.3,7.6c-0.5,0.8-2,1.6-2.8,1.4c-0.9-0.2-2.1-1.6-2-2.4
			C658.3,561.6,659.1,559.8,659.8,556.9z"/>
		<path d="M783.8,588.3c-2.7,0.6-3.6-1.2-3.9-3.3c-0.3-2.9,2.2-3.4,3.8-4.8C785.8,583.5,785.8,583.5,783.8,588.3z"/>
		<path d="M690.1,603.3c-0.1-4.4,1.8-6.6,5.4-7.7C696.8,600.3,695.5,602.2,690.1,603.3z"/>
		<path d="M796.9,573.2c3.3,5.7,2.7,7.1-3.3,8.2C793.1,578,794,575.4,796.9,573.2z"/>
		<path d="M781.8,619.2c-2.1-4.2-1.5-5.6,3.3-8.3C787.5,615,787.5,615,781.8,619.2z"/>
		<path d="M878.3,410.1c2.7,5.8,2.2,7.5-2.8,9.6C874.7,416.2,875.2,413.2,878.3,410.1z"/>
		<path d="M880.9,437.7c-2.2-1.3-3.9-2.4-6.3-3.8c1.1-1.5,2.3-3.1,3.5-4.6C881.8,431.8,881.8,432,880.9,437.7z"/>
		<path d="M946.1,448.4c-0.5-4-0.4-7,3.9-7.9C952.6,444.2,951.7,446.4,946.1,448.4z"/>
		<path d="M784.1,599c2.6,3.6,2.5,4.1-1,8.1C779.1,603.2,779.2,602.7,784.1,599z"/>
		<path d="M783.2,546.8c2.9,2.1,4.2,3.9,3,6.5c-0.4,0.9-1.8,2.3-2.2,2.2c-1.1-0.4-2.8-1.7-2.7-2.5
			C781.4,551.1,782.4,549.2,783.2,546.8z"/>
		<path d="M651.4,608.1c-5.4-1.6-5.5-4.2-1-8.1C653.6,602.4,650.6,605.4,651.4,608.1z"/>
		<path d="M879.9,513.6c-0.8,2.4-1.4,4.2-2.2,6.8c-2.2-1-4-1.8-6-2.7C875,513.6,875,513.6,879.9,513.6z"/>
		<path d="M677.5,618.6c-0.1-2-0.5-3.2-0.1-4.3c0.4-1.2,1.3-2.9,2.2-3.1c1-0.1,2.9,1.1,3.1,2c0.3,1.2-0.2,3-1,4.1
			C681.1,618.2,679.5,618.1,677.5,618.6z"/>
		<path d="M877.5,493.4c2.1,6.5,1.9,6.8-3.7,7.8C873.3,496.4,873.3,496.4,877.5,493.4z"/>
		<path d="M575.3,416.1c2.6,2.5,2.7,5.1,1.4,7.7c-2.8,0.9-4.3-0.6-5-2.5C571,418.8,572.7,417.2,575.3,416.1z"/>
		<path d="M877.9,392.9c4.1,2.3,5.3,4.4,2.6,8c-1.6-0.6-3.4-1.2-5.9-2C875.7,396.9,876.7,395.1,877.9,392.9z"/>
		<path d="M777.2,532.7c1.5-2.3,2.9-4.1,5.3-1.7c1.7,1.7,1,3.8-2.2,6.5C779.3,535.9,778.2,534.3,777.2,532.7z"/>
		<path d="M573.4,464.6c2.8,2.7,4.1,5,0.9,7.7C568.9,468.7,568.7,467.9,573.4,464.6z"/>
		<path d="M660.8,478.3c3,2.4,2.3,4.9,0.9,7.1c-0.5,0.7-2.5,0.6-3.7,0.3c-0.4-0.1-0.8-2.2-0.4-3
			C658.3,481.1,659.6,479.8,660.8,478.3z"/>
		<path d="M873.2,584.9c1.5-1.9,2.6-3.2,3.7-4.5c3.3,2.9,4.2,5.1,2.5,6.5C876.9,588.9,875.6,586.6,873.2,584.9z"/>
		<path d="M937.5,587.9c1.6,4.5-0.6,6.3-3.6,8C931.4,591.4,931.6,591,937.5,587.9z"/>
		<path d="M649.1,422c3.9,3.9,3.3,7.2,2.3,11.4C647.3,429.9,648,426.6,649.1,422z"/>
		<path d="M648,400.1c1,4.3,1.7,7.1,2.6,10.6c-1.3-0.2-3.2-0.1-3.4-0.7C645.9,407.2,644.8,404.1,648,400.1z"/>
		<path d="M907.2,615.6c-0.2-4.1-0.9-7.5,3.5-8.9C912.2,611.5,911.7,612.9,907.2,615.6z"/>
		<path d="M587.5,489.4c0.3,1.8,0.9,3.7,0.8,5.5c0,0.7-1.9,2.1-2.3,1.9c-1.1-0.5-2.5-1.8-2.4-2.6c0.2-1.6,1.3-3.2,2-4.8
			C586.2,489.4,586.8,489.4,587.5,489.4z"/>
		<path d="M662.2,446.3c0.4,3-0.2,4.5-2.2,4.2c-1.1-0.2-2.4-1.4-2.8-2.5c-0.6-1.6,1.8-4.7,3.1-4.2
			C661.3,444.3,661.9,446,662.2,446.3z"/>
		<path d="M880.3,609.4c2.6,2.4,2.3,4.7,1.5,6.6c-0.4,0.9-2.2,1.1-3.3,1.6c-0.3-1-1.1-2.2-0.9-3.1
			C878.1,612.9,879.2,611.5,880.3,609.4z"/>
		<path d="M880.9,537.7c-1.6-0.3-2.9-0.5-4.6-0.8c0.6-1.8,0.8-3.4,1.6-4.7c0.5-0.8,1.8-1.1,2.8-1.6c0.5,1,1.4,2,1.4,3
			C882,534.9,881.4,536.2,880.9,537.7z"/>
		<path d="M799,549.6c-6-2.9-6.3-5.5-1.7-9.8C797.9,543.1,798.3,545.8,799,549.6z"/>
		<path d="M578.4,604.6c1.7,3.7,1.1,6.2-1.1,8.6C574.2,609.4,574.3,608.9,578.4,604.6z"/>
		<path d="M663.6,577.4c-0.2,1.8-0.2,3.8-0.9,5.4c-0.3,0.7-2.2,0.7-3.4,1.1c-0.3-1-1.1-2.3-0.7-3.1c0.8-1.5,2.1-2.8,3.2-4.2
			C662.4,576.9,663,577.2,663.6,577.4z"/>
		<path d="M663.6,595.1c0.1,2.2,0.3,4.4,0.3,6.6c0,0.5-1.1,1.3-1.6,1.3c-0.6,0-1.7-0.6-1.7-1.2c-0.5-2.5-1.1-5.1,1.3-6.9
			C662.4,595,663,595.1,663.6,595.1z"/>
		<path d="M660.7,534.8c2.4,2.3,4.7,4.1,2.2,6.9c-0.6,0.7-3,0.9-3.6,0.3C656.8,539.4,659,537.4,660.7,534.8z"/>
		<path d="M692.2,620.7c-1.2-0.7-2.9-1.1-3.4-2c-0.8-1.7,1-3.8,4.1-5c0.2,2,0.3,3.9,0.5,5.8C693,619.8,692.6,620.2,692.2,620.7z"/>
		<path d="M934.6,451c-1-3.8,0-5.9,3.1-7.2C939.7,447.4,939.3,448.5,934.6,451z"/>
		<path d="M910,597.1c-2-5.4-1.8-5.8,3.2-8.2C913.8,592.2,913,594.7,910,597.1z"/>
		<path d="M922.8,596.3c-0.4-0.7-1.3-1.6-1.4-2.6c-0.2-2.1,2-5,3.7-4.7c0.7,0.1,1.8,1.6,1.7,2.4C926.5,593.5,926.4,596,922.8,596.3z
			"/>
		<path d="M817.3,604.4c0.3,1.9,0.9,3.4,0.5,4.6c-0.3,1.1-1.7,1.8-2.6,2.7c-0.8-1-2-2-2.3-3.1C812.4,607,813.2,606.4,817.3,604.4z"
			/>
		<path d="M587.5,616.2c1.2-1.7,2.4-3.4,3.9-5.4c2.1,2.2,3.1,4.3,1.6,6.2c-0.8,0.9-3,0.7-4.6,1C588.1,617.5,587.8,616.9,587.5,616.2
			z"/>
		<path d="M785,564.8c0.3,1.8,0.8,3.5,0.7,5.3c-0.1,0.7-1.8,1.8-2.6,1.6c-0.8-0.1-2-1.6-1.9-2.4c0.2-1.6,1.1-3.1,1.8-4.6
			C783.6,564.7,784.3,564.7,785,564.8z"/>
		<path d="M879.8,450.4c1,2,1.8,3,1.9,4.1c0.1,1-0.1,2.4-0.8,3.1c-0.4,0.5-2.2,0.5-2.6,0.1c-0.8-0.9-1.8-2.4-1.6-3.4
			C877,453.1,878.4,452.2,879.8,450.4z"/>
		<path d="M682,601.5c-2.3,2.2-3.6,3.5-5.2,5.1c-2.3-2.7-2-4.9,0-6.4C677.5,599.6,679.5,600.8,682,601.5z"/>
		<path d="M661.6,517.3c2.6,3.5,2.6,3.5-0.8,6.7C657.4,520.9,657.4,520.9,661.6,517.3z"/>
		<path d="M594.1,525.5c-1.7,1.5-2.7,2.4-3.8,3.3c-0.7-1.2-2-2.4-2-3.7c-0.1-0.9,1.4-2,2.1-3C591.5,523,592.5,523.9,594.1,525.5z"/>
		<path d="M574.4,506.1c-1.3-2.4-2.4-3.5-2.2-4.4c0.2-1.3,1.4-2.5,2.1-3.7c0.9,1.1,2.4,2.1,2.6,3.3
			C577.1,502.3,575.8,503.6,574.4,506.1z"/>
		<path d="M646.6,487.6c0.6-3,1.1-5.5,1.7-8.5C652.4,483.1,651.9,485.8,646.6,487.6z"/>
		<path d="M583.4,460.4c0.3-1.4,0.1-2.9,0.7-3.5c1-1,2.5-1.4,3.9-1.8c0.3-0.1,1.5,1.8,1.3,2.3c-0.6,1.3-1.6,2.6-2.7,3.4
			C586.1,461.2,584.8,460.6,583.4,460.4z"/>
		<path d="M658.1,423.8c1.1,0.6,1.7,0.8,2.1,1.2c2,1.9,0.6,3.7-0.3,5.4c-0.2,0.4-2,0.5-2,0.4c-0.4-1.4-0.8-2.9-0.9-4.4
			C656.9,425.7,657.5,425,658.1,423.8z"/>
		<path d="M575.6,449c0.6,3,1,5,1.4,6.9c-1.9,1.9-3.1,1.3-4.1-0.4C571.6,453.3,572,452.3,575.6,449z"/>
		<path d="M651.7,612.5c1.8,2.7,2.2,4.8,0.2,6.9C646.8,616.6,646.8,616,651.7,612.5z"/>
		<path d="M660.3,461.2c0.7,1.9,1.2,2.8,1.2,3.7c0,1.1-0.3,2.3-0.9,3.2c-0.3,0.4-2.2,0.2-2.5-0.3c-0.7-1-1.2-2.5-0.9-3.7
			C657.4,463.2,658.7,462.5,660.3,461.2z"/>
		<path d="M878.9,594c2,2,3,3.9,0.9,5.9c-0.5,0.5-2.5,0.2-2.9-0.4C875.4,597.3,876.1,595.4,878.9,594z"/>
		<path d="M831.3,593.3c0.4,1.5,1,2.4,0.8,3.2c-0.3,1.2-1,2.3-1.7,3.3c-0.2,0.2-1.9-0.2-2-0.6c-0.3-1.2-0.6-2.7-0.2-3.8
			C828.5,594.5,829.9,594.1,831.3,593.3z"/>
		<path d="M813.2,594.3c-0.2,2.3,0,3.6-0.4,4.5c-0.4,1-1.2,1.9-2.1,2.4c-0.3,0.2-1.8-0.4-1.9-0.9c-0.3-1.1-0.6-2.6,0-3.3
			C809.6,596,811.1,595.6,813.2,594.3z"/>
		<path d="M650,575.8c3.7,4.1,3.7,4.8,0,7.4C647.4,581,648.3,578.7,650,575.8z"/>
		<path d="M587,566.8c0.7-2,0.8-3.1,1.3-3.8c0.6-0.8,1.6-1.6,2.5-2c0.4-0.1,1.6,0.8,1.7,1.3c0.1,1.1,0,2.8-0.7,3.3
			C590.9,566.4,589.2,566.3,587,566.8z"/>
		<path d="M730.1,526.4c-1.9-2.9-2-5.4-0.6-8.1C734.4,522.5,734.4,522.6,730.1,526.4z"/>
		<path d="M653.9,521.5c-1.7,1.6-2.8,2.8-4.2,3.7c-0.2,0.2-2.3-1.8-2.2-2c0.9-1.4,2-2.8,3.2-3.8
			C650.9,519.1,652.3,520.4,653.9,521.5z"/>
		<path d="M865.2,608c1.7,2.6,2,4.8-0.6,6.4c-0.5,0.3-1.9,0-2.1-0.4C860.9,611.2,862.5,609.5,865.2,608z"/>
		<path d="M797,524.7c0.6,2.4,1.3,3.9,1.3,5.3c0,2-1.6,3-3.3,2.1c-0.8-0.4-1.4-2.3-1.2-3.3C794.1,527.6,795.4,526.7,797,524.7z"/>
		<path d="M947.3,450.6c3,5.2,2.3,6.9-3,8.1C945.3,455.8,946.2,453.5,947.3,450.6z"/>
		<path d="M745.7,544.7c0.6-2,1.2-3.8,1.8-6c2.8,1,3.2,2.8,2.7,4.8C749.7,545.7,748,545.4,745.7,544.7z"/>
		<path d="M878.7,573.8c-2.2-2.2-3.7-4-1.2-6.3c0.5-0.4,2.1-0.4,2.5,0.1C881.8,569.6,881.2,571.5,878.7,573.8z"/>
		<path d="M580.1,588c0.6,3.3,2.3,5.6-0.8,6.9c-0.7,0.3-2.4-0.3-2.6-0.9C575.5,591.3,577.7,590.3,580.1,588z"/>
		<path d="M863.8,594c0.9,2.7,0.5,4.9-1.7,6.8C859,597.2,859.4,595.9,863.8,594z"/>
		<path d="M651.3,536.5c0.4,2.1,0.7,2.9,0.6,3.6c-0.3,1.5-0.8,2.9-1.4,4.3c-0.1,0.2-1.5,0-1.6-0.1c-0.2-1.7-0.5-3.4-0.3-5
			C648.7,538.5,649.8,537.9,651.3,536.5z"/>
		<path d="M893.6,600.1c-0.6-0.5-0.8-0.5-0.8-0.7c-0.6-2.3-0.7-4.4,1.9-5.5c0.5-0.2,1.8,0.4,1.9,0.9
			C897.2,597.2,896.2,599,893.6,600.1z"/>
		<path d="M834.6,607.8c-1.7,1.3-2.6,2.5-3.9,2.9c-0.4,0.1-2.3-1.8-2.1-2.5c0.3-1.2,1.6-2.2,2.5-3.4
			C832.1,605.6,833,606.4,834.6,607.8z"/>
		<path d="M798.6,508.4c-0.5,2.1-0.7,4-1.5,5.6c-0.2,0.4-2.3-0.2-4-0.3C794.1,510.7,794.6,508.5,798.6,508.4z"/>
		<path d="M661.1,500.1c2.1,1.9,2.7,3.9,0.7,5.7c-0.5,0.5-3-0.1-3.4-0.8C656.8,502.2,659.2,501.3,661.1,500.1z"/>
		<path d="M934.3,611.6c-4-3.2-4-3.4-0.8-6.8C935.4,606.8,935.6,608.8,934.3,611.6z"/>
		<path d="M799.8,608.5c1.4,3.2,1.6,5.7-2.3,7.5C796.9,612.9,795.6,610.1,799.8,608.5z"/>
		<path d="M592.2,473.6c-2.4,1.1-3.7,2.2-4.5,1.9c-0.9-0.3-1.8-1.9-1.9-3c-0.1-0.7,1.6-2.2,2-2.1C589,470.9,590,472,592.2,473.6z"/>
		<path d="M647.7,498c4.1,3.4,4,3.6-0.9,8.3C647.1,503.1,647.4,500.8,647.7,498z"/>
		<path d="M739.8,528.6c3.2,2.5,3.9,4.2,2.1,6c-0.5,0.5-2,0-3.1,0C739.1,532.8,739.4,531.1,739.8,528.6z"/>
		<path d="M878.8,548.7c2.2,1.6,3,3.3,1.2,5.1c-0.5,0.5-2.5,0.3-2.9-0.3C875.3,551.6,876.6,550.1,878.8,548.7z"/>
		<path d="M649.7,558.7c2.8,1.1,3.7,2.8,2.6,4.9c-0.3,0.6-2.5,0.9-3.1,0.5C647.5,562.4,647.8,560.5,649.7,558.7z"/>
		<path d="M797.1,561.1c2.9,3.6,2.8,3.7-2.1,5.1C794.1,563.9,794.7,562.2,797.1,561.1z"/>
		<path d="M663.9,618.7c1.5-2.7,2.5-4.5,3.7-6.7C669.6,617.4,669.4,617.7,663.9,618.7z"/>
		<path d="M603.9,603.2c0.2-2,0.4-3.7,0.6-5.4c2.9-0.2,3.5,1.3,3.4,2.9C607.8,602.7,606.4,603.3,603.9,603.2z"/>
		<path d="M622.2,602.7c-1.3-2.5-1.3-4.3,1-5.5c0.5-0.2,1.9,0.2,2.1,0.7C626.2,600.3,624.9,601.6,622.2,602.7z"/>
		<path d="M729.4,531.8c2.4,4.4,2.4,4.4,0.1,6.7C726.9,536.8,728.8,534.9,729.4,531.8z"/>
		<path d="M936.4,454.9c2.9,3,2.9,4.8,1.2,6.4c-0.3,0.3-2.1-0.2-2.1-0.3C935.7,459.3,936,457.6,936.4,454.9z"/>
		<path d="M736.9,545.5c2,1,3.4,2.2,1.7,4.5c-0.3,0.4-1.7,0.7-2,0.4C734.8,548.8,734.7,547.1,736.9,545.5z"/>
		<path d="M620.7,610.8c1.2,2.4,1.2,4.3-3.6,5.2c0.8-2.4,1.4-4.1,1.9-5.8C619.6,610.4,620.1,610.6,620.7,610.8z"/>
		<path fill="#A6FF1A" d="M813.5,587.2c-0.4-13-0.9-25.1-1.2-37.2c-0.1-5.6,0.2-11.3,0.3-17c0.1-13.5,0.2-27,0-40.5
			c-0.1-3.8-1.2-7.5-2.2-11.2c-0.6-2.3-2.7-2.8-4.8-1.5c-0.9,0.5-1.7,1.1-2.4,1.8c-5.8,6.4-12.2,12.2-17.2,19.4
			c-5,7.3-11.2,13.8-16.9,20.6c-2.9,3.4-5.8,6.7-9.2,10.6c-13.4-13.7-26.5-27.3-39.7-40.9c-5.3,0.6-5.5,0.6-5.4,5.2
			c0.1,12.1,0.7,24.3,0.6,36.4c-0.2,14.4-0.8,28.8-1.4,43.2c-0.1,2.4-0.9,4.7-1.4,7.3c-12.6,1.1-24.6,4.3-37.3,2.9
			c0-6.9,0.1-13.5,0-20.1c-0.1-13.3-0.6-26.7-0.5-40c0.1-9.9,1-19.8,1.1-29.7c0.1-14.4-0.3-28.8-0.5-43.2c-0.1-4.5-0.4-8.9-0.5-13.4
			c-0.4-10.7-0.9-21.5-1.2-32.2c-0.1-2.1,0.4-4.2,0.6-6.6c2-0.1,3.4-0.2,4.8-0.3c9.1-0.6,18.2-1.1,27.2-2c5.4-0.5,9.2,0.4,12.7,5.6
			c8.9,13.1,18.7,25.5,28.1,38.2c3.1,4.2,6.1,8.7,9.3,12.9c1.4,1.9,3.1,3.7,5.1,5c3.5,2.5,4.8,1.9,7.3-1.7c1.4-2.1,3.3-3.9,4.9-5.9
			c6.2-7.9,12.3-15.9,18.5-23.9c7.5-9.8,15-19.6,22.6-29.3c2-2.5,5.1-2.5,7.8-2.3c9.2,0.9,18.1,0,27.2-1.4c3.1-0.5,6.4-0.1,9.6-0.1
			c0,10.5-0.1,20.8,0,31.1c0,5.8,0.4,11.6,0.5,17.5c0.1,4.6,0.1,9.2,0.1,13.9c0,10.8,0,21.5,0,32.3c0,2.2,0.5,4.4,0.5,6.6
			c0,16,0.2,32.1,0,48.1c-0.2,11.3-1,22.6-1.6,34.3c-6,2.9-12.7,2.6-19.3,2.9c-5.2,0.2-10.3,0.2-15.2,2.9
			C821.3,587.1,817.5,586.7,813.5,587.2z"/>
		<path fill="#A6FF1A" d="M926.3,473.8c6.2-0.8,11.5-1.4,16.8-2.2c3.1-0.5,4.7,0.3,5.1,3.6c0.9,6.6,1.6,13.2,2.3,19.9
			c0.3,3.4-1.1,6-4.4,7.1c-5,1.7-9.9,3.7-15.1,4.6c-3.3,0.6-4.3,2.7-5.6,4.9c-0.5,0.8-0.2,3,0.3,3.2c3.6,1.8,2.9,5.2,3,8
			c0.2,6.2-0.2,12.5-0.3,19.4c0.2,0.1,1.2,1,2.2,1c5.7-0.1,11.3-0.4,17-0.7c5.2-0.3,10.4-0.6,15.9-1c1,2.4-1.3,5.9,2.4,7.6
			c0.6,0.3,0.5,2.7,0.4,4.1c-0.2,6.2-0.6,12.4-0.9,19.4c-1.2,0.3-3.1,1-5,1.2c-7.2,0.9-14.5,1.8-21.7,2.3
			c-6.3,0.5-12.6,0.1-18.8,0.6c-5.4,0.4-10.7,1.6-16.1,2.3c-3.5,0.5-7.1,0.8-11.3,1.2c-0.2-6.1-0.5-11.5-0.6-16.9
			c0-14.5,0-29,0.1-43.5c0-3.6,0.8-7.1,1.1-10.7c1-10.6-0.7-21.2-0.7-31.7c0-11.1-1-22.1-2.3-33.1c-0.4-3.5,0.5-7.2,0.6-10.8
			c0.4-12.7,0.7-25.3,1.1-38c5.6-0.6,10.5-1.2,15.5-1.8c7.6-0.8,15.2-1.6,22.8-2.4c4.2-0.5,8.2,0.6,12.5,0.3
			c8.5-0.6,16.5-3.2,25.4-3.8c2.2,6.6,5,12.9,4,20.2c-0.4,2.9,0.4,6,0.9,9c0.5,3-0.6,5.2-3.3,6.5c-4.9,2.3-9.7,4.8-15.3,5.5
			c-6.6,0.8-13,2.7-19.6,4c-1.8,0.4-3.6,0.5-5.4,0.7c-3.6,0.3-5.4,3-4.7,6.5c0.4,2.2,0.6,4.4,0.7,6.6
			C925.7,455.5,926,464,926.3,473.8z"/>
		<g>
			<path d="M580.6,556.3c-5.9-1.6-6.3-6.1-7.4-9.1c-4.8-0.3-9-0.9-13.2-0.8c-17.2,0.3-34.5-0.2-51.6-2.5c-3.5-0.5-4.2-1-4-4.6
				c0.1-2.6,0.8-5.3,0.7-7.9c-0.7-16.5-1.7-33-2.5-49.6c-0.4-7.6-0.8-15.3-0.9-22.9c-0.3-12.4-0.4-24.8-0.5-37.3
				c0-5.2,0.1-10.4,0.2-15.6c0-2-0.5-3.7-2.9-3.9c-5.8-0.5-11.7-1.4-17.5-1.2c-7.6,0.3-15.2,1.7-22.9,0.1c-2.3-0.5-4.8,0.5-6.8,0.7
				c0.9,4,2,6.5,2.1,9c0.5,10.3,0.8,20.7,0.9,31c0.1,22.3,0.1,44.6,0.1,67c0,5-0.2,10-0.3,15c-0.1,2.6-0.2,5.2-0.2,7.7
				c-0.2,7.6-0.2,15.2-0.5,22.8c-0.4,9.9-1.1,19.8-1.4,29.7c-0.1,5.5,1.9,7.8,7.2,8.1c11.7,0.6,23.5,1,35.2,1.3c7.7,0.2,15.3,0,23,0
				c13.8,0.1,27.6,0.2,41.3,0.2c2.8,0,5.7-0.2,8.5-0.4c6-0.4,7.5-1.9,8-7.7c0.1-1.5,0.3-3.1,0.4-3.5c-0.6,0.4,2.8-8.7,2.1-7.9
				c-0.4-3.4-0.7-6.2-1.1-9C576,561.8,575.7,558.6,580.6,556.3z M555.1,588.1c-4.6,0.4-8.8-0.1-13-1.3c-3.9-1.1-7.8-1.6-11.9-1.5
				c-5.6,0.2-11.2-0.3-16.9-0.2c-3.8,0.1-7.6,0.8-11.4,1c-3.6,0.2-7.2-0.1-10.8-0.1c-10,0-20,0.1-30,0.2c-0.6,0-1.1-0.2-2.5-0.5
				c0-14.7,0.1-29.5,0-44.2c-0.1-14.8-0.7-29.7-0.6-44.5c0.2-14.8,1.3-29.6,1.5-44.5c0.3-14.9,0.1-29.8,0.1-45.1
				c7.5,1.8,13.9,0.9,20.3,0c3.5-0.5,7.1-0.9,10.7-1c3.2,0,4.6,2.2,4.7,5.2c0.4,11.5,0.9,23,1.3,34.6c0.4,12.4,0.9,24.7,1.2,37.1
				c0.3,10.3,0.1,20.6,0.5,30.9c0.3,6.9,1.4,13.7,1.9,20.5c0.3,3.8,0,7.6,0,12.1c2,0.5,4,1.2,6.1,1.4c11.7,0.9,23.4,1.7,35.1,2.4
				c7.5,0.5,15,0.9,22.4,1.5c2,0.2,3.9,0.8,6.3,1.2c0.4,11.6,0.7,22.9,1.1,34.9C565.5,584.9,560.2,587.6,555.1,588.1z"/>
			<path d="M501.6,615.7c1.9-1.6,4.2-4.8,6-4.5c4,0.6,2.1,4.9,2.6,7.6c0.2,1.2-0.6,3.5-1.6,4c-1.8,0.9-3.3-0.4-4.2-2.3
				C503.7,619.1,502.8,617.8,501.6,615.7z"/>
			<path d="M429.8,503.3c0,2.9-1.4,4.7-3.5,4.7c-2.7,0-4.3-1.8-4.2-4.7c0.1-2.9,1.9-4.9,4.2-4.8
				C428.4,498.5,429.8,500.5,429.8,503.3z"/>
			<path d="M427,600c-0.1,2-0.3,4.2-3.3,4.5c-2.7,0.3-4.6-1.9-4.6-5.1c0-2.1,2.3-4.6,4.1-4.4C425.1,595,426.9,597.3,427,600z"/>
			<path d="M487.8,619.7c1.5-3.3,2.3-5.4,3.4-7.2c0.4-0.7,1.7-1.3,2.4-1.2c0.8,0.1,1.7,1.2,1.9,2c0.3,1.1,0.2,2.4,0,3.6
				c-0.3,1.5-0.8,3.8-1.6,4C492.2,621.2,490.4,620.3,487.8,619.7z"/>
			<path d="M520.7,618.1c0.2-3.7,3-4.7,5.2-6.2c3.7,4.2,3.7,5.2,0.4,10.1C524.4,620.7,522.5,619.4,520.7,618.1z"/>
			<path d="M430.7,435c0.4,2,1.1,4,1,5.9c-0.1,1.1-1.2,2.7-2.2,3.1c-1,0.3-2.9-0.4-3.5-1.3c-0.8-1.1-1.2-3.1-0.7-4.3
				c0.6-1.5,2.3-2.5,3.6-3.7C429.5,434.8,430.1,434.9,430.7,435z"/>
			<path d="M443.7,497.9c3.8,2.3,1.8,5.6,1.7,8.5c-2.5,0.9-4.7,1.8-5.9-1.1C438.4,502.7,440.1,499.9,443.7,497.9z"/>
			<path d="M423.5,518.5c2.8-0.3,3.9,1,3.9,3c0,1.9-0.4,3.9-1.1,5.6c-0.2,0.5-2.4,0.8-3.1,0.3c-1-0.6-2.1-2.2-1.9-3.2
				C421.6,522.4,422.7,520.6,423.5,518.5z"/>
			<path d="M427.2,616.8c0.1,3.1-2.2,5.4-4.3,5.2c-2.2-0.2-3.2-1.4-3.2-3.6c0-2.4,2-5.2,3.7-4.6
				C425.1,614.3,426.3,616.1,427.2,616.8z"/>
			<path d="M422.1,557.9c5.4,3.1,6.3,5.4,4,8.5c-0.6,0.8-2,1.6-2.9,1.5c-0.9-0.1-2.1-1.5-2.1-2.4C421.1,563.3,421.7,561,422.1,557.9
				z"/>
			<path d="M456.2,613.3c0.4,1,1.4,2.5,1.6,4c0.2,2.3-2.3,4.5-4.7,4.3c-1.8-0.1-2.8-1.2-2.7-3.2
				C450.6,615.6,452.9,613.1,456.2,613.3z"/>
			<path d="M443.2,453.5c3.2,2.8,2.7,5.5,2,8.2c-3.8,1.4-5.3-1-7.4-3.9C439.9,456.2,441.6,454.8,443.2,453.5z"/>
			<path d="M429.3,480.1c-1.4,1.5-2.5,2.7-3.6,3.9c-0.9-1.1-2.4-2.2-2.6-3.4c-0.4-1.7,0.1-3.7,0.4-5.5c0-0.2,2.2-0.5,2.6-0.1
				C427.3,476.3,428.1,478,429.3,480.1z"/>
			<path d="M445.7,525.3c-1.7,1.6-2.7,3.6-3.9,3.7c-2.4,0.2-3.3-1.8-3.3-4.1c0-2.5,1.8-4.9,3.2-4.1
				C443.2,521.5,444.1,523.4,445.7,525.3z"/>
			<path d="M441.6,475c3.8,2.8,3.2,5.6,2.2,8.2c-0.3,0.8-2.4,1.6-3.3,1.3c-0.9-0.3-2.1-2.2-1.9-3C439.1,479.4,440.4,477.6,441.6,475
				z"/>
			<path d="M444.2,565.2c-3.6,1.2-3.6,1.2-7.1-5.7c1.7-0.4,3.5-1.5,4.7-1C444.8,559.7,444.1,562.7,444.2,565.2z"/>
			<path d="M422.2,458.2c1.5-1.2,2.5-1.8,3.3-2.6c1.4-1.4,3.1-1.7,4.1-0.2c0.7,1.1,0.6,3.3-0.1,4.3c-0.7,1-2.7,1.9-4,1.7
				C424.4,461.2,423.4,459.5,422.2,458.2z"/>
			<path d="M428.1,428.7c-3.2-3-2.3-6-1.7-9.2C431.5,420.9,432.1,424.4,428.1,428.7z"/>
			<path d="M441.7,604.5c-3.2,0.9-5.1,0.4-5.8-2.4c-0.4-1.8-0.7-3.9,1.6-4.6c2.4-0.7,3.2,1,3.5,3
				C441.2,601.7,441.4,602.8,441.7,604.5z"/>
			<path d="M544,608.3c-3.3-5.5-2.9-6.7,2.5-8.4C547.5,603.1,548,606.1,544,608.3z"/>
			<path d="M474,600c2.1,2.6,4.9,4.3,1.9,7.1c-0.6,0.6-2.6,0.7-3.2,0.2C469.9,604.7,472.3,602.7,474,600z"/>
			<path d="M528.6,598.1c0.5,2.5,1.1,4.3,1.1,6.2c0,0.9-1.2,2.4-2,2.5c-0.8,0.1-2.5-0.9-2.7-1.7
				C524.4,602.6,524.1,599.9,528.6,598.1z"/>
			<path d="M426.8,575.5c2.9,1.4,3.3,3.5,2,5.6c-0.5,0.9-2.2,1.1-3.4,1.6c-0.5-1.2-1.5-2.5-1.2-3.4
				C424.6,577.8,425.9,576.7,426.8,575.5z"/>
			<path d="M444.1,426.4c-5.1-1.7-5.3-2.4-2.5-6.7C446.3,421.7,446.3,421.7,444.1,426.4z"/>
			<path d="M439.8,437.2c1.5,0.5,2.3,0.7,3,1.1c2.3,1.1,1.6,3,1.1,4.7c-0.2,0.7-1.4,1-2.1,1.6c-0.8-1.2-1.9-2.4-2.4-3.7
				C439.1,440,439.6,438.9,439.8,437.2z"/>
			<path d="M439.5,576c0.5,0.2,0.9,0.3,1.2,0.5c2.4,2.2,1.3,4.4-0.3,6.3c-0.4,0.4-2.1,0.4-2.6,0c-1.9-1.9-1.2-4,0.4-5.8
				C438.5,576.5,439.1,576.3,439.5,576z"/>
			<path d="M488.1,598.3c3.3,1.1,5.8,1.8,4.8,4.8c-1.1,3-3.6,1.5-6.5,1.5C487.1,602.2,487.6,600.4,488.1,598.3z"/>
			<path d="M452.1,606.1c1.4-2.1,2.2-3.9,3.6-4.9c0.7-0.5,2.5,0.7,4.7,1.4C457.9,605.3,456.8,607.8,452.1,606.1z"/>
			<path d="M423.9,544.6c0-2.1-1.6-4.9,1.9-5.8c2-0.5,3,1.2,2.9,3C428.6,544.5,427,545.6,423.9,544.6z"/>
			<path d="M471.8,614.4c2.4,0.6,4.7,1.1,3.3,3.9c-0.5,1-2.6,2.2-3.2,1.9C469.3,618.8,470.3,616.7,471.8,614.4z"/>
			<path d="M444.1,543.5c-1.4,1.2-2.4,2.3-2.6,2.2c-1.4-0.9-2.5-2-3.8-3.1c0.8-0.8,1.9-2.4,2.2-2.2
				C441.3,541,442.5,542.2,444.1,543.5z"/>
			<path d="M508.5,599.3c0.4,1.4,0.8,2.2,0.7,2.9c-0.2,1.2-0.6,2.4-1,3.6c-1-0.4-2.2-0.5-2.9-1.2c-1.3-1.3-1.1-2.9,0.4-4.1
				C506.3,600,507.1,599.9,508.5,599.3z"/>
			<path d="M434.2,619.4c1.7-2.5,3.6-3.6,5.9-1.5c0.4,0.4,0.1,2.5-0.5,3C437.4,622.8,435.7,621.6,434.2,619.4z"/>
			<path d="M544.1,615.5c-0.1,1.1-0.1,2.2-0.3,3.2c0,0.1-1,0.2-1,0.2c-0.3-1.1-0.5-2.1-0.8-3.2C542.7,615.6,543.4,615.6,544.1,615.5
				z"/>
			<path fill="#A6FF1A" d="M571.3,588.5c-5.8-3.6-11.1-0.9-16.2-0.4c-4.6,0.4-8.8-0.1-13-1.3c-3.9-1.1-7.8-1.6-11.9-1.5
				c-5.6,0.2-11.2-0.3-16.9-0.2c-3.8,0.1-7.6,0.8-11.4,1c-3.6,0.2-7.2-0.1-10.8-0.1c-10,0-20,0.1-30,0.2c-0.6,0-1.1-0.2-2.5-0.5
				c0-14.7,0.1-29.5,0-44.2c-0.1-14.8-0.7-29.7-0.6-44.5c0.2-14.8,1.3-29.6,1.5-44.5c0.3-14.9,0.1-29.8,0.1-45.1
				c7.5,1.8,13.9,0.9,20.3,0c3.5-0.5,7.1-0.9,10.7-1c3.2,0,4.6,2.2,4.7,5.2c0.4,11.5,0.9,23,1.3,34.6c0.4,12.4,0.9,24.7,1.2,37.1
				c0.3,10.3,0.1,20.6,0.5,30.9c0.3,6.9,1.4,13.7,1.9,20.5c0.3,3.8,0,7.6,0,12.1c2,0.5,4,1.2,6.1,1.4c11.7,0.9,23.4,1.7,35.1,2.4
				c7.5,0.5,15,0.9,22.4,1.5c2,0.2,3.9,0.8,6.3,1.2C570.6,565.1,570.9,576.4,571.3,588.5z"/>
		</g>
		<path fill="#A6FF1A" d="M636.8,584.6c-2.5,0.8-4.3,0.9-6.9,0.2c-3.9-1-8.3,0.3-12.5,0.6c-3.8,0.3-7.5,0.5-11.7,0.9
			c-0.4-6.7-0.8-12.5-0.9-18.3c-0.3-12.4-0.4-24.8-0.7-37.3c-0.2-9.7-0.6-19.3-0.9-29c0-1.2-0.2-2.5-0.1-3.6
			c1.3-8.5-0.1-16.9-1-25.3c-0.3-3.4,0-6.9-0.1-10.3c-0.3-14.4-0.7-28.7-1.1-43.1c-0.1-5-0.2-10-0.3-14.9c-0.1-2.7,1.4-3.5,3.8-3.4
			c5.9,0.3,11.7,0.7,17.6,0.8c4.1,0.1,8.3-0.4,13-0.6c0.3,5.1,0.9,10.9,1,16.8c0.2,12.1-0.1,24.3,0.1,36.4
			c0.3,16.4,0.8,32.8,1.1,49.1c0.1,3.4-0.4,6.9-0.7,10.3c-0.2,3.2-0.8,6.5-0.8,9.7c0,12.4,0.2,24.8,0.3,37.2c0,4.6-0.4,9.2-0.3,13.8
			C635.8,577.7,636.4,580.9,636.8,584.6z"/>
	</g>
</g>
</svg>
