<?xml version="1.0" encoding="utf-8"?>
<!-- Generator: Adobe Illustrator 26.1.0, SVG Export Plug-In . SVG Version: 6.00 Build 0)  -->
<svg version="1.1" id="Layer_1" xmlns="http://www.w3.org/2000/svg" xmlns:xlink="http://www.w3.org/1999/xlink" x="0px" y="0px"
	 viewBox="0 0 650 450" enable-background="new 0 0 650 450" xml:space="preserve">
<pattern  x="-1138.5" y="3239.6" width="785" height="785" patternUnits="userSpaceOnUse" id="chips_2" viewBox="0 -785 785 785" overflow="visible">
	<g>
		<rect y="-785" fill="none" width="785" height="785"/>
		<path fill="none" d="M785-99.7V0H631.9c-1-3.1-2.7-6.3-5.1-9.3c-0.9-1.2-2-2.3-3-3.4c-10-12.1-22.5-21.5-34.3-31.7
			c-11.3-9.7-23.1-18.8-36.6-25.1c-17.6-8.3-24.3-5.9-31.3,12c-0.2,0.5-0.4,0.9-0.5,1.4c-5.8,18.3-7.3,37.1-8,56.1H321.7
			c0-0.2-0.1-0.3-0.1-0.5c-1.7-7.6-3.8-15.2-7.2-22.2C309.1-33.6,300.6-39.3,288-33c-3.3,1.7-7.2,2.3-10.6,4
			c-13.2,6.7-26.4,13.3-39.2,20.7c-3.5,2-7,5-9.5,8.3h-43.5c-0.5-9.9-1.6-19.8-2.5-29.7c-0.8-9.3-1.2-18.5-4.3-27.5
			c-1.9-5.6-5.2-8.5-10.5-9.4c-2.9-0.5-6-0.8-9-0.5c-16.8,1.6-33.5,3.4-49.7,8.7C99-55,88.6-52.2,78.5-48.3
			c-10.5,4-19.3,10.7-25.8,20.2c-4.1,6-3.6,11.7-0.8,17.2C53.8-7.5,56.6-3.7,60,0H0v-99.7c4.9-0.8,9.7-3.1,13.7-6.7
			c1.8-1.7,3.8-3.3,5.6-5c4.4-4.1,9-8,13.1-12.3c7.1-7.5,13.6-15.5,20.9-22.9c8-8.1,14.8-17.1,20.7-26.8c3.2-5.2,3.2-10.3-0.3-14.8
			c-4.2-5.3-8.6-10.7-14-14.5c-9-6.4-18.7-11.9-28.5-17c-10.3-5.4-20.7-10.7-31.1-15.9v-52.9c2.7,0.5,5.4,1,8.1,1.6
			c8.1,1.9,16.1,4.1,24,6.4c7.8,2.2,13.1-4,13.5-10.3c0.2-4,0-8.1,0-12.1c0.4,0,0.8-0.1,1.2-0.1c-1.2-8.7-1.9-17.5-3.8-26
			c-1.7-7.6-3.8-15.2-7.2-22.2c-5.3-10.9-13.8-16.7-26.4-10.4c-3,1.5-6.4,2.2-9.5,3.5v-60.6c5.5-0.8,11-1.9,16.5-3.4
			c0-1.6,0.1-3.1,0-4.5c-0.7-8.3-3.8-15.7-8.6-22.3c-2.8-3.8-5.4-7.8-7.9-11.8V-583c0.9-0.1,1.8-0.2,2.6-0.4
			c11.3-1.9,22.7-3.1,33.6-7.8c9.4-4,19-7.7,29.3-9.6c9.9-1.8,19-6.9,24.1-15.6c7.7-13.2,7.7-27.3,0.7-41.2
			c-6.7-13.3-17.8-23.2-28.1-33.3c-13.1-12.8-27.6-24.2-41.9-35.6c-6.3-5-13.2-9.2-20.2-13V-785h60c3.7,4.1,8.1,8.1,12.7,11.5
			c16,11.8,31.8,23.8,48.4,34.8c10.6,7.1,22,13.3,33.7,18.5c12.9,5.7,22.4,0.2,25.2-13.5c1.9-9.4,3.4-18.8,4.5-28.3
			c0.8-7,1.3-14.1,1-21.1c0-0.7-0.1-1.3-0.1-2h43.5c-0.8,1.1-1.5,2.1-2.1,3.3c-6.3,12-6.7,24,9.8,28.4c10.2,2.7,20.6,4.5,30.9,6.5
			c6.4,1.3,12.9,2.1,19.3,3.5c8.1,1.9,16.1,4.1,24,6.4c7.8,2.2,13.1-4,13.5-10.3c0.2-4,0-8.1,0-12.1c0.4,0,0.8-0.1,1.2-0.1
			c-1.2-8.5-1.9-17.2-3.7-25.6H513c0,0.2,0,0.3,0,0.5c-0.3,10,0,20.1-0.9,30.1c-0.8,8.7,0,17.1,2.5,25.3c1.2,4,3.7,7.7,6,11.1
			c3,4.4,6.8,6.5,12.2,3.3c2.3-1.4,4.9-2.4,7.5-3.3c7.2-2.8,14.5-5.4,21.7-8.2c4-1.5,8.1-2.7,11.9-4.7c9.1-4.8,18-10.1,26.9-15.1
			c0.2,0.3,0.4,0.6,0.5,0.9c6.4-3.9,13.1-7.5,19.3-11.7c10.8-7.2,14.7-17.7,11.2-28.2H785v45.5c-1.1-0.6-2.2-1.2-3.3-1.8
			c-5-2.6-10.9-4.1-16.5-4.7c-7.9-0.9-13.7,3.6-15.1,11.4c-1.8,9.9-3.1,19.9-4.2,29.8c-1,8.7-1.5,17.5-2.2,26.2c0.5,0,1.1,0,1.6,0.1
			c0,8.6-0.5,17.1,0.1,25.7c1.2,16,0.9,32.2,5.2,47.9c3.2,11.4,10.4,18.5,22.1,21.4c4.2,1,8.3,1,12.3,0.5v122.4
			c-4.8-7.7-9.3-15.5-13.8-23.5c-8.7-15.5-19.5-29.8-29.6-44.5c-3.2-4.7-8-5.9-13.4-4.3c-6,1.8-11.2,4.6-14.2,10.4
			c-7.3,14.3-19.1,25.1-28.4,38c-10,14-19.6,28-27.1,43.4c-2.5,5.1-2.2,10.3-1,15.5c0.8,3.3,2.7,5.9,6.5,6.5
			c2.5,0.4,4.9,1.5,7.3,1.6c6.2,0.4,12.7-0.4,18.7,0.7c19.9,3.7,39.7,0,59.5,0c11.7,0,23.4-0.2,35.3-1.9v60.6
			c-0.4,0.2-0.7,0.3-1,0.5c-13.2,6.7-26.4,13.3-39.2,20.7c-4.6,2.7-9.2,6.9-11.6,11.5c-6.3,12-6.7,24,9.8,28.4
			c10.2,2.7,20.6,4.5,30.9,6.5c3.7,0.7,7.4,1.3,11.1,2v52.9c-6.2-3.1-12.5-6.1-18.7-9.1c-7.8-3.8-15.2-9-24.6-9.5
			c-0.8,0.8-1.5,2.1-2.5,2.6c-8.2,4.2-8.3,11-6.4,18.7c0.9,3.6,1.3,7.4,1.8,11.1c2.6,17.4,4.7,34.9,8,52.2
			c2.6,13.6,6.5,26.9,10.3,40.2c1.5,5.5,3.7,11,6.4,16c2,3.7,4.8,7.3,8.2,9.7C772.6-99.9,778.9-98.7,785-99.7z M560-642.5
			c1.6,3.1,3.8,6.1,6.3,8.4c10.7,9.6,21.1,19.6,32.6,28c11.9,8.7,24.8,16.4,37.8,23.4c10.1,5.5,20.8,10.6,32.3,9.3
			c2,0.2,3.2,0.4,4.5,0.4c8.4,0,14.1-6.1,13.6-14.5c-0.1-1.2-0.4-2.5-0.6-3.7c-4.2-23.3-8.1-46.6-12.8-69.8
			c-2.1-10.1-5.3-20-9.1-29.5c-5.4-13.2-16.2-16.6-28.4-12.6c-7.1,2.3-13.5,6.5-20.1,10.1c-5.7,3.1-10.8,7.8-16.8,9.8
			c-11.3,3.8-22.1,8.2-32.1,14.7C557.3-661.9,554.5-652.8,560-642.5z M496.2-537.7c10.2,2.7,20.6,4.5,30.9,6.5
			c6.4,1.3,12.9,2.1,19.3,3.5c8.1,1.9,16.1,4.1,24,6.4c7.8,2.2,13.1-4,13.5-10.3c0.2-4,0-8.1,0-12.1c0.4,0,0.8-0.1,1.2-0.1
			c-1.2-8.7-1.9-17.5-3.8-26c-1.7-7.6-3.8-15.2-7.2-22.2c-5.3-10.9-13.8-16.7-26.4-10.4c-3.3,1.7-7.2,2.3-10.6,4
			c-13.2,6.7-26.4,13.3-39.2,20.7c-4.6,2.7-9.2,6.9-11.6,11.5C480.1-554.2,479.7-542.2,496.2-537.7z M346.8-655.1
			c5.3,2.8,10.9,5.2,16.7,6.8c19.2,5.3,38.4,10.4,57.7,15.1c8.3,2,16.9,2.9,26.1,4.4c5.8-1.3,12.2-2.4,18.4-4.3
			c6.5-2,8.7-5.3,7.4-11.8c-2.6-12.5-5.2-25.1-9.1-37.3c-5.1-15.5-11.4-30.7-17.4-45.9c-3.2-8.2-6.6-16.4-10.3-24.4
			c-3.5-7.5-8.3-8.9-16-6.5c-10,3.1-17.4,10.3-24.9,16.7c-12.2,10.5-23.4,22.2-34.5,33.8c-7.3,7.6-14.8,15.4-20.3,24.3
			C332-670.6,334.2-661.8,346.8-655.1z M304.2-522.3c4,4.4,8.5,8.6,13.4,12c16.3,11.4,32.7,22.7,49.3,33.6
			c7.1,4.7,14.9,8.4,23.1,12.9c5.9,0.7,12.3,1.8,18.8,2.1c6.8,0.3,10-2,10.9-8.7c1.7-12.7,3.6-25.4,3.9-38.2
			c0.4-16.3-0.5-32.7-1-49.1c-0.3-8.8-0.7-17.6-1.5-26.4c-0.8-8.3-4.8-11.2-12.9-11.5c-10.5-0.4-19.9,3.8-29.1,7.4
			c-15,5.8-29.5,13-43.8,20.3c-9.4,4.7-19.1,9.5-27.3,16C295.4-541.9,294.6-532.9,304.2-522.3z M334.8-370.7
			c-0.4-1.6-0.9-3.1-1.3-4.6c-4-16.2-11.7-30.9-18.4-46c-6.4-14.4-13.6-28.6-23.6-40.8c-13.1-16-20.6-16.8-35.5-2.8
			c-0.4,0.4-0.8,0.7-1.2,1.1c-14,15-24.1,32.5-33.4,50.6c-4.9,9.4-9.1,19.3-14.6,28.4c-4.8,8-7.8,16.4-9.1,25.4
			c-0.6,4.4,0,9,0.7,13.4c0.9,5.5,3.6,9.4,10.1,8.7c2.9-0.3,5.8,0,8.7,0.2c8.2,0.6,16.3,1.4,24.5,2.1c4.5,0.4,9,1.1,13.5,0.9
			c10.9-0.5,21.8-1.4,32.7-2.2c0,0.4,0.1,0.7,0.1,1.1c7.9-0.8,15.9-1.3,23.8-2.4C329.6-340.1,338.6-353.4,334.8-370.7z M172.5-638.5
			c2.2,10.8,5.5,21.5,9.1,31.9c6,17.6,12.5,35,19.1,52.4c3.1,8.1,4.9,17,11.4,23.8c1.2-0.1,2.5-0.5,3.6-0.2
			c8.8,2.5,13.6-2.4,17.5-9.3c1.8-3.3,4.1-6.3,6.3-9.4c10-14.5,20.5-28.6,30-43.4c7.4-11.6,13.7-24,20.1-36.3
			c2.7-5.1,4.9-10.5,6.3-16c1.1-4,1.5-8.6,0.7-12.6c-2.2-11.4-12.7-19.4-24.6-19.5c-2.5,0-5-0.2-7.5-0.2c-6-0.1-12-0.4-18,0
			c-10.3,0.6-20.6,1.9-30.9,2.3c-11.4,0.4-22.5,2.3-33.5,5.3c-5.9,1.6-9.4,5.3-9.9,11C171.7-652,171.2-645,172.5-638.5z M78.6-446.8
			c11.9,8.7,24.8,16.4,37.8,23.4c10.1,5.5,20.8,10.6,32.3,9.3c2,0.2,3.2,0.4,4.5,0.4c8.4,0,14.1-6.1,13.6-14.5
			c-0.1-1.2-0.4-2.5-0.6-3.7c-4.2-23.3-8.1-46.6-12.8-69.8c-2.1-10.1-5.3-20-9.1-29.5c-5.4-13.2-16.2-16.6-28.4-12.6
			c-7.1,2.3-13.5,6.5-20.1,10.1c-5.7,3.1-10.8,7.8-16.8,9.8c-11.3,3.8-22.1,8.2-32.1,14.7c-9.8,6.4-12.6,15.6-7.1,25.9
			c1.6,3.1,3.8,6.1,6.3,8.4C56.7-465.3,67.1-455.3,78.6-446.8z M175.9-217.1c4.1-5.7,7.9-11.7,11-18c4.7-9.5,8.7-19.3,13-28.9
			c3.7-8.5,7.8-16.8,9.4-26.2c1-5.8-0.5-9.9-4.7-13.3c-2.3-1.9-4.9-3.6-7.7-4.8c-15.5-6.7-31-13.2-47.7-16.3
			c-10.6-2-21.1-4.5-31.8-6c-11.2-1.5-22,0.1-32.3,5.3c-6.5,3.3-8.8,8.5-9,14.7c0.1,8.2,2.8,19.8,7.4,29.7
			c8.4,18,16.4,36.2,25.6,53.8c5.9,11.3,12.9,22.3,20.6,32.4c8.5,11.2,19.5,11,28.6,0.3C164.5-201.7,170.4-209.3,175.9-217.1z
			 M320.2-113.5c-0.7-8.3-3.8-15.7-8.6-22.3c-8.1-11.2-14.9-23.2-21.7-35.2c-8.7-15.5-19.5-29.8-29.6-44.5c-3.2-4.7-8-5.9-13.4-4.3
			c-6,1.8-11.2,4.6-14.2,10.4c-7.3,14.3-19.1,25.1-28.4,38c-10,14-19.6,28-27.1,43.4c-2.5,5.1-2.2,10.3-1,15.5
			c0.8,3.3,2.7,5.9,6.5,6.5c2.5,0.4,4.9,1.5,7.3,1.6c6.2,0.4,12.7-0.4,18.7,0.7c19.9,3.7,39.7,0,59.5,0c17,0,34.2-0.5,51.8-5.4
			C320.2-110.6,320.3-112.1,320.2-113.5z M328.4-239.9c10.7,9.6,21.1,19.6,32.6,28c11.9,8.7,24.8,16.4,37.8,23.4
			c10.1,5.5,20.8,10.6,32.3,9.3c2,0.2,3.2,0.4,4.5,0.4c8.4,0,14.1-6.1,13.6-14.5c-0.1-1.2-0.4-2.5-0.6-3.7
			c-4.2-23.3-8.1-46.6-12.8-69.8c-2.1-10.1-5.3-20-9.1-29.5c-5.4-13.2-16.2-16.6-28.4-12.6c-7.1,2.3-13.5,6.5-20.1,10.1
			c-5.7,3.1-10.8,7.8-16.8,9.8c-11.3,3.8-22.1,8.2-32.1,14.7c-9.8,6.4-12.6,15.6-7.1,25.9C323.7-245.2,325.9-242.2,328.4-239.9z
			 M494-128.3c-2.7-19.3-8.3-23.6-27.2-19.7c-0.5,0.1-1,0.2-1.5,0.3c-18.6,5.2-35.4,14.4-51.8,24.3c-8.6,5.2-16.8,11-25.7,15.7
			c-7.8,4.1-14.3,9.4-19.8,16c-2.6,3.2-4.4,7.3-6,11.2c-2,4.9-1.7,9.3,3.9,12c2.4,1.2,4.7,2.8,6.9,4.4c6.3,4.5,12.5,9.1,18.7,13.7
			c3.4,2.5,6.7,5.3,10.4,7.4c9,5,18.3,9.5,27.4,14.3c-0.2,0.3-0.3,0.6-0.5,1c6.8,3.3,13.4,6.8,20.4,9.8c15.5,6.6,29.4,0.4,34.7-15.4
			c0.5-1.4,0.8-2.9,1.3-4.3c4.7-15,5.7-30.6,7.8-46.1C494.9-98.6,496.1-113.5,494-128.3z M519.5-301.7c8.1-3.7,13.7-10.1,18.6-17.4
			c4.4-8.3,9.3-16.5,13.2-25.1c6.8-15,13-30.3,19.4-45.5c8.2-19.6,14.6-39.6,14.5-61.1c0-18.4-11.1-28-29.1-24
			c-12.6,2.8-24.6,7-35.7,13.8c-16.9,10.4-34.4,19.8-51.2,30.2c-11.9,7.3-24.4,14.4-31.7,27.1c-1.9,3.3-3.8,7.3-3.7,11
			c0,5.7,1,11.7,2.8,17.1c5.3,16,15.9,28.8,27.7,40.3c8,7.8,17.5,14.1,26.3,21.1c4.8,3.8,9.9,7.2,14.5,11.2
			C509.7-299,514.4-299.3,519.5-301.7z M638.9-162.4c4-0.3,8-0.6,12-1c5.3-0.6,9.1-3.3,9.4-9c0.4-6,1-12.1,0.1-17.9
			c-0.9-6.4-3.3-12.6-5.1-18.8c-4.5-15.5-3.6-32-8.7-47.3c-0.7-2.1-1.1-4.4-1.5-6.6c-3.8-18.7-3.5-38-8-56.7
			c-1.2-4.9-2.7-8.5-6.1-12.2c-4.2-4.6-8.9-5-13.6-2.7c-4.8,2.5-9.8,5.6-13.1,9.8c-9.4,12.1-18.3,24.6-26.8,37.4
			c-7.1,10.7-13.1,22.1-20.1,32.8c-10.1,15.6-20.8,30.9-30.7,46.6c-3.9,6.1-6.4,13.1-9.4,19.7c-1.9,4.1-0.3,7.4,3.1,9.9
			c1.6,1.2,3.3,2.3,5.1,3.1c12.1,5.6,24.6,10,38.1,11.2c14.5,1.3,29,3,38.5,4C617.7-161.1,628.3-161.7,638.9-162.4z M735.1-89.2
			c-0.2-12.2-5.6-21-19.6-20.5c-3.7,0.1-7.5-0.9-11.3-0.8c-14.8,0.6-29.6,1-44.3,2.4c-5.3,0.5-11.2,2.4-15.4,5.6
			c-10.7,8.2-16.1,19-2.9,29.9c8.1,6.7,16.8,12.7,25.4,18.9c5.3,3.8,10.9,7.3,16,11.3c6.6,5.1,12.9,10.5,19.2,15.8
			c6.2,5.2,13.6,1.9,16.6-3.7c1.9-3.6,3.4-7.3,5.1-11c0.4,0.1,0.8,0.3,1.1,0.4c2.5-8.4,5.5-16.7,7.4-25.2
			C734-73.6,735.2-81.5,735.1-89.2z"/>
		<path d="M638.9-162.4c-10.6,0.7-21.1,1.3-36.7,2.3c-9.6-1-24-2.7-38.5-4c-13.5-1.2-26-5.6-38.1-11.2c-1.8-0.8-3.5-1.9-5.1-3.1
			c-3.4-2.5-4.9-5.8-3.1-9.9c3-6.6,5.6-13.6,9.4-19.7c9.9-15.7,20.7-30.9,30.7-46.6c6.9-10.8,13-22.2,20.1-32.8
			c8.5-12.8,17.4-25.3,26.8-37.4c3.3-4.2,8.3-7.3,13.1-9.8c4.6-2.4,9.3-2,13.6,2.7c3.4,3.7,4.9,7.3,6.1,12.2
			c4.6,18.7,4.3,37.9,8,56.7c0.4,2.2,0.8,4.5,1.5,6.6c5,15.4,4.2,31.8,8.7,47.3c1.8,6.3,4.2,12.4,5.1,18.8c0.8,5.9,0.2,12-0.1,17.9
			c-0.3,5.7-4.1,8.4-9.4,9C646.9-163,642.9-162.7,638.9-162.4z M646.8-168.8c8.4-0.7,9.4-1.6,9.4-12.6c-1.2-7.2-2.6-16.9-4.4-26.5
			c-3-15.6-6.3-31.1-9.4-46.6c-1.5-7.4-2.6-14.8-4.1-22.2c-0.8-4.2-2.4-8.2-3.1-12.4c-2-11.6-3.6-23.4-5.6-35
			c-1.2-6.9-5.1-9.2-11.2-5.5c-4.4,2.6-8.5,6.4-11.6,10.5c-6.5,8.6-12.2,17.8-18.3,26.8c-5.4,7.9-10.9,15.7-16.3,23.6
			c-7.4,11.1-13.8,23-22.4,33.1c-11.8,13.9-19.7,29.7-26.3,46.3c-2.3,5.7-1.7,7.4,3.9,10.1c9.3,4.6,19,7.9,29.5,8.8
			c7,0.6,14.1,0.8,20.9,2.3c7.1,1.6,14,0.5,21,0.4c5.5-0.1,11.1-1.2,16.5-0.7C625.9-167.4,636.3-167.9,646.8-168.8z"/>
		<path fill="#F9F18F" d="M646.8-168.8c-10.5,0.9-20.9,1.4-31.5,0.4c-5.4-0.5-11,0.5-16.5,0.7c-7,0.2-13.9,1.3-21-0.4
			c-6.8-1.6-13.9-1.7-20.9-2.3c-10.4-0.9-20.1-4.2-29.5-8.8c-5.6-2.7-6.2-4.4-3.9-10.1c6.7-16.6,14.6-32.4,26.3-46.3
			c8.5-10.1,14.9-22.1,22.4-33.1c5.3-7.9,10.9-15.7,16.3-23.6c6.1-8.9,11.8-18.1,18.3-26.8c3.1-4.1,7.2-7.8,11.6-10.5
			c6.1-3.6,10.1-1.4,11.2,5.5c2,11.7,3.6,23.4,5.6,35c0.7,4.2,2.3,8.2,3.1,12.4c1.5,7.4,2.6,14.8,4.1,22.2c3.1,15.5,6.4,31,9.4,46.6
			c1.8,9.6,3.2,19.3,4.4,26.5C656.2-170.3,655.2-169.5,646.8-168.8z M564-227c-2.2,7.6-5.9,14.8-6.6,23.2
			C564.3-205.4,567.6-216.8,564-227z M592.9-271.9c9.3,2.5,21.4-1.8,29.1-10.7c-3.7,0.5-6.4,0.4-8.7,1.2c-5.4,2-10.5,4.4-15.8,6.7
			C596-273.9,594.7-273,592.9-271.9z M596.6-244.8c0,9.4,2.8,16.4,5.3,24.2C604.8-226.6,602.8-236.4,596.6-244.8z M633.5-197.8
			c-7.6-0.1-18.5,6-22.6,12.9C617.4-185.3,630.8-193.2,633.5-197.8z"/>
		<path d="M622-282.6c-3.7,0.5-6.4,0.4-8.7,1.2c-5.4,2-10.5,4.4-15.8,6.7c-1.5,0.7-2.8,1.6-4.6,2.7
			C602.1-269.4,614.3-273.7,622-282.6z"/>
		<path d="M557.4-203.8c7-1.6,10.2-13,6.6-23.2C561.8-219.4,558.1-212.2,557.4-203.8z"/>
		<path d="M610.9-184.9c6.6-0.4,20-8.3,22.6-12.9C625.8-197.9,614.9-191.8,610.9-184.9z"/>
		<path d="M601.9-220.6c2.9-6,0.9-15.8-5.3-24.2C596.6-235.5,599.4-228.4,601.9-220.6z"/>
		<path d="M340.4-684.1c5.5-8.9,13-16.7,20.3-24.3c11.1-11.6,22.3-23.3,34.5-33.8c7.5-6.5,14.9-13.6,24.9-16.7
			c7.8-2.4,12.5-1.1,16,6.5c3.8,8,7.1,16.1,10.3,24.4c6,15.2,12.4,30.4,17.4,45.9c4,12.1,6.5,24.7,9.1,37.3
			c1.4,6.6-0.8,9.8-7.4,11.8c-6.2,1.9-12.6,3-18.4,4.3c-9.3-1.5-17.8-2.4-26.1-4.4c-19.3-4.7-38.6-9.8-57.7-15.1
			c-5.8-1.6-11.4-4-16.7-6.8C334.2-661.8,332-670.6,340.4-684.1z M343-669.8c0.9,8.2,1.9,10.4,9.9,12.9c3.8,1.2,7.8,1.9,11.8,2.9
			c5.6,1.4,11.2,2.8,16.7,4.5c20,6.1,40.1,12.3,61.4,10.9c4.5,0,9.1,0,13.6,0c6.7,0,11.4-4.7,10.6-11.4c-0.5-4.2-1.9-8.3-3.1-12.3
			c-3.2-10.8-6.3-21.8-10-32.4c-4.3-12.3-9.4-24.4-14.1-36.6c-1.8-4.7-3.7-9.4-5.8-13.9c-3.6-7.6-11.9-10.3-18.9-5.8
			c-7.6,5-15.3,10-21.8,16.2c-14.6,14.2-28.5,29.2-42.6,43.9C345.1-685.1,342.1-678.4,343-669.8z"/>
		<path fill="#F9F18F" d="M343-669.8c-0.9-8.6,2.2-15.3,7.7-21.1c14.1-14.8,28-29.7,42.6-43.9c6.4-6.3,14.2-11.3,21.8-16.2
			c7-4.6,15.2-1.8,18.9,5.8c2.2,4.5,4,9.3,5.8,13.9c4.8,12.2,9.8,24.3,14.1,36.6c3.8,10.7,6.8,21.6,10,32.4
			c1.2,4.1,2.6,8.1,3.1,12.3c0.8,6.7-3.9,11.4-10.6,11.4c-4.5,0-9.1,0-13.6,0c-21.4,1.4-41.4-4.8-61.4-10.9
			c-5.5-1.7-11.1-3.1-16.7-4.5c-3.9-1-7.9-1.7-11.8-2.9C344.9-659.4,343.9-661.6,343-669.8z M447-668.6c0.5-0.3,0.9-0.6,1.4-0.9
			c-2.7-4.3-5.4-8.6-8.1-12.9C439.1-675.6,442.3-671.6,447-668.6z M402.1-709.2c1.9,0.2,3.9,0.3,5.7,0.7c2.2,0.5,4.3,1.4,6.4,2.1
			c1.6,0.5,3.1,1,4.7,1.6C414.2-710.2,408.9-712.7,402.1-709.2z M401-669.8c1.3,2.1,1.7,3.6,2.6,3.9c7.2,2.4,14.1,6.1,21.9,6.6
			c0.2-0.7,0.4-1.5,0.6-2.2C418.1-664.1,410.2-666.7,401-669.8z M366.2-676.9c6.6-1.5,11.3-5.1,16.3-9.7
			C375.4-685.9,369.1-682.1,366.2-676.9z"/>
		<path d="M403.6-665.9c7.2,2.4,14.1,6.1,21.9,6.6c0.2-0.7,0.4-1.5,0.6-2.2c-7.9-2.6-15.9-5.3-25.1-8.4
			C402.3-667.7,402.7-666.1,403.6-665.9z"/>
		<path d="M366.2-676.9c6.6-1.5,11.3-5.1,16.3-9.7C375.4-685.9,369.1-682.1,366.2-676.9z"/>
		<path d="M447-668.6c0.5-0.3,0.9-0.6,1.4-0.9c-2.7-4.3-5.4-8.6-8.1-12.9C439.1-675.6,442.3-671.6,447-668.6z"/>
		<path d="M414.2-706.4c1.6,0.5,3.1,1,4.7,1.6c-4.6-5.4-10-7.9-16.8-4.4c1.9,0.2,3.9,0.3,5.7,0.7C410-708,412.1-707.1,414.2-706.4z"
			/>
		<path d="M304.2-522.3c-9.6-10.6-8.7-19.6,3.7-29.5c8.2-6.5,17.9-11.3,27.3-16c14.4-7.2,28.9-14.5,43.8-20.3
			c9.2-3.6,18.6-7.8,29.1-7.4c8.1,0.3,12.1,3.2,12.9,11.5c0.9,8.8,1.3,17.6,1.5,26.4c0.5,16.4,1.4,32.8,1,49.1
			c-0.3,12.8-2.2,25.5-3.9,38.2c-0.9,6.6-4.1,9-10.9,8.7c-6.5-0.3-12.9-1.4-18.8-2.1c-8.2-4.6-16-8.3-23.1-12.9
			c-16.6-10.9-33-22.2-49.3-33.6C312.7-513.7,308.2-517.9,304.2-522.3z M310.5-522c3.2,2.4,6.8,4.4,10.1,6.7
			c4.8,3.2,9.6,6.4,14.2,9.9c16.8,12.4,33.6,25,54.2,30.9c4.3,1.5,8.6,3.1,12.8,4.6c6.4,2.3,12.4-0.6,13.8-7.2
			c0.9-4.1,1-8.4,1.2-12.6c0.6-11.3,1.4-22.6,1.4-33.9c0-13.1-0.6-26.1-1-39.2c-0.2-5-0.3-10.1-0.8-15.1
			c-0.9-8.4-7.7-13.7-15.8-11.8c-8.8,2.1-17.8,4.2-26,8c-18.5,8.5-36.7,17.9-54.9,27.1c-7.2,3.6-12.4,8.9-14.4,17.3
			C303.6-529.5,303.8-527.1,310.5-522z"/>
		<path fill="#F9F18F" d="M305.5-537.5c2-8.4,7.2-13.7,14.4-17.3c18.2-9.2,36.4-18.6,54.9-27.1c8.2-3.7,17.2-5.8,26-8
			c8.1-2,15,3.4,15.8,11.8c0.5,5,0.6,10.1,0.8,15.1c0.4,13.1,1.1,26.1,1,39.2c0,11.3-0.9,22.6-1.4,33.9c-0.2,4.2-0.3,8.5-1.2,12.6
			c-1.5,6.6-7.5,9.4-13.8,7.2c-4.3-1.5-8.6-3.1-12.8-4.6c-20.6-5.9-37.4-18.5-54.2-30.9c-4.6-3.4-9.5-6.6-14.2-9.9
			c-3.3-2.3-6.9-4.2-10.1-6.7C303.8-527.1,303.6-529.5,305.5-537.5z M403.1-501.4c0.5-0.1,1.1-0.2,1.6-0.4c-1.1-5-2.2-9.9-3.3-14.9
			C398-510.7,399.7-505.8,403.1-501.4z M374.4-554.7c1.7,0.8,3.6,1.5,5.2,2.6c1.9,1.2,3.6,2.8,5.3,4.2c1.3,1,2.6,2,3.9,3
			C386.2-551.6,382-555.7,374.4-554.7z M360.1-518c0.5,2.4,0.4,4,1.1,4.6c6,4.7,11.2,10.5,18.4,13.6c0.4-0.6,0.9-1.2,1.3-1.9
			C374.4-506.8,367.8-512,360.1-518z M329.7-536.3c6.7,0.8,12.3-1,18.7-3.7C341.4-541.8,334.2-540.3,329.7-536.3z"/>
		<path d="M379.7-499.8c0.4-0.6,0.9-1.2,1.3-1.9c-6.6-5.2-13.2-10.3-20.8-16.3c0.5,2.4,0.4,4,1.1,4.6
			C367.3-508.7,372.5-502.9,379.7-499.8z"/>
		<path d="M348.4-540c-7-1.7-14.2-0.3-18.7,3.7C336.5-535.5,342.1-537.3,348.4-540z"/>
		<path d="M404.7-501.8c-1.1-5-2.2-9.9-3.3-14.9c-3.4,6-1.7,10.8,1.7,15.3C403.6-501.5,404.2-501.6,404.7-501.8z"/>
		<path d="M384.9-548c1.3,1,2.6,2,3.9,3c-2.6-6.7-6.8-10.8-14.4-9.8c1.7,0.8,3.6,1.5,5.2,2.6C381.4-550.9,383.1-549.4,384.9-548z"/>
		<path d="M172.5-638.5c-1.3-6.5-0.8-13.5-0.2-20.2c0.5-5.7,4-9.4,9.9-11c11-3,22.1-4.8,33.5-5.3c10.3-0.4,20.6-1.7,30.9-2.3
			c6-0.3,12,0,18,0c2.5,0,5,0.2,7.5,0.2c11.9,0.1,22.4,8.1,24.6,19.5c0.8,4.1,0.4,8.6-0.7,12.6c-1.5,5.5-3.7,10.9-6.3,16
			c-6.4,12.3-12.7,24.6-20.1,36.3c-9.4,14.8-19.9,29-30,43.4c-2.1,3.1-4.5,6.1-6.3,9.4c-3.9,6.9-8.6,11.8-17.5,9.3
			c-1.1-0.3-2.5,0.1-3.6,0.2c-6.4-6.8-8.2-15.7-11.4-23.8c-6.7-17.4-13.1-34.8-19.1-52.4C178-617,174.7-627.7,172.5-638.5z
			 M177-651.8c2.1,13.6,4.9,27.1,7.5,40.7c0,0.2,0.2,0.5,0.3,0.7c4.3,11,8.7,22,13,33.1c2.4,6.1,5.2,12.1,6.8,18.4
			c2,7.8,6.4,14.2,10.3,20.9c1.9,3.3,4.2,3.6,7.6,1.5c2.1-1.3,4.3-2.8,5.9-4.7c2.9-3.5,5.3-7.3,8.1-10.9
			c17.4-22.6,33.4-46.1,44.7-72.5c3.2-7.4,6.8-14.6,10.2-21.9c3.5-7.4,0.2-13.6-3.6-19.7c-1.2-0.7-2.2-1.7-3.3-2
			c-3.8-1-7.7-2.2-11.6-2.5c-10-0.8-19.9-2.5-30.1-0.6c-6.4,1.2-13,1.8-19.4,1.5c-11.9-0.6-23.6,1.2-35.3,3
			C177.7-665.2,175.5-662,177-651.8z"/>
		<path fill="#F9F18F" d="M177-651.8c-1.6-10.3,0.6-13.4,11-15c11.6-1.8,23.3-3.6,35.3-3c6.5,0.3,13.1-0.3,19.4-1.5
			c10.1-1.9,20.1-0.2,30.1,0.6c3.9,0.3,7.8,1.5,11.6,2.5c1.2,0.3,2.2,1.3,3.3,2c3.8,6,7,12.2,3.6,19.7c-3.4,7.3-7,14.5-10.2,21.9
			c-11.3,26.4-27.3,49.9-44.7,72.5c-2.8,3.6-5.2,7.4-8.1,10.9c-1.6,1.9-3.7,3.4-5.9,4.7c-3.5,2.1-5.7,1.8-7.6-1.5
			c-3.9-6.7-8.3-13.1-10.3-20.9c-1.6-6.3-4.4-12.3-6.8-18.4c-4.3-11-8.7-22-13-33.1c-0.1-0.2-0.2-0.5-0.3-0.7
			C182-624.6,179.1-638.2,177-651.8z M269.3-631.5c0,0.9,1.4,1.9,3,3.8c1.2-10.8,2.7-20.2,0.9-30.6c-1.2,1.3-2,1.7-2.1,2.3
			C270.4-647.9,269.7-639.7,269.3-631.5z M231-620.8c1.7-0.4,3.2-0.2,3.5-0.8c3.1-5.7,6.3-11.3,8.9-17.2c0.9-2-0.4-4.5-2.4-4.2
			C237.5-635.4,234.4-628.5,231-620.8z M218.1-588.7c1.2,3.1,10.9,12.3,13.9,13.6c0.5-0.3,0.9-0.7,1.4-1
			c-4.5-5.5-9.1-11.1-14.7-17.9C218.3-590.9,217.8-589.6,218.1-588.7z M201-610.1c1.6-0.1,3.2-0.2,5.7-0.4
			c-0.3-5.4-0.7-10.4-0.9-15.4c-0.5-9.9-0.7-10.8-4.2-13C201.5-629.4,201.2-620.3,201-610.1z"/>
		<path d="M205.8-625.8c-0.5-9.9-0.7-10.8-4.2-13c-0.2,9.3-0.4,18.5-0.7,28.7c1.6-0.1,3.2-0.2,5.7-0.4
			C206.4-615.9,206.1-620.8,205.8-625.8z"/>
		<path d="M273.2-658.3c-1.2,1.3-2,1.7-2.1,2.3c-0.7,8.2-1.4,16.4-1.9,24.6c0,0.9,1.4,1.9,3,3.8C273.5-638.5,275-647.9,273.2-658.3z
			"/>
		<path d="M234.5-621.6c3.1-5.7,6.3-11.3,8.9-17.2c0.9-2-0.4-4.5-2.4-4.2c-3.4,7.6-6.5,14.6-9.9,22.2
			C232.8-621.2,234.2-621.1,234.5-621.6z"/>
		<path d="M232.1-575.1c0.5-0.3,0.9-0.7,1.4-1c-4.5-5.5-9.1-11.1-14.7-17.9c-0.4,3.1-1,4.4-0.6,5.3
			C219.4-585.7,229-576.4,232.1-575.1z"/>
		<path d="M333.5-375.3c0.4,1.6,0.9,3.1,1.3,4.6c3.9,17.3-5.2,30.5-22.9,33.1c-7.9,1.1-15.9,1.6-23.8,2.4c0-0.4-0.1-0.7-0.1-1.1
			c-10.9,0.8-21.8,1.7-32.7,2.2c-4.5,0.2-9-0.5-13.5-0.9c-8.2-0.7-16.3-1.4-24.5-2.1c-2.9-0.2-5.8-0.5-8.7-0.2
			c-6.6,0.7-9.3-3.1-10.1-8.7c-0.7-4.4-1.3-9.1-0.7-13.4c1.3-9,4.3-17.4,9.1-25.4c5.5-9.1,9.7-18.9,14.6-28.4
			c9.4-18,19.5-35.6,33.4-50.6c0.4-0.4,0.8-0.7,1.2-1.1c14.9-14,22.4-13.2,35.5,2.8c10,12.2,17.2,26.3,23.6,40.8
			C321.8-406.2,329.5-391.5,333.5-375.3z M330.2-369.3c-4.5-13.4-9.3-26.7-14.7-39.8c-5.5-13.4-12.7-25.8-20.9-37.8
			c-5-7.3-9.8-14.4-16.5-20.3c-4.5-3.9-7.1-4-11.8-0.2c-1.6,1.3-3.3,2.8-4.5,4.5c-7.9,10.4-16.5,20.4-23.5,31.4
			c-9.1,14.4-17.4,29.4-25.1,44.6c-4.6,9-8.3,18.6-10.7,28.3c-3,12,1,16.2,13.4,16.4c8.8,0.1,17.6,0.1,26.4,0.4
			c10.1,0.4,20.2,2.7,30.1-1.3c0.8-0.3,2,0.2,3.1,0.3c5.3,0.4,10.5,0.8,15.8,1.2c8.4,0.8,15.8-1.7,22.8-6.1c1.5-1,3.5-1.3,5.3-1.8
			C329.8-352.5,333.7-358.9,330.2-369.3z"/>
		<path fill="#F9F18F" d="M330.2-369.3c3.5,10.5-0.4,16.8-10.9,19.9c-1.8,0.5-3.8,0.8-5.3,1.8c-7,4.4-14.4,6.9-22.8,6.1
			c-5.3-0.4-10.5-0.8-15.8-1.2c-1-0.1-2.2-0.6-3.1-0.3c-9.9,4-20,1.7-30.1,1.3c-8.8-0.3-17.6-0.3-26.4-0.4
			c-12.3-0.2-16.4-4.4-13.4-16.4c2.4-9.7,6.2-19.4,10.7-28.3c7.7-15.2,16-30.2,25.1-44.6c7-11,15.6-21,23.5-31.4
			c1.3-1.7,2.9-3.1,4.5-4.5c4.7-3.8,7.3-3.8,11.8,0.2c6.8,5.9,11.5,13,16.5,20.3c8.2,12,15.4,24.4,20.9,37.8
			C320.8-396,325.7-382.7,330.2-369.3z M252.5-367c-8.3-2.9-14.9-5.3-21.6-7.6C236.7-370,242.3-365,252.5-367z M253.1-426.8
			c-1.8,8.2-3.4,15.6-5,23C254.2-406.7,256.4-415.8,253.1-426.8z M295.9-410.9c-6.2,5.6-12.4,11.2-19.4,17.5
			C285.8-395,294.3-403,295.9-410.9z M307.2-365.5c-3.5-4.7-3.6-11.9-10.6-15.1C302.4-367.7,303-366.9,307.2-365.5z"/>
		<path d="M295.9-410.9c-6.2,5.6-12.4,11.2-19.4,17.5C285.8-395,294.3-403,295.9-410.9z"/>
		<path d="M248-403.8c6.2-2.9,8.4-12.1,5-23C251.3-418.6,249.6-411.1,248-403.8z"/>
		<path d="M252.5-367c-8.3-2.9-14.9-5.3-21.6-7.6C236.7-370,242.3-365,252.5-367z"/>
		<path d="M296.6-380.6c5.9,12.9,6.4,13.7,10.6,15.1C303.6-370.1,303.6-377.3,296.6-380.6z"/>
		<path d="M494-128.3c2.1,14.8,0.9,29.7-1,44.4c-2.1,15.4-3.1,31.1-7.8,46.1c-0.5,1.4-0.8,2.9-1.3,4.3c-5.3,15.8-19.2,22-34.7,15.4
			c-6.9-3-13.6-6.5-20.4-9.8c0.2-0.3,0.3-0.6,0.5-1c-9.1-4.7-18.4-9.3-27.4-14.3c-3.7-2-7-4.9-10.4-7.4c-6.2-4.6-12.5-9.2-18.7-13.7
			c-2.2-1.6-4.4-3.3-6.9-4.4c-5.6-2.7-5.9-7.1-3.9-12c1.6-3.9,3.4-8,6-11.2c5.5-6.6,12-11.9,19.8-16c8.9-4.7,17.1-10.5,25.7-15.7
			c16.4-9.9,33.2-19.1,51.8-24.3c0.5-0.1,1-0.2,1.5-0.3C485.7-151.9,491.3-147.6,494-128.3z M489.1-114.5
			c-0.4-8.3-0.8-16.4-3.3-24.5c-1.7-5.3-3.8-6.7-9.4-5.9c-2,0.3-4,0.7-5.9,1.4c-11.5,4.5-23.3,8.3-34.3,13.7
			c-14.4,7.1-28.4,15.2-42.1,23.6c-8.1,5-15.8,10.9-22.5,17.6c-8.3,8.2-7.1,13.6,2.7,19.8c7,4.4,14.2,8.7,21.1,13.3
			c7.9,5.3,15,12.1,24.9,13.7c0.8,0.1,1.5,1.1,2.3,1.7c4,2.9,8.1,5.8,12.1,8.7c6.4,4.8,13.6,6.4,21.4,6.3c1.7,0,3.4,0.7,5.1,1.2
			c9.9,2.7,16.2-0.5,18.5-10.7c3-13,5.6-26.1,7.7-39.3C489.5-87.3,489.8-100.9,489.1-114.5z"/>
		<path fill="#F9F18F" d="M489.1-114.5c0.7,13.7,0.4,27.2-1.8,40.7c-2.1,13.2-4.7,26.3-7.7,39.3c-2.3,10.1-8.6,13.4-18.5,10.7
			c-1.7-0.5-3.4-1.2-5.1-1.2c-7.8,0.1-15-1.5-21.4-6.3c-4.1-2.9-8.1-5.8-12.1-8.7c-0.8-0.6-1.5-1.6-2.3-1.7
			c-9.9-1.7-16.9-8.5-24.9-13.7c-6.9-4.6-14.1-8.9-21.1-13.3c-9.8-6.2-11-11.6-2.7-19.8c6.7-6.6,14.5-12.6,22.5-17.6
			c13.7-8.5,27.7-16.5,42.1-23.6c11-5.4,22.8-9.3,34.3-13.7c1.9-0.7,3.9-1.1,5.9-1.4c5.7-0.8,7.8,0.6,9.4,5.9
			C488.3-131,488.6-122.9,489.1-114.5z M415.9-70.9c-5.3-6.5-9.4-11.6-13.6-16.7C404.6-81.1,406.7-74.3,415.9-70.9z M445.7-118.8
			c-5.5,5.7-10.4,10.9-15.3,16.1C436.8-102,443-108.3,445.7-118.8z M458.1-60.2c-1.6,13.3-1.6,14.1,1.1,17.4
			C458.6-48.3,462.1-54.1,458.1-60.2z M472.4-84.9c-7.8,1.5-15.5,2.9-24.2,4.6C456.4-77.1,467.2-79.3,472.4-84.9z"/>
		<path d="M472.4-84.9c-7.8,1.5-15.5,2.9-24.2,4.6C456.4-77.1,467.2-79.3,472.4-84.9z"/>
		<path d="M445.7-118.8c-5.5,5.7-10.4,10.9-15.3,16.1C436.8-102,443-108.3,445.7-118.8z"/>
		<path d="M415.9-70.9c-5.3-6.5-9.4-11.6-13.6-16.7C404.6-81.1,406.7-74.3,415.9-70.9z"/>
		<path d="M458.1-60.2c-1.6,13.3-1.6,14.1,1.1,17.4C458.6-48.3,462.1-54.1,458.1-60.2z"/>
		<path d="M512.1-754.4c-0.8,8.7,0,17.1,2.5,25.3c1.2,4,3.7,7.7,6,11.1c3,4.4,6.8,6.5,12.2,3.3c2.3-1.4,4.9-2.4,7.5-3.3
			c7.2-2.8,14.5-5.4,21.7-8.2c4-1.5,8.1-2.7,11.9-4.7c9.1-4.8,18-10.1,26.9-15.1c0.2,0.3,0.4,0.6,0.5,0.9
			c6.4-3.9,13.1-7.5,19.3-11.7c10.8-7.2,14.7-17.7,11.2-28.2h-4.2c2,5.2,0.1,10.1-5.4,15c-1.3,1.2-2.9,2.2-3.8,3.7
			c-4.2,6.6-9.4,11.8-17,14.5c-4.7,1.8-9.3,3.6-14,5.4c-0.9,0.3-2.1,0.4-2.7,1c-6.8,7.4-16.4,9.5-25.1,13.3
			c-7.6,3.3-15.1,6.9-22.7,10.4c-10.6,4.8-15.7,2.9-18-8.6c-1.9-9.3-2.6-19-2.4-28.5c0.2-8.7,0.6-17.5,1.2-26.2H513
			c0,0.2,0,0.3,0,0.5C512.6-774.5,513-764.4,512.1-754.4z"/>
		<path fill="#F9F18F" d="M516.6-758.8c0.2-8.7,0.6-17.5,1.2-26.2h75.1c7.7,6.4,8.7,6.7,12.5,6.3c-2.9-1.5-5.2-4.3-8.1-6.3h30.3
			c2,5.2,0.1,10.1-5.4,15c-1.3,1.2-2.9,2.2-3.8,3.7c-4.2,6.6-9.4,11.8-17,14.5c-4.7,1.8-9.3,3.6-14,5.4c-0.9,0.3-2.1,0.4-2.7,1
			c-6.8,7.4-16.4,9.5-25.1,13.3c-7.6,3.3-15.1,6.9-22.7,10.4c-10.6,4.8-15.7,2.9-18-8.6C517.1-739.6,516.4-749.3,516.6-758.8z
			 M536.7-755.6c6.8,1.7,13.7,3.6,21.5-2.2C549.9-757,543.3-756.3,536.7-755.6z"/>
		<path d="M558.1-757.8c-8.3,0.9-14.9,1.6-21.5,2.2C543.5-753.9,550.4-752,558.1-757.8z"/>
		<path d="M605.4-778.7c-2.9-1.5-5.2-4.3-8.1-6.3h-4.4C600.6-778.6,601.6-778.3,605.4-778.7z"/>
		<path d="M175.9-217.1c-5.5,7.8-11.4,15.4-17.6,22.6c-9.1,10.7-20,10.9-28.6-0.3c-7.7-10.2-14.7-21.1-20.6-32.4
			c-9.2-17.6-17.3-35.8-25.6-53.8c-4.6-9.9-7.3-21.4-7.4-29.7c0.2-6.2,2.5-11.4,9-14.7c10.3-5.2,21.1-6.8,32.3-5.3
			c10.7,1.5,21.2,4.1,31.8,6c16.7,3.1,32.2,9.6,47.7,16.3c2.7,1.2,5.3,2.9,7.7,4.8c4.2,3.4,5.7,7.5,4.7,13.3
			c-1.6,9.4-5.7,17.7-9.4,26.2c-4.2,9.7-8.3,19.5-13,28.9C183.8-228.8,180-222.8,175.9-217.1z M163-208.1
			c13.2-24,26.9-47.8,38.7-72.4c7.6-15.8,5-19-9.8-25.5c-0.2-0.1-0.5-0.1-0.7-0.2c-19-8.2-38.9-13.7-59.1-17.9
			c-7.6-1.6-15.4-2-23-2.9c-7.2-0.1-13.6,2.2-20,4.6c-5,1.9-8,5.3-8,10.7c0,3,0,6.2,1,8.9c3.7,10.4,7.4,20.9,11.9,30.9
			c8.5,18.8,17.3,37.4,26.7,55.8c3.7,7.3,8.7,14.2,14.3,20.2c6.4,6.9,12.1,6.5,18.9-0.2C157.3-199.7,160.6-203.8,163-208.1z"/>
		<path fill="#F9F18F" d="M201.7-280.5c-11.8,24.7-25.5,48.4-38.7,72.4c-2.4,4.3-5.7,8.4-9.2,11.9c-6.8,6.8-12.6,7.1-18.9,0.2
			c-5.5-6-10.6-12.9-14.3-20.2c-9.4-18.3-18.2-37-26.7-55.8c-4.6-10.1-8.2-20.5-11.9-30.9c-1-2.7-1-5.9-1-8.9c0.1-5.4,3-8.9,8-10.7
			c6.4-2.4,12.8-4.7,20-4.6c7.7,0.9,15.5,1.4,23,2.9c20.2,4.2,40.1,9.7,59.1,17.9c0.2,0.1,0.5,0.1,0.7,0.2
			C206.7-299.6,209.2-296.3,201.7-280.5z M119.7-272.2c-2.1-4.6-4.8-8.6-9.6-11c-0.4,0.4-0.8,0.8-1.2,1.2c3,3.7,6,7.5,9.1,11.2
			C118.5-271.3,119.1-271.7,119.7-272.2z M135.4-311.7c1.5,3.6,2.9,7.2,4.4,10.8c0.6-0.2,1.3-0.4,1.9-0.6
			C140.9-305.4,140.9-309.7,135.4-311.7z M146.1-242.5c-5.8-4.4-10.6-1.1-15.3,1.9C135.9-241.3,141-241.9,146.1-242.5z M157.7-222.5
			c-5.7-2.3-8.9-2.4-16.6-0.1C151.8-220,155.1-220.1,157.7-222.5z M159.6-282.7c-4,4.8-7.5,8.9-10.9,13.1
			C156.2-273.1,159.3-277.1,159.6-282.7z M187.5-279.1c-2.6-0.9-5.2-1.8-7.7-2.7c-0.2,0.5-0.4,0.9-0.6,1.4c2.4,1.2,4.8,2.5,7.2,3.7
			C186.7-277.5,187.1-278.3,187.5-279.1z"/>
		<path d="M141.1-222.7c10.7,2.6,14,2.6,16.6,0.1C152-224.8,148.8-224.9,141.1-222.7z"/>
		<path d="M159.6-282.7c-4,4.8-7.5,8.9-10.9,13.1C156.2-273.1,159.3-277.1,159.6-282.7z"/>
		<path d="M110.1-283.2c-0.4,0.4-0.8,0.8-1.2,1.2c3,3.7,6,7.5,9.1,11.2c0.6-0.5,1.1-0.9,1.7-1.4
			C117.6-276.8,114.8-280.8,110.1-283.2z"/>
		<path d="M130.8-240.6c5.1-0.6,10.2-1.3,15.3-1.9C140.3-246.9,135.5-243.6,130.8-240.6z"/>
		<path d="M141.7-301.4c-0.8-4-0.7-8.3-6.3-10.2c1.5,3.6,2.9,7.2,4.4,10.8C140.4-301,141-301.2,141.7-301.4z"/>
		<path d="M179.1-280.4c2.4,1.2,4.8,2.5,7.2,3.7c0.4-0.8,0.8-1.6,1.2-2.4c-2.6-0.9-5.2-1.8-7.7-2.7
			C179.6-281.3,179.4-280.9,179.1-280.4z"/>
		<path d="M72.7-773.5c16,11.8,31.8,23.8,48.4,34.8c10.6,7.1,22,13.3,33.7,18.5c12.9,5.7,22.4,0.2,25.2-13.5
			c1.9-9.4,3.4-18.8,4.5-28.3c0.8-7,1.3-14.1,1-21.1c0-0.7-0.1-1.3-0.1-2h-7.8c0,12.4-0.1,24.7-0.1,37.1c0,5-1,10.1-2.4,14.8
			c-2.7,9.2-7.6,12.3-16.5,9.3c-7.8-2.6-15.5-6.2-22.2-10.8c-17.1-11.6-33.8-23.7-50.3-36c-6-4.5-11.8-9.4-17.5-14.4H60
			C63.7-780.9,68-776.9,72.7-773.5z"/>
		<path fill="#F9F18F" d="M86-770.6c-6-4.5-11.8-9.4-17.5-14.4h29.8c3.1,1.3,6.3,2.6,9.4,3.9c0.3-0.7,0.5-1.4,0.8-2
			c-0.9-0.6-1.8-1.3-2.7-1.8h71.6c0,12.4-0.1,24.7-0.1,37.1c0,5-1,10.1-2.4,14.8c-2.7,9.2-7.6,12.3-16.5,9.3
			c-7.8-2.6-15.5-6.2-22.2-10.8C119.2-746.1,102.5-758.2,86-770.6z M151.2-750.1c10.6-2.9,13.5-4.5,14.6-7.9
			C159.7-757.2,156.8-755.8,151.2-750.1z M133.5-760.9c4.2-3,8.3-6,12.5-9C138.8-771,136.2-765.8,133.5-760.9z"/>
		<path d="M165.8-758c-6.1,0.7-8.9,2.2-14.6,7.9C161.8-752.9,164.7-754.6,165.8-758z"/>
		<path d="M108.5-783.2c-0.9-0.6-1.8-1.3-2.7-1.8h-7.6c3.1,1.3,6.3,2.6,9.4,3.9C108-781.8,108.3-782.5,108.5-783.2z"/>
		<path d="M133.5-760.9c4.2-3,8.3-6,12.5-9C138.8-771,136.2-765.8,133.5-760.9z"/>
		<path d="M320.2-113.5c0.1,1.5,0,2.9,0,4.5c-17.7,4.9-34.8,5.4-51.8,5.4c-19.8,0-39.6,3.8-59.5,0c-6.1-1.1-12.5-0.4-18.7-0.7
			c-2.5-0.2-4.9-1.2-7.3-1.6c-3.8-0.6-5.8-3.2-6.5-6.5c-1.2-5.2-1.5-10.4,1-15.5c7.5-15.5,17.1-29.5,27.1-43.4
			c9.2-12.9,21.1-23.7,28.4-38c2.9-5.8,8.2-8.6,14.2-10.4c5.4-1.6,10.2-0.4,13.4,4.3c10.1,14.7,20.9,29,29.6,44.5
			c6.8,12.1,13.6,24,21.7,35.2C316.4-129.2,319.6-121.8,320.2-113.5z M316-113.6c-0.9-3.3-1-6.1-2.3-8.4
			c-4.2-7.4-8.7-14.7-13.3-21.9c-5.7-9.2-11.6-18.2-17.4-27.4c-7-11.1-13.9-22.1-20.7-33.3c-3.1-5.1-8.6-6.7-13.2-9.6
			c-2.8-1.7-6-0.2-8.2,2.1c-1.6,1.6-2.9,3.5-4.2,5.3c-6.1,8.2-10.1,17.9-18.6,24.3c-1.7,1.3-2.7,3.6-4.1,5.4
			c-2.7,3.7-5.3,7.3-7.9,11c-8.9,12.5-18.2,24.8-24.3,39c-5.3,12.3-1.6,18,11.9,18.8c4.5,0.3,9.1,0.3,13.6,0.3
			c11.6,0.1,23.1,0.3,34.7,0.3c4.8,0,9.6-0.7,14.3-0.5C276-107.6,295.4-109.3,316-113.6z"/>
		<path fill="#F9F18F" d="M313.7-122c1.3,2.3,1.5,5.2,2.3,8.4c-20.5,4.4-40,6-59.7,5.3c-4.8-0.2-9.6,0.5-14.3,0.5
			c-11.6,0-23.1-0.1-34.7-0.3c-4.5-0.1-9.1-0.1-13.6-0.3c-13.5-0.8-17.2-6.5-11.9-18.8c6.1-14.2,15.4-26.5,24.3-39
			c2.6-3.7,5.3-7.4,7.9-11c1.3-1.8,2.3-4.1,4.1-5.4c8.6-6.3,12.6-16.1,18.6-24.3c1.3-1.8,2.6-3.7,4.2-5.3c2.3-2.3,5.5-3.8,8.2-2.1
			c4.6,2.9,10.1,4.5,13.2,9.6c6.8,11.2,13.8,22.2,20.7,33.3c5.8,9.2,11.6,18.2,17.4,27.4C304.9-136.7,309.5-129.5,313.7-122z
			 M243.5-135.2c-12.2-2.7-22.5,2.4-23.2,12.3c3.9-2.9,6.5-5.8,9.8-7.2c3.6-1.5,7.7-1.5,11.6-2.4
			C242.4-132.6,242.8-134.1,243.5-135.2z M261.4-164.7c-5.5-2.3-10.3-3.4-14-6c-3.7-2.5-6.3-6.6-9.5-9.9c-0.5,0.4-0.9,0.7-1.4,1.1
			c0,0.7-0.3,1.6,0,2.1c4.1,7.8,11,12.3,18.9,15.2C256.8-161.7,259-163.6,261.4-164.7z M288.8-132.6c-4.9-6.5-12.5-11.5-17.4-11.5
			C275.1-138.3,284.5-132,288.8-132.6z"/>
		<path d="M238-180.7c-0.5,0.4-0.9,0.7-1.4,1.1c0,0.7-0.3,1.6,0,2.1c4.1,7.8,11,12.3,18.9,15.2c1.3,0.5,3.5-1.4,5.9-2.5
			c-5.5-2.3-10.3-3.4-14-6C243.8-173.3,241.1-177.3,238-180.7z"/>
		<path d="M220.3-122.9c3.9-2.9,6.5-5.8,9.8-7.2c3.6-1.5,7.7-1.5,11.6-2.4c0.8-0.2,1.2-1.7,1.9-2.8
			C231.3-137.9,221-132.8,220.3-122.9z"/>
		<path d="M271.5-144.1c3.6,5.8,13,12.1,17.4,11.5C283.9-139.1,276.3-144.2,271.5-144.1z"/>
		<path d="M519.5-301.7c-5.1,2.4-9.8,2.7-14.5-1.3c-4.7-3.9-9.7-7.4-14.5-11.2c-8.9-6.9-18.4-13.2-26.3-21.1
			c-11.7-11.5-22.3-24.3-27.7-40.3c-1.8-5.4-2.8-11.4-2.8-17.1c0-3.7,1.8-7.7,3.7-11c7.3-12.8,19.8-19.8,31.7-27.1
			c16.9-10.4,34.3-19.8,51.2-30.2c11.1-6.9,23.2-11.1,35.7-13.8c18-4,29.1,5.5,29.1,24c0,21.6-6.4,41.5-14.5,61.1
			c-6.3,15.2-12.6,30.5-19.4,45.5c-3.9,8.6-8.8,16.7-13.2,25.1C533.2-311.8,527.6-305.4,519.5-301.7z M521.6-308.8
			c4.4-3.6,8.2-8,12.7-12.5c7.9-16.5,16.5-33.1,23.7-50.2c6.6-15.7,12.1-31.9,17.3-48.2c4-12.5,7-25.4,3.4-38.7
			c-2.1-8-7.5-13.2-15.6-12.6c-13.6,1-26.4,5.5-37.3,13.7c-10.7,8.1-21.8,16-34.2,20.7c-15.2,5.8-27.8,15.3-40.7,24.4
			c-9.8,6.9-13.7,17.5-10.8,29.2c2.4,9.4,6.5,18.6,13.7,25.6c13.1,12.7,26.5,25.3,39.9,37.7c4.2,3.9,8.9,7.4,13.5,10.9
			C512-305.3,517.1-305.2,521.6-308.8z"/>
		<path fill="#F9F18F" d="M521.6-308.8c-4.5,3.6-9.6,3.6-14.3-0.1c-4.5-3.6-9.2-7-13.5-10.9c-13.4-12.4-26.8-25-39.9-37.7
			c-7.2-7-11.3-16.2-13.7-25.6c-3-11.6,1-22.2,10.8-29.2c12.9-9.1,25.5-18.6,40.7-24.4c12.3-4.7,23.4-12.6,34.2-20.7
			c10.9-8.2,23.7-12.7,37.3-13.7c8.1-0.6,13.5,4.6,15.6,12.6c3.6,13.4,0.6,26.2-3.4,38.7c-5.2,16.3-10.7,32.5-17.3,48.2
			c-7.2,17.1-15.8,33.7-23.7,50.2C529.8-316.9,526-312.4,521.6-308.8z M552.1-406.8c-0.8-5.5-1.4-10-2-14.4c-0.5-4.4,3.5-9-0.3-13.6
			C542.4-427.5,543.2-416.1,552.1-406.8z M517.8-420.5c-0.4-0.6-0.8-1.2-1.3-1.9c-2.3,1.3-5,2.3-6.9,4.1
			c-7.1,6.8-13.5,14.8-25.6,14.1c2.9,4.5,6.3,4.8,9.4,3.5C503.7-404.7,511.4-411.8,517.8-420.5z M517.8-360.6
			c-7.8,9-10.4,16.9-6.6,24.9c1.1-4.2,2.6-8.3,3.4-12.5C515.3-352.2,519.6-355.4,517.8-360.6z"/>
		<path d="M517.8-420.5c-0.4-0.6-0.8-1.2-1.3-1.9c-2.3,1.3-5,2.3-6.9,4.1c-7.1,6.8-13.5,14.8-25.6,14.1c2.9,4.5,6.3,4.8,9.4,3.5
			C503.7-404.7,511.4-411.8,517.8-420.5z"/>
		<path d="M550.2-421.2c-0.5-4.4,3.5-9-0.3-13.6c-7.5,7.3-6.6,18.8,2.3,28C551.4-412.4,550.7-416.8,550.2-421.2z"/>
		<path d="M511.2-335.7c1.1-4.2,2.6-8.3,3.4-12.5c0.7-4,5.1-7.2,3.3-12.4C510-351.5,507.5-343.7,511.2-335.7z"/>
		<path d="M361-211.9c-11.5-8.4-21.9-18.5-32.6-28c-2.6-2.3-4.7-5.3-6.3-8.4c-5.5-10.3-2.7-19.5,7.1-25.9
			c10-6.6,20.8-10.9,32.1-14.7c6-2,11.1-6.7,16.8-9.8c6.6-3.6,13-7.8,20.1-10.1c12.3-4,23.1-0.6,28.4,12.6
			c3.9,9.5,7.1,19.5,9.1,29.5c4.7,23.2,8.6,46.5,12.8,69.8c0.2,1.2,0.5,2.5,0.6,3.7c0.5,8.4-5.2,14.5-13.6,14.5
			c-1.3,0-2.5-0.2-4.5-0.4c-11.5,1.3-22.2-3.8-32.3-9.3C385.8-195.6,373-203.2,361-211.9z M331.4-243.6c11.6,10.4,23.2,21,35.4,30.7
			c6.4,5.1,14.4,8.2,21.1,13c10.2,7.3,21.6,11.8,33.4,15.4c3.1,1,6.4,1.2,9.2,1.7c2.5-0.3,4.5-0.5,6.5-0.9c6.6-1.4,8.6-3.8,8-10.5
			c-0.3-3.7-1.2-7.5-2.4-11c-3.3-10.4-5.7-20.9-6.5-31.7c-0.4-5.3-0.3-10.7-1.6-15.7c-3.5-13.1-7.6-26-11.7-39
			c-0.8-2.6-2.2-5.1-3.8-7.3c-4.7-6.5-11.1-8.7-18.6-5.9c-4.9,1.8-9.6,4.4-14.2,6.9c-7.9,4.3-15.5,9.3-23.7,13.3
			c-10.2,4.9-20.9,8.8-31.1,13.6c-2.4,1.1-5.3,4-5.7,6.4C324.5-256.9,325.1-249.2,331.4-243.6z"/>
		<path fill="#F9F18F" d="M366.8-212.9c-12.2-9.8-23.7-20.3-35.4-30.7c-6.3-5.6-7-13.3-5.6-21c0.4-2.5,3.3-5.3,5.7-6.4
			c10.2-4.8,20.9-8.7,31.1-13.6c8.1-3.9,15.7-8.9,23.7-13.3c4.6-2.5,9.3-5.1,14.2-6.9c7.4-2.8,13.9-0.6,18.6,5.9
			c1.6,2.2,3,4.8,3.8,7.3c4.1,12.9,8.2,25.9,11.7,39c1.4,5,1.2,10.5,1.6,15.7c0.9,10.9,3.2,21.4,6.5,31.7c1.1,3.6,2,7.3,2.4,11
			c0.6,6.7-1.4,9.1-8,10.5c-2,0.4-4,0.6-6.5,0.9c-2.8-0.5-6.1-0.8-9.2-1.7c-11.8-3.7-23.2-8.1-33.4-15.4
			C381.2-204.6,373.2-207.7,366.8-212.9z M397.9-284.3c0.6,4.9,1.2,9.3,1.7,14c1.1-0.1,2.4-0.2,3.7-0.3c0.3-5.7,2.8-11.1-0.9-16.3
			C400.6-285.8,399.2-285,397.9-284.3z M393.9-238c2,7,13.5,14,20.4,13C407.4-229.4,401.3-233.3,393.9-238z M361.8-255.1
			c-0.1-0.7-2.1-1.1-4.3-2.1c1.9,6.9,3.5,12.6,5.1,18.3C366.7-244.8,362.6-249.8,361.8-255.1z"/>
		<path d="M403.3-270.5c0.3-5.7,2.8-11.1-0.9-16.3c-1.8,1-3.2,1.8-4.5,2.5c0.6,4.9,1.2,9.3,1.7,14
			C400.7-270.3,402-270.4,403.3-270.5z"/>
		<path d="M414.4-225c-6.9-4.4-13-8.3-20.4-13C395.9-231.1,407.4-224,414.4-225z"/>
		<path d="M357.5-257.2c1.9,6.9,3.5,12.6,5.1,18.3c4.1-6,0.1-10.9-0.8-16.2C361.7-255.8,359.7-256.2,357.5-257.2z"/>
		<path d="M560-642.5c-5.5-10.3-2.7-19.5,7.1-25.9c10-6.6,20.8-10.9,32.1-14.7c6-2,11.1-6.7,16.8-9.8c6.6-3.6,13-7.8,20.1-10.1
			c12.3-4,23.1-0.6,28.4,12.6c3.9,9.5,7.1,19.5,9.1,29.5c4.7,23.2,8.6,46.5,12.8,69.8c0.2,1.2,0.5,2.5,0.6,3.7
			c0.5,8.4-5.2,14.5-13.6,14.5c-1.3,0-2.5-0.2-4.5-0.4c-11.5,1.3-22.2-3.8-32.3-9.3c-13-7-25.9-14.7-37.8-23.4
			c-11.5-8.4-21.9-18.5-32.6-28C563.7-636.4,561.6-639.4,560-642.5z M569.3-637.7c11.6,10.4,23.2,21,35.4,30.7
			c6.4,5.1,14.4,8.2,21.1,13c10.2,7.3,21.6,11.8,33.4,15.4c3.1,1,6.4,1.2,9.2,1.7c2.5-0.3,4.5-0.5,6.5-0.9c6.6-1.4,8.6-3.8,8-10.5
			c-0.3-3.7-1.2-7.5-2.4-11c-3.3-10.4-5.7-20.9-6.5-31.7c-0.4-5.3-0.3-10.7-1.6-15.7c-3.5-13.1-7.6-26-11.7-39
			c-0.8-2.6-2.2-5.1-3.8-7.3c-4.7-6.5-11.1-8.7-18.6-5.9c-4.9,1.8-9.6,4.4-14.2,6.9c-7.9,4.3-15.5,9.3-23.7,13.3
			c-10.2,4.9-20.9,8.8-31.1,13.6c-2.4,1.1-5.3,4-5.7,6.4C562.3-651.1,563-643.4,569.3-637.7z"/>
		<path fill="#F9F18F" d="M563.7-658.7c0.4-2.5,3.3-5.3,5.7-6.4c10.2-4.8,20.9-8.7,31.1-13.6c8.1-3.9,15.7-8.9,23.7-13.3
			c4.6-2.5,9.3-5.1,14.2-6.9c7.4-2.8,13.9-0.6,18.6,5.9c1.6,2.2,3,4.8,3.8,7.3c4.1,12.9,8.2,25.9,11.7,39c1.4,5,1.2,10.5,1.6,15.7
			c0.9,10.9,3.2,21.4,6.5,31.7c1.1,3.6,2,7.3,2.4,11c0.6,6.7-1.4,9.1-8,10.5c-2,0.4-4,0.6-6.5,0.9c-2.8-0.5-6.1-0.8-9.2-1.7
			c-11.8-3.7-23.2-8.1-33.4-15.4c-6.7-4.8-14.7-7.9-21.1-13c-12.2-9.8-23.7-20.3-35.4-30.7C563-643.4,562.3-651.1,563.7-658.7z
			 M635.7-678.4c0.6,4.9,1.2,9.3,1.7,14c1.1-0.1,2.4-0.2,3.7-0.3c0.3-5.7,2.8-11.1-0.9-16.3C638.5-679.9,637-679.1,635.7-678.4z
			 M631.8-632.2c2,7,13.5,14,20.4,13C645.3-623.6,639.2-627.4,631.8-632.2z M595.3-651.3c1.9,6.9,3.5,12.6,5.1,18.3
			c4.1-6,0.1-10.9-0.8-16.2C599.5-649.9,597.5-650.3,595.3-651.3z"/>
		<path d="M641.2-664.7c0.3-5.7,2.8-11.1-0.9-16.3c-1.8,1-3.2,1.8-4.5,2.5c0.6,4.9,1.2,9.3,1.7,14
			C638.5-664.5,639.9-664.6,641.2-664.7z"/>
		<path d="M652.2-619.2c-6.9-4.4-13-8.3-20.4-13C633.8-625.2,645.3-618.2,652.2-619.2z"/>
		<path d="M599.7-649.2c-0.1-0.7-2.1-1.1-4.3-2.1c1.9,6.9,3.5,12.6,5.1,18.3C604.6-639,600.5-644,599.7-649.2z"/>
		<path d="M78.6-446.8c-11.5-8.4-21.9-18.5-32.6-28c-2.6-2.3-4.7-5.3-6.3-8.4c-5.5-10.3-2.7-19.5,7.1-25.9
			c10-6.6,20.8-10.9,32.1-14.7c6-2,11.1-6.7,16.8-9.8c6.6-3.6,13-7.8,20.1-10.1c12.3-4,23.1-0.6,28.4,12.6
			c3.9,9.5,7.1,19.5,9.1,29.5c4.7,23.2,8.6,46.5,12.8,69.8c0.2,1.2,0.5,2.5,0.6,3.7c0.5,8.4-5.2,14.5-13.6,14.5
			c-1.3,0-2.5-0.2-4.5-0.4c-11.5,1.3-22.2-3.8-32.3-9.3C103.4-430.5,90.6-438.1,78.6-446.8z M49-478.5c11.6,10.4,23.2,21,35.4,30.7
			c6.4,5.1,14.4,8.2,21.1,13c10.2,7.3,21.6,11.8,33.4,15.4c3.1,1,6.4,1.2,9.2,1.7c2.5-0.3,4.5-0.5,6.5-0.9c6.6-1.4,8.6-3.8,8-10.5
			c-0.3-3.7-1.2-7.5-2.4-11c-3.3-10.4-5.7-20.9-6.5-31.7c-0.4-5.3-0.3-10.7-1.6-15.7c-3.5-13.1-7.6-26-11.7-39
			c-0.8-2.6-2.2-5.1-3.8-7.3c-4.7-6.5-11.1-8.7-18.6-5.9c-4.9,1.8-9.6,4.4-14.2,6.9c-7.9,4.3-15.5,9.3-23.7,13.3
			c-10.2,4.9-20.9,8.8-31.1,13.6c-2.4,1.1-5.3,4-5.7,6.4C42.1-491.8,42.7-484.1,49-478.5z"/>
		<path fill="#F9F18F" d="M84.4-447.8c-12.2-9.8-23.7-20.3-35.4-30.7c-6.3-5.6-7-13.3-5.6-21c0.4-2.5,3.3-5.3,5.7-6.4
			c10.2-4.8,20.9-8.7,31.1-13.6c8.1-3.9,15.7-8.9,23.7-13.3c4.6-2.5,9.3-5.1,14.2-6.9c7.4-2.8,13.9-0.6,18.6,5.9
			c1.6,2.2,3,4.8,3.8,7.3c4.1,12.9,8.2,25.9,11.7,39c1.4,5,1.2,10.5,1.6,15.7c0.9,10.9,3.2,21.4,6.5,31.7c1.1,3.6,2,7.3,2.4,11
			c0.6,6.7-1.4,9.1-8,10.5c-2,0.4-4,0.6-6.5,0.9c-2.8-0.5-6.1-0.8-9.2-1.7c-11.8-3.7-23.2-8.1-33.4-15.4
			C98.8-439.5,90.8-442.6,84.4-447.8z M115.5-519.2c0.6,4.9,1.2,9.3,1.7,14c1.1-0.1,2.4-0.2,3.7-0.3c0.3-5.7,2.8-11.1-0.9-16.3
			C118.2-520.7,116.8-519.9,115.5-519.2z M111.5-472.9c2,7,13.5,14,20.4,13C125-464.3,118.9-468.2,111.5-472.9z M79.4-490
			c-0.1-0.7-2.1-1.1-4.3-2.1c1.9,6.9,3.5,12.6,5.1,18.3C84.3-479.7,80.2-484.7,79.4-490z"/>
		<path d="M120.9-505.4c0.3-5.7,2.8-11.1-0.9-16.3c-1.8,1-3.2,1.8-4.5,2.5c0.6,4.9,1.2,9.3,1.7,14
			C118.3-505.2,119.6-505.3,120.9-505.4z"/>
		<path d="M132-459.9c-6.9-4.4-13-8.3-20.4-13C113.5-466,125-458.9,132-459.9z"/>
		<path d="M75.1-492.1c1.9,6.9,3.5,12.6,5.1,18.3c4.1-6,0.1-10.9-0.8-16.2C79.3-490.7,77.3-491.1,75.1-492.1z"/>
		<path d="M236.4-753.4c10.2,2.7,20.6,4.5,30.9,6.5c6.4,1.3,12.9,2.1,19.3,3.5c8.1,1.9,16.1,4.1,24,6.4c7.8,2.2,13.1-4,13.5-10.3
			c0.2-4,0-8.1,0-12.1c0.4,0,0.8-0.1,1.2-0.1c-1.2-8.5-1.9-17.2-3.7-25.6h-5c0.1,0.4,0.2,0.7,0.3,1.1c1.6,5.2,2.9,10.7,3,16.2
			c0.2,6.5-0.7,13-1.6,19.4c-0.8,6-2.7,7.2-8.5,6.4c-1.5-0.2-3.2-0.2-4.4-0.9c-12.6-6.8-26.7-6.2-40.3-8.2
			c-10.2-1.5-20.4-3-30.1-6.8c-7.4-2.9-7.4-2.8-7.5-10.6c0-6,2.4-11.9,6.6-16.5h-5.5c-0.8,1.1-1.5,2.1-2.1,3.3
			C220.3-769.8,220-757.8,236.4-753.4z"/>
		<path fill="#F9F18F" d="M227.7-768.5c0-6,2.4-11.9,6.6-16.5h42c-0.1,0.2-0.1,0.3-0.2,0.5c0.2-0.2,0.3-0.3,0.4-0.5h40.2
			c0.1,0.4,0.2,0.7,0.3,1.1c1.6,5.2,2.9,10.7,3,16.2c0.2,6.5-0.7,13-1.6,19.4c-0.8,6-2.7,7.2-8.5,6.4c-1.5-0.2-3.2-0.2-4.4-0.9
			c-12.6-6.8-26.7-6.2-40.3-8.2c-10.2-1.5-20.4-3-30.1-6.8C227.8-760.8,227.7-760.7,227.7-768.5z M292.4-771.3c2.8,0.5,5.4,1,8,1.6
			c2.6,0.6,5.1,1.3,9.1,2.3C301.3-772.9,296.8-773.8,292.4-771.3z M244.9-774c4.8,2.7,9.2,5.1,13.6,7.6
			C255.5-772.6,251.6-775,244.9-774z"/>
		<path d="M309.4-767.5c-8.1-5.4-12.6-6.3-17-3.8c2.8,0.5,5.4,1,8,1.6C302.9-769.2,305.4-768.5,309.4-767.5z"/>
		<path d="M244.9-774c4.8,2.7,9.2,5.1,13.6,7.6C255.5-772.6,251.6-775,244.9-774z"/>
		<path d="M276.5-785h-0.2c-0.1,0.2-0.1,0.3-0.2,0.5C276.2-784.7,276.3-784.8,276.5-785z"/>
		<path d="M623.8-12.7c-10-12.1-22.5-21.5-34.3-31.7c-11.3-9.7-23.1-18.8-36.6-25.1c-17.6-8.3-24.3-5.9-31.3,12
			c-0.2,0.5-0.4,0.9-0.5,1.4c-5.8,18.3-7.3,37.1-8,56.1h4.8c0.5-7.3,1.2-14.7,2-22c1.5-12.2,4.7-24.2,7.3-36.2
			c0.4-1.9,1.2-3.9,2-5.7c2.5-5.2,4.7-6.2,10.1-4.7c8.2,2.3,15.1,6.4,22.3,10.6c11.8,6.9,23,14.5,33.1,23.7
			c9.9,9,19.4,18.3,28.6,27.9c2.1,2.1,3.4,4.2,4.2,6.3h4.2c-1-3.1-2.7-6.3-5.1-9.3C625.8-10.5,624.8-11.6,623.8-12.7z"/>
		<path fill="#F9F18F" d="M623.4-6.3c2.1,2.1,3.4,4.2,4.2,6.3h-30.3c-1.9-1.3-4.2-2.3-7.1-2.3c1,0.8,1.9,1.6,2.7,2.3h-75.1
			c0.5-7.3,1.2-14.7,2-22c1.5-12.2,4.7-24.2,7.3-36.2c0.4-1.9,1.2-3.9,2-5.7c2.5-5.2,4.7-6.2,10.1-4.7c8.2,2.3,15.1,6.4,22.3,10.6
			c11.8,6.9,23,14.5,33.1,23.7C604.6-25.3,614.2-15.9,623.4-6.3z M534.4-23.9c1.8,7.7,3.4,14.7,5.1,21.6
			C543.6-7.3,541.7-16,534.4-23.9z M577.3-27.8c-3,7.3-6,14.6-9.4,22.8C575.2-10.1,579.2-20.4,577.3-27.8z"/>
		<path d="M567.9-5c7.2-5.2,11.2-15.4,9.4-22.8C574.3-20.5,571.3-13.2,567.9-5z"/>
		<path d="M539.5-2.3c4.1-5,2.2-13.7-5.1-21.6C536.2-16.2,537.9-9.2,539.5-2.3z"/>
		<path d="M592.9,0h4.4c-1.9-1.3-4.2-2.3-7.1-2.3C591.2-1.4,592.1-0.7,592.9,0z"/>
		<path d="M178.5-57.1c-1.9-5.6-5.2-8.5-10.5-9.4c-2.9-0.5-6-0.8-9-0.5c-16.8,1.6-33.5,3.4-49.7,8.7C99-55,88.6-52.2,78.5-48.3
			c-10.5,4-19.3,10.7-25.8,20.2c-4.1,6-3.6,11.7-0.8,17.2C53.8-7.5,56.6-3.7,60,0h8.6c-2.6-2.3-5.3-4.6-7.9-7
			c-2.2-1.9-3.7-4.7-5.1-7.3c-2.5-4.8-1.6-9.2,1.9-13.3c4.5-5.2,9-10.3,15.3-13.6c7.2-2.9,14.2-6.3,21.6-8.5
			c19.8-6,39.8-10.8,60.5-12.7c0.2,0,0.5-0.1,0.7-0.1c16.1-1.5,19.9,0.2,20.9,17.6c0.8,15,1,30,1.1,45h7.8
			c-0.5-9.9-1.6-19.8-2.5-29.7C182-38.9,181.6-48.1,178.5-57.1z"/>
		<path fill="#F9F18F" d="M176.4-45c0.8,15,1,30,1.1,45h-71.6c-3.3-2-6.9-3.4-11-3.2c-0.2,0.5-0.3,1.1-0.5,1.6
			C95.7-1.1,97-0.5,98.3,0H68.6c-2.6-2.3-5.3-4.6-7.9-7c-2.2-1.9-3.7-4.7-5.1-7.3c-2.5-4.8-1.6-9.2,1.9-13.3
			c4.5-5.2,9-10.3,15.3-13.6c7.2-2.9,14.2-6.3,21.6-8.5c19.8-6,39.8-10.8,60.5-12.7c0.2,0,0.5-0.1,0.7-0.1
			C171.6-64.1,175.4-62.5,176.4-45z M113.8-34.4c-2.6-3.1-4.6-6.9-10.5-5.9c3,2.5,6,4.9,9.1,7.4C112.8-33.5,113.3-33.9,113.8-34.4z
			 M138.4-26.7c-1.2,6.1-2.2,11.4-3.3,16.7C140.1-16.6,140.9-21.6,138.4-26.7z M164.8-34.2c0-0.9-0.1-1.8-0.1-2.7
			c-2.7,0.5-5.4,0.9-8.1,1.4c0,0.5,0.1,1,0.1,1.5C159.4-34.1,162.1-34.2,164.8-34.2z"/>
		<path d="M135.1-10c5-6.7,5.8-11.6,3.3-16.7C137.2-20.6,136.2-15.3,135.1-10z"/>
		<path d="M94.4-1.6C95.7-1.1,97-0.5,98.3,0h7.6c-3.3-2-6.9-3.4-11-3.2C94.7-2.7,94.5-2.1,94.4-1.6z"/>
		<path d="M103.3-40.3c3,2.5,6,4.9,9.1,7.4c0.5-0.5,0.9-1,1.4-1.4C111.1-37.5,109.1-41.3,103.3-40.3z"/>
		<path d="M156.6-35.6c0,0.5,0.1,1,0.1,1.5c2.7-0.1,5.4-0.1,8.1-0.2c0-0.9-0.1-1.8-0.1-2.7C162-36.5,159.3-36,156.6-35.6z"/>
		<path d="M314.4-22.6C309.1-33.6,300.6-39.3,288-33c-3.3,1.7-7.2,2.3-10.6,4c-13.2,6.7-26.4,13.3-39.2,20.7c-3.5,2-7,5-9.5,8.3h5.5
			c2.9-3.2,6.6-5.7,10.9-7.1c7.1-2.3,13-6.2,19.2-10c8.5-5.2,17.9-9.1,27.3-12.7c5.6-2.2,11-0.1,14.3,5.4c1.8,3,3.4,6.2,4.7,9.4
			c2.1,5,4.4,9.9,6,15h5c0-0.2-0.1-0.3-0.1-0.5C319.9-8,317.8-15.7,314.4-22.6z"/>
		<path fill="#F9F18F" d="M305.9-24.4c-3.3-5.5-8.7-7.5-14.3-5.4c-9.4,3.6-18.8,7.5-27.3,12.7c-6.2,3.8-12.2,7.7-19.2,10
			c-4.3,1.4-8,3.9-10.9,7.1h42c2.6-6.3,6-9.7,11.3-11.9c-3.6,3.9-6.8,7.3-11,11.9h40.2c-1.6-5.1-3.9-10.1-6-15
			C309.3-18.2,307.8-21.4,305.9-24.4z"/>
		<path d="M276.2,0h0.2c4.2-4.5,7.4-8,11-11.9C282.2-9.7,278.9-6.3,276.2,0z"/>
		<path d="M735.1-89.2c0.2,7.7-1.1,15.6-2.7,23.2c-1.9,8.5-4.9,16.8-7.4,25.2c-0.4-0.1-0.8-0.3-1.1-0.4c-1.7,3.7-3.2,7.4-5.1,11
			c-3,5.6-10.4,8.9-16.6,3.7c-6.3-5.3-12.6-10.7-19.2-15.8c-5.2-4-10.7-7.4-16-11.3c-8.5-6.2-17.3-12.1-25.4-18.9
			c-13.1-10.9-7.8-21.6,2.9-29.9c4.2-3.2,10.1-5.1,15.4-5.6c14.7-1.4,29.5-1.8,44.3-2.4c3.7-0.2,7.5,0.9,11.3,0.8
			C729.5-110.1,734.8-101.3,735.1-89.2z M728.2-94.3c-0.7-6.4-4.7-10.5-10.8-10.8c-10-0.6-20.2-1-30.1,0.1c-7.3,0.9-14.3,1.9-21.7,1
			c-10.9-1.3-21.6,4.9-25.8,14.1c-3.2,7.1-3.1,7.1,2.4,12.8c7.2,7.5,15.8,13.1,24.5,18.8c11.5,7.5,24.6,12.8,33.2,24.3
			c0.9,1.1,2.4,1.8,3.6,2.6c5,3.2,7.3,2.9,10.4-2.2c3.4-5.5,7-11.1,9.5-17c2.1-5,3.2-10.5,4-15.9c0.8-5.7,0.8-11.5,1-17.3
			C728.6-87.3,728.5-90.9,728.2-94.3z"/>
		<path fill="#F9F18F" d="M728.2-94.3c0.4,3.5,0.5,7,0.4,10.5c-0.1,5.8-0.1,11.6-1,17.3c-0.8,5.4-1.9,11-4,15.9
			c-2.5,5.9-6.1,11.5-9.5,17c-3.2,5.1-5.5,5.4-10.4,2.2c-1.3-0.8-2.8-1.5-3.6-2.6c-8.6-11.5-21.7-16.8-33.2-24.3
			c-8.7-5.6-17.3-11.3-24.5-18.8c-5.5-5.7-5.6-5.6-2.4-12.8c4.2-9.3,14.9-15.4,25.8-14.1c7.4,0.9,14.4-0.2,21.7-1
			c9.9-1.2,20.1-0.8,30.1-0.1C723.4-104.8,727.5-100.7,728.2-94.3z M667.1-75c-0.1-6.9-2.7-10.7-9.2-12.6
			C661.1-83.2,664.1-79.2,667.1-75z M706.1-90.6c-5.9-0.2-10.4,1.5-15.6,6.4C696.6-86.7,701.1-88.5,706.1-90.6z M713.8-54.8
			c-5.1-8.3-8.8-11-13.9-10.6c2.3,1.7,4.5,3.2,6.6,4.8C708.6-59,710.6-57.4,713.8-54.8z"/>
		<path d="M699.9-65.4c2.3,1.7,4.5,3.2,6.6,4.8c2.1,1.6,4.1,3.3,7.3,5.9C708.7-63.1,704.9-65.8,699.9-65.4z"/>
		<path d="M657.9-87.7c3.2,4.4,6.2,8.5,9.2,12.6C667-82,664.4-85.7,657.9-87.7z"/>
		<path d="M690.6-84.2c6-2.5,10.5-4.3,15.6-6.4C700.3-90.8,695.7-89.1,690.6-84.2z"/>
		<path d="M36.3-591.2c9.4-4,19-7.7,29.3-9.6c9.9-1.8,19-6.9,24.1-15.6c7.7-13.2,7.7-27.3,0.7-41.2c-6.7-13.3-17.8-23.2-28.1-33.3
			c-13.1-12.8-27.6-24.2-41.9-35.6c-6.3-5-13.2-9.2-20.2-13v7.3c18.1,13.1,36.1,26.4,54,39.8c2.8,2.1,4.8,5.1,7.1,7.8
			c5.2,6.1,10.1,12.6,15.7,18.3c8.6,8.7,12.8,19.3,13.5,31.1c0.6,9.4-5.1,22.6-20.2,28.1c-4.5,1.6-9,3-13.6,4.5
			c-11.2,3.7-22.4,7.4-33.6,11.1c-7.5,2.5-15.2,2.7-23,2.6v5.9c0.9-0.1,1.8-0.2,2.6-0.4C14-585.3,25.4-586.6,36.3-591.2z"/>
		<path fill="#F9F18F" d="M0-588.9v-143.3c18.1,13.1,36.1,26.4,54,39.8c2.8,2.1,4.8,5.1,7.1,7.8c5.2,6.1,10.1,12.6,15.7,18.3
			c8.6,8.7,12.8,19.3,13.5,31.1c0.6,9.4-5.1,22.6-20.2,28.1c-4.5,1.6-9,3-13.6,4.5c-11.2,3.7-22.4,7.4-33.6,11.1
			C15.4-589.1,7.8-588.9,0-588.9z M43.1-619.7c3.1,3.1,11.9,4.4,18.8,2.5c1-0.3,1.6-1.8,2.5-3C55.4-622.7,47.4-622.5,43.1-619.7z
			 M22.7-664.3c4.8,5.3,23,14.8,26.7,13.9C41.3-656.3,32.8-661.8,22.7-664.3z"/>
		<path d="M61.8-617.2c1-0.3,1.6-1.8,2.5-3c-9-2.5-17-2.3-21.3,0.5C46.2-616.6,54.9-615.3,61.8-617.2z"/>
		<path d="M49.4-650.4c-8.2-6-16.7-11.4-26.7-13.9C27.5-659,45.8-649.5,49.4-650.4z"/>
		<path d="M19.2-111.4c4.4-4.1,9-8,13.1-12.3c7.1-7.5,13.6-15.5,20.9-22.9c8-8.1,14.8-17.1,20.7-26.8c3.2-5.2,3.2-10.3-0.3-14.8
			c-4.2-5.3-8.6-10.7-14-14.5c-9-6.4-18.7-11.9-28.5-17c-10.3-5.4-20.7-10.7-31.1-15.9v6c10.5,5,21,9.9,31.5,14.8
			c0.2,0.1,0.5,0.2,0.7,0.3c11.1,8.1,22.5,16,33.4,24.5c8.2,6.4,8.7,10.2,2.3,18.4c-7.3,9.3-14.5,18.6-23.6,26.4
			c-4.9,4.2-9.3,9.2-13.1,14.4c-6.1,8.3-14.5,13.9-22.3,20.2c-2.6,2.1-5.7,3.7-8.8,5.4v5.5c4.9-0.8,9.7-3.1,13.7-6.7
			C15.5-108.1,17.4-109.7,19.2-111.4z"/>
		<path fill="#F9F18F" d="M8.8-110.5c-2.6,2.1-5.7,3.7-8.8,5.4v-15.3c0.1-0.8,0.1-1.3,0-1.6v-107.5c10.5,5,21,9.9,31.5,14.8
			c0.2,0.1,0.5,0.2,0.7,0.3c11.1,8.1,22.5,16,33.4,24.5c8.2,6.4,8.7,10.2,2.3,18.4c-7.3,9.3-14.5,18.6-23.6,26.4
			c-4.9,4.2-9.3,9.2-13.1,14.4C25-122.3,16.6-116.8,8.8-110.5z M15.5-199.6c4,3.7,7.6,7.1,11.2,10.6c7.1,6.8,7.9,7.3,11.9,6.6
			c-6.2-6.9-12.4-13.8-19.2-21.3C18.3-202.6,17.2-201.4,15.5-199.6z M8.3-153.8c0.8,2.1,3.3,3,4.7,1.4c-2.8-7.9-5.3-15.1-8-23
			c-1,1.5-2.2,2.4-2,3C4.5-166.2,6.1-159.9,8.3-153.8z"/>
		<path d="M38.6-182.5c-6.2-6.9-12.4-13.8-19.2-21.3c-1.1,1.2-2.2,2.4-3.9,4.2c4,3.7,7.6,7.1,11.2,10.6
			C33.8-182.2,34.6-181.7,38.6-182.5z"/>
		<path d="M0-122.1v1.6C0.1-121.2,0.1-121.8,0-122.1z"/>
		<path d="M13-152.4c-2.8-7.9-5.3-15.1-8-23c-1,1.5-2.2,2.4-2,3c1.6,6.3,3.2,12.6,5.4,18.6C9.1-151.7,11.6-150.8,13-152.4z"/>
		<path d="M16.5-426.6c-0.7-8.3-3.8-15.7-8.6-22.3c-2.8-3.8-5.4-7.8-7.9-11.8v9c3.4,5.5,6.8,11,10,16.6c1.3,2.3,1.5,5.2,2.3,8.4
			c-4.1,0.9-8.2,1.6-12.3,2.3v5.7c5.5-0.8,11-1.9,16.5-3.4C16.5-423.7,16.6-425.1,16.5-426.6z"/>
		<path fill="#F9F18F" d="M10-435.1c-3.2-5.6-6.5-11.1-10-16.6v27.3c4.1-0.7,8.2-1.4,12.3-2.3C11.4-429.9,11.2-432.8,10-435.1z"/>
		<path d="M32.2-280.5c7.8,2.2,13.1-4,13.5-10.3c0.2-4,0-8.1,0-12.1c0.4,0,0.8-0.1,1.2-0.1c-1.2-8.7-1.9-17.5-3.8-26
			c-1.7-7.6-3.8-15.2-7.2-22.2c-5.3-10.9-13.8-16.7-26.4-10.4c-3,1.5-6.4,2.2-9.5,3.5v5.1c4.3-1.9,8.7-3.7,13.2-5.4
			c5.6-2.2,11-0.1,14.3,5.4c1.8,3,3.4,6.2,4.7,9.4c2.3,5.3,4.7,10.6,6.3,16.1c1.6,5.2,2.9,10.7,3,16.2c0.2,6.5-0.7,13-1.6,19.4
			c-0.8,6-2.7,7.2-8.5,6.4c-1.5-0.2-3.2-0.2-4.4-0.9c-8.5-4.6-17.8-5.8-27-6.7v4.7c2.7,0.5,5.4,1,8.1,1.6
			C16.2-285,24.2-282.7,32.2-280.5z"/>
		<path fill="#F9F18F" d="M27-286.4c-8.5-4.6-17.8-5.8-27-6.7v-37.6c3.3-3.5,6-6.4,9-9.7c-3.9,1.6-6.7,3.9-9,7.5v-20
			c4.3-1.9,8.7-3.7,13.2-5.4c5.6-2.2,11-0.1,14.3,5.4c1.8,3,3.4,6.2,4.7,9.4c2.3,5.3,4.7,10.6,6.3,16.1c1.6,5.2,2.9,10.7,3,16.2
			c0.2,6.5-0.7,13-1.6,19.4c-0.8,6-2.7,7.2-8.5,6.4C30-285.7,28.3-285.7,27-286.4z M21.9-313.3c2.6,0.6,5.1,1.3,9.1,2.3
			c-8.1-5.4-12.6-6.3-17-3.8C16.7-314.3,19.3-313.9,21.9-313.3z"/>
		<path d="M13.9-314.9c2.8,0.5,5.4,1,8,1.6c2.6,0.6,5.1,1.3,9.1,2.3C22.8-316.5,18.3-317.4,13.9-314.9z"/>
		<path d="M0-333v2.2c3.3-3.5,6-6.4,9-9.7C5.1-338.8,2.3-336.5,0-333z"/>
		<path d="M765.2-746c-7.9-0.9-13.7,3.6-15.1,11.4c-1.8,9.9-3.1,19.9-4.2,29.8c-1,8.7-1.5,17.5-2.2,26.2c0.5,0,1.1,0,1.6,0.1
			c0,8.6-0.5,17.1,0.1,25.7c1.2,16,0.9,32.2,5.2,47.9c3.2,11.4,10.4,18.5,22.1,21.4c4.2,1,8.3,1,12.3,0.5v-5.9
			c-1.8,0-3.6-0.1-5.5-0.1c-14-0.3-22.1-10.4-25.2-20.2c-3.5-11-3.1-22.4-4-33.6c-1-12.3-1.3-24.6-2.1-39.2
			c0.4-5.3,0.9-12.9,1.7-20.3c0.9-8.3,2.1-16.5,3.2-24.7c0.3-2.5,0.7-5,1.6-7.4c2.2-6.1,7.7-9,13.9-6.8c4.7,1.7,9.4,3.9,13.4,6.8
			c1,0.7,2.1,1.5,3.1,2.2v-7.3c-1.1-0.6-2.2-1.2-3.3-1.8C776.7-743.9,770.8-745.3,765.2-746z"/>
		<path fill="#F9F18F" d="M781.9-734.5c1,0.7,2.1,1.5,3.1,2.2v143.3c-1.8,0-3.6-0.1-5.5-0.1c-14-0.3-22.1-10.4-25.2-20.2
			c-3.5-11-3.1-22.4-4-33.6c-1-12.3-1.3-24.6-2.1-39.2c0.4-5.3,0.9-12.9,1.7-20.3c0.9-8.3,2.1-16.5,3.2-24.7c0.3-2.5,0.7-5,1.6-7.4
			c2.2-6.1,7.7-9,13.9-6.8C773.2-739.5,777.9-737.4,781.9-734.5z M775.3-706.3c2.1-2.1,5.5-3.7,4.6-7.7c-4.6,0.3-14,9.8-17.9,17.8
			C765.6-696.8,765.7-696.7,775.3-706.3z M783.8-622.8c-1.4-6.8-3.2-13.6-4.9-20.4c-0.4-1.5-1.3-3-2.8-6.1c-1,3.1-2,4.6-1.8,6
			c1,6.9,2.2,13.7,3.4,20.6c0.5,2.8,1.1,5.3,5.5,6.2C783.5-618.8,784.2-620.9,783.8-622.8z"/>
		<path d="M776.2-649.2c-1,3.1-2,4.6-1.8,6c1,6.9,2.2,13.7,3.4,20.6c0.5,2.8,1.1,5.3,5.5,6.2c0.3-2.3,1-4.4,0.6-6.3
			c-1.4-6.8-3.2-13.6-4.9-20.4C778.5-644.7,777.6-646.1,776.2-649.2z"/>
		<path d="M779.9-714.1c-4.6,0.3-14,9.8-17.9,17.8c3.6-0.5,3.6-0.4,13.3-10.1C777.4-708.4,780.8-710,779.9-714.1z"/>
		<path d="M741.7-254.2c-0.8,0.8-1.5,2.1-2.5,2.6c-8.2,4.2-8.3,11-6.4,18.7c0.9,3.6,1.3,7.4,1.8,11.1c2.6,17.4,4.7,34.9,8,52.2
			c2.6,13.6,6.5,26.9,10.3,40.2c1.5,5.5,3.7,11,6.4,16c2,3.7,4.8,7.3,8.2,9.7c5.2,3.8,11.5,5,17.6,4v-5.5c-0.5,0.3-0.9,0.5-1.4,0.8
			c-1.1,0.6-2.4,0.6-3.8,0.8c-6.9-1.8-13.5-4.1-16.1-11.9c-2.5-7.6-4.8-15.4-7.6-22.9c-9.8-27-14.4-55-17.2-83.4
			c-0.4-4.5-1.3-9-1.6-13.5c-0.1-2.5,0.4-5,1-7.5c1.1-3.9,2.9-5.2,6.6-4.2c7.5,2.2,15.1,3.9,21.8,8.2c5.5,3.5,11.6,5.9,17.6,8.8
			c0.2,0.1,0.5,0.2,0.7,0.3v-6c-6.2-3.1-12.5-6.1-18.7-9.1C758.4-248.5,751-253.7,741.7-254.2z"/>
		<path fill="#F9F18F" d="M784.3-229.9c0.2,0.1,0.5,0.2,0.7,0.3v107.5c0-0.1,0-0.1-0.1-0.2c-5.1-6.4-10.2-12.9-15.5-19.2
			c-0.6-0.7-2.3-0.4-4.8-0.7c6.6,8.7,11.9,16.5,20.3,22.9c0-0.5,0-0.9,0-1.3v15.3c-0.5,0.3-0.9,0.5-1.4,0.8
			c-1.1,0.6-2.4,0.6-3.8,0.8c-6.9-1.8-13.5-4.1-16.1-11.9c-2.5-7.6-4.8-15.4-7.6-22.9c-9.8-27-14.4-55-17.2-83.4
			c-0.4-4.5-1.3-9-1.6-13.5c-0.1-2.5,0.4-5,1-7.5c1.1-3.9,2.9-5.2,6.6-4.2c7.5,2.2,15.1,3.9,21.8,8.2
			C772.2-235.1,778.4-232.7,784.3-229.9z M780.5-203.3c-1.8-2.5-2.3-3.9-3.2-4.3c-3-1.4-16.4-1.5-19.5-0.4c-0.1,0.6-0.2,1.2-0.3,1.7
			C764.6-205.3,771.7-204.4,780.5-203.3z"/>
		<path d="M769.4-141.4c-0.6-0.7-2.3-0.4-4.8-0.7c6.6,8.7,11.9,16.5,20.3,22.9c0-0.5,0-0.9,0-1.3v-1.6c0-0.1,0-0.1-0.1-0.2
			C779.8-128.7,774.7-135.1,769.4-141.4z"/>
		<path d="M777.3-207.6c-3-1.4-16.4-1.5-19.5-0.4c-0.1,0.6-0.2,1.2-0.3,1.7c7.1,0.9,14.2,1.8,23,2.9
			C778.7-205.8,778.2-207.2,777.3-207.6z"/>
		<path d="M741.6-528.6c-3.2-4.7-8-5.9-13.4-4.3c-6,1.8-11.2,4.6-14.2,10.4c-7.3,14.3-19.1,25.1-28.4,38c-10,14-19.6,28-27.1,43.4
			c-2.5,5.1-2.2,10.3-1,15.5c0.8,3.3,2.7,5.9,6.5,6.5c2.5,0.4,4.9,1.5,7.3,1.6c6.2,0.4,12.7-0.4,18.7,0.7c19.9,3.7,39.7,0,59.5,0
			c11.7,0,23.4-0.2,35.3-1.9v-5.7c-16.1,2.6-31.7,3.6-47.5,3c-4.8-0.2-9.6,0.5-14.3,0.5c-11.6,0-23.1-0.1-34.7-0.3
			c-4.5-0.1-9.1-0.1-13.6-0.3c-13.5-0.8-17.2-6.5-11.9-18.8c6.1-14.2,15.4-26.5,24.3-39c2.6-3.7,5.3-7.4,7.9-11
			c1.3-1.8,2.3-4.1,4.1-5.4c8.6-6.3,12.6-16.1,18.6-24.3c1.3-1.8,2.6-3.7,4.2-5.3c2.3-2.3,5.5-3.8,8.2-2.1
			c4.6,2.9,10.1,4.5,13.2,9.6c6.8,11.2,13.8,22.2,20.7,33.3c5.8,9.2,11.6,18.2,17.4,27.4c1.1,1.8,2.2,3.5,3.3,5.3v-9
			c-4.8-7.7-9.3-15.5-13.8-23.5C762.5-499.6,751.7-513.9,741.6-528.6z"/>
		<path fill="#F9F18F" d="M781.7-457c1.1,1.8,2.2,3.5,3.3,5.3v27.3c-16.1,2.6-31.7,3.6-47.5,3c-4.8-0.2-9.6,0.5-14.3,0.5
			c-11.6,0-23.1-0.1-34.7-0.3c-4.5-0.1-9.1-0.1-13.6-0.3c-13.5-0.8-17.2-6.5-11.9-18.8c6.1-14.2,15.4-26.5,24.3-39
			c2.6-3.7,5.3-7.4,7.9-11c1.3-1.8,2.3-4.1,4.1-5.4c8.6-6.3,12.6-16.1,18.6-24.3c1.3-1.8,2.6-3.7,4.2-5.3c2.3-2.3,5.5-3.8,8.2-2.1
			c4.6,2.9,10.1,4.5,13.2,9.6c6.8,11.2,13.8,22.2,20.7,33.3C770.1-475.2,775.9-466.2,781.7-457z M724.8-448.3
			c-12.2-2.7-22.5,2.4-23.2,12.3c3.9-2.9,6.5-5.8,9.8-7.2c3.6-1.5,7.7-1.5,11.6-2.4C723.7-445.7,724.1-447.2,724.8-448.3z
			 M742.7-477.8c-5.5-2.3-10.3-3.4-14-6c-3.7-2.5-6.3-6.6-9.5-9.9c-0.5,0.4-0.9,0.7-1.4,1.1c0,0.7-0.3,1.6,0,2.1
			c4.1,7.8,11,12.3,18.9,15.2C738.1-474.8,740.3-476.7,742.7-477.8z M770.1-445.7c-4.9-6.5-12.5-11.5-17.4-11.5
			C756.4-451.3,765.8-445.1,770.1-445.7z"/>
		<path d="M719.3-493.7c-0.5,0.4-0.9,0.7-1.4,1.1c0,0.7-0.3,1.6,0,2.1c4.1,7.8,11,12.3,18.9,15.2c1.3,0.5,3.5-1.4,5.9-2.5
			c-5.5-2.3-10.3-3.4-14-6C725.1-486.4,722.4-490.4,719.3-493.7z"/>
		<path d="M701.6-436c3.9-2.9,6.5-5.8,9.8-7.2c3.6-1.5,7.7-1.5,11.6-2.4c0.8-0.2,1.2-1.7,1.9-2.8C712.6-450.9,702.3-445.9,701.6-436
			z"/>
		<path d="M752.7-457.2c3.6,5.8,13,12.1,17.4,11.5C765.2-452.2,757.6-457.2,752.7-457.2z"/>
		<path d="M744.8-336.9c-4.6,2.7-9.2,6.9-11.6,11.5c-6.3,12-6.7,24,9.8,28.4c10.2,2.7,20.6,4.5,30.9,6.5c3.7,0.7,7.4,1.3,11.1,2
			v-4.7c-4.4-0.4-8.9-0.8-13.2-1.5c-10.2-1.5-20.4-3-30.1-6.8c-7.4-2.9-7.4-2.8-7.5-10.6c-0.1-10.2,7.1-20.2,17.5-23.6
			c7-2.3,13-6.2,19.2-10c4.5-2.7,9.3-5.1,14.1-7.3v-5.1c-0.4,0.2-0.7,0.3-1,0.5C770.8-350.9,757.5-344.3,744.8-336.9z"/>
		<path fill="#F9F18F" d="M770.9-345.7c4.5-2.7,9.3-5.1,14.1-7.3v20c-0.9,1.4-1.7,3-2.5,4.9c0.9-0.9,1.7-1.8,2.5-2.6v37.6
			c-4.4-0.4-8.9-0.8-13.2-1.5c-10.2-1.5-20.4-3-30.1-6.8c-7.4-2.9-7.4-2.8-7.5-10.6c-0.1-10.2,7.1-20.2,17.5-23.6
			C758.7-338,764.6-341.9,770.9-345.7z M765-309.9c-3-6.3-6.9-8.6-13.6-7.6C756.2-314.9,760.6-312.4,765-309.9z"/>
		<path d="M751.4-317.6c4.8,2.7,9.2,5.1,13.6,7.6C762-316.2,758.1-318.5,751.4-317.6z"/>
		<path d="M785-330.7v-2.2c-0.9,1.4-1.7,3-2.5,4.9C783.4-329,784.2-329.9,785-330.7z"/>
		<path d="M486.3-566.1c2.4-4.6,7-8.9,11.6-11.5c12.8-7.4,26-14,39.2-20.7c3.3-1.7,7.2-2.3,10.6-4c12.5-6.3,21.1-0.5,26.4,10.4
			c3.4,6.9,5.5,14.6,7.2,22.2c1.9,8.5,2.6,17.3,3.8,26c-0.4,0-0.8,0.1-1.2,0.1c0,4,0.2,8.1,0,12.1c-0.4,6.3-5.7,12.5-13.5,10.3
			c-8-2.2-16-4.5-24-6.4c-6.4-1.5-12.9-2.3-19.3-3.5c-10.3-2.1-20.8-3.8-30.9-6.5C479.7-542.2,480.1-554.2,486.3-566.1z
			 M487.4-552.9c0.1,7.8,0.1,7.7,7.5,10.6c9.7,3.8,19.9,5.3,30.1,6.8c13.6,2,27.7,1.4,40.3,8.2c1.3,0.7,2.9,0.7,4.4,0.9
			c5.9,0.8,7.8-0.4,8.5-6.4c0.8-6.4,1.8-13,1.6-19.4c-0.2-5.4-1.5-10.9-3-16.2c-1.6-5.5-4.1-10.8-6.3-16.1c-1.4-3.2-2.9-6.4-4.7-9.4
			c-3.3-5.5-8.7-7.5-14.3-5.4c-9.4,3.6-18.8,7.5-27.3,12.7c-6.2,3.8-12.2,7.7-19.2,10C494.5-573.1,487.3-563,487.4-552.9z"/>
		<path fill="#F9F18F" d="M487.4-552.9c-0.1-10.2,7.1-20.2,17.5-23.6c7.1-2.3,13-6.2,19.2-10c8.5-5.2,17.9-9.1,27.3-12.7
			c5.6-2.2,11-0.1,14.3,5.4c1.8,3,3.4,6.2,4.7,9.4c2.3,5.3,4.7,10.6,6.3,16.1c1.6,5.2,2.9,10.7,3,16.2c0.2,6.5-0.7,13-1.6,19.4
			c-0.8,6-2.7,7.2-8.5,6.4c-1.5-0.2-3.2-0.2-4.4-0.9c-12.6-6.8-26.7-6.2-40.3-8.2c-10.2-1.5-20.4-3-30.1-6.8
			C487.5-545.1,487.4-545,487.4-552.9z M552.1-555.7c2.8,0.5,5.4,1,8,1.6c2.6,0.6,5.1,1.3,9.1,2.3
			C561-557.3,556.5-558.2,552.1-555.7z M535.8-568.9c4.4-4.8,7.7-8.3,11.5-12.3C541.8-579,538.4-575.5,535.8-568.9z M504.6-558.4
			c4.8,2.7,9.2,5.1,13.6,7.6C515.3-557,511.3-559.3,504.6-558.4z"/>
		<path d="M569.1-551.9c-8.1-5.4-12.6-6.3-17-3.8c2.8,0.5,5.4,1,8,1.6C562.6-553.6,565.2-552.9,569.1-551.9z"/>
		<path d="M504.6-558.4c4.8,2.7,9.2,5.1,13.6,7.6C515.3-557,511.3-559.3,504.6-558.4z"/>
		<path d="M535.8-568.9c4.4-4.8,7.7-8.3,11.5-12.3C541.8-579,538.4-575.5,535.8-568.9z"/>
	</g>
</pattern>
<rect x="-0.1" fill="#CEF982" width="650.2" height="450"/>
<rect x="-0.1" opacity="0.25" fill="url(#chips_2)" width="650.2" height="450"/>
<g>
	<text transform="matrix(1 0 0 1 196.4765 196.6127)" font-family="'ModulaOT-SansBlack'" font-size="27.2487px">HINT OF</text>
	<g>
		<g>
			<path d="M468.3,204.6c-0.7-2.4-1.4-4.9-2-7.3c-0.9-3.8-2.5-7.4-4.9-10.5c-2.4-3-5.3-5.7-7.9-8.5c-0.4-0.4-0.9-0.6-1.3-0.9
				c-1-0.6-2-1.1-2.8-1.9c-4.2-3.6-9.1-6.2-14.2-8c-8.1-2.9-16.3-5.8-25.2-5.7c-2.1,0-4.1-0.3-6.3,0.4c-4.8,1.5-9.8,2.4-14.7,3.2
				c-2.9,0.5-5.4,1.5-7.7,3.1c1.9,2.1,3.6,3.9,5.3,5.8c4.2,4.4,8.4,8.8,12.6,13.3c0.3,0.3,0.6,0.6,1,0.9c1.4,1.1,2.8,2.2,4.1,3.3
				c4.1,3.5,8,7.2,12.2,10.6c4.4,3.5,8.5,7.5,12.5,11.5c3.1,3,6.2,6,9.5,8.8c5.2,4.4,10.1,9.1,15.1,13.7c0.9,0.8,2.3,1.2,2.9,0.4
				c1.6-1.8,3.1-3.6,4.5-5.5c1-1.4,1.8-3,2.6-4.6c0.7-1.4,1.5-2.8,2-4.3c1.2-3.5,2-7.1,3.4-10.6
				C469.7,209.2,469.1,206.9,468.3,204.6z M415.5,197.6c-1.5-1.3-3-2.6-4.6-3.9c-4.1-3.2-8.4-6.2-12.2-9.7c-3.3-3-6.7-6-9.3-10.1
				c3.9-1.3,7.5-2.7,11.8-3.2c4.8,8.9,10.2,17.5,14.9,26.6C415.9,197.3,415.7,197.4,415.5,197.6z M403.2,170.4
				c5.1-1.3,9.7-0.4,14.5,0.2c1.4,10,2.3,20,2.6,30.8C414.3,190.8,410.8,179.5,403.2,170.4z M422.2,202.9c-0.1-1.9-0.3-3.8-0.4-5.7
				c-0.1-2.3,0.1-4.5,0-6.8c-0.1-2.2-0.3-4.4-0.6-6.5c-0.4-2.8-1.1-5.5-0.5-8.4c0.3-1.2-0.2-2.6-0.3-4.1c5.8,0.1,10.3,3.5,15.9,5
				c-4.6,9.2-8.9,17.9-13.2,26.5C423,202.9,422.6,202.8,422.2,202.9z M442.9,202.8c-5-0.1-10,0.4-15.1,0.4c1.7-1.6,4.1-1.8,6.1-2.9
				c2.2-1.1,4.5-2.1,6.7-3.1c2.2-1,4.4-1.9,6.5-2.9c2.2-1,4.3-2,6.5-3c3,3.7,4.5,7.8,4.5,12.6C452.9,203.4,447.9,202.8,442.9,202.8z
				 M458.5,206.3c0.6,4.7-1,8.6-2.7,12.5c-4.2-1.8-8.1-3.4-11.9-5.1c-1.1-0.5-2.1-1.3-3.1-2c-2.6-1.9-5.2-4-8.5-4.7
				c-0.3-0.1-0.6-0.3-0.8-0.9c3-0.1,6-0.4,9.1-0.4c3.5-0.1,7,0,10.5,0.1C453.6,205.8,456.1,206.1,458.5,206.3z M426.9,200.8
				c-0.1-0.2-0.3-0.3-0.4-0.5c1.1-1.9,2.2-3.8,3.3-5.7c0.7-1.2,1.6-2.3,2.2-3.5c1.9-3.8,3.7-7.6,5.5-11.3c1-2.1,2-2.6,3.6-1.2
				c3.7,3.1,7.2,6.5,10.8,9.7c0.3,0.3,0.5,0.7,1,1.6C443.7,192.7,435.9,198,426.9,200.8z M425.5,206.5c0.7,0.2,1.5,0.2,2.2,0.6
				c2.5,1.2,5.1,2.3,7.5,3.9c3.7,2.5,7.7,4.5,11.7,6.6c2.5,1.3,5.1,2.4,7.7,3.6c-0.9,3.3-4.7,4.5-4.2,8.1
				C441,222.8,433.3,214.7,425.5,206.5z M464.9,215c-1.1,5.2-3.1,10.1-5.8,14.7c-1,1.6-2.4,3.1-3.9,5c-1.3-1.4-2.3-2.4-3.5-3.6
				c2.9-2.3,5-4.9,6.7-7.8c0.4-0.7,1.2-1.1,1.7-1.5c0-1.9-0.2-3.7,0-5.5c0.4-2.9,1.3-5.8,0.9-8.8c-0.1-1.2,0.4-2.1,2-2.7
				c-1.9-0.4-2.5-1.3-2.7-2.8c-0.3-2.1-0.5-4.2-1.2-6.2c-1.6-4.3-4.1-8-7.7-11c-2.7-2.3-5.1-4.9-7.9-7c-1.9-1.5-4.3-2.4-6.5-3.4
				c-4-1.9-7.9-3.9-12.3-4.7c-0.8-0.1-1.6-0.3-2.3-0.4c-1.7-0.2-3.2-0.6-3-3.5c-0.6,1.2-0.9,1.8-1.4,2.7c-4.9-1.2-10-1.4-15-0.5
				c-5,0.9-9.9,2.4-14.9,3.6c-0.8-0.8-1.7-1.6-2.8-2.6c1.8-0.7,3.6-1.5,5.3-1.9c4.6-1.1,9.2-2.2,13.9-2.8c2.9-0.4,6,0.6,8.9,0.4
				c3.9-0.2,7.3,1.5,10.9,2.3c3.4,0.7,6.6,1.5,9.8,3c2,1,4.4,1.2,6.4,2.2c2.1,1,4,2.6,6,3.8c4.1,2.7,7.3,6.4,10.8,9.8
				c1.5,1.5,2.7,3.5,3.7,5.4c1.6,3.2,3.2,6.5,4,10.1C466,206,465.8,210.5,464.9,215z"/>
			<g>
				<path fill="#8DC63F" d="M380.6,188.1c0.5-0.8,0.9-1.7,1.4-2.4c0.5-0.6,1.4-0.5,1.4,0.2c0.1,0.9,0,2-0.5,2.7
					C382.3,189.4,381.4,189,380.6,188.1z"/>
				<path fill="#8DC63F" d="M403.5,152c1.1-0.9,2.1-1.6,3.1-2.4c1.3,1.4,0.2,2.4-0.3,3.7C405.4,152.6,403.8,154.1,403.5,152z"/>
				<path fill="#8DC63F" d="M386.9,163.3c-1.1,0-1.8,0-2.7,0c0-1.6,0.2-2.9,2.2-3.6C386.6,160.9,386.8,162,386.9,163.3z"/>
				<path fill="#8DC63F" d="M385.5,156.3c-1.1-0.2-1.8-0.4-2.6-0.6c-0.5-0.8-0.1-1.3,0.6-1.7c1-0.6,2-0.7,3,0.3
					C386.2,154.9,385.8,155.6,385.5,156.3z"/>
				<path fill="#8DC63F" d="M396.3,197.8c0.2,1.3,0.4,2.1,0.3,3c0,0.3-0.5,0.8-0.8,0.9c-0.3,0.1-0.8-0.3-1-0.5
					C393.9,199.8,394.1,199.3,396.3,197.8z"/>
				<path fill="#8DC63F" d="M431.6,233.8c-1-0.3-2-0.6-3-0.9c0.4-1.3,1.1-2.2,2.4-1.7C432.2,231.6,432.3,232.6,431.6,233.8z"/>
				<path fill="#8DC63F" d="M419.1,212.6c0.9-0.6,1.8-1.2,2.7-1.8c1,1.3,0.4,2.2-0.3,2.7c-0.5,0.4-1.4,0.1-2.2,0.1
					C419.3,213.2,419.2,212.9,419.1,212.6z"/>
				<path fill="#8DC63F" d="M399.6,202.9c0.6,0.2,1,0.4,1.6,0.6c0,0.5-0.1,0.9-0.1,1.4c-0.1,0.7,0,1.6-1,1.5c-1-0.2-1.5-1-1.2-2
					C398.9,203.9,399.3,203.5,399.6,202.9z"/>
				<path fill="#8DC63F" d="M372.9,177.4c-1.8-0.8-2.2-1.4-1.6-2.4c0.2-0.4,1-0.7,1.4-0.6C373.7,174.7,373.7,175.6,372.9,177.4z"/>
				<path fill="#8DC63F" d="M362.5,167.2c-0.1-1.1-0.6-2.3,0.4-3.2c0.2-0.2,0.9,0,1.4,0.1C364.6,166.9,364.6,166.9,362.5,167.2z"/>
				<path fill="#8DC63F" d="M392.3,151.3c1.2,0.5,1.7,0.9,1.3,1.9c-0.4,1.1-0.7,1.2-2.7,1C391.4,153.2,391.8,152.3,392.3,151.3z"/>
				<path fill="#8DC63F" d="M406.1,201.3c-0.6-0.6-1.1-1.3-1.8-2.1c0.6-0.5,1.2-0.9,1.8-1.3C407.4,199.9,407.4,199.9,406.1,201.3z"
					/>
				<path fill="#8DC63F" d="M402.4,207.9c1.2-1.6,1.2-1.6,2.8-0.7C404.4,209.6,404.3,209.7,402.4,207.9z"/>
				<path fill="#8DC63F" d="M379.2,182.7c-0.2,0.1-0.6,0.4-0.9,0.3c-0.7-0.3-1.5-0.8-2-1.3c-0.2-0.2,0.4-1,0.6-1.5
					c0.5,0.4,1.1,0.7,1.6,1.1C378.7,181.4,378.8,181.8,379.2,182.7z"/>
				<path fill="#8DC63F" d="M376.1,154.7c1.1,0.9,1.5,1.7,0.8,2.5c-0.3,0.4-1,0.5-1.6,0.7c-0.1-0.5-0.4-1.1-0.3-1.6
					C375.2,155.8,375.7,155.4,376.1,154.7z"/>
				<path fill="#8DC63F" d="M391.9,189.9c0.1-0.9,0.3-1.8,0.4-2.9c1.9,1.3,1.9,1.7,0.2,3.1C392.3,190,392.1,190,391.9,189.9z"/>
				<path fill="#8DC63F" d="M368.8,157.7c1.3,0.6,1.8,1.4,0.9,2.5c-0.2,0.3-1.3,0.4-1.5,0.1C367.1,159.2,368.1,158.5,368.8,157.7z"
					/>
				<path fill="#8DC63F" d="M368.6,169.1c0.2,0.9,0.4,1.7,0.5,2.5c0,0.2-0.4,0.6-0.6,0.7c-0.3,0.1-0.7-0.1-0.9-0.3
					C366.8,171.2,367.1,170.1,368.6,169.1z"/>
				<path fill="#8DC63F" d="M390.8,194c1.5,0.4,1.8,1.3,1.3,2.4c-0.1,0.2-1,0.5-1.3,0.3C389.6,196,390,195.1,390.8,194z"/>
				<path fill="#8DC63F" d="M399.4,151.5c-0.8,0.7-1.3,1.3-1.9,1.8c0,0-0.7-0.5-0.8-0.8c-0.2-0.8,0.6-2.1,1.2-2
					C398.3,150.6,398.7,151,399.4,151.5z"/>
				<path fill="#8DC63F" d="M383,177.3c1.4,0.1,2.2,0.6,1.9,1.8c-0.1,0.4-1,1-1.3,0.9C382.5,179.4,382.7,178.5,383,177.3z"/>
				<path fill="#8DC63F" d="M412.3,216.3c0.6-1,1.2-2,2.3-1.2c0.3,0.2,0.4,1.4,0.1,1.8C413.9,217.8,413.1,217.2,412.3,216.3z"/>
				<path fill="#8DC63F" d="M380.5,161.1c-0.2,3.2-0.4,3.3-2.6,1.8C378.1,161.6,379.5,162,380.5,161.1z"/>
				<path fill="#8DC63F" d="M399,160c-0.5-0.7-0.9-1.3-1.3-1.9c0.7-1,1.5-1.2,2.2-0.4C400.5,158.6,400.1,159.4,399,160z"/>
				<path fill="#8DC63F" d="M405.8,156.9c1,0.5,1.6,1.2,0.9,2.2c-0.2,0.2-1,0.3-1.2,0.1C404.6,158.4,404.9,157.6,405.8,156.9z"/>
				<path fill="#8DC63F" d="M421.3,225.3c0.5-0.7,0.9-1.4,1.5-2c0.1-0.1,0.9,0.5,1.7,1.1c-1.1,0.7-1.8,1.2-2.5,1.6
					C421.7,225.8,421.5,225.6,421.3,225.3z"/>
				<path fill="#8DC63F" d="M409.2,211.6c0.8,1.1,1,1.9,0,2.6c-0.3,0.2-1.2,0.1-1.4-0.1C407.2,212.8,407.9,212.1,409.2,211.6z"/>
				<path fill="#8DC63F" d="M428.3,226.8c-0.2,3.1-0.6,3.3-2.7,2.1C426.4,228.2,427.1,227.6,428.3,226.8z"/>
				<path fill="#8DC63F" d="M387.1,182c1.5,0.4,2,1.1,1.8,2.2c-0.1,0.3-1.2,0.7-1.5,0.5C386.4,184,386.9,183.1,387.1,182z"/>
				<path fill="#8DC63F" d="M385.5,189.5c1.2,0.5,1.9,1.1,1.3,2.1c-0.6,1-1.5,0.6-2.4-0.3C384.8,190.7,385.2,190.1,385.5,189.5z"/>
				<path fill="#8DC63F" d="M417.2,220.2c0.3-0.6,0.3-1.1,0.5-1.2c0.5-0.4,1.1-0.6,1.7-0.9c0.1,0,0.5,0.7,0.5,0.8
					c-0.4,0.5-0.8,1-1.3,1.4C418.4,220.4,417.9,220.3,417.2,220.2z"/>
				<path fill="#8DC63F" d="M429.4,220.1c0.4,0.8,0.9,1.4,0.9,1.9c0,0.3-0.6,0.6-1,0.9c-0.3-0.5-0.7-1.1-0.9-1.6
					C428.4,221.1,428.9,220.7,429.4,220.1z"/>
				<path fill="#8DC63F" d="M408.5,206.3c0.6-0.8,1-1.3,1.4-1.9c0.2,0,0.4,0.1,0.6,0.1c0.1,0.7,0.3,1.4,0.5,2.6
					C410,206.8,409.4,206.6,408.5,206.3z"/>
				<path fill="#8DC63F" d="M424.9,218.9c-1-0.6-1.5-1.2-0.7-2.1c0.2-0.2,0.9-0.3,1.1-0.2C425.9,217.3,425.9,218.1,424.9,218.9z"/>
				<path fill="#8DC63F" d="M391.3,161c0.4-0.9,0.7-1.4,1-2.1c0.3,0.2,0.6,0.3,0.7,0.4c0.2,0.5,0.6,1.1,0.4,1.6
					C393,161.8,392.3,161.4,391.3,161z"/>
				<path fill="#8DC63F" d="M379.9,175.2c-1.5-1.3-0.5-1.9,0.3-2.9C381.5,173.7,381,174.5,379.9,175.2z"/>
				<path fill="#8DC63F" d="M413.9,209.7c0.6-0.5,1.2-0.9,1.9-1.4c0.2,0.4,0.8,0.9,0.7,1.2c-0.4,1.1-1.3,0.8-2.2,0.7
					C414.2,210.1,414,209.9,413.9,209.7z"/>
				<path fill="#8DC63F" d="M397.8,191.3c1,0.8,1.3,1.6,0.4,2.4c-0.2,0.2-1,0.1-1.2-0.1C396.3,192.6,397,192,397.8,191.3z"/>
				<path fill="#8DC63F" d="M374.3,170c0-1.2,0-1.9,0-2.7C376.2,168.1,376.2,168.1,374.3,170z"/>
				<path fill="#8DC63F" d="M401.8,196.4c-0.7,0.5-1.2,0.9-2,1.4c-0.1-0.8-0.3-1.4-0.1-1.7C400.3,195,400.9,195.4,401.8,196.4z"/>
				<path fill="#8DC63F" d="M435.9,227.1c-0.5,0.3-0.9,0.8-1.1,0.7c-0.4-0.1-0.7-0.6-1-0.9c0.4-0.3,0.7-0.9,1-0.9
					C435.2,226.1,435.5,226.7,435.9,227.1z"/>
				<path fill="#8DC63F" d="M372.2,165.6c-1.2-1-0.2-1.5,0.6-2.1C373.1,164.2,373.2,165,372.2,165.6z"/>
			</g>
			<path fill="#A6FF1A" d="M464.9,215c-1.1,5.2-3.1,10.1-5.8,14.7c-1,1.6-2.4,3.1-3.9,5c-1.3-1.4-2.3-2.4-3.5-3.6
				c2.9-2.3,5-4.9,6.7-7.8c0.4-0.7,1.2-1.1,1.7-1.5c0-1.9-0.2-3.7,0-5.5c0.4-2.9,1.3-5.8,0.9-8.8c-0.1-1.2,0.4-2.1,2-2.7
				c-1.9-0.4-2.5-1.3-2.7-2.8c-0.3-2.1-0.5-4.2-1.2-6.2c-1.6-4.3-4.1-8-7.7-11c-2.7-2.3-5.1-4.9-7.9-7c-1.9-1.5-4.3-2.4-6.5-3.4
				c-4-1.9-7.9-3.9-12.3-4.7c-0.8-0.1-1.6-0.3-2.3-0.4c-1.7-0.2-3.2-0.6-3-3.5c-0.6,1.2-0.9,1.8-1.4,2.7c-4.9-1.2-10-1.4-15-0.5
				c-5,0.9-9.9,2.4-14.9,3.6c-0.8-0.8-1.7-1.6-2.8-2.6c1.8-0.7,3.6-1.5,5.3-1.9c4.6-1.1,9.2-2.2,13.9-2.8c2.9-0.4,6,0.6,8.9,0.4
				c3.9-0.2,7.3,1.5,10.9,2.3c3.4,0.7,6.6,1.5,9.8,3c2,1,4.4,1.2,6.4,2.2c2.1,1,4,2.6,6,3.8c4.1,2.7,7.3,6.4,10.8,9.8
				c1.5,1.5,2.7,3.5,3.7,5.4c1.6,3.2,3.2,6.5,4,10.1C466,206,465.8,210.5,464.9,215z"/>
			<path fill="#CEF982" d="M436.3,176.3c-4.6,9.2-8.9,17.9-13.2,26.5c-0.1,0.1-0.5,0.1-0.9,0.1c-0.1-1.9-0.3-3.8-0.4-5.7
				c-0.1-2.3,0.1-4.5,0-6.8c-0.1-2.2-0.3-4.4-0.6-6.5c-0.4-2.8-1.1-5.5-0.5-8.4c0.3-1.2-0.2-2.6-0.3-4.1
				C426.2,171.4,430.7,174.8,436.3,176.3z"/>
			<path fill="#CEF982" d="M452.9,189.8c-9.3,2.8-17.1,8.2-26,10.9c-0.1-0.2-0.3-0.3-0.4-0.5c1.1-1.9,2.2-3.8,3.3-5.7
				c0.7-1.2,1.6-2.3,2.2-3.5c1.9-3.8,3.7-7.6,5.5-11.3c1-2.1,2-2.6,3.6-1.2c3.7,3.1,7.2,6.5,10.8,9.7
				C452.3,188.6,452.4,189,452.9,189.8z"/>
			<path fill="#CEF982" d="M416.1,197.1c-0.2,0.2-0.4,0.3-0.6,0.4c-1.5-1.3-3-2.6-4.6-3.9c-4.1-3.2-8.4-6.2-12.2-9.7
				c-3.3-3-6.7-6-9.3-10.1c3.9-1.3,7.5-2.7,11.8-3.2C406,179.4,411.5,188,416.1,197.1z"/>
			<path fill="#CEF982" d="M420.3,201.3c-6.1-10.6-9.5-21.9-17.1-31c5.1-1.3,9.7-0.4,14.5,0.2C419.1,180.5,420,190.6,420.3,201.3z"
				/>
			<path fill="#CEF982" d="M455.9,218.8c-4.2-1.8-8.1-3.4-11.9-5.1c-1.1-0.5-2.1-1.3-3.1-2c-2.6-1.9-5.2-4-8.5-4.7
				c-0.3-0.1-0.6-0.3-0.8-0.9c3-0.1,6-0.4,9.1-0.4c3.5-0.1,7,0,10.5,0.1c2.4,0.1,4.9,0.4,7.3,0.6C459.1,211,457.5,214.9,455.9,218.8
				z"/>
			<path fill="#CEF982" d="M458.1,203.8c-5.2-0.4-10.2-1-15.1-1c-5-0.1-10,0.4-15.1,0.4c1.7-1.6,4.1-1.8,6.1-2.9
				c2.2-1.1,4.5-2.1,6.7-3.1c2.2-1,4.4-1.9,6.5-2.9c2.2-1,4.3-2,6.5-3C456.6,194.9,458.1,199,458.1,203.8z"/>
			<path fill="#CEF982" d="M450.4,229.3c-9.4-6.5-17.1-14.6-24.9-22.8c0.7,0.2,1.5,0.2,2.2,0.6c2.5,1.2,5.1,2.3,7.5,3.9
				c3.7,2.5,7.7,4.5,11.7,6.6c2.5,1.3,5.1,2.4,7.7,3.6C453.7,224.5,449.9,225.7,450.4,229.3z"/>
		</g>
		<path d="M351.5,287c-2.2-1.6-1.2-4-1.5-6c-0.4-3.1-0.2-6.3-0.4-9.5c-0.3-5.6-0.6-11.1-1.1-16.7c-0.3-3.4,0.1-6.7,0.2-10
			c0-1,0-2-0.3-3.1c-6.2,7.7-11.9,15.7-18.6,23.1c-5.7-5.9-11.2-11.5-16.7-17.2c-0.3,0.5-0.6,0.7-0.6,0.8
			c-0.3,7.4-0.5,14.8-0.7,22.2c-0.2,4.4-0.4,8.8-0.7,13.2c-0.1,1.6-1,2.3-2.5,2.4c-1.9,0.1-3.8,0.3-5.7,0.4c-4,0.2-7.9,0.4-11.9,0.5
			c-0.2,0-0.5-0.1-1-0.3c-0.1-9.5-0.3-19-0.5-28.6c-0.1-4.4-0.4-8.8-0.6-13.2c0-1.4,0.3-2.8,0.3-4.2c0.1-4.6,0.1-9.3,0.1-13.9
			c0-2.6-0.3-5.1-0.3-7.7c-0.1-3.9-0.1-7.8-0.2-11.7c0-1.1-0.2-2.3-0.2-3.4c0-0.9,0.2-1.9,0.3-2.7c0.4-0.2,0.6-0.4,0.7-0.3
			c4.7,1.2,9.5,0.2,14.2-0.1c2.3-0.1,4.5-0.5,6.8-0.6c0.6,0,1.5,0.4,1.7,0.9c1.8,4.4,4.9,7.9,7.6,11.7c2.4,3.3,4.5,6.8,6.8,10.1
			c0.9,1.3,2.1,2.4,3.4,3.8c0.9-0.9,1.7-1.7,2.4-2.5c3.9-4.7,7.8-9.3,11.7-14c0.7-0.9,1.4-1.8,1.9-2.9c1.3-2.8,3.8-4.4,5.7-6.7
			c0.4-0.5,1.4-0.6,2.1-0.7c1.7-0.1,3.5-0.1,5.3-0.2c2.5-0.1,4.9-0.3,7.4-0.5c2.1-0.2,4.2-0.6,6.3-0.9c0.9-0.1,1.8-0.2,2.8-0.3
			c-0.9,5.6-0.8,10.9-0.3,16.2c0.1,0.9-0.2,1.9-0.2,2.9c0,4.4-0.1,8.8,0,13.2c0.1,5.7,0.3,11.4,0.3,17.1c0,3-0.6,6-0.6,9
			c0.1,4.4,0.5,8.8,0.7,13.2c0.1,3.4,0.1,6.9,0.1,10.3c0,1.2,0.1,2.4,0,3.6c0,0.5-0.4,0.9-0.7,1.6c-0.5-0.7-0.8-1.2-1.3-1.8
			c-4.1,1.6-8.6,2-13.2,2.2c-1.1,0-2.3,0.2-3.4,0.7C355.4,287.2,353.4,287.1,351.5,287z M352.7,284.8c1.7-0.2,3.4,0,4.6-0.7
			c2.2-1.1,4.4-1.2,6.6-1.3c2.9-0.1,5.8,0,8.4-1.3c0.2-5.1,0.6-10,0.7-15c0.1-7,0-14,0-21c0-1-0.2-1.9-0.2-2.9c0-4.7,0-9.4,0-14.1
			c0-2,0-4,0-6c-0.1-2.5-0.2-5.1-0.2-7.6c0-4.5,0-9,0-13.5c-1.4,0-2.8-0.2-4.2,0c-3.9,0.6-7.8,1-11.8,0.6c-1.1-0.1-2.5-0.1-3.4,1
			c-3.3,4.2-6.6,8.5-9.8,12.8c-2.7,3.5-5.4,7-8,10.4c-0.7,0.9-1.5,1.7-2.1,2.6c-1.1,1.6-1.7,1.8-3.2,0.7c-0.8-0.6-1.6-1.4-2.2-2.2
			c-1.4-1.8-2.7-3.7-4-5.6c-4.1-5.5-8.4-11-12.2-16.7c-1.5-2.2-3.2-2.7-5.5-2.4c-3.9,0.4-7.9,0.6-11.9,0.9c-0.6,0-1.2,0.1-2.1,0.1
			c-0.1,1-0.3,1.9-0.2,2.9c0.1,4.7,0.3,9.4,0.5,14.1c0.1,1.9,0.2,3.9,0.2,5.8c0.1,6.3,0.3,12.6,0.2,18.8c0,4.3-0.4,8.6-0.5,12.9
			c0,5.8,0.1,11.6,0.2,17.5c0,2.9,0,5.8,0,8.8c5.5,0.6,10.8-0.8,16.2-1.3c0.2-1.1,0.6-2.1,0.6-3.2c0.3-6.3,0.5-12.5,0.6-18.8
			c0.1-5.3-0.2-10.6-0.3-15.9c0-2,0-2,2.4-2.3c5.8,5.9,11.5,11.8,17.3,17.8c1.5-1.7,2.8-3.1,4-4.6c2.5-3,5.2-5.8,7.3-9
			c2.2-3.2,5-5.7,7.5-8.5c0.3-0.3,0.7-0.6,1.1-0.8c0.9-0.6,1.8-0.4,2.1,0.7c0.4,1.6,0.9,3.2,1,4.9c0.1,5.9,0,11.8,0,17.6
			c0,2.5-0.2,4.9-0.1,7.4C352.3,273.9,352.5,279.1,352.7,284.8z"/>
		<path d="M413.8,252.3c-1.2-2.1-2.6-2-4.1-1.4c-1.2,0.4-2.4,0.7-3.6,1c-1.4,0.3-1.9,1.3-1.8,2.5c0.2,2.8,0.5,5.6,0.8,8.6
			c5.7,0.6,11.2-0.4,16.9-0.8c0.1,0.7,0.3,1.2,0.1,1.3c-1.4,1.6-0.8,3.5-0.7,5.3c0.2,3.9,0.6,7.7,0.8,11.6c0,1-0.3,1.9-0.4,2.9
			c-0.2,0-0.4,0.1-0.6,0.1c-0.4-0.8-0.9-1.6-1.3-2.4c-3.6,0.4-7.1,1.4-10.8,1.2c-3.4-0.2-6.9,0.1-10.3,0.3c-1.7,0.1-3.4,0.6-5.2,0.9
			c-2.5,0.4-5,0.8-7.6,1c-0.9,0.1-1.8-0.3-2.6-0.5c0.4-1.4,0.8-2.5,0.9-3.6c0.3-4.4,0.5-8.8,0.6-13.2c0.1-3.4-0.1-6.9-0.1-10.4
			c0-1.3,0.1-2.6,0-3.9c-0.2-6.2-0.5-12.3-0.8-18.5c0-0.5,0.1-1,0.1-1.6c0.1-1.5,0.3-3,0.3-4.5c0-4-0.4-8-0.1-11.9
			c0.4-4.6-0.7-9.1-0.1-13.7c0.1-0.6,0-1.2-0.1-1.8c-0.4-2.2-0.1-2.7,2.3-2.9c2.6-0.2,5.3,0.1,8-0.1c3.8-0.2,7.5-0.6,11.3-0.9
			c1.3-0.1,2.6-0.2,4-0.2c2.3-0.1,4.6,0.2,6.8-0.4c2.4-0.7,4.8-1,7.2-1.2c0.2,0,0.5,0.1,0.7,0.1c0.1,0.2,0.4,0.3,0.3,0.5
			c-0.4,3.6-0.2,7.1,0.3,10.7c0.4,2.9-0.2,6-0.3,8.9c-6.6,3.2-13.9,3.2-20.8,5.4c-0.1,3.4-0.2,6.7-0.3,10.1c0,1,0.6,1.5,1.5,1.5
			c2.3-0.1,4.7,0.1,6.4-2c2.1,1.2,2.7,3,2.6,5.4c-0.1,2.5,0.3,5.1,0.4,7.6c0.1,2.5,0.1,4.9,0,7.4C414.5,251,414.2,251.3,413.8,252.3
			z M401.8,235.4c-0.2-4.3-0.3-8-0.4-11.7c0-1-0.1-1.9-0.3-2.9c-0.3-1.5,0.5-2.7,2-2.8c0.8-0.1,1.6-0.1,2.3-0.3
			c2.8-0.6,5.7-1.4,8.5-1.8c2.5-0.3,4.5-1.4,6.7-2.4c1.2-0.5,1.6-1.5,1.4-2.8c-0.2-1.3-0.6-2.7-0.4-3.9c0.5-3.2-0.8-5.9-1.7-8.8
			c-3.8,0.3-7.4,1.4-11.1,1.6c-1.9,0.1-3.6-0.3-5.4-0.1c-3.3,0.4-6.6,0.7-9.9,1c-2.2,0.2-4.3,0.5-6.7,0.8c-0.2,5.5-0.3,11-0.5,16.6
			c0,1.6-0.4,3.2-0.3,4.7c0.5,4.8,1,9.6,1,14.4c0,4.6,0.7,9.2,0.3,13.8c-0.2,1.6-0.5,3.1-0.5,4.7c-0.1,6.3-0.1,12.7-0.1,19
			c0,2.3,0.1,4.7,0.2,7.4c1.8-0.2,3.4-0.3,4.9-0.5c2.3-0.3,4.7-0.8,7-1c2.7-0.2,5.5-0.1,8.2-0.3c3.2-0.2,6.3-0.6,9.5-1
			c0.8-0.1,1.7-0.4,2.2-0.5c0.1-3,0.3-5.7,0.4-8.4c0-0.6,0.1-1.6-0.2-1.8c-1.6-0.7-0.6-2.3-1-3.3c-2.4,0.1-4.7,0.3-6.9,0.4
			c-2.5,0.1-4.9,0.3-7.4,0.3c-0.4,0-0.9-0.4-1-0.4c0.1-3,0.2-5.8,0.1-8.5c0-1.2,0.3-2.7-1.3-3.5c-0.2-0.1-0.4-1.1-0.1-1.4
			c0.6-0.9,1-1.9,2.4-2.1c2.2-0.4,4.4-1.3,6.6-2c1.5-0.5,2.1-1.6,1.9-3.1c-0.3-2.9-0.6-5.8-1-8.7c-0.2-1.4-0.9-1.8-2.2-1.5
			C406.9,234.8,404.5,235,401.8,235.4z"/>
		<path d="M276,201.2c1.4,1.9,1.4,4,1.4,6.3c0,6.7,0.2,13.4,0.3,20.1c0,2.7-0.1,5.4-0.2,8.1c0,1.5,0.1,3,0.2,4.4
			c0,3.5,0.5,7.1-0.1,10.5c-0.8,4.9,0.2,9.6-0.1,14.4c-0.3,4.8-0.1,9.7,0,14.6c0,1.7,0.1,3.5,0,5.2c-0.2,2.1-0.6,2.4-2.6,2.4
			c-2.7,0-5.5-0.1-8.2,0c-1.6,0-3.2,0.2-4.7,0.4c-0.5,0.1-1,0.6-1.7,1.1c-0.2-0.7-0.4-1.3-0.5-1.9c-0.2-4.6-0.4-9.2-0.5-13.8
			c0-0.5,0.1-1.1-0.1-1.6c-1.9-6.4-0.7-13-0.5-19.5c0.1-4.1,0.3-8.1,0.1-12.2c-0.2-6.9-0.8-13.7-1.1-20.6
			c-0.2-5.5-0.1-11.1-0.1-16.6c0-0.3,0.1-0.7,0.2-1c0.1-0.2,0.3-0.4,0.6-0.8c0.3,0.2,0.5,0.4,0.7,0.6c0.2,0.2,0.3,0.5,0.4,0.8
			c2.8,0,5.7-0.5,8.4,0.1C270.9,202.9,273,200.3,276,201.2z M275.7,283.7c-0.2-1.6-0.4-3-0.4-4.4c0-2,0.1-4,0.1-6
			c0-5.4-0.1-10.8-0.1-16.2c0-1.4,0.2-2.8,0.3-4.2c0.1-1.5,0.3-3,0.3-4.5c-0.1-7.1-0.4-14.3-0.5-21.4c-0.1-5.3,0-10.6,0-15.9
			c0-2.5-0.3-5.1-0.4-7.3c-2.1,0.1-3.9,0.3-5.7,0.3c-2.6,0-5.1-0.2-7.7-0.4c-1.1-0.1-1.7,0.3-1.7,1.5c0.1,2.2,0.1,4.3,0.1,6.5
			c0.2,6.3,0.3,12.5,0.5,18.8c0,1.5-0.1,3,0,4.5c0.4,3.7,1,7.3,0.4,11c-0.1,0.5,0,1.1,0,1.6c0.1,4.2,0.3,8.4,0.4,12.6
			c0.1,5.4,0.2,10.8,0.3,16.2c0.1,2.5,0.3,5.1,0.4,8c1.8-0.1,3.5-0.2,5.1-0.4c1.8-0.1,3.8-0.7,5.5-0.3
			C273.8,284.1,274.6,284,275.7,283.7z"/>
		<path d="M254.2,209.6c0.8,1.3,0.9,2.6,0.4,3.9c-0.3,0.9-1,0.9-1.6,0.4C251.2,212.3,251.7,210.5,254.2,209.6z"/>
		<path d="M280.2,221.8c2.4,0.3,3.2,1.4,2.6,3.1c-0.2,0.4-0.8,0.9-1.2,1c-0.7,0.1-1.5-0.2-1.5-1.1
			C280,223.9,280.1,222.9,280.2,221.8z"/>
		<path d="M401.6,291.9c0,2.1-0.6,3.4-1.8,3.6c-0.5,0.1-1.2,0-1.4-0.4c-0.2-0.3-0.1-1,0.1-1.4C399.2,292.7,400.1,291.7,401.6,291.9z
			"/>
		<path d="M386.9,294.7c0.8-0.6,1.3-1.2,2-1.6c0.3-0.2,1.1-0.1,1.3,0.2c0.6,0.6-0.1,2.5-1.2,3.2c-0.9,0.5-1.5,0-1.8-0.9
			C387.2,295.4,387.1,295.2,386.9,294.7z"/>
		<path d="M417.7,220.5c0.8,0.2,1.7,0.2,1.5,1.4c-0.3,1.3-1.4,2.5-2.4,2.4c-1-0.1-1.1-0.9-0.8-1.5
			C416.3,221.9,417,221.3,417.7,220.5z"/>
		<path d="M256.6,279.8c0.3,1.2,0.5,2.2,0.9,3.5c-1.3,0-2.3,0-3.4,0C254.5,281.8,254.4,280.3,256.6,279.8z"/>
		<path d="M250,265c-2.5-1.3-2.6-2.7-0.3-4.3C251.2,262.9,251.2,263.1,250,265z"/>
		<path d="M254.8,269.5c-1.7-1.8-1.7-2,0.1-4.1C257,267.2,257,267.6,254.8,269.5z"/>
		<path d="M254.1,218.6c0.9,0,1.4,0.6,1.2,1.4c-0.2,0.9-0.3,2.1-1.6,2.1c-0.9,0-1.2-0.6-1.2-1.4
			C252.5,219.4,253.2,218.6,254.1,218.6z"/>
		<path d="M248.5,237.8c1.2,0.8,1.4,1.8,1.2,2.9c-0.1,0.4-0.6,0.9-1,1c-0.4,0.1-1-0.3-1.2-0.7C246.8,239.8,247.1,238.7,248.5,237.8z
			"/>
		<path d="M255.9,292.2c-1.9-1.8-1.8-3.2,0-4.7C257.2,288.9,256.7,290.4,255.9,292.2z"/>
		<path d="M285.8,203.4c1.6,2.4,1.5,2.7-0.5,4C283.8,205.1,283.8,204.9,285.8,203.4z"/>
		<path d="M381.7,237.4c-1.3,0.4-2.4,0.4-2.6-0.8c-0.3-1.4,0.8-2.1,2.3-3.1C381.6,235.2,381.7,236.4,381.7,237.4z"/>
		<path d="M345.1,286.4c1.4,0.8,1.6,1.8,1.5,2.9c0,0.4-0.8,0.8-1.2,0.9c-0.8,0.1-1.5-0.3-1.3-1.2
			C344.2,288.1,344.7,287.3,345.1,286.4z"/>
		<path d="M252.7,251.4c0.8-1.2,0.9-2.8,2.4-2.1c0.5,0.2,1,1.9,0.7,2.4C254.9,253.1,253.9,251.8,252.7,251.4z"/>
		<path d="M281.9,229.9c0.1,1,0.3,2.1,0.4,3.2c-1.4,0.6-2.2,0.3-2.6-0.8c-0.4-1.3,0.6-1.9,1.4-2.5
			C281.4,229.8,281.6,229.8,281.9,229.9z"/>
		<path d="M248.3,251.6c1.8,1.1,1.8,2.3,1.8,3.4c0,0.4-0.6,0.7-0.9,1.1c-0.3-0.3-0.8-0.5-0.9-0.8
			C248.3,254.2,248.3,253.1,248.3,251.6z"/>
		<path d="M248.5,216.8c1.6,0.8,1.5,1.8,1.2,2.7c-0.2,0.5-1,1-1.6,0.9c-0.8-0.1-1.1-0.8-0.8-1.6
			C247.6,218.1,248.1,217.5,248.5,216.8z"/>
		<path d="M263.7,296.7c-0.6,0.8-1.2,1.6-1.8,2.5c-1.3-0.5-1.8-1.2-1.2-2.3C261.2,295.9,262.3,295.8,263.7,296.7z"/>
		<path d="M406.9,256c-0.4-2.7-0.1-3.1,2.4-3.1C409.4,254.9,409.1,255.2,406.9,256z"/>
		<path d="M285.7,271.6c1.5,1.2,2.3,2,1.4,3.3c-0.2,0.3-0.9,0.7-1.2,0.6c-0.4-0.1-0.9-0.7-0.9-1.1
			C285,273.6,285.4,272.8,285.7,271.6z"/>
		<path d="M339.7,285.3c-1.2,0.2-1.6-0.5-1.7-1.5c-0.2-1.2,1-1.5,1.7-2.1C340.6,283.2,340.6,283.2,339.7,285.3z"/>
		<path d="M298.9,291.8c0-1.9,0.8-2.9,2.4-3.4C301.8,290.5,301.2,291.3,298.9,291.8z"/>
		<path d="M345.4,278.7c1.4,2.5,1.2,3.1-1.4,3.6C343.8,280.8,344.2,279.6,345.4,278.7z"/>
		<path d="M338.9,298.8c-0.9-1.8-0.7-2.4,1.4-3.6C341.3,296.9,341.3,296.9,338.9,298.8z"/>
		<path d="M380.9,207.6c1.2,2.5,0.9,3.3-1.2,4.2C379.3,210.3,379.5,209,380.9,207.6z"/>
		<path d="M382,219.6c-1-0.6-1.7-1-2.7-1.7c0.5-0.6,1-1.3,1.5-2C382.4,217.1,382.5,217.1,382,219.6z"/>
		<path d="M410.5,224.3c-0.2-1.8-0.2-3.1,1.7-3.5C413.3,222.5,412.9,223.5,410.5,224.3z"/>
		<path d="M339.9,290c1.1,1.6,1.1,1.8-0.4,3.5C337.7,291.8,337.7,291.6,339.9,290z"/>
		<path d="M339.5,267.2c1.3,0.9,1.8,1.7,1.3,2.8c-0.2,0.4-0.8,1-1,1c-0.5-0.2-1.2-0.7-1.2-1.1C338.7,269.1,339.1,268.2,339.5,267.2z
			"/>
		<path d="M282,293.9c-2.3-0.7-2.4-1.8-0.4-3.5C283,291.4,281.7,292.7,282,293.9z"/>
		<path d="M381.6,252.7c-0.3,1-0.6,1.8-1,3c-0.9-0.4-1.8-0.8-2.6-1.2C379.5,252.7,379.5,252.7,381.6,252.7z"/>
		<path d="M293.4,298.5c0-0.9-0.2-1.4-0.1-1.9c0.2-0.5,0.6-1.3,0.9-1.3c0.4-0.1,1.3,0.5,1.4,0.9c0.1,0.5-0.1,1.3-0.5,1.8
			C295,298.3,294.3,298.3,293.4,298.5z"/>
		<path d="M380.6,243.9c0.9,2.8,0.8,3-1.6,3.4C378.8,245.2,378.8,245.2,380.6,243.9z"/>
		<path d="M248.9,210.2c1.1,1.1,1.2,2.2,0.6,3.4c-1.2,0.4-1.9-0.3-2.2-1.1C247,211.4,247.7,210.7,248.9,210.2z"/>
		<path d="M380.8,200.1c1.8,1,2.3,1.9,1.1,3.5c-0.7-0.2-1.5-0.5-2.6-0.9C379.8,201.9,380.2,201.1,380.8,200.1z"/>
		<path d="M336.9,261c0.7-1,1.3-1.8,2.3-0.7c0.8,0.8,0.4,1.7-0.9,2.8C337.8,262.4,337.3,261.7,336.9,261z"/>
		<path d="M248,231.4c1.2,1.2,1.8,2.2,0.4,3.4C246,233.1,246,232.8,248,231.4z"/>
		<path d="M286.1,237.3c1.3,1.1,1,2.2,0.4,3.1c-0.2,0.3-1.1,0.3-1.6,0.1c-0.2,0-0.3-1-0.2-1.3C285,238.6,285.6,238,286.1,237.3z"/>
		<path d="M378.7,283.8c0.7-0.8,1.1-1.4,1.6-2c1.4,1.3,1.8,2.2,1.1,2.8C380.3,285.5,379.7,284.5,378.7,283.8z"/>
		<path d="M406.7,285.1c0.7,1.9-0.3,2.8-1.6,3.5C404.1,286.6,404.1,286.4,406.7,285.1z"/>
		<path d="M281,212.8c1.7,1.7,1.4,3.1,1,5C280.2,216.2,280.5,214.8,281,212.8z"/>
		<path d="M280.5,203.2c0.5,1.9,0.8,3.1,1.1,4.6c-0.6-0.1-1.4-0.1-1.5-0.3C279.6,206.3,279.2,205,280.5,203.2z"/>
		<path d="M393.5,297.2c-0.1-1.8-0.4-3.3,1.5-3.9C395.7,295.4,395.5,296,393.5,297.2z"/>
		<path d="M254.2,242.2c0.1,0.8,0.4,1.6,0.4,2.4c0,0.3-0.8,0.9-1,0.8c-0.5-0.2-1.1-0.8-1.1-1.1c0.1-0.7,0.6-1.4,0.9-2.1
			C253.6,242.2,253.9,242.2,254.2,242.2z"/>
		<path d="M286.7,223.4c0.2,1.3-0.1,2-1,1.8c-0.5-0.1-1.1-0.6-1.2-1.1c-0.3-0.7,0.8-2.1,1.4-1.8
			C286.3,222.5,286.6,223.2,286.7,223.4z"/>
		<path d="M381.8,294.5c1.1,1.1,1,2.1,0.6,2.9c-0.2,0.4-1,0.5-1.5,0.7c-0.1-0.4-0.5-1-0.4-1.3C380.8,296,381.3,295.4,381.8,294.5z"
			/>
		<path d="M382,263.2c-0.7-0.1-1.3-0.2-2-0.4c0.2-0.8,0.3-1.5,0.7-2c0.2-0.3,0.8-0.5,1.2-0.7c0.2,0.4,0.6,0.9,0.6,1.3
			C382.6,262,382.3,262.6,382,263.2z"/>
		<path d="M346.4,268.4c-2.6-1.3-2.7-2.4-0.8-4.3C345.9,265.6,346.1,266.8,346.4,268.4z"/>
		<path d="M250.2,292.4c0.7,1.6,0.5,2.7-0.5,3.8C248.4,294.5,248.4,294.3,250.2,292.4z"/>
		<path d="M287.4,280.5c-0.1,0.8-0.1,1.6-0.4,2.3c-0.1,0.3-1,0.3-1.5,0.5c-0.1-0.5-0.5-1-0.3-1.3c0.3-0.7,0.9-1.2,1.4-1.8
			C286.8,280.3,287.1,280.4,287.4,280.5z"/>
		<path d="M287.3,288.3c0,1,0.1,1.9,0.1,2.9c0,0.2-0.5,0.5-0.7,0.6c-0.3,0-0.7-0.3-0.8-0.5c-0.2-1.1-0.5-2.2,0.6-3
			C286.8,288.2,287.1,288.2,287.3,288.3z"/>
		<path d="M286.1,261.9c1,1,2.1,1.8,0.9,3c-0.3,0.3-1.3,0.4-1.6,0.1C284.4,264,285.3,263.1,286.1,261.9z"/>
		<path d="M299.8,299.4c-0.5-0.3-1.3-0.5-1.5-0.9c-0.3-0.8,0.5-1.7,1.8-2.2c0.1,0.9,0.1,1.7,0.2,2.5
			C300.1,299,300,299.2,299.8,299.4z"/>
		<path d="M405.4,225.4c-0.5-1.7,0-2.6,1.4-3.1C407.7,223.9,407.5,224.3,405.4,225.4z"/>
		<path d="M394.7,289.1c-0.9-2.4-0.8-2.5,1.4-3.6C396.4,287,396.1,288.1,394.7,289.1z"/>
		<path d="M400.3,288.8c-0.2-0.3-0.6-0.7-0.6-1.1c-0.1-0.9,0.9-2.2,1.6-2c0.3,0.1,0.8,0.7,0.7,1
			C401.9,287.5,401.9,288.6,400.3,288.8z"/>
		<path d="M354.3,292.3c0.1,0.8,0.4,1.5,0.2,2c-0.1,0.5-0.7,0.8-1.1,1.2c-0.4-0.4-0.9-0.9-1-1.4
			C352.2,293.4,352.5,293.1,354.3,292.3z"/>
		<path d="M254.2,297.5c0.5-0.7,1.1-1.5,1.7-2.3c0.9,1,1.4,1.9,0.7,2.7c-0.3,0.4-1.3,0.3-2,0.4C254.4,298,254.3,297.7,254.2,297.5z"
			/>
		<path d="M340.3,275c0.1,0.8,0.3,1.5,0.3,2.3c0,0.3-0.8,0.8-1.1,0.7c-0.3-0.1-0.9-0.7-0.8-1c0.1-0.7,0.5-1.3,0.8-2
			C339.7,275,340,275,340.3,275z"/>
		<path d="M381.6,225.2c0.4,0.9,0.8,1.3,0.8,1.8c0.1,0.4-0.1,1-0.3,1.4c-0.2,0.2-1,0.2-1.1,0c-0.4-0.4-0.8-1-0.7-1.5
			C380.4,226.4,381,225.9,381.6,225.2z"/>
		<path d="M295.4,291.1c-1,1-1.6,1.5-2.3,2.2c-1-1.2-0.9-2.1,0-2.8C293.4,290.2,294.3,290.7,295.4,291.1z"/>
		<path d="M286.5,254.3c1.1,1.5,1.1,1.5-0.4,2.9C284.6,255.9,284.6,255.9,286.5,254.3z"/>
		<path d="M257.1,257.9c-0.7,0.6-1.2,1-1.6,1.4c-0.3-0.5-0.9-1.1-0.9-1.6c0-0.4,0.6-0.9,0.9-1.3
			C255.9,256.8,256.3,257.2,257.1,257.9z"/>
		<path d="M248.5,249.4c-0.6-1-1-1.5-1-1.9c0.1-0.6,0.6-1.1,0.9-1.6c0.4,0.5,1.1,0.9,1.1,1.4C249.6,247.8,249.1,248.4,248.5,249.4z"
			/>
		<path d="M279.9,241.4c0.3-1.3,0.5-2.4,0.8-3.7C282.4,239.4,282.2,240.6,279.9,241.4z"/>
		<path d="M252.4,229.5c0.1-0.6,0-1.3,0.3-1.5c0.4-0.4,1.1-0.6,1.7-0.8c0.1,0,0.7,0.8,0.6,1c-0.3,0.6-0.7,1.1-1.2,1.5
			C253.6,229.9,253,229.6,252.4,229.5z"/>
		<path d="M284.9,213.6c0.5,0.3,0.7,0.3,0.9,0.5c0.9,0.8,0.2,1.6-0.1,2.4c-0.1,0.2-0.9,0.2-0.9,0.2c-0.2-0.6-0.4-1.3-0.4-1.9
			C284.4,214.4,284.7,214.1,284.9,213.6z"/>
		<path d="M249,224.6c0.3,1.3,0.5,2.2,0.6,3c-0.8,0.8-1.4,0.6-1.8-0.2C247.3,226.4,247.4,226,249,224.6z"/>
		<path d="M282.2,295.8c0.8,1.2,0.9,2.1,0.1,3C280,297.6,280,297.3,282.2,295.8z"/>
		<path d="M285.9,229.9c0.3,0.8,0.5,1.2,0.5,1.6c0,0.5-0.1,1-0.4,1.4c-0.1,0.2-1,0.1-1.1-0.1c-0.3-0.5-0.5-1.1-0.4-1.6
			C284.6,230.8,285.2,230.5,285.9,229.9z"/>
		<path d="M381.2,287.8c0.9,0.9,1.3,1.7,0.4,2.6c-0.2,0.2-1.1,0.1-1.3-0.2C379.7,289.2,380,288.4,381.2,287.8z"/>
		<path d="M360.4,287.4c0.2,0.6,0.4,1.1,0.3,1.4c-0.1,0.5-0.4,1-0.8,1.4c-0.1,0.1-0.8-0.1-0.9-0.3c-0.1-0.5-0.2-1.2-0.1-1.7
			C359.2,288,359.8,287.8,360.4,287.4z"/>
		<path d="M352.6,287.9c-0.1,1,0,1.5-0.2,2c-0.2,0.4-0.5,0.8-0.9,1.1c-0.2,0.1-0.8-0.2-0.8-0.4c-0.1-0.5-0.2-1.1,0-1.4
			C351,288.6,351.6,288.4,352.6,287.9z"/>
		<path d="M281.4,279.8c1.6,1.8,1.6,2.1,0,3.2C280.3,282.1,280.7,281.1,281.4,279.8z"/>
		<path d="M254,275.9c0.3-0.9,0.3-1.3,0.6-1.7c0.3-0.4,0.7-0.7,1.1-0.9c0.2-0.1,0.7,0.4,0.7,0.6c0,0.5,0,1.2-0.3,1.4
			C255.6,275.7,254.9,275.7,254,275.9z"/>
		<path d="M316.3,258.3c-0.8-1.3-0.9-2.3-0.2-3.5C318.2,256.6,318.2,256.6,316.3,258.3z"/>
		<path d="M283.1,256.2c-0.7,0.7-1.2,1.2-1.8,1.6c-0.1,0.1-1-0.8-1-0.9c0.4-0.6,0.9-1.2,1.4-1.7
			C281.8,255.1,282.4,255.7,283.1,256.2z"/>
		<path d="M375.2,293.9c0.7,1.1,0.9,2.1-0.2,2.8c-0.2,0.1-0.8,0-0.9-0.2C373.4,295.3,374,294.5,375.2,293.9z"/>
		<path d="M345.5,257.6c0.3,1.1,0.6,1.7,0.6,2.3c0,0.9-0.7,1.3-1.4,0.9c-0.3-0.2-0.6-1-0.5-1.4C344.2,258.8,344.8,258.4,345.5,257.6
			z"/>
		<path d="M411,225.2c1.3,2.3,1,3-1.3,3.5C410.1,227.5,410.5,226.5,411,225.2z"/>
		<path d="M323.1,266.3c0.3-0.9,0.5-1.7,0.8-2.6c1.2,0.4,1.4,1.2,1.2,2.1C324.9,266.7,324.1,266.6,323.1,266.3z"/>
		<path d="M381.1,279c-1-1-1.6-1.8-0.5-2.8c0.2-0.2,0.9-0.2,1.1,0C382.4,277.1,382.2,278,381.1,279z"/>
		<path d="M250.9,285.2c0.3,1.5,1,2.4-0.4,3c-0.3,0.1-1-0.1-1.1-0.4C249,286.6,249.9,286.1,250.9,285.2z"/>
		<path d="M374.6,287.8c0.4,1.2,0.2,2.2-0.8,3C372.5,289.2,372.7,288.6,374.6,287.8z"/>
		<path d="M282,262.7c0.2,0.9,0.3,1.2,0.3,1.6c-0.1,0.6-0.4,1.3-0.6,1.9c0,0.1-0.7,0-0.7,0c-0.1-0.7-0.2-1.5-0.1-2.2
			C280.8,263.6,281.3,263.3,282,262.7z"/>
		<path d="M387.6,290.4c-0.2-0.2-0.3-0.2-0.4-0.3c-0.3-1-0.3-1.9,0.8-2.4c0.2-0.1,0.8,0.2,0.8,0.4
			C389.1,289.2,388.7,290,387.6,290.4z"/>
		<path d="M361.9,293.8c-0.7,0.6-1.2,1.1-1.7,1.3c-0.2,0.1-1-0.8-0.9-1.1c0.1-0.5,0.7-1,1.1-1.5
			C360.8,292.8,361.2,293.2,361.9,293.8z"/>
		<path d="M346.2,250.5c-0.2,0.9-0.3,1.8-0.7,2.5c-0.1,0.2-1-0.1-1.7-0.1C344.2,251.5,344.5,250.5,346.2,250.5z"/>
		<path d="M286.2,246.8c0.9,0.8,1.2,1.7,0.3,2.5c-0.2,0.2-1.3,0-1.5-0.4C284.4,247.8,285.4,247.4,286.2,246.8z"/>
		<path d="M405.3,295.5c-1.7-1.4-1.7-1.5-0.3-3C405.8,293.3,405.9,294.2,405.3,295.5z"/>
		<path d="M346.7,294.1c0.6,1.4,0.7,2.5-1,3.3C345.4,296,344.9,294.8,346.7,294.1z"/>
		<path d="M256.2,235.3c-1.1,0.5-1.6,1-2,0.8c-0.4-0.1-0.8-0.8-0.8-1.3c0-0.3,0.7-1,0.9-0.9C254.8,234.1,255.3,234.6,256.2,235.3z"
			/>
		<path d="M280.4,245.9c1.8,1.5,1.8,1.6-0.4,3.6C280.2,248.1,280.3,247.2,280.4,245.9z"/>
		<path d="M320.6,259.2c1.4,1.1,1.7,1.8,0.9,2.6c-0.2,0.2-0.9,0-1.3,0C320.2,261.1,320.4,260.4,320.6,259.2z"/>
		<path d="M381.2,268c1,0.7,1.3,1.5,0.5,2.2c-0.2,0.2-1.1,0.1-1.3-0.1C379.6,269.3,380.2,268.6,381.2,268z"/>
		<path d="M281.3,272.4c1.2,0.5,1.6,1.2,1.1,2.2c-0.1,0.2-1.1,0.4-1.3,0.2C280.3,274,280.5,273.2,281.3,272.4z"/>
		<path d="M345.5,273.4c1.3,1.6,1.2,1.6-0.9,2.2C344.2,274.6,344.5,273.9,345.5,273.4z"/>
		<path d="M287.5,298.5c0.7-1.2,1.1-2,1.6-2.9C290,298,289.9,298.1,287.5,298.5z"/>
		<path d="M261.3,291.8c0.1-0.9,0.2-1.6,0.3-2.4c1.3-0.1,1.5,0.6,1.5,1.3C263,291.6,262.4,291.8,261.3,291.8z"/>
		<path d="M269.3,291.6c-0.6-1.1-0.6-1.9,0.4-2.4c0.2-0.1,0.8,0.1,0.9,0.3C271,290.5,270.5,291.1,269.3,291.6z"/>
		<path d="M316,260.7c1,1.9,1,1.9,0.1,2.9C314.9,262.8,315.8,262,316,260.7z"/>
		<path d="M406.2,227.1c1.2,1.3,1.3,2.1,0.5,2.8c-0.1,0.1-0.9-0.1-0.9-0.1C405.9,229.1,406.1,228.3,406.2,227.1z"/>
		<path d="M319.3,266.6c0.9,0.4,1.5,1,0.7,2c-0.1,0.2-0.7,0.3-0.9,0.2C318.4,268.1,318.3,267.3,319.3,266.6z"/>
		<path d="M268.6,295.1c0.5,1,0.5,1.9-1.6,2.3c0.4-1.1,0.6-1.8,0.8-2.5C268.2,294.9,268.4,295,268.6,295.1z"/>
		<path fill="#A6FF1A" d="M352.7,284.8c-0.2-5.6-0.4-10.9-0.5-16.2c-0.1-2.5,0.1-4.9,0.1-7.4c0-5.9,0.1-11.8,0-17.6
			c0-1.6-0.5-3.3-1-4.9c-0.3-1-1.2-1.2-2.1-0.7c-0.4,0.2-0.8,0.5-1.1,0.8c-2.5,2.8-5.3,5.3-7.5,8.5c-2.2,3.2-4.9,6-7.3,9
			c-1.2,1.5-2.5,2.9-4,4.6c-5.8-6-11.5-11.9-17.3-17.8c-2.3,0.3-2.4,0.3-2.4,2.3c0.1,5.3,0.3,10.6,0.3,15.9
			c-0.1,6.3-0.4,12.6-0.6,18.8c0,1-0.4,2-0.6,3.2c-5.5,0.5-10.7,1.9-16.2,1.3c0-3,0-5.9,0-8.8c-0.1-5.8-0.2-11.6-0.2-17.5
			c0-4.3,0.4-8.6,0.5-12.9c0-6.3-0.1-12.6-0.2-18.8c0-1.9-0.2-3.9-0.2-5.8c-0.2-4.7-0.4-9.4-0.5-14.1c0-0.9,0.2-1.8,0.2-2.9
			c0.9,0,1.5-0.1,2.1-0.1c4-0.3,7.9-0.5,11.9-0.9c2.4-0.2,4,0.2,5.5,2.4c3.9,5.7,8.1,11.1,12.2,16.7c1.4,1.9,2.6,3.8,4,5.6
			c0.6,0.8,1.4,1.6,2.2,2.2c1.5,1.1,2.1,0.8,3.2-0.7c0.6-0.9,1.5-1.7,2.1-2.6c2.7-3.5,5.4-6.9,8-10.4c3.3-4.3,6.5-8.5,9.8-12.8
			c0.9-1.1,2.2-1.1,3.4-1c4,0.4,7.9,0,11.8-0.6c1.4-0.2,2.8,0,4.2,0c0,4.6,0,9.1,0,13.5c0,2.5,0.2,5.1,0.2,7.6c0,2,0,4,0,6
			c0,4.7,0,9.4,0,14.1c0,1,0.2,1.9,0.2,2.9c0,7,0.1,14,0,21c-0.1,4.9-0.4,9.9-0.7,15c-2.6,1.3-5.5,1.1-8.4,1.3
			c-2.3,0.1-4.5,0.1-6.6,1.3C356.1,284.8,354.4,284.6,352.7,284.8z"/>
		<path fill="#A6FF1A" d="M401.8,235.4c2.7-0.3,5-0.6,7.3-1c1.4-0.2,2,0.1,2.2,1.5c0.4,2.9,0.7,5.8,1,8.7c0.1,1.5-0.5,2.6-1.9,3.1
			c-2.2,0.7-4.3,1.6-6.6,2c-1.4,0.3-1.9,1.2-2.4,2.1c-0.2,0.3-0.1,1.3,0.1,1.4c1.6,0.8,1.3,2.3,1.3,3.5c0.1,2.7-0.1,5.4-0.1,8.5
			c0.1,0,0.5,0.4,1,0.4c2.5,0,4.9-0.2,7.4-0.3c2.3-0.1,4.5-0.3,6.9-0.4c0.4,1-0.6,2.6,1,3.3c0.3,0.1,0.2,1.2,0.2,1.8
			c-0.1,2.7-0.2,5.4-0.4,8.4c-0.5,0.1-1.4,0.4-2.2,0.5c-3.1,0.4-6.3,0.8-9.5,1c-2.7,0.2-5.5,0.1-8.2,0.3c-2.4,0.2-4.7,0.7-7,1
			c-1.5,0.2-3.1,0.3-4.9,0.5c-0.1-2.7-0.2-5-0.2-7.4c0-6.3,0-12.7,0.1-19c0-1.6,0.3-3.1,0.5-4.7c0.5-4.6-0.3-9.2-0.3-13.8
			c0-4.8-0.5-9.6-1-14.4c-0.2-1.5,0.2-3.1,0.3-4.7c0.2-5.5,0.3-11,0.5-16.6c2.4-0.3,4.6-0.5,6.7-0.8c3.3-0.4,6.6-0.7,9.9-1
			c1.8-0.2,3.6,0.3,5.4,0.1c3.7-0.2,7.2-1.4,11.1-1.6c1,2.9,2.2,5.6,1.7,8.8c-0.2,1.3,0.2,2.6,0.4,3.9c0.2,1.3-0.2,2.3-1.4,2.8
			c-2.2,1-4.2,2.1-6.7,2.4c-2.9,0.4-5.7,1.2-8.5,1.8c-0.8,0.2-1.6,0.2-2.3,0.3c-1.6,0.2-2.4,1.3-2,2.8c0.2,0.9,0.3,1.9,0.3,2.9
			C401.6,227.4,401.7,231.1,401.8,235.4z"/>
		<g>
			<path d="M251.2,271.3c-2.6-0.7-2.7-2.7-3.2-4c-2.1-0.1-3.9-0.4-5.8-0.4c-7.5,0.1-15-0.1-22.5-1.1c-1.5-0.2-1.8-0.4-1.8-2
				c0-1.1,0.3-2.3,0.3-3.4c-0.3-7.2-0.7-14.4-1.1-21.6c-0.2-3.3-0.3-6.6-0.4-10c-0.1-5.4-0.2-10.8-0.2-16.2c0-2.3,0.1-4.5,0.1-6.8
				c0-0.9-0.2-1.6-1.2-1.7c-2.5-0.2-5.1-0.6-7.6-0.5c-3.3,0.1-6.6,0.7-10,0.1c-1-0.2-2.1,0.2-3,0.3c0.4,1.7,0.9,2.8,0.9,3.9
				c0.2,4.5,0.4,9,0.4,13.5c0.1,9.7,0,19.5,0,29.2c0,2.2-0.1,4.4-0.1,6.6c0,1.1-0.1,2.2-0.1,3.4c-0.1,3.3-0.1,6.6-0.2,9.9
				c-0.2,4.3-0.5,8.6-0.6,13c-0.1,2.4,0.8,3.4,3.1,3.5c5.1,0.3,10.2,0.4,15.4,0.6c3.3,0.1,6.7,0,10,0c6,0,12,0.1,18,0.1
				c1.2,0,2.5-0.1,3.7-0.2c2.6-0.2,3.3-0.8,3.5-3.4c0.1-0.7,0.1-1.3,0.2-1.5c-0.2,0.2,1.2-3.8,0.9-3.5c-0.2-1.5-0.3-2.7-0.5-3.9
				C249.2,273.7,249,272.3,251.2,271.3z M240.1,285.2c-2,0.2-3.8,0-5.7-0.6c-1.7-0.5-3.4-0.7-5.2-0.6c-2.4,0.1-4.9-0.1-7.3-0.1
				c-1.7,0-3.3,0.3-5,0.4c-1.6,0.1-3.1,0-4.7,0c-4.4,0-8.7,0.1-13.1,0.1c-0.3,0-0.5-0.1-1.1-0.2c0-6.4,0-12.8,0-19.3
				c-0.1-6.5-0.3-12.9-0.2-19.4c0.1-6.5,0.5-12.9,0.7-19.4c0.1-6.5,0-13,0-19.6c3.3,0.8,6.1,0.4,8.8,0c1.5-0.2,3.1-0.4,4.7-0.4
				c1.4,0,2,0.9,2,2.3c0.2,5,0.4,10,0.6,15.1c0.2,5.4,0.4,10.8,0.5,16.2c0.1,4.5,0,9,0.2,13.5c0.1,3,0.6,6,0.8,8.9
				c0.1,1.7,0,3.3,0,5.3c0.9,0.2,1.7,0.5,2.7,0.6c5.1,0.4,10.2,0.7,15.3,1.1c3.3,0.2,6.5,0.4,9.8,0.7c0.9,0.1,1.7,0.3,2.8,0.5
				c0.2,5,0.3,10,0.5,15.2C244.6,283.8,242.3,285,240.1,285.2z"/>
			<path d="M216.7,297.2c0.8-0.7,1.8-2.1,2.6-2c1.8,0.3,0.9,2.1,1.1,3.3c0.1,0.5-0.3,1.5-0.7,1.7c-0.8,0.4-1.4-0.2-1.8-1
				C217.6,298.7,217.3,298.1,216.7,297.2z"/>
			<path d="M185.4,248.2c0,1.3-0.6,2.1-1.5,2c-1.2,0-1.9-0.8-1.8-2c0.1-1.3,0.8-2.1,1.8-2.1C184.8,246.2,185.5,247,185.4,248.2z"/>
			<path d="M184.2,290.4c0,0.9-0.1,1.8-1.5,1.9c-1.2,0.1-2-0.8-2-2.2c0-0.9,1-2,1.8-1.9C183.4,288.2,184.2,289.2,184.2,290.4z"/>
			<path d="M210.7,299c0.7-1.4,1-2.3,1.5-3.2c0.2-0.3,0.7-0.6,1-0.5c0.3,0.1,0.7,0.5,0.8,0.9c0.1,0.5,0.1,1.1,0,1.5
				c-0.1,0.6-0.4,1.7-0.7,1.8C212.6,299.6,211.8,299.2,210.7,299z"/>
			<path d="M225.1,298.3c0.1-1.6,1.3-2,2.3-2.7c1.6,1.8,1.6,2.3,0.2,4.4C226.7,299.4,225.8,298.8,225.1,298.3z"/>
			<path d="M185.8,218.5c0.2,0.9,0.5,1.7,0.4,2.6c0,0.5-0.5,1.2-1,1.3c-0.4,0.1-1.3-0.2-1.5-0.6c-0.3-0.5-0.5-1.4-0.3-1.9
				c0.3-0.6,1-1.1,1.6-1.6C185.3,218.4,185.5,218.4,185.8,218.5z"/>
			<path d="M191.5,245.9c1.7,1,0.8,2.4,0.7,3.7c-1.1,0.4-2.1,0.8-2.6-0.5C189.2,248,189.9,246.8,191.5,245.9z"/>
			<path d="M182.7,254.8c1.2-0.1,1.7,0.4,1.7,1.3c0,0.8-0.2,1.7-0.5,2.5c-0.1,0.2-1,0.3-1.4,0.1c-0.4-0.3-0.9-1-0.8-1.4
				C181.8,256.5,182.3,255.8,182.7,254.8z"/>
			<path d="M184.3,297.7c0,1.3-1,2.3-1.9,2.3c-0.9-0.1-1.4-0.6-1.4-1.6c0-1,0.9-2.2,1.6-2C183.4,296.6,183.9,297.4,184.3,297.7z"/>
			<path d="M182.1,272c2.3,1.4,2.7,2.3,1.7,3.7c-0.3,0.4-0.9,0.7-1.3,0.6c-0.4-0.1-0.9-0.7-0.9-1C181.7,274.4,181.9,273.4,182.1,272
				z"/>
			<path d="M197,296.2c0.2,0.5,0.6,1.1,0.7,1.7c0.1,1-1,2-2,1.9c-0.8-0.1-1.2-0.5-1.2-1.4C194.5,297.2,195.5,296.1,197,296.2z"/>
			<path d="M191.3,226.5c1.4,1.2,1.2,2.4,0.9,3.6c-1.7,0.6-2.3-0.4-3.2-1.7C189.8,227.7,190.6,227.1,191.3,226.5z"/>
			<path d="M185.2,238.1c-0.6,0.7-1.1,1.2-1.6,1.7c-0.4-0.5-1-0.9-1.1-1.5c-0.2-0.8,0-1.6,0.2-2.4c0-0.1,1-0.2,1.1,0
				C184.3,236.5,184.7,237.2,185.2,238.1z"/>
			<path d="M192.4,257.8c-0.7,0.7-1.2,1.6-1.7,1.6c-1,0.1-1.4-0.8-1.4-1.8c0-1.1,0.8-2.1,1.4-1.8C191.3,256.2,191.7,257,192.4,257.8
				z"/>
			<path d="M190.6,235.9c1.6,1.2,1.4,2.5,1,3.6c-0.1,0.3-1.1,0.7-1.4,0.6c-0.4-0.1-0.9-0.9-0.8-1.3C189.5,237.8,190,237,190.6,235.9
				z"/>
			<path d="M191.7,275.2c-1.5,0.5-1.5,0.5-3.1-2.5c0.7-0.2,1.5-0.6,2.1-0.4C192,272.8,191.7,274.1,191.7,275.2z"/>
			<path d="M182.1,228.6c0.7-0.5,1.1-0.8,1.5-1.1c0.6-0.6,1.4-0.7,1.8-0.1c0.3,0.5,0.3,1.4,0,1.9c-0.3,0.5-1.2,0.8-1.7,0.7
				C183.1,229.9,182.7,229.1,182.1,228.6z"/>
			<path d="M184.7,215.7c-1.4-1.3-1-2.6-0.8-4C186.2,212.3,186.5,213.9,184.7,215.7z"/>
			<path d="M190.6,292.3c-1.4,0.4-2.2,0.2-2.5-1c-0.2-0.8-0.3-1.7,0.7-2c1-0.3,1.4,0.4,1.5,1.3C190.4,291.1,190.5,291.6,190.6,292.3
				z"/>
			<path d="M235.2,294c-1.5-2.4-1.3-2.9,1.1-3.7C236.7,291.7,236.9,293,235.2,294z"/>
			<path d="M204.7,290.4c0.9,1.1,2.1,1.9,0.8,3.1c-0.3,0.3-1.1,0.3-1.4,0.1C202.9,292.4,204,291.6,204.7,290.4z"/>
			<path d="M228.5,289.6c0.2,1.1,0.5,1.9,0.5,2.7c0,0.4-0.5,1-0.9,1.1c-0.4,0.1-1.1-0.4-1.2-0.7
				C226.7,291.5,226.6,290.3,228.5,289.6z"/>
			<path d="M184.1,279.7c1.3,0.6,1.4,1.5,0.9,2.4c-0.2,0.4-1,0.5-1.5,0.7c-0.2-0.5-0.6-1.1-0.5-1.5
				C183.2,280.7,183.7,280.2,184.1,279.7z"/>
			<path d="M191.7,214.7c-2.2-0.8-2.3-1-1.1-2.9C192.6,212.6,192.6,212.6,191.7,214.7z"/>
			<path d="M189.8,219.4c0.7,0.2,1,0.3,1.3,0.5c1,0.5,0.7,1.3,0.5,2c-0.1,0.3-0.6,0.5-0.9,0.7c-0.4-0.5-0.8-1-1.1-1.6
				C189.5,220.6,189.7,220.1,189.8,219.4z"/>
			<path d="M189.7,279.9c0.2,0.1,0.4,0.1,0.5,0.2c1,1,0.6,1.9-0.1,2.7c-0.2,0.2-0.9,0.2-1.1,0c-0.8-0.8-0.5-1.7,0.2-2.5
				C189.2,280.2,189.5,280,189.7,279.9z"/>
			<path d="M210.9,289.6c1.4,0.5,2.5,0.8,2.1,2.1c-0.5,1.3-1.6,0.7-2.8,0.6C210.4,291.3,210.6,290.6,210.9,289.6z"/>
			<path d="M195.1,293c0.6-0.9,0.9-1.7,1.5-2.1c0.3-0.2,1.1,0.3,2,0.6C197.7,292.7,197.2,293.8,195.1,293z"/>
			<path d="M182.9,266.2c0-0.9-0.7-2.1,0.8-2.5c0.9-0.2,1.3,0.5,1.3,1.3C184.9,266.2,184.2,266.7,182.9,266.2z"/>
			<path d="M203.8,296.6c1.1,0.3,2,0.5,1.4,1.7c-0.2,0.4-1.1,1-1.4,0.8C202.6,298.6,203.1,297.7,203.8,296.6z"/>
			<path d="M191.7,265.7c-0.6,0.5-1.1,1-1.2,1c-0.6-0.4-1.1-0.9-1.6-1.3c0.3-0.3,0.8-1,1-1C190.5,264.7,191,265.2,191.7,265.7z"/>
			<path d="M219.8,290.1c0.2,0.6,0.3,0.9,0.3,1.2c-0.1,0.5-0.3,1.1-0.4,1.6c-0.4-0.2-1-0.2-1.3-0.5c-0.6-0.6-0.5-1.3,0.2-1.8
				C218.8,290.4,219.1,290.3,219.8,290.1z"/>
			<path d="M187.4,298.9c0.8-1.1,1.6-1.6,2.6-0.7c0.2,0.2,0,1.1-0.2,1.3C188.7,300.3,188,299.8,187.4,298.9z"/>
			<path d="M235.3,297.1c0,0.5-0.1,0.9-0.1,1.4c0,0.1-0.4,0.1-0.4,0.1c-0.1-0.5-0.2-0.9-0.3-1.4C234.7,297.2,235,297.2,235.3,297.1z
				"/>
			<path fill="#A6FF1A" d="M247.1,285.4c-2.5-1.6-4.8-0.4-7.1-0.2c-2,0.2-3.8,0-5.7-0.6c-1.7-0.5-3.4-0.7-5.2-0.6
				c-2.4,0.1-4.9-0.1-7.3-0.1c-1.7,0-3.3,0.3-5,0.4c-1.6,0.1-3.1,0-4.7,0c-4.4,0-8.7,0.1-13.1,0.1c-0.3,0-0.5-0.1-1.1-0.2
				c0-6.4,0-12.8,0-19.3c-0.1-6.5-0.3-12.9-0.2-19.4c0.1-6.5,0.5-12.9,0.7-19.4c0.1-6.5,0-13,0-19.6c3.3,0.8,6.1,0.4,8.8,0
				c1.5-0.2,3.1-0.4,4.7-0.4c1.4,0,2,0.9,2,2.3c0.2,5,0.4,10,0.6,15.1c0.2,5.4,0.4,10.8,0.5,16.2c0.1,4.5,0,9,0.2,13.5
				c0.1,3,0.6,6,0.8,8.9c0.1,1.7,0,3.3,0,5.3c0.9,0.2,1.7,0.5,2.7,0.6c5.1,0.4,10.2,0.7,15.3,1.1c3.3,0.2,6.5,0.4,9.8,0.7
				c0.9,0.1,1.7,0.3,2.8,0.5C246.8,275.2,246.9,280.1,247.1,285.4z"/>
		</g>
		<path fill="#A6FF1A" d="M275.7,283.7c-1.1,0.4-1.9,0.4-3,0.1c-1.7-0.4-3.6,0.1-5.5,0.3c-1.6,0.1-3.3,0.2-5.1,0.4
			c-0.2-2.9-0.3-5.4-0.4-8c-0.1-5.4-0.2-10.8-0.3-16.2c-0.1-4.2-0.3-8.4-0.4-12.6c0-0.5-0.1-1.1,0-1.6c0.6-3.7,0-7.4-0.4-11
			c-0.2-1.5,0-3,0-4.5c-0.2-6.3-0.3-12.5-0.5-18.8c-0.1-2.2-0.1-4.3-0.1-6.5c0-1.2,0.6-1.5,1.7-1.5c2.6,0.1,5.1,0.3,7.7,0.4
			c1.8,0,3.6-0.2,5.7-0.3c0.1,2.2,0.4,4.8,0.4,7.3c0.1,5.3,0,10.6,0,15.9c0.1,7.1,0.4,14.3,0.5,21.4c0,1.5-0.2,3-0.3,4.5
			c-0.1,1.4-0.3,2.8-0.3,4.2c0,5.4,0.1,10.8,0.1,16.2c0,2-0.2,4-0.1,6C275.2,280.7,275.5,282,275.7,283.7z"/>
	</g>
</g>
</svg>
