<?xml version="1.0" encoding="UTF-8"?><svg id="Layer_1" xmlns="http://www.w3.org/2000/svg" viewBox="0 0 882.77 429.16"><defs><style>.cls-1{fill:#e8d92a;}.cls-2{fill:#e8d828;}.cls-3{fill:#9f1622;}.cls-4{fill:#e12626;}.cls-5{fill:#231f20;}.cls-6{fill:#215584;}.cls-7{fill:#21782e;}.cls-8{fill:#3677bb;}.cls-9{fill:#44b449;}.cls-10{fill:#3777bc;}.cls-11{fill:#45b549;}.cls-12{fill:#837f12;}</style></defs><g><rect class="cls-1" x="188.61" y="67.6" width="31.44" height="31.44"/><rect class="cls-1" x="157.18" y="67.6" width="31.44" height="31.44"/><rect class="cls-5" x="157.18" y="99.04" width="31.44" height="31.44"/><rect class="cls-5" x="157.18" y="130.47" width="31.44" height="31.44"/></g><g><rect class="cls-1" x="679.18" y="99.05" width="31.44" height="31.44" transform="translate(1389.79 229.54) rotate(-180)"/><rect class="cls-5" x="679.18" y="130.49" width="31.44" height="31.44" transform="translate(1389.79 292.42) rotate(-180)"/><rect class="cls-5" x="710.61" y="130.49" width="31.44" height="31.44" transform="translate(1452.66 292.42) rotate(-180)"/><rect class="cls-5" x="710.61" y="161.93" width="31.44" height="31.44" transform="translate(1452.66 355.29) rotate(-180)"/><rect class="cls-5" x="710.61" y="193.33" width="31.44" height="31.44" transform="translate(1452.66 418.1) rotate(-180)"/></g><g><rect class="cls-5" x="515.19" y="124.45" width="31.44" height="31.44" transform="translate(937.73 -228.62) rotate(123.02)"/><rect class="cls-5" x="532.31" y="98.1" width="31.44" height="31.44" transform="translate(942.09 -283.69) rotate(123.02)"/><polygon class="cls-4" points="586.9 82.84 586.2 83.93 569.77 109.2 543.42 92.07 559.32 67.6 563.45 67.6 586.9 82.84"/><polygon class="cls-4" points="596.81 67.6 586.9 82.84 586.2 83.93 561.06 67.6 596.81 67.6"/><rect class="cls-4" x="504.08" y="67.6" width="31.44" height="31.44"/><rect class="cls-5" x="504.08" y="99.04" width="31.44" height="31.44"/><rect class="cls-5" x="504.08" y="130.48" width="31.44" height="31.44"/></g><g><rect class="cls-5" x="641.22" y="130.47" width="31.44" height="31.44" transform="translate(1313.89 292.39) rotate(-180)"/><rect class="cls-5" x="641.22" y="99.04" width="31.44" height="31.44" transform="translate(1313.89 229.51) rotate(-180)"/><rect class="cls-5" x="641.22" y="67.6" width="31.44" height="31.44" transform="translate(1313.89 166.64) rotate(-180)"/><rect class="cls-5" x="672.66" y="36.16" width="31.44" height="31.44" transform="translate(1376.76 103.76) rotate(-180)"/><rect class="cls-5" x="641.22" y="36.16" width="31.44" height="31.44" transform="translate(1313.89 103.76) rotate(-180)"/><rect class="cls-9" x="641.22" y="4.73" width="31.44" height="31.44" transform="translate(1313.89 40.89) rotate(-180)"/></g><g><rect class="cls-5" x="396.71" y="130.47" width="31.44" height="31.44" transform="translate(824.85 292.39) rotate(-180)"/><rect class="cls-5" x="396.71" y="99.04" width="31.44" height="31.44" transform="translate(824.85 229.51) rotate(-180)"/><rect class="cls-5" x="396.71" y="67.6" width="31.44" height="31.44" transform="translate(824.85 166.64) rotate(-180)"/><rect class="cls-5" x="428.14" y="36.16" width="31.44" height="31.44" transform="translate(887.72 103.76) rotate(-180)"/><rect class="cls-5" x="396.71" y="36.16" width="31.44" height="31.44" transform="translate(824.85 103.76) rotate(-180)"/><rect class="cls-9" x="396.71" y="4.73" width="31.44" height="31.44" transform="translate(824.85 40.89) rotate(-180)"/></g><g><rect class="cls-10" x="603.3" y="67.6" width="31.44" height="31.44"/><rect class="cls-5" x="603.3" y="99.04" width="31.44" height="31.44"/><rect class="cls-5" x="603.3" y="130.47" width="31.44" height="31.44"/></g><g><rect class="cls-1" x="466.16" y="67.6" width="31.44" height="31.44"/><rect class="cls-5" x="466.16" y="99.04" width="31.44" height="31.44"/><rect class="cls-5" x="466.16" y="130.47" width="31.44" height="31.44"/></g><g><rect class="cls-5" x="358.78" y="130.47" width="31.44" height="31.44"/><rect class="cls-5" x="327.34" y="130.47" width="31.44" height="31.44"/><rect class="cls-5" x="327.34" y="99.04" width="31.44" height="31.44"/><rect class="cls-10" x="327.34" y="67.6" width="31.44" height="31.44"/><rect class="cls-10" x="295.9" y="67.6" width="31.44" height="31.44"/><rect class="cls-5" x="295.9" y="130.47" width="31.44" height="31.44"/></g><g><rect class="cls-5" x="87.78" y="130.47" width="31.44" height="31.44" transform="translate(207 292.39) rotate(-180)"/><rect class="cls-5" x="87.78" y="99.04" width="31.44" height="31.44" transform="translate(207 229.51) rotate(-180)"/><rect class="cls-9" x="87.78" y="67.6" width="31.44" height="31.44" transform="translate(207 166.64) rotate(-180)"/><rect class="cls-9" x="119.22" y="67.6" width="31.44" height="31.44" transform="translate(269.87 166.64) rotate(-180)"/><rect class="cls-5" x="119.22" y="130.47" width="31.44" height="31.44" transform="translate(269.87 292.39) rotate(-180)"/></g><g><rect class="cls-5" x="226.54" y="130.47" width="31.44" height="31.44" transform="translate(484.52 292.39) rotate(-180)"/><rect class="cls-5" x="257.98" y="130.47" width="31.44" height="31.44" transform="translate(547.39 292.39) rotate(-180)"/><rect class="cls-5" x="226.54" y="99.04" width="31.44" height="31.44" transform="translate(484.52 229.51) rotate(-180)"/><rect class="cls-4" x="226.54" y="67.6" width="31.44" height="31.44" transform="translate(484.52 166.64) rotate(-180)"/><rect class="cls-4" x="257.98" y="67.6" width="31.44" height="31.44" transform="translate(547.39 166.64) rotate(-180)"/><rect class="cls-5" x="257.98" y="99.04" width="31.44" height="15.72"/></g><g><rect class="cls-5" x="611.23" y="333.59" width="31.44" height="31.44" transform="translate(1253.91 698.63) rotate(-180)"/><rect class="cls-5" x="611.23" y="302.16" width="31.44" height="31.44" transform="translate(1253.91 635.75) rotate(-180)"/><rect class="cls-5" x="611.23" y="270.72" width="31.44" height="31.44" transform="translate(1253.91 572.88) rotate(-180)"/><rect class="cls-5" x="642.67" y="239.28" width="31.44" height="31.44" transform="translate(1316.78 510) rotate(-180)"/><rect class="cls-5" x="611.23" y="239.28" width="31.44" height="31.44" transform="translate(1253.91 510) rotate(-180)"/><rect class="cls-1" x="611.23" y="207.85" width="31.44" height="31.44" transform="translate(1253.91 447.13) rotate(-180)"/></g><g><rect class="cls-5" x="851.33" y="333.6" width="31.44" height="31.44"/><rect class="cls-5" x="851.33" y="302.16" width="31.44" height="31.44"/><rect class="cls-11" x="851.33" y="270.72" width="31.44" height="31.44"/><rect class="cls-11" x="819.89" y="270.72" width="31.44" height="31.44"/><rect class="cls-11" x="788.45" y="270.72" width="31.44" height="31.44"/><rect class="cls-5" x="788.45" y="302.16" width="31.44" height="31.44"/><rect class="cls-5" x="788.45" y="333.6" width="31.44" height="31.44"/></g><g><rect class="cls-5" x="472.51" y="333.6" width="31.44" height="31.44"/><rect class="cls-5" x="472.51" y="302.16" width="31.44" height="31.44"/><rect class="cls-10" x="472.51" y="270.72" width="31.44" height="31.44"/><rect class="cls-10" x="441.07" y="270.72" width="31.44" height="31.44"/><rect class="cls-10" x="409.63" y="270.72" width="31.44" height="31.44"/><rect class="cls-5" x="409.63" y="302.16" width="31.44" height="31.44"/><rect class="cls-5" x="409.63" y="333.6" width="31.44" height="31.44"/></g><g><rect class="cls-5" x="100.8" y="333.6" width="31.44" height="31.44"/><rect class="cls-5" x="100.8" y="302.16" width="31.44" height="31.44"/><rect class="cls-8" x="100.8" y="270.72" width="31.44" height="31.44"/><rect class="cls-8" x="69.36" y="270.72" width="31.44" height="31.44"/><rect class="cls-5" x="163.68" y="333.6" width="31.44" height="31.44"/><rect class="cls-5" x="163.68" y="302.16" width="31.44" height="31.44"/><rect class="cls-8" x="163.68" y="270.72" width="31.44" height="31.44"/><rect class="cls-10" x="132.24" y="270.72" width="31.44" height="31.44"/><rect class="cls-8" x="37.93" y="270.72" width="31.44" height="31.44"/><rect class="cls-5" x="37.93" y="302.16" width="31.44" height="31.44"/><rect class="cls-5" x="37.93" y="333.6" width="31.44" height="31.44"/></g><g><rect class="cls-4" x="0" y="270.72" width="31.44" height="31.44"/><rect class="cls-5" x="0" y="302.16" width="31.44" height="31.44"/><rect class="cls-5" x="0" y="333.6" width="31.44" height="31.44"/></g><g><rect class="cls-4" x="371.7" y="270.72" width="31.44" height="31.44"/><rect class="cls-5" x="371.7" y="302.16" width="31.44" height="31.44"/><rect class="cls-5" x="371.7" y="333.6" width="31.44" height="31.44"/></g><g><rect class="cls-4" x="681.16" y="270.72" width="31.44" height="31.44"/><rect class="cls-5" x="681.16" y="302.16" width="31.44" height="31.44"/><rect class="cls-5" x="681.16" y="333.6" width="31.44" height="31.44"/></g><g><rect class="cls-10" x="750.53" y="270.72" width="31.44" height="31.44"/><rect class="cls-10" x="719.09" y="270.72" width="31.44" height="31.44"/><rect class="cls-5" x="750.53" y="302.16" width="31.44" height="31.44"/><rect class="cls-5" x="750.53" y="333.6" width="31.44" height="31.44"/><rect class="cls-5" x="719.09" y="333.6" width="31.44" height="31.44"/></g><g><rect class="cls-5" x="302.4" y="333.6" width="31.44" height="31.44" transform="translate(636.25 698.63) rotate(-180)"/><rect class="cls-5" x="333.84" y="333.6" width="31.44" height="31.44" transform="translate(699.12 698.63) rotate(-180)"/><rect class="cls-5" x="333.84" y="365.03" width="31.44" height="31.44" transform="translate(699.12 761.5) rotate(-180)"/><rect class="cls-5" x="333.84" y="396.47" width="31.44" height="31.44" transform="translate(699.12 824.38) rotate(-180)"/><rect class="cls-5" x="302.4" y="396.47" width="31.44" height="31.44" transform="translate(636.25 824.38) rotate(-180)"/><rect class="cls-5" x="302.4" y="302.16" width="31.44" height="31.44" transform="translate(636.25 635.75) rotate(-180)"/><rect class="cls-1" x="302.4" y="270.72" width="31.44" height="31.44" transform="translate(636.25 572.88) rotate(-180)"/><rect class="cls-2" x="333.84" y="270.72" width="31.44" height="31.44" transform="translate(699.12 572.88) rotate(-180)"/></g><g><rect class="cls-5" x="573.31" y="333.6" width="31.44" height="31.44"/><rect class="cls-5" x="541.87" y="333.6" width="31.44" height="31.44"/><rect class="cls-5" x="541.87" y="302.16" width="31.44" height="31.44"/><rect class="cls-11" x="541.87" y="270.72" width="31.44" height="31.44"/><rect class="cls-11" x="510.43" y="270.72" width="31.44" height="31.44"/><rect class="cls-5" x="510.43" y="333.6" width="31.44" height="31.44"/></g><g><rect class="cls-5" x="264.48" y="333.6" width="31.44" height="31.44"/><rect class="cls-5" x="233.04" y="333.6" width="31.44" height="31.44"/><rect class="cls-5" x="233.04" y="302.16" width="31.44" height="31.44"/><rect class="cls-11" x="233.04" y="270.72" width="31.44" height="31.44"/><rect class="cls-9" x="201.6" y="270.72" width="31.44" height="31.44"/><rect class="cls-5" x="201.6" y="333.6" width="31.44" height="31.44"/></g><g><g><polyline class="cls-4" points="13.02 266.87 13.02 270.72 2.42 270.72 2.42 266.87"/><ellipse class="cls-3" cx="7.72" cy="266.87" rx="5.3" ry=".9"/></g><g><polyline class="cls-4" points="29.02 266.87 29.02 270.72 18.42 270.72 18.42 266.87"/><ellipse class="cls-3" cx="23.72" cy="266.87" rx="5.3" ry=".9"/></g></g><g><g><polyline class="cls-4" points="239.56 63.79 239.56 67.63 228.96 67.63 228.96 63.79"/><ellipse class="cls-3" cx="234.26" cy="63.79" rx="5.3" ry=".9"/></g><g><polyline class="cls-4" points="255.56 63.79 255.56 67.63 244.96 67.63 244.96 63.79"/><ellipse class="cls-3" cx="250.26" cy="63.79" rx="5.3" ry=".9"/></g></g><g><g><polyline class="cls-4" points="271 63.79 271 67.63 260.39 67.63 260.39 63.79"/><ellipse class="cls-3" cx="265.7" cy="63.79" rx="5.3" ry=".9"/></g><g><polyline class="cls-4" points="287 63.79 287 67.63 276.39 67.63 276.39 63.79"/><ellipse class="cls-3" cx="281.69" cy="63.79" rx="5.3" ry=".9"/></g></g><g><g><polyline class="cls-4" points="517.11 63.79 517.11 67.63 506.5 67.63 506.5 63.79"/><ellipse class="cls-3" cx="511.8" cy="63.79" rx="5.3" ry=".9"/></g><g><polyline class="cls-4" points="533.1 63.79 533.1 67.63 522.5 67.63 522.5 63.79"/><ellipse class="cls-3" cx="527.8" cy="63.79" rx="5.3" ry=".9"/></g></g><g><g><polyline class="cls-4" points="574.59 63.79 574.59 67.63 563.99 67.63 563.99 63.79"/><ellipse class="cls-3" cx="569.29" cy="63.79" rx="5.3" ry=".9"/></g><g><polyline class="cls-4" points="590.59 63.79 590.59 67.63 579.98 67.63 579.98 63.79"/><ellipse class="cls-3" cx="585.29" cy="63.79" rx="5.3" ry=".9"/></g></g><g><g><polyline class="cls-10" points="50.95 266.87 50.95 270.72 40.34 270.72 40.34 266.87"/><ellipse class="cls-6" cx="45.65" cy="266.87" rx="5.3" ry=".9"/></g><g><polyline class="cls-10" points="66.95 266.87 66.95 270.72 56.34 270.72 56.34 266.87"/><ellipse class="cls-6" cx="61.65" cy="266.87" rx="5.3" ry=".9"/></g></g><g><g><polyline class="cls-10" points="82.39 266.87 82.39 270.72 71.78 270.72 71.78 266.87"/><ellipse class="cls-6" cx="77.08" cy="266.87" rx="5.3" ry=".9"/></g><g><polyline class="cls-10" points="98.38 266.87 98.38 270.72 87.78 270.72 87.78 266.87"/><ellipse class="cls-6" cx="93.08" cy="266.87" rx="5.3" ry=".9"/></g></g><g><g><polyline class="cls-10" points="113.82 266.87 113.82 270.72 103.22 270.72 103.22 266.87"/><ellipse class="cls-6" cx="108.52" cy="266.87" rx="5.3" ry=".9"/></g><g><polyline class="cls-10" points="129.82 266.87 129.82 270.72 119.22 270.72 119.22 266.87"/><ellipse class="cls-6" cx="124.52" cy="266.87" rx="5.3" ry=".9"/></g></g><g><g><polyline class="cls-10" points="145.26 266.87 145.26 270.72 134.66 270.72 134.66 266.87"/><ellipse class="cls-6" cx="139.96" cy="266.87" rx="5.3" ry=".9"/></g><g><polyline class="cls-10" points="161.26 266.87 161.26 270.72 150.65 270.72 150.65 266.87"/><ellipse class="cls-6" cx="155.96" cy="266.87" rx="5.3" ry=".9"/></g></g><g><g><polyline class="cls-10" points="176.7 266.87 176.7 270.72 166.09 270.72 166.09 266.87"/><ellipse class="cls-6" cx="171.39" cy="266.87" rx="5.3" ry=".9"/></g><g><polyline class="cls-10" points="192.7 266.87 192.7 270.72 182.09 270.72 182.09 266.87"/><ellipse class="cls-6" cx="187.39" cy="266.87" rx="5.3" ry=".9"/></g></g><g><g><polyline class="cls-10" points="308.93 64.23 308.93 68.08 298.32 68.08 298.32 64.23"/><ellipse class="cls-6" cx="303.62" cy="64.23" rx="5.3" ry=".9"/></g><g><polyline class="cls-10" points="324.92 64.23 324.92 68.08 314.32 68.08 314.32 64.23"/><ellipse class="cls-6" cx="319.62" cy="64.23" rx="5.3" ry=".9"/></g></g><g><g><polyline class="cls-10" points="340.36 64.23 340.36 68.08 329.76 68.08 329.76 64.23"/><ellipse class="cls-6" cx="335.06" cy="64.23" rx="5.3" ry=".9"/></g><g><polyline class="cls-10" points="356.36 64.23 356.36 68.08 345.76 68.08 345.76 64.23"/><ellipse class="cls-6" cx="351.06" cy="64.23" rx="5.3" ry=".9"/></g></g><g><g><polyline class="cls-10" points="616.32 64.23 616.32 68.08 605.71 68.08 605.71 64.23"/><ellipse class="cls-6" cx="611.02" cy="64.23" rx="5.3" ry=".9"/></g><g><polyline class="cls-10" points="632.32 64.23 632.32 68.08 621.71 68.08 621.71 64.23"/><ellipse class="cls-6" cx="627.02" cy="64.23" rx="5.3" ry=".9"/></g></g><g><g><polyline class="cls-10" points="422.65 266.87 422.65 270.72 412.05 270.72 412.05 266.87"/><ellipse class="cls-6" cx="417.35" cy="266.87" rx="5.3" ry=".9"/></g><g><polyline class="cls-10" points="438.65 266.87 438.65 270.72 428.05 270.72 428.05 266.87"/><ellipse class="cls-6" cx="433.35" cy="266.87" rx="5.3" ry=".9"/></g></g><g><g><polyline class="cls-10" points="454.09 266.87 454.09 270.72 443.49 270.72 443.49 266.87"/><ellipse class="cls-6" cx="448.79" cy="266.87" rx="5.3" ry=".9"/></g><g><polyline class="cls-10" points="470.09 266.87 470.09 270.72 459.48 270.72 459.48 266.87"/><ellipse class="cls-6" cx="464.79" cy="266.87" rx="5.3" ry=".9"/></g></g><g><g><polyline class="cls-10" points="485.53 266.87 485.53 270.72 474.92 270.72 474.92 266.87"/><ellipse class="cls-6" cx="480.22" cy="266.87" rx="5.3" ry=".9"/></g><g><polyline class="cls-10" points="501.53 266.87 501.53 270.72 490.92 270.72 490.92 266.87"/><ellipse class="cls-6" cx="496.22" cy="266.87" rx="5.3" ry=".9"/></g></g><g><g><polyline class="cls-10" points="732.11 266.87 732.11 270.72 721.51 270.72 721.51 266.87"/><ellipse class="cls-6" cx="726.81" cy="266.87" rx="5.3" ry=".9"/></g><g><polyline class="cls-10" points="748.11 266.87 748.11 270.72 737.51 270.72 737.51 266.87"/><ellipse class="cls-6" cx="742.81" cy="266.87" rx="5.3" ry=".9"/></g></g><g><g><polyline class="cls-10" points="763.55 266.87 763.55 270.72 752.94 270.72 752.94 266.87"/><ellipse class="cls-6" cx="758.25" cy="266.87" rx="5.3" ry=".9"/></g><g><polyline class="cls-10" points="779.55 266.87 779.55 270.72 768.94 270.72 768.94 266.87"/><ellipse class="cls-6" cx="774.25" cy="266.87" rx="5.3" ry=".9"/></g></g><g><g><polyline class="cls-11" points="214.62 266.87 214.62 270.72 204.02 270.72 204.02 266.87"/><ellipse class="cls-7" cx="209.32" cy="266.87" rx="5.3" ry=".9"/></g><g><polyline class="cls-11" points="230.62 266.87 230.62 270.72 220.02 270.72 220.02 266.87"/><ellipse class="cls-7" cx="225.32" cy="266.87" rx="5.3" ry=".9"/></g></g><g><g><polyline class="cls-11" points="246.06 266.87 246.06 270.72 235.46 270.72 235.46 266.87"/><ellipse class="cls-7" cx="240.76" cy="266.87" rx="5.3" ry=".9"/></g><g><polyline class="cls-11" points="262.06 266.87 262.06 270.72 251.46 270.72 251.46 266.87"/><ellipse class="cls-7" cx="256.76" cy="266.87" rx="5.3" ry=".9"/></g></g><g><g><polyline class="cls-11" points="100.8 63.75 100.8 67.6 90.2 67.6 90.2 63.75"/><ellipse class="cls-7" cx="95.5" cy="63.75" rx="5.3" ry=".9"/></g><g><polyline class="cls-11" points="116.8 63.75 116.8 67.6 106.2 67.6 106.2 63.75"/><ellipse class="cls-7" cx="111.5" cy="63.75" rx="5.3" ry=".9"/></g></g><g><g><polyline class="cls-11" points="132.24 63.75 132.24 67.6 121.63 67.6 121.63 63.75"/><ellipse class="cls-7" cx="126.94" cy="63.75" rx="5.3" ry=".9"/></g><g><polyline class="cls-11" points="148.24 63.75 148.24 67.6 137.63 67.6 137.63 63.75"/><ellipse class="cls-7" cx="142.94" cy="63.75" rx="5.3" ry=".9"/></g></g><g><g><polyline class="cls-11" points="409.73 .9 409.73 4.74 399.12 4.74 399.12 .9"/><ellipse class="cls-7" cx="404.42" cy=".9" rx="5.3" ry=".9"/></g><g><polyline class="cls-11" points="425.73 .9 425.73 4.74 415.12 4.74 415.12 .9"/><ellipse class="cls-7" cx="420.42" cy=".9" rx="5.3" ry=".9"/></g></g><g><g><polyline class="cls-11" points="654.25 .9 654.25 4.74 643.64 4.74 643.64 .9"/><ellipse class="cls-7" cx="648.94" cy=".9" rx="5.3" ry=".9"/></g><g><polyline class="cls-11" points="670.25 .9 670.25 4.74 659.64 4.74 659.64 .9"/><ellipse class="cls-7" cx="664.94" cy=".9" rx="5.3" ry=".9"/></g></g><g><g><polyline class="cls-11" points="523.45 266.87 523.45 270.72 512.85 270.72 512.85 266.87"/><ellipse class="cls-7" cx="518.15" cy="266.87" rx="5.3" ry=".9"/></g><g><polyline class="cls-11" points="539.45 266.87 539.45 270.72 528.85 270.72 528.85 266.87"/><ellipse class="cls-7" cx="534.15" cy="266.87" rx="5.3" ry=".9"/></g></g><g><g><polyline class="cls-11" points="554.89 266.87 554.89 270.72 544.29 270.72 544.29 266.87"/><ellipse class="cls-7" cx="549.59" cy="266.87" rx="5.3" ry=".9"/></g><g><polyline class="cls-11" points="570.89 266.87 570.89 270.72 560.29 270.72 560.29 266.87"/><ellipse class="cls-7" cx="565.59" cy="266.87" rx="5.3" ry=".9"/></g></g><g><g><polyline class="cls-11" points="801.48 266.87 801.48 270.72 790.87 270.72 790.87 266.87"/><ellipse class="cls-7" cx="796.17" cy="266.87" rx="5.3" ry=".9"/></g><g><polyline class="cls-11" points="817.48 266.87 817.48 270.72 806.87 270.72 806.87 266.87"/><ellipse class="cls-7" cx="812.17" cy="266.87" rx="5.3" ry=".9"/></g></g><g><g><polyline class="cls-11" points="832.91 266.87 832.91 270.72 822.31 270.72 822.31 266.87"/><ellipse class="cls-7" cx="827.61" cy="266.87" rx="5.3" ry=".9"/></g><g><polyline class="cls-11" points="848.91 266.87 848.91 270.72 838.31 270.72 838.31 266.87"/><ellipse class="cls-7" cx="843.61" cy="266.87" rx="5.3" ry=".9"/></g></g><g><g><polyline class="cls-11" points="864.35 266.87 864.35 270.72 853.75 270.72 853.75 266.87"/><ellipse class="cls-7" cx="859.05" cy="266.87" rx="5.3" ry=".9"/></g><g><polyline class="cls-11" points="880.35 266.87 880.35 270.72 869.74 270.72 869.74 266.87"/><ellipse class="cls-7" cx="875.05" cy="266.87" rx="5.3" ry=".9"/></g></g><g><g><polyline class="cls-1" points="315.43 266.87 315.43 270.72 304.82 270.72 304.82 266.87"/><ellipse class="cls-12" cx="310.12" cy="266.87" rx="5.3" ry=".9"/></g><g><polyline class="cls-1" points="331.42 266.87 331.42 270.72 320.82 270.72 320.82 266.87"/><ellipse class="cls-12" cx="326.12" cy="266.87" rx="5.3" ry=".9"/></g></g><g><g><polyline class="cls-1" points="624.26 204 624.26 207.85 613.65 207.85 613.65 204"/><ellipse class="cls-12" cx="618.95" cy="204" rx="5.3" ry=".9"/></g><g><polyline class="cls-1" points="640.25 204 640.25 207.85 629.65 207.85 629.65 204"/><ellipse class="cls-12" cx="634.95" cy="204" rx="5.3" ry=".9"/></g></g><g><g><polyline class="cls-1" points="346.86 266.87 346.86 270.72 336.26 270.72 336.26 266.87"/><ellipse class="cls-12" cx="341.56" cy="266.87" rx="5.3" ry=".9"/></g><g><polyline class="cls-1" points="362.86 266.87 362.86 270.72 352.26 270.72 352.26 266.87"/><ellipse class="cls-12" cx="357.56" cy="266.87" rx="5.3" ry=".9"/></g></g><g><g><polyline class="cls-1" points="170.2 63.75 170.2 67.6 159.59 67.6 159.59 63.75"/><ellipse class="cls-12" cx="164.89" cy="63.75" rx="5.3" ry=".9"/></g><g><polyline class="cls-1" points="186.2 63.75 186.2 67.6 175.59 67.6 175.59 63.75"/><ellipse class="cls-12" cx="180.89" cy="63.75" rx="5.3" ry=".9"/></g></g><g><g><polyline class="cls-1" points="201.63 63.75 201.63 67.6 191.03 67.6 191.03 63.75"/><ellipse class="cls-12" cx="196.33" cy="63.75" rx="5.3" ry=".9"/></g><g><polyline class="cls-1" points="217.63 63.75 217.63 67.6 207.03 67.6 207.03 63.75"/><ellipse class="cls-12" cx="212.33" cy="63.75" rx="5.3" ry=".9"/></g></g><g><g><polyline class="cls-1" points="692.2 95.23 692.2 99.08 681.59 99.08 681.59 95.23"/><ellipse class="cls-12" cx="686.89" cy="95.23" rx="5.3" ry=".9"/></g><g><polyline class="cls-1" points="708.2 95.23 708.2 99.08 697.59 99.08 697.59 95.23"/><ellipse class="cls-12" cx="702.89" cy="95.23" rx="5.3" ry=".9"/></g></g><g><g><polyline class="cls-4" points="384.76 266.87 384.76 270.72 374.15 270.72 374.15 266.87"/><ellipse class="cls-3" cx="379.46" cy="266.87" rx="5.3" ry=".9"/></g><g><polyline class="cls-4" points="400.76 266.87 400.76 270.72 390.15 270.72 390.15 266.87"/><ellipse class="cls-3" cx="395.45" cy="266.87" rx="5.3" ry=".9"/></g></g><g><g><polyline class="cls-4" points="694.18 266.87 694.18 270.72 683.58 270.72 683.58 266.87"/><ellipse class="cls-3" cx="688.88" cy="266.87" rx="5.3" ry=".9"/></g><g><polyline class="cls-4" points="710.18 266.87 710.18 270.72 699.58 270.72 699.58 266.87"/><ellipse class="cls-3" cx="704.88" cy="266.87" rx="5.3" ry=".9"/></g></g></svg>