<?xml version="1.0" encoding="UTF-8"?><svg id="Layer_1" xmlns="http://www.w3.org/2000/svg" viewBox="0 0 1018.66 690.67"><defs><style>.cls-1{fill:#231f20;}</style></defs><g><rect class="cls-1" x="729.41" y="616.24" width="32.18" height="32.18" transform="translate(1681.93 351.78) rotate(123.02)"/><polygon class="cls-1" points="750.94 653.49 750.22 654.59 711.85 654.59 723.24 637.05 723.96 635.95 750.94 653.49"/><rect class="cls-1" x="746.94" y="589.27" width="32.18" height="32.18" transform="translate(1686.39 295.41) rotate(123.02)"/><polygon class="cls-1" points="802.82 573.65 802.09 574.76 785.28 600.63 758.3 583.1 774.58 558.04 778.81 558.04 802.82 573.65"/><polygon class="cls-1" points="812.95 558.04 802.82 573.65 802.09 574.76 776.36 558.04 812.95 558.04"/><rect class="cls-1" x="763.5" y="616.24" width="32.18" height="32.18" transform="translate(885 -365.92) rotate(56.98)"/><polygon class="cls-1" points="813.24 654.59 774.87 654.59 774.15 653.49 801.13 635.95 801.85 637.05 813.24 654.59"/><rect class="cls-1" x="745.97" y="589.27" width="32.18" height="32.18" transform="translate(854.41 -363.49) rotate(56.98)"/><polygon class="cls-1" points="722.27 573.65 722.99 574.76 739.81 600.63 766.79 583.1 750.51 558.04 746.28 558.04 722.27 573.65"/><polygon class="cls-1" points="712.13 558.04 722.27 573.65 722.99 574.76 748.72 558.04 712.13 558.04"/></g><rect class="cls-1" x="32.18" y="558.03" width="32.18" height="32.18"/><rect class="cls-1" x="0" y="558.03" width="32.18" height="32.18"/><rect class="cls-1" x="0" y="590.21" width="32.18" height="32.18"/><rect class="cls-1" x="0" y="622.39" width="32.18" height="32.18"/><rect class="cls-1" x="151.09" y="558.03" width="32.18" height="32.18"/><rect class="cls-1" x="118.91" y="558.03" width="32.18" height="32.18"/><rect class="cls-1" x="118.91" y="590.21" width="32.18" height="32.18"/><rect class="cls-1" x="118.91" y="622.39" width="32.18" height="32.18"/><rect class="cls-1" x="86.73" y="622.39" width="32.18" height="32.18"/><g><rect class="cls-1" x="922.35" y="558.04" width="32.18" height="32.18" transform="translate(1876.88 1148.27) rotate(-180)"/><g><rect class="cls-1" x="954.53" y="558.04" width="32.18" height="32.18" transform="translate(1941.24 1148.27) rotate(-180)"/><rect class="cls-1" x="954.53" y="590.23" width="32.18" height="32.18" transform="translate(1941.24 1212.63) rotate(-180)"/><rect class="cls-1" x="954.53" y="622.4" width="32.18" height="32.18" transform="translate(1941.24 1276.99) rotate(-180)"/><rect class="cls-1" x="986.71" y="622.4" width="32.18" height="32.18" transform="translate(2005.6 1276.99) rotate(-180)"/></g></g><g><rect class="cls-1" x="835.62" y="558.04" width="32.18" height="32.18" transform="translate(1703.41 1148.27) rotate(-180)"/><rect class="cls-1" x="835.62" y="590.22" width="32.18" height="32.18" transform="translate(1703.41 1212.63) rotate(-180)"/><rect class="cls-1" x="867.8" y="590.22" width="32.18" height="32.18" transform="translate(1767.77 1212.63) rotate(-180)"/><rect class="cls-1" x="867.8" y="622.4" width="32.18" height="32.18" transform="translate(1767.77 1276.98) rotate(-180)"/><rect class="cls-1" x="867.8" y="654.55" width="32.18" height="32.18" transform="translate(1767.77 1341.28) rotate(-180)"/></g><g><rect class="cls-1" x="422.66" y="616.22" width="32.18" height="32.18" transform="translate(1208.01 608.96) rotate(123.02)"/><rect class="cls-1" x="440.19" y="589.24" width="32.18" height="32.18" transform="translate(1212.47 552.59) rotate(123.02)"/><polygon class="cls-1" points="496.07 573.63 495.34 574.74 478.53 600.61 451.55 583.08 467.83 558.02 472.06 558.02 496.07 573.63"/><polygon class="cls-1" points="506.2 558.02 496.07 573.63 495.34 574.74 469.61 558.02 506.2 558.02"/><rect class="cls-1" x="411.29" y="558.03" width="32.18" height="32.18"/><rect class="cls-1" x="411.29" y="590.21" width="32.18" height="32.18"/><rect class="cls-1" x="411.29" y="622.39" width="32.18" height="32.18"/></g><g><rect class="cls-1" x="356.74" y="558.03" width="32.18" height="32.18"/><rect class="cls-1" x="356.74" y="590.21" width="32.18" height="32.18"/><rect class="cls-1" x="356.74" y="622.39" width="32.18" height="32.18"/><rect class="cls-1" x="324.56" y="622.39" width="32.18" height="32.18"/><rect class="cls-1" x="292.38" y="622.39" width="32.18" height="32.18"/><rect class="cls-1" x="292.38" y="590.21" width="32.18" height="32.18"/><rect class="cls-1" x="292.38" y="558.03" width="32.18" height="32.18"/></g><g><rect class="cls-1" x="592.94" y="558.03" width="32.18" height="32.18"/><rect class="cls-1" x="592.94" y="590.21" width="32.18" height="32.18"/><rect class="cls-1" x="592.94" y="622.39" width="32.18" height="32.18"/><rect class="cls-1" x="560.76" y="622.39" width="32.18" height="32.18"/><rect class="cls-1" x="657.29" y="558.03" width="32.18" height="32.18"/><rect class="cls-1" x="657.29" y="590.21" width="32.18" height="32.18"/><rect class="cls-1" x="657.29" y="622.39" width="32.18" height="32.18"/><rect class="cls-1" x="625.12" y="622.39" width="32.18" height="32.18"/><rect class="cls-1" x="528.58" y="622.39" width="32.18" height="32.18"/><rect class="cls-1" x="528.58" y="590.21" width="32.18" height="32.18"/><rect class="cls-1" x="528.58" y="558.03" width="32.18" height="32.18"/></g><g><rect class="cls-1" x="205.65" y="622.39" width="32.18" height="32.18" transform="translate(443.47 1276.95) rotate(-180)"/><rect class="cls-1" x="205.65" y="590.21" width="32.18" height="32.18" transform="translate(443.47 1212.59) rotate(-180)"/><rect class="cls-1" x="205.65" y="558.03" width="32.18" height="32.18" transform="translate(443.47 1148.24) rotate(-180)"/><rect class="cls-1" x="237.82" y="525.85" width="32.18" height="32.18" transform="translate(507.83 1083.88) rotate(-180)"/><rect class="cls-1" x="205.65" y="525.85" width="32.18" height="32.18" transform="translate(443.47 1083.88) rotate(-180)"/><rect class="cls-1" x="205.65" y="493.67" width="32.18" height="32.18" transform="translate(443.47 1019.52) rotate(-180)"/></g><g><rect class="cls-1" x="846.14" y="311.19" width="32.18" height="32.18"/><rect class="cls-1" x="813.96" y="311.19" width="32.18" height="32.18"/><rect class="cls-1" x="846.14" y="343.37" width="32.18" height="32.18"/><rect class="cls-1" x="846.14" y="375.55" width="32.18" height="32.18"/><rect class="cls-1" x="813.96" y="375.55" width="32.18" height="32.18"/><rect class="cls-1" x="813.96" y="407.73" width="32.18" height="32.18"/><rect class="cls-1" x="813.96" y="439.91" width="32.18" height="32.18"/></g><g><rect class="cls-1" x="922.12" y="375.55" width="32.18" height="32.18" transform="translate(1876.42 783.28) rotate(-180)"/><rect class="cls-1" x="954.3" y="375.55" width="32.18" height="32.18" transform="translate(1940.78 783.28) rotate(-180)"/><rect class="cls-1" x="954.3" y="407.73" width="32.18" height="32.18" transform="translate(1940.78 847.64) rotate(-180)"/><rect class="cls-1" x="954.3" y="439.91" width="32.18" height="32.18" transform="translate(1940.78 912) rotate(-180)"/><rect class="cls-1" x="986.48" y="439.91" width="32.18" height="32.18" transform="translate(2005.13 912) rotate(-180)"/><rect class="cls-1" x="922.12" y="343.37" width="32.18" height="32.18" transform="translate(1876.42 718.92) rotate(-180)"/><rect class="cls-1" x="922.12" y="311.19" width="32.18" height="32.18" transform="translate(1876.42 654.57) rotate(-180)"/><rect class="cls-1" x="954.3" y="311.19" width="32.18" height="32.18" transform="translate(1940.78 654.57) rotate(-180)"/></g><g><rect class="cls-1" x="108.39" y="375.55" width="32.18" height="32.18" transform="translate(248.97 783.28) rotate(-180)"/><rect class="cls-1" x="108.39" y="343.37" width="32.18" height="32.18" transform="translate(248.97 718.92) rotate(-180)"/><rect class="cls-1" x="108.39" y="311.19" width="32.18" height="32.18" transform="translate(248.97 654.57) rotate(-180)"/><rect class="cls-1" x="147.19" y="317.86" width="32.18" height="32.18" transform="translate(514.87 454.63) rotate(135)"/><polygon class="cls-1" points="208.79 311.2 163.28 311.2 186.04 333.95 208.79 311.2"/><rect class="cls-1" x="124.44" y="340.61" width="32.18" height="32.18" transform="translate(492.12 509.56) rotate(135)"/><rect class="cls-1" x="147.19" y="368.83" width="32.18" height="32.18" transform="translate(6.56 772.56) rotate(-135)"/><polygon class="cls-1" points="208.79 407.67 163.28 407.67 186.04 384.92 208.79 407.67"/><rect class="cls-1" x="124.44" y="346.08" width="32.18" height="32.18" transform="translate(-16.2 717.63) rotate(-135)"/><rect class="cls-1" x="108.39" y="279.01" width="32.18" height="32.18" transform="translate(248.97 590.21) rotate(-180)"/><rect class="cls-1" x="108.39" y="246.84" width="32.18" height="32.18" transform="translate(248.97 525.85) rotate(-180)"/></g><g><rect class="cls-1" x="32.41" y="375.55" width="32.18" height="32.18" transform="translate(97 783.28) rotate(-180)"/><rect class="cls-1" x=".23" y="375.55" width="32.18" height="32.18" transform="translate(32.64 783.28) rotate(-180)"/><rect class="cls-1" x="32.41" y="343.37" width="32.18" height="32.18" transform="translate(97 718.92) rotate(-180)"/><rect class="cls-1" x="32.41" y="311.19" width="32.18" height="32.18" transform="translate(97 654.57) rotate(-180)"/><rect class="cls-1" x="32.41" y="246.84" width="32.18" height="32.18" transform="translate(97 525.85) rotate(-180)"/></g><g><rect class="cls-1" x="737.97" y="375.55" width="32.18" height="32.18"/><rect class="cls-1" x="737.97" y="312.22" width="32.18" height="32.18"/><rect class="cls-1" x="737.97" y="344.4" width="32.18" height="31.15"/><rect class="cls-1" x="705.8" y="312.22" width="32.17" height="32.18"/><rect class="cls-1" x="705.79" y="375.55" width="32.18" height="32.18"/></g><g><rect class="cls-1" x="629.81" y="375.55" width="32.18" height="32.18"/><rect class="cls-1" x="629.81" y="343.37" width="32.18" height="32.18"/><rect class="cls-1" x="629.81" y="311.19" width="32.18" height="32.18"/><rect class="cls-1" x="597.63" y="311.19" width="32.18" height="32.18"/><rect class="cls-1" x="565.45" y="311.19" width="32.18" height="32.18"/><rect class="cls-1" x="565.45" y="343.37" width="32.18" height="32.18"/><rect class="cls-1" x="565.45" y="375.55" width="32.18" height="32.18"/></g><rect class="cls-1" x="425.11" y="375.55" width="32.18" height="32.18"/><rect class="cls-1" x="425.11" y="343.37" width="32.18" height="32.18"/><rect class="cls-1" x="425.11" y="311.19" width="32.18" height="32.18"/><rect class="cls-1" x="392.93" y="311.19" width="32.18" height="32.18"/><rect class="cls-1" x="489.47" y="375.55" width="32.18" height="32.18"/><rect class="cls-1" x="489.47" y="343.37" width="32.18" height="32.18"/><rect class="cls-1" x="489.47" y="311.19" width="32.18" height="32.18"/><rect class="cls-1" x="457.29" y="311.19" width="32.18" height="32.18"/><rect class="cls-1" x="360.75" y="311.19" width="32.18" height="32.18"/><rect class="cls-1" x="360.75" y="343.37" width="32.18" height="32.18"/><rect class="cls-1" x="360.75" y="375.55" width="32.18" height="32.18"/><g><rect class="cls-1" x="871.1" y="1.03" width="32.18" height="32.18"/><rect class="cls-1" x="903.28" y="65.39" width="32.18" height="32.18"/><rect class="cls-1" x="871.11" y="65.39" width="32.18" height="32.18"/><rect class="cls-1" x="871.1" y="33.21" width="32.18" height="32.18"/><rect class="cls-1" x="903.28" y="96.54" width="32.18" height="32.18"/><rect class="cls-1" x="903.28" y="128.72" width="32.18" height="32.18"/></g><g><rect class="cls-1" x="986.48" y="65.39" width="32.18" height="32.18"/><rect class="cls-1" x="986.48" y="96.54" width="32.18" height="32.18"/><rect class="cls-1" x="986.48" y="128.72" width="32.18" height="32.18"/></g><g><rect class="cls-1" x="179.14" y="128.72" width="32.18" height="32.18"/><rect class="cls-1" x="146.96" y="128.72" width="32.18" height="32.18"/><rect class="cls-1" x="179.14" y="96.54" width="32.18" height="32.18"/><rect class="cls-1" x="179.14" y="64.36" width="32.18" height="32.18"/><rect class="cls-1" x="146.96" y="64.36" width="32.18" height="32.18"/><rect class="cls-1" x="146.96" y="32.18" width="32.18" height="32.18"/><rect class="cls-1" x="146.96" width="32.18" height="32.18"/></g><g><rect class="cls-1" x="755.73" y="128.72" width="32.18" height="32.18" transform="translate(1543.65 289.61) rotate(-180)"/><rect class="cls-1" x="787.91" y="128.72" width="32.18" height="32.18" transform="translate(1608 289.61) rotate(-180)"/><rect class="cls-1" x="787.91" y="160.89" width="32.18" height="32.18" transform="translate(1608 353.97) rotate(-180)"/><rect class="cls-1" x="787.91" y="193.07" width="32.18" height="32.18" transform="translate(1608 418.33) rotate(-180)"/><rect class="cls-1" x="755.73" y="193.07" width="32.18" height="32.18" transform="translate(1543.65 418.33) rotate(-180)"/><rect class="cls-1" x="755.73" y="96.54" width="32.18" height="32.18" transform="translate(1543.65 225.25) rotate(-180)"/><rect class="cls-1" x="755.73" y="64.36" width="32.18" height="32.18" transform="translate(1543.65 160.89) rotate(-180)"/><rect class="cls-1" x="787.91" y="64.36" width="32.18" height="32.18" transform="translate(1608 160.89) rotate(-180)"/></g><g><rect class="cls-1" x="377.7" y="128.72" width="32.18" height="32.18" transform="translate(787.59 289.61) rotate(-180)"/><rect class="cls-1" x="409.88" y="128.72" width="32.18" height="32.18" transform="translate(851.94 289.61) rotate(-180)"/><rect class="cls-1" x="377.7" y="96.54" width="32.18" height="32.18" transform="translate(787.59 225.25) rotate(-180)"/><rect class="cls-1" x="377.7" y="64.36" width="32.18" height="32.18" transform="translate(787.59 160.89) rotate(-180)"/><rect class="cls-1" x="409.88" y="64.36" width="32.18" height="32.18" transform="translate(851.94 160.89) rotate(-180)"/><rect class="cls-1" x="409.88" y="32.18" width="32.18" height="32.18" transform="translate(851.94 96.54) rotate(-180)"/><rect class="cls-1" x="409.88" y="0" width="32.18" height="32.18" transform="translate(851.94 32.18) rotate(-180)"/></g><g><rect class="cls-1" x="640.39" y="128.72" width="32.18" height="32.18" transform="translate(1312.95 289.61) rotate(-180)"/><rect class="cls-1" x="640.39" y="96.54" width="32.18" height="32.18" transform="translate(1312.95 225.25) rotate(-180)"/><rect class="cls-1" x="640.39" y="64.36" width="32.18" height="32.18" transform="translate(1312.95 160.89) rotate(-180)"/><rect class="cls-1" x="608.45" y="64.36" width="32.18" height="32.18" transform="translate(1249.08 160.89) rotate(-180)"/><rect class="cls-1" x="672.54" y="0" width="32.18" height="32.18" transform="translate(1377.26 32.18) rotate(-180)"/><rect class="cls-1" x="640.39" y="32.18" width="32.18" height="32.18" transform="translate(1312.95 96.54) rotate(-180)"/><rect class="cls-1" x="640.39" y="0" width="32.18" height="32.18" transform="translate(1312.95 32.18) rotate(-180)"/></g><g><rect class="cls-1" x="64.59" y="128.72" width="32.18" height="32.18"/><rect class="cls-1" x="32.41" y="128.72" width="32.18" height="32.18"/><rect class="cls-1" x="32.41" y="96.54" width="32.18" height="32.18"/><rect class="cls-1" x="32.41" y="64.36" width="32.18" height="32.18"/><rect class="cls-1" x=".23" y="64.36" width="32.18" height="32.18"/><rect class="cls-1" x=".23" y="128.72" width="32.18" height="32.18"/></g><g><rect class="cls-1" x="262.33" y="128.72" width="32.18" height="32.18" transform="translate(556.84 289.61) rotate(-180)"/><rect class="cls-1" x="262.33" y="96.54" width="32.18" height="32.18" transform="translate(556.84 225.25) rotate(-180)"/><rect class="cls-1" x="262.33" y="64.36" width="32.18" height="32.18" transform="translate(556.84 160.89) rotate(-180)"/><rect class="cls-1" x="294.51" y="64.36" width="32.18" height="32.18" transform="translate(621.2 160.89) rotate(-180)"/><rect class="cls-1" x="294.51" y="128.72" width="32.18" height="32.18" transform="translate(621.2 289.61) rotate(-180)"/></g><g><rect class="cls-1" x="493.08" y="128.72" width="32.18" height="32.18" transform="translate(1018.33 289.61) rotate(-180)"/><rect class="cls-1" x="525.25" y="128.72" width="32.18" height="32.18" transform="translate(1082.69 289.61) rotate(-180)"/><rect class="cls-1" x="493.08" y="96.54" width="32.18" height="32.18" transform="translate(1018.33 225.25) rotate(-180)"/><rect class="cls-1" x="493.08" y="64.36" width="32.18" height="32.18" transform="translate(1018.33 160.89) rotate(-180)"/><rect class="cls-1" x="525.25" y="64.36" width="32.18" height="32.18" transform="translate(1082.69 160.89) rotate(-180)"/><rect class="cls-1" x="525.25" y="96.54" width="32.18" height="16.09"/></g><rect class="cls-1" x="252.59" y="375.55" width="32.18" height="32.18" transform="translate(537.36 783.28) rotate(-180)"/><rect class="cls-1" x="252.59" y="343.37" width="32.18" height="32.18" transform="translate(537.36 718.92) rotate(-180)"/><rect class="cls-1" x="252.59" y="311.19" width="32.18" height="32.18" transform="translate(537.36 654.57) rotate(-180)"/><rect class="cls-1" x="252.59" y="279.01" width="32.18" height="32.18" transform="translate(537.36 590.21) rotate(-180)"/><rect class="cls-1" x="252.59" y="246.84" width="32.18" height="32.18" transform="translate(537.36 525.85) rotate(-180)"/></svg>