<?xml version="1.0" encoding="UTF-8"?><svg id="Layer_1" xmlns="http://www.w3.org/2000/svg" viewBox="0 0 608.17 446.52"><defs><style>.cls-1{fill:#006838;}.cls-2{fill:#009345;}.cls-3{fill:#ffdd15;}.cls-4{fill:#9f1622;}.cls-5{fill:#be1e2d;}.cls-6{fill:#c4aa15;}.cls-7{fill:#13588e;}.cls-8{fill:#1b75bb;}</style></defs><rect class="cls-5" x="545.63" y="257.9" width="62.54" height="62.54"/><rect class="cls-3" x="545.62" y="134.82" width="62.54" height="62.54"/><rect class="cls-5" x="545.62" y="197.36" width="62.54" height="60.54"/><rect class="cls-5" x="420.54" y="257.9" width="62.54" height="62.54"/><rect class="cls-3" x="420.54" y="134.82" width="62.54" height="62.54"/><rect class="cls-5" x="420.54" y="197.36" width="62.54" height="60.54"/><rect class="cls-3" x="483.09" y="134.82" width="62.53" height="62.54"/><rect class="cls-5" x="483.09" y="257.9" width="62.54" height="62.54"/><rect class="cls-8" x="0" y="258.9" width="62.54" height="62.54" transform="translate(62.54 580.34) rotate(-180)"/><rect class="cls-8" x="0" y="196.36" width="62.54" height="62.54" transform="translate(62.54 455.26) rotate(-180)"/><rect class="cls-8" x="0" y="133.82" width="62.54" height="62.54" transform="translate(62.54 330.18) rotate(-180)"/><rect class="cls-8" x="0" y="71.28" width="62.54" height="62.54" transform="translate(62.54 205.1) rotate(-180)"/><rect class="cls-5" x="0" y="8.74" width="62.54" height="62.54" transform="translate(62.54 80.02) rotate(-180)"/><rect class="cls-3" x="268" y="258.9" width="62.54" height="62.54" transform="translate(598.54 580.34) rotate(-180)"/><rect class="cls-3" x="330.54" y="258.9" width="62.54" height="62.54" transform="translate(723.62 580.34) rotate(-180)"/><rect class="cls-3" x="330.54" y="321.44" width="62.54" height="62.54" transform="translate(723.62 705.42) rotate(-180)"/><rect class="cls-3" x="330.54" y="383.98" width="62.54" height="62.54" transform="translate(723.62 830.5) rotate(-180)"/><rect class="cls-3" x="268" y="383.98" width="62.54" height="62.54" transform="translate(598.54 830.5) rotate(-180)"/><rect class="cls-3" x="268" y="196.36" width="62.54" height="62.54" transform="translate(598.54 455.26) rotate(-180)"/><rect class="cls-2" x="268" y="133.82" width="62.54" height="62.54" transform="translate(598.54 330.18) rotate(-180)"/><rect class="cls-2" x="330.54" y="133.82" width="62.54" height="62.54" transform="translate(723.62 330.18) rotate(-180)"/><rect class="cls-2" x="105.52" y="258.9" width="62.54" height="62.54" transform="translate(273.58 580.34) rotate(-180)"/><rect class="cls-2" x="168.06" y="258.9" width="62.54" height="62.54" transform="translate(398.66 580.34) rotate(-180)"/><rect class="cls-2" x="105.52" y="196.36" width="62.54" height="62.54" transform="translate(273.58 455.26) rotate(-180)"/><rect class="cls-8" x="105.52" y="133.82" width="62.54" height="62.54" transform="translate(273.58 330.18) rotate(-180)"/><rect class="cls-8" x="168.06" y="133.82" width="62.54" height="62.54" transform="translate(398.66 330.18) rotate(-180)"/><rect class="cls-2" x="168.06" y="196.36" width="62.54" height="31.27"/><polyline class="cls-5" points="26.31 1.78 26.31 9.44 5.21 9.44 5.21 1.78"/><polyline class="cls-5" points="57.15 1.78 57.15 9.44 36.06 9.44 36.06 1.78"/><ellipse class="cls-4" cx="15.76" cy="1.78" rx="10.55" ry="1.78"/><ellipse class="cls-4" cx="46.61" cy="1.78" rx="10.55" ry="1.78"/><polyline class="cls-8" points="133.61 127.36 133.61 135.02 112.52 135.02 112.52 127.36"/><polyline class="cls-8" points="164.46 127.36 164.46 135.02 143.36 135.02 143.36 127.36"/><ellipse class="cls-7" cx="123.07" cy="127.36" rx="10.55" ry="1.78"/><ellipse class="cls-7" cx="153.91" cy="127.36" rx="10.55" ry="1.78"/><polyline class="cls-8" points="195.53 127.36 195.53 135.02 174.43 135.02 174.43 127.36"/><polyline class="cls-8" points="226.37 127.36 226.37 135.02 205.28 135.02 205.28 127.36"/><ellipse class="cls-7" cx="184.98" cy="127.36" rx="10.55" ry="1.78"/><ellipse class="cls-7" cx="215.82" cy="127.36" rx="10.55" ry="1.78"/><polyline class="cls-2" points="296.73 127.35 296.73 135.01 275.64 135.01 275.64 127.35"/><polyline class="cls-2" points="327.58 127.35 327.58 135.01 306.48 135.01 306.48 127.35"/><ellipse class="cls-1" cx="286.18" cy="127.35" rx="10.55" ry="1.78"/><ellipse class="cls-1" cx="317.03" cy="127.35" rx="10.55" ry="1.78"/><polyline class="cls-2" points="358.64 127.35 358.64 135.01 337.55 135.01 337.55 127.35"/><polyline class="cls-2" points="389.49 127.35 389.49 135.01 368.4 135.01 368.4 127.35"/><ellipse class="cls-1" cx="348.1" cy="127.35" rx="10.55" ry="1.78"/><ellipse class="cls-1" cx="378.94" cy="127.35" rx="10.55" ry="1.78"/><polyline class="cls-3" points="447.25 127.35 447.25 135.01 426.15 135.01 426.15 127.35"/><polyline class="cls-3" points="478.1 127.35 478.1 135.01 457 135.01 457 127.35"/><ellipse class="cls-6" cx="436.7" cy="127.35" rx="10.55" ry="1.78"/><ellipse class="cls-6" cx="467.55" cy="127.35" rx="10.55" ry="1.78"/><polyline class="cls-3" points="509.16 127.35 509.16 135.01 488.06 135.01 488.06 127.35"/><polyline class="cls-3" points="540.01 127.35 540.01 135.01 518.91 135.01 518.91 127.35"/><ellipse class="cls-6" cx="498.61" cy="127.35" rx="10.55" ry="1.78"/><ellipse class="cls-6" cx="529.46" cy="127.35" rx="10.55" ry="1.78"/><polyline class="cls-3" points="572.01 127.35 572.01 135.01 550.92 135.01 550.92 127.35"/><polyline class="cls-3" points="602.86 127.35 602.86 135.01 581.76 135.01 581.76 127.35"/><ellipse class="cls-6" cx="561.47" cy="127.35" rx="10.55" ry="1.78"/><ellipse class="cls-6" cx="592.31" cy="127.35" rx="10.55" ry="1.78"/></svg>