<?xml version="1.0" encoding="UTF-8"?><svg id="Layer_1" xmlns="http://www.w3.org/2000/svg" viewBox="0 0 769.78 395.56"><defs><style>.cls-1{fill:#231f20;}</style></defs><rect class="cls-1" x="698.67" y="324.45" width="71.11" height="71.11"/><rect class="cls-1" x="698.67" y="243.34" width="71.11" height="71.11"/><rect class="cls-1" x="698.67" y="162.22" width="71.11" height="71.11"/><rect class="cls-1" x="617.56" y="162.22" width="71.11" height="71.11"/><rect class="cls-1" x="617.56" y="81.11" width="71.11" height="71.11"/><rect class="cls-1" x="617.56" width="71.11" height="71.11"/><rect class="cls-1" x="594.3" y="324.45" width="71.11" height="71.11"/><rect class="cls-1" x="513.19" y="324.45" width="71.11" height="71.11"/><rect class="cls-1" x="513.19" y="243.34" width="71.11" height="71.11"/><rect class="cls-1" x="513.19" y="162.23" width="71.11" height="71.11"/><rect class="cls-1" x="432.07" y="162.23" width="71.11" height="71.11"/><rect class="cls-1" x="432.07" y="324.45" width="71.11" height="71.11"/><rect class="cls-1" x="162.22" y="324.45" width="71.11" height="71.11"/><rect class="cls-1" x="162.22" y="243.34" width="71.11" height="71.11"/><rect class="cls-1" x="162.22" y="162.22" width="71.11" height="71.11"/><rect class="cls-1" x="81.11" y="162.22" width="71.11" height="71.11"/><rect class="cls-1" y="162.22" width="71.11" height="71.11"/><rect class="cls-1" y="243.34" width="71.11" height="71.11"/><rect class="cls-1" y="324.45" width="71.11" height="71.11"/><rect class="cls-1" x="256.59" y="324.45" width="71.11" height="71.11"/><rect class="cls-1" x="337.7" y="324.45" width="71.11" height="71.11"/><rect class="cls-1" x="337.7" y="243.34" width="71.11" height="71.11"/><rect class="cls-1" x="256.59" y="162.22" width="71.11" height="71.11"/><rect class="cls-1" x="337.7" y="162.22" width="71.11" height="71.11"/></svg>