<?xml version="1.0" encoding="UTF-8"?><svg id="Layer_1" xmlns="http://www.w3.org/2000/svg" viewBox="0 0 739.78 355.56"><defs><style>.cls-1{fill:#231f20;}</style></defs><polygon class="cls-1" points="739.78 142.22 739.78 355.56 668.67 355.56 668.67 213.33 597.56 213.33 597.56 0 668.67 0 668.67 142.22 739.78 142.22"/><polygon class="cls-1" points="564.29 142.23 422.07 142.23 422.07 213.34 493.18 213.34 493.18 284.45 422.07 284.45 422.07 355.56 554.3 355.56 564.29 355.56 635.41 355.56 635.41 284.45 564.29 284.45 564.29 142.23"/><polygon class="cls-1" points="0 203.34 0 213.33 0 355.56 71.11 355.56 71.11 213.33 142.22 213.33 142.22 355.56 213.33 355.56 213.33 213.33 213.33 203.34 213.33 142.22 0 142.22 0 203.34"/><polygon class="cls-1" points="246.59 213.33 317.7 213.33 317.7 284.45 246.59 284.45 246.59 355.56 388.81 355.56 388.81 213.33 388.81 203.34 388.81 142.22 246.59 142.22 246.59 213.33"/></svg>