<?xml version="1.0" encoding="utf-8"?>
<!-- Generator: Adobe Illustrator 26.3.1, SVG Export Plug-In . SVG Version: 6.00 Build 0)  -->
<svg version="1.1" id="Layer_1" xmlns="http://www.w3.org/2000/svg" xmlns:xlink="http://www.w3.org/1999/xlink" x="0px" y="0px"
	 viewBox="0 0 608.2 446.5" style="enable-background:new 0 0 608.2 446.5;" xml:space="preserve">
<style type="text/css">
	.st0{fill:#9EFF2E;}
	.st1{fill:#7CE25A;}
	.st2{fill:#231F20;}
	.st3{fill:#BE1E2D;}
	.st4{fill:#FFDD15;}
	.st5{fill:#1B75BB;}
	.st6{fill:#009345;}
	.st7{fill:#9F1622;}
	.st8{fill:#13588E;}
	.st9{fill:#006838;}
	.st10{fill:#C4AA15;}
	.st11{fill:none;}
	.st12{fill:#E8D92A;}
	.st13{fill:#E12626;}
	.st14{fill:#44B449;}
	.st15{fill:#3777BC;}
	.st16{fill:#45B549;}
	.st17{fill:#3677BB;}
	.st18{fill:#E8D828;}
	.st19{fill:#215584;}
	.st20{fill:#21782E;}
	.st21{fill:#837F12;}
	.st22{fill:#10C685;}
	.st23{fill:none;stroke:#FCB01A;stroke-width:6;stroke-miterlimit:10;}
	.st24{fill:#A51C3D;}
	.st25{fill:#00904C;}
	.st26{fill:#702634;}
	.st27{fill:#FF1A3B;}
	.st28{fill:#FC83B2;}
	.st29{fill:#413470;}
	.st30{fill:#6C42E2;}
	.st31{fill:#B076F4;}
	.st32{fill:#0F4417;}
	.st33{fill:#BB3A07;}
	.st34{fill:#7F2602;}
	.st35{fill:#F95B1C;}
	.st36{fill:#FFA60D;}
	.st37{fill:url(#);}
	.st38{fill:url(#SVGID_1_);}
	.st39{fill:url(#SVGID_00000148661039926447327430000013905487381853602708_);}
	.st40{fill:url(#SVGID_00000158712244684005555910000001435795326496042385_);}
	.st41{fill:url(#SVGID_00000090295766103134243040000010973261436457226885_);}
	.st42{fill:url(#SVGID_00000160181237096358698550000006758556488403581099_);}
	.st43{fill:url(#SVGID_00000061439195113969595090000004468608110842847422_);}
	.st44{fill:url(#SVGID_00000021798186006597177720000000010756286646623669_);}
	.st45{fill:url(#SVGID_00000093874804875827075300000008510294797563974789_);}
	.st46{fill:url(#SVGID_00000091728862316233430940000008167989681439675838_);}
	.st47{fill:url(#SVGID_00000175318063576213320860000006004991530815801016_);}
	.st48{fill:url(#SVGID_00000130640021760345130680000007033606187160209853_);}
	.st49{fill:url(#SVGID_00000177453319619892333270000018065771185733474970_);}
	.st50{fill:url(#SVGID_00000060721910275604518460000016993464098401267331_);}
	.st51{fill:url(#SVGID_00000174563662278220247570000018199816909812165298_);}
	.st52{fill:url(#SVGID_00000071558496134572461530000005596430114814224564_);}
	.st53{fill:url(#SVGID_00000116938103182286734320000000708659228723475366_);}
	.st54{fill:url(#SVGID_00000039819975913946678840000012057696353411946908_);}
	.st55{fill:url(#SVGID_00000060737050221808820490000007700925172250743473_);}
	.st56{fill:url(#SVGID_00000160180229642224565250000003703512887489900449_);}
	.st57{fill:url(#SVGID_00000067219697863690604260000003862733224827808387_);}
	.st58{fill:url(#SVGID_00000176036770438992481470000006211003116246334622_);}
	.st59{fill:url(#SVGID_00000172415799766594245490000002093380150220501904_);}
	.st60{fill:url(#SVGID_00000005966209944924502630000003721932776928890291_);}
	.st61{fill:url(#SVGID_00000044890459007210769140000017355506320791841447_);}
	.st62{fill:url(#SVGID_00000080193406390312747860000010399308917442812597_);}
	.st63{fill:url(#SVGID_00000122705696143039999530000016567670842207767966_);}
	.st64{fill:url(#SVGID_00000049184605519956655140000017615744372192156558_);}
	.st65{fill:url(#SVGID_00000103986895647051466830000011049155202901751989_);}
	.st66{fill:url(#SVGID_00000150817369720910487750000011552179427385490863_);}
	.st67{fill:url(#SVGID_00000181806571867350562710000008527962624238602894_);}
	.st68{fill:url(#SVGID_00000154398730993295578450000011276816952232792492_);}
	.st69{fill:url(#SVGID_00000099634838737498363140000007019397609486283654_);}
	.st70{fill:url(#SVGID_00000144336219081346762640000002918974476176582018_);}
	.st71{fill:url(#SVGID_00000054244087798904051120000007183010552435200135_);}
	.st72{fill:url(#SVGID_00000073722786031220967870000008403053526677121413_);}
	.st73{fill:url(#SVGID_00000029764927533649569630000007732352799552233647_);}
	.st74{fill:url(#SVGID_00000054961388728942259120000010706668907660257677_);}
	.st75{fill:url(#SVGID_00000089542698733764513170000001680244286311543442_);}
	.st76{fill:url(#SVGID_00000047766637437092098610000015305650974872081596_);}
	.st77{fill:url(#SVGID_00000022555301346730872300000001378918126677003680_);}
	.st78{fill:url(#SVGID_00000178164300688499360470000017229079359373668484_);}
	.st79{fill:url(#SVGID_00000094619006334898695310000018208017083192461732_);}
	.st80{fill:url(#SVGID_00000117650207684900189410000006379342442364549281_);}
	.st81{fill:url(#SVGID_00000090276624055176823330000004013937557138830506_);}
	.st82{fill:url(#SVGID_00000146459360006309722060000000153938780642229424_);}
	.st83{fill:url(#SVGID_00000145750460378627998900000004746227107108786326_);}
</style>
<g>
	<polygon class="st3" points="608.2,197.4 608.2,320.4 420.5,320.4 420.5,257.9 420.5,257.9 420.5,197.4 483.1,197.4 483.1,257.9 
		545.6,257.9 545.6,257.9 545.6,257.9 545.6,257.9 545.6,257.9 545.6,197.4 	"/>
	<path class="st4" d="M608.2,134.8v62.5H420.5v-62.5h5.6v-7.5c0,1,4.7,1.8,10.6,1.8c5.8,0,10.5-0.8,10.5-1.8v7.5h9.8v-7.5
		c0,1,4.7,1.8,10.6,1.8c5.8,0,10.6-0.8,10.6-1.8v7.5h10v-7.5c0,1,4.7,1.8,10.6,1.8c5.8,0,10.6-0.8,10.6-1.8v7.5h9.7v-7.5
		c0,1,4.7,1.8,10.5,1.8c5.8,0,10.5-0.8,10.5-1.8v7.5h10.9v-7.5c0,1,4.7,1.8,10.5,1.8c5.8,0,10.6-0.8,10.6-1.8v7.5h9.8v-7.5
		c0,1,4.7,1.8,10.6,1.8c5.8,0,10.6-0.8,10.6-1.8v7.5H608.2z"/>
	<rect x="545.6" y="257.9" class="st3" width="0" height="0"/>
	<rect x="545.6" y="257.9" class="st3" width="0" height="0"/>
	<rect x="0" y="71.3" class="st5" width="62.5" height="250.2"/>
	<rect x="0" y="8.7" class="st3" width="62.5" height="62.5"/>
	<polygon class="st4" points="393.1,258.9 393.1,446.5 268,446.5 268,384 330.5,384 330.5,321.4 268,321.4 268,196.4 330.5,196.4 
		330.5,258.9 	"/>
	<rect x="275.6" y="133.8" class="st6" width="21.1" height="1.2"/>
	<rect x="306.5" y="133.8" class="st6" width="21.1" height="1.2"/>
	<polygon class="st6" points="393.1,133.8 393.1,196.4 268,196.4 268,133.8 275.6,133.8 275.6,135 296.7,135 296.7,133.8 
		306.5,133.8 306.5,135 327.6,135 327.6,133.8 337.5,133.8 337.5,135 358.6,135 358.6,133.8 368.4,133.8 368.4,135 389.5,135 
		389.5,133.8 	"/>
	<rect x="337.5" y="133.8" class="st6" width="21.1" height="1.2"/>
	<rect x="368.4" y="133.8" class="st6" width="21.1" height="1.2"/>
	<rect x="112.5" y="133.8" class="st5" width="21.1" height="1.2"/>
	<rect x="143.4" y="133.8" class="st5" width="21.1" height="1.2"/>
	<rect x="168.1" y="196.4" class="st5" width="0" height="0"/>
	<polygon class="st5" points="230.6,133.8 230.6,196.4 168.1,196.4 168.1,196.4 105.5,196.4 105.5,133.8 112.5,133.8 112.5,135 
		133.6,135 133.6,133.8 143.4,133.8 143.4,135 164.5,135 164.5,133.8 174.4,133.8 174.4,135 195.5,135 195.5,133.8 205.3,133.8 
		205.3,135 226.4,135 226.4,133.8 	"/>
	<rect x="174.4" y="133.8" class="st5" width="21.1" height="1.2"/>
	<rect x="205.3" y="133.8" class="st5" width="21.1" height="1.2"/>
	<rect x="168.1" y="196.4" class="st5" width="62.5" height="0"/>
	<polygon class="st6" points="168.1,227.6 168.1,258.9 230.6,258.9 230.6,321.4 105.5,321.4 105.5,196.4 230.6,196.4 230.6,227.6 	
		"/>
	<rect x="168.1" y="196.4" class="st6" width="62.6" height="0"/>
	<rect x="5.2" y="1.8" class="st3" width="21.1" height="7.7"/>
	<rect x="36.1" y="1.8" class="st3" width="21.1" height="7.7"/>
	<ellipse class="st7" cx="15.8" cy="1.8" rx="10.5" ry="1.8"/>
	<ellipse class="st7" cx="46.6" cy="1.8" rx="10.5" ry="1.8"/>
	<rect x="112.5" y="127.4" class="st5" width="21.1" height="7.7"/>
	<rect x="143.4" y="127.4" class="st5" width="21.1" height="7.7"/>
	<ellipse class="st8" cx="123.1" cy="127.4" rx="10.5" ry="1.8"/>
	<ellipse class="st8" cx="153.9" cy="127.4" rx="10.5" ry="1.8"/>
	<rect x="174.4" y="127.4" class="st5" width="21.1" height="7.7"/>
	<rect x="205.3" y="127.4" class="st5" width="21.1" height="7.7"/>
	<ellipse class="st8" cx="185" cy="127.4" rx="10.5" ry="1.8"/>
	<ellipse class="st8" cx="215.8" cy="127.4" rx="10.5" ry="1.8"/>
	<rect x="275.6" y="127.4" class="st6" width="21.1" height="7.7"/>
	<rect x="306.5" y="127.4" class="st6" width="21.1" height="7.7"/>
	<ellipse class="st9" cx="286.2" cy="127.4" rx="10.5" ry="1.8"/>
	<ellipse class="st9" cx="317" cy="127.4" rx="10.5" ry="1.8"/>
	<rect x="337.5" y="127.4" class="st6" width="21.1" height="7.7"/>
	<rect x="368.4" y="127.4" class="st6" width="21.1" height="7.7"/>
	<ellipse class="st9" cx="348.1" cy="127.4" rx="10.5" ry="1.8"/>
	<ellipse class="st9" cx="378.9" cy="127.4" rx="10.5" ry="1.8"/>
	<path class="st4" d="M447.2,127.4c0,1-4.7,1.8-10.5,1.8c-5.8,0-10.6-0.8-10.6-1.8H447.2z"/>
	<path class="st4" d="M478.1,127.4c0,1-4.7,1.8-10.6,1.8c-5.8,0-10.6-0.8-10.6-1.8H478.1z"/>
	<path class="st10" d="M447.2,127.4c0,1-4.7,1.8-10.5,1.8c-5.8,0-10.6-0.8-10.6-1.8c0-1,4.7-1.8,10.6-1.8
		C442.5,125.6,447.2,126.4,447.2,127.4z"/>
	<path class="st10" d="M478.1,127.4c0,1-4.7,1.8-10.6,1.8c-5.8,0-10.6-0.8-10.6-1.8c0-1,4.7-1.8,10.6-1.8
		C473.4,125.6,478.1,126.4,478.1,127.4z"/>
	<path class="st4" d="M509.2,127.4c0,1-4.7,1.8-10.6,1.8c-5.8,0-10.6-0.8-10.6-1.8H509.2z"/>
	<path class="st4" d="M540,127.4c0,1-4.7,1.8-10.5,1.8c-5.8,0-10.5-0.8-10.5-1.8H540z"/>
	<path class="st10" d="M509.2,127.4c0,1-4.7,1.8-10.6,1.8c-5.8,0-10.6-0.8-10.6-1.8c0-1,4.7-1.8,10.6-1.8
		C504.4,125.6,509.2,126.4,509.2,127.4z"/>
	<path class="st10" d="M540,127.4c0,1-4.7,1.8-10.5,1.8c-5.8,0-10.5-0.8-10.5-1.8c0-1,4.7-1.8,10.5-1.8
		C535.3,125.6,540,126.4,540,127.4z"/>
	<path class="st4" d="M572,127.4c0,1-4.7,1.8-10.6,1.8c-5.8,0-10.5-0.8-10.5-1.8H572z"/>
	<path class="st4" d="M602.9,127.4c0,1-4.7,1.8-10.6,1.8c-5.8,0-10.6-0.8-10.6-1.8H602.9z"/>
	<path class="st10" d="M572,127.4c0,1-4.7,1.8-10.6,1.8c-5.8,0-10.5-0.8-10.5-1.8c0-1,4.7-1.8,10.5-1.8
		C567.3,125.6,572,126.4,572,127.4z"/>
	<path class="st10" d="M602.9,127.4c0,1-4.7,1.8-10.6,1.8c-5.8,0-10.6-0.8-10.6-1.8c0-1,4.7-1.8,10.6-1.8
		C598.1,125.6,602.9,126.4,602.9,127.4z"/>
</g>
</svg>
