<?xml version="1.0" encoding="UTF-8"?><svg id="Layer_1" xmlns="http://www.w3.org/2000/svg" viewBox="0 0 1000 1000"><defs><style>.cls-1{fill:#231f20;}</style></defs><polygon class="cls-1" points="463.28 534.83 446.43 606.8 374.46 606.8 357.61 678.77 501.56 678.77 552.1 462.85 408.15 462.85 391.31 534.83 463.28 534.83"/><polygon class="cls-1" points="391.97 462.87 341.47 678.76 269.49 678.76 303.16 534.83 231.18 534.83 197.52 678.76 125.54 678.76 176.04 462.87 391.97 462.87"/><polygon class="cls-1" points="874.46 465.14 823.96 678.76 751.98 678.76 785.65 537.11 713.67 537.11 764.17 321.23 836.14 321.23 802.48 465.14 874.46 465.14"/><polygon class="cls-1" points="751.31 606.8 734.48 678.77 518.57 678.77 535.4 606.8 607.36 606.8 624.2 534.83 552.23 534.83 569.07 462.85 713 462.85 679.34 606.8 751.31 606.8"/></svg>