<?xml version="1.0" encoding="utf-8"?>
<!-- Generator: Adobe Illustrator 26.3.1, SVG Export Plug-In . SVG Version: 6.00 Build 0)  -->
<svg version="1.1" id="Layer_1" xmlns="http://www.w3.org/2000/svg" xmlns:xlink="http://www.w3.org/1999/xlink" x="0px" y="0px"
	 viewBox="0 0 608.7 446.5" style="enable-background:new 0 0 608.7 446.5;" xml:space="preserve">
<style type="text/css">
	.st0{fill:#9EFF2E;}
	.st1{fill:#7CE25A;}
	.st2{fill:#231F20;}
	.st3{fill:#BE1E2D;}
	.st4{fill:#FFDD15;}
	.st5{fill:#1B75BB;}
	.st6{fill:#009345;}
	.st7{fill:#9F1622;}
	.st8{fill:#13588E;}
	.st9{fill:#006838;}
	.st10{fill:#C4AA15;}
	.st11{fill:none;}
	.st12{fill:#E8D92A;}
	.st13{fill:#E12626;}
	.st14{fill:#44B449;}
	.st15{fill:#3777BC;}
	.st16{fill:#45B549;}
	.st17{fill:#3677BB;}
	.st18{fill:#E8D828;}
	.st19{fill:#215584;}
	.st20{fill:#21782E;}
	.st21{fill:#837F12;}
	.st22{fill:#10C685;}
	.st23{fill:none;stroke:#FCB01A;stroke-width:6;stroke-miterlimit:10;}
	.st24{fill:#A51C3D;}
	.st25{fill:#00904C;}
	.st26{fill:#702634;}
	.st27{fill:#FF1A3B;}
	.st28{fill:#FC83B2;}
	.st29{fill:#413470;}
	.st30{fill:#6C42E2;}
	.st31{fill:#B076F4;}
	.st32{fill:#0F4417;}
	.st33{fill:#BB3A07;}
	.st34{fill:#7F2602;}
	.st35{fill:#F95B1C;}
	.st36{fill:#FFA60D;}
	.st37{fill:url(#);}
	.st38{fill:url(#SVGID_1_);}
	.st39{fill:url(#SVGID_00000108285294369784818020000006739086620610129315_);}
	.st40{fill:url(#SVGID_00000052074243792601035830000002376094519396899481_);}
	.st41{fill:url(#SVGID_00000148635048561712639630000012867587967232219579_);}
	.st42{fill:url(#SVGID_00000053543007642944233220000005132676755638107523_);}
	.st43{fill:url(#SVGID_00000008867218015278027230000003827383058540269239_);}
	.st44{fill:url(#SVGID_00000102529223130661335000000000761361463966045374_);}
	.st45{fill:url(#SVGID_00000026138779787363072310000009437740718026358672_);}
	.st46{fill:url(#SVGID_00000037662885099704796950000002106944216910648192_);}
	.st47{fill:url(#SVGID_00000176737545160010002960000003931643204745883838_);}
	.st48{fill:url(#SVGID_00000021808050057592630020000004995486670875515278_);}
	.st49{fill:url(#SVGID_00000075142149546691470100000009984472467769372557_);}
	.st50{fill:url(#SVGID_00000160872862796069927730000016205875222265363596_);}
	.st51{fill:url(#SVGID_00000135651181286407748640000001914354321986852741_);}
	.st52{fill:url(#SVGID_00000101785091023530001880000006794359010285680318_);}
	.st53{fill:url(#SVGID_00000087404962009069745260000005382404874153056676_);}
	.st54{fill:url(#SVGID_00000072249789351902263950000007450729682871468470_);}
	.st55{fill:url(#SVGID_00000049216329997249452420000007601698196497159563_);}
	.st56{fill:url(#SVGID_00000139281367863286202420000011768322639882694808_);}
	.st57{fill:url(#SVGID_00000116918584320207823560000002405068987699846792_);}
	.st58{fill:url(#SVGID_00000171719649641048984660000001713678108243298177_);}
	.st59{fill:url(#SVGID_00000006694489024900609480000012813497441218265009_);}
	.st60{fill:url(#SVGID_00000078740802335620778900000011033456964916321414_);}
	.st61{fill:url(#SVGID_00000088132324652966267470000011582024680539854232_);}
	.st62{fill:url(#SVGID_00000078755232940677272970000014608414849981298099_);}
	.st63{fill:url(#SVGID_00000096774751745632873440000006183310890727054265_);}
	.st64{fill:url(#SVGID_00000044877274653077329890000007776382483845532599_);}
	.st65{fill:url(#SVGID_00000011730646640881124580000006006282276933774480_);}
	.st66{fill:url(#SVGID_00000005233997606399381900000011642621261357340289_);}
	.st67{fill:url(#SVGID_00000113313408860387583520000010025688315486332805_);}
	.st68{fill:url(#SVGID_00000123412031014702488770000003638027433392354736_);}
	.st69{fill:url(#SVGID_00000156554969648440354970000000754427037326931122_);}
	.st70{fill:url(#SVGID_00000082367669557163281090000013497681835912377251_);}
	.st71{fill:url(#SVGID_00000174562177864931302780000002026192474245489323_);}
	.st72{fill:url(#SVGID_00000028287464931158017230000012009468155757505452_);}
	.st73{fill:url(#SVGID_00000065055945864273255670000015346382600301777061_);}
	.st74{fill:url(#SVGID_00000137843339276850138320000011900964522451452306_);}
	.st75{fill:url(#SVGID_00000177468857790340276700000002341550470832296872_);}
	.st76{fill:url(#SVGID_00000031925224157931706470000007145605773600896670_);}
	.st77{fill:url(#SVGID_00000183939681109807188600000002047495999439004835_);}
	.st78{fill:url(#SVGID_00000176032535505088811520000013384989321067177617_);}
	.st79{fill:url(#SVGID_00000029752595974344726920000003852618041864695487_);}
	.st80{fill:url(#SVGID_00000075865160796801262570000010332648892893462407_);}
	.st81{fill:url(#SVGID_00000140729760064844341070000007433906476724101027_);}
	.st82{fill:url(#SVGID_00000049929578206401031210000013259562391523904411_);}
	.st83{fill:url(#SVGID_00000055697170645353865620000005388588438429076615_);}
</style>
<g>
	<g>
		<rect x="488.6" y="134.8" class="st4" width="5" height="0.2"/>
		<polygon class="st4" points="608.7,134.8 608.7,197.4 421.1,197.4 421.1,134.8 426.7,134.8 426.7,135 447.8,135 447.8,134.8 
			457.6,134.8 457.6,135 478.7,135 478.7,134.8 488.6,134.8 488.6,135 509.7,135 509.7,134.8 519.5,134.8 519.5,135 540.6,135 
			540.6,134.8 551.5,134.8 551.5,135 572.6,135 572.6,134.8 582.3,134.8 582.3,135 603.4,135 603.4,134.8 		"/>
		<rect x="551.5" y="134.8" class="st4" width="21.1" height="0.2"/>
		<rect x="582.3" y="134.8" class="st4" width="21.1" height="0.2"/>
		<rect x="546.2" y="257.9" class="st2" width="0" height="0"/>
		<rect x="426.7" y="134.8" class="st4" width="21.1" height="0.2"/>
		<rect x="457.6" y="134.8" class="st4" width="21.1" height="0.2"/>
		<polygon class="st2" points="608.7,197.4 608.7,320.4 421.1,320.4 421.1,257.9 421.1,257.9 421.1,197.4 483.7,197.4 483.7,257.9 
			546.2,257.9 546.2,257.9 546.2,257.9 546.2,257.9 546.2,257.9 546.2,197.4 		"/>
		<rect x="488.6" y="134.8" class="st4" width="21.1" height="0.2"/>
		<rect x="519.5" y="134.8" class="st4" width="21.1" height="0.2"/>
		<rect x="546.2" y="257.9" class="st2" width="0" height="0"/>
		<rect x="0.6" y="71.3" class="st2" width="62.5" height="250.2"/>
		<rect x="0.6" y="8.7" class="st3" width="62.5" height="62.5"/>
		<polygon class="st2" points="393.7,258.9 393.7,446.5 268.6,446.5 268.6,384 331.1,384 331.1,321.4 268.6,321.4 268.6,196.4 
			331.1,196.4 331.1,258.9 		"/>
		<rect x="276.2" y="133.8" class="st6" width="21.1" height="1.2"/>
		<rect x="307.1" y="133.8" class="st6" width="21.1" height="1.2"/>
		<polygon class="st6" points="393.7,133.8 393.7,196.4 268.6,196.4 268.6,133.8 276.2,133.8 276.2,135 297.3,135 297.3,133.8 
			307.1,133.8 307.1,135 328.1,135 328.1,133.8 338.1,133.8 338.1,135 359.2,135 359.2,133.8 369,133.8 369,135 390.1,135 
			390.1,133.8 		"/>
		<rect x="338.1" y="133.8" class="st6" width="21.1" height="1.2"/>
		<rect x="369" y="133.8" class="st6" width="21.1" height="1.2"/>
		<polygon class="st2" points="231.2,258.9 231.2,321.4 106.1,321.4 106.1,196.4 168.6,196.4 168.6,227.6 168.6,227.6 168.6,258.9 
					"/>
		<rect x="168.6" y="196.4" class="st2" width="62.5" height="31.3"/>
		<rect x="168.6" y="196.4" class="st2" width="0" height="31.3"/>
		<rect x="113.1" y="133.8" class="st5" width="21.1" height="1.2"/>
		<rect x="143.9" y="133.8" class="st5" width="21.1" height="1.2"/>
		<polygon class="st5" points="231.2,133.8 231.2,196.4 106.1,196.4 106.1,133.8 113.1,133.8 113.1,135 134.2,135 134.2,133.8 
			143.9,133.8 143.9,135 165,135 165,133.8 175,133.8 175,135 196.1,135 196.1,133.8 205.8,133.8 205.8,135 226.9,135 226.9,133.8 
					"/>
		<rect x="175" y="133.8" class="st5" width="21.1" height="1.2"/>
		<rect x="205.8" y="133.8" class="st5" width="21.1" height="1.2"/>
		<rect x="168.6" y="196.4" class="st2" width="0" height="31.3"/>
		<rect x="5.8" y="1.8" class="st3" width="21.1" height="7.7"/>
		<rect x="36.6" y="1.8" class="st3" width="21.1" height="7.7"/>
		<rect x="113.1" y="127.4" class="st5" width="21.1" height="7.7"/>
		<rect x="143.9" y="127.4" class="st5" width="21.1" height="7.7"/>
		<ellipse class="st8" cx="123.6" cy="127.4" rx="10.5" ry="1.8"/>
		<ellipse class="st8" cx="154.5" cy="127.4" rx="10.5" ry="1.8"/>
		<rect x="175" y="127.4" class="st5" width="21.1" height="7.7"/>
		<rect x="205.8" y="127.4" class="st5" width="21.1" height="7.7"/>
		<ellipse class="st8" cx="185.5" cy="127.4" rx="10.5" ry="1.8"/>
		<ellipse class="st8" cx="216.4" cy="127.4" rx="10.5" ry="1.8"/>
		<rect x="276.2" y="127.4" class="st6" width="21.1" height="7.7"/>
		<rect x="307.1" y="127.4" class="st6" width="21.1" height="7.7"/>
		<ellipse class="st9" cx="286.8" cy="127.4" rx="10.5" ry="1.8"/>
		<ellipse class="st9" cx="317.6" cy="127.4" rx="10.5" ry="1.8"/>
		<rect x="338.1" y="127.4" class="st6" width="21.1" height="7.7"/>
		<rect x="369" y="127.4" class="st6" width="21.1" height="7.7"/>
		<ellipse class="st9" cx="348.7" cy="127.4" rx="10.5" ry="1.8"/>
		<ellipse class="st9" cx="379.5" cy="127.4" rx="10.5" ry="1.8"/>
		<rect x="426.7" y="127.4" class="st4" width="21.1" height="7.7"/>
		<rect x="457.6" y="127.4" class="st4" width="21.1" height="7.7"/>
		<ellipse class="st10" cx="437.3" cy="127.4" rx="10.5" ry="1.8"/>
		<ellipse class="st10" cx="468.1" cy="127.4" rx="10.5" ry="1.8"/>
		<rect x="488.6" y="127.4" class="st4" width="21.1" height="7.7"/>
		<rect x="519.5" y="127.4" class="st4" width="21.1" height="7.7"/>
		<ellipse class="st10" cx="499.2" cy="127.4" rx="10.5" ry="1.8"/>
		<ellipse class="st10" cx="530" cy="127.4" rx="10.5" ry="1.8"/>
		<rect x="551.5" y="127.4" class="st4" width="21.1" height="7.7"/>
		<rect x="582.3" y="127.4" class="st4" width="21.1" height="7.7"/>
		<ellipse class="st10" cx="562" cy="127.4" rx="10.5" ry="1.8"/>
		<ellipse class="st10" cx="592.9" cy="127.4" rx="10.5" ry="1.8"/>
	</g>
	<ellipse class="st7" cx="16.3" cy="1.8" rx="10.5" ry="1.8"/>
	<ellipse class="st7" cx="47.2" cy="1.8" rx="10.5" ry="1.8"/>
</g>
</svg>
