<?xml version="1.0" encoding="UTF-8"?><svg id="Layer_1" xmlns="http://www.w3.org/2000/svg" viewBox="0 0 608.73 446.52"><defs><style>.cls-1{fill:#006838;}.cls-2{fill:#009345;}.cls-3{fill:#ffdd15;}.cls-4{fill:#9f1622;}.cls-5{fill:#be1e2d;}.cls-6{fill:#c4aa15;}.cls-7{fill:#231f20;}.cls-8{fill:#13588e;}.cls-9{fill:#1b75bb;}</style></defs><g><rect class="cls-7" x="546.19" y="257.9" width="62.54" height="62.54"/><rect class="cls-3" x="546.19" y="134.82" width="62.54" height="62.54"/><rect class="cls-7" x="546.19" y="197.36" width="62.54" height="60.54"/><rect class="cls-7" x="421.11" y="257.9" width="62.54" height="62.54"/><rect class="cls-3" x="421.11" y="134.82" width="62.54" height="62.54"/><rect class="cls-7" x="421.11" y="197.36" width="62.54" height="60.54"/><rect class="cls-3" x="483.66" y="134.82" width="62.53" height="62.54"/><rect class="cls-7" x="483.65" y="257.9" width="62.54" height="62.54"/><rect class="cls-7" x=".57" y="258.9" width="62.54" height="62.54" transform="translate(63.68 580.34) rotate(-180)"/><rect class="cls-7" x=".57" y="196.36" width="62.54" height="62.54" transform="translate(63.68 455.26) rotate(-180)"/><rect class="cls-7" x=".57" y="133.82" width="62.54" height="62.54" transform="translate(63.68 330.18) rotate(-180)"/><rect class="cls-7" x=".57" y="71.28" width="62.54" height="62.54" transform="translate(63.68 205.1) rotate(-180)"/><rect class="cls-5" x=".57" y="8.74" width="62.54" height="62.54" transform="translate(63.68 80.02) rotate(-180)"/><rect class="cls-7" x="268.57" y="258.9" width="62.54" height="62.54" transform="translate(599.68 580.34) rotate(-180)"/><rect class="cls-7" x="331.11" y="258.9" width="62.54" height="62.54" transform="translate(724.76 580.34) rotate(-180)"/><rect class="cls-7" x="331.11" y="321.44" width="62.54" height="62.54" transform="translate(724.76 705.42) rotate(-180)"/><rect class="cls-7" x="331.11" y="383.98" width="62.54" height="62.54" transform="translate(724.76 830.5) rotate(-180)"/><rect class="cls-7" x="268.57" y="383.98" width="62.54" height="62.54" transform="translate(599.68 830.5) rotate(-180)"/><rect class="cls-7" x="268.57" y="196.36" width="62.54" height="62.54" transform="translate(599.68 455.26) rotate(-180)"/><rect class="cls-2" x="268.57" y="133.82" width="62.54" height="62.54" transform="translate(599.68 330.18) rotate(-180)"/><rect class="cls-2" x="331.11" y="133.82" width="62.54" height="62.54" transform="translate(724.76 330.18) rotate(-180)"/><rect class="cls-7" x="106.09" y="258.9" width="62.54" height="62.54" transform="translate(274.72 580.34) rotate(-180)"/><rect class="cls-7" x="168.63" y="258.9" width="62.54" height="62.54" transform="translate(399.8 580.34) rotate(-180)"/><rect class="cls-7" x="106.09" y="196.36" width="62.54" height="62.54" transform="translate(274.72 455.26) rotate(-180)"/><rect class="cls-9" x="106.09" y="133.82" width="62.54" height="62.54" transform="translate(274.72 330.18) rotate(-180)"/><rect class="cls-9" x="168.63" y="133.82" width="62.54" height="62.54" transform="translate(399.8 330.18) rotate(-180)"/><rect class="cls-7" x="168.63" y="196.36" width="62.54" height="31.27"/><polyline class="cls-5" points="26.88 1.78 26.88 9.44 5.78 9.44 5.78 1.78"/><polyline class="cls-5" points="57.72 1.78 57.72 9.44 36.63 9.44 36.63 1.78"/><polyline class="cls-9" points="134.18 127.36 134.18 135.02 113.09 135.02 113.09 127.36"/><polyline class="cls-9" points="165.03 127.36 165.03 135.02 143.93 135.02 143.93 127.36"/><ellipse class="cls-8" cx="123.63" cy="127.36" rx="10.55" ry="1.78"/><ellipse class="cls-8" cx="154.48" cy="127.36" rx="10.55" ry="1.78"/><polyline class="cls-9" points="196.09 127.36 196.09 135.02 175 135.02 175 127.36"/><polyline class="cls-9" points="226.94 127.36 226.94 135.02 205.84 135.02 205.84 127.36"/><ellipse class="cls-8" cx="185.55" cy="127.36" rx="10.55" ry="1.78"/><ellipse class="cls-8" cx="216.39" cy="127.36" rx="10.55" ry="1.78"/><polyline class="cls-2" points="297.3 127.35 297.3 135.01 276.21 135.01 276.21 127.35"/><polyline class="cls-2" points="328.15 127.35 328.15 135.01 307.05 135.01 307.05 127.35"/><ellipse class="cls-1" cx="286.75" cy="127.35" rx="10.55" ry="1.78"/><ellipse class="cls-1" cx="317.6" cy="127.35" rx="10.55" ry="1.78"/><polyline class="cls-2" points="359.21 127.35 359.21 135.01 338.12 135.01 338.12 127.35"/><polyline class="cls-2" points="390.06 127.35 390.06 135.01 368.96 135.01 368.96 127.35"/><ellipse class="cls-1" cx="348.67" cy="127.35" rx="10.55" ry="1.78"/><ellipse class="cls-1" cx="379.51" cy="127.35" rx="10.55" ry="1.78"/><polyline class="cls-3" points="447.82 127.35 447.82 135.01 426.72 135.01 426.72 127.35"/><polyline class="cls-3" points="478.66 127.35 478.66 135.01 457.57 135.01 457.57 127.35"/><ellipse class="cls-6" cx="437.27" cy="127.35" rx="10.55" ry="1.78"/><ellipse class="cls-6" cx="468.12" cy="127.35" rx="10.55" ry="1.78"/><polyline class="cls-3" points="509.73 127.35 509.73 135.01 488.63 135.01 488.63 127.35"/><polyline class="cls-3" points="540.58 127.35 540.58 135.01 519.48 135.01 519.48 127.35"/><ellipse class="cls-6" cx="499.18" cy="127.35" rx="10.55" ry="1.78"/><ellipse class="cls-6" cx="530.03" cy="127.35" rx="10.55" ry="1.78"/><polyline class="cls-3" points="572.58 127.35 572.58 135.01 551.49 135.01 551.49 127.35"/><polyline class="cls-3" points="603.43 127.35 603.43 135.01 582.33 135.01 582.33 127.35"/><ellipse class="cls-6" cx="562.04" cy="127.35" rx="10.55" ry="1.78"/><ellipse class="cls-6" cx="592.88" cy="127.35" rx="10.55" ry="1.78"/></g><ellipse class="cls-4" cx="16.33" cy="1.78" rx="10.55" ry="1.78"/><ellipse class="cls-4" cx="47.17" cy="1.78" rx="10.55" ry="1.78"/></svg>