<?xml version="1.0" encoding="utf-8"?>
<!-- Generator: Adobe Illustrator 26.1.0, SVG Export Plug-In . SVG Version: 6.00 Build 0)  -->
<svg version="1.1" id="Layer_1" xmlns="http://www.w3.org/2000/svg" xmlns:xlink="http://www.w3.org/1999/xlink" x="0px" y="0px"
	 viewBox="411.236 90.687 931.075 167.28" enable-background="new 411.236 90.687 931.075 167.28" xml:space="preserve">
<g>
	<path fill="none" d="M562.8,202.105l-2.893-1.199l-0.716-0.292l-8.425-3.492c-0.306-0.57-0.594-1.144-0.872-1.728
		c-0.07-0.147-0.138-0.306-0.202-0.449c-2.131-4.594-3.541-9.482-4.178-14.501c-0.05-0.356-0.099-0.706-0.139-1.059
		c-0.377-3.529-0.377-7.088,0-10.619c0.04-0.351,0.089-0.704,0.139-1.057c0.637-5.023,2.049-9.915,4.178-14.504
		c0.067-0.15,0.131-0.307,0.202-0.446c0.179-0.37,0.361-0.73,0.548-1.095l8.437-3.498l0.697-0.28l3.225-1.34l0.383-0.159
		l-0.247-0.61l-0.39,0.16l-2.901,1.202l-0.715,0.295l-8.431,3.491c-0.613-0.191-1.224-0.388-1.835-0.614
		c-0.159-0.052-0.307-0.121-0.461-0.174c-4.753-1.738-9.207-4.201-13.213-7.295c-0.28-0.218-0.564-0.428-0.846-0.654
		c-1.379-1.111-2.699-2.298-3.954-3.549c-1.253-1.254-2.437-2.579-3.549-3.957c-0.228-0.278-0.434-0.565-0.655-0.845
		c-3.095-4.002-5.558-8.457-7.299-13.213c-0.055-0.154-0.119-0.304-0.171-0.455c-0.141-0.39-0.263-0.778-0.385-1.166l3.492-8.442
		l0.306-0.69l1.331-3.217h0.002l0.162-0.393l-0.611-0.252l-0.16,0.393l-1.185,2.906l-0.307,0.716l-3.488,8.427
		c-0.568,0.306-1.14,0.591-1.726,0.874c-0.148,0.067-0.307,0.131-0.449,0.199c-4.591,2.13-9.482,3.54-14.502,4.183
		c-0.353,0.047-0.704,0.096-1.059,0.136c-3.529,0.379-7.088,0.379-10.616,0c-0.359-0.04-0.709-0.089-1.059-0.136
		c-5.02-0.651-9.911-2.065-14.499-4.204c-0.15-0.067-0.304-0.131-0.448-0.202c-0.365-0.179-0.732-0.365-1.094-0.55l-3.495-8.44
		l-0.281-0.68l-1.337-3.229l-0.157-0.382l-0.613,0.254l0.157,0.382l1.204,2.91l0.296,0.695l3.492,8.431
		c-0.193,0.61-0.388,1.221-0.613,1.833c-0.053,0.153-0.119,0.304-0.174,0.46c-1.74,4.754-4.201,9.21-7.299,13.211
		c-0.217,0.287-0.426,0.568-0.654,0.843c-2.224,2.765-4.74,5.284-7.504,7.507c-0.28,0.228-0.567,0.435-0.848,0.651
		c-4.001,3.1-8.459,5.561-13.21,7.299c-0.153,0.058-0.307,0.119-0.46,0.173c-0.383,0.137-0.776,0.263-1.164,0.39l-8.44-3.495
		l-0.689-0.281l-3.226-1.34l-0.383-0.159l-0.251,0.613l0.38,0.157l2.909,1.207l0.71,0.281l8.425,3.491
		c0.306,0.571,0.593,1.141,0.871,1.723c0.072,0.15,0.134,0.307,0.206,0.451c2.13,4.591,3.538,9.481,4.178,14.504
		c0.044,0.353,0.098,0.701,0.134,1.059c0.38,3.53,0.38,7.088,0,10.619c-0.037,0.353-0.09,0.704-0.134,1.057
		c-0.642,5.02-2.053,9.915-4.183,14.502c-0.067,0.151-0.13,0.307-0.202,0.452c-0.174,0.365-0.361,0.73-0.547,1.094l-8.442,3.495
		l-0.697,0.286l-3.226,1.334l-0.383,0.159l0.251,0.613l0.387-0.16l2.903-1.198l0.726-0.306l8.428-3.488
		c0.613,0.191,1.222,0.388,1.835,0.61c0.153,0.057,0.306,0.119,0.464,0.176c4.751,1.742,9.207,4.203,13.21,7.299
		c0.283,0.211,0.567,0.428,0.845,0.654c2.764,2.221,5.283,4.742,7.507,7.505c0.22,0.277,0.434,0.564,0.652,0.845
		c3.097,4.004,5.556,8.459,7.298,13.211c0.057,0.154,0.118,0.307,0.173,0.46c0.137,0.388,0.263,0.776,0.385,1.166l-3.495,8.439
		l-0.306,0.695L466.502,242l-0.165,0.399l0.613,0.247l0.162-0.393l1.198-2.896l0.29-0.716l3.492-8.427
		c0.568-0.306,1.144-0.591,1.728-0.866l0.446-0.206c4.594-2.128,9.484-3.54,14.505-4.178c0.351-0.044,0.703-0.095,1.057-0.137
		c3.529-0.382,7.09-0.382,10.617,0c0.353,0.043,0.706,0.093,1.059,0.137c5.021,0.639,9.913,2.052,14.504,4.181l0.451,0.196
		c0.365,0.18,0.727,0.367,1.092,0.553l3.495,8.437l0.283,0.706l1.494,3.607l0.611-0.252l-0.165-0.397l-1.199-2.893l-0.292-0.71
		l-3.492-8.427c0.193-0.61,0.388-1.222,0.613-1.835c0.055-0.154,0.116-0.304,0.174-0.46c1.742-4.754,4.203-9.21,7.296-13.211
		c0.221-0.28,0.428-0.567,0.655-0.842c1.111-1.383,2.296-2.702,3.549-3.954c1.254-1.257,2.577-2.443,3.958-3.555
		c0.275-0.228,0.559-0.435,0.842-0.657c4.004-3.094,8.46-5.553,13.213-7.295l0.458-0.176c0.385-0.133,0.776-0.258,1.161-0.383
		l8.439,3.494l0.69,0.299l3.213,1.326l0.396,0.163l0.249-0.613L562.8,202.105z M517.856,119.707
		c0.073,0.222,0.144,0.435,0.222,0.657c0.058,0.156,0.121,0.309,0.177,0.464c1.659,4.526,3.964,8.789,6.847,12.652
		c0.191,0.257,0.388,0.509,0.584,0.759c2.576,3.35,5.576,6.347,8.923,8.923c0.254,0.197,0.506,0.393,0.759,0.585
		c3.865,2.884,8.126,5.189,12.654,6.849l0.464,0.174c0.44,0.156,0.888,0.306,1.331,0.443l-8.424,3.491l-0.701,0.289l-7.501,3.107
		c-10.495-3.237-18.774-11.357-22.209-21.789l3.1-7.484l0.29-0.698L517.856,119.707z M529.158,176.872v0.009
		c0.357,4.458,1.583,8.805,3.605,12.796l-5.712-2.369l-0.683-0.277l-5.709-2.368c-3.405-6.395-3.521-14.033-0.306-20.526
		l5.709-2.363l0.69-0.283l5.721-2.369c-1.847,3.815-2.97,7.942-3.314,12.171c-0.073,0.92-0.138,1.833-0.138,2.793
		C529.024,175.044,529.085,175.946,529.158,176.872z M460.595,171.796c-0.358-4.459-1.58-8.805-3.604-12.794l5.715,2.365
		l0.661,0.275l5.729,2.368c3.399,6.398,3.504,14.039,0.287,20.529l-5.71,2.362l-0.671,0.29l-5.723,2.366
		c1.85-3.819,2.971-7.948,3.312-12.174c0.073-0.917,0.141-1.848,0.141-2.793C460.732,173.647,460.666,172.715,460.595,171.796z
		 M499.885,161.397c-0.005-0.011-0.005-0.024,0-0.035c-3.078,1.642-6.746,1.737-9.907,0.267l-2.366-5.717l-0.29-0.674l-2.368-5.717
		c6.348,2.974,13.706,2.867,19.965-0.283l-2.366,5.712l-0.269,0.675L499.885,161.397z M486.606,155.185l0.269,0.681l2.388,5.768
		l-0.037-0.021c-1.014,3.335-3.538,6.001-6.813,7.194l-5.71-2.366l-0.661-0.278l-5.717-2.366c6.59-2.389,11.72-7.667,13.917-14.322
		L486.606,155.185z M475.489,166.664l0.672,0.266l5.768,2.386h-0.037c1.644,3.077,1.742,6.749,0.266,9.908l-5.712,2.365
		l-0.671,0.306l-5.715,2.368c2.971-6.346,2.864-13.705-0.284-19.964L475.489,166.664z M475.748,182.605l0.681-0.281l5.767-2.386
		l-0.018,0.034c3.33,1.016,5.99,3.535,7.18,6.809l-2.354,5.717l-0.283,0.674l-2.362,5.715c-2.389-6.586-7.671-11.717-14.325-13.916
		L475.748,182.605z M487.201,193.727l0.269-0.678l2.401-5.767c0.002,0.012,0.002,0.024,0,0.037c3.077-1.642,6.746-1.738,9.905-0.266
		l2.366,5.712l0.292,0.675l2.366,5.72c-6.347-2.974-13.708-2.87-19.968,0.283L487.201,193.727z M503.168,193.46l-0.28-0.677
		l-2.394-5.77l0.032,0.018c0.536-1.743,1.493-3.338,2.785-4.629c1.143-1.137,2.519-2.013,4.035-2.562l5.71,2.366l0.677,0.28
		l5.717,2.365c-6.592,2.389-11.722,7.669-13.919,14.325L503.168,193.46z M514.265,182.014l-0.669-0.299l-5.767-2.388h0.037
		c-1.644-3.075-1.743-6.745-0.27-9.902l5.714-2.369l0.671-0.27l5.714-2.366c-2.976,6.343-2.87,13.703,0.283,19.964L514.265,182.014z
		 M514.022,166.042l-0.697,0.278l-5.764,2.389l0.018-0.034c-3.336-1.014-5.999-3.535-7.192-6.813l2.366-5.71l0.298-0.674l2.363-5.72
		c2.389,6.59,7.669,11.722,14.323,13.919L514.022,166.042z M505.203,148.555c-6.398,3.399-14.041,3.506-20.529,0.289l-2.368-5.706
		l-0.278-0.678l-2.368-5.718c3.819,1.845,7.945,2.97,12.171,3.315c0.918,0.07,1.853,0.139,2.799,0.139
		c0.946,0,1.868-0.069,2.793-0.139c4.458-0.359,8.801-1.583,12.791-3.608l-2.368,5.717l-0.284,0.668L505.203,148.555z
		 M481.299,142.416l0.287,0.675l2.373,5.704c-2.122,6.928-7.447,12.406-14.313,14.722l-5.707-2.366l-0.689-0.269l-5.717-2.369
		c4.007-1.393,7.722-3.52,10.953-6.273c0.707-0.61,1.41-1.221,2.076-1.868c0.668-0.649,1.272-1.372,1.873-2.081
		c2.898-3.404,5.105-7.339,6.497-11.59L481.299,142.416z M462.961,187.903l0.686-0.281l5.71-2.366
		c6.93,2.116,12.408,7.447,14.719,14.311l-2.365,5.707l-0.283,0.684l-2.374,5.709c-1.392-4.007-3.517-7.722-6.265-10.953
		c-0.611-0.706-1.224-1.405-1.874-2.072c-0.652-0.671-1.37-1.279-2.078-1.876c-3.402-2.896-7.341-5.107-11.589-6.496
		L462.961,187.903z M481.903,206.503l0.284-0.665l2.365-5.727c6.395-3.398,14.038-3.506,20.527-0.289l2.363,5.709l0.278,0.675
		l2.372,5.72c-3.821-1.845-7.95-2.968-12.179-3.314c-0.918-0.073-1.835-0.139-2.791-0.139c-0.958,0-1.87,0.066-2.794,0.139
		c-4.456,0.356-8.804,1.581-12.793,3.605L481.903,206.503z M508.458,206.245l-0.287-0.675l-2.365-5.703
		c2.119-6.928,7.446-12.411,14.313-14.724l5.706,2.366l0.678,0.269l5.721,2.371c-4.006,1.398-7.718,3.517-10.95,6.265
		c-0.706,0.611-1.407,1.224-2.075,1.876c-0.671,0.651-1.273,1.37-1.876,2.078c-2.903,3.402-5.107,7.34-6.499,11.593L508.458,206.245
		z M526.796,160.763l-0.666,0.269l-5.712,2.366c-6.926-2.12-12.408-7.449-14.721-14.311l2.363-5.709l0.266-0.666l2.373-5.72
		c1.395,4.009,3.52,7.722,6.266,10.953c0.611,0.706,1.222,1.407,1.877,2.079c0.654,0.668,1.364,1.27,2.073,1.871
		c3.405,2.901,7.344,5.11,11.597,6.499L526.796,160.763z M473.117,119.774l0.449,0.202c4.374,2.029,9.019,3.411,13.792,4.103
		c0.307,0.052,0.634,0.084,0.949,0.125c4.187,0.544,8.43,0.544,12.62,0c0.306-0.041,0.632-0.073,0.952-0.125
		c4.771-0.692,9.417-2.075,13.79-4.103l0.449-0.202c0.422-0.203,0.834-0.412,1.251-0.628l-3.477,8.425l-0.287,0.707l-3.104,7.495
		c-9.708,5.134-21.305,5.251-31.111,0.304l-3.101-7.486l-0.292-0.701l-3.491-8.422C472.714,119.571,472.921,119.678,473.117,119.774
		z M440.92,151.128l0.461-0.177c4.526-1.654,8.79-3.964,12.654-6.845c0.254-0.189,0.507-0.394,0.759-0.585
		c3.347-2.576,6.347-5.578,8.923-8.926c0.195-0.247,0.394-0.498,0.584-0.755c2.883-3.865,5.191-8.126,6.849-12.654
		c0.055-0.159,0.122-0.309,0.176-0.463c0.159-0.441,0.306-0.883,0.443-1.329l3.486,8.422l0.29,0.701l3.11,7.502
		c-3.236,10.494-11.357,18.772-21.792,22.206l-7.481-3.1l-0.701-0.29l-8.417-3.485L440.92,151.128z M440.332,196.092
		c0.073-0.142,0.139-0.304,0.206-0.448c2.027-4.372,3.411-9.019,4.105-13.79c0.047-0.306,0.081-0.631,0.124-0.95
		c0.547-4.187,0.547-8.428,0-12.62l-0.02-0.018c-0.043-0.309-0.075-0.632-0.121-0.95c-0.695-4.771-2.078-9.418-4.108-13.79
		c-0.066-0.15-0.13-0.306-0.205-0.451c-0.199-0.422-0.415-0.84-0.611-1.251l8.424,3.488l0.704,0.283l7.495,3.116
		c5.133,9.705,5.249,21.3,0.307,31.111l-7.487,3.097l-0.7,0.295l-8.419,3.489C440.127,196.495,440.234,196.289,440.332,196.092z
		 M471.898,228.941c-0.072-0.217-0.142-0.438-0.222-0.657c-0.058-0.156-0.119-0.309-0.174-0.46
		c-1.658-4.528-3.966-8.792-6.852-12.657c-0.188-0.255-0.388-0.507-0.584-0.758c-1.289-1.667-2.684-3.255-4.172-4.748
		c-1.494-1.494-3.081-2.884-4.754-4.175c-0.251-0.194-0.501-0.394-0.755-0.582c-3.865-2.883-8.126-5.193-12.654-6.852l-0.461-0.173
		c-0.445-0.159-0.886-0.307-1.331-0.438l8.425-3.492l0.703-0.295l7.499-3.107c10.495,3.239,18.772,11.358,22.209,21.789l-3.1,7.487
		l-0.287,0.701L471.898,228.941z M516.634,228.894l-0.458-0.222c-4.374-2.027-9.019-3.411-13.79-4.103
		c-0.306-0.047-0.631-0.083-0.949-0.125c-4.189-0.547-8.431-0.547-12.62,0c-0.307,0.043-0.636,0.078-0.95,0.125
		c-4.774,0.692-9.423,2.073-13.799,4.103l-0.449,0.203c-0.419,0.203-0.834,0.419-1.25,0.629l3.494-8.414l0.289-0.709l3.11-7.495
		c9.708-5.136,21.305-5.251,31.111-0.304l3.098,7.486l0.29,0.707l3.486,8.422C517.042,229.097,516.834,228.989,516.634,228.894z
		 M548.836,197.525c-0.154,0.053-0.306,0.118-0.458,0.174c-4.53,1.661-8.792,3.966-12.658,6.847
		c-0.254,0.189-0.503,0.391-0.755,0.588c-3.349,2.574-6.349,5.573-8.923,8.923c-0.195,0.255-0.397,0.501-0.587,0.752
		c-2.881,3.871-5.188,8.13-6.849,12.657c-0.055,0.156-0.118,0.306-0.17,0.46c-0.157,0.446-0.306,0.891-0.446,1.337l-3.494-8.424
		l-0.29-0.701l-3.106-7.502c3.233-10.492,11.355-18.774,21.791-22.205l7.483,3.094l0.701,0.292l8.417,3.488
		C549.276,197.375,549.053,197.448,548.836,197.525z M541.628,193.345l-0.698-0.281l-7.495-3.112
		c-5.136-9.705-5.251-21.305-0.306-31.113l7.484-3.098l0.697-0.299l8.419-3.488c-0.105,0.208-0.208,0.412-0.307,0.616
		c-0.067,0.144-0.131,0.304-0.202,0.44c-2.029,4.378-3.413,9.022-4.106,13.795c-0.049,0.307-0.083,0.629-0.122,0.946
		c-0.544,4.193-0.544,8.434,0,12.628l0.015,0.011c0.04,0.306,0.073,0.634,0.122,0.947c0.694,4.772,2.078,9.415,4.106,13.793
		c0.07,0.15,0.134,0.306,0.205,0.449c0.199,0.425,0.414,0.836,0.611,1.254L541.628,193.345z"/>
	<path fill="none" d="M562.8,202.105l-2.893-1.199l-0.716-0.292l-8.425-3.492c-0.306-0.57-0.594-1.144-0.872-1.728
		c-0.07-0.147-0.138-0.306-0.202-0.449c-2.131-4.594-3.541-9.482-4.178-14.501c-0.05-0.356-0.099-0.706-0.139-1.059
		c-0.377-3.529-0.377-7.088,0-10.619c0.04-0.351,0.089-0.704,0.139-1.057c0.637-5.023,2.049-9.915,4.178-14.504
		c0.067-0.15,0.131-0.307,0.202-0.446c0.179-0.37,0.361-0.73,0.548-1.095l8.437-3.498l0.697-0.28l3.225-1.34l0.383-0.159
		l-0.247-0.61l-0.39,0.16l-2.901,1.202l-0.715,0.295l-8.431,3.491c-0.613-0.191-1.224-0.388-1.835-0.614
		c-0.159-0.052-0.307-0.121-0.461-0.174c-4.753-1.738-9.207-4.201-13.213-7.295c-0.28-0.218-0.564-0.428-0.846-0.654
		c-1.379-1.111-2.699-2.298-3.954-3.549c-1.253-1.254-2.437-2.579-3.549-3.957c-0.228-0.278-0.434-0.565-0.655-0.845
		c-3.095-4.002-5.558-8.457-7.299-13.213c-0.055-0.154-0.119-0.304-0.171-0.455c-0.141-0.39-0.263-0.778-0.385-1.166l3.492-8.442
		l0.306-0.69l1.331-3.217h0.002l0.162-0.393l-0.611-0.252l-0.16,0.393l-1.185,2.906l-0.307,0.716l-3.488,8.427
		c-0.568,0.306-1.14,0.591-1.726,0.874c-0.148,0.067-0.307,0.131-0.449,0.199c-4.591,2.13-9.482,3.54-14.502,4.183
		c-0.353,0.047-0.704,0.096-1.059,0.136c-3.529,0.379-7.088,0.379-10.616,0c-0.359-0.04-0.709-0.089-1.059-0.136
		c-5.02-0.651-9.911-2.065-14.499-4.204c-0.15-0.067-0.304-0.131-0.448-0.202c-0.365-0.179-0.732-0.365-1.094-0.55l-3.495-8.44
		l-0.281-0.68l-1.337-3.229l-0.157-0.382l-0.613,0.254l0.157,0.382l1.204,2.91l0.296,0.695l3.492,8.431
		c-0.193,0.61-0.388,1.221-0.613,1.833c-0.053,0.153-0.119,0.304-0.174,0.46c-1.74,4.754-4.201,9.21-7.299,13.211
		c-0.217,0.287-0.426,0.568-0.654,0.843c-2.224,2.765-4.74,5.284-7.504,7.507c-0.28,0.228-0.567,0.435-0.848,0.651
		c-4.001,3.1-8.459,5.561-13.21,7.299c-0.153,0.058-0.307,0.119-0.46,0.173c-0.383,0.137-0.776,0.263-1.164,0.39l-8.44-3.495
		l-0.689-0.281l-3.226-1.34l-0.383-0.159l-0.251,0.613l0.38,0.157l2.909,1.207l0.71,0.281l8.425,3.491
		c0.306,0.571,0.593,1.141,0.871,1.723c0.072,0.15,0.134,0.307,0.206,0.451c2.13,4.591,3.538,9.481,4.178,14.504
		c0.044,0.353,0.098,0.701,0.134,1.059c0.38,3.53,0.38,7.088,0,10.619c-0.037,0.353-0.09,0.704-0.134,1.057
		c-0.642,5.02-2.053,9.915-4.183,14.502c-0.067,0.151-0.13,0.307-0.202,0.452c-0.174,0.365-0.361,0.73-0.547,1.094l-8.442,3.495
		l-0.697,0.286l-3.226,1.334l-0.383,0.159l0.251,0.613l0.387-0.16l2.903-1.198l0.726-0.306l8.428-3.488
		c0.613,0.191,1.222,0.388,1.835,0.61c0.153,0.057,0.306,0.119,0.464,0.176c4.751,1.742,9.207,4.203,13.21,7.299
		c0.283,0.211,0.567,0.428,0.845,0.654c2.764,2.221,5.283,4.742,7.507,7.505c0.22,0.277,0.434,0.564,0.652,0.845
		c3.097,4.004,5.556,8.459,7.298,13.211c0.057,0.154,0.118,0.307,0.173,0.46c0.137,0.388,0.263,0.776,0.385,1.166l-3.495,8.439
		l-0.306,0.695L466.502,242l-0.165,0.399l0.613,0.247l0.162-0.393l1.198-2.896l0.29-0.716l3.492-8.427
		c0.568-0.306,1.144-0.591,1.728-0.866l0.446-0.206c4.594-2.128,9.484-3.54,14.505-4.178c0.351-0.044,0.703-0.095,1.057-0.137
		c3.529-0.382,7.09-0.382,10.617,0c0.353,0.043,0.706,0.093,1.059,0.137c5.021,0.639,9.913,2.052,14.504,4.181l0.451,0.196
		c0.365,0.18,0.727,0.367,1.092,0.553l3.495,8.437l0.283,0.706l1.494,3.607l0.611-0.252l-0.165-0.397l-1.199-2.893l-0.292-0.71
		l-3.492-8.427c0.193-0.61,0.388-1.222,0.613-1.835c0.055-0.154,0.116-0.304,0.174-0.46c1.742-4.754,4.203-9.21,7.296-13.211
		c0.221-0.28,0.428-0.567,0.655-0.842c1.111-1.383,2.296-2.702,3.549-3.954c1.254-1.257,2.577-2.443,3.958-3.555
		c0.275-0.228,0.559-0.435,0.842-0.657c4.004-3.094,8.46-5.553,13.213-7.295l0.458-0.176c0.385-0.133,0.776-0.258,1.161-0.383
		l8.439,3.494l0.69,0.299l3.213,1.326l0.396,0.163l0.249-0.613L562.8,202.105z M517.856,119.707
		c0.073,0.222,0.144,0.435,0.222,0.657c0.058,0.156,0.121,0.309,0.177,0.464c1.659,4.526,3.964,8.789,6.847,12.652
		c0.191,0.257,0.388,0.509,0.584,0.759c2.576,3.35,5.576,6.347,8.923,8.923c0.254,0.197,0.506,0.393,0.759,0.585
		c3.865,2.884,8.126,5.189,12.654,6.849l0.464,0.174c0.44,0.156,0.888,0.306,1.331,0.443l-8.424,3.491l-0.701,0.289l-7.501,3.107
		c-10.495-3.237-18.774-11.357-22.209-21.789l3.1-7.484l0.29-0.698L517.856,119.707z M529.158,176.872v0.009
		c0.357,4.458,1.583,8.805,3.605,12.796l-5.712-2.369l-0.683-0.277l-5.709-2.368c-3.405-6.395-3.521-14.033-0.306-20.526
		l5.709-2.363l0.69-0.283l5.721-2.369c-1.847,3.815-2.97,7.942-3.314,12.171c-0.073,0.92-0.138,1.833-0.138,2.793
		C529.024,175.044,529.085,175.946,529.158,176.872z M460.595,171.796c-0.358-4.459-1.58-8.805-3.604-12.794l5.715,2.365
		l0.661,0.275l5.729,2.368c3.399,6.398,3.504,14.039,0.287,20.529l-5.71,2.362l-0.671,0.29l-5.723,2.366
		c1.85-3.819,2.971-7.948,3.312-12.174c0.073-0.917,0.141-1.848,0.141-2.793C460.732,173.647,460.666,172.715,460.595,171.796z
		 M499.885,161.397c-0.005-0.011-0.005-0.024,0-0.035c-3.078,1.642-6.746,1.737-9.907,0.267l-2.366-5.717l-0.29-0.674l-2.368-5.717
		c6.348,2.974,13.706,2.867,19.965-0.283l-2.366,5.712l-0.269,0.675L499.885,161.397z M486.606,155.185l0.269,0.681l2.388,5.768
		l-0.037-0.021c-1.014,3.335-3.538,6.001-6.813,7.194l-5.71-2.366l-0.661-0.278l-5.717-2.366c6.59-2.389,11.72-7.667,13.917-14.322
		L486.606,155.185z M475.489,166.664l0.672,0.266l5.768,2.386h-0.037c1.644,3.077,1.742,6.749,0.266,9.908l-5.712,2.365
		l-0.671,0.306l-5.715,2.368c2.971-6.346,2.864-13.705-0.284-19.964L475.489,166.664z M475.748,182.605l0.681-0.281l5.767-2.386
		l-0.018,0.034c3.33,1.016,5.99,3.535,7.18,6.809l-2.354,5.717l-0.283,0.674l-2.362,5.715c-2.389-6.586-7.671-11.717-14.325-13.916
		L475.748,182.605z M487.201,193.727l0.269-0.678l2.401-5.767c0.002,0.012,0.002,0.024,0,0.037c3.077-1.642,6.746-1.738,9.905-0.266
		l2.366,5.712l0.292,0.675l2.366,5.72c-6.347-2.974-13.708-2.87-19.968,0.283L487.201,193.727z M503.168,193.46l-0.28-0.677
		l-2.394-5.77l0.032,0.018c0.536-1.743,1.493-3.338,2.785-4.629c1.143-1.137,2.519-2.013,4.035-2.562l5.71,2.366l0.677,0.28
		l5.717,2.365c-6.592,2.389-11.722,7.669-13.919,14.325L503.168,193.46z M514.265,182.014l-0.669-0.299l-5.767-2.388h0.037
		c-1.644-3.075-1.743-6.745-0.27-9.902l5.714-2.369l0.671-0.27l5.714-2.366c-2.976,6.343-2.87,13.703,0.283,19.964L514.265,182.014z
		 M514.022,166.042l-0.697,0.278l-5.764,2.389l0.018-0.034c-3.336-1.014-5.999-3.535-7.192-6.813l2.366-5.71l0.298-0.674l2.363-5.72
		c2.389,6.59,7.669,11.722,14.323,13.919L514.022,166.042z M505.203,148.555c-6.398,3.399-14.041,3.506-20.529,0.289l-2.368-5.706
		l-0.278-0.678l-2.368-5.718c3.819,1.845,7.945,2.97,12.171,3.315c0.918,0.07,1.853,0.139,2.799,0.139
		c0.946,0,1.868-0.069,2.793-0.139c4.458-0.359,8.801-1.583,12.791-3.608l-2.368,5.717l-0.284,0.668L505.203,148.555z
		 M481.299,142.416l0.287,0.675l2.373,5.704c-2.122,6.928-7.447,12.406-14.313,14.722l-5.707-2.366l-0.689-0.269l-5.717-2.369
		c4.007-1.393,7.722-3.52,10.953-6.273c0.707-0.61,1.41-1.221,2.076-1.868c0.668-0.649,1.272-1.372,1.873-2.081
		c2.898-3.404,5.105-7.339,6.497-11.59L481.299,142.416z M462.961,187.903l0.686-0.281l5.71-2.366
		c6.93,2.116,12.408,7.447,14.719,14.311l-2.365,5.707l-0.283,0.684l-2.374,5.709c-1.392-4.007-3.517-7.722-6.265-10.953
		c-0.611-0.706-1.224-1.405-1.874-2.072c-0.652-0.671-1.37-1.279-2.078-1.876c-3.402-2.896-7.341-5.107-11.589-6.496
		L462.961,187.903z M481.903,206.503l0.284-0.665l2.365-5.727c6.395-3.398,14.038-3.506,20.527-0.289l2.363,5.709l0.278,0.675
		l2.372,5.72c-3.821-1.845-7.95-2.968-12.179-3.314c-0.918-0.073-1.835-0.139-2.791-0.139c-0.958,0-1.87,0.066-2.794,0.139
		c-4.456,0.356-8.804,1.581-12.793,3.605L481.903,206.503z M508.458,206.245l-0.287-0.675l-2.365-5.703
		c2.119-6.928,7.446-12.411,14.313-14.724l5.706,2.366l0.678,0.269l5.721,2.371c-4.006,1.398-7.718,3.517-10.95,6.265
		c-0.706,0.611-1.407,1.224-2.075,1.876c-0.671,0.651-1.273,1.37-1.876,2.078c-2.903,3.402-5.107,7.34-6.499,11.593L508.458,206.245
		z M526.796,160.763l-0.666,0.269l-5.712,2.366c-6.926-2.12-12.408-7.449-14.721-14.311l2.363-5.709l0.266-0.666l2.373-5.72
		c1.395,4.009,3.52,7.722,6.266,10.953c0.611,0.706,1.222,1.407,1.877,2.079c0.654,0.668,1.364,1.27,2.073,1.871
		c3.405,2.901,7.344,5.11,11.597,6.499L526.796,160.763z M473.117,119.774l0.449,0.202c4.374,2.029,9.019,3.411,13.792,4.103
		c0.307,0.052,0.634,0.084,0.949,0.125c4.187,0.544,8.43,0.544,12.62,0c0.306-0.041,0.632-0.073,0.952-0.125
		c4.771-0.692,9.417-2.075,13.79-4.103l0.449-0.202c0.422-0.203,0.834-0.412,1.251-0.628l-3.477,8.425l-0.287,0.707l-3.104,7.495
		c-9.708,5.134-21.305,5.251-31.111,0.304l-3.101-7.486l-0.292-0.701l-3.491-8.422C472.714,119.571,472.921,119.678,473.117,119.774
		z M440.92,151.128l0.461-0.177c4.526-1.654,8.79-3.964,12.654-6.845c0.254-0.189,0.507-0.394,0.759-0.585
		c3.347-2.576,6.347-5.578,8.923-8.926c0.195-0.247,0.394-0.498,0.584-0.755c2.883-3.865,5.191-8.126,6.849-12.654
		c0.055-0.159,0.122-0.309,0.176-0.463c0.159-0.441,0.306-0.883,0.443-1.329l3.486,8.422l0.29,0.701l3.11,7.502
		c-3.236,10.494-11.357,18.772-21.792,22.206l-7.481-3.1l-0.701-0.29l-8.417-3.485L440.92,151.128z M440.332,196.092
		c0.073-0.142,0.139-0.304,0.206-0.448c2.027-4.372,3.411-9.019,4.105-13.79c0.047-0.306,0.081-0.631,0.124-0.95
		c0.547-4.187,0.547-8.428,0-12.62l-0.02-0.018c-0.043-0.309-0.075-0.632-0.121-0.95c-0.695-4.771-2.078-9.418-4.108-13.79
		c-0.066-0.15-0.13-0.306-0.205-0.451c-0.199-0.422-0.415-0.84-0.611-1.251l8.424,3.488l0.704,0.283l7.495,3.116
		c5.133,9.705,5.249,21.3,0.307,31.111l-7.487,3.097l-0.7,0.295l-8.419,3.489C440.127,196.495,440.234,196.289,440.332,196.092z
		 M471.898,228.941c-0.072-0.217-0.142-0.438-0.222-0.657c-0.058-0.156-0.119-0.309-0.174-0.46
		c-1.658-4.528-3.966-8.792-6.852-12.657c-0.188-0.255-0.388-0.507-0.584-0.758c-1.289-1.667-2.684-3.255-4.172-4.748
		c-1.494-1.494-3.081-2.884-4.754-4.175c-0.251-0.194-0.501-0.394-0.755-0.582c-3.865-2.883-8.126-5.193-12.654-6.852l-0.461-0.173
		c-0.445-0.159-0.886-0.307-1.331-0.438l8.425-3.492l0.703-0.295l7.499-3.107c10.495,3.239,18.772,11.358,22.209,21.789l-3.1,7.487
		l-0.287,0.701L471.898,228.941z M516.634,228.894l-0.458-0.222c-4.374-2.027-9.019-3.411-13.79-4.103
		c-0.306-0.047-0.631-0.083-0.949-0.125c-4.189-0.547-8.431-0.547-12.62,0c-0.307,0.043-0.636,0.078-0.95,0.125
		c-4.774,0.692-9.423,2.073-13.799,4.103l-0.449,0.203c-0.419,0.203-0.834,0.419-1.25,0.629l3.494-8.414l0.289-0.709l3.11-7.495
		c9.708-5.136,21.305-5.251,31.111-0.304l3.098,7.486l0.29,0.707l3.486,8.422C517.042,229.097,516.834,228.989,516.634,228.894z
		 M548.836,197.525c-0.154,0.053-0.306,0.118-0.458,0.174c-4.53,1.661-8.792,3.966-12.658,6.847
		c-0.254,0.189-0.503,0.391-0.755,0.588c-3.349,2.574-6.349,5.573-8.923,8.923c-0.195,0.255-0.397,0.501-0.587,0.752
		c-2.881,3.871-5.188,8.13-6.849,12.657c-0.055,0.156-0.118,0.306-0.17,0.46c-0.157,0.446-0.306,0.891-0.446,1.337l-3.494-8.424
		l-0.29-0.701l-3.106-7.502c3.233-10.492,11.355-18.774,21.791-22.205l7.483,3.094l0.701,0.292l8.417,3.488
		C549.276,197.375,549.053,197.448,548.836,197.525z M541.628,193.345l-0.698-0.281l-7.495-3.112
		c-5.136-9.705-5.251-21.305-0.306-31.113l7.484-3.098l0.697-0.299l8.419-3.488c-0.105,0.208-0.208,0.412-0.307,0.616
		c-0.067,0.144-0.131,0.304-0.202,0.44c-2.029,4.378-3.413,9.022-4.106,13.795c-0.049,0.307-0.083,0.629-0.122,0.946
		c-0.544,4.193-0.544,8.434,0,12.628l0.015,0.011c0.04,0.306,0.073,0.634,0.122,0.947c0.694,4.772,2.078,9.415,4.106,13.793
		c0.07,0.15,0.134,0.306,0.205,0.449c0.199,0.425,0.414,0.836,0.611,1.254L541.628,193.345z"/>
	<g>
		<path fill="#686868" d="M411.236,90.687v167.28h167.278V90.687H411.236z M413.527,255.676V92.979h162.695v162.697H413.527z"/>
		<path fill="#686868" d="M547.828,121.377c-6.881-6.879-14.889-12.278-23.802-16.047c-9.234-3.905-19.041-5.885-29.149-5.885
			s-19.916,1.98-29.149,5.885c-8.914,3.77-16.923,9.169-23.802,16.047c-6.879,6.881-12.278,14.889-16.046,23.802
			c-3.905,9.232-5.885,19.039-5.885,29.148s1.98,19.916,5.885,29.147c3.769,8.913,9.167,16.922,16.047,23.803
			c6.877,6.875,14.885,12.274,23.802,16.047c9.234,3.905,19.041,5.885,29.149,5.885s19.916-1.98,29.149-5.885
			c8.916-3.771,16.924-9.17,23.802-16.047c6.877-6.877,12.276-14.885,16.048-23.802c3.904-9.23,5.884-19.036,5.884-29.148
			c0-10.111-1.98-19.918-5.884-29.148C560.105,136.262,554.706,128.254,547.828,121.377z M544.36,166.685
			c-0.037,0.234-0.066,0.472-0.093,0.703c-0.011,0.089-0.021,0.179-0.032,0.265c-0.552,4.255-0.552,8.569,0,12.824l0.044,0.336
			l0.013,0.009c0.025,0.207,0.051,0.42,0.083,0.624c0.699,4.808,2.088,9.49,4.13,13.919l-6.59-2.729l-0.691-0.278l-7.239-3.006
			c-4.844-9.34-4.955-20.48-0.298-29.917l7.23-2.993l0.687-0.296l6.595-2.732C546.315,157.652,545.024,162.115,544.36,166.685z
			 M445.397,181.971c0.031-0.198,0.056-0.404,0.081-0.611c0.014-0.118,0.029-0.237,0.045-0.358c0.555-4.25,0.555-8.563,0-12.818
			l-0.036-0.274l-0.019-0.018c-0.006-0.051-0.012-0.102-0.019-0.154c-0.021-0.177-0.043-0.356-0.068-0.534
			c-0.702-4.822-2.092-9.502-4.13-13.914l6.59,2.728l0.695,0.279l7.24,3.01c4.841,9.339,4.952,20.479,0.299,29.915l-7.228,2.989
			l-0.696,0.293l-6.591,2.732C443.442,191.008,444.732,186.546,445.397,181.971z M528.394,176.902v0.009l0.002,0.03
			c0.314,3.913,1.265,7.695,2.831,11.271l-3.89-1.614l-0.677-0.274l-5.453-2.262c-3.114-6.03-3.223-13.215-0.294-19.331l5.438-2.251
			l0.693-0.284l3.941-1.632c-1.418,3.395-2.287,6.974-2.587,10.667c-0.071,0.888-0.14,1.84-0.14,2.853
			C528.26,175.107,528.329,176.074,528.394,176.902z M461.356,171.735c-0.314-3.918-1.265-7.7-2.83-11.271l3.887,1.608l0.663,0.276
			l5.472,2.262c3.106,6.03,3.209,13.216,0.276,19.334l-5.454,2.256l-0.659,0.286l-3.943,1.631c1.42-3.397,2.288-6.978,2.586-10.672
			c0.072-0.904,0.143-1.87,0.143-2.853C461.496,173.61,461.427,172.643,461.356,171.735z M516.772,174.442
			c0.041,2.899,0.629,5.801,1.713,8.495l-3.917-1.624l-0.66-0.295l-5.483-2.27c-1.368-2.717-1.462-5.942-0.257-8.733l5.427-2.25
			l0.677-0.273l3.998-1.656C517.245,168.577,516.73,171.518,516.772,174.442z M472.978,174.238
			c-0.041-2.899-0.629-5.801-1.712-8.495l3.942,1.632l0.661,0.261l5.464,2.26c1.368,2.719,1.461,5.946,0.253,8.739l-5.432,2.249
			l-0.683,0.311l-3.989,1.653C472.506,180.104,473.02,177.162,472.978,174.238z M496.576,167.377l-0.286,0.71l-1.403,3.384
			l-3.29-7.951c0.989,0.252,2.006,0.379,3.038,0.379c1.218,0,2.44-0.185,3.608-0.542L496.576,167.377z M492.866,172.306l-3.19-1.32
			l-0.609-0.249l-4.158-1.723c1.941-1.153,3.53-2.821,4.587-4.813l1.668,4.024l0.301,0.703L492.866,172.306z M492.036,174.321
			l-3.183,1.317l-0.596,0.242l-4.16,1.724c0.554-2.189,0.498-4.493-0.161-6.65l4.004,1.66l0.71,0.305L492.036,174.321z
			 M489.488,177.744l3.382-1.403l-1.317,3.176l-0.263,0.591l-1.73,4.173c-1.154-1.939-2.823-3.528-4.814-4.585l4.009-1.661
			L489.488,177.744z M493.191,181.254l0.295-0.692l1.401-3.387l1.325,3.2l0.244,0.563l1.722,4.16
			c-0.989-0.252-2.005-0.38-3.036-0.38c-1.218,0-2.441,0.185-3.61,0.543L493.191,181.254z M496.904,176.336l3.187,1.319l0.599,0.249
			l4.157,1.724c-1.937,1.156-3.523,2.825-4.577,4.814l-1.674-4.016l-0.289-0.713L496.904,176.336z M497.738,174.321l3.187-1.319
			l0.604-0.266l4.149-1.72c-0.554,2.187-0.498,4.491,0.162,6.647l-4.014-1.665l-0.703-0.275L497.738,174.321z M500.285,170.903
			l-3.382,1.4l1.321-3.189l0.246-0.603l1.72-4.152c1.154,1.939,2.823,3.528,4.814,4.586l-4.024,1.666L500.285,170.903z
			 M501.843,154.669l-0.265,0.665l-2.273,5.468c-1.434,0.721-3.032,1.1-4.639,1.101c-1.421,0-2.798-0.285-4.099-0.846l-2.255-5.446
			l-0.286-0.664l-1.658-4.002c2.638,0.984,5.465,1.499,8.274,1.499c3.015,0,6.032-0.589,8.831-1.715L501.843,154.669z
			 M488.426,161.611c-0.953,2.896-3.171,5.251-6.001,6.375l-5.427-2.249l-0.665-0.28l-4.002-1.657
			c2.665-1.218,5.109-2.935,7.148-5.033c2.021-2.08,3.657-4.547,4.796-7.218l1.622,3.916l0.274,0.693L488.426,161.611z
			 M476.721,183.03l5.456-2.257c2.89,0.955,5.24,3.171,6.36,5.996l-2.237,5.432l-0.284,0.677l-1.653,4
			c-1.218-2.663-2.936-5.106-5.034-7.144c-2.081-2.021-4.549-3.657-7.22-4.797l3.93-1.627L476.721,183.03z M487.911,194.008
			l0.264-0.666l2.275-5.464c1.434-0.721,3.032-1.101,4.639-1.101c1.421,0,2.798,0.285,4.098,0.848l2.255,5.443l0.287,0.664
			l1.657,4.006c-2.64-0.985-5.468-1.501-8.279-1.501c-3.015,0-6.032,0.589-8.831,1.715L487.911,194.008z M501.329,187.03
			c0.512-1.538,1.381-2.947,2.521-4.087c0.991-0.986,2.19-1.771,3.483-2.282l5.432,2.251l4.678,1.935
			c-2.665,1.218-5.11,2.936-7.148,5.034c-2.021,2.08-3.656,4.547-4.795,7.219l-1.906-4.61L501.329,187.03z M513.033,165.615
			l-5.452,2.26c-2.895-0.953-5.248-3.17-6.371-6l2.247-5.422l0.294-0.666l1.662-4.021c1.218,2.664,2.935,5.108,5.033,7.147
			c2.08,2.021,4.547,3.657,7.218,4.796l-3.924,1.624L513.033,165.615z M507.143,141.866l-0.288,0.676l-2.253,5.466
			c-3.065,1.579-6.498,2.412-9.946,2.412c-3.233,0-6.472-0.737-9.388-2.135l-2.256-5.436l-0.279-0.681l-1.632-3.94
			c3.4,1.419,6.98,2.289,10.671,2.59c0.822,0.063,1.846,0.141,2.857,0.141c0.993,0,1.98-0.075,2.854-0.142
			c3.914-0.315,7.695-1.267,11.267-2.833L507.143,141.866z M483.147,148.832c-2.069,6.462-7.077,11.616-13.476,13.869l-5.44-2.256
			l-0.697-0.272l-3.93-1.629c3.411-1.401,6.558-3.321,9.38-5.726c0.726-0.626,1.434-1.242,2.11-1.899
			c0.658-0.64,1.251-1.34,1.825-2.018l0.097-0.115c2.545-2.989,4.547-6.334,5.966-9.966l1.613,3.895l0.285,0.67L483.147,148.832z
			 M463.939,188.328l5.455-2.26c6.462,2.063,11.615,7.071,13.866,13.475l-2.254,5.441l-0.282,0.683l-1.635,3.933
			c-1.399-3.41-3.317-6.558-5.721-9.384c-0.597-0.689-1.235-1.419-1.904-2.104c-0.688-0.707-1.455-1.355-2.13-1.925
			c-2.991-2.546-6.336-4.548-9.965-5.966l3.882-1.609L463.939,188.328z M482.605,206.803l0.288-0.673l2.259-5.471
			c3.064-1.578,6.497-2.411,9.945-2.411c3.233,0,6.472,0.737,9.387,2.134l2.252,5.44l0.279,0.677l1.634,3.941
			c-3.399-1.418-6.981-2.287-10.674-2.589c-0.897-0.072-1.856-0.141-2.852-0.141c-0.988,0-1.914,0.067-2.855,0.141
			c-3.913,0.313-7.695,1.263-11.269,2.831L482.605,206.803z M506.618,199.83c2.067-6.465,7.075-11.62,13.476-13.871l5.45,2.26
			l0.667,0.264l3.944,1.634c-3.415,1.404-6.562,3.322-9.381,5.718c-0.725,0.627-1.431,1.245-2.107,1.905
			c-0.64,0.621-1.215,1.296-1.771,1.95l-0.154,0.18c-2.544,2.982-4.547,6.328-5.969,9.969l-1.612-3.895l-0.285-0.669L506.618,199.83
			z M525.838,160.326l-5.456,2.26c-6.463-2.068-11.617-7.076-13.868-13.475l2.256-5.451l0.262-0.656l1.635-3.942
			c1.4,3.409,3.319,6.557,5.721,9.383c0.658,0.76,1.256,1.444,1.909,2.114c0.672,0.686,1.4,1.304,2.104,1.902l0.019,0.017
			c2.991,2.549,6.338,4.551,9.971,5.969l-3.882,1.608L525.838,160.326z M513.184,127.284l-0.285,0.702l-2.998,7.239
			c-4.696,2.434-9.964,3.718-15.253,3.718c-5.061,0-10.125-1.183-14.662-3.422l-2.992-7.223l-0.291-0.7l-2.736-6.602
			c4.229,1.882,8.69,3.172,13.274,3.837c0.222,0.037,0.447,0.064,0.665,0.091c0.101,0.012,0.202,0.024,0.303,0.037
			c2.116,0.275,4.272,0.414,6.407,0.414c2.135,0,4.292-0.139,6.414-0.415c0.108-0.015,0.218-0.028,0.329-0.041
			c0.208-0.025,0.424-0.051,0.63-0.085c4.816-0.699,9.498-2.087,13.908-4.123L513.184,127.284z M477.843,136.056
			c-3.184,10.028-10.986,17.981-20.952,21.355l-7.218-2.99l-7.304-3.024c4.321-1.655,8.396-3.9,12.122-6.679
			c0.143-0.107,0.287-0.219,0.43-0.33c0.111-0.087,0.223-0.174,0.338-0.261c3.397-2.614,6.447-5.664,9.057-9.058l0.03-0.038
			c0.188-0.238,0.382-0.483,0.567-0.734c2.91-3.901,5.235-8.187,6.918-12.752l2.717,6.564L477.843,136.056z M449.361,194.361
			l7.243-3.001c10.027,3.186,17.981,10.987,21.358,20.949l-2.992,7.226l-0.286,0.698l-2.739,6.6
			c-1.66-4.328-3.906-8.402-6.68-12.118c-0.16-0.217-0.326-0.43-0.488-0.636l-0.107-0.137c-1.31-1.693-2.734-3.314-4.236-4.821
			c-1.495-1.495-3.119-2.921-4.827-4.239l-0.222-0.173c-0.181-0.141-0.362-0.283-0.543-0.417c-3.905-2.913-8.194-5.24-12.744-6.918
			l6.562-2.72L449.361,194.361z M476.57,221.379l0.287-0.704l3.004-7.239c4.695-2.434,9.963-3.719,15.252-3.719
			c5.062,0,10.125,1.183,14.663,3.423l2.988,7.22l0.291,0.709l2.726,6.586c-4.237-1.885-8.702-3.176-13.279-3.84
			c-0.201-0.031-0.41-0.057-0.62-0.083c-0.115-0.014-0.23-0.029-0.347-0.044c-2.117-0.276-4.274-0.417-6.409-0.417
			c-2.135,0-4.292,0.14-6.415,0.417c-0.127,0.018-0.257,0.034-0.389,0.05c-0.19,0.024-0.382,0.048-0.566,0.075
			c-4.82,0.699-9.5,2.085-13.908,4.119L476.57,221.379z M511.913,212.598c3.182-10.029,10.984-17.982,20.95-21.354l7.218,2.984
			l0.702,0.292l6.601,2.735c-4.328,1.663-8.403,3.907-12.121,6.678c-0.182,0.136-0.361,0.277-0.541,0.419
			c-0.076,0.06-0.151,0.12-0.223,0.175c-3.403,2.616-6.452,5.665-9.064,9.064c-0.087,0.114-0.175,0.225-0.263,0.337
			c-0.11,0.14-0.22,0.279-0.33,0.424c-2.908,3.907-5.234,8.194-6.918,12.755l-2.721-6.561L511.913,212.598z M540.4,154.287
			l-7.245,3.001c-10.028-3.185-17.982-10.986-21.358-20.949l2.99-7.219l0.291-0.7l2.733-6.604c1.663,4.331,3.908,8.406,6.679,12.12
			c0.191,0.257,0.388,0.509,0.578,0.753l0.013,0.016c2.609,3.394,5.658,6.443,9.06,9.061c0.256,0.199,0.51,0.396,0.771,0.594
			c3.898,2.909,8.19,5.237,12.753,6.919l-6.562,2.719L540.4,154.287z M559.355,146.435l-0.716,0.295l-8.175,3.385
			c-0.477-0.151-1.01-0.325-1.534-0.519l-0.028-0.01c-0.071-0.023-0.138-0.051-0.206-0.078c-0.081-0.032-0.161-0.064-0.23-0.088
			c-4.676-1.711-9.053-4.127-13.005-7.179c-0.117-0.092-0.235-0.182-0.354-0.272c-0.162-0.123-0.324-0.247-0.484-0.375
			c-1.341-1.08-2.651-2.255-3.892-3.493c-1.21-1.211-2.386-2.522-3.498-3.901c-0.122-0.149-0.237-0.301-0.36-0.462
			c-0.095-0.125-0.19-0.25-0.282-0.366c-3.053-3.949-5.471-8.325-7.184-13.002c-0.028-0.078-0.058-0.155-0.087-0.231
			c-0.028-0.072-0.056-0.144-0.085-0.227c-0.104-0.288-0.2-0.582-0.291-0.871l3.382-8.176l0.302-0.682l1.043-2.521
			c8.433,3.646,16.015,8.802,22.545,15.331c6.528,6.528,11.681,14.105,15.327,22.536L559.355,146.435z M520.764,109.008
			l-0.311,0.725l-3.383,8.173c-0.435,0.229-0.902,0.464-1.449,0.727c-0.057,0.026-0.115,0.051-0.173,0.076
			c-0.096,0.041-0.191,0.082-0.274,0.122c-4.523,2.098-9.327,3.484-14.282,4.119l-0.169,0.023c-0.291,0.039-0.581,0.078-0.869,0.111
			c-1.729,0.186-3.488,0.28-5.227,0.28s-3.497-0.094-5.223-0.28c-0.301-0.033-0.605-0.075-0.899-0.115l-0.145-0.02
			c-4.96-0.643-9.763-2.036-14.285-4.144l-0.149-0.066c-0.093-0.041-0.186-0.081-0.275-0.125c-0.277-0.136-0.556-0.276-0.832-0.417
			l-3.387-8.18l-1.323-3.197c8.514-3.381,17.516-5.095,26.769-5.095c9.258,0,18.262,1.715,26.778,5.098L520.764,109.008z
			 M466.996,109.866l0.293,0.688l3.386,8.174c-0.164,0.517-0.331,1.028-0.521,1.546c-0.024,0.069-0.051,0.137-0.078,0.205
			c-0.033,0.083-0.066,0.167-0.092,0.244c-1.716,4.689-4.134,9.065-7.191,13.014l-0.076,0.1c-0.189,0.25-0.367,0.486-0.564,0.724
			c-2.191,2.723-4.676,5.21-7.391,7.393c-0.178,0.145-0.359,0.281-0.551,0.425c-0.093,0.07-0.187,0.141-0.282,0.214
			c-3.939,3.052-8.315,5.469-13.013,7.189l-0.123,0.047c-0.106,0.041-0.212,0.082-0.323,0.121c-0.285,0.102-0.583,0.2-0.875,0.295
			l-8.183-3.389l-0.685-0.28l-2.515-1.044c3.646-8.432,8.802-16.014,15.331-22.541c6.528-6.529,14.11-11.685,22.543-15.331
			L466.996,109.866z M429.58,148.471l0.699,0.277l8.171,3.385c0.249,0.474,0.488,0.951,0.728,1.453
			c0.029,0.06,0.056,0.122,0.083,0.184c0.04,0.091,0.08,0.181,0.123,0.267c2.096,4.521,3.479,9.322,4.109,14.268
			c0.016,0.127,0.033,0.253,0.05,0.379c0.031,0.228,0.06,0.443,0.083,0.667c0.374,3.469,0.374,6.987,0,10.458
			c-0.022,0.216-0.051,0.431-0.082,0.658c-0.017,0.128-0.034,0.255-0.05,0.381c-0.633,4.95-2.018,9.754-4.123,14.289
			c-0.023,0.051-0.045,0.103-0.068,0.155c-0.039,0.091-0.078,0.182-0.125,0.278c-0.129,0.271-0.267,0.546-0.41,0.825l-8.18,3.387
			l-0.699,0.286l-2.515,1.039c-3.384-8.517-5.099-17.523-5.099-26.78c0-9.256,1.714-18.259,5.096-26.772L429.58,148.471z
			 M430.408,202.225l0.721-0.304l8.172-3.382c0.452,0.143,0.995,0.319,1.534,0.514c0.061,0.022,0.121,0.046,0.182,0.069
			c0.096,0.037,0.193,0.074,0.285,0.107c4.687,1.718,9.062,4.136,13.016,7.194c0.333,0.249,0.586,0.444,0.823,0.637
			c2.712,2.18,5.199,4.666,7.388,7.385c0.13,0.163,0.258,0.33,0.385,0.498c0.087,0.114,0.174,0.228,0.26,0.339
			c3.05,3.944,5.467,8.32,7.185,13.007c0.027,0.074,0.055,0.148,0.083,0.221c0.03,0.078,0.06,0.157,0.087,0.231
			c0.108,0.304,0.208,0.609,0.293,0.875l-3.386,8.175l-0.302,0.687l-1.042,2.516c-8.434-3.645-16.019-8.802-22.551-15.334
			c-6.527-6.526-11.682-14.105-15.327-22.532L430.408,202.225z M469.017,239.644l0.288-0.711l3.387-8.173
			c0.447-0.235,0.924-0.472,1.448-0.718l0.447-0.206c4.536-2.101,9.34-3.485,14.28-4.114c0.152-0.019,0.304-0.04,0.457-0.06
			c0.198-0.027,0.397-0.053,0.587-0.076c1.729-0.187,3.488-0.282,5.227-0.282c1.739,0,3.498,0.095,5.216,0.281
			c0.195,0.024,0.389,0.049,0.584,0.075c0.157,0.021,0.314,0.042,0.47,0.061c4.941,0.628,9.745,2.013,14.279,4.117l0.451,0.196
			c0.273,0.135,0.544,0.273,0.815,0.412l3.384,8.169l0.286,0.714l1.034,2.499c-8.515,3.383-17.52,5.098-26.78,5.098
			c-9.253,0-18.254-1.713-26.765-5.092L469.017,239.644z M522.776,238.81l-0.293-0.713l-3.386-8.169
			c0.166-0.522,0.333-1.035,0.52-1.543c0.03-0.085,0.062-0.168,0.095-0.252c0.025-0.065,0.051-0.131,0.077-0.202
			c1.717-4.687,4.134-9.063,7.178-13c0.094-0.118,0.185-0.237,0.275-0.357c0.126-0.165,0.245-0.322,0.377-0.481
			c1.086-1.352,2.261-2.661,3.494-3.893c1.217-1.22,2.528-2.397,3.905-3.506c0.166-0.138,0.337-0.269,0.518-0.407
			c0.102-0.078,0.205-0.157,0.303-0.234c3.945-3.048,8.322-5.465,13.019-7.186l0.446-0.171c0.288-0.099,0.579-0.194,0.868-0.288
			l8.167,3.381l0.703,0.305l2.499,1.031c-3.643,8.426-8.798,16.006-15.326,22.535c-6.53,6.529-14.111,11.684-22.536,15.327
			L522.776,238.81z M560.195,200.198l-0.712-0.29l-8.172-3.387c-0.245-0.465-0.485-0.944-0.729-1.457
			c-0.046-0.095-0.09-0.196-0.133-0.294l-0.065-0.147c-2.102-4.531-3.486-9.334-4.115-14.286c-0.052-0.367-0.098-0.699-0.136-1.033
			c-0.371-3.469-0.371-6.987,0-10.452c0.037-0.325,0.081-0.649,0.138-1.047c0.627-4.944,2.011-9.748,4.117-14.287
			c0.022-0.049,0.043-0.098,0.065-0.148c0.04-0.091,0.079-0.183,0.127-0.279c0.125-0.259,0.259-0.528,0.413-0.83l8.17-3.388
			l0.705-0.283l2.512-1.044c3.383,8.514,5.097,17.52,5.097,26.779c0,9.259-1.715,18.264-5.098,26.777L560.195,200.198z"/>
	</g>
	<line fill="none" x1="476.162" y1="166.93" x2="475.489" y2="166.664"/>
	<line fill="none" x1="476.702" y1="166.441" x2="476.041" y2="166.163"/>
	<line fill="none" x1="486.875" y1="155.867" x2="486.606" y2="155.185"/>
	<line fill="none" x1="487.611" y1="155.912" x2="487.321" y2="155.239"/>
	<line fill="none" x1="502.552" y1="154.952" x2="502.283" y2="155.627"/>
	<line fill="none" x1="503.052" y1="155.479" x2="502.754" y2="156.152"/>
	<line fill="none" x1="514.022" y1="166.042" x2="513.325" y2="166.321"/>
	<line fill="none" x1="513.979" y1="166.785" x2="513.308" y2="167.055"/>
	<line fill="none" x1="514.265" y1="182.014" x2="513.596" y2="181.715"/>
	<line fill="none" x1="513.733" y1="182.486" x2="513.056" y2="182.207"/>
	<line fill="none" x1="503.168" y1="193.46" x2="502.888" y2="192.783"/>
	<line fill="none" x1="502.434" y1="193.44" x2="502.143" y2="192.764"/>
	<line fill="none" x1="487.469" y1="193.049" x2="487.201" y2="193.727"/>
	<line fill="none" x1="476.447" y1="181.59" x2="475.777" y2="181.895"/>
	<line fill="none" x1="481.586" y1="143.091" x2="481.299" y2="142.416"/>
	<line fill="none" x1="482.306" y1="143.138" x2="482.028" y2="142.46"/>
	<line fill="none" x1="507.845" y1="142.165" x2="507.561" y2="142.833"/>
	<line fill="none" x1="508.327" y1="142.712" x2="508.061" y2="143.378"/>
	<line fill="none" x1="526.796" y1="160.763" x2="526.13" y2="161.032"/>
	<line fill="none" x1="526.753" y1="161.492" x2="526.063" y2="161.774"/>
	<line fill="none" x1="527.051" y1="187.308" x2="526.369" y2="187.031"/>
	<line fill="none" x1="526.503" y1="187.778" x2="525.825" y2="187.509"/>
	<line fill="none" x1="508.458" y1="206.245" x2="508.171" y2="205.569"/>
	<line fill="none" x1="507.72" y1="206.206" x2="507.442" y2="205.531"/>
	<line fill="none" x1="482.187" y1="205.838" x2="481.903" y2="206.503"/>
	<line fill="none" x1="481.712" y1="205.275" x2="481.429" y2="205.959"/>
	<line fill="none" x1="463.647" y1="187.622" x2="462.961" y2="187.903"/>
	<line fill="none" x1="463.673" y1="186.9" x2="463.002" y2="187.19"/>
	<line fill="none" x1="463.367" y1="161.641" x2="462.706" y2="161.366"/>
	<line fill="none" x1="463.939" y1="161.151" x2="463.25" y2="160.882"/>
	<line fill="none" x1="476.288" y1="128.592" x2="475.997" y2="127.89"/>
	<line fill="none" x1="475.544" y1="128.517" x2="475.254" y2="127.816"/>
	<line fill="none" x1="513.892" y1="127.571" x2="513.605" y2="128.278"/>
	<line fill="none" x1="514.372" y1="128.129" x2="514.081" y2="128.827"/>
	<line fill="none" x1="541.393" y1="154.704" x2="540.692" y2="154.993"/>
	<line fill="none" x1="541.311" y1="155.442" x2="540.614" y2="155.741"/>
	<line fill="none" x1="541.628" y1="193.345" x2="540.93" y2="193.064"/>
	<line fill="none" x1="541.075" y1="193.816" x2="540.374" y2="193.524"/>
	<line fill="none" x1="514.497" y1="220.839" x2="514.207" y2="220.137"/>
	<line fill="none" x1="513.761" y1="220.776" x2="513.47" y2="220.069"/>
	<line fill="none" x1="476.151" y1="220.382" x2="475.862" y2="221.091"/>
	<line fill="none" x1="475.677" y1="219.824" x2="475.39" y2="220.525"/>
	<line fill="none" x1="449.068" y1="193.655" x2="448.366" y2="193.95"/>
	<line fill="none" x1="449.145" y1="192.917" x2="448.445" y2="193.212"/>
	<line fill="none" x1="448.83" y1="155.593" x2="448.126" y2="155.311"/>
	<line fill="none" x1="449.382" y1="155.126" x2="448.68" y2="154.835"/>
	<line fill="none" x1="430.571" y1="148.042" x2="429.861" y2="147.761"/>
	<line fill="none" x1="431.121" y1="147.564" x2="430.432" y2="147.283"/>
	<line fill="none" x1="467.995" y1="110.261" x2="467.698" y2="109.566"/>
	<line fill="none" x1="468.725" y1="110.312" x2="468.444" y2="109.632"/>
	<line fill="none" x1="521.466" y1="109.309" x2="521.159" y2="110.026"/>
	<line fill="none" x1="521.929" y1="109.873" x2="521.624" y2="110.564"/>
	<line fill="none" x1="559.646" y1="147.141" x2="558.931" y2="147.435"/>
	<line fill="none" x1="559.576" y1="147.886" x2="558.879" y2="148.166"/>
	<line fill="none" x1="559.907" y1="200.905" x2="559.19" y2="200.614"/>
	<line fill="none" x1="559.334" y1="201.39" x2="558.644" y2="201.09"/>
	<line fill="none" x1="522.07" y1="239.1" x2="521.778" y2="238.39"/>
	<line fill="none" x1="521.329" y1="239.036" x2="521.046" y2="238.33"/>
	<line fill="none" x1="468.6" y1="238.64" x2="468.309" y2="239.357"/>
	<line fill="none" x1="468.138" y1="238.092" x2="467.833" y2="238.787"/>
	<line fill="none" x1="430.837" y1="201.216" x2="430.111" y2="201.521"/>
	<line fill="none" x1="430.878" y1="200.488" x2="430.182" y2="200.774"/>
</g>
<g>
	<path fill="#696969" d="M597.934,105.57h37.671c10.534,0,17.176,2.062,21.526,6.526c5.496,5.611,7.328,12.138,7.328,25.42
		c0,20.61-0.687,26.908-3.206,32.289c-4.236,8.359-11.908,12.138-25.19,12.138h-38.129V105.57z M633.2,169.348
		c6.984,0,10.877-1.375,13.168-4.58c2.519-3.55,3.205-8.13,3.205-21.184c0-13.282-0.572-17.633-2.977-20.953
		c-2.176-3.092-5.725-4.352-12.48-4.352H612.59v51.068H633.2z"/>
	<path fill="#696969" d="M687.36,167.287l-4.695,14.656h-15.343l25.419-76.373h21.641l25.878,76.373h-15l-4.923-14.656H687.36z
		 M703.849,116.792l-13.054,39.617h26.221L703.849,116.792z"/>
	<path fill="#696969" d="M746.901,105.57h37.557c18.435,0,24.732,5.726,24.732,22.786c0,15.229-2.634,19.351-13.74,21.526v0.572
		c8.702,0.458,13.053,5.61,12.938,14.886v16.603h-14.771v-13.74c0.229-8.358-3.32-11.908-11.45-11.679h-20.61v25.419h-14.656V105.57
		z M782.054,144.042c4.58,0,7.557-0.687,9.274-2.29c2.404-1.946,2.977-4.236,2.977-10.763c0-10.764-1.832-12.824-11.221-12.824
		h-21.526v25.877H782.054z"/>
	<path fill="#696969" d="M834.495,136.714h6.87l25.305-31.145h18.091l-30.915,37.328l34.122,39.045h-18.55l-28.053-32.633h-6.87
		v32.633h-14.656V105.57h14.656V136.714z"/>
	<path fill="#696969" d="M1011.63,181.943h-14.427v-41.679c0-5.496,0.114-6.984,0.572-16.946l0.229-5.61h-0.458l-1.718,5.267
		c-3.206,9.962-4.008,12.596-5.268,15.916l-16.831,43.053h-13.168l-16.946-42.709c-1.488-3.664-2.29-6.069-5.496-15.916
		l-1.718-5.267h-0.458l0.344,5.496c0.458,9.617,0.572,12.022,0.572,16.717v41.679h-14.427V105.57h23.587l13.626,35.382
		c1.374,3.549,2.176,6.068,5.382,15.801l1.717,5.382h0.459l1.717-5.268c2.978-9.618,3.894-12.251,5.152-15.801l13.512-35.496h24.045
		V181.943z"/>
	<path fill="#696969" d="M1038.995,167.287l-4.694,14.656h-15.343l25.419-76.373h21.642l25.877,76.373h-15l-4.924-14.656H1038.995z
		 M1055.483,116.792l-13.053,39.617h26.221L1055.483,116.792z"/>
	<path fill="#696969" d="M1122.354,181.943h-14.656v-63.549h-22.1V105.57h59.312v12.824h-22.557V181.943z"/>
	<path fill="#696969" d="M1186.36,181.943h-14.656v-63.549h-22.1V105.57h59.312v12.824h-22.557V181.943z"/>
	<path fill="#696969" d="M1231.358,137.516h35.609v10.764h-35.609v21.525h37.9v12.138h-52.557V105.57h52.213v12.138h-37.557V137.516
		z"/>
	<path fill="#696969" d="M1280.021,105.57h37.557c18.435,0,24.732,5.726,24.732,22.786c0,15.229-2.634,19.351-13.74,21.526v0.572
		c8.702,0.458,13.053,5.61,12.938,14.886v16.603h-14.771v-13.74c0.229-8.358-3.321-11.908-11.45-11.679h-20.61v25.419h-14.656
		V105.57z M1315.173,144.042c4.58,0,7.558-0.687,9.275-2.29c2.404-1.946,2.977-4.236,2.977-10.763
		c0-10.764-1.832-12.824-11.221-12.824h-21.526v25.877H1315.173z"/>
	<path fill="#6F4393" d="M633.269,246.108h-10.972l-15.015-26.179c-0.77-1.411-1.539-2.951-4.299-8.277l-1.347-2.694h-0.257
		l0.064,2.182l0.063,2.245c0.064,0.129,0.064,2.374,0.064,4.492v28.231h-6.48v-42.797h10.907l13.282,23.548
		c1.476,2.631,2.246,4.042,5.582,10.267l1.797,3.4h0.192v-2.182l-0.064-2.182c-0.063-0.32-0.063-2.438-0.063-4.428v-28.424h6.544
		V246.108z"/>
	<path fill="#6F4393" d="M660.477,221.597h20.853v5.069h-20.853v13.924h21.943v5.518h-28.488v-42.797h28.36v5.518h-21.815V221.597z"
		/>
	<path fill="#6F4393" d="M718.544,246.108h-6.545v-36.894H698.91v-5.903h32.916v5.967l-13.282-0.063V246.108z"/>
	<path fill="#6F4393" d="M798.813,246.108h-9.753l-7.443-26.243c-0.77-2.823-0.834-3.079-1.797-6.865l-0.513-2.31h-0.192
		l-0.642,2.31c-0.898,3.594-0.963,3.914-1.861,6.93l-7.571,26.179h-9.624l-12.062-42.797h6.673l7.636,26.948
		c0.577,2.054,0.834,3.145,1.988,7.893l0.578,2.631h0.192c1.219-4.62,2.182-8.085,2.823-10.459l7.764-27.013h8.405l7.699,27.013
		c0.963,3.529,0.963,3.593,2.054,7.828l0.642,2.631h0.192l0.642-2.631c1.155-4.62,1.411-5.839,2.053-7.893l7.764-26.948h6.737
		L798.813,246.108z"/>
	<path fill="#6F4393" d="M856.755,204.337c3.722,1.604,5.775,4.748,6.545,9.945c0.321,1.925,0.385,3.914,0.385,9.625
		c0,8.598-0.128,10.33-0.77,13.474c-0.834,3.722-2.888,6.288-6.031,7.636c-2.759,1.155-5.39,1.476-11.55,1.476
		c-7.058,0-9.496-0.32-12.319-1.54c-3.08-1.347-5.005-3.85-5.839-7.507c-0.705-3.016-0.834-4.684-0.834-12.704
		c0-10.33,0.385-13.09,2.31-16.298c1.54-2.566,4.171-4.299,7.765-5.005c1.539-0.32,5.068-0.513,8.854-0.513
		C851.558,202.926,854.253,203.247,856.755,204.337z M857.076,224.613v-5.967c0-4.684-1.026-7.764-2.951-8.919
		c-1.604-0.962-3.401-1.154-9.817-1.154c-7.507,0-9.368,0.705-10.587,4.17c-0.706,2.118-0.77,2.888-0.77,11.999
		c0,7.956,0,7.956,0.32,10.138c0.449,2.759,1.476,4.427,3.337,5.133c1.604,0.642,3.336,0.834,8.469,0.834
		c5.839,0,7.765-0.256,9.24-1.347c1.732-1.22,2.759-4.492,2.759-8.919V224.613z"/>
	<path fill="#6F4393" d="M882.999,203.311h20.725c9.817,0,13.218,3.272,13.218,12.512c0,8.213-1.604,10.651-7.571,11.742v0.192
		c4.684,0.257,7.122,3.144,7.058,8.277v10.073h-6.608v-8.662c0.128-5.068-2.117-7.187-7.251-6.994h-13.024v15.656h-6.545V203.311z
		 M902.248,224.806c2.887,0,4.748-0.386,5.967-1.284c1.669-1.154,2.117-2.566,2.117-6.287c0-5.005-0.448-6.48-2.31-7.508
		c-0.962-0.513-2.566-0.77-4.684-0.77h-13.795v15.849H902.248z"/>
	<path fill="#6F4393" d="M942.673,221.341h4.042l15.784-18.03h8.277L952.361,224.1l20.468,22.008h-8.598l-17.517-19.057h-4.042
		v19.057h-6.545v-42.797h6.545V221.341z"/>
</g>
</svg>
