<?xml version="1.0" encoding="utf-8"?>
<!-- Generator: Adobe Illustrator 26.3.1, SVG Export Plug-In . SVG Version: 6.00 Build 0)  -->
<svg version="1.1" xmlns="http://www.w3.org/2000/svg" xmlns:xlink="http://www.w3.org/1999/xlink" x="0px" y="0px"
	 viewBox="0 0 603.1 273.3" enable-background="new 0 0 603.1 273.3" xml:space="preserve">
<g id="Layer_2">
	<g>
		<g>
			<g>
				<path fill="#BB3A07" d="M7.3,69.2V12.7h20c17.8,0,28.4,10.5,28.4,28.2c0,18-9.4,28.3-25.9,28.3H7.3z M28.4,57.8
					c9,0,13.4-5.6,13.4-17c0-11.2-5.4-16.8-15.9-16.8H21v33.8H28.4z"/>
				<path fill="#7F2602" d="M27.3,13.7c17.8,0,27.4,10.7,27.4,27.2c0,17.9-9.2,27.3-24.9,27.3H8.3V13.7H27.3 M20,58.8h8.4
					c8.8,0,14.4-5.1,14.4-18c0-12.1-6.1-17.8-16.9-17.8H20V58.8 M27.3,11.7h-19h-2v2v54.5v2h2h21.6c17.1,0,26.9-10.7,26.9-29.3
					c0-8.7-2.6-16.1-7.6-21.1C43.9,14.4,36.4,11.7,27.3,11.7L27.3,11.7z M22,25h3.9c10,0,14.9,5.2,14.9,15.8c0,10.8-4,16-12.4,16H22
					V25L22,25z"/>
			</g>
			<g>
				<polygon fill="#BB3A07" points="70.8,69.2 70.8,12.7 108.9,12.7 108.9,24.3 84.6,24.3 84.6,34.9 105.7,34.9 105.7,46 84.6,46 
					84.6,57.5 108.9,57.5 108.9,69.2 				"/>
				<path fill="#7F2602" d="M107.9,13.7v9.7H83.6v12.6h21.1V45H83.6v13.5h24.4v9.7H71.8V13.7H107.9 M109.9,11.7h-2H71.8h-2v2v54.5v2
					h2h36.1h2v-2v-9.7v-2h-2H85.6V47h19.1h2v-2v-9.2v-2h-2H85.6v-8.6h22.4h2v-2v-9.7V11.7L109.9,11.7z"/>
			</g>
			<g>
				<path fill="#BB3A07" d="M143.5,69.8c-12.6,0-20.5-6-22.6-7.8l-0.7-0.6l8.1-10l0.8,0.7c2.1,1.9,7.7,6.3,14.8,6.3
					c3.5,0,7.8-0.8,7.8-4.5c0-3.9-4.9-5.4-10.5-7.2c-8-2.4-17.9-5.5-17.9-17.2c0-10.1,8.6-17.4,20.5-17.4c15.7,0,20,9.4,21.2,15.1
					l0.2,0.9l-12.6,3.1l-0.1-1.2c-0.2-2.4-2.7-6.3-8.5-6.3c-4.4,0-7,1.9-7,5c0,3.2,3.7,4.4,9.7,6.3c8.3,2.5,18.6,5.7,18.6,18.5
					C165.3,61.4,159.6,69.8,143.5,69.8z"/>
				<path fill="#7F2602" d="M143.7,13.1c14.5,0,19,8.4,20.2,14.3l-10.5,2.6c-0.2-2.9-3.1-7.2-9.5-7.2c-5,0-8,2.3-8,6
					c0,9.9,28.3,4.3,28.3,24.8c0,8.5-6.9,15.2-20.7,15.2c-11.3,0-18.9-5-22-7.6l6.9-8.4c2.6,2.3,8.3,6.5,15.4,6.5
					c5.9,0,8.8-2.1,8.8-5.5c0-10.9-28.4-5.1-28.4-24.4C124.2,20.3,132,13.1,143.7,13.1 M143.7,11.1c-12.5,0-21.5,7.7-21.5,18.4
					c0,12.5,10.8,15.8,18.6,18.2c6.1,1.9,9.8,3.2,9.8,6.2c0,1.6-1.2,3.5-6.8,3.5c-6.7,0-12.1-4.2-14.1-6l-1.6-1.4l-1.3,1.6l-6.9,8.4
					l-1.2,1.5l1.5,1.3c2.2,1.9,10.4,8.1,23.3,8.1c13.8,0,22.7-6.8,22.7-17.2c0-13.6-11.2-17-19.4-19.5c-5.6-1.7-9-2.9-9-5.3
					c0-3.6,4.2-4,6-4c5.1,0,7.3,3.3,7.5,5.4l0.2,2.3l2.3-0.6l10.5-2.6l1.9-0.5l-0.4-1.9c-0.6-2.9-2.1-7.1-5.7-10.4
					C156.2,12.9,150.7,11.1,143.7,11.1L143.7,11.1z"/>
			</g>
			<g>
				<rect x="180.4" y="12.7" fill="#BB3A07" width="13.5" height="56.5"/>
				<path fill="#7F2602" d="M192.8,13.7v54.5h-11.5V13.7H192.8 M194.8,11.7h-2h-11.5h-2v2v54.5v2h2h11.5h2v-2V13.7V11.7L194.8,11.7z
					"/>
			</g>
			<g>
				<path fill="#BB3A07" d="M234.6,69.8c-15.3,0-25.6-11.6-25.6-28.8s10.7-28.8,26.7-28.8c16,0,23.2,10.6,23.2,20.5v0.9l-12.7,2
					v-1.2c0-5-3.2-10-10.3-10c-7.8,0-13,6.7-13,16.7c0,10.4,5.4,17.1,13.7,17.1c6.5,0,10.3-2.8,11-8h-14.2v-9.4h26.2v28.6h-9.7
					l-0.2-0.7c-0.2-0.6-0.4-1.9-0.6-3.9C245.6,68,240.7,69.8,234.6,69.8z"/>
				<path fill="#7F2602" d="M235.7,13.1c16.4,0,22.2,11.1,22.2,19.5l-10.7,1.7c0-5-3.1-11-11.3-11c-7.8,0-14,6.5-14,17.7
					c0,10.8,5.6,18.1,14.7,18.1c7.8,0,11.8-4,12.1-10h-14.3v-7.4h24.2v26.6h-7.9c-0.2-0.6-0.6-2.7-0.8-6c-3.1,4.2-8.3,6.6-15.2,6.6
					c-14.7,0-24.6-10.9-24.6-27.8C210,23.9,220.7,13.1,235.7,13.1 M235.7,11.1c-7.9,0-14.9,2.9-19.9,8.2c-5.1,5.4-7.8,12.9-7.8,21.7
					c0,17.8,10.7,29.8,26.6,29.8c5.5,0,10.2-1.4,13.7-4.2c0.2,1.1,0.3,1.8,0.4,2.2l0.4,1.5h1.5h7.9h2v-2V41.6v-2h-2h-24.2h-2v2V49v2
					h2h12c-0.8,3.1-3.2,6-9.8,6c-7.8,0-12.7-6.2-12.7-16.1c0-9.4,4.8-15.7,12-15.7c6.9,0,9.3,4.8,9.3,9v2.3l2.3-0.4l10.7-1.7
					l1.7-0.3v-1.7C259.9,22.2,252.3,11.1,235.7,11.1L235.7,11.1z"/>
			</g>
			<g>
				<path fill="#BB3A07" d="M311.1,69.2l-17.9-26.7c-1.5-2.3-3.2-5.2-4.6-7.5c0.1,1.5,0.1,3.7,0.1,6.8l0.1,27.3h-13.3V12.7h11.9
					l18.7,28c1.4,2.2,3,4.7,4.6,7.4c-0.1-1.9-0.2-4.3-0.2-6.9l-0.1-28.5h13.4v56.5H311.1z"/>
				<path fill="#7F2602" d="M322.8,13.7v54.5h-11.1l-17.6-26.3c-2.1-3.3-5-8-6.3-10.2l-0.5,0.2c0.3,1.2,0.4,5.5,0.4,9.8l0.1,26.3
					h-11.3V13.7h10.4l18.4,27.6c2.8,4.2,5.3,8.7,6.2,10.3l0.5-0.2c-0.2-1.5-0.5-5.6-0.5-10.2l-0.1-27.5H322.8 M324.8,11.7h-2h-11.4
					h-2l0,2l0.1,27.5c0,1,0,2,0,3c-0.9-1.4-1.7-2.8-2.6-4l-18.4-27.6l-0.6-0.9h-1.1h-10.4h-2v2v54.5v2h2h11.3h2l0-2l-0.1-26.3
					c0-1.2,0-2.2,0-3.1c0.9,1.5,1.9,3,2.7,4.3L310,69.3l0.6,0.9h1.1h11.1h2v-2V13.7V11.7L324.8,11.7z"/>
			</g>
			<g>
				<polygon fill="#BB3A07" points="341.6,69.2 341.6,12.7 379.7,12.7 379.7,24.3 355.4,24.3 355.4,34.9 376.5,34.9 376.5,46 
					355.4,46 355.4,57.5 379.7,57.5 379.7,69.2 				"/>
				<path fill="#7F2602" d="M378.7,13.7v9.7h-24.4v12.6h21.1V45h-21.1v13.5h24.4v9.7h-36.1V13.7H378.7 M380.7,11.7h-2h-36.1h-2v2
					v54.5v2h2h36.1h2v-2v-9.7v-2h-2h-22.4V47h19.1h2v-2v-9.2v-2h-2h-19.1v-8.6h22.4h2v-2v-9.7V11.7L380.7,11.7z"/>
			</g>
			<g>
				<path fill="#BB3A07" d="M435,69.8c-9.5,0-12.6-6-15.2-11.2c-2.2-4.3-4.1-8-9.1-8h-1.5v18.7h-13.7V12.7H415
					c15.1,0,22.8,6.5,22.8,19.4c0,7.1-3.4,12.5-9.8,15.5c1.8,1.4,3,3.4,4.2,5.3c1.8,2.9,3.3,5.4,6.5,5.4c0.8,0,1.4-0.1,1.4-0.1
					l1.1-0.2l0.9,11l-0.8,0.2C441.2,69.2,439,69.8,435,69.8z M413.4,40.2c6.8,0,10.8-3,10.8-8.1c0-6.8-5.4-8.2-9.9-8.2h-5.1v16.3
					H413.4z"/>
				<path fill="#7F2602" d="M415,13.7c14.2,0,21.8,5.6,21.8,18.4c0,7.6-4,12.7-11,15.4c5.9,2.7,6,11.9,12.9,11.9
					c0.9,0,1.7-0.2,1.7-0.2l0.7,9c0,0-2.1,0.6-6,0.6c-16.6,0-12.1-19.2-24.4-19.2h-2.5v18.7h-11.7V13.7H415 M408.2,41.2h5.2
					c7,0,11.8-3.2,11.8-9.1c0-6.1-4-9.2-10.9-9.2h-6.1V41.2 M415,11.7h-18.5h-2v2v54.5v2h2h11.7h2v-2V51.5h0.5
					c4.3,0,5.8,2.7,8.2,7.4c2.7,5.3,6,11.8,16.1,11.8c4.1,0,6.5-0.6,6.5-0.6l1.6-0.4l-0.1-1.7l-0.7-9l-0.2-2.3l-2.2,0.5l0,0
					c0,0-0.6,0.1-1.2,0.1c-2.6,0-3.8-1.8-5.7-4.9c-0.9-1.5-1.9-3.2-3.3-4.6c6-3.3,9.1-8.7,9.1-15.8C438.8,18.5,430.8,11.7,415,11.7
					L415,11.7z M410.2,24.9h4.1c6,0,8.9,2.4,8.9,7.2c0,6.4-6.9,7.1-9.8,7.1h-3.2V24.9L410.2,24.9z"/>
			</g>
			<g>
				<path fill="#BB3A07" d="M511.6,66.8c-3.8,1.8-8.3,2.7-13,2.7c-12.7,0-21.2-6.5-21.2-16.2c0-6.7,3.4-11.6,10.1-14.7
					c-2.6-3.7-3.9-7.3-3.9-11.1c0-8.9,6.7-15,16.2-15c9.5,0,16.1,5.8,16.1,14c0,6.6-3.8,11.7-11.4,15.3l7.9,9.2
					c1.2-2.4,1.8-5.5,1.8-9.2v-1.3l11,2.6V44c0,6.2-1.8,11.7-5.2,16l4.7,5.5l-8.6,6.5L511.6,66.8z M493.9,46.2
					c-2.3,1.4-3.5,3.3-3.5,5.8c0,3.8,3.4,6.4,8.5,6.4c1.9,0,3.5-0.2,5-0.6L493.9,46.2z M499.9,22.8c-2.8,0-4.5,1.9-4.5,4.9
					c0,3,1.5,5.1,3.1,7c4.9-2.1,5.9-4.4,5.9-7.3C504.3,24.6,502.6,22.8,499.9,22.8z"/>
				<path fill="#7F2602" d="M499.8,13.5c9.2,0,15.1,5.5,15.1,13c0,7.3-5,11.9-12,14.9l9.7,11.3c1.7-2.7,2.6-6.4,2.6-11l9,2.1
					c0,6.4-2,11.9-5.5,16l4.5,5.4l-7,5.3l-4.5-5.1c-3.7,1.9-8.3,3-13.3,3c-12.1,0-20.2-6.1-20.2-15.2c0-7.8,4.7-11.9,10.7-14.3
					c-2.3-3-4.5-6.8-4.5-11.5C484.6,19.2,490.9,13.5,499.8,13.5 M498.1,35.9c5.5-2.1,7.2-4.8,7.2-8.5c0-3.4-2.2-5.6-5.5-5.6
					c-3.3,0-5.5,2.4-5.5,5.9S496.2,33.7,498.1,35.9 M499,59.5c2.5,0,4.8-0.3,6.8-1.1L494.2,45c-3.3,1.7-4.7,4.2-4.7,7.1
					C489.5,56.4,493.3,59.5,499,59.5 M499.8,11.5c-10.1,0-17.2,6.6-17.2,16c0,3.6,1.1,7.1,3.4,10.7c-6.4,3.3-9.6,8.3-9.6,15.1
					c0,10.3,8.9,17.2,22.2,17.2c4.6,0,9-0.9,12.8-2.5l3.5,4l1.2,1.4l1.5-1.1l7-5.3l1.7-1.3l-1.4-1.6l-3.5-4.1
					c3.2-4.4,4.9-9.9,4.9-16v-1.6l-1.5-0.4l-9-2.1l-2.5-0.6v2.5c0,2.8-0.4,5.3-1.1,7.4l-6-7c7.1-3.8,10.8-9,10.8-15.6
					C516.9,17.7,509.9,11.5,499.8,11.5L499.8,11.5z M498.7,33.5c-1.3-1.6-2.4-3.4-2.4-5.8c0-2.4,1.4-3.9,3.5-3.9
					c2.2,0,3.5,1.4,3.5,3.6C503.3,29.8,502.5,31.7,498.7,33.5L498.7,33.5z M499,57.5c-4.5,0-7.5-2.2-7.5-5.4c0-1.9,0.7-3.3,2.3-4.5
					l8.3,9.7C501.1,57.4,500.1,57.5,499,57.5L499,57.5z"/>
			</g>
			<g>
				<path fill="#BB3A07" d="M26.1,168.9c-12.6,0-20.5-6-22.6-7.8l-0.7-0.6l8.1-10l0.8,0.7c2.1,1.9,7.7,6.3,14.8,6.3
					c3.5,0,7.8-0.8,7.8-4.5c0-3.9-4.9-5.4-10.5-7.2c-8-2.4-17.9-5.5-17.9-17.2c0-10.1,8.6-17.4,20.5-17.4c15.7,0,20,9.4,21.2,15.1
					l0.2,0.9l-12.6,3.1l-0.1-1.2c-0.2-2.4-2.7-6.3-8.5-6.3c-4.4,0-7,1.9-7,5c0,3.2,3.7,4.4,9.7,6.3c8.3,2.5,18.6,5.7,18.6,18.5
					C47.8,160.5,42.1,168.9,26.1,168.9z"/>
				<path fill="#7F2602" d="M26.3,112.2c14.5,0,19,8.4,20.2,14.3L36,129c-0.2-2.9-3.1-7.2-9.5-7.2c-5,0-8,2.3-8,6
					c0,9.9,28.3,4.3,28.3,24.8c0,8.5-6.9,15.2-20.7,15.2c-11.3,0-18.9-5-22-7.6l6.9-8.4c2.6,2.3,8.3,6.5,15.4,6.5
					c5.9,0,8.8-2.1,8.8-5.5c0-10.9-28.4-5.1-28.4-24.4C6.8,119.4,14.5,112.2,26.3,112.2 M26.3,110.2c-12.5,0-21.5,7.7-21.5,18.4
					c0,12.5,10.8,15.8,18.6,18.2c6.1,1.9,9.8,3.2,9.8,6.2c0,1.6-1.2,3.5-6.8,3.5c-6.7,0-12.1-4.2-14.1-6l-1.6-1.4l-1.3,1.6L2.6,159
					l-1.2,1.5l1.5,1.3c2.2,1.9,10.4,8.1,23.3,8.1c13.8,0,22.7-6.8,22.7-17.2c0-13.6-11.2-17-19.4-19.5c-5.6-1.7-9-2.9-9-5.3
					c0-3.6,4.2-4,6-4c5.1,0,7.3,3.3,7.5,5.4l0.2,2.3l2.3-0.6l10.5-2.6l1.9-0.5l-0.4-1.9c-0.6-2.9-2.1-7.1-5.7-10.4
					C38.8,112,33.2,110.2,26.3,110.2L26.3,110.2z"/>
			</g>
			<g>
				<polygon fill="#BB3A07" points="62.9,168.3 62.9,111.8 101,111.8 101,123.4 76.6,123.4 76.6,134 97.8,134 97.8,145.1 
					76.6,145.1 76.6,156.6 101,156.6 101,168.3 				"/>
				<path fill="#7F2602" d="M100,112.8v9.7H75.6V135h21.1v9.2H75.6v13.5H100v9.7H63.9v-54.5H100 M102,110.8h-2H63.9h-2v2v54.5v2h2
					H100h2v-2v-9.7v-2h-2H77.6v-9.5h19.1h2v-2V135v-2h-2H77.6v-8.6H100h2v-2v-9.7V110.8L102,110.8z"/>
			</g>
			<g>
				<polygon fill="#BB3A07" points="116.8,168.3 116.8,111.8 130.5,111.8 130.5,156.6 155.1,156.6 155.1,168.3 				"/>
				<path fill="#7F2602" d="M129.5,112.8v44.8h24.6v9.7h-36.3v-54.5H129.5 M131.5,110.8h-2h-11.7h-2v2v54.5v2h2h36.3h2v-2v-9.7v-2
					h-2h-22.6v-42.8V110.8L131.5,110.8z"/>
			</g>
			<g>
				<polygon fill="#BB3A07" points="168,168.3 168,111.8 205.3,111.8 205.3,123.4 181.8,123.4 181.8,134.8 202.1,134.8 202.1,146.3 
					181.8,146.3 181.8,168.3 				"/>
				<path fill="#7F2602" d="M204.3,112.8v9.7h-23.5v13.4h20.3v9.5h-20.3v22H169v-54.5H204.3 M206.3,110.8h-2H169h-2v2v54.5v2h2h11.7
					h2v-2v-20h18.3h2v-2v-9.5v-2h-2h-18.3v-9.4h21.5h2v-2v-9.7V110.8L206.3,110.8z"/>
			</g>
			<g>
				<rect x="217" y="135.7" fill="#BB3A07" width="25.4" height="9.8"/>
				<path fill="#7F2602" d="M241.4,136.7v7.8H218v-7.8H241.4 M243.4,134.7h-2H218h-2v2v7.8v2h2h23.4h2v-2v-7.8V134.7L243.4,134.7z"
					/>
			</g>
			<g>
				<polygon fill="#BB3A07" points="264.5,168.3 264.5,123.4 247.9,123.4 247.9,111.8 294.8,111.8 294.8,123.4 278.2,123.4 
					278.2,168.3 				"/>
				<path fill="#7F2602" d="M293.8,112.8v9.7h-16.6v44.8h-11.7v-44.8h-16.6v-9.7H293.8 M295.8,110.8h-2h-44.9h-2v2v9.7v2h2h14.6
					v42.8v2h2h11.7h2v-2v-42.8h14.6h2v-2v-9.7V110.8L295.8,110.8z"/>
			</g>
			<g>
				<path fill="#BB3A07" d="M336.7,168.3l-3.8-11.6h-18.3l-3.8,11.6h-14.1l20-56.5h14l19.9,56.5H336.7z M329.4,145.8l-4.9-14.9
					c-0.3-0.8-0.6-1.7-0.8-2.7c-0.3,1.1-0.6,2.1-0.8,2.8l-4.8,14.8H329.4z"/>
				<path fill="#7F2602" d="M330.1,112.8l19.2,54.5h-11.9l-3.8-11.6h-19.7l-3.8,11.6h-12l19.3-54.5H330.1 M316.8,146.8h14l-5.3-16.2
					c-0.6-1.7-1.2-4.1-1.7-6.2h-0.2c-0.3,2.1-1.1,4.5-1.7,6.3L316.8,146.8 M331.5,110.8h-1.4h-12.6H316l-0.5,1.3l-19.3,54.5
					l-0.9,2.7h2.8h12h1.5l0.5-1.4l3.3-10.3h16.8l3.3,10.3l0.5,1.4h1.5h11.9h2.8l-0.9-2.7L332,112.1L331.5,110.8L331.5,110.8z
					 M319.5,144.8l4.2-13.1l4.3,13.1H319.5L319.5,144.8z"/>
			</g>
			<g>
				<path fill="#BB3A07" d="M384.5,168.9c-14.3,0-23.9-9.3-23.9-23.1v-34h13.7v34c0,6.8,3.9,11,10.1,11c6.2,0,10-4.2,10-10.9v-34
					h13.7v34C408.2,159.6,398.7,168.9,384.5,168.9z"/>
				<path fill="#7F2602" d="M407.2,112.8v33c0,13.5-9.2,22.1-22.7,22.1c-13.7,0-22.9-8.6-22.9-22.1v-33h11.7v33
					c0,7.6,4.5,12,11.1,12c6.5,0,11-4.4,11-11.9v-33H407.2 M409.2,110.8h-2h-11.7h-2v2v33c0,6.2-3.4,9.9-9,9.9
					c-5.7,0-9.1-3.7-9.1-10v-33v-2h-2h-11.7h-2v2v33c0,14.4,10,24.1,24.9,24.1c14.8,0,24.7-9.7,24.7-24.1v-33V110.8L409.2,110.8z"/>
			</g>
			<g>
				<path fill="#BB3A07" d="M448.4,168.9c-15.3,0-25.6-11.6-25.6-28.8s10.7-28.8,26.7-28.8c16,0,23.2,10.6,23.2,20.5v0.9l-12.7,2
					v-1.2c0-5-3.2-10-10.3-10c-7.8,0-13,6.7-13,16.7c0,10.4,5.4,17.1,13.7,17.1c6.5,0,10.3-2.8,11-8h-14.2v-9.4h26.2v28.6h-9.7
					l-0.2-0.7c-0.2-0.5-0.4-1.9-0.6-3.9C459.4,167.1,454.5,168.9,448.4,168.9z"/>
				<path fill="#7F2602" d="M449.5,112.2c16.4,0,22.2,11.1,22.2,19.5l-10.7,1.7c0-5-3.1-11-11.3-11c-7.8,0-14,6.5-14,17.7
					c0,10.8,5.6,18.1,14.7,18.1c7.8,0,11.8-4,12.1-10h-14.3v-7.4h24.2v26.6h-7.9c-0.2-0.6-0.6-2.7-0.8-6c-3.1,4.2-8.3,6.6-15.2,6.6
					c-14.7,0-24.6-10.9-24.6-27.8C423.8,123,434.5,112.2,449.5,112.2 M449.5,110.2c-7.9,0-14.9,2.9-19.9,8.2
					c-5.1,5.4-7.8,12.9-7.8,21.7c0,17.8,10.7,29.8,26.6,29.8c5.5,0,10.2-1.4,13.7-4.2c0.2,1.1,0.3,1.8,0.4,2.2l0.4,1.5h1.5h7.9h2v-2
					v-26.6v-2h-2h-24.2h-2v2v7.4v2h2h12c-0.8,3.1-3.2,6-9.8,6c-7.8,0-12.7-6.2-12.7-16.1c0-9.4,4.8-15.7,12-15.7
					c6.9,0,9.3,4.8,9.3,9v2.3l2.3-0.4l10.7-1.7l1.7-0.3v-1.7C473.7,121.3,466.1,110.2,449.5,110.2L449.5,110.2z"/>
			</g>
			<g>
				<polygon fill="#BB3A07" points="524.6,168.3 524.6,145.4 503,145.4 503,168.3 489.3,168.3 489.3,111.8 503,111.8 503,133.7 
					524.6,133.7 524.6,111.8 538.4,111.8 538.4,168.3 				"/>
				<path fill="#7F2602" d="M537.4,112.8v54.5h-11.7v-22.9H502v22.9h-11.7v-54.5H502v22h23.6v-22H537.4 M539.4,110.8h-2h-11.7h-2v2
					v20H504v-20v-2h-2h-11.7h-2v2v54.5v2h2H502h2v-2v-20.9h19.6v20.9v2h2h11.7h2v-2v-54.5V110.8L539.4,110.8z"/>
			</g>
			<g>
				<polygon fill="#BB3A07" points="567.9,168.3 567.9,123.4 551.3,123.4 551.3,111.8 598.2,111.8 598.2,123.4 581.6,123.4 
					581.6,168.3 				"/>
				<path fill="#7F2602" d="M597.2,112.8v9.7h-16.6v44.8h-11.7v-44.8h-16.6v-9.7H597.2 M599.2,110.8h-2h-44.9h-2v2v9.7v2h2h14.6
					v42.8v2h2h11.7h2v-2v-42.8h14.6h2v-2v-9.7V110.8L599.2,110.8z"/>
			</g>
			<g>
				<path fill="#BB3A07" d="M7.3,267.4v-56.5h20c17.8,0,28.4,10.5,28.4,28.2c0,18-9.4,28.3-25.9,28.3H7.3z M28.4,256
					c9,0,13.4-5.6,13.4-17c0-11.2-5.4-16.8-15.9-16.8H21V256H28.4z"/>
				<path fill="#7F2602" d="M27.3,211.9c17.8,0,27.4,10.7,27.4,27.2c0,17.9-9.2,27.3-24.9,27.3H8.3v-54.5H27.3 M20,257h8.4
					c8.8,0,14.4-5.1,14.4-18c0-12.1-6.1-17.8-16.9-17.8H20V257 M27.3,209.9h-19h-2v2v54.5v2h2h21.6c17.1,0,26.9-10.7,26.9-29.3
					c0-8.7-2.6-16.1-7.6-21.1C43.9,212.6,36.4,209.9,27.3,209.9L27.3,209.9z M22,223.2h3.9c10,0,14.9,5.2,14.9,15.8
					c0,10.8-4,16-12.4,16H22V223.2L22,223.2z"/>
			</g>
			<g>
				<polygon fill="#BB3A07" points="70.8,267.4 70.8,210.9 108.9,210.9 108.9,222.5 84.6,222.5 84.6,233.1 105.7,233.1 105.7,244.2 
					84.6,244.2 84.6,255.7 108.9,255.7 108.9,267.4 				"/>
				<path fill="#7F2602" d="M107.9,211.9v9.7H83.6v12.6h21.1v9.2H83.6v13.5h24.4v9.7H71.8v-54.5H107.9 M109.9,209.9h-2H71.8h-2v2
					v54.5v2h2h36.1h2v-2v-9.7v-2h-2H85.6v-9.5h19.1h2v-2v-9.2v-2h-2H85.6v-8.6h22.4h2v-2v-9.7V209.9L109.9,209.9z"/>
			</g>
			<g>
				<path fill="#BB3A07" d="M138.4,267.4l-19.5-56.5h14.2l11.6,37.3c0.3,0.9,0.6,1.8,0.8,2.8c0.3-1.1,0.6-2,0.8-2.7l11.7-37.4h14
					l-19.6,56.5H138.4z"/>
				<path fill="#7F2602" d="M170.7,211.9l-18.9,54.5h-12.6l-18.8-54.5h12.1l11.4,36.6c0.6,1.8,1.3,4.2,1.7,6.3h0.2
					c0.4-2.1,1.1-4.4,1.7-6.2l11.5-36.7H170.7 M173.5,209.9h-2.8h-11.9h-1.5l-0.4,1.4l-11.3,36.2l-11.3-36.2l-0.4-1.4h-1.5h-12.1
					h-2.8l0.9,2.7l18.8,54.5l0.5,1.3h1.4h12.6h1.4l0.5-1.3l18.9-54.5L173.5,209.9L173.5,209.9z"/>
			</g>
			<g>
				<polygon fill="#BB3A07" points="184.1,267.4 184.1,210.9 222.2,210.9 222.2,222.5 197.8,222.5 197.8,233.1 218.9,233.1 
					218.9,244.2 197.8,244.2 197.8,255.7 222.2,255.7 222.2,267.4 				"/>
				<path fill="#7F2602" d="M221.2,211.9v9.7h-24.4v12.6h21.1v9.2h-21.1v13.5h24.4v9.7h-36.1v-54.5H221.2 M223.2,209.9h-2h-36.1h-2
					v2v54.5v2h2h36.1h2v-2v-9.7v-2h-2h-22.4v-9.5h19.1h2v-2v-9.2v-2h-2h-19.1v-8.6h22.4h2v-2v-9.7V209.9L223.2,209.9z"/>
			</g>
			<g>
				<polygon fill="#BB3A07" points="237.9,267.4 237.9,210.9 251.6,210.9 251.6,255.7 276.2,255.7 276.2,267.4 				"/>
				<path fill="#7F2602" d="M250.6,211.9v44.8h24.6v9.7h-36.3v-54.5H250.6 M252.6,209.9h-2h-11.7h-2v2v54.5v2h2h36.3h2v-2v-9.7v-2
					h-2h-22.6v-42.8V209.9L252.6,209.9z"/>
			</g>
			<g>
				<path fill="#BB3A07" d="M311.7,268c-16.5,0-27.6-11.6-27.6-28.9c0-17.2,11.1-28.7,27.6-28.7c16.5,0,27.5,11.6,27.5,28.7
					C339.3,256.3,328.2,268,311.7,268z M311.7,222.4c-8.3,0-13.7,6.5-13.7,16.6c0,10.1,5.4,16.7,13.7,16.7c8.3,0,13.6-6.5,13.6-16.7
					C325.4,229,320,222.4,311.7,222.4z"/>
				<path fill="#7F2602" d="M311.8,211.3c15.6,0,26.5,10.7,26.5,27.7c0,17.2-10.9,27.9-26.5,27.9c-15.6,0-26.6-10.7-26.6-27.9
					C285.2,222,296.1,211.3,311.8,211.3 M311.8,256.7c8.5,0,14.6-6.5,14.6-17.7c0-11.1-6.1-17.6-14.6-17.6
					c-8.5,0-14.7,6.5-14.7,17.6C297,250.2,303.2,256.7,311.8,256.7 M311.8,209.3c-17.1,0-28.6,12-28.6,29.7
					c0,17.9,11.5,29.9,28.6,29.9c17.1,0,28.5-12,28.5-29.9C340.3,221.2,328.8,209.3,311.8,209.3L311.8,209.3z M311.8,254.7
					c-7.7,0-12.7-6.2-12.7-15.7c0-9.5,5-15.6,12.7-15.6c7.7,0,12.6,6.1,12.6,15.6C324.4,248.7,319.5,254.7,311.8,254.7L311.8,254.7z
					"/>
			</g>
			<g>
				<path fill="#BB3A07" d="M354.4,267.4v-56.5h20.6c15.4,0,23.9,7.2,23.9,20.3c0,12.5-8.5,20.3-22.3,20.3h-8.4v15.9H354.4z
					 M374.3,240.3c4.9,0,10.6-1.6,10.6-9.1c0-5.9-4-9.1-11.1-9.1h-5.7v18.2H374.3z"/>
				<path fill="#7F2602" d="M374.9,211.9c14.3,0,22.9,6.4,22.9,19.3c0,12.9-9,19.3-21.3,19.3h-9.4v15.9h-11.7v-54.5H374.9
					 M367.1,241.3h7.2c7.4,0,11.6-3.6,11.6-10.1c0-6.2-4-10.1-12.1-10.1h-6.7V241.3 M374.9,209.9h-19.6h-2v2v54.5v2h2h11.7h2v-2
					v-13.9h7.4c14.4,0,23.3-8.2,23.3-21.3C399.8,217.6,390.7,209.9,374.9,209.9L374.9,209.9z M369.1,223.1h4.7
					c4.6,0,10.1,1.4,10.1,8.1c0,5.4-3.2,8.1-9.6,8.1h-5.2V223.1L369.1,223.1z"/>
			</g>
			<g>
				<polygon fill="#BB3A07" points="412.7,267.4 412.7,210.9 450.8,210.9 450.8,222.5 426.5,222.5 426.5,233.1 447.6,233.1 
					447.6,244.2 426.5,244.2 426.5,255.7 450.8,255.7 450.8,267.4 				"/>
				<path fill="#7F2602" d="M449.8,211.9v9.7h-24.4v12.6h21.1v9.2h-21.1v13.5h24.4v9.7h-36.1v-54.5H449.8 M451.8,209.9h-2h-36.1h-2
					v2v54.5v2h2h36.1h2v-2v-9.7v-2h-2h-22.4v-9.5h19.1h2v-2v-9.2v-2h-2h-19.1v-8.6h22.4h2v-2v-9.7V209.9L451.8,209.9z"/>
			</g>
			<g>
				<path fill="#BB3A07" d="M506.1,268c-9.5,0-12.6-6-15.2-11.2c-2.2-4.3-4.1-8-9.1-8h-1.5v18.7h-13.7v-56.5h19.5
					c15.1,0,22.8,6.5,22.8,19.4c0,7.1-3.4,12.5-9.8,15.5c1.8,1.4,3,3.4,4.2,5.3c1.8,2.9,3.3,5.4,6.5,5.4c0.8,0,1.4-0.1,1.4-0.1
					l1.1-0.2l0.9,11l-0.8,0.2C512.3,267.4,510.1,268,506.1,268z M484.5,238.4c6.8,0,10.8-3,10.8-8.1c0-6.8-5.4-8.2-9.9-8.2h-5.1
					v16.3H484.5z"/>
				<path fill="#7F2602" d="M486.1,211.9c14.2,0,21.8,5.6,21.8,18.4c0,7.6-4,12.7-11,15.4c5.9,2.7,6,11.9,12.9,11.9
					c0.9,0,1.7-0.2,1.7-0.2l0.7,9c0,0-2.1,0.6-6,0.6c-16.6,0-12.1-19.2-24.4-19.2h-2.5v18.7h-11.7v-54.5H486.1 M479.3,239.4h5.2
					c7,0,11.8-3.2,11.8-9.1c0-6.1-4-9.2-10.9-9.2h-6.1V239.4 M486.1,209.9h-18.5h-2v2v54.5v2h2h11.7h2v-2v-16.7h0.5
					c4.3,0,5.8,2.7,8.2,7.4c2.7,5.3,6,11.8,16.1,11.8c4.1,0,6.5-0.6,6.5-0.6l1.6-0.4l-0.1-1.7l-0.7-9l-0.2-2.3l-2.2,0.5l0,0
					c0,0-0.6,0.1-1.2,0.1c-2.6,0-3.8-1.8-5.7-4.9c-0.9-1.5-1.9-3.2-3.3-4.6c6-3.3,9.1-8.7,9.1-15.8
					C509.9,216.7,501.9,209.9,486.1,209.9L486.1,209.9z M481.3,223.1h4.1c6,0,8.9,2.4,8.9,7.2c0,6.4-6.9,7.1-9.8,7.1h-3.2V223.1
					L481.3,223.1z"/>
			</g>
		</g>
		<g>
			<g>
				<path fill="#F95B1C" d="M7.3,62.4V5.9h20c17.8,0,28.4,10.5,28.4,28.2c0,18-9.4,28.3-25.9,28.3H7.3z M28.4,51.1
					c9,0,13.4-5.6,13.4-17c0-11.2-5.4-16.8-15.9-16.8H21v33.8H28.4z"/>
				<path fill="#FCB01A" d="M27.3,6.9c17.8,0,27.4,10.7,27.4,27.2c0,17.9-9.2,27.3-24.9,27.3H8.3V6.9H27.3 M20,52.1h8.4
					c8.8,0,14.4-5.1,14.4-18c0-12.1-6.1-17.8-16.9-17.8H20V52.1 M27.3,4.9h-19h-2v2v54.5v2h2h21.6c17.1,0,26.9-10.7,26.9-29.3
					c0-8.7-2.6-16.1-7.6-21.1C43.9,7.7,36.4,4.9,27.3,4.9L27.3,4.9z M22,18.2h3.9c10,0,14.9,5.2,14.9,15.8c0,10.8-4,16-12.4,16H22
					V18.2L22,18.2z"/>
			</g>
			<g>
				<polygon fill="#F95B1C" points="70.8,62.4 70.8,5.9 108.9,5.9 108.9,17.6 84.6,17.6 84.6,28.1 105.7,28.1 105.7,39.3 84.6,39.3 
					84.6,50.7 108.9,50.7 108.9,62.4 				"/>
				<path fill="#FCB01A" d="M107.9,6.9v9.7H83.6v12.6h21.1v9.2H83.6v13.5h24.4v9.7H71.8V6.9H107.9 M109.9,4.9h-2H71.8h-2v2v54.5v2h2
					h36.1h2v-2v-9.7v-2h-2H85.6v-9.5h19.1h2v-2v-9.2v-2h-2H85.6v-8.6h22.4h2v-2V6.9V4.9L109.9,4.9z"/>
			</g>
			<g>
				<path fill="#F95B1C" d="M143.5,63c-12.6,0-20.5-6-22.6-7.8l-0.7-0.6l8.1-10l0.8,0.7c2.1,1.9,7.7,6.3,14.8,6.3
					c3.5,0,7.8-0.8,7.8-4.5c0-3.9-4.9-5.4-10.5-7.2c-8-2.4-17.9-5.5-17.9-17.2c0-10.1,8.6-17.4,20.5-17.4c15.7,0,20,9.4,21.2,15.1
					l0.2,0.9l-12.6,3.1l-0.1-1.2c-0.2-2.4-2.7-6.3-8.5-6.3c-4.4,0-7,1.9-7,5c0,3.2,3.7,4.4,9.7,6.3c8.3,2.5,18.6,5.7,18.6,18.5
					C165.3,54.6,159.6,63,143.5,63z"/>
				<path fill="#FCB01A" d="M143.7,6.3c14.5,0,19,8.4,20.2,14.3l-10.5,2.6c-0.2-2.9-3.1-7.2-9.5-7.2c-5,0-8,2.3-8,6
					c0,9.9,28.3,4.3,28.3,24.8c0,8.5-6.9,15.2-20.7,15.2c-11.3,0-18.9-5-22-7.6l6.9-8.4c2.6,2.3,8.3,6.5,15.4,6.5
					c5.9,0,8.8-2.1,8.8-5.5c0-10.9-28.4-5.1-28.4-24.4C124.2,13.5,132,6.3,143.7,6.3 M143.7,4.3c-12.5,0-21.5,7.7-21.5,18.4
					c0,12.5,10.8,15.8,18.6,18.2c6.1,1.9,9.8,3.2,9.8,6.2c0,1.6-1.2,3.5-6.8,3.5c-6.7,0-12.1-4.2-14.1-6l-1.6-1.4l-1.3,1.6l-6.9,8.4
					l-1.2,1.5l1.5,1.3c2.2,1.9,10.4,8.1,23.3,8.1c13.8,0,22.7-6.8,22.7-17.2c0-13.6-11.2-17-19.4-19.5c-5.6-1.7-9-2.9-9-5.3
					c0-3.6,4.2-4,6-4c5.1,0,7.3,3.3,7.5,5.4l0.2,2.3l2.3-0.6l10.5-2.6l1.9-0.5l-0.4-1.9c-0.6-2.9-2.1-7.1-5.7-10.4
					C156.2,6.2,150.7,4.3,143.7,4.3L143.7,4.3z"/>
			</g>
			<g>
				<rect x="180.4" y="5.9" fill="#F95B1C" width="13.5" height="56.5"/>
				<path fill="#FCB01A" d="M192.8,6.9v54.5h-11.5V6.9H192.8 M194.8,4.9h-2h-11.5h-2v2v54.5v2h2h11.5h2v-2V6.9V4.9L194.8,4.9z"/>
			</g>
			<g>
				<path fill="#F95B1C" d="M234.6,63C219.3,63,209,51.4,209,34.1s10.7-28.8,26.7-28.8c16,0,23.2,10.6,23.2,20.5v0.9l-12.7,2v-1.2
					c0-5-3.2-10-10.3-10c-7.8,0-13,6.7-13,16.7c0,10.4,5.4,17.1,13.7,17.1c6.5,0,10.3-2.8,11-8h-14.2v-9.4h26.2v28.6h-9.7l-0.2-0.7
					c-0.2-0.6-0.4-1.9-0.6-3.9C245.6,61.2,240.7,63,234.6,63z"/>
				<path fill="#FCB01A" d="M235.7,6.3c16.4,0,22.2,11.1,22.2,19.5l-10.7,1.7c0-5-3.1-11-11.3-11c-7.8,0-14,6.5-14,17.7
					c0,10.8,5.6,18.1,14.7,18.1c7.8,0,11.8-4,12.1-10h-14.3v-7.4h24.2v26.6h-7.9c-0.2-0.6-0.6-2.7-0.8-6c-3.1,4.2-8.3,6.6-15.2,6.6
					C219.9,62,210,51.1,210,34.1C210,17.1,220.7,6.3,235.7,6.3 M235.7,4.3c-7.9,0-14.9,2.9-19.9,8.2c-5.1,5.4-7.8,12.9-7.8,21.7
					C208,52,218.7,64,234.6,64c5.5,0,10.2-1.4,13.7-4.2c0.2,1.1,0.3,1.8,0.4,2.2l0.4,1.5h1.5h7.9h2v-2V34.8v-2h-2h-24.2h-2v2v7.4v2
					h2h12c-0.8,3.1-3.2,6-9.8,6c-7.8,0-12.7-6.2-12.7-16.1c0-9.4,4.8-15.7,12-15.7c6.9,0,9.3,4.8,9.3,9v2.3l2.3-0.4l10.7-1.7
					l1.7-0.3v-1.7C259.9,15.5,252.3,4.3,235.7,4.3L235.7,4.3z"/>
			</g>
			<g>
				<path fill="#F95B1C" d="M311.1,62.4l-17.9-26.7c-1.5-2.3-3.2-5.2-4.6-7.5c0.1,1.5,0.1,3.7,0.1,6.8l0.1,27.3h-13.3V5.9h11.9
					l18.7,28c1.4,2.2,3,4.7,4.6,7.4c-0.1-1.9-0.2-4.3-0.2-6.9l-0.1-28.5h13.4v56.5H311.1z"/>
				<path fill="#FCB01A" d="M322.8,6.9v54.5h-11.1l-17.6-26.3c-2.1-3.3-5-8-6.3-10.2l-0.5,0.2c0.3,1.2,0.4,5.5,0.4,9.8l0.1,26.3
					h-11.3V6.9h10.4l18.4,27.6c2.8,4.2,5.3,8.7,6.2,10.3l0.5-0.2c-0.2-1.5-0.5-5.6-0.5-10.2l-0.1-27.5H322.8 M324.8,4.9h-2h-11.4h-2
					l0,2l0.1,27.5c0,1,0,2,0,3c-0.9-1.4-1.7-2.8-2.6-4L288.6,5.8L288,4.9h-1.1h-10.4h-2v2v54.5v2h2h11.3h2l0-2L289.7,35
					c0-1.2,0-2.2,0-3.1c0.9,1.5,1.9,3,2.7,4.3L310,62.5l0.6,0.9h1.1h11.1h2v-2V6.9V4.9L324.8,4.9z"/>
			</g>
			<g>
				<polygon fill="#F95B1C" points="341.6,62.4 341.6,5.9 379.7,5.9 379.7,17.6 355.4,17.6 355.4,28.1 376.5,28.1 376.5,39.3 
					355.4,39.3 355.4,50.7 379.7,50.7 379.7,62.4 				"/>
				<path fill="#FCB01A" d="M378.7,6.9v9.7h-24.4v12.6h21.1v9.2h-21.1v13.5h24.4v9.7h-36.1V6.9H378.7 M380.7,4.9h-2h-36.1h-2v2v54.5
					v2h2h36.1h2v-2v-9.7v-2h-2h-22.4v-9.5h19.1h2v-2v-9.2v-2h-2h-19.1v-8.6h22.4h2v-2V6.9V4.9L380.7,4.9z"/>
			</g>
			<g>
				<path fill="#F95B1C" d="M435,63c-9.5,0-12.6-6-15.2-11.2c-2.2-4.3-4.1-8-9.1-8h-1.5v18.7h-13.7V5.9H415
					c15.1,0,22.8,6.5,22.8,19.4c0,7.1-3.4,12.5-9.8,15.5c1.8,1.4,3,3.4,4.2,5.3c1.8,2.9,3.3,5.4,6.5,5.4c0.8,0,1.4-0.1,1.4-0.1
					l1.1-0.2l0.9,11l-0.8,0.2C441.2,62.4,439,63,435,63z M413.4,33.5c6.8,0,10.8-3,10.8-8.1c0-6.8-5.4-8.2-9.9-8.2h-5.1v16.3H413.4z
					"/>
				<path fill="#FCB01A" d="M415,6.9c14.2,0,21.8,5.6,21.8,18.4c0,7.6-4,12.7-11,15.4c5.9,2.7,6,11.9,12.9,11.9
					c0.9,0,1.7-0.2,1.7-0.2l0.7,9c0,0-2.1,0.6-6,0.6c-16.6,0-12.1-19.2-24.4-19.2h-2.5v18.7h-11.7V6.9H415 M408.2,34.5h5.2
					c7,0,11.8-3.2,11.8-9.1c0-6.1-4-9.2-10.9-9.2h-6.1V34.5 M415,4.9h-18.5h-2v2v54.5v2h2h11.7h2v-2V44.7h0.5c4.3,0,5.8,2.7,8.2,7.4
					c2.7,5.3,6,11.8,16.1,11.8c4.1,0,6.5-0.6,6.5-0.6l1.6-0.4l-0.1-1.7l-0.7-9l-0.2-2.3l-2.2,0.5l0,0c0,0-0.6,0.1-1.2,0.1
					c-2.6,0-3.8-1.8-5.7-4.9c-0.9-1.5-1.9-3.2-3.3-4.6c6-3.3,9.1-8.7,9.1-15.8C438.8,11.8,430.8,4.9,415,4.9L415,4.9z M410.2,18.1
					h4.1c6,0,8.9,2.4,8.9,7.2c0,6.4-6.9,7.1-9.8,7.1h-3.2V18.1L410.2,18.1z"/>
			</g>
			<g>
				<path fill="#F95B1C" d="M511.6,60c-3.8,1.8-8.3,2.7-13,2.7c-12.7,0-21.2-6.5-21.2-16.2c0-6.7,3.4-11.6,10.1-14.7
					c-2.6-3.7-3.9-7.3-3.9-11.1c0-8.9,6.7-15,16.2-15c9.5,0,16.1,5.8,16.1,14c0,6.6-3.8,11.7-11.4,15.3l7.9,9.2
					c1.2-2.4,1.8-5.5,1.8-9.2v-1.3l11,2.6v0.8c0,6.2-1.8,11.7-5.2,16l4.7,5.5l-8.6,6.5L511.6,60z M493.9,39.5
					c-2.3,1.4-3.5,3.3-3.5,5.8c0,3.8,3.4,6.4,8.5,6.4c1.9,0,3.5-0.2,5-0.6L493.9,39.5z M499.9,16c-2.8,0-4.5,1.9-4.5,4.9
					c0,3,1.5,5.1,3.1,7c4.9-2.1,5.9-4.4,5.9-7.3C504.3,17.8,502.6,16,499.9,16z"/>
				<path fill="#FCB01A" d="M499.8,6.7c9.2,0,15.1,5.5,15.1,13c0,7.3-5,11.9-12,14.9l9.7,11.3c1.7-2.7,2.6-6.4,2.6-11l9,2.1
					c0,6.4-2,11.9-5.5,16l4.5,5.4l-7,5.3l-4.5-5.1c-3.7,1.9-8.3,3-13.3,3c-12.1,0-20.2-6.1-20.2-15.2c0-7.8,4.7-11.9,10.7-14.3
					c-2.3-3-4.5-6.8-4.5-11.5C484.6,12.4,490.9,6.7,499.8,6.7 M498.1,29.1c5.5-2.1,7.2-4.8,7.2-8.5c0-3.4-2.2-5.6-5.5-5.6
					c-3.3,0-5.5,2.4-5.5,5.9S496.2,27,498.1,29.1 M499,52.7c2.5,0,4.8-0.3,6.8-1.1l-11.6-13.5c-3.3,1.7-4.7,4.2-4.7,7.1
					C489.5,49.7,493.3,52.7,499,52.7 M499.8,4.7c-10.1,0-17.2,6.6-17.2,16c0,3.6,1.1,7.1,3.4,10.7c-6.4,3.3-9.6,8.3-9.6,15.1
					c0,10.3,8.9,17.2,22.2,17.2c4.6,0,9-0.9,12.8-2.5l3.5,4l1.2,1.4l1.5-1.1l7-5.3l1.7-1.3l-1.4-1.6l-3.5-4.1
					c3.2-4.4,4.9-9.9,4.9-16v-1.6l-1.5-0.4l-9-2.1l-2.5-0.6v2.5c0,2.8-0.4,5.3-1.1,7.4l-6-7c7.1-3.8,10.8-9,10.8-15.6
					C516.9,10.9,509.9,4.7,499.8,4.7L499.8,4.7z M498.7,26.7c-1.3-1.6-2.4-3.4-2.4-5.8c0-2.4,1.4-3.9,3.5-3.9c2.2,0,3.5,1.4,3.5,3.6
					C503.3,23,502.5,24.9,498.7,26.7L498.7,26.7z M499,50.7c-4.5,0-7.5-2.2-7.5-5.4c0-1.9,0.7-3.3,2.3-4.5l8.3,9.7
					C501.1,50.7,500.1,50.7,499,50.7L499,50.7z"/>
			</g>
			<g>
				<path fill="#F95B1C" d="M26.1,162.1c-12.6,0-20.5-6-22.6-7.8l-0.7-0.6l8.1-10l0.8,0.7c2.1,1.9,7.7,6.3,14.8,6.3
					c3.5,0,7.8-0.8,7.8-4.5c0-3.9-4.9-5.4-10.5-7.2c-8-2.4-17.9-5.5-17.9-17.2c0-10.1,8.6-17.4,20.5-17.4c15.7,0,20,9.4,21.2,15.1
					l0.2,0.9l-12.6,3.1l-0.1-1.2c-0.2-2.4-2.7-6.3-8.5-6.3c-4.4,0-7,1.9-7,5c0,3.2,3.7,4.4,9.7,6.3c8.3,2.5,18.6,5.7,18.6,18.5
					C47.8,153.7,42.1,162.1,26.1,162.1z"/>
				<path fill="#FCB01A" d="M26.3,105.4c14.5,0,19,8.4,20.2,14.3L36,122.3c-0.2-2.9-3.1-7.2-9.5-7.2c-5,0-8,2.3-8,6
					c0,9.9,28.3,4.3,28.3,24.8c0,8.5-6.9,15.2-20.7,15.2c-11.3,0-18.9-5-22-7.6l6.9-8.4c2.6,2.3,8.3,6.5,15.4,6.5
					c5.9,0,8.8-2.1,8.8-5.5c0-10.9-28.4-5.1-28.4-24.4C6.8,112.6,14.5,105.4,26.3,105.4 M26.3,103.4c-12.5,0-21.5,7.7-21.5,18.4
					c0,12.5,10.8,15.8,18.6,18.2c6.1,1.9,9.8,3.2,9.8,6.2c0,1.6-1.2,3.5-6.8,3.5c-6.7,0-12.1-4.2-14.1-6l-1.6-1.4l-1.3,1.6l-6.9,8.4
					l-1.2,1.5l1.5,1.3c2.2,1.9,10.4,8.1,23.3,8.1c13.8,0,22.7-6.8,22.7-17.2c0-13.6-11.2-17-19.4-19.5c-5.6-1.7-9-2.9-9-5.3
					c0-3.6,4.2-4,6-4c5.1,0,7.3,3.3,7.5,5.4l0.2,2.3l2.3-0.6l10.5-2.6l1.9-0.5l-0.4-1.9c-0.6-2.9-2.1-7.1-5.7-10.4
					C38.8,105.3,33.2,103.4,26.3,103.4L26.3,103.4z"/>
			</g>
			<g>
				<polygon fill="#F95B1C" points="62.9,161.5 62.9,105 101,105 101,116.7 76.6,116.7 76.6,127.2 97.8,127.2 97.8,138.4 
					76.6,138.4 76.6,149.8 101,149.8 101,161.5 				"/>
				<path fill="#FCB01A" d="M100,106v9.7H75.6v12.6h21.1v9.2H75.6v13.5H100v9.7H63.9V106H100 M102,104h-2H63.9h-2v2v54.5v2h2H100h2
					v-2v-9.7v-2h-2H77.6v-9.5h19.1h2v-2v-9.2v-2h-2H77.6v-8.6H100h2v-2V106V104L102,104z"/>
			</g>
			<g>
				<polygon fill="#F95B1C" points="116.8,161.5 116.8,105 130.5,105 130.5,149.8 155.1,149.8 155.1,161.5 				"/>
				<path fill="#FCB01A" d="M129.5,106v44.8h24.6v9.7h-36.3V106H129.5 M131.5,104h-2h-11.7h-2v2v54.5v2h2h36.3h2v-2v-9.7v-2h-2
					h-22.6V106V104L131.5,104z"/>
			</g>
			<g>
				<polygon fill="#F95B1C" points="168,161.5 168,105 205.3,105 205.3,116.7 181.8,116.7 181.8,128 202.1,128 202.1,139.5 
					181.8,139.5 181.8,161.5 				"/>
				<path fill="#FCB01A" d="M204.3,106v9.7h-23.5V129h20.3v9.5h-20.3v22H169V106H204.3 M206.3,104h-2H169h-2v2v54.5v2h2h11.7h2v-2
					v-20h18.3h2v-2V129v-2h-2h-18.3v-9.4h21.5h2v-2V106V104L206.3,104z"/>
			</g>
			<g>
				<rect x="217" y="128.9" fill="#F95B1C" width="25.4" height="9.8"/>
				<path fill="#FCB01A" d="M241.4,129.9v7.8H218v-7.8H241.4 M243.4,127.9h-2H218h-2v2v7.8v2h2h23.4h2v-2v-7.8V127.9L243.4,127.9z"
					/>
			</g>
			<g>
				<polygon fill="#F95B1C" points="264.5,161.5 264.5,116.7 247.9,116.7 247.9,105 294.8,105 294.8,116.7 278.2,116.7 278.2,161.5 
									"/>
				<path fill="#FCB01A" d="M293.8,106v9.7h-16.6v44.8h-11.7v-44.8h-16.6V106H293.8 M295.8,104h-2h-44.9h-2v2v9.7v2h2h14.6v42.8v2h2
					h11.7h2v-2v-42.8h14.6h2v-2V106V104L295.8,104z"/>
			</g>
			<g>
				<path fill="#F95B1C" d="M336.7,161.5l-3.8-11.6h-18.3l-3.8,11.6h-14.1l20-56.5h14l19.9,56.5H336.7z M329.4,139l-4.9-14.9
					c-0.3-0.8-0.6-1.7-0.8-2.7c-0.3,1.1-0.6,2.1-0.8,2.8l-4.8,14.8H329.4z"/>
				<path fill="#FCB01A" d="M330.1,106l19.2,54.5h-11.9l-3.8-11.6h-19.7l-3.8,11.6h-12l19.3-54.5H330.1 M316.8,140h14l-5.3-16.2
					c-0.6-1.7-1.2-4.1-1.7-6.2h-0.2c-0.3,2.1-1.1,4.5-1.7,6.3L316.8,140 M331.5,104h-1.4h-12.6H316l-0.5,1.3l-19.3,54.5l-0.9,2.7
					h2.8h12h1.5l0.5-1.4l3.3-10.3h16.8l3.3,10.3l0.5,1.4h1.5h11.9h2.8l-0.9-2.7L332,105.3L331.5,104L331.5,104z M319.5,138l4.2-13.1
					l4.3,13.1H319.5L319.5,138z"/>
			</g>
			<g>
				<path fill="#F95B1C" d="M384.5,162.1c-14.3,0-23.9-9.3-23.9-23.1v-34h13.7v34c0,6.8,3.9,11,10.1,11c6.2,0,10-4.2,10-10.9v-34
					h13.7v34C408.2,152.8,398.7,162.1,384.5,162.1z"/>
				<path fill="#FCB01A" d="M407.2,106v33c0,13.5-9.2,22.1-22.7,22.1c-13.7,0-22.9-8.6-22.9-22.1v-33h11.7v33c0,7.6,4.5,12,11.1,12
					c6.5,0,11-4.4,11-11.9v-33H407.2 M409.2,104h-2h-11.7h-2v2v33c0,6.2-3.4,9.9-9,9.9c-5.7,0-9.1-3.7-9.1-10v-33v-2h-2h-11.7h-2v2
					v33c0,14.4,10,24.1,24.9,24.1c14.8,0,24.7-9.7,24.7-24.1v-33V104L409.2,104z"/>
			</g>
			<g>
				<path fill="#F95B1C" d="M448.4,162.1c-15.3,0-25.6-11.6-25.6-28.8s10.7-28.8,26.7-28.8c16,0,23.2,10.6,23.2,20.5v0.9l-12.7,2
					v-1.2c0-5-3.2-10-10.3-10c-7.8,0-13,6.7-13,16.7c0,10.4,5.4,17.1,13.7,17.1c6.5,0,10.3-2.8,11-8h-14.2v-9.4h26.2v28.6h-9.7
					l-0.2-0.7c-0.2-0.5-0.4-1.9-0.6-3.9C459.4,160.3,454.5,162.1,448.4,162.1z"/>
				<path fill="#FCB01A" d="M449.5,105.4c16.4,0,22.2,11.1,22.2,19.5l-10.7,1.7c0-5-3.1-11-11.3-11c-7.8,0-14,6.5-14,17.7
					c0,10.8,5.6,18.1,14.7,18.1c7.8,0,11.8-4,12.1-10h-14.3v-7.4h24.2v26.6h-7.9c-0.2-0.6-0.6-2.7-0.8-6c-3.1,4.2-8.3,6.6-15.2,6.6
					c-14.7,0-24.6-10.9-24.6-27.8C423.8,116.2,434.5,105.4,449.5,105.4 M449.5,103.4c-7.9,0-14.9,2.9-19.9,8.2
					c-5.1,5.4-7.8,12.9-7.8,21.7c0,17.8,10.7,29.8,26.6,29.8c5.5,0,10.2-1.4,13.7-4.2c0.2,1.1,0.3,1.8,0.4,2.2l0.4,1.5h1.5h7.9h2v-2
					v-26.6v-2h-2h-24.2h-2v2v7.4v2h2h12c-0.8,3.1-3.2,6-9.8,6c-7.8,0-12.7-6.2-12.7-16.1c0-9.4,4.8-15.7,12-15.7
					c6.9,0,9.3,4.8,9.3,9v2.3l2.3-0.4l10.7-1.7l1.7-0.3v-1.7C473.7,114.6,466.1,103.4,449.5,103.4L449.5,103.4z"/>
			</g>
			<g>
				<polygon fill="#F95B1C" points="524.6,161.5 524.6,138.6 503,138.6 503,161.5 489.3,161.5 489.3,105 503,105 503,127 524.6,127 
					524.6,105 538.4,105 538.4,161.5 				"/>
				<path fill="#FCB01A" d="M537.4,106v54.5h-11.7v-22.9H502v22.9h-11.7V106H502v22h23.6v-22H537.4 M539.4,104h-2h-11.7h-2v2v20H504
					v-20v-2h-2h-11.7h-2v2v54.5v2h2H502h2v-2v-20.9h19.6v20.9v2h2h11.7h2v-2V106V104L539.4,104z"/>
			</g>
			<g>
				<polygon fill="#F95B1C" points="567.9,161.5 567.9,116.7 551.3,116.7 551.3,105 598.2,105 598.2,116.7 581.6,116.7 581.6,161.5 
									"/>
				<path fill="#FCB01A" d="M597.2,106v9.7h-16.6v44.8h-11.7v-44.8h-16.6V106H597.2 M599.2,104h-2h-44.9h-2v2v9.7v2h2h14.6v42.8v2h2
					h11.7h2v-2v-42.8h14.6h2v-2V106V104L599.2,104z"/>
			</g>
			<g>
				<path fill="#F95B1C" d="M7.3,260.6v-56.5h20c17.8,0,28.4,10.5,28.4,28.2c0,18-9.4,28.3-25.9,28.3H7.3z M28.4,249.3
					c9,0,13.4-5.6,13.4-17c0-11.2-5.4-16.8-15.9-16.8H21v33.8H28.4z"/>
				<path fill="#FCB01A" d="M27.3,205.1c17.8,0,27.4,10.7,27.4,27.2c0,17.9-9.2,27.3-24.9,27.3H8.3v-54.5H27.3 M20,250.3h8.4
					c8.8,0,14.4-5.1,14.4-18c0-12.1-6.1-17.8-16.9-17.8H20V250.3 M27.3,203.1h-19h-2v2v54.5v2h2h21.6c17.1,0,26.9-10.7,26.9-29.3
					c0-8.7-2.6-16.1-7.6-21.1C43.9,205.9,36.4,203.1,27.3,203.1L27.3,203.1z M22,216.4h3.9c10,0,14.9,5.2,14.9,15.8
					c0,10.8-4,16-12.4,16H22V216.4L22,216.4z"/>
			</g>
			<g>
				<polygon fill="#F95B1C" points="70.8,260.6 70.8,204.1 108.9,204.1 108.9,215.8 84.6,215.8 84.6,226.3 105.7,226.3 105.7,237.5 
					84.6,237.5 84.6,248.9 108.9,248.9 108.9,260.6 				"/>
				<path fill="#FCB01A" d="M107.9,205.1v9.7H83.6v12.6h21.1v9.2H83.6v13.5h24.4v9.7H71.8v-54.5H107.9 M109.9,203.1h-2H71.8h-2v2
					v54.5v2h2h36.1h2v-2v-9.7v-2h-2H85.6v-9.5h19.1h2v-2v-9.2v-2h-2H85.6v-8.6h22.4h2v-2v-9.7V203.1L109.9,203.1z"/>
			</g>
			<g>
				<path fill="#F95B1C" d="M138.4,260.6l-19.5-56.5h14.2l11.6,37.3c0.3,0.9,0.6,1.8,0.8,2.8c0.3-1.1,0.6-2,0.8-2.7l11.7-37.4h14
					l-19.6,56.5H138.4z"/>
				<path fill="#FCB01A" d="M170.7,205.1l-18.9,54.5h-12.6l-18.8-54.5h12.1l11.4,36.6c0.6,1.8,1.3,4.2,1.7,6.3h0.2
					c0.4-2.1,1.1-4.4,1.7-6.2l11.5-36.7H170.7 M173.5,203.1h-2.8h-11.9h-1.5l-0.4,1.4l-11.3,36.2l-11.3-36.2l-0.4-1.4h-1.5h-12.1
					h-2.8l0.9,2.7l18.8,54.5l0.5,1.3h1.4h12.6h1.4l0.5-1.3l18.9-54.5L173.5,203.1L173.5,203.1z"/>
			</g>
			<g>
				<polygon fill="#F95B1C" points="184.1,260.6 184.1,204.1 222.2,204.1 222.2,215.8 197.8,215.8 197.8,226.3 218.9,226.3 
					218.9,237.5 197.8,237.5 197.8,248.9 222.2,248.9 222.2,260.6 				"/>
				<path fill="#FCB01A" d="M221.2,205.1v9.7h-24.4v12.6h21.1v9.2h-21.1v13.5h24.4v9.7h-36.1v-54.5H221.2 M223.2,203.1h-2h-36.1h-2
					v2v54.5v2h2h36.1h2v-2v-9.7v-2h-2h-22.4v-9.5h19.1h2v-2v-9.2v-2h-2h-19.1v-8.6h22.4h2v-2v-9.7V203.1L223.2,203.1z"/>
			</g>
			<g>
				<polygon fill="#F95B1C" points="237.9,260.6 237.9,204.1 251.6,204.1 251.6,248.9 276.2,248.9 276.2,260.6 				"/>
				<path fill="#FCB01A" d="M250.6,205.1v44.8h24.6v9.7h-36.3v-54.5H250.6 M252.6,203.1h-2h-11.7h-2v2v54.5v2h2h36.3h2v-2v-9.7v-2
					h-2h-22.6v-42.8V203.1L252.6,203.1z"/>
			</g>
			<g>
				<path fill="#F95B1C" d="M311.7,261.2c-16.5,0-27.6-11.6-27.6-28.9c0-17.2,11.1-28.7,27.6-28.7c16.5,0,27.5,11.6,27.5,28.7
					C339.3,249.6,328.2,261.2,311.7,261.2z M311.7,215.7c-8.3,0-13.7,6.5-13.7,16.6c0,10.1,5.4,16.7,13.7,16.7
					c8.3,0,13.6-6.5,13.6-16.7C325.4,222.2,320,215.7,311.7,215.7z"/>
				<path fill="#FCB01A" d="M311.8,204.5c15.6,0,26.5,10.7,26.5,27.7c0,17.2-10.9,27.9-26.5,27.9c-15.6,0-26.6-10.7-26.6-27.9
					C285.2,215.3,296.1,204.5,311.8,204.5 M311.8,249.9c8.5,0,14.6-6.5,14.6-17.7c0-11.1-6.1-17.6-14.6-17.6
					c-8.5,0-14.7,6.5-14.7,17.6C297,243.4,303.2,249.9,311.8,249.9 M311.8,202.5c-17.1,0-28.6,12-28.6,29.7
					c0,17.9,11.5,29.9,28.6,29.9c17.1,0,28.5-12,28.5-29.9C340.3,214.5,328.8,202.5,311.8,202.5L311.8,202.5z M311.8,247.9
					c-7.7,0-12.7-6.2-12.7-15.7c0-9.5,5-15.6,12.7-15.6c7.7,0,12.6,6.1,12.6,15.6C324.4,241.9,319.5,247.9,311.8,247.9L311.8,247.9z
					"/>
			</g>
			<g>
				<path fill="#F95B1C" d="M354.4,260.6v-56.5h20.6c15.4,0,23.9,7.2,23.9,20.3c0,12.5-8.5,20.3-22.3,20.3h-8.4v15.9H354.4z
					 M374.3,233.5c4.9,0,10.6-1.6,10.6-9.1c0-5.9-4-9.1-11.1-9.1h-5.7v18.2H374.3z"/>
				<path fill="#FCB01A" d="M374.9,205.1c14.3,0,22.9,6.4,22.9,19.3c0,12.9-9,19.3-21.3,19.3h-9.4v15.9h-11.7v-54.5H374.9
					 M367.1,234.5h7.2c7.4,0,11.6-3.6,11.6-10.1c0-6.2-4-10.1-12.1-10.1h-6.7V234.5 M374.9,203.1h-19.6h-2v2v54.5v2h2h11.7h2v-2
					v-13.9h7.4c14.4,0,23.3-8.2,23.3-21.3C399.8,210.9,390.7,203.1,374.9,203.1L374.9,203.1z M369.1,216.3h4.7
					c4.6,0,10.1,1.4,10.1,8.1c0,5.4-3.2,8.1-9.6,8.1h-5.2V216.3L369.1,216.3z"/>
			</g>
			<g>
				<polygon fill="#F95B1C" points="412.7,260.6 412.7,204.1 450.8,204.1 450.8,215.8 426.5,215.8 426.5,226.3 447.6,226.3 
					447.6,237.5 426.5,237.5 426.5,248.9 450.8,248.9 450.8,260.6 				"/>
				<path fill="#FCB01A" d="M449.8,205.1v9.7h-24.4v12.6h21.1v9.2h-21.1v13.5h24.4v9.7h-36.1v-54.5H449.8 M451.8,203.1h-2h-36.1h-2
					v2v54.5v2h2h36.1h2v-2v-9.7v-2h-2h-22.4v-9.5h19.1h2v-2v-9.2v-2h-2h-19.1v-8.6h22.4h2v-2v-9.7V203.1L451.8,203.1z"/>
			</g>
			<g>
				<path fill="#F95B1C" d="M506.1,261.2c-9.5,0-12.6-6-15.2-11.2c-2.2-4.3-4.1-8-9.1-8h-1.5v18.7h-13.7v-56.5h19.5
					c15.1,0,22.8,6.5,22.8,19.4c0,7.1-3.4,12.5-9.8,15.5c1.8,1.4,3,3.4,4.2,5.3c1.8,2.9,3.3,5.4,6.5,5.4c0.8,0,1.4-0.1,1.4-0.1
					l1.1-0.2l0.9,11l-0.8,0.2C512.3,260.6,510.1,261.2,506.1,261.2z M484.5,231.7c6.8,0,10.8-3,10.8-8.1c0-6.8-5.4-8.2-9.9-8.2h-5.1
					v16.3H484.5z"/>
				<path fill="#FCB01A" d="M486.1,205.1c14.2,0,21.8,5.6,21.8,18.4c0,7.6-4,12.7-11,15.4c5.9,2.7,6,11.9,12.9,11.9
					c0.9,0,1.7-0.2,1.7-0.2l0.7,9c0,0-2.1,0.6-6,0.6c-16.6,0-12.1-19.2-24.4-19.2h-2.5v18.7h-11.7v-54.5H486.1 M479.3,232.7h5.2
					c7,0,11.8-3.2,11.8-9.1c0-6.1-4-9.2-10.9-9.2h-6.1V232.7 M486.1,203.1h-18.5h-2v2v54.5v2h2h11.7h2v-2v-16.7h0.5
					c4.3,0,5.8,2.7,8.2,7.4c2.7,5.3,6,11.8,16.1,11.8c4.1,0,6.5-0.6,6.5-0.6l1.6-0.4l-0.1-1.7l-0.7-9l-0.2-2.3l-2.2,0.5l0,0
					c0,0-0.6,0.1-1.2,0.1c-2.6,0-3.8-1.8-5.7-4.9c-0.9-1.5-1.9-3.2-3.3-4.6c6-3.3,9.1-8.7,9.1-15.8
					C509.9,210,501.9,203.1,486.1,203.1L486.1,203.1z M481.3,216.3h4.1c6,0,8.9,2.4,8.9,7.2c0,6.4-6.9,7.1-9.8,7.1h-3.2V216.3
					L481.3,216.3z"/>
			</g>
		</g>
	</g>
</g>
<g id="Layer_1">
</g>
<g id="notes">
</g>
</svg>
