<?xml version="1.0" encoding="utf-8"?>
<!-- Generator: Adobe Illustrator 26.1.0, SVG Export Plug-In . SVG Version: 6.00 Build 0)  -->
<svg version="1.1" id="Layer_1" xmlns="http://www.w3.org/2000/svg" xmlns:xlink="http://www.w3.org/1999/xlink" x="0px" y="0px"
	 viewBox="0 0 1000 1000" enable-background="new 0 0 1000 1000" xml:space="preserve">
<g>
	<path fill="#B2D235" d="M575.3,117.8c-9.8,8.8-19,18.7-26.9,29.8c-21.2-27.4-42.2-44.6-44-46.1l-4.7-3.8l-4.7,3.8
		c-1.8,1.4-22.9,18.7-44.1,46.2c-8-11.1-17.2-20.9-26.9-29.6c12.9-57.3,60.5-103.7,75.7-117.3C514.8,14.4,562.3,60.6,575.3,117.8z"
		/>
	<path fill="#B2D235" d="M284.5,215.4c-36.3-5.2-65.5-2.3-67.8-2l-6,0.6l-0.6,6c-0.2,2.3-3,30.2,1.7,65.3c-12-1.7-24.1-1.9-35.8-1.3
		c-31.4-49.7-30.6-116.1-29.5-136.5c20.3-1.1,86.6-2,136.2,29.3C282.1,189.4,282.5,202.4,284.5,215.4z"/>
	<path fill="#B2D235" d="M146.8,550.3c-10.8,7.8-20.4,16.8-28.9,26.3C60.6,563.7,14.2,516.1,0.6,500.9
		c13.6-15.2,59.8-62.6,117.1-75.6c8.7,9.7,18.5,18.9,29.5,26.8c-13.9,10.7-25.3,21.4-33.3,29.6c-8,8.2-12.8,14-13.5,14.9l-3.8,4.7
		l3.8,4.7C101.8,507.8,119.2,529,146.8,550.3z"/>
	<path fill="#B2D235" d="M283.8,824.6C234.1,856,167.7,855.2,147.3,854c-1.1-20.3-2-86.6,29.3-136.3c3.7,0.2,7.5,0.3,11.3,0.3
		c8,0,16.1-0.5,24.1-1.6c-5.1,36-2.2,64.8-1.9,67.1l0.6,6l6,0.6c1.3,0.1,10.2,1,24,1c12,0,27.5-0.7,44.6-3.2
		C283.5,800.4,283.1,812.6,283.8,824.6z"/>
	<path fill="#B2D235" d="M576.4,882.6c-12.9,57.3-60.5,103.8-75.7,117.4c-15.2-13.6-62.6-59.9-75.6-117.1
		c10.1-9,19.5-19.2,27.6-30.7c21.4,28,42.9,45.6,44.7,47l4.7,3.8l4.7-3.8c1.7-1.4,22.4-18.3,43.4-45.3
		C558,864.6,566.9,874.1,576.4,882.6z"/>
	<path fill="#B2D235" d="M853.8,853.3c-20.3,1.1-86.6,2-136.3-29.3c0.7-11.8,0.3-23.9-1.4-35.9c17.2,2.5,32.9,3.2,45,3.2
		c13.7,0,22.7-0.9,24-1l6-0.6l0.6-6c0.2-2.3,3-30.3-1.7-65.5c0-0.3,0.1-0.7,0.1-1c0-0.5-0.1-0.9-0.1-1.4c7.7,1,15.4,1.4,22.9,1.4
		c3.8,0,7.7-0.1,11.4-0.3C855.7,766.5,854.9,832.9,853.8,853.3z"/>
	<path fill="#B2D235" d="M999.8,499.9c-13.6,15.2-59.8,62.6-117.1,75.6c-8.2-9.1-17.3-17.7-27.5-25.3c26.8-20.9,43.6-41.4,45-43.2
		l3.8-4.7l-3.8-4.7c-1.5-1.8-19.6-24-48.5-45.8c11.5-8.1,21.7-17.6,30.7-27.7c28.7,6.5,54.6,21.6,75.1,37
		C978,476.6,993,492.3,999.8,499.9z"/>
	<path fill="#B2D235" d="M823.8,283c-11-0.6-22.3-0.4-33.6,1c4.5-34.6,1.8-61.9,1.5-64.1l-0.6-6l-6-0.6c-2.4-0.3-32.8-3.3-70.4,2.4
		c2.2-13.3,2.6-26.6,1.8-39.5c49.7-31.4,116.2-30.6,136.5-29.5C854.2,167.1,855.1,233.3,823.8,283z"/>
	<path fill="#B2D235" d="M441.6,160.6c-5.3,7.7-10.4,16-15,24.8c-1.7,3.1-3.2,6.3-4.7,9.6c-1.5,3.2-2.9,6.5-4.2,9.9
		c-4.9,12.2-8.6,25.1-10.4,38.6c-5.6-2-9.2-3.1-10-3.3l-5.8-1.7l-2.9,5.3c-0.4,0.7-2.5,4.6-5.4,11c-10.7-8.7-22.4-15.6-34.4-21.1v0
		c-3.4-1.5-6.7-3-10.1-4.3h0c-3.4-1.4-6.9-2.6-10.3-3.7c-9.4-3.1-18.9-5.6-28-7.4c-1.9-10.2-2.7-20.4-2.7-30.6
		c0-3.1,0.1-6.2,0.3-9.3c0.2-3,0.4-5.9,0.7-8.8c4.1-41.2,19.8-77.5,26.3-91c11.2,3.9,36.7,13.9,62.7,31c6.7,4.4,13.5,9.3,20.1,14.7
		c2.2,1.8,4.5,3.8,6.7,5.7c2.3,2.1,4.6,4.2,6.9,6.4C428.6,143.5,435.6,151.7,441.6,160.6z"/>
	<path fill="#B2D235" d="M239.3,398c0.2,0.8,1.4,4.7,3.6,10.8v0c-13.4,1.8-26.2,5.4-38.3,10.1c-3.4,1.3-6.7,2.7-10,4.2
		c-3.3,1.5-6.5,3.1-9.7,4.7c-8.9,4.6-17.2,9.7-24.9,15c-8.9-6-17-12.9-24.4-20.4c-2.2-2.2-4.3-4.5-6.4-6.8c-2-2.2-3.9-4.4-5.7-6.7
		l0,0c-26.3-32-40.8-68.9-45.7-82.9c13.4-6.5,49.7-22.2,90.8-26.3c2.9-0.3,5.8-0.5,8.8-0.7c3.1-0.2,6.2-0.3,9.3-0.3
		c0.4,0,0.8,0,1.3,0c8.7,0,17.6,0.6,26.3,2.1c1.7,8.6,3.8,17.4,6.5,26.3c1.1,3.5,2.3,7,3.5,10.5c1.3,3.4,2.6,6.9,4.1,10.3
		c5.7,13.1,12.9,25.9,22.2,37.6c-4.4,2.1-7.1,3.5-7.7,3.9l-5.3,2.9L239.3,398z"/>
	<path fill="#B2D235" d="M251.6,617c-9.2,11.4-16.5,23.8-22.3,36.7c-1.5,3.4-3,6.9-4.3,10.3c-1.3,3.5-2.6,7-3.7,10.6
		c-2.8,8.9-5,17.8-6.8,26.4c-9.1,1.5-18.3,2.2-27.3,2.1c-3.1,0-6.2-0.1-9.3-0.3c-3-0.2-5.9-0.4-8.8-0.7c-41.2-4.1-77.6-19.9-91-26.3
		c4.9-14.1,19.5-50.8,45.7-82.8c1.8-2.3,3.8-4.5,5.7-6.7c2.1-2.3,4.2-4.6,6.4-6.8c7.2-7.3,15-14,23.7-19.9
		c7.6,5.2,15.7,10.2,24.4,14.8c3.2,1.7,6.4,3.3,9.7,4.8c3.2,1.5,6.5,2.9,9.9,4.2c12.4,4.9,25.4,8.6,39.1,10.5
		c-2.1,5.7-3.1,9.3-3.4,10.1l-1.7,5.8l5.3,2.9C243.5,613,246.6,614.6,251.6,617z"/>
	<path fill="#B2D235" d="M443.4,839.3c-6.1,9.4-13.3,17.9-21.2,25.6c-2.2,2.2-4.5,4.3-6.8,6.4c-2.2,2-4.5,3.9-6.7,5.8
		c-32,26.3-68.9,40.8-83,45.8c-6.5-13.4-22.2-49.7-26.3-90.9c-0.3-2.9-0.5-5.8-0.7-8.8c-0.2-3.1-0.3-6.2-0.3-9.4
		c-0.1-9.4,0.6-19,2.3-28.5c8.8-1.8,17.9-4.1,26.9-7.1c3.5-1.1,7-2.4,10.5-3.8c3.4-1.4,6.9-2.8,10.3-4.4
		c12.3-5.6,24.3-12.8,35.2-21.7c2.6,5.6,4.5,9.1,4.9,9.8l2.9,5.3l5.8-1.7c0.9-0.3,5.4-1.6,12.5-4.3c1.8,12.8,5.2,25.1,9.7,36.7
		c1.3,3.3,2.7,6.6,4.1,9.8c1.5,3.3,3,6.5,4.6,9.7C432.8,822.8,438,831.4,443.4,839.3z"/>
	<path fill="#B2D235" d="M702.8,813.3c0,3.1-0.1,6.2-0.3,9.4c-0.2,2.9-0.4,5.9-0.7,8.8c-4.1,41.2-19.8,77.5-26.3,91
		c-14.1-4.9-50.8-19.5-82.8-45.7c-2.3-1.9-4.5-3.8-6.7-5.8c-2.3-2.1-4.6-4.2-6.8-6.4c-7.2-7.1-13.9-14.9-19.7-23.4
		c5.1-7.5,10.2-15.5,14.7-24c1.7-3.1,3.3-6.3,4.9-9.6c1.5-3.2,3-6.5,4.3-9.8c5-12.2,8.9-25.3,10.9-38.9c5,1.8,8.1,2.7,8.8,2.9
		l5.8,1.7l2.9-5.3c0.4-0.7,2.4-4.5,5.3-10.7c11,9.2,23.2,16.5,35.8,22.3c3.4,1.6,6.9,3,10.3,4.4c3.5,1.4,7,2.6,10.6,3.8
		c9,3,18.1,5.3,26.9,7.2C702.2,794.6,702.9,804,702.8,813.3z"/>
	<path fill="#B2D235" d="M922.6,674.8c-13.4,6.4-49.7,22.2-90.8,26.3c-2.9,0.3-5.9,0.5-8.8,0.7c-3.1,0.2-6.2,0.3-9.3,0.3
		c-8.8,0.1-17.8-0.6-26.6-2c-1.7-8.5-3.9-17.3-6.8-26c-1.1-3.5-2.4-7.1-3.7-10.6c-1.3-3.5-2.7-6.9-4.3-10.4
		c-5.8-12.8-13.1-25.3-22.4-36.6c4.4-2.1,7.1-3.5,7.7-3.9l5.3-2.9l-1.7-5.8c-0.2-0.7-1.2-4-3-9c14.6-2,28.5-6.1,41.5-11.5
		c3.3-1.4,6.6-2.9,9.8-4.4c3.3-1.6,6.5-3.2,9.7-4.9c8.3-4.5,16.1-9.4,23.4-14.5c8,5.6,15.4,12,22.2,18.8c2.2,2.2,4.3,4.5,6.4,6.8
		c2,2.2,3.9,4.4,5.8,6.7C903.1,623.9,917.7,660.7,922.6,674.8z"/>
	<path fill="#B2D235" d="M922.2,325c-3.9,11.2-13.9,36.7-31,62.8c-4.4,6.7-9.3,13.5-14.7,20.1c0,0,0,0,0,0c-1.8,2.2-3.7,4.5-5.7,6.7
		l0,0c-2.1,2.3-4.2,4.6-6.4,6.8l0,0c-7.7,7.8-16.3,15.1-25.7,21.2c-8-5.4-16.6-10.5-25.8-15.1c-3.2-1.6-6.5-3.1-9.8-4.6
		c-3.3-1.4-6.6-2.8-9.9-4.1c-11.5-4.3-23.6-7.5-36.2-9.2c0,0,0,0,0,0c2.5-6.6,3.8-10.9,4-11.8l1.7-5.8l-5.3-2.9
		c-0.2-0.1-0.5-0.3-1-0.6l17.9-43.1h0c0.1-0.2,0.2-0.4,0.3-0.7l0.1-0.2c0.1-0.2,0.2-0.4,0.3-0.6c0,0,0-0.1,0-0.1l1-2.5
		c0.1-0.2,0.1-0.4,0.2-0.5c0.1-0.1,0.1-0.2,0.1-0.3v0c0,0,0,0,0-0.1c0.7-1.8,1.4-3.6,2-5.3v-0.1c1.3-3.5,2.4-7,3.4-10.6
		c2.5-8.5,4.5-16.9,6-25.1c8.4-1.3,16.9-1.8,25.3-1.8c3.1,0,6.2,0.1,9.3,0.3c3,0.2,5.9,0.4,8.8,0.7
		C872.4,302.8,908.8,318.6,922.2,325z"/>
	<path fill="#B2D235" d="M701.8,188.2c0,10.1-0.9,20.3-2.8,30.4c-9.4,2-19,4.6-28.6,8c-3.4,1.2-6.9,2.5-10.3,3.9h-0.1
		c-3.4,1.4-6.8,2.9-10.1,4.5c-11.3,5.5-22.3,12.2-32.3,20.5c-3.1-6.9-5.4-11.1-5.8-11.8l-2.9-5.3l-5.8,1.7c-0.8,0.2-4.8,1.4-11,3.7
		c-1.8-13.6-5.6-26.7-10.5-39c-1.3-3.4-2.7-6.6-4.2-9.9c-1.5-3.3-3.1-6.5-4.7-9.6c-4.6-8.9-9.8-17.2-15.1-24.9
		c6-9,13-17.2,20.5-24.6c2.2-2.2,4.5-4.3,6.8-6.4c2.2-2,4.4-3.9,6.7-5.7c32-26.3,68.9-40.8,82.9-45.8c6.5,13.4,22.2,49.7,26.3,90.9
		c0.3,2.9,0.5,5.8,0.7,8.8v0c0.2,3.1,0.3,6.2,0.3,9.4C701.8,187.4,701.8,187.8,701.8,188.2z"/>
	<path fill="#B2D235" d="M376.9,269c-3.6,8.9-7.4,19.9-10.9,32.1c-0.8,2.9-1.6,6-2.3,9c-0.5,2.2-1.1,4.5-1.5,6.8
		c-0.1,0.4-0.2,0.8-0.3,1.1c-0.5,2.6-1.1,5.3-1.5,8c-1.8,10.1-3.1,20.7-3.6,31.5c-10.9,0.5-21.5,1.8-31.6,3.6c-2.7,0.5-5.3,1-8,1.6
		c-0.3,0.1-0.7,0.1-1,0.2c-2.3,0.5-4.6,1-6.9,1.6c-3.2,0.8-6.4,1.6-9.4,2.5h0c-13.7,3.8-25.6,8.2-35,12.1
		c-6.1-7.2-11.3-15-15.8-23.2c-1.7-3.1-3.3-6.3-4.8-9.6v0c-1.5-3.2-2.8-6.4-4.1-9.6v0c-4.2-10.7-7.3-21.5-9.6-32.2
		c-0.6-2.7-1.1-5.5-1.7-8.2c-0.5-2.7-0.9-5.4-1.3-8.1c-4.1-26.8-3.6-49.9-3-60.5c11-0.6,35.4-1.1,63.4,3.4c2.7,0.4,5.4,0.9,8.1,1.5
		c2.8,0.5,5.6,1.1,8.4,1.8c10.9,2.5,22.1,6,32.9,10.5c3.2,1.3,6.4,2.8,9.6,4.3c3.2,1.6,6.4,3.3,9.5,5.1v0
		C363.6,258.6,370.5,263.4,376.9,269z"/>
	<path fill="#B2D235" d="M884.6,502.4c-6.9,7.6-22,23.5-42.7,39c-2.1,1.6-4.3,3.2-6.6,4.7c-2.2,1.6-4.6,3.2-6.9,4.7
		c-9,5.9-18.9,11.5-29.3,16.3c-3.1,1.4-6.3,2.8-9.5,4c-3.3,1.3-6.6,2.4-9.9,3.5c-8.8,2.8-17.9,4.9-27.3,5.9
		c-4.1-9.7-9.6-21.7-16.9-34.4c-1.4-2.6-3-5.1-4.6-7.7c-1.1-1.8-2.3-3.7-3.5-5.5c-0.3-0.4-0.6-0.9-0.8-1.3c-1.5-2.2-3-4.5-4.6-6.8
		c-5.7-8.1-12-16.2-19.1-23.9c7.6-8.3,14.4-17,20.3-25.7c1.4-2.1,2.8-4.2,4.2-6.2c0.1-0.2,0.2-0.3,0.3-0.5c1.5-2.3,2.9-4.6,4.3-6.9
		c2-3.3,3.9-6.6,5.6-9.8v0c5.6-10.1,10.1-19.6,13.6-27.8c7.6,0.8,15,2.3,22.3,4.2c3.4,0.9,6.8,2,10.1,3.1c3.3,1.1,6.5,2.4,9.7,3.7
		c10.8,4.5,21.1,10,30.6,15.9c2.5,1.5,4.9,3.1,7.2,4.7c2.3,1.6,4.6,3.2,6.9,4.8C860.6,476.9,877.3,494.3,884.6,502.4z"/>
	<path fill="#B2D235" d="M777.7,242.9c0,1.8,0,3.7-0.1,5.7c-0.1,5.2-0.3,11-0.8,17.2c0,0,0,0,0,0.1c-0.5,6.6-1.2,13.6-2.3,20.9
		c-0.4,2.6-0.8,5.3-1.3,8c-0.5,2.7-1,5.4-1.6,8.1v0c-2.2,10.5-5.2,21.2-9.2,31.7c-1.2,3.3-2.6,6.5-4,9.7c0,0,0,0,0,0
		c-1.4,3.3-3,6.5-4.7,9.7c-4.7,9-10.4,17.6-17.1,25.5c-10-4.2-23.1-9-38.2-13.2c0,0,0,0,0,0c-2.7-0.7-5.4-1.4-8.2-2.1
		c-1.9-0.5-3.9-0.9-6-1.4c-0.7-0.2-1.3-0.3-2-0.4c-2.6-0.6-5.3-1.1-8-1.5c-9.8-1.8-20.1-3-30.7-3.4c-0.5-11.2-1.8-22.1-3.8-32.4
		c-0.5-2.7-1-5.3-1.6-8c0-0.1,0-0.1-0.1-0.2c-0.6-2.6-1.2-5.2-1.8-7.7c-0.9-3.5-1.8-6.9-2.7-10.1c-3.1-11-6.7-20.9-10-29.1
		c5.9-5.2,12.2-9.8,18.7-13.8c3.1-1.9,6.2-3.7,9.4-5.3c0,0,0.1,0,0.1,0c3.1-1.7,6.3-3.2,9.6-4.6c10.9-4.8,22.1-8.4,33.1-11.1
		c2.8-0.7,5.6-1.3,8.4-1.9c2.7-0.6,5.5-1.1,8.2-1.5c29.1-5.1,54.7-4.6,66-3.9C777.5,231.4,777.7,236.6,777.7,242.9z"/>
	<path fill="#B2D235" d="M577.9,249.5c-9.3,3.9-20.4,9.2-32.2,15.9c-2.4,1.4-4.9,2.8-7.4,4.3c-1.8,1-3.5,2.2-5.3,3.3
		c-0.5,0.3-1,0.6-1.5,1c-2.2,1.5-4.5,3-6.8,4.5c-8.3,5.8-16.6,12.2-24.5,19.5c-8.1-7.5-16.7-14.1-25.3-20.1
		c-2.3-1.5-4.5-3.1-6.8-4.5c-0.2-0.2-0.5-0.3-0.7-0.5c-2.1-1.3-4.1-2.6-6.1-3.8c-2.9-1.7-5.7-3.3-8.4-4.9
		c-11.5-6.5-22.3-11.5-31.3-15.3c1-8.5,2.7-16.7,5.2-24.7c1-3.3,2.1-6.6,3.3-9.9c1.2-3.2,2.5-6.4,3.9-9.5
		c4.7-10.6,10.2-20.6,16.2-29.8c1.5-2.4,3.1-4.7,4.7-7.1c1.6-2.3,3.2-4.5,4.8-6.7c15.8-21.4,32.3-37.1,40.1-44.1
		c7.8,7,24.2,22.7,40,44c1.6,2.2,3.3,4.4,4.8,6.7c1.6,2.3,3.2,4.7,4.7,7.1c6,9.3,11.6,19.3,16.3,29.9c1.4,3.1,2.6,6.3,3.8,9.5
		c1.2,3.2,2.3,6.5,3.3,9.9C575.1,232.4,576.9,240.9,577.9,249.5z"/>
	<path fill="#B2D235" d="M777.3,775.9c-11.1,0.6-35.9,1.1-64.2-3.6c-2.6-0.5-5.3-1-8.1-1.5c-2.7-0.6-5.5-1.1-8.3-1.8
		c-10.9-2.6-21.9-6-32.7-10.5c-3.3-1.4-6.5-2.8-9.7-4.4c-3.3-1.6-6.5-3.3-9.6-5.2c-7.6-4.5-14.8-9.6-21.5-15.6
		c3.7-9.1,7.7-20.3,11.1-32.9c0.9-3.1,1.7-6.3,2.5-9.5c0.6-2.4,1.1-4.8,1.6-7.2c0.1-0.2,0.1-0.5,0.2-0.7c0.5-2.6,1.1-5.3,1.5-8
		c1.7-9.8,3-20.1,3.4-30.6c11.1-0.5,22-1.8,32.3-3.7c2.3-0.4,4.6-0.9,6.9-1.4c0.3-0.1,0.7-0.1,1.1-0.2c2.7-0.6,5.3-1.2,7.9-1.8
		c3.9-1,7.7-2,11.3-3c12.6-3.7,23.6-7.7,32.4-11.4c6,6.9,11.2,14.3,15.7,22.1c1.8,3.2,3.5,6.4,5.1,9.7c1.5,3.2,3,6.5,4.3,9.7
		c4.3,10.6,7.6,21.5,10.1,32.2c0.6,2.7,1.2,5.5,1.8,8.2c0.3,1.7,0.6,3.3,0.9,4.9c0.2,1.1,0.3,2.1,0.5,3.2c0.2,1.4,0.5,2.9,0.7,4.3
		c0.4,2.5,0.7,5,1,7.5C778.3,747.3,777.8,766.5,777.3,775.9z"/>
	<path fill="#B2D235" d="M377.4,734.1c-6.5,5.7-13.6,10.7-21,15c-3.1,1.8-6.3,3.6-9.6,5.2c-3.2,1.6-6.4,3-9.7,4.3
		c-10.8,4.5-21.8,7.9-32.6,10.4c-2.8,0.7-5.5,1.3-8.3,1.8c-2.7,0.5-5.4,1-8.1,1.5c-28.2,4.6-52.8,4.1-63.9,3.5
		c-0.6-10.9-1.1-34.8,3.3-62.3c0.4-2.7,0.9-5.4,1.4-8.1c0.5-2.7,1.1-5.4,1.7-8.2c2.4-10.7,5.7-21.7,10-32.4c1.3-3.3,2.8-6.5,4.3-9.7
		c1.6-3.3,3.2-6.5,5-9.6c4.5-7.9,9.6-15.4,15.6-22.3c9.1,3.7,20.5,7.9,33.4,11.5c3.3,0.9,6.8,1.8,10.3,2.7c2.6,0.6,5.2,1.2,7.9,1.8
		c0,0,0.1,0,0.1,0c2.6,0.6,5.2,1.1,7.8,1.6c10,1.8,20.6,3.1,31.4,3.5c0.5,10.8,1.8,21.4,3.6,31.5c0.5,2.6,1,5.2,1.5,7.7
		c0,0.1,0,0.2,0.1,0.2c0.6,2.7,1.2,5.3,1.8,7.9c0.9,3.6,1.8,7.2,2.8,10.6C370,714.6,373.9,725.4,377.4,734.1z"/>
	<path fill="#B2D235" d="M580.1,753.4c-1.1,8.5-3,16.8-5.5,24.8c-1,3.3-2.2,6.6-3.4,9.8c-1.2,3.2-2.6,6.4-4,9.4
		c-4.7,10.5-10.3,20.3-16.2,29.4c-1.5,2.4-3.1,4.7-4.7,7c-1.6,2.2-3.2,4.5-4.8,6.6c-15.6,20.9-31.6,36.2-39.3,43.1
		c-7.9-7.1-24.7-23.2-40.8-45.1c-1.6-2.2-3.2-4.5-4.8-6.8c-1.6-2.3-3.2-4.7-4.7-7.2c-6-9.4-11.6-19.5-16.1-30.3
		c-1.4-3.1-2.6-6.4-3.8-9.6c-1.2-3.3-2.2-6.6-3.2-9.9c-2.1-7.5-3.7-15.1-4.6-23c8.6-3.7,18.6-8.4,29.2-14.4c3-1.7,6-3.5,9.1-5.3
		c2.3-1.4,4.5-2.8,6.8-4.3c0,0,0,0,0,0c2.2-1.5,4.5-3,6.8-4.6c8.2-5.7,16.5-12.2,24.3-19.4c8.1,7.4,16.6,14.1,25.1,19.9
		c2,1.4,4,2.7,6,4c0.3,0.2,0.5,0.3,0.8,0.5c2.3,1.5,4.6,2.9,6.9,4.3c3.4,2.1,6.8,4,10.1,5.8C560.5,744.8,571.3,749.7,580.1,753.4z"
		/>
	<path fill="#B2D235" d="M297.3,501c-7.3,8-13.8,16.3-19.7,24.7c-1.5,2.3-3,4.5-4.5,6.8c-0.1,0.2-0.2,0.3-0.3,0.5
		c-1.4,2.1-2.7,4.3-4,6.4c-1.8,3-3.5,5.9-5.1,8.8c-6.5,11.6-11.6,22.4-15.4,31.4c-8.5-0.9-16.9-2.7-25-5.2c-3.3-1-6.6-2.1-9.9-3.3
		c-3.3-1.2-6.4-2.5-9.6-3.9c-10.6-4.6-20.5-10.2-29.7-16.1c-2.4-1.5-4.8-3.1-7.1-4.7c-2.3-1.6-4.5-3.2-6.7-4.8
		c-21.5-15.9-37.3-32.4-44.3-40.2c7.1-7.9,23-24.5,44.7-40.5c2.2-1.6,4.4-3.2,6.7-4.8c2.3-1.6,4.7-3.2,7.1-4.7
		c9.3-6,19.4-11.5,30.1-16.1c3.1-1.4,6.4-2.6,9.6-3.8c3.3-1.2,6.6-2.3,10-3.3c7.9-2.3,16.1-4,24.4-4.9c3.7,8.9,8.7,19.4,15,30.6
		c0,0,0,0,0,0c1.6,2.9,3.3,5.8,5.1,8.7c1.3,2.2,2.7,4.4,4.1,6.6c0.1,0.1,0.1,0.2,0.2,0.3c1.5,2.2,3,4.5,4.5,6.8
		C283.4,484.5,289.9,493,297.3,501z"/>
	<path fill="#B2D235" d="M489.5,308.7c-11.8,12.6-22.2,27.2-29.5,44c-0.4,0.8-0.7,1.7-1.1,2.5c-0.6,1.4-1.1,2.8-1.6,4.2
		c-0.5,0.1-1,0.3-1.5,0.5c-2.5,0.8-4.9,1.6-7.3,2.5c-2.3,0.9-4.6,1.8-6.9,2.8c-0.1,0-0.1,0-0.1,0.1c-2.3,1-4.6,2.1-6.9,3.2
		c-1.4,0.7-2.7,1.4-4.1,2.1c-1.1-0.5-2.2-1-3.3-1.4c-0.3-0.1-0.6-0.3-0.9-0.4c-0.8-0.3-1.6-0.7-2.5-1c-17.1-6.7-34.7-9.7-52-10.3
		c0.4-7.7,1.2-15.2,2.3-22.5c0.4-2.7,0.9-5.3,1.4-7.9c0.5-2.6,1-5.2,1.6-7.8c3.3-14.6,7.5-27.8,11.5-38.7c1-2.7,2-5.3,3-7.8
		c1.1-2.7,2.1-5.2,3.1-7.5c1.6-3.6,3-6.6,4.1-9c1.9,0.7,4.2,1.5,6.9,2.6c2.2,0.9,4.7,1.8,7.4,3c2.3,1,4.9,2,7.5,3.2
		c10.9,4.9,24.1,11.5,37.6,20.1c1.1,0.7,2.2,1.4,3.3,2.1c1.1,0.7,2.2,1.5,3.3,2.2c2.2,1.5,4.4,3,6.5,4.6
		C477.6,298.6,483.7,303.4,489.5,308.7z"/>
	<path fill="#B2D235" d="M628.5,357.5c-17.3,0.6-35,3.6-52,10.3c-0.6,0.2-1.1,0.5-1.7,0.7c-0.2,0.1-0.5,0.2-0.7,0.3
		c-1.4,0.6-2.8,1.2-4.2,1.8c-0.9-0.5-1.8-1-2.8-1.5c-2.3-1.2-4.6-2.3-7-3.3c-0.7-0.3-1.3-0.6-2-0.9c-2.3-1-4.7-1.9-7.1-2.8
		c-2.4-0.9-4.9-1.7-7.4-2.5c-0.2-0.1-0.4-0.1-0.6-0.2c-3-0.9-6-1.7-9-2.4c-3-0.7-6-1.3-9-1.8c-8.1-1.4-16.4-2.1-24.9-2.1
		c-8.5,0-16.8,0.7-24.9,2.1c1-2.1,2.1-4.2,3.2-6.2c6-10.9,13.4-20.8,21.7-29.6c1.7-1.8,3.5-3.6,5.2-5.4c1.8-1.8,3.6-3.5,5.5-5.1
		c5.6-5,11.4-9.7,17.3-14c2.2-1.6,4.4-3.1,6.6-4.6c2.2-1.5,4.4-3,6.6-4.4c13.3-8.5,26.3-15.2,37.3-20.1c2.6-1.2,5.1-2.3,7.5-3.3
		c2.7-1.1,5.1-2.1,7.4-3v0c3.1-1.2,5.8-2.2,8-3c1.2,2.6,2.8,5.9,4.5,10c1,2.3,2,4.8,3.1,7.6c1,2.4,2,5.1,3,7.8
		c3.8,10.4,7.8,22.9,10.9,36.7c0.6,2.6,1.1,5.1,1.6,7.8c0.5,2.6,1,5.2,1.4,7.9C627.3,341.7,628.1,349.5,628.5,357.5z"/>
	<path fill="#B2D235" d="M744.8,399.6c-0.6,1.8-1.4,3.9-2.3,6.3v0c-0.3,0.8-0.6,1.7-1,2.5c0,0,0,0,0,0.1c-0.9,2.2-1.9,4.7-3,7.4
		c-1,2.4-2.1,4.9-3.3,7.5c0,0,0,0,0,0.1c-4.7,10.4-11,22.7-18.9,35.1c-0.8,1.2-1.6,2.5-2.4,3.7c-0.6,1-1.3,2-2,3
		c-1.5,2.2-3,4.4-4.6,6.6c-4.5,6.2-9.5,12.4-14.8,18.4c-12.7-11.9-27.5-22.3-44.4-29.6c-0.7-0.3-1.4-0.6-2.1-0.9
		c-1.2-0.5-2.4-1-3.6-1.4c-0.3-0.1-0.7-0.3-1-0.4c-0.7-2.2-1.4-4.3-2.2-6.5c-0.7-2-1.5-4.1-2.3-6c-0.1-0.4-0.3-0.7-0.5-1.1
		c-0.8-2-1.7-4-2.6-5.9c-1.1-2.3-2.2-4.6-3.4-6.8c-0.1-0.1-0.1-0.2-0.1-0.2c-1.4-2.7-2.9-5.3-4.5-7.9c-1.6-2.6-3.3-5.2-5.1-7.7
		c0,0,0,0,0,0c-9.6-13.7-21.6-25.7-35.2-35.5c2.2-0.8,4.4-1.5,6.6-2.1c12-3.5,24.3-5.3,36.5-5.7c2.5-0.1,5-0.1,7.5-0.1
		c2.5,0,5,0.1,7.5,0.2c7.4,0.4,14.6,1.1,21.7,2.2c2.7,0.4,5.3,0.9,7.9,1.3c2.6,0.5,5.3,1,7.8,1.6c17.1,3.7,32.4,8.9,44.2,13.5
		c2.7,1.1,5.3,2.1,7.6,3.1c1.5,0.6,3,1.3,4.3,1.9c1.1,0.5,2.1,0.9,3,1.4C742,398.3,743.5,399,744.8,399.6z"/>
	<path fill="#B2D235" d="M744.8,602.3c-1.6,0.7-3.5,1.7-5.7,2.6c-2.2,1-4.7,2.1-7.4,3.2c-2.4,1-4.9,2-7.7,3.1
		c-11.3,4.3-25.5,9.1-41.4,12.6c-2.6,0.6-5.2,1.1-7.8,1.6c-2.6,0.5-5.2,1-7.9,1.4c-7.5,1.2-15.3,2.1-23.2,2.5
		c-0.6-17.6-3.8-35.6-10.7-52.9c-0.2-0.5-0.4-1.1-0.6-1.6c-0.3-0.9-0.7-1.6-1.1-2.5c-0.4-0.8-0.8-1.7-1.1-2.5c0,0,0-0.1,0-0.1
		c0.9-1.6,1.7-3.1,2.4-4.7v0c0.9-1.8,1.7-3.6,2.5-5.4c0,0,0,0,0,0c0.2-0.5,0.5-1,0.7-1.5c0,0,0,0,0,0c0.8-1.8,1.5-3.6,2.2-5.5
		c0.9-2.4,1.8-4.9,2.6-7.3v0c0.1-0.4,0.2-0.7,0.4-1.1c0.9-3,1.7-6,2.5-9c0.7-3,1.4-6,1.9-9c1.5-8.4,2.2-17,2.2-25.8
		c0-8.4-0.7-16.5-2.1-24.5c2.1,1,4.2,2,6.2,3.1c11.1,6,21.1,13.6,30.1,22c1.8,1.7,3.6,3.4,5.4,5.2c1.8,1.8,3.5,3.6,5.1,5.5
		c4.9,5.4,9.4,11,13.6,16.7c1.6,2.2,3.1,4.3,4.7,6.5c1.5,2.2,3,4.5,4.4,6.7c9.2,14.3,16.2,28.3,21.3,39.8c1.2,2.7,2.2,5.2,3.2,7.5
		c1.1,2.7,2.1,5.2,2.9,7.4C743.4,598.5,744.2,600.6,744.8,602.3z"/>
	<path fill="#B2D235" d="M628.8,636.9c0,2.5-0.1,5-0.2,7.6c-0.4,7.3-1.1,14.5-2.2,21.5c-0.4,2.7-0.9,5.3-1.3,7.9
		c-0.5,2.6-1,5.2-1.6,7.8c-3.3,15-7.6,28.6-11.7,39.7c-1,2.7-2,5.4-3,7.8c-1.1,2.7-2.2,5.2-3.1,7.5c-1.5,3.5-2.9,6.6-4.1,8.9
		c-1.6-0.6-3.5-1.3-5.6-2.1c-2.2-0.8-4.7-1.8-7.4-2.9c-2.3-0.9-4.8-2-7.4-3.1c-11.3-5-25.1-11.9-39.2-20.9c-2.2-1.4-4.4-2.9-6.6-4.4
		c-2.2-1.5-4.4-3-6.6-4.6c-6.1-4.4-12-9.2-17.8-14.4c12.1-13,22.6-28,30-45.3c0.2-0.4,0.4-0.8,0.6-1.2c0.7-1.8,1.4-3.6,2.1-5.4
		c0.7-0.2,1.4-0.5,2.1-0.7c0,0,0,0,0,0c2.5-0.8,4.9-1.7,7.3-2.6c0,0,0,0,0,0c2.2-0.9,4.5-1.8,6.7-2.7c0.1-0.1,0.2-0.1,0.3-0.2
		c2.3-1,4.5-2.1,6.7-3.2c0.7-0.3,1.4-0.7,2.1-1.1h0c0,0,0,0,0.1,0c1.6-0.9,3.3-1.7,4.8-2.6c1.1-0.6,2.1-1.3,3.2-1.9
		c2.6-1.6,5.2-3.3,7.7-5c14-9.8,26.1-21.9,36-35.8c0.8,2.2,1.5,4.4,2.2,6.6c3.7,12.3,5.5,24.9,5.9,37.4
		C628.8,631.9,628.8,634.4,628.8,636.9z"/>
	<path fill="#B2D235" d="M525.6,645.6c-1,2.1-2,4.2-3.1,6.2c-6.1,11.4-13.7,21.6-22.3,30.8c-1.7,1.8-3.4,3.6-5.2,5.4
		c-1.8,1.8-3.6,3.5-5.5,5.1c-5.5,5-11.2,9.6-17,13.9c-2.2,1.6-4.4,3.1-6.6,4.6c-2.2,1.5-4.4,3-6.6,4.4c-12.8,8.2-25.3,14.6-36,19.6
		c-2.6,1.2-5.1,2.3-7.5,3.3c-2.6,1.1-5.1,2.1-7.4,3c-3.8,1.5-7,2.7-9.5,3.6c-1-2.1-2.2-4.7-3.6-7.8c-1-2.2-2.1-4.8-3.2-7.5
		c-1-2.4-2-5-3-7.7c-4.2-11.1-8.6-24.8-12-39.9c-0.6-2.6-1.1-5.1-1.6-7.8c-0.5-2.6-0.9-5.2-1.4-7.9c-1.1-7.3-1.9-14.8-2.3-22.4
		c17.7-0.6,35.8-3.8,53.2-10.8c0.4-0.2,0.9-0.3,1.3-0.5c0.4-0.2,0.7-0.3,1.1-0.5c1.4-0.6,2.7-1.3,4.1-1.9c0,0,0.1,0,0.1,0
		c1.1,0.6,2.2,1.2,3.4,1.8c0,0,0,0,0,0c2.3,1.1,4.6,2.2,7,3.2c0.5,0.2,0.9,0.4,1.4,0.6c2.3,1,4.7,1.9,7.1,2.7
		c2.1,0.8,4.2,1.5,6.4,2.1c0,0,0,0,0,0c0.3,0.1,0.7,0.2,1,0.3c2.6,0.8,5.2,1.5,7.9,2.1c3,0.7,6,1.4,9,1.9h0
		c8.3,1.4,16.8,2.2,25.4,2.2S517.3,647.1,525.6,645.6z"/>
	<path fill="#B2D235" d="M415.8,621.2c-2.2,0.8-4.4,1.5-6.6,2.2c-12.3,3.8-25,5.6-37.5,6c-2.5,0.1-5,0.1-7.5,0.1
		c-2.5,0-5-0.1-7.6-0.2c-7.6-0.4-15-1.2-22.3-2.3c-2.7-0.4-5.3-0.9-7.9-1.4c-2.6-0.5-5.2-1-7.8-1.6c-15.8-3.5-30-8.1-41.3-12.4
		c-2.7-1-5.3-2.1-7.7-3c-2.7-1.1-5.2-2.2-7.5-3.2c-2.6-1.2-4.9-2.2-6.7-3.1c0.7-2,1.6-4.4,2.7-7.2c0.9-2.2,1.8-4.7,2.9-7.4
		c1-2.3,2.1-4.9,3.3-7.5c5-11,11.7-24.3,20.4-37.9c1.4-2.2,2.9-4.5,4.4-6.7c1.5-2.2,3-4.4,4.6-6.6c4.3-5.9,9-11.8,14.1-17.4
		c12.8,12,27.7,22.5,44.8,29.8v0c0.6,0.2,1.1,0.5,1.7,0.7c1.7,0.7,3.3,1.3,5,1.9c0.1,0.1,0.1,0.2,0.1,0.4c0.8,2.5,1.6,4.9,2.5,7.4
		c0.8,2.2,1.7,4.3,2.6,6.4c0.1,0.2,0.2,0.5,0.3,0.7c0.9,2.1,1.9,4.2,2.9,6.3c0,0,0,0,0,0c0.7,1.5,1.5,3,2.3,4.5c0,0,0,0.1,0.1,0.1
		c0.4,0.8,0.9,1.6,1.3,2.3c0,0,0,0,0,0c1,1.9,2.1,3.7,3.3,5.5c1.6,2.6,3.3,5.1,5,7.6c0,0,0,0,0,0
		C389.7,599.4,401.9,611.5,415.8,621.2z"/>
	<path fill="#B2D235" d="M414.8,380.3c-13.7,9.7-25.6,21.7-35.2,35.5c0,0,0,0,0,0c-1.8,2.5-3.5,5-5.1,7.7c-1.5,2.5-3,5.1-4.4,7.7
		c-0.1,0.1-0.2,0.3-0.2,0.4c-1.1,2.2-2.2,4.3-3.3,6.6c-0.8,1.7-1.6,3.4-2.3,5.2c-0.3,0.6-0.5,1.2-0.8,1.8c-0.7,1.7-1.4,3.5-2,5.3
		c-0.9,2.4-1.7,4.9-2.5,7.4c0,0,0,0.1-0.1,0.1c0,0,0,0,0,0c-0.9,3-1.7,6-2.4,9c-0.7,2.9-1.3,5.9-1.8,8.9v0c-1.4,8-2.1,16.2-2.1,24.5
		c0,8.8,0.8,17.4,2.2,25.8c-2.1-1-4.2-2-6.2-3.1c-11.2-6-21.3-13.6-30.3-22.1c0,0,0,0,0,0c-1.8-1.7-3.6-3.5-5.4-5.2
		c-1.8-1.8-3.5-3.6-5.1-5.5c-5.1-5.7-9.9-11.6-14.3-17.6c-1.6-2.2-3.1-4.3-4.6-6.5c-1.5-2.2-3-4.5-4.4-6.7
		c-8.4-13.2-15-26.1-19.9-37c0,0,0,0,0,0c-1.2-2.6-2.3-5.1-3.3-7.5v0c-1.1-2.6-2.1-5.1-3-7.3c0,0,0,0,0-0.1
		c-1.2-3.1-2.2-5.7-2.9-7.8c1.5-0.7,3.4-1.6,5.5-2.5c2.2-1,4.7-2.1,7.4-3.2c2.3-1,4.9-2,7.6-3.1c11.5-4.4,26.1-9.3,42.3-12.9
		c2.6-0.6,5.1-1.1,7.8-1.6c2.6-0.5,5.3-0.9,7.9-1.4c7.3-1.1,14.9-1.9,22.6-2.3c2.5-0.1,5-0.2,7.5-0.2c2.5-0.1,5,0,7.5,0.1
		c12.2,0.4,24.5,2.1,36.5,5.7C410.4,378.8,412.6,379.5,414.8,380.3z"/>
	<path fill="#B2D235" d="M632.7,499C632.7,499,632.7,498.9,632.7,499L632.7,499c-0.1-6.2-0.5-12.2-1.4-18.1
		c-0.6-3.8-1.3-7.6-2.2-11.3c0,0,0,0,0-0.1c-0.1-0.3-0.2-0.7-0.2-1c-0.3-1.4-0.7-2.8-1.1-4.2c-0.3-1.1-0.6-2.2-1-3.3
		c0-0.1-0.1-0.2-0.1-0.4c-0.8-2.5-1.7-5-2.6-7.4c-0.1-0.2-0.2-0.4-0.2-0.6c-0.6-1.7-1.3-3.3-2-4.9v0c-0.1-0.1-0.1-0.2-0.1-0.3
		c-1-2.4-2.2-4.8-3.4-7.1c-0.1-0.2-0.2-0.4-0.3-0.7c-1.3-2.6-2.8-5.1-4.3-7.7c-2.8-4.6-5.8-9-9.1-13.2c-1.8-2.2-3.6-4.5-5.5-6.6
		c-1.9-2.2-4-4.3-6.1-6.4c-3.6-3.5-7.3-6.8-11.3-9.9c-0.9-0.7-1.9-1.4-2.8-2.1c-0.4-0.3-0.8-0.6-1.2-0.9c-0.4-0.3-0.8-0.6-1.1-0.8
		c-1.6-1.1-3.1-2.2-4.8-3.2c-0.5-0.3-1-0.6-1.4-0.9c-0.3-0.2-0.6-0.4-1-0.6c0,0,0,0,0,0c-1.4-0.9-2.9-1.7-4.4-2.6
		c-0.1-0.1-0.3-0.2-0.5-0.3c-0.9-0.5-1.8-1-2.8-1.5c-1.3-0.7-2.5-1.3-3.8-2c-1.4-0.6-2.7-1.3-4.2-1.9c-1.5-0.7-3-1.3-4.5-1.9
		c-0.2-0.1-0.5-0.2-0.7-0.3c-2.2-0.9-4.3-1.7-6.6-2.4c-0.6-0.2-1.2-0.4-1.8-0.6c-1.9-0.6-3.9-1.2-5.8-1.7c-0.9-0.2-1.7-0.5-2.6-0.7
		c-7.9-1.9-16.1-3.1-24.5-3.6c-2.3-0.1-4.6-0.2-6.9-0.2c-0.4,0-0.8,0-1.2,0h0c-6.4,0-12.7,0.6-18.8,1.5c-3.8,0.6-7.6,1.3-11.3,2.2
		c-1.2,0.3-2.3,0.6-3.5,0.9c-0.7,0.2-1.4,0.3-2,0.6c-1,0.3-2,0.6-3,0.9c-0.9,0.3-1.8,0.6-2.7,0.9c-1.9,0.7-3.9,1.4-5.8,2.1
		c-0.5,0.2-1,0.4-1.5,0.6c-1.3,0.5-2.5,1-3.7,1.6c-0.9,0.4-1.9,0.9-2.8,1.3c-1.8,0.8-3.5,1.7-5.2,2.6c-0.6,0.3-1.3,0.7-1.9,1
		c-1.9,1.1-3.9,2.2-5.8,3.3c-2.3,1.4-4.6,2.9-6.8,4.5c-4.5,3.1-8.8,6.5-12.8,10.2c-2.2,2-4.3,4-6.3,6.1c-4.3,4.5-8.3,9.2-12,14.2
		c-0.5,0.6-1,1.3-1.4,1.9c0,0,0,0,0,0c-1.7,2.5-3.4,5-5,7.7c-0.9,1.5-1.8,3.1-2.7,4.7v0c-0.5,1-1.1,1.9-1.6,2.9
		c-0.1,0.2-0.2,0.3-0.3,0.5c-1.2,2.3-2.3,4.7-3.4,7.1c-0.1,0.1-0.1,0.3-0.2,0.4v0c-0.7,1.5-1.3,3-1.9,4.6c-0.1,0.1-0.1,0.2-0.1,0.3
		c-0.9,2.3-1.7,4.7-2.5,7c0,0,0,0,0,0c-0.2,0.5-0.3,0.9-0.4,1.3c-0.7,2.1-1.3,4.2-1.8,6.4c-0.2,0.7-0.3,1.4-0.5,2.1c0,0,0,0,0,0.1
		c-1.9,7.7-3,15.6-3.5,23.8v0c0,0,0,0,0,0c-0.1,2.3-0.2,4.6-0.2,7c0,0.9,0,1.7,0.1,2.6v0c0.1,6.1,0.6,12.1,1.5,18
		c0.6,3.9,1.4,7.7,2.3,11.4c0.2,0.8,0.4,1.6,0.6,2.4c0,0,0,0,0,0c0.2,0.9,0.5,1.7,0.7,2.6v0c0.3,1.2,0.7,2.3,1,3.5
		c0.2,0.5,0.3,1.1,0.5,1.6c0.8,2.3,1.6,4.5,2.5,6.8c0.1,0.2,0.1,0.4,0.2,0.6c0.5,1.3,1,2.5,1.6,3.8c0,0,0,0.1,0,0.1
		c0.3,0.8,0.7,1.5,1.1,2.3c0.9,1.9,1.8,3.7,2.7,5.6v0c0,0,0,0,0,0c0.2,0.5,0.5,1,0.8,1.5c0,0,0,0,0,0c1.1,2.1,2.3,4.1,3.5,6.1
		c0,0,0,0.1,0.1,0.1c4.9,8,10.6,15.5,17,22.3c0,0.1,0.1,0.1,0.1,0.2c0,0,0,0,0,0c1.5,1.5,3,3,4.5,4.5c0.1,0.1,0.2,0.1,0.2,0.2
		c0,0,0,0,0,0c0.1,0,0.1,0.1,0.2,0.1c4.1,3.9,8.4,7.5,13,10.8c3.1,2.3,6.4,4.5,9.8,6.5c0,0,0.1,0,0.1,0.1c1.3,0.8,2.7,1.6,4.1,2.4
		c0,0,0,0,0.1,0c0.3,0.2,0.5,0.3,0.8,0.5c0,0,0,0,0,0c0.9,0.5,1.7,0.9,2.6,1.3c0,0,0,0,0,0c1.5,0.8,3,1.5,4.5,2.2c0,0,0,0,0,0
		c1.1,0.6,2.3,1,3.4,1.5c0,0,0.1,0,0.1,0c1.3,0.6,2.6,1.1,4,1.7c0.2,0.1,0.4,0.2,0.6,0.2c0,0,0,0,0,0c2.4,1,4.9,1.8,7.4,2.6
		c0.1,0.1,0.2,0.1,0.4,0.1c2.4,0.8,4.9,1.5,7.3,2.1h0c0.3,0.1,0.7,0.2,1.1,0.3c0,0,0,0,0.1,0c7.6,1.9,15.4,3.1,23.4,3.6
		c2.7,0.2,5.5,0.3,8.2,0.3c0.9,0,1.7,0,2.6-0.1h0c6-0.1,11.8-0.6,17.5-1.5c3.9-0.6,7.7-1.4,11.5-2.3c0,0,0,0,0.1,0
		c1.4-0.3,2.9-0.7,4.3-1.1c0.1,0,0.2-0.1,0.3-0.1c0,0,0,0,0.1,0c1.3-0.3,2.5-0.7,3.7-1.1c1.2-0.4,2.3-0.7,3.5-1.1h0
		c1.7-0.6,3.3-1.2,4.9-1.8c0.8-0.3,1.6-0.6,2.4-1c0.5-0.2,1.1-0.5,1.6-0.7c0,0,0.1,0,0.1,0c1.6-0.7,3.3-1.4,4.8-2.2
		c1.1-0.5,2.1-1,3.1-1.6c0,0,0,0,0,0c1.3-0.7,2.6-1.4,3.9-2.1c1.3-0.7,2.5-1.4,3.7-2.1c0,0,0.1,0,0.1-0.1c6.8-4.1,13.2-8.8,19.2-14
		l0,0c2.7-2.4,5.2-4.8,7.7-7.4c4.1-4.2,7.9-8.7,11.4-13.5c0,0,0,0,0,0c2.3-3.1,4.5-6.4,6.5-9.7c0,0,0.1,0,0.1-0.1
		c0.9-1.4,1.7-2.8,2.5-4.3c0,0,0,0,0,0c0.3-0.6,0.7-1.3,1-1.9v0c0.3-0.5,0.5-0.9,0.7-1.3v-0.1c1-1.9,1.9-3.8,2.8-5.7c0,0,0,0,0,0
		c0.3-0.7,0.6-1.4,1-2.2c0,0,0-0.1,0-0.1c0.5-1,0.9-2.1,1.3-3.1c0,0,0,0,0,0c0.2-0.4,0.3-0.8,0.5-1.2c0.8-2,1.6-4,2.3-6.1v0
		c0.3-0.8,0.5-1.5,0.8-2.3c0.6-1.8,1.1-3.5,1.6-5.3c0.3-1,0.6-2.1,0.8-3.1c1.9-7.7,3.2-15.7,3.7-23.9c0,0,0,0,0,0
		c0.2-2.7,0.3-5.5,0.3-8.2C632.7,499.9,632.7,499.4,632.7,499z M434.7,493.7c-0.3,0.3-0.6,0.5-0.9,0.7c-1.5,1.1-3.3,1.8-5.2,1.8
		c-2.3,0-4.5-0.9-6.1-2.5s-2.5-3.8-2.5-6.1c0-0.2,0.1-0.4,0.1-0.6c0.1-1,0.3-1.9,0.6-2.8c0.4-1,1-1.9,1.8-2.7l3-3l3.1-3.1l8.6-8.6
		l1.6-1.5l-0.6-0.6l-8.3-8.3l-7.3-7.3c-0.2-0.2-0.3-0.4-0.5-0.6c-2.9-3.4-2.7-8.4,0.5-11.6c1.6-1.6,3.8-2.5,6.1-2.5s4.5,0.9,6.1,2.5
		l16.2,16.2l0.1-0.1l1.4-1.4l5.1-5.1l6.6-6.6l0.8-0.8l2.2-2.2c3.4-3.4,8.8-3.4,12.2,0c0.1,0.1,0.2,0.2,0.2,0.3
		c3.1,3.4,3,8.6-0.2,11.9L463,465.3l4.8,4.8l2.5,2.5l8.9,8.9c1,1,1.7,2.2,2.1,3.6c0,0,0,0,0,0c0.3,0.8,0.4,1.6,0.4,2.5
		c0,1.8-0.6,3.6-1.7,5c-0.3,0.4-0.5,0.7-0.9,1c-1.6,1.6-3.8,2.5-6.1,2.5c-2.3,0-4.5-0.9-6.1-2.5l-16.2-16.2L434.7,493.7z
		 M559.7,547.1c0,0.4,0,0.8,0,1.2c0,0.4,0,0.8,0,1.2c0,0.3,0,0.6-0.1,0.9c0,0.2,0,0.4-0.1,0.6c0,0.3,0,0.6-0.1,0.9
		c-0.5,6.6-2.2,13-4.7,18.8c-0.7,1.6-1.5,3.2-2.3,4.7c-0.4,0.7-0.7,1.3-1.1,2c-1.3,2.2-2.8,4.3-4.3,6.3c-0.6,0.7-1.1,1.4-1.7,2
		c-2.1,2.4-4.3,4.6-6.8,6.7c-0.3,0.2-0.5,0.4-0.8,0.7c-1.7,1.4-3.5,2.6-5.3,3.8c-2.2,1.4-4.5,2.6-6.8,3.7c-0.5,0.2-1,0.4-1.4,0.6
		c-4.2,1.8-8.6,3.1-13.2,3.9c-3.3,0.6-6.8,0.9-10.3,0.9c-1.4,0-2.8-0.1-4.2-0.2c-2.9-0.2-5.8-0.6-8.6-1.3c-3.2-0.7-6.3-1.7-9.3-2.9
		c-1.2-0.5-2.4-1-3.5-1.6c-2.3-1.1-4.6-2.4-6.7-3.8c-2-1.3-3.9-2.7-5.7-4.3c-0.1-0.1-0.2-0.2-0.3-0.3c-2.6-2.2-5.1-4.7-7.3-7.4
		c-2.7-3.3-5.1-7-7-10.8c-3.4-6.6-5.5-14-6.1-21.8c-0.1-1.5-0.2-3.1-0.2-4.6v-23.9h117.9V547.1z M577.9,493.7
		c-1.6,1.6-3.8,2.5-6.1,2.5c-1.9,0-3.7-0.7-5.2-1.8c-0.3-0.2-0.6-0.5-0.9-0.7l-16.2-16.2l-16.2,16.2c-1.6,1.6-3.8,2.5-6.1,2.5
		c-2.3,0-4.5-0.9-6.1-2.5c-0.3-0.3-0.6-0.7-0.9-1c-1.1-1.5-1.7-3.2-1.7-5c0-0.9,0.2-1.7,0.4-2.5c0,0,0,0,0,0
		c0.4-1.3,1.1-2.6,2.1-3.6l8.9-8.9l2.5-2.5l4.8-4.8l-3.2-3.3l-1.3-1.2l-11.7-11.7c-3.3-3.3-3.3-8.5-0.2-11.9
		c0.1-0.1,0.2-0.2,0.2-0.3c3.4-3.4,8.8-3.4,12.2,0l1,1l2,2l6.6,6.6l5.1,5.1l1.4,1.4l0.1,0.1l16.2-16.2c1.6-1.6,3.8-2.5,6.1-2.5
		c1,0,2,0.2,2.9,0.5c1.2,0.4,2.3,1.1,3.2,2c1.2,1.2,1.9,2.7,2.3,4.2c0.6,2.6-0.1,5.3-1.8,7.4c-0.1,0.2-0.3,0.4-0.5,0.6l-1.7,1.7
		l-5.6,5.6l-8.2,8.2l-0.7,0.7l16.2,16.2c0.8,0.8,1.4,1.7,1.8,2.7c0.5,1,0.7,2.2,0.7,3.4C580.4,489.9,579.5,492,577.9,493.7z"/>
</g>
</svg>
