<?xml version="1.0" encoding="utf-8"?>
<!-- Generator: Adobe Illustrator 26.1.0, SVG Export Plug-In . SVG Version: 6.00 Build 0)  -->
<svg version="1.1" xmlns="http://www.w3.org/2000/svg" xmlns:xlink="http://www.w3.org/1999/xlink" x="0px" y="0px"
	 viewBox="0 0 371.9 166.1" style="enable-background:new 0 0 371.9 166.1;" xml:space="preserve">
<g id="Layer_2">
</g>
<g id="Layer_1">
	<g>
		<polygon class="st10" points="367.7,68.8 344.9,166.1 312.5,166.1 327.5,101.6 295.1,101.6 317.9,4.3 350.3,4.3 335.2,68.8 		"/>
		<polygon class="st10" points="163.2,101.2 155.6,133.7 123.1,133.7 115.6,166.1 180.4,166.1 203.2,68.8 138.3,68.8 130.7,101.2 		
			"/>
		<polygon class="st10" points="294.1,133.7 286.5,166.1 198.6,166.1 206.2,133.7 236.8,133.7 244.4,101.2 213.8,101.2 221.3,68.8 
			284.4,68.8 269.2,133.7 		"/>
		<polygon class="st10" points="120.1,68.8 97.3,166.1 64.9,166.1 80.1,101.2 47.6,101.2 32.4,166.1 0,166.1 22.8,68.8 		"/>
	</g>
	<g>
		<polygon class="st15" points="371.9,64.5 349.2,161.9 316.7,161.9 331.8,97.3 299.4,97.3 322.1,0 354.6,0 339.5,64.5 		"/>
		<polygon class="st15" points="167.5,97 159.9,129.4 127.4,129.4 119.8,161.9 184.7,161.9 207.5,64.5 142.6,64.5 135,97 		"/>
		<polygon class="st15" points="298.3,129.4 290.8,161.9 202.9,161.9 210.4,129.4 241,129.4 248.6,97 218,97 225.6,64.5 288.7,64.5 
			273.5,129.4 		"/>
		<polygon class="st15" points="124.4,64.5 101.6,161.9 69.2,161.9 84.3,97 51.9,97 36.7,161.9 4.3,161.9 27,64.5 		"/>
	</g>
</g>
<g id="notes" class="st663">
</g>
</svg>
