<?xml version="1.0" encoding="UTF-8"?><svg id="Layer_1" xmlns="http://www.w3.org/2000/svg" viewBox="0 0 1000 1000"><defs><style>.cls-1{fill:#f9bb69;}.cls-2{fill:#f29c1f;}.cls-3{fill:#fff;}</style></defs><rect class="cls-1" x="-37.87" y="-26.58" width="1097.5" height="1050.2"/><g><g><rect class="cls-2" x="403.82" y="642.2" width="195.24" height="38.1"/><g><path class="cls-2" d="M337.57,642.2v38.1h-19.5c-3.12,0-5.64-2.52-5.64-5.62v-26.86c0-3.1,2.52-5.62,5.64-5.62h19.5Z"/><path class="cls-3" d="M402.64,561.08v200.33c0,3.57-2.5,6.48-5.58,6.48h-16.57c-3.06,0-5.58-2.9-5.58-6.48v-200.33c0-3.55,2.52-6.48,5.58-6.48h16.57c3.08,0,5.58,2.93,5.58,6.48Z"/><path class="cls-2" d="M407.07,561.08v200.33c0,3.57-2.44,6.48-5.45,6.48h-16.16c-2.98,0-5.45-2.9-5.45-6.48v-200.33c0-3.55,2.46-6.48,5.45-6.48h16.16c3,0,5.45,2.93,5.45,6.48Z"/><path class="cls-3" d="M374.91,581.63v159.24h-15.64c-3.07,0-5.6-2.5-5.6-5.6v-148.05c0-3.07,2.52-5.6,5.6-5.6h15.64Z"/><path class="cls-2" d="M374.91,581.63v159.24h-12.19c-2.39,0-4.36-2.5-4.36-5.6v-148.05c0-3.07,1.97-5.6,4.36-5.6h12.19Z"/><path class="cls-3" d="M353.67,610.51v101.48h-11.62c-2.45,0-4.48-2-4.48-4.45v-92.55c0-2.48,2.02-4.48,4.48-4.48h11.62Z"/><path class="cls-2" d="M353.66,610.51v101.48h-8.5c-1.79,0-3.28-2-3.28-4.45v-92.55c0-2.48,1.48-4.48,3.28-4.48h8.5Z"/></g><g><path class="cls-2" d="M662.43,642.2v38.1h19.5c3.12,0,5.64-2.52,5.64-5.62v-26.86c0-3.1-2.52-5.62-5.64-5.62h-19.5Z"/><path class="cls-3" d="M596.8,561.08v200.33c0,3.57,2.55,6.48,5.7,6.48h16.9c3.12,0,5.7-2.9,5.7-6.48v-200.33c0-3.55-2.58-6.48-5.7-6.48h-16.9c-3.14,0-5.7,2.93-5.7,6.48Z"/><path class="cls-2" d="M592.93,561.08v200.33c0,3.57,2.44,6.48,5.45,6.48h16.16c2.98,0,5.45-2.9,5.45-6.48v-200.33c0-3.55-2.46-6.48-5.45-6.48h-16.16c-3,0-5.45,2.93-5.45,6.48Z"/><path class="cls-3" d="M625.09,581.63v159.24h15.64c3.07,0,5.6-2.5,5.6-5.6v-148.05c0-3.07-2.52-5.6-5.6-5.6h-15.64Z"/><path class="cls-2" d="M625.09,581.63v159.24h12.19c2.39,0,4.36-2.5,4.36-5.6v-148.05c0-3.07-1.97-5.6-4.36-5.6h-12.19Z"/><path class="cls-3" d="M646.33,610.51v101.48h11.62c2.45,0,4.48-2,4.48-4.45v-92.55c0-2.48-2.02-4.48-4.48-4.48h-11.62Z"/><path class="cls-2" d="M646.34,610.51v101.48h8.48c1.79,0,3.27-2,3.27-4.45v-92.55c0-2.48-1.48-4.48-3.27-4.48h-8.48Z"/></g></g><g><g><path class="cls-2" d="M688.16,344.78v147.15c0,9.14-1.8,22.03-5.22,24.48-3.44,2.43-16.65,6.03-43.87,6.03s-40.43-3.6-43.87-6.03c-3.42-2.45-5.22-15.34-5.22-24.48v-147.15s.65-4.62,6.24-13.7c5.56-9.06,8.55-17.71-2.78-24.09,0,0-2.99-1.12-3.05-4.95-.08-3.82-1.06-10.16,4.07-13.48,0,0,22.05-4.38,44.61-4.38s44.61,4.38,44.61,4.38c5.13,3.31,4.15,9.65,4.09,13.48-.08,3.82-3.05,4.95-3.05,4.95-11.35,6.38-8.36,15.03-2.78,24.09,5.56,9.08,6.22,13.7,6.22,13.7Z"/><path class="cls-3" d="M686.98,286.06c.06,2.11-3.29,2.5-3.29,2.5,0,0-22.05-4.38-44.61-4.38s-44.61,4.38-44.61,4.38c0,0-3.35-.39-3.29-2.5,.06-2.11,2.35-24.03,2.35-24.03,0,0,4.38-8.28,30.35-11.21,0,0,2.45-.16,1.96-14.46h-4.36s.25-4.25,17.59-4.25,17.87,4.25,17.87,4.25h-4.64c-.47,14.3,1.96,14.46,1.96,14.46,25.97,2.92,30.37,11.21,30.37,11.21,0,0,2.27,21.92,2.33,24.03Z"/></g><g><path class="cls-2" d="M499.77,443.03c0,19.08-6.22,36.71-16.75,50.97,0,0-25.67,10.53-69.21,10.53s-69.19-10.53-69.19-10.53c-10.53-14.25-16.75-31.88-16.75-50.97s6.59-37.75,17.69-52.21c3.21-4.23,6.83-8.14,10.78-11.68,15.22-13.7,35.38-22.05,57.47-22.05s42.25,8.34,57.49,22.05c3.95,3.56,7.55,7.44,10.78,11.68,11.08,14.46,17.69,32.58,17.69,52.21Z"/><path class="cls-3" d="M488.54,400.55c-3.23-4.23-13.29-17.85-17.24-21.41,0,0,78.47-82.81-57.47-82.81s-57.49,82.81-57.49,82.81c-3.95,3.54-13.25,13.6-16.46,17.83,0,0-98.6-122.91,73.95-122.91s74.71,126.49,74.71,126.49Z"/></g></g></g></svg>