<?xml version="1.0" encoding="UTF-8"?><svg id="Layer_1" xmlns="http://www.w3.org/2000/svg" viewBox="0 0 1000 1000"><defs><style>.cls-1,.cls-2,.cls-3,.cls-4,.cls-5,.cls-6,.cls-7,.cls-8,.cls-9{stroke:#231f20;}.cls-1,.cls-2,.cls-3,.cls-4,.cls-5,.cls-7{stroke-linejoin:round;}.cls-1,.cls-5,.cls-6,.cls-7,.cls-8,.cls-9{fill:none;}.cls-1,.cls-7,.cls-8{stroke-width:17.06px;}.cls-10{fill:#f91244;}.cls-11{fill:#ff527f;}.cls-12,.cls-4{fill:#ea658e;}.cls-13{fill:#7f0336;}.cls-14{fill:#aa0b44;}.cls-2{fill:#fca38b;}.cls-2,.cls-3,.cls-4{stroke-width:12.19px;}.cls-3{fill:#f90041;}.cls-5{stroke-width:24.37px;}.cls-6{stroke-width:4.87px;}.cls-6,.cls-8,.cls-9{stroke-miterlimit:10;}.cls-7{stroke-linecap:round;}.cls-9{stroke-width:18.19px;}</style></defs><rect class="cls-11" x="-39.25" y="-26.58" width="1097.5" height="1050.2"/><g><polygon class="cls-10" points="865.45 581.32 892.21 470.62 865.45 359.95 687.64 346.32 319.9 346.32 165.9 364.44 165.9 576.83 319.9 594.94 687.64 594.94 865.45 581.32"/><polygon class="cls-12" points="832.2 536.2 863.21 578.28 892.21 470.62 844.61 470.63 832.2 536.2"/><polygon class="cls-12" points="833.6 405.07 851.38 471.89 891.17 466.31 860.29 366.96 833.6 405.07"/><polygon class="cls-12" points="550.44 514.86 586.32 471.89 550.44 424.09 537.3 471.89 550.44 514.86"/><polygon class="cls-13" points="297.32 398.68 257.82 471.89 297.32 545.09 549.18 521.25 537.3 471.89 549.18 422.52 297.32 398.68"/><g><line class="cls-6" x1="518.9" y1="419.66" x2="285.37" y2="419.66"/><line class="cls-6" x1="546.83" y1="430.88" x2="278.98" y2="430.88"/><line class="cls-6" x1="543.68" y1="442.09" x2="272.01" y2="442.09"/><line class="cls-6" x1="540.84" y1="453.31" x2="266.21" y2="453.31"/><line class="cls-6" x1="537.79" y1="464.53" x2="259.82" y2="464.53"/><line class="cls-6" x1="537.3" y1="475.74" x2="257.82" y2="475.74"/><line class="cls-6" x1="540.02" y1="486.96" x2="264.21" y2="486.96"/><line class="cls-6" x1="543.02" y1="498.18" x2="270.59" y2="498.18"/><line class="cls-6" x1="545.66" y1="509.39" x2="278.98" y2="509.39"/><line class="cls-6" x1="518.9" y1="520.61" x2="285.37" y2="520.61"/></g><polygon class="cls-14" points="324.52 346.32 376.49 405.07 577.92 352.92 324.52 346.32"/><polygon class="cls-14" points="324.52 599.48 376.49 540.73 577.92 592.88 324.52 599.48"/><polygon class="cls-12" points="623.62 597.36 697.22 597.36 764.99 587.62 697.21 551.86 623.62 597.36"/><polygon class="cls-12" points="625.37 349.32 697.22 343.1 764.99 352.83 697.21 388.59 625.37 349.32"/><line class="cls-8" x1="773.76" y1="352.92" x2="697.21" y2="388.64"/><line class="cls-8" x1="773.76" y1="588.35" x2="697.21" y2="551.86"/><polyline class="cls-8" points="783.19 353.64 832.2 405.07 847.32 470.63"/><polyline class="cls-8" points="783.19 587.62 832.2 536.2 847.32 470.63"/><path class="cls-9" d="M778.84,470.25c0,45.07-36.54,81.61-81.63,81.61s-81.61-36.54-81.61-81.61,36.54-81.61,81.61-81.61,81.63,36.54,81.63,81.61Z"/><line class="cls-8" x1="778.83" y1="470.62" x2="892.21" y2="470.62"/><line class="cls-8" x1="865.45" y1="359.95" x2="832.2" y2="405.07"/><line class="cls-8" x1="865.45" y1="581.32" x2="832.2" y2="536.2"/><polygon class="cls-5" points="892.21 470.62 865.45 581.32 687.64 594.94 319.9 594.94 165.9 576.83 165.9 364.44 319.9 346.32 687.64 346.32 865.45 359.95 892.21 470.62"/><line class="cls-8" x1="535.65" y1="470.62" x2="587.56" y2="470.25"/><polyline class="cls-1" points="607.46 594.47 380.75 537.19 319.9 594.94"/><polyline class="cls-1" points="607.46 349.32 377.67 406.29 319.9 346.32"/><polyline class="cls-8" points="297.32 398.68 255.62 471.89 297.32 545.09"/><line class="cls-8" x1="255.62" y1="471.89" x2="165.9" y2="471.89"/><g><path class="cls-2" d="M360.48,627.18v14.81h-22.07v-13.72c0-.35,0-.73-.04-1.08h22.11Z"/><path class="cls-3" d="M572.85,620.46v4.13h-44.83c0-3.19-1.3-6.06-3.39-8.17-2.09-2.09-4.98-3.39-8.15-3.39-6.36,0-11.56,5.2-11.56,11.56v2.58h-121.37c0-3.17-1.3-6.04-3.39-8.15-2.09-2.09-4.98-3.39-8.15-3.39-6.34,0-11.54,5.2-11.54,11.54h-22.11c-.39-7.86-5.16-14.14-10.95-14.14s-10.99,6.87-10.99,15.22v1h-18.9v-31.9h265.73c-3.17,0-6.04,1.3-8.15,3.39-2.09,2.11-3.39,4.98-3.39,8.15,0,6.36,5.2,11.56,11.54,11.56h9.59Z"/><rect class="cls-2" x="383.56" y="627.18" width="121.37" height="14.81"/><rect class="cls-2" x="528.02" y="624.6" width="44.83" height="17.39"/></g><g><polyline class="cls-7" points="110.88 360.92 139.58 360.92 139.58 635.53"/><rect class="cls-2" x="111.6" y="484.34" width="27.27" height="60.16"/><rect class="cls-2" x="111.6" y="558.3" width="27.27" height="19.77"/><rect class="cls-2" x="111.6" y="450.78" width="27.27" height="19.77"/></g><circle class="cls-5" cx="697.22" cy="470.62" r="38.27"/><polygon class="cls-4" points="266.21 410.6 241.39 453.31 241.39 398.68 266.21 410.6"/><polygon class="cls-4" points="266.21 532.25 241.39 489.54 241.39 544.16 266.21 532.25"/><path class="cls-8" d="M697.21,551.86l-89.75,42.61-58.28-73.23-13.53-50.62,13.53-48.1,58.28-73.21,89.75,39.32c-45.07,0-81.61,36.54-81.61,81.61s36.54,81.61,81.61,81.61Z"/><polyline class="cls-8" points="549.17 521.25 297.32 545.09 165.9 579.34"/><polyline class="cls-8" points="165.9 364.44 297.32 398.68 549.17 422.52 587.56 470.25 549.17 521.25 611.57 550.3 587.56 470.25 611.57 399.53 549.17 422.52"/></g></svg>