<?xml version="1.0" encoding="UTF-8"?><svg id="Layer_1" xmlns="http://www.w3.org/2000/svg" viewBox="0 0 1000 1000"><defs><style>.cls-1{fill:#8dc63f;}.cls-2{fill:#cef982;}.cls-3{fill:#c2fc5b;}.cls-4{fill:#a6ff1a;}</style></defs><rect class="cls-3" x="-57.97" y="-26.58" width="1097.5" height="1050.2"/><g><g><path d="M171.47,380.93v-26.95h-4.55v26.95h-6.83v-53.14h6.83v19.36h4.55v-19.36h6.83v53.14h-6.83Z"/><path d="M184.37,380.93v-53.14h6.83v53.14h-6.83Z"/><path d="M208.66,380.93v-20.34l-4.55-7.59v27.93h-6.83v-53.14h6.83v14.27l4.55,7.59v-21.86h6.83v53.14h-6.83Z"/><path d="M230.82,334.62v46.3h-6.83v-46.3h-4.93v-6.83h16.7v6.83h-4.93Z"/><path d="M259.74,381.69c-5.09,0-9.11-4.02-9.11-9.11v-36.44c0-5.09,4.02-9.11,9.11-9.11s9.11,4.02,9.11,9.11v36.44c0,5.09-4.02,9.11-9.11,9.11Zm2.28-45.54c0-1.29-.99-2.28-2.28-2.28s-2.28,.99-2.28,2.28v36.44c0,1.29,.99,2.28,2.28,2.28s2.28-.99,2.28-2.28v-36.44Z"/><path d="M280.99,334.62v14.42h6.83v6.83h-6.83v25.05h-6.83v-53.14h14.04v6.83h-7.21Z"/></g><g><g><path d="M914.7,403.08c-2.05-6.76-3.95-13.57-5.62-20.44-2.61-10.65-6.9-20.66-13.65-29.15-6.71-8.42-14.64-15.88-22.1-23.69-.99-1.03-2.37-1.7-3.59-2.5-2.65-1.75-5.55-3.2-7.93-5.26-11.74-10.09-25.35-17.16-39.68-22.23-22.67-8-45.47-16.18-70.13-15.76-5.88,.1-11.43-.76-17.62,1.12-13.33,4.05-27.21,6.57-41,8.84-8.02,1.33-15.02,4.2-21.49,8.64,5.28,5.73,10.01,10.96,14.85,16.08,11.68,12.34,23.39,24.63,35.11,36.93,.85,.89,1.76,1.74,2.7,2.52,3.77,3.11,7.66,6.1,11.35,9.32,11.31,9.8,22.26,20.07,33.93,29.44,12.32,9.88,23.56,20.85,34.74,31.91,8.55,8.47,17.29,16.64,26.49,24.43,14.44,12.22,28.09,25.35,42.01,38.17,2.41,2.22,6.29,3.27,8.11,1.19,4.35-4.96,8.62-10.03,12.43-15.4,2.8-3.97,4.93-8.43,7.15-12.77,2.01-3.92,4.1-7.85,5.5-12,3.3-9.75,5.67-19.85,9.46-29.41,2.83-7.16,.98-13.37-1.01-19.99Zm-147.09-19.53c-4.26-3.62-8.42-7.36-12.79-10.84-11.35-9.05-23.36-17.36-34.03-27.14-9.13-8.37-18.72-16.62-25.87-28.24,10.73-3.59,20.81-7.62,32.85-9.02,13.34,24.74,28.49,48.74,41.42,73.99-.52,.42-1.05,.83-1.58,1.24Zm-34.38-75.74c14.18-3.52,27.1-1.07,40.48,.43,3.84,27.91,6.33,55.83,7.23,85.8-16.86-29.42-26.55-60.88-47.71-86.23Zm52.95,90.53c-.38-5.41-.92-10.65-1.06-15.9-.17-6.33,.23-12.66-.05-18.96-.26-6.09-.93-12.18-1.7-18.22-.98-7.74-3.14-15.3-1.44-23.32,.73-3.41-.45-7.24-.82-11.55,16.11,.27,28.77,9.84,44.3,13.94-12.76,25.66-24.73,49.74-36.78,73.77-.16,.33-1.34,.15-2.45,.25Zm57.69-.27c-13.92-.19-27.85,1.05-42.03,.99,4.8-4.52,11.44-5.14,16.99-7.97,6.12-3.11,12.42-5.88,18.68-8.72,6.02-2.73,12.12-5.3,18.14-8.05,6.01-2.74,11.98-5.6,17.98-8.43,8.45,10.22,12.49,21.81,12.42,35.03-14.48-1.03-28.32-2.66-42.19-2.84Zm43.51,9.86c1.66,13.13-2.81,23.87-7.47,34.78-11.61-4.93-22.44-9.39-33.12-14.18-3.07-1.39-5.77-3.66-8.52-5.68-7.31-5.39-14.42-11.08-23.57-13.18-.85-.2-1.6-.84-2.2-2.64,8.41-.39,16.82-.98,25.23-1.12,9.74-.15,19.5-.12,29.23,.23,6.78,.25,13.52,1.16,20.43,1.8Zm-88-15.43c-.41-.42-.82-.84-1.22-1.25,3.06-5.33,6.06-10.69,9.22-15.97,1.98-3.33,4.48-6.38,6.21-9.82,5.28-10.46,10.32-21.03,15.39-31.59,2.78-5.78,5.5-7.12,10.08-3.24,10.29,8.71,20.1,17.99,30.05,27.1,.84,.78,1.27,2.02,2.68,4.38-25.8,7.92-47.59,22.76-72.41,30.41Zm-4.06,16.08c2.06,.5,4.28,.69,6.17,1.58,7.07,3.3,14.2,6.3,20.82,10.73,10.34,6.9,21.49,12.62,32.51,18.46,6.87,3.64,14.11,6.6,21.51,10.01-2.43,9.25-13.01,12.52-11.66,22.6-26.22-18.14-47.74-40.59-69.36-63.38Zm109.65,23.68c-3.18,14.58-8.68,28.24-16.25,41.02-2.72,4.59-6.56,8.51-10.73,13.82-3.74-3.91-6.54-6.82-9.73-10.13,8.1-6.48,14.03-13.52,18.6-21.75,1.05-1.89,3.39-3.06,4.76-4.24,0-5.21-.53-10.29,.12-15.21,1.06-8.16,3.53-16.13,2.5-24.53-.41-3.39,1.13-5.98,5.44-7.63-5.21-1.24-6.98-3.74-7.48-7.86-.7-5.79-1.42-11.77-3.43-17.17-4.44-11.95-11.44-22.3-21.34-30.62-7.48-6.28-14.15-13.58-21.92-19.46-5.38-4.07-11.95-6.63-18.11-9.57-11.05-5.28-22.02-10.84-34.27-13.01-2.18-.38-4.34-.85-6.54-1.11-4.72-.56-8.9-1.67-8.41-9.69-1.74,3.42-2.54,5.02-3.83,7.57-13.56-3.43-27.79-3.96-41.73-1.49-13.99,2.48-27.66,6.7-41.39,10.13-2.26-2.11-4.72-4.4-7.69-7.17,5.14-1.84,9.89-4.08,14.89-5.23,12.84-2.96,25.7-6.21,38.73-7.83,8.13-1,16.65,1.56,24.9,1.05,10.87-.66,20.24,4.12,30.32,6.28,9.36,2.02,18.51,4.16,27.25,8.34,5.64,2.71,12.27,3.39,17.9,6.12,5.91,2.86,11.14,7.11,16.71,10.72,11.47,7.44,20.34,17.79,29.95,27.26,4.28,4.21,7.55,9.73,10.27,15.16,4.5,9,8.83,18.07,11.01,28.1,2.79,12.83,2.27,25.4-.49,38.09Z"/><g><path class="cls-1" d="M670.27,357.22c1.29-2.25,2.4-4.71,4.01-6.8,1.35-1.75,3.77-1.29,3.99,.61,.29,2.47-.07,5.63-1.47,7.53-1.7,2.3-4.34,1.27-6.53-1.34Z"/><path class="cls-1" d="M734,256.53c3.14-2.39,5.77-4.4,8.66-6.6,3.57,3.76,.62,6.73-.84,10.4-2.36-1.91-6.9,2.07-7.82-3.8Z"/><path class="cls-1" d="M687.95,288.04h-7.48c-.05-4.43,.43-8.13,6.18-10.13,.45,3.49,.85,6.6,1.3,10.13Z"/><path class="cls-1" d="M683.84,268.65c-3.07-.69-5.14-1.15-7.29-1.64-1.33-2.17-.22-3.51,1.69-4.7,2.8-1.74,5.45-2.06,8.44,.78-.89,1.73-1.84,3.59-2.85,5.55Z"/><path class="cls-1" d="M714.02,384.12c.46,3.51,.99,5.95,.97,8.4,0,.85-1.26,2.21-2.14,2.4-.81,.17-2.18-.7-2.79-1.51-2.62-3.49-2.06-5.12,3.95-9.29Z"/><path class="cls-1" d="M812.29,484.57c-2.82-.81-5.44-1.57-8.39-2.42,1.15-3.68,3.13-6.12,6.8-4.86,3.43,1.17,3.52,3.99,1.58,7.28Z"/><path class="cls-1" d="M777.67,425.32c2.51-1.69,5.02-3.39,7.56-5.1,2.81,3.63,1.18,6.25-.77,7.64-1.38,.98-4.04,.17-6.13,.15-.22-.9-.44-1.8-.67-2.69Z"/><path class="cls-1" d="M723.2,398.56c1.56,.62,2.86,1.14,4.4,1.76-.11,1.41-.17,2.59-.32,3.77-.23,1.86,.03,4.53-2.81,4.09-2.75-.42-4.09-2.7-3.48-5.5,.29-1.34,1.32-2.53,2.2-4.12Z"/><path class="cls-1" d="M648.9,327.33c-5.06-2.35-6.25-3.94-4.57-6.68,.65-1.06,2.9-2.09,3.97-1.74,2.78,.9,2.91,3.57,.61,8.41Z"/><path class="cls-1" d="M619.93,298.88c-.34-3.1-1.58-6.33,1.09-8.9,.67-.64,2.64,.07,3.95,.15q.67,8.04-5.04,8.75Z"/><path class="cls-1" d="M702.89,254.72c3.34,1.26,4.78,2.46,3.71,5.21-1.15,2.96-2.08,3.43-7.41,2.89,1.24-2.72,2.37-5.19,3.7-8.1Z"/><path class="cls-1" d="M741.28,394.07c-1.55-1.81-3.06-3.58-5.11-5.98,1.79-1.3,3.37-2.45,4.97-3.61q3.69,5.51,.14,9.6Z"/><path class="cls-1" d="M731.07,412.39q3.44-4.54,7.68-2.01c-2.21,6.87-2.53,6.97-7.68,2.01Z"/><path class="cls-1" d="M666.37,342.04c-.56,.19-1.76,1.05-2.42,.74-2.02-.95-4.11-2.1-5.56-3.72-.45-.5,1.07-2.76,1.68-4.22,1.46,1.03,3.03,1.95,4.35,3.14,.66,.6,.86,1.72,1.95,4.06Z"/><path class="cls-1" d="M657.72,264.3c3.2,2.45,4.13,4.7,2.34,7.01-.85,1.1-2.85,1.32-4.32,1.94-.33-1.47-1.14-3.05-.86-4.4,.32-1.48,1.65-2.74,2.84-4.55Z"/><path class="cls-1" d="M701.63,362.34c.35-2.57,.7-5.15,1.12-8.18,5.39,3.69,5.37,4.67,.67,8.58-.59-.13-1.19-.27-1.78-.4Z"/><path class="cls-1" d="M637.43,272.56c3.5,1.75,4.93,3.96,2.46,6.95-.66,.8-3.57,1-4.22,.32-2.92-3.08-.12-4.98,1.76-7.27Z"/><path class="cls-1" d="M636.94,304.42c.52,2.5,1.14,4.71,1.34,6.95,.06,.63-1.01,1.74-1.75,1.96-.71,.21-1.94-.22-2.48-.8-2.22-2.37-1.28-5.51,2.9-8.11Z"/><path class="cls-1" d="M698.72,373.75c4.17,1.02,4.97,3.55,3.68,6.68-.28,.68-2.69,1.26-3.51,.8-3.59-2.01-2.42-4.59-.17-7.48Z"/><path class="cls-1" d="M722.6,255.27c-2.1,2.04-3.63,3.6-5.33,4.96-.11,.09-1.98-1.32-2.21-2.23-.58-2.33,1.62-5.88,3.36-5.56,1.18,.21,2.18,1.42,4.18,2.83Z"/><path class="cls-1" d="M676.96,327.11c3.91,.34,6.13,1.56,5.35,4.91-.25,1.09-2.84,2.75-3.59,2.42-3.03-1.35-2.55-4.08-1.77-7.34Z"/><path class="cls-1" d="M758.61,435.64c1.76-2.84,3.23-5.53,6.33-3.45,.91,.61,1.2,3.99,.4,4.94-2.31,2.76-4.53,1.2-6.73-1.49Z"/><path class="cls-1" d="M670,282.12c-.47,8.78-1.12,9.12-7.35,5.12,.71-3.91,4.59-2.81,7.35-5.12Z"/><path class="cls-1" d="M721.56,278.81c-1.42-1.99-2.62-3.67-3.76-5.26,1.86-2.92,4.12-3.48,5.99-1.03,1.96,2.57,.89,4.76-2.23,6.29Z"/><path class="cls-1" d="M740.44,270.26c2.87,1.46,4.47,3.34,2.46,6.27-.46,.67-2.89,.95-3.43,.42-2.43-2.4-1.43-4.63,.97-6.68Z"/><path class="cls-1" d="M783.53,460.95c1.35-1.93,2.58-3.98,4.2-5.66,.21-.22,2.39,1.46,4.71,2.93-3.01,1.97-5.02,3.28-7.02,4.59l-1.89-1.86Z"/><path class="cls-1" d="M750.07,422.6c2.09,2.94,2.82,5.37,.05,7.29-.83,.58-3.44,.26-3.79-.41-1.8-3.38,.12-5.34,3.75-6.88Z"/><path class="cls-1" d="M803.21,464.94c-.42,8.51-1.54,9.2-7.66,5.73,2.38-1.78,4.4-3.3,7.66-5.73Z"/><path class="cls-1" d="M688.46,340.21c4.14,1.11,5.69,3.11,4.88,6-.24,.86-3.21,1.98-4.04,1.48-2.98-1.79-1.36-4.42-.84-7.48Z"/><path class="cls-1" d="M684.01,361.1c3.3,1.29,5.27,3.01,3.55,5.73-1.72,2.72-4.12,1.78-6.56-.76,.97-1.59,1.99-3.28,3.02-4.97Z"/><path class="cls-1" d="M772.3,446.69c.75-1.78,.87-2.94,1.5-3.4,1.41-1.03,3.04-1.77,4.67-2.41,.16-.06,1.51,1.83,1.31,2.11-1.03,1.46-2.27,2.84-3.69,3.91-.55,.42-1.78-.06-3.79-.22Z"/><path class="cls-1" d="M806.17,446.21c1.21,2.33,2.42,3.79,2.59,5.35,.08,.77-1.79,1.74-2.77,2.62-.87-1.51-1.99-2.94-2.47-4.57-.17-.57,1.2-1.61,2.66-3.41Z"/><path class="cls-1" d="M748.13,407.9c1.59-2.13,2.74-3.67,3.89-5.21l1.66,.27c.4,2.01,.8,4.03,1.41,7.12-2.83-.89-4.46-1.4-6.95-2.19Z"/><path class="cls-1" d="M793.63,442.95c-2.83-1.64-4.27-3.4-2.04-5.95,.54-.62,2.61-.91,3.02-.46,1.93,2.09,1.95,4.31-.98,6.42Z"/><path class="cls-1" d="M700.08,281.81c1.12-2.37,1.9-4.01,2.8-5.91,.89,.54,1.73,.75,1.92,1.21,.56,1.4,1.56,3.18,1.12,4.32-.99,2.53-3.01,1.4-5.83,.38Z"/><path class="cls-1" d="M668.43,321.34c-4.07-3.63-1.41-5.41,.73-8.1,3.63,3.89,2.37,5.95-.73,8.1Z"/><path class="cls-1" d="M763.09,417.35c1.73-1.26,3.45-2.51,5.18-3.77,.69,1.17,2.22,2.63,1.94,3.46-1.06,3.09-3.7,2.31-6,2.05l-1.12-1.75Z"/><path class="cls-1" d="M718.18,365.99c2.68,2.36,3.58,4.45,1.17,6.59-.6,.53-2.75,.41-3.23-.19-2.09-2.61-.1-4.27,2.05-6.4Z"/><path class="cls-1" d="M652.8,306.68v-7.46c5.33,2.19,5.35,2.32,0,7.46Z"/><path class="cls-1" d="M729.46,380.2c-1.9,1.37-3.33,2.4-5.53,4-.17-2.27-.77-3.83-.27-4.81,1.46-2.82,3.3-1.93,5.8,.81Z"/><path class="cls-1" d="M824.26,465.93c-1.31,.89-2.47,2.2-3.08,1.98-1.11-.41-1.89-1.71-2.81-2.65,.98-.87,2.05-2.5,2.91-2.4,1,.12,1.81,1.77,2.98,3.07Z"/><path class="cls-1" d="M647.03,294.44c-3.32-2.91-.56-4.29,1.72-5.77,.57,2.07,.89,4.09-1.72,5.77Z"/></g><path class="cls-4" d="M904.98,432.26c-3.18,14.58-8.68,28.24-16.25,41.02-2.72,4.59-6.56,8.51-10.73,13.82-3.74-3.91-6.54-6.82-9.73-10.13,8.1-6.48,14.03-13.52,18.6-21.75,1.05-1.89,3.39-3.06,4.76-4.24,0-5.21-.53-10.29,.12-15.21,1.06-8.16,3.53-16.13,2.5-24.53-.41-3.39,1.13-5.98,5.44-7.63-5.21-1.24-6.98-3.74-7.48-7.86-.7-5.79-1.42-11.77-3.43-17.17-4.44-11.95-11.44-22.3-21.34-30.62-7.48-6.28-14.15-13.58-21.92-19.46-5.38-4.07-11.95-6.63-18.11-9.57-11.05-5.28-22.02-10.84-34.27-13.01-2.18-.38-4.34-.85-6.54-1.11-4.72-.56-8.9-1.67-8.41-9.69-1.74,3.42-2.54,5.02-3.83,7.57-13.56-3.43-27.79-3.96-41.73-1.49-13.99,2.48-27.66,6.7-41.39,10.13-2.26-2.11-4.72-4.4-7.69-7.17,5.14-1.84,9.89-4.08,14.89-5.23,12.84-2.96,25.7-6.21,38.73-7.83,8.13-1,16.65,1.56,24.9,1.05,10.87-.66,20.24,4.12,30.32,6.28,9.36,2.02,18.51,4.16,27.25,8.34,5.64,2.71,12.27,3.39,17.9,6.12,5.91,2.86,11.14,7.11,16.71,10.72,11.47,7.44,20.34,17.79,29.95,27.26,4.28,4.21,7.55,9.73,10.27,15.16,4.5,9,8.83,18.07,11.01,28.1,2.79,12.83,2.27,25.4-.49,38.09Z"/><path class="cls-2" d="M825.41,324.32c-12.76,25.66-24.73,49.74-36.78,73.77-.16,.33-1.34,.15-2.45,.25-.38-5.41-.92-10.65-1.06-15.9-.17-6.33,.23-12.66-.05-18.96-.26-6.09-.93-12.18-1.7-18.22-.98-7.74-3.14-15.3-1.44-23.32,.73-3.41-.45-7.24-.82-11.55,16.11,.27,28.77,9.84,44.3,13.94Z"/><path class="cls-2" d="M871.79,362.08c-25.8,7.92-47.59,22.76-72.41,30.41-.41-.42-.82-.84-1.22-1.25,3.06-5.33,6.06-10.69,9.22-15.97,1.98-3.33,4.48-6.38,6.21-9.82,5.28-10.46,10.32-21.03,15.39-31.59,2.78-5.78,5.5-7.12,10.08-3.24,10.29,8.71,20.1,17.99,30.05,27.1,.84,.78,1.27,2.02,2.68,4.38Z"/><path class="cls-2" d="M769.18,382.3c-.52,.42-1.05,.83-1.58,1.24-4.26-3.62-8.42-7.36-12.79-10.84-11.35-9.05-23.36-17.36-34.03-27.14-9.13-8.37-18.72-16.62-25.87-28.24,10.73-3.59,20.81-7.62,32.85-9.02,13.34,24.74,28.49,48.74,41.42,73.99Z"/><path class="cls-2" d="M780.94,394.04c-16.86-29.42-26.55-60.88-47.71-86.23,14.18-3.52,27.1-1.07,40.48,.43,3.84,27.91,6.33,55.83,7.23,85.8Z"/><path class="cls-2" d="M879.91,442.7c-11.61-4.93-22.44-9.39-33.12-14.18-3.07-1.39-5.77-3.66-8.52-5.68-7.31-5.39-14.42-11.08-23.57-13.18-.85-.2-1.6-.84-2.2-2.64,8.41-.39,16.82-.98,25.23-1.12,9.74-.15,19.5-.12,29.23,.23,6.78,.25,13.52,1.16,20.43,1.8,1.66,13.13-2.81,23.87-7.47,34.78Z"/><path class="cls-2" d="M886.05,400.91c-14.48-1.03-28.32-2.66-42.19-2.84-13.92-.19-27.85,1.05-42.03,.99,4.8-4.52,11.44-5.14,16.99-7.97,6.12-3.11,12.42-5.88,18.68-8.72,6.02-2.73,12.12-5.3,18.14-8.05,6.01-2.74,11.98-5.6,17.98-8.43,8.45,10.22,12.49,21.81,12.42,35.03Z"/><path class="cls-2" d="M864.69,471.96c-26.22-18.14-47.74-40.59-69.36-63.38,2.06,.5,4.28,.69,6.17,1.58,7.07,3.3,14.2,6.3,20.82,10.73,10.34,6.9,21.49,12.62,32.51,18.46,6.87,3.64,14.11,6.6,21.51,10.01-2.43,9.25-13.01,12.52-11.66,22.6Z"/></g><path d="M589.12,632.58c-6.26-4.49-3.38-11.13-4.13-16.57-1.19-8.67-.53-17.58-1-26.38-.82-15.48-1.57-30.97-2.97-46.4-.85-9.38,.2-18.61,.58-27.91,.11-2.83,.02-5.68-.74-8.75-17.39,21.4-33.2,43.7-51.67,64.29-15.89-16.38-31.09-32.04-46.54-47.96-.96,1.3-1.68,1.82-1.7,2.37-.72,20.63-1.3,41.26-2.08,61.89-.46,12.24-1.12,24.48-1.91,36.7-.29,4.44-2.7,6.32-6.87,6.58-5.33,.33-10.65,.96-15.98,1.25-11.03,.59-22.06,1.05-33.09,1.52-.67,.03-1.35-.39-2.65-.79-.4-26.48-.7-53.01-1.26-79.53-.26-12.3-1.16-24.58-1.53-36.87-.12-3.87,.71-7.77,.77-11.65,.19-12.92,.36-25.83,.28-38.75-.04-7.13-.72-14.25-.9-21.38-.27-10.83-.32-21.66-.56-32.49-.07-3.18-.69-6.35-.66-9.52,.02-2.61,.62-5.21,.91-7.38,1.15-.53,1.66-1,2.02-.9,13.2,3.39,26.34,.43,39.49-.36,6.35-.38,12.67-1.35,19.02-1.63,1.56-.07,4.12,1.15,4.64,2.42,5.03,12.26,13.61,22.12,21.28,32.64,6.64,9.11,12.48,18.81,18.98,28.04,2.52,3.58,5.89,6.57,9.45,10.45,2.42-2.53,4.67-4.64,6.63-6.97,10.92-12.99,21.81-26.01,32.62-39.1,2.03-2.46,4.02-5.1,5.35-7.97,3.56-7.72,10.7-12.34,15.8-18.72,1.1-1.38,3.91-1.76,5.99-1.93,4.87-.41,9.77-.33,14.65-.61,6.87-.39,13.75-.76,20.59-1.46,5.85-.6,11.65-1.67,17.49-2.47,2.53-.35,5.08-.54,7.75-.81-2.45,15.69-2.28,30.44-.71,45.24,.28,2.62-.56,5.34-.58,8.01-.11,12.21-.24,24.42-.13,36.63,.15,15.87,.77,31.74,.71,47.6-.04,8.32-1.68,16.64-1.58,24.95,.15,12.24,1.38,24.47,1.81,36.72,.34,9.55,.14,19.12,.22,28.68,.02,3.38,.28,6.77,.12,10.14-.06,1.27-1,2.49-1.9,4.56-1.43-2.03-2.34-3.31-3.61-5.11-11.55,4.53-24.03,5.68-36.65,6.05-3.14,.09-6.48,.69-9.34,1.95-5.49,2.41-11.03,2.03-16.39,1.72Zm3.44-6.06c4.76-.58,9.42-.01,12.82-1.82,6-3.2,12.13-3.22,18.46-3.49,8.03-.34,16.21,.05,23.48-3.49,.67-14.17,1.67-27.9,1.9-41.65,.32-19.47,.11-38.95,.05-58.42,0-2.69-.63-5.38-.64-8.07-.07-13.05-.02-26.11-.04-39.16,0-5.61,0-11.22-.13-16.83-.16-7.06-.57-14.12-.63-21.19-.11-12.5-.03-25.01-.03-37.73-3.91,0-7.84-.46-11.62,.09-10.95,1.6-21.86,2.77-32.97,1.66-3.2-.32-7.06-.29-9.43,2.75-9.21,11.81-18.29,23.72-27.42,35.58-7.46,9.68-14.91,19.37-22.41,29.02-1.9,2.45-4.22,4.6-5.95,7.16-3.02,4.44-4.6,5.09-8.9,2.08-2.34-1.64-4.41-3.84-6.16-6.12-3.89-5.09-7.44-10.44-11.25-15.6-11.41-15.45-23.33-30.54-34.09-46.42-4.24-6.26-8.87-7.41-15.46-6.8-11,1.01-22.03,1.62-33.05,2.39-1.68,.12-3.35,.18-5.77,.31-.26,2.84-.78,5.43-.7,7.99,.4,13.05,.95,26.1,1.46,39.14,.21,5.42,.55,10.83,.64,16.25,.28,17.49,.71,34.99,.61,52.49-.06,12-1.22,24-1.3,36.01-.1,16.2,.41,32.4,.58,48.61,.09,8.03,.02,16.05,.02,24.38,15.39,1.67,29.96-2.3,45.23-3.58,.63-3.13,1.61-5.95,1.72-8.81,.7-17.47,1.5-34.95,1.69-52.44,.15-14.72-.56-29.44-.74-44.16-.07-5.6,.12-5.6,6.56-6.37,16.09,16.56,32.01,32.95,48.23,49.64,4.12-4.69,7.75-8.68,11.22-12.82,6.93-8.27,14.37-16.21,20.47-25.06,6.06-8.8,13.83-15.85,20.93-23.6,.82-.89,1.89-1.58,2.93-2.23,2.57-1.59,5.02-.99,5.79,1.86,1.21,4.47,2.64,9.05,2.72,13.61,.29,16.37,.09,32.74,0,49.12-.03,6.87-.46,13.73-.3,20.59,.34,14.7,.95,29.4,1.48,45.13Z"/><path d="M762.66,536.03c-3.26-5.87-7.12-5.5-11.38-4.02-3.24,1.12-6.59,1.97-9.95,2.72-3.89,.87-5.28,3.7-5.07,7.08,.49,7.81,1.41,15.59,2.2,23.83,15.87,1.66,31.33-1.21,47.01-2.24,.2,1.89,.74,3.22,.32,3.72-3.88,4.56-2.22,9.87-1.99,14.85,.5,10.74,1.55,21.46,2.09,32.2,.14,2.68-.81,5.41-1.25,8.12l-1.8,.27c-1.21-2.22-2.42-4.45-3.64-6.69-10.01,1.24-19.8,3.94-30.18,3.27-9.5-.62-19.12,.23-28.67,.85-4.83,.32-9.58,1.67-14.4,2.38-7.01,1.03-14.02,2.12-21.07,2.72-2.48,.21-5.07-.96-7.11-1.39,1.02-3.91,2.34-6.97,2.54-10.1,.8-12.27,1.49-24.56,1.77-36.85,.22-9.6-.25-19.22-.35-28.83-.04-3.64,.26-7.29,.12-10.93-.66-17.17-1.42-34.33-2.11-51.5-.06-1.44,.19-2.9,.29-4.34,.29-4.17,.81-8.34,.8-12.51-.02-11.07-1.06-22.2-.2-33.19,1-12.77-1.94-25.4-.28-38.11,.22-1.68,.03-3.46-.26-5.15-1.08-6.15-.28-7.62,6.38-8.02,7.36-.45,14.79,.16,22.15-.24,10.5-.56,20.98-1.63,31.47-2.44,3.68-.28,7.37-.43,11.05-.61,6.32-.3,12.94,.52,18.87-1.14,6.7-1.87,13.37-2.66,20.16-3.27,.67-.06,1.38,.26,1.92,.37,.41,.56,.98,.97,.94,1.32-.99,10.01-.61,19.85,.86,29.9,1.19,8.09-.43,16.59-.8,24.81-18.33,8.79-38.7,9.05-58.07,15.07-.28,9.36-.58,18.7-.81,28.04-.07,2.74,1.59,4.21,4.15,4.07,6.39-.34,13.16,.35,17.82-5.51,5.87,3.46,7.55,8.43,7.34,14.94-.23,7.03,.84,14.09,1.07,21.15,.23,6.86,.19,13.74,.11,20.61-.01,1.07-.88,2.13-2.07,4.79Zm-33.18-47.11c-.43-11.94-.76-22.26-1.19-32.57-.11-2.68-.3-5.38-.83-8-.88-4.31,1.3-7.48,5.7-7.9,2.18-.21,4.38-.4,6.52-.84,7.93-1.63,15.77-3.89,23.77-4.9,6.84-.86,12.59-3.96,18.59-6.71,3.32-1.52,4.54-4.18,3.99-7.83-.55-3.63-1.57-7.4-1.07-10.92,1.27-8.91-2.12-16.57-4.8-24.54-10.71,.74-20.51,3.9-30.79,4.59-5.19,.35-10.1-.94-15.15-.37-9.22,1.03-18.45,1.93-27.68,2.92-6.03,.65-12.05,1.38-18.79,2.16-.42,15.39-.81,30.77-1.3,46.15-.14,4.39-1.18,8.84-.7,13.14,1.49,13.37,2.79,26.73,2.75,40.21-.04,12.85,2.08,25.66,.81,38.54-.42,4.32-1.34,8.63-1.39,12.96-.2,17.62-.21,35.25-.15,52.87,.02,6.54,.42,13.08,.67,20.5,5.03-.53,9.37-.87,13.68-1.46,6.54-.89,13.02-2.31,19.58-2.84,7.59-.61,15.26-.21,22.86-.76,8.81-.64,17.58-1.76,26.36-2.83,2.34-.28,4.61-1.12,6.12-1.5,.41-8.45,.81-15.99,1.1-23.53,.07-1.7,.28-4.59-.49-4.94-4.45-2.05-1.67-6.34-2.91-9.19-6.7,.41-13.02,.85-19.35,1.19-6.86,.36-13.72,.73-20.59,.85-1.22,.02-2.46-1.09-2.68-1.2,.18-8.45,.6-16.02,.4-23.58-.09-3.43,.7-7.55-3.66-9.75-.68-.34-.98-2.99-.41-3.95,1.55-2.59,2.79-5.18,6.76-5.9,6.23-1.13,12.24-3.58,18.29-5.63,4.04-1.37,5.75-4.55,5.36-8.64-.78-8.06-1.62-16.13-2.75-24.15-.56-4-2.49-4.88-6.25-4.31-6.44,.97-12.92,1.7-20.4,2.66Z"/><path d="M379.01,393.72c3.84,5.31,3.84,11.24,3.84,17.47,0,18.66,.64,37.32,.84,55.98,.08,7.48-.4,14.97-.45,22.45-.03,4.13,.41,8.26,.45,12.39,.1,9.75,1.43,19.74-.21,29.21-2.35,13.54,.64,26.8-.25,40.21-.9,13.48-.16,27.07-.13,40.62,0,4.86,.4,9.75-.05,14.57-.56,5.97-1.54,6.59-7.37,6.59-7.6,0-15.21-.2-22.81-.05-4.39,.09-8.79,.51-13.13,1.18-1.42,.22-2.65,1.66-4.65,2.99-.55-2.09-1.25-3.61-1.32-5.15-.57-12.77-1.03-25.54-1.52-38.31-.06-1.48,.16-3.04-.24-4.42-5.21-17.95-2.03-36.09-1.39-54.19,.4-11.32,.73-22.68,.33-34-.69-19.16-2.29-38.28-2.93-57.43-.51-15.44-.18-30.9-.19-46.36,0-.97,.16-1.98,.46-2.89,.22-.65,.81-1.18,1.6-2.28,.76,.62,1.49,1.08,2.02,1.71,.46,.54,.7,1.27,1.17,2.19,7.75,0,15.88-1.32,23.33,.35,8.21,1.84,14.29-5.41,22.6-2.84Zm-1.03,229.74c-.49-4.57-1.18-8.43-1.24-12.3-.1-5.58,.41-11.17,.39-16.75-.04-15.04-.3-30.07-.31-45.11,0-3.92,.62-7.83,.92-11.75,.32-4.16,.92-8.34,.84-12.5-.37-19.89-1.06-39.77-1.36-59.65-.23-14.72,.09-29.45-.11-44.18-.1-7.07-.84-14.14-1.23-20.35-5.73,.31-10.77,.84-15.8,.78-7.13-.09-14.25-.62-21.37-.99-2.95-.15-4.75,.86-4.67,4.15,.14,6.04,.19,12.09,.34,18.13,.43,17.45,.91,34.89,1.33,52.34,.1,4.19-.31,8.41,.12,12.56,1.05,10.21,2.77,20.37,1.16,30.69-.22,1.43,.02,2.94,.06,4.41,.38,11.73,.84,23.46,1.12,35.19,.36,15.08,.5,30.16,.88,45.23,.18,7.05,.71,14.09,1.14,22.17,5.14-.37,9.7-.7,14.26-1.04,5.1-.38,10.49-1.95,15.2-.78,3.12,.78,5.31,.73,8.33-.26Z"/><path d="M318.1,417.06c2.34,3.76,2.41,7.27,1.12,10.77-.89,2.4-2.85,2.51-4.59,1.01-4.87-4.18-3.49-9.22,3.47-11.78Z"/><path d="M390.56,451.02c6.77,.92,9,3.82,7.28,8.74-.43,1.24-2.15,2.59-3.48,2.84-2.02,.39-4.07-.58-4.16-3.08-.1-2.65,.21-5.32,.36-8.5Z"/><path d="M728.85,646.44c.07,5.76-1.71,9.37-5.15,9.98-1.26,.22-3.22-.14-3.92-1-.62-.76-.39-2.9,.28-3.87,2.06-2.99,4.53-5.66,8.78-5.12Z"/><path d="M687.95,654.24c2.15-1.71,3.73-3.36,5.65-4.34,.95-.48,2.99-.17,3.74,.58,1.63,1.62-.41,7.07-3.34,8.78-2.6,1.52-4.11-.08-5.05-2.45-.27-.68-.53-1.36-1-2.58Z"/><path d="M773.51,447.41c2.23,.44,4.71,.48,4.06,3.81-.71,3.65-4,6.92-6.68,6.62-2.92-.33-3.03-2.5-2.12-4.3,1.05-2.08,2.87-3.78,4.74-6.13Z"/><path d="M324.95,612.52c.8,3.32,1.5,6.22,2.38,9.86h-9.59c1.32-4.28,.94-8.33,7.21-9.86Z"/><path d="M306.43,571.48c-6.92-3.63-7.23-7.49-.93-11.86,4.44,5.86,4.49,6.57,.93,11.86Z"/><path d="M319.93,583.92c-4.84-5.02-4.81-5.62,.34-11.41,5.61,5.15,5.61,6.12-.34,11.41Z"/><path d="M317.83,442.18c2.47,.06,3.8,1.58,3.35,3.78-.51,2.51-.79,5.72-4.45,5.9-2.59,.13-3.29-1.63-3.24-3.9,.08-3.46,1.81-5.78,4.34-5.78Z"/><path d="M302.3,495.74c3.25,2.12,3.83,4.99,3.41,7.94-.16,1.1-1.62,2.61-2.7,2.8-1,.18-2.77-.86-3.34-1.85-2.02-3.51-1.11-6.52,2.63-8.9Z"/><path d="M323.05,647.08c-5.17-5.15-5.04-9.03-.07-13.14,3.69,4.17,2.1,8.21,.07,13.14Z"/><path d="M406.22,399.72c4.37,6.65,4.26,7.4-1.31,11.07-4.26-6.16-4.21-6.78,1.31-11.07Z"/><path d="M673.45,494.64c-3.64,1.15-6.68,1.09-7.29-2.18-.71-3.77,2.18-5.85,6.49-8.63,.35,4.67,.58,7.79,.81,10.8Z"/><path d="M571.45,630.95c3.99,2.16,4.46,5.12,4.15,7.97-.11,1.02-2.12,2.36-3.45,2.61-2.18,.41-4.14-.84-3.65-3.28,.48-2.41,1.84-4.65,2.95-7.3Z"/><path d="M313.92,533.44c2.1-3.4,2.58-7.75,6.8-5.95,1.48,.63,2.9,5.38,2.02,6.82-2.5,4.06-5.22,.31-8.82-.87Z"/><path d="M395.26,473.54c.41,2.91,.82,5.83,1.23,8.8-3.84,1.75-6.17,.83-7.13-2.22-1.1-3.52,1.58-5.16,3.77-6.85l2.12,.27Z"/><path d="M301.88,534.14c5.15,3.1,5.08,6.38,4.9,9.46-.06,1.04-1.55,2-2.38,3-.84-.76-2.32-1.45-2.4-2.28-.3-2.94-.12-5.93-.12-10.18Z"/><path d="M302.31,437.02c4.34,2.21,4.25,5.08,3.27,7.48-.54,1.31-2.9,2.72-4.32,2.6-2.1-.18-3.11-2.28-2.18-4.44,.81-1.87,2.02-3.57,3.23-5.64Z"/><path d="M344.75,659.84c-1.66,2.3-3.31,4.57-4.94,6.83-3.56-1.47-5.09-3.39-3.41-6.51,1.42-2.65,4.45-2.81,8.35-.32Z"/><path d="M743.62,546.46c-1.08-7.4-.18-8.59,6.56-8.73,.23,5.66-.38,6.47-6.56,8.73Z"/><path d="M405.92,589.81c4.17,3.36,6.33,5.69,3.98,9.24-.63,.95-2.44,1.89-3.41,1.65-1.05-.26-2.5-1.94-2.46-2.95,.09-2.25,1-4.47,1.89-7.94Z"/><path d="M556.47,627.93c-3.3,.68-4.4-1.43-4.72-4.05-.42-3.48,2.68-4.11,4.61-5.84q2.55,4.08,.11,9.89Z"/><path d="M442.64,646.14c-.09-5.4,2.21-8.02,6.58-9.36,1.6,5.64,0,7.98-6.58,9.36Z"/><path d="M572.37,609.62c3.96,6.9,3.27,8.62-4.01,10-.65-4.19,.51-7.41,4.01-10Z"/><path d="M554.07,665.43c-2.56-5.14-1.84-6.8,3.98-10.03q2.87,4.95-3.98,10.03Z"/><path d="M671.23,411.57c3.29,7.06,2.61,9.08-3.37,11.68-1.04-4.32-.49-7.91,3.37-11.68Z"/><path d="M674.33,445.02c-2.65-1.62-4.72-2.88-7.6-4.64,1.38-1.8,2.84-3.72,4.31-5.64,4.37,3.18,4.43,3.38,3.29,10.28Z"/><path d="M753.48,458.05c-.64-4.88-.43-8.52,4.78-9.63,3.19,4.57,2.05,7.26-4.78,9.63Z"/><path d="M556.79,640.93c3.11,4.41,3.05,4.92-1.2,9.88-4.82-4.88-4.75-5.43,1.2-9.88Z"/><path d="M555.76,577.57c3.5,2.5,5.08,4.72,3.68,7.91-.5,1.13-2.17,2.85-2.67,2.66-1.36-.53-3.4-2.01-3.33-2.98,.17-2.39,1.37-4.7,2.33-7.58Z"/><path d="M395.67,651.9c-6.53-1.96-6.65-5.12-1.23-9.85,3.96,2.97,.35,6.59,1.23,9.85Z"/><path d="M673.15,537.25c-.94,2.89-1.66,5.13-2.68,8.25-2.64-1.2-4.9-2.23-7.28-3.31q4.03-4.97,9.96-4.94Z"/><path d="M427.44,664.74c-.13-2.4-.58-3.94-.18-5.2,.47-1.45,1.57-3.56,2.64-3.71,1.2-.18,3.5,1.29,3.81,2.44,.4,1.5-.29,3.69-1.27,5.03-.65,.89-2.62,.82-5,1.44Z"/><path d="M670.26,512.65c2.56,7.85,2.32,8.31-4.5,9.49q-.58-5.82,4.5-9.49Z"/><path d="M303.37,418.82c3.18,3.06,3.33,6.14,1.75,9.39-3.34,1.11-5.25-.72-6.01-3.06-.99-3.03,1.02-4.94,4.26-6.33Z"/><path d="M670.75,390.7c5.01,2.73,6.4,5.37,3.12,9.69-2-.67-4.15-1.4-7.22-2.43,1.37-2.43,2.58-4.57,4.09-7.26Z"/><path d="M548.45,560.41c1.83-2.77,3.56-4.96,6.45-2.06,2.09,2.09,1.24,4.6-2.64,7.91-1.3-1.99-2.56-3.92-3.81-5.85Z"/><path d="M301.02,477.76c3.43,3.23,4.99,6.06,1.1,9.37-6.61-4.47-6.75-5.41-1.1-9.37Z"/><path d="M407.12,494.3c3.62,2.97,2.79,6,1.05,8.58-.57,.84-3.05,.76-4.48,.41-.47-.11-.94-2.67-.47-3.67,.87-1.86,2.43-3.39,3.91-5.32Z"/><path d="M664.97,623.74c1.88-2.32,3.16-3.9,4.47-5.51,4.03,3.57,5.07,6.24,3.08,7.89-2.99,2.48-4.62-.34-7.55-2.38Z"/><path d="M743.12,627.47c1.97,5.4-.74,7.7-4.39,9.69-3.09-5.52-2.89-6.01,4.39-9.69Z"/><path d="M392.91,426.02c4.74,4.79,3.98,8.7,2.77,13.82-4.97-4.23-4.11-8.21-2.77-13.82Z"/><path d="M391.54,399.4c1.26,5.17,2.1,8.61,3.13,12.87-1.57-.29-3.86-.14-4.16-.85-1.48-3.44-2.75-7.13,1.03-12.01Z"/><path d="M706.32,661.04c-.22-4.93-1.11-9.09,4.3-10.86,1.69,5.85,1.1,7.56-4.3,10.86Z"/><path d="M318.09,507.89c.38,2.22,1.08,4.45,.98,6.65-.04,.88-2.28,2.58-2.79,2.34-1.28-.6-3.06-2.18-2.96-3.2,.2-2,1.54-3.88,2.42-5.82l2.36,.03Z"/><path d="M408.77,455.47c.52,3.65-.29,5.48-2.73,5.11-1.3-.2-2.93-1.71-3.41-3-.74-1.97,2.21-5.74,3.77-5.05,1.34,.6,2.08,2.55,2.37,2.94Z"/><path d="M673.68,653.46c3.18,2.97,2.81,5.72,1.76,8.06-.47,1.05-2.65,1.34-4.05,1.98-.39-1.25-1.36-2.68-1.05-3.72,.59-1.98,1.91-3.74,3.34-6.32Z"/><path d="M674.33,566.48c-1.96-.35-3.51-.63-5.59-1,.69-2.22,.96-4.17,1.91-5.71,.59-.96,2.21-1.28,3.37-1.89,.61,1.19,1.69,2.38,1.7,3.58,.01,1.57-.83,3.14-1.4,5.02Z"/><path d="M574.95,580.97c-7.26-3.53-7.65-6.68-2.1-11.86,.69,3.92,1.27,7.19,2.1,11.86Z"/><path d="M307.1,647.65c2.06,4.46,1.3,7.49-1.37,10.47-3.69-4.59-3.62-5.17,1.37-10.47Z"/><path d="M410.56,614.69c-.3,2.21-.21,4.59-1.08,6.54-.39,.88-2.71,.9-4.15,1.32-.33-1.27-1.3-2.84-.87-3.74,.91-1.87,2.56-3.38,3.91-5.04,.73,.31,1.46,.61,2.19,.92Z"/><path d="M410.54,636.21c.14,2.67,.4,5.35,.31,8.01-.02,.58-1.28,1.53-1.99,1.55-.72,.03-2.01-.78-2.12-1.4-.55-2.99-1.29-6.16,1.6-8.34,.73,.06,1.47,.12,2.2,.17Z"/><path d="M407.07,562.89c2.87,2.83,5.77,4.98,2.62,8.35-.78,.84-3.69,1.07-4.38,.37-3.05-3.12-.38-5.55,1.76-8.72Z"/><path d="M445.25,667.19c-1.42-.8-3.56-1.28-4.09-2.47-.94-2.12,1.27-4.65,4.95-6.06,.2,2.46,.38,4.75,.56,7.03-.47,.5-.95,1-1.42,1.5Z"/><path d="M739.49,461.19c-1.26-4.6,.03-7.21,3.78-8.76,2.46,4.43,1.99,5.69-3.78,8.76Z"/><path d="M709.68,638.55c-2.42-6.57-2.23-7.03,3.92-9.95,.72,3.99-.23,7.06-3.92,9.95Z"/><path d="M725.21,637.58c-.51-.9-1.55-1.98-1.68-3.15-.28-2.53,2.47-6.02,4.5-5.66,.89,.16,2.21,1.99,2.08,2.89-.36,2.53-.53,5.62-4.9,5.92Z"/><path d="M597.08,647.49c.31,2.36,1.04,4.14,.6,5.58-.39,1.3-2.05,2.21-3.15,3.3-.98-1.25-2.45-2.38-2.83-3.79-.53-2,.45-2.75,5.37-5.09Z"/><path d="M318.15,661.83c1.47-2.04,2.95-4.08,4.71-6.51,2.57,2.66,3.8,5.2,1.94,7.51-.92,1.15-3.63,.85-5.53,1.21-.37-.74-.75-1.48-1.12-2.21Z"/><path d="M557.93,599.33c.32,2.13,.97,4.29,.79,6.38-.07,.8-2.17,2.13-3.11,1.96-.97-.18-2.43-1.99-2.31-2.92,.23-1.93,1.37-3.74,2.13-5.6l2.5,.18Z"/><path d="M673.06,460.48c1.21,2.45,2.18,3.65,2.35,4.95,.16,1.25-.16,2.88-.92,3.82-.46,.58-2.66,.65-3.17,.11-1.03-1.09-2.13-2.88-1.92-4.17,.23-1.4,1.91-2.57,3.67-4.7Z"/><path d="M432.85,643.99c-2.78,2.69-4.41,4.27-6.34,6.13-2.82-3.23-2.48-5.96,0-7.83,.86-.65,3.32,.82,6.34,1.7Z"/><path d="M408.09,541.7q3.12,4.3-1.03,8.16-4.11-3.75,1.03-8.16Z"/><path d="M326.2,551.64c-2.07,1.79-3.33,2.88-4.59,3.96-.89-1.49-2.38-2.95-2.48-4.49-.07-1.14,1.66-2.39,2.59-3.6,1.23,1.13,2.45,2.26,4.48,4.12Z"/><path d="M302.22,528.05c-1.54-2.88-2.88-4.23-2.69-5.3,.29-1.61,1.66-3.03,2.57-4.54,1.12,1.33,2.94,2.55,3.17,4.02,.2,1.28-1.39,2.84-3.05,5.82Z"/><path d="M389.88,505.67c.76-3.68,1.39-6.73,2.12-10.29,4.88,4.75,4.3,8.06-2.12,10.29Z"/><path d="M313.22,472.62c.31-1.7,.11-3.51,.9-4.25,1.23-1.15,3.09-1.75,4.79-2.17,.31-.08,1.83,2.18,1.55,2.8-.71,1.58-1.93,3.12-3.33,4.13-.69,.49-2.25-.25-3.9-.5Z"/><path d="M403.84,428.2c1.3,.72,2.02,.95,2.52,1.41,2.39,2.27,.68,4.51-.32,6.6-.23,.48-2.45,.58-2.48,.48-.51-1.75-1-3.54-1.11-5.35-.05-.83,.72-1.7,1.4-3.15Z"/><path d="M303.73,458.75c.74,3.61,1.25,6.12,1.72,8.41-2.26,2.33-3.81,1.56-5-.44-1.6-2.7-1.17-3.91,3.27-7.97Z"/><path d="M396.11,657.27c2.2,3.26,2.62,5.78,.19,8.33-6.12-3.33-6.16-4.09-.19-8.33Z"/><path d="M406.48,473.55c.82,2.34,1.51,3.43,1.51,4.52,0,1.33-.31,2.85-1.04,3.88-.3,.43-2.67,.19-3.05-.41-.8-1.26-1.41-3.06-1.14-4.46,.2-1.07,1.87-1.86,3.73-3.53Z"/><path d="M671.98,634.8c2.39,2.47,3.65,4.77,1.1,7.15-.59,.55-3.08,.21-3.56-.49-1.81-2.67-.95-4.91,2.46-6.66Z"/><path d="M614.13,633.93c.47,1.77,1.17,2.93,.95,3.88-.33,1.44-1.18,2.82-2.11,4-.2,.26-2.26-.28-2.38-.73-.38-1.5-.69-3.28-.19-4.65,.36-.97,2.07-1.45,3.73-2.5Z"/><path d="M592.18,635.23c-.23,2.85-.05,4.31-.53,5.52-.46,1.16-1.46,2.27-2.51,2.94-.42,.27-2.17-.53-2.36-1.13-.39-1.28-.7-3.18-.03-4.03,.98-1.25,2.85-1.82,5.42-3.29Z"/><path d="M394.04,612.7c4.53,4.94,4.48,5.84-.03,9.02-3.11-2.74-2.07-5.52,.03-9.02Z"/><path d="M317.55,601.8c.81-2.43,.95-3.72,1.61-4.62,.76-1.03,1.9-1.95,3.07-2.43,.43-.18,2,.99,2.05,1.63,.11,1.35,.03,3.38-.8,3.98-1.26,.92-3.23,.86-5.92,1.43Z"/><path d="M491.26,552.72c-2.33-3.55-2.42-6.54-.68-9.88,5.93,5.24,5.94,5.3,.68,9.88Z"/><path d="M398.69,546.77c-2.04,1.9-3.43,3.43-5.11,4.5-.29,.19-2.81-2.22-2.68-2.44,1.05-1.74,2.39-3.38,3.94-4.67,.26-.22,2.01,1.35,3.84,2.62Z"/><path d="M655.25,651.8c2.02,3.12,2.4,5.77-.68,7.79-.55,.36-2.28,0-2.58-.53-1.87-3.37,.06-5.4,3.26-7.25Z"/><path d="M572.48,550.69c.77,2.97,1.61,4.71,1.57,6.43-.05,2.43-1.95,3.58-4.01,2.5-.97-.51-1.72-2.79-1.43-4,.33-1.41,1.9-2.54,3.87-4.92Z"/><path d="M754.92,460.67c3.6,6.28,2.82,8.39-3.7,9.84,1.29-3.43,2.35-6.26,3.7-9.84Z"/><path d="M510.2,574.97c.76-2.46,1.43-4.64,2.24-7.26,3.42,1.22,3.88,3.45,3.27,5.85-.67,2.63-2.67,2.27-5.51,1.41Z"/><path d="M671.68,610.33c-2.69-2.69-4.43-4.89-1.48-7.67,.56-.53,2.61-.46,3.08,.09,2.14,2.5,1.38,4.82-1.6,7.59Z"/><path d="M309.11,627.59c.72,4.04,2.76,6.81-1.01,8.33-.82,.33-2.85-.35-3.14-1.05-1.34-3.3,1.29-4.59,4.15-7.28Z"/><path d="M653.63,634.82c1.03,3.25,.64,6-2.11,8.31-3.76-4.37-3.31-6.03,2.11-8.31Z"/><path d="M395.61,565.02c.45,2.5,.9,3.48,.72,4.33-.36,1.77-.99,3.5-1.69,5.16-.09,.2-1.88,.01-1.9-.13-.27-2.02-.61-4.1-.39-6.1,.09-.83,1.45-1.53,3.26-3.27Z"/><path d="M689.77,642.26c-.68-.55-.97-.66-1.02-.84-.78-2.76-.85-5.39,2.28-6.72,.55-.23,2.16,.52,2.3,1.07,.76,2.98-.36,5.17-3.56,6.48Z"/><path d="M618.16,651.52c-2.01,1.62-3.21,3.07-4.72,3.54-.55,.17-2.76-2.24-2.56-3.09,.35-1.51,1.96-2.73,3.04-4.07,1.14,.97,2.29,1.95,4.24,3.62Z"/><path d="M574.42,530.91c-.61,2.59-.86,4.88-1.82,6.83-.23,.47-2.8-.2-4.86-.41,1.18-3.59,1.87-6.33,6.68-6.42Z"/><path d="M407.45,520.8c2.61,2.29,3.32,4.72,.82,6.95-.64,.57-3.63-.12-4.12-1.01-1.84-3.37,1.06-4.46,3.3-5.94Z"/><path d="M739.15,656.25c-4.85-3.91-4.86-4.12-.93-8.27,2.25,2.35,2.54,4.8,.93,8.27Z"/><path d="M575.92,652.47c1.65,3.93,1.93,6.93-2.85,9.14-.73-3.8-2.31-7.19,2.85-9.14Z"/><path d="M323.86,488.69c-2.94,1.32-4.53,2.67-5.5,2.32-1.13-.42-2.19-2.27-2.35-3.6-.09-.8,1.92-2.71,2.46-2.54,1.5,.5,2.73,1.83,5.39,3.82Z"/><path d="M391.17,518.29c4.92,4.16,4.89,4.42-1.06,10.03,.41-3.91,.7-6.62,1.06-10.03Z"/><path d="M503.05,555.37c3.88,2.99,4.76,5.1,2.52,7.24-.65,.62-2.45,.04-3.72,0,.34-2.05,.68-4.1,1.19-7.24Z"/><path d="M671.84,579.88c2.68,1.97,3.62,4.05,1.41,6.24-.58,.57-2.99,.37-3.57-.32-2.14-2.52-.56-4.27,2.16-5.93Z"/><path d="M393.62,591.91c3.36,1.35,4.46,3.4,3.18,6.01-.33,.68-3.09,1.12-3.71,.55-2.14-1.98-1.69-4.26,.52-6.56Z"/><path d="M572.6,594.9c3.49,4.35,3.42,4.55-2.54,6.25-1.05-2.91-.39-4.99,2.54-6.25Z"/><path d="M410.85,664.82c1.83-3.31,3-5.44,4.51-8.18,2.45,6.61,2.27,6.99-4.51,8.18Z"/><path d="M338,645.99c.27-2.42,.5-4.53,.73-6.56,3.51-.23,4.2,1.58,4.14,3.57-.06,2.4-1.75,3.1-4.87,2.99Z"/><path d="M360.21,645.44c-1.56-3.09-1.54-5.26,1.22-6.62,.61-.3,2.33,.24,2.55,.79,1.14,2.86-.44,4.43-3.78,5.83Z"/><path d="M490.43,559.33q2.9,5.29,.18,8.19c-3.23-2.2-.93-4.45-.18-8.19Z"/><path d="M741.74,465.96c3.48,3.69,3.53,5.87,1.44,7.8-.41,.38-2.51-.28-2.51-.34,.19-2.1,.55-4.18,1.07-7.46Z"/><path d="M499.53,575.98c2.43,1.17,4.13,2.65,2.08,5.43-.38,.52-2.05,.84-2.45,.48-2.17-1.93-2.35-3.99,.37-5.92Z"/><path d="M358.44,655.19c1.43,2.9,1.43,5.21-4.35,6.29,.98-2.96,1.64-4.97,2.3-6.98,.68,.23,1.36,.46,2.04,.69Z"/><path class="cls-4" d="M592.56,626.52c-.53-15.73-1.14-30.43-1.48-45.13-.16-6.86,.27-13.73,.3-20.59,.08-16.37,.28-32.75,0-49.12-.08-4.56-1.51-9.14-2.72-13.61-.77-2.84-3.22-3.45-5.79-1.86-1.04,.64-2.11,1.34-2.93,2.23-7.1,7.75-14.86,14.8-20.93,23.6-6.1,8.85-13.54,16.79-20.47,25.06-3.46,4.14-7.1,8.13-11.22,12.82-16.22-16.69-32.14-33.08-48.23-49.64-6.44,.76-6.63,.77-6.56,6.37,.18,14.72,.89,29.45,.74,44.16-.18,17.48-.99,34.96-1.69,52.44-.11,2.86-1.09,5.68-1.72,8.81-15.27,1.28-29.84,5.25-45.23,3.58,0-8.32,.07-16.35-.02-24.38-.18-16.2-.68-32.41-.58-48.61,.07-12.01,1.23-24,1.3-36.01,.09-17.49-.33-34.99-.61-52.49-.09-5.42-.43-10.84-.64-16.25-.51-13.05-1.06-26.09-1.46-39.14-.08-2.57,.43-5.15,.7-7.99,2.42-.13,4.1-.2,5.77-.31,11.02-.77,22.05-1.38,33.05-2.39,6.58-.61,11.22,.55,15.46,6.8,10.76,15.88,22.68,30.97,34.09,46.42,3.81,5.16,7.36,10.51,11.25,15.6,1.75,2.28,3.82,4.48,6.16,6.12,4.3,3.01,5.88,2.35,8.9-2.08,1.74-2.55,4.05-4.71,5.95-7.16,7.5-9.65,14.95-19.34,22.41-29.02,9.14-11.86,18.22-23.77,27.42-35.58,2.37-3.04,6.23-3.07,9.43-2.75,11.11,1.11,22.02-.06,32.97-1.66,3.78-.55,7.72-.09,11.62-.09,0,12.72-.08,25.23,.03,37.73,.06,7.06,.48,14.12,.63,21.19,.12,5.61,.12,11.22,.13,16.83,.02,13.05-.03,26.11,.04,39.16,.01,2.69,.63,5.38,.64,8.07,.06,19.47,.27,38.95-.05,58.42-.23,13.75-1.22,27.48-1.9,41.65-7.27,3.54-15.45,3.15-23.48,3.49-6.33,.27-12.47,.29-18.46,3.49-3.39,1.81-8.05,1.24-12.82,1.82Z"/><path class="cls-4" d="M729.48,488.92c7.47-.96,13.95-1.68,20.4-2.66,3.76-.57,5.69,.31,6.25,4.31,1.13,8.02,1.98,16.08,2.75,24.15,.39,4.09-1.32,7.27-5.36,8.64-6.05,2.05-12.06,4.5-18.29,5.63-3.96,.72-5.21,3.31-6.76,5.9-.57,.96-.27,3.6,.41,3.95,4.35,2.2,3.57,6.32,3.66,9.75,.19,7.55-.22,15.12-.4,23.58,.22,.1,1.46,1.22,2.68,1.2,6.87-.13,13.73-.49,20.59-.85,6.33-.33,12.66-.77,19.35-1.19,1.25,2.85-1.54,7.14,2.91,9.19,.77,.35,.55,3.24,.49,4.94-.29,7.54-.7,15.07-1.1,23.53-1.51,.38-3.78,1.22-6.12,1.5-8.77,1.07-17.55,2.19-26.36,2.83-7.6,.55-15.27,.15-22.86,.76-6.56,.53-13.04,1.95-19.58,2.84-4.31,.59-8.65,.93-13.68,1.46-.25-7.43-.65-13.96-.67-20.5-.06-17.62-.05-35.25,.15-52.87,.05-4.32,.97-8.63,1.39-12.96,1.26-12.88-.86-25.69-.81-38.54,.05-13.48-1.26-26.84-2.75-40.21-.48-4.3,.57-8.75,.7-13.14,.48-15.38,.87-30.75,1.3-46.15,6.74-.78,12.76-1.51,18.79-2.16,9.22-1,18.46-1.89,27.68-2.92,5.05-.57,9.96,.72,15.15,.37,10.28-.69,20.08-3.84,30.79-4.59,2.68,7.97,6.07,15.63,4.8,24.54-.5,3.52,.52,7.29,1.07,10.92,.55,3.65-.67,6.31-3.99,7.83-6,2.75-11.75,5.85-18.59,6.71-8,1.01-15.84,3.27-23.77,4.9-2.14,.44-4.34,.63-6.52,.84-4.4,.42-6.58,3.58-5.7,7.9,.53,2.62,.72,5.32,.83,8,.43,10.31,.76,20.63,1.19,32.57Z"/><g><path d="M309.73,589.07c-7.11-1.96-7.64-7.39-8.93-11.03-5.86-.4-10.95-1.09-16.03-1.01-20.94,.31-41.84-.28-62.63-3.04-4.21-.56-5.06-1.21-4.91-5.62,.1-3.19,.96-6.39,.82-9.55-.9-20.06-2.01-40.12-2.99-60.18-.45-9.26-.92-18.52-1.12-27.79-.33-15.08-.5-30.17-.63-45.26-.06-6.29,.15-12.6,.21-18.9,.03-2.44-.63-4.54-3.46-4.79-7.09-.61-14.22-1.76-21.27-1.49-9.29,.35-18.47,2.07-27.83,.15-2.76-.56-5.86,.58-8.3,.88,1.14,4.8,2.38,7.86,2.52,10.97,.56,12.53,1,25.09,1.08,37.64,.18,27.1,.13,54.2,.12,81.31,0,6.08-.21,12.17-.35,18.25-.07,3.13-.22,6.26-.28,9.39-.2,9.23-.24,18.45-.59,27.67-.47,12.04-1.4,24.07-1.73,36.11-.18,6.74,2.36,9.48,8.72,9.8,14.26,.7,28.51,1.24,42.77,1.61,9.3,.24,18.59,.02,27.89,.06,16.73,.07,33.45,.22,50.18,.27,3.43,.01,6.88-.2,10.3-.45,7.28-.52,9.07-2.29,9.75-9.35,.18-1.87,.37-3.72,.43-4.29-.69,.52,3.38-10.56,2.6-9.65-.48-4.11-.8-7.5-1.28-10.87-.58-4.13-.92-8.12,4.95-10.84Zm-30.89,38.6c-5.58,.53-10.72-.12-15.8-1.6-4.79-1.39-9.47-1.99-14.46-1.81-6.81,.24-13.64-.39-20.47-.27-4.62,.07-9.22,.97-13.83,1.17-4.37,.19-8.74-.11-13.11-.1-12.16,.06-24.32,.17-36.47,.23-.7,0-1.4-.24-3.03-.55,0-17.85,.1-35.76-.03-53.67-.14-18-.89-36.01-.69-54.02,.21-17.99,1.53-35.97,1.86-53.97,.34-18.08,.08-36.17,.08-54.71,9.15,2.21,16.87,1.1,24.63,.02,4.31-.6,8.67-1.1,13.02-1.15,3.89-.04,5.56,2.61,5.7,6.29,.53,13.99,1.06,27.98,1.56,41.98,.53,15.01,1.1,30.01,1.48,45.02,.31,12.52,.09,25.06,.6,37.56,.34,8.32,1.7,16.61,2.31,24.93,.33,4.61,.06,9.26,.06,14.71,2.37,.56,4.86,1.51,7.41,1.7,14.19,1.08,28.38,2.01,42.58,2.96,9.08,.6,18.16,1.12,27.24,1.82,2.38,.19,4.72,.91,7.69,1.52,.44,14.05,.87,27.76,1.34,42.41-7.05-4.39-13.43-1.03-19.64-.45Z"/><path d="M213.83,661.15c2.34-1.89,5.12-5.81,7.24-5.48,4.9,.76,2.49,5.97,3.11,9.25,.28,1.49-.76,4.2-1.97,4.8-2.2,1.09-4.02-.5-5.08-2.78-.79-1.68-1.83-3.24-3.3-5.79Z"/><path d="M126.7,524.68c-.02,3.48-1.68,5.72-4.24,5.68-3.26-.05-5.2-2.24-5.05-5.7,.15-3.51,2.31-5.98,5.12-5.85,2.46,.11,4.18,2.54,4.16,5.87Z"/><path d="M123.29,642.1c-.14,2.39-.39,5.08-4.05,5.43-3.22,.31-5.62-2.36-5.55-6.21,.04-2.55,2.81-5.53,5.02-5.4,2.28,.13,4.47,2.91,4.59,6.18Z"/><path d="M197.08,666.08c1.83-4.01,2.77-6.51,4.11-8.78,.48-.82,2.02-1.62,2.89-1.45,.92,.18,2.01,1.41,2.29,2.39,.37,1.34,.28,2.93-.04,4.32-.42,1.78-.98,4.67-1.99,4.9-1.89,.44-4.15-.68-7.26-1.38Z"/><path d="M237.02,664.08c.22-4.53,3.62-5.68,6.28-7.55,4.45,5.15,4.5,6.29,.46,12.26-2.29-1.6-4.57-3.19-6.75-4.71Z"/><path d="M127.72,441.77c.46,2.4,1.34,4.81,1.23,7.18-.06,1.35-1.49,3.33-2.73,3.73-1.16,.38-3.49-.53-4.2-1.61-.92-1.38-1.45-3.8-.84-5.21,.77-1.79,2.84-3.01,4.35-4.48,.73,.13,1.46,.26,2.19,.38Z"/><path d="M143.55,518.11c4.63,2.85,2.19,6.74,2,10.37-3.04,1.12-5.76,2.16-7.18-1.34-1.29-3.2,.79-6.54,5.17-9.03Z"/><path d="M119.06,543.11c3.44-.38,4.79,1.16,4.72,3.66-.06,2.31-.45,4.71-1.28,6.84-.23,.59-2.91,.96-3.8,.39-1.19-.76-2.53-2.65-2.36-3.86,.32-2.31,1.66-4.47,2.72-7.03Z"/><path d="M123.53,662.55c.08,3.74-2.68,6.51-5.17,6.31-2.63-.21-3.93-1.68-3.89-4.36,.04-2.91,2.37-6.26,4.55-5.6,1.95,.59,3.43,2.73,4.51,3.65Z"/><path d="M117.38,591.05c6.55,3.8,7.65,6.54,4.87,10.35-.72,.99-2.44,1.98-3.5,1.79-1.04-.18-2.57-1.84-2.58-2.86-.01-2.79,.67-5.59,1.2-9.28Z"/><path d="M158.76,658.3c.53,1.27,1.75,2.99,1.9,4.81,.23,2.81-2.79,5.46-5.66,5.27-2.24-.15-3.44-1.46-3.26-3.88,.24-3.41,3.03-6.46,7.03-6.19Z"/><path d="M143,464.29c3.89,3.35,3.25,6.64,2.43,9.9-4.64,1.74-6.42-1.2-8.93-4.73,2.38-1.9,4.5-3.58,6.49-5.18Z"/><path d="M126.11,496.48c-1.73,1.85-3.05,3.27-4.37,4.68-1.12-1.38-2.87-2.64-3.19-4.19-.44-2.1,.09-4.46,.54-6.64,.06-.27,2.67-.63,3.11-.11,1.45,1.7,2.43,3.79,3.92,6.25Z"/><path d="M145.98,551.4c-2.02,1.98-3.31,4.33-4.78,4.45-2.88,.23-4.03-2.23-4.03-4.99,0-3.04,2.15-5.94,3.92-4.99,1.81,.97,2.93,3.21,4.89,5.53Z"/><path d="M141.04,490.4c4.57,3.43,3.86,6.83,2.67,9.9-.38,.97-2.93,1.94-4.02,1.57-1.11-.38-2.51-2.63-2.26-3.7,.57-2.43,2.07-4.63,3.61-7.77Z"/><path d="M144.16,599.86q-4.31,1.45-8.61-6.88c2.08-.5,4.28-1.79,5.72-1.21,3.64,1.46,2.78,5.08,2.89,8.09Z"/><path d="M117.41,469.95c1.83-1.41,3.04-2.18,4.05-3.16,1.69-1.65,3.82-2.06,5.01-.19,.81,1.28,.74,3.96-.12,5.21-.86,1.26-3.31,2.28-4.82,2.01-1.44-.26-2.56-2.31-4.12-3.86Z"/><path d="M124.65,434.13c-3.84-3.64-2.81-7.31-2.1-11.18,6.21,1.69,6.97,6,2.1,11.18Z"/><path d="M141.07,647.52c-3.91,1.06-6.21,.47-7.02-2.86-.53-2.17-.82-4.7,1.93-5.54,2.87-.88,3.83,1.25,4.26,3.63,.25,1.39,.48,2.78,.83,4.77Z"/><path d="M265.27,652.21c-4.06-6.62-3.56-8.12,2.99-10.18,1.27,3.88,1.86,7.43-2.99,10.18Z"/><path d="M180.34,642.06c2.51,3.16,5.89,5.24,2.31,8.64-.75,.71-3.13,.89-3.83,.27-3.52-3.14-.51-5.52,1.52-8.91Z"/><path d="M246.67,639.8c.57,3,1.31,5.25,1.27,7.49-.02,1.08-1.4,2.86-2.37,3.02-1.01,.16-3.01-1.07-3.27-2.04-.8-3.04-1.09-6.29,4.36-8.47Z"/><path d="M123,612.31c3.51,1.72,4.02,4.2,2.49,6.75-.65,1.08-2.68,1.32-4.08,1.95-.55-1.41-1.79-2.98-1.49-4.18,.41-1.65,1.98-3.01,3.08-4.52Z"/><path d="M144.1,431.31c-6.15-2.1-6.44-2.88-2.99-8.14q5.58,2.41,2.99,8.14Z"/><path d="M138.86,444.42c1.85,.64,2.78,.88,3.62,1.28,2.78,1.31,2,3.69,1.34,5.71-.27,.82-1.68,1.27-2.57,1.89-1.02-1.5-2.29-2.9-2.95-4.54-.38-.94,.25-2.28,.56-4.33Z"/><path d="M138.44,612.96c.61,.27,1.13,.36,1.45,.65,2.91,2.67,1.63,5.32-.39,7.63-.46,.53-2.56,.51-3.11-.05-2.34-2.37-1.42-4.83,.46-7.06,.43-.51,1.1-.83,1.59-1.18Z"/><path d="M197.51,640.07c4.04,1.29,7.09,2.21,5.79,5.8-1.3,3.59-4.36,1.82-7.93,1.81,.82-2.92,1.42-5.06,2.14-7.61Z"/><path d="M153.72,649.47c1.7-2.49,2.62-4.77,4.31-5.95,.84-.58,3.08,.86,5.65,1.7-2.86,3.28-4.18,6.3-9.97,4.25Z"/><path d="M119.57,574.85c.06-2.59-1.97-5.94,2.33-7.06,2.47-.64,3.63,1.51,3.51,3.58-.19,3.37-2.15,4.73-5.85,3.47Z"/><path d="M177.72,659.57c2.94,.76,5.69,1.36,4.04,4.76-.57,1.18-3.1,2.66-3.84,2.28-3.3-1.72-2.06-4.24-.2-7.04Z"/><path d="M144.1,573.48c-1.66,1.42-2.93,2.85-3.21,2.68-1.66-1.03-3.09-2.43-4.59-3.7,.91-.95,2.25-2.86,2.66-2.68,1.69,.75,3.09,2.14,5.14,3.7Z"/><path d="M222.28,641.29c.43,1.7,.92,2.62,.81,3.47-.19,1.49-.75,2.93-1.15,4.39-1.21-.48-2.73-.66-3.55-1.51-1.56-1.62-1.38-3.55,.46-4.99,.7-.54,1.7-.7,3.43-1.36Z"/><path d="M132.02,665.71c2.09-3.06,4.34-4.39,7.22-1.87,.51,.45,.12,3.01-.65,3.65-2.69,2.26-4.72,.9-6.57-1.79Z"/><path d="M265.45,660.9c-.11,1.31-.17,2.62-.38,3.92-.02,.16-1.2,.29-1.21,.26-.35-1.28-.63-2.58-.92-3.88,.84-.1,1.67-.2,2.51-.3Z"/><path class="cls-4" d="M298.48,628.12c-7.05-4.39-13.43-1.03-19.64-.45-5.58,.53-10.72-.12-15.8-1.6-4.79-1.39-9.47-1.99-14.46-1.81-6.81,.24-13.64-.39-20.47-.27-4.62,.07-9.22,.97-13.83,1.17-4.37,.19-8.74-.11-13.11-.1-12.16,.06-24.32,.17-36.47,.23-.7,0-1.4-.24-3.03-.55,0-17.85,.1-35.76-.03-53.67-.14-18-.89-36.01-.69-54.02,.21-17.99,1.53-35.97,1.86-53.97,.34-18.08,.08-36.17,.08-54.71,9.15,2.21,16.87,1.1,24.63,.02,4.31-.6,8.67-1.1,13.02-1.15,3.89-.04,5.56,2.61,5.7,6.29,.53,13.99,1.06,27.98,1.56,41.98,.53,15.01,1.1,30.01,1.48,45.02,.31,12.52,.09,25.06,.6,37.56,.34,8.32,1.7,16.61,2.31,24.93,.33,4.61,.06,9.26,.06,14.71,2.37,.56,4.86,1.51,7.41,1.7,14.19,1.08,28.38,2.01,42.58,2.96,9.08,.6,18.16,1.12,27.24,1.82,2.38,.19,4.72,.91,7.69,1.52,.44,14.05,.87,27.76,1.34,42.41Z"/></g><path class="cls-4" d="M377.97,623.46c-3.01,.99-5.21,1.04-8.33,.26-4.71-1.18-10.1,.39-15.2,.78-4.56,.34-9.12,.67-14.26,1.04-.43-8.08-.96-15.12-1.14-22.17-.38-15.07-.52-30.16-.88-45.23-.28-11.73-.74-23.46-1.12-35.19-.05-1.47-.29-2.98-.06-4.41,1.61-10.32-.11-20.48-1.16-30.69-.42-4.15-.02-8.37-.12-12.56-.42-17.45-.9-34.89-1.33-52.34-.15-6.04-.19-12.09-.34-18.13-.08-3.29,1.72-4.3,4.67-4.15,7.12,.37,14.25,.9,21.37,.99,5.03,.07,10.07-.47,15.8-.78,.39,6.21,1.13,13.28,1.23,20.35,.2,14.72-.12,29.45,.11,44.18,.31,19.89,1,39.77,1.36,59.65,.08,4.16-.52,8.33-.84,12.5-.3,3.92-.92,7.83-.92,11.75,0,15.04,.27,30.07,.31,45.11,.02,5.58-.49,11.17-.39,16.75,.07,3.87,.76,7.73,1.24,12.3Z"/></g></g></svg>