<?xml version="1.0" encoding="utf-8"?>
<!-- Generator: Adobe Illustrator 26.1.0, SVG Export Plug-In . SVG Version: 6.00 Build 0)  -->
<svg version="1.1" id="Layer_1" xmlns="http://www.w3.org/2000/svg" xmlns:xlink="http://www.w3.org/1999/xlink" x="0px" y="0px"
	 viewBox="0 0 162.1 428.8" style="enable-background:new 0 0 162.1 428.8;" xml:space="preserve">
<style type="text/css">
	.st0{fill:#F7941D;}
	.st1{fill:#1A1E1E;}
	.st2{fill:none;stroke:#ED1C24;stroke-width:5;stroke-linecap:round;stroke-miterlimit:10;}
	.st3{fill:#EE304F;}
	.st4{fill:#28B34B;}
	.st5{fill:#FFFFFF;stroke:#000000;stroke-width:1.5479;stroke-linejoin:round;stroke-miterlimit:10;}
	.st6{fill:#FFFFFF;stroke:#000000;stroke-width:2;stroke-linejoin:round;stroke-miterlimit:10;}
	.st7{fill:#FFFFFF;stroke:#000000;stroke-width:1.7078;stroke-linejoin:round;stroke-miterlimit:10;}
	.st8{fill:#FFFFFF;stroke:#000000;stroke-width:1.7078;stroke-linecap:round;stroke-linejoin:round;stroke-miterlimit:10;}
	.st9{fill:#FFFFFF;stroke:#000000;stroke-width:2;stroke-miterlimit:10;}
	.st10{fill:#FFFFFF;stroke:#000000;stroke-width:5;stroke-linejoin:round;stroke-miterlimit:10;}
	.st11{fill:#FFFFFF;stroke:#000000;stroke-width:5;stroke-linecap:round;stroke-linejoin:round;stroke-miterlimit:10;}
	.st12{fill:none;stroke:#000000;stroke-width:5;stroke-linejoin:round;stroke-miterlimit:10;}
	.st13{fill:none;stroke:#000000;stroke-width:5;stroke-linecap:round;stroke-linejoin:round;stroke-miterlimit:10;}
	.st14{fill:#FFFFFF;}
	.st15{fill:none;}
	.st16{fill:#FFFFFF;stroke:#000000;stroke-width:3;stroke-linejoin:round;stroke-miterlimit:10;}
	.st17{fill:#ED1C24;}
	.st18{fill:#2D2630;}
	.st19{fill:#2E3192;}
	.st20{fill:none;stroke:#09B272;stroke-width:5;stroke-linecap:round;stroke-miterlimit:10;}
	.st21{fill:none;stroke:#72C8AF;stroke-width:5;stroke-linecap:round;stroke-miterlimit:10;}
	.st22{fill:#2BB673;}
	.st23{fill:none;stroke:#000000;stroke-width:5;stroke-linecap:round;stroke-miterlimit:10;}
	.st24{fill:none;stroke:#EF4856;stroke-width:5;stroke-linecap:round;stroke-miterlimit:10;}
	.st25{fill:#7F3F98;}
	.st26{fill:#FFDE17;}
</style>
<g>
	<path class="st17" d="M49,288v56.3c0,1.4-1.1,2.5-2.5,2.5s-2.5-1.1-2.5-2.5V288H49z"/>
</g>
<g>
	<path class="st17" d="M33.4,288v27.4c0,1.4-1.1,2.5-2.5,2.5c-1.4,0-2.5-1.1-2.5-2.5V288H33.4z"/>
</g>
<g>
	<path class="st17" d="M118,288v56.3c0,1.4-1.1,2.5-2.5,2.5c-1.4,0-2.5-1.1-2.5-2.5V288H118z"/>
</g>
<g>
	<path class="st17" d="M133.5,281.3v34.2c0,1.4-1.1,2.5-2.5,2.5c-1.4,0-2.5-1.1-2.5-2.5v-29.9L133.5,281.3z"/>
</g>
<g>
	<g>
		<path d="M9.4,114.2c-5.2,0-9.4,4.2-9.4,9.4c0,5.2,4.2,9.4,9.4,9.4c5.2,0,9.4-4.2,9.4-9.4C18.8,118.4,14.6,114.2,9.4,114.2z
			 M9.4,128.2c-2.5,0-4.6-2.1-4.6-4.6s2.1-4.6,4.6-4.6s4.6,2.1,4.6,4.6S12,128.2,9.4,128.2z"/>
		<path d="M152.7,114.2c-5.2,0-9.4,4.2-9.4,9.4c0,5.2,4.2,9.4,9.4,9.4c5.2,0,9.4-4.2,9.4-9.4C162.1,118.4,157.9,114.2,152.7,114.2z
			 M152.7,128.2c-2.5,0-4.6-2.1-4.6-4.6s2.1-4.6,4.6-4.6s4.6,2.1,4.6,4.6S155.2,128.2,152.7,128.2z"/>
		<path d="M82.5,196.9L82.5,196.9L82.5,196.9L82.5,196.9z"/>
	</g>
</g>
<g>
	<g>
		<path d="M82.5,196.9L82.5,196.9L82.5,196.9L82.5,196.9z"/>
		<polygon points="53.5,210.5 51.7,220.8 41.3,220.8 43.2,210.5 		"/>
		<polygon points="48.1,241.3 46.3,251.5 35.9,251.5 37.7,241.3 		"/>
	</g>
	<g>
		<path d="M149,236.7l5.2-30.1L135,183.2H99.4v-45.8l35.1-5l6.9-4.7l-4.4-4.1l4.4-4.1l-6.9-4.6H93.4V41c0-9.4,7.6-14.8,7.7-14.8
			c0.6-0.4,1-1.1,1-1.8c0.1-0.7-0.2-1.5-0.8-1.9C93.8,15.6,85,6.2,83.5,1.9C83,0.7,82,0,80.8,0s-2.2,0.7-2.6,1.9
			C76.8,6.2,68,15.6,60.5,22.4c-0.5,0.5-0.8,1.2-0.8,1.9c0.1,0.7,0.4,1.4,1,1.8c0.3,0.2,7.7,5.7,7.7,14.8v73.9H27.7l-6.9,4.7
			l4.4,4.1l-4.4,4.1l6.9,4.5l35,5v45.8H20.7l-17,95.7h9.1l-1.6,9.1h50.6l0.8-0.7v84.1l0.1,0.6l16,55.1l0,0.1c0,0.1,0.1,0.2,0.1,0.3
			c0,0.1,0.1,0.1,0.1,0.2l0,0.1c0.1,0.2,0.3,0.4,0.5,0.5c0.1,0.1,0.2,0.2,0.3,0.2c0.1,0.1,0.2,0.1,0.4,0.2c0.2,0.1,0.3,0.1,0.4,0.1
			c0.1,0,0.2,0,0.3,0c0.1,0,0.2,0,0.3,0c0.2,0,0.3,0,0.5-0.1c0.1-0.1,0.3-0.1,0.3-0.1c0.2-0.1,0.3-0.2,0.4-0.3
			c0.2-0.1,0.3-0.3,0.5-0.5l0.1-0.1c0,0,0.1-0.1,0.1-0.2c0-0.1,0.1-0.2,0.1-0.3l0-0.1l16-55.1l0.1-0.6V288h26.1l3-2.5l5-4.2l9-7.6
			l5.2-30.1h-9.1l1.3-6.8H149z M94.6,138v48.6l-11.2,9.5v-56.5L94.6,138z M73.1,114.9v-10.6l10.6,10.6H73.1z M82.5,196.9L82.5,196.9
			L82.5,196.9L82.5,196.9z M77.1,12.2l-5.3,21c-1.6-4.2-4.2-7.3-6.1-9.2C68.7,21.2,73.3,16.7,77.1,12.2z M73.1,79.6V68.5l15.5,15.5
			v11.1L73.1,79.6z M88.6,101.8V113L73.1,97.5V86.4L88.6,101.8z M73.1,61.7V50.6L88.6,66v11.1L73.1,61.7z M96,24.1
			c-1.9,1.8-4.5,4.9-6.1,9.2l-5.3-21C88.4,16.7,93,21.2,96,24.1z M88.6,43.4v15.9L73.1,43.8v-0.4H88.6z M67.4,138l11.2,1.6v52.5
			l-7.3-8.9h-3.9V138z M64.9,261.8l-1.4,1.2l-0.9,0.8l-9.8,8.3h-41L26.3,190h41l0.1,0.1l8.3,10.2L72,220.9l-4.6,3.9l-0.9,0.8l-3,2.5
			l-0.9,0.8l-2.6,2.2l2.6,3.1l0.9,1.1l3,3.6l0.9,1.1l1.1,1.3l-1.1,6.3l-0.9,5.1L64.9,261.8z M78.6,409.6l-11.2-38.5v-87.8l10.6-9
			l0.6,0.7V409.6z M94.6,371.1l-11.2,38.5V280.9l5.8,7.1h5.4V371.1z M135.7,220.8h-20.4l1.8-10.3h-10.3l-7.2,41h10.3l1.8-10.2h20.5
			l-3.6,20.5l-0.1,0.1l-10.6,9l-1.4,1.2H85.8l-2.3-2.8l-0.9-1.1l-2.2-2.7v0l-0.8-0.9l-0.9-1.1l-1.3-1.6l1.3-7.5l0.9-5.1l0.9-5.1
			l1.4-8l0.7-4l0.9-5.1l4.2-24l0.5-2.8l6.5-5.5l0.9-0.8l3-2.5l0.9-0.8l0.8-0.7H131l8.4,10.3L135.7,220.8z"/>
	</g>
</g>
</svg>
