<?xml version="1.0" encoding="utf-8"?>
<!-- Generator: Adobe Illustrator 26.1.0, SVG Export Plug-In . SVG Version: 6.00 Build 0)  -->
<svg version="1.1" xmlns="http://www.w3.org/2000/svg" xmlns:xlink="http://www.w3.org/1999/xlink" x="0px" y="0px"
	 viewBox="0 0 486.5 770.5" style="enable-background:new 0 0 486.5 770.5;" xml:space="preserve">
<style type="text/css">
	.st0{fill:#006472;}
	.st1{fill:#825937;}
	.st2{fill:none;stroke:#000000;stroke-width:10;stroke-miterlimit:10;}
	.st3{fill:none;stroke:#000000;stroke-width:2.5;stroke-linecap:round;stroke-linejoin:round;stroke-miterlimit:10;}
	.st4{fill:#F1F2F2;}
	.st5{fill:#FFFFFF;}
	.st6{fill:none;stroke:#000000;stroke-miterlimit:10;}
	.st7{fill:none;stroke:#000000;stroke-width:2.5163;stroke-linecap:round;stroke-linejoin:round;stroke-miterlimit:10;}
	.st8{fill:#853C97;}
	.st9{fill:#4658A7;}
	.st10{fill:#1C1E23;}
	.st11{fill:#9F792C;}
	.st12{fill:#E4AA17;}
	.st13{fill:#FCC664;}
	.st14{fill:#4B306E;}
	.st15{fill:#34313A;}
	.st16{fill:#100F0F;}
	.st17{fill:#808285;}
	.st18{fill:#BCBEC0;}
	.st19{fill:#1783C0;}
	.st20{fill:#1C75BC;}
	.st21{fill:#27AAE1;}
	.st22{fill:#2BB673;}
	.st23{fill:#75C699;}
	.st24{fill:#2D2018;}
	.st25{fill:#4C3431;}
	.st26{fill:#F26A25;}
	.st27{fill:#F7941D;}
	.st28{fill:#EE3666;}
	.st29{fill:#F27891;}
	.st30{fill:#BE1E2D;}
	.st31{fill:#414042;}
	.st32{fill:#58595B;}
	.st33{fill:#EE323E;}
	.st34{fill:#B5D666;}
	.st35{fill:#8DC641;}
	.st36{fill:#1F6296;}
</style>
<g id="Layer_2">
</g>
<g id="Layer_1">
	<g>
		<path class="st10" d="M473.7,238.9h-461v-10.3c0.1-0.1,0.2-0.3,0.3-0.4c0.2-0.3,0.5-0.7,0.7-1c0.3-0.4,0.5-0.8,0.8-1.2
			c0.2-0.3,0.5-0.7,0.7-1c0.3-0.4,0.6-0.8,0.9-1.2c0.3-0.3,0.5-0.7,0.8-1c0.3-0.4,0.6-0.8,0.9-1.2c0.3-0.3,0.5-0.7,0.8-1
			c0.3-0.4,0.6-0.8,0.9-1.2c0.3-0.3,0.6-0.7,0.9-1c0.3-0.4,0.7-0.8,1-1.2c0.3-0.3,0.6-0.7,0.9-1c0.3-0.4,0.7-0.8,1-1.2
			c0.3-0.3,0.6-0.7,0.9-1c0.4-0.4,0.7-0.8,1.1-1.1c0.3-0.3,0.6-0.7,1-1c0.4-0.4,0.7-0.8,1.1-1.1c0.3-0.3,0.7-0.6,1-1
			c0.4-0.4,0.8-0.7,1.2-1.1c0.3-0.3,0.7-0.6,1-1c0.4-0.4,0.8-0.7,1.2-1.1c0.3-0.3,0.7-0.6,1.1-1c0.4-0.4,0.8-0.7,1.3-1.1
			c0.4-0.3,0.7-0.6,1.1-0.9c0.4-0.4,0.9-0.7,1.3-1.1c0.4-0.3,0.8-0.6,1.2-0.9c0.4-0.4,0.9-0.7,1.3-1.1c0.4-0.3,0.8-0.6,1.2-0.9
			c0.5-0.4,0.9-0.7,1.4-1.1c0.4-0.3,0.8-0.6,1.2-0.9c0.5-0.4,0.9-0.7,1.4-1c0.4-0.3,0.8-0.6,1.3-0.9c0.5-0.3,1-0.7,1.5-1
			c0.4-0.3,0.8-0.6,1.3-0.9c0.5-0.3,1-0.7,1.5-1c0.4-0.3,0.9-0.6,1.3-0.9c0.5-0.3,1-0.7,1.5-1c0.4-0.3,0.9-0.6,1.4-0.9
			c0.5-0.3,1-0.7,1.6-1c0.5-0.3,0.9-0.6,1.4-0.9c0.5-0.3,1.1-0.6,1.6-1c0.5-0.3,0.9-0.6,1.4-0.9c0.5-0.3,1.1-0.6,1.6-0.9
			c0.5-0.3,1-0.6,1.5-0.8c0.6-0.3,1.1-0.6,1.7-0.9c0.5-0.3,1-0.6,1.5-0.8c0.6-0.3,1.1-0.6,1.7-0.9c0.5-0.3,1-0.5,1.5-0.8
			c0.6-0.3,1.2-0.6,1.7-0.9c0.5-0.3,1-0.5,1.5-0.8c0.6-0.3,1.2-0.6,1.8-0.9c0.5-0.3,1-0.5,1.6-0.8c0.6-0.3,1.2-0.6,1.8-0.9
			c0.5-0.2,1-0.5,1.6-0.7c0.6-0.3,1.3-0.6,1.9-0.9c0.5-0.2,1-0.5,1.6-0.7c0.7-0.3,1.3-0.6,2-0.9c0.5-0.2,1-0.5,1.5-0.7
			c0.7-0.3,1.4-0.6,2.1-0.9c0.5-0.2,1-0.4,1.5-0.7c0.8-0.3,1.6-0.7,2.4-1c0.4-0.2,0.9-0.3,1.3-0.5c1.2-0.5,2.5-1,3.7-1.5
			c42.3-16.3,92.7-24.9,145.7-24.9c53,0,103.4,8.6,145.7,24.9c1.2,0.5,2.5,1,3.7,1.5c0.4,0.2,0.9,0.4,1.3,0.5c0.8,0.3,1.6,0.6,2.4,1
			c0.5,0.2,1,0.4,1.5,0.6c0.7,0.3,1.4,0.6,2.1,0.9c0.5,0.2,1,0.5,1.6,0.7c0.7,0.3,1.3,0.6,2,0.9c0.5,0.2,1,0.5,1.6,0.7
			c0.6,0.3,1.3,0.6,1.9,0.9c0.5,0.2,1,0.5,1.6,0.7c0.6,0.3,1.2,0.6,1.9,0.9c0.5,0.3,1,0.5,1.5,0.8c0.6,0.3,1.2,0.6,1.8,0.9
			c0.5,0.3,1,0.5,1.5,0.8c0.6,0.3,1.2,0.6,1.7,0.9c0.5,0.3,1,0.6,1.5,0.8c0.6,0.3,1.1,0.6,1.7,0.9c0.5,0.3,1,0.6,1.5,0.8
			c0.6,0.3,1.1,0.6,1.7,0.9c0.5,0.3,1,0.6,1.4,0.8c0.6,0.3,1.1,0.6,1.6,1c0.5,0.3,1,0.6,1.4,0.8c0.5,0.3,1.1,0.6,1.6,1
			c0.5,0.3,0.9,0.6,1.4,0.9c0.5,0.3,1,0.7,1.6,1c0.4,0.3,0.9,0.6,1.4,0.9c0.5,0.3,1,0.7,1.5,1c0.4,0.3,0.9,0.6,1.3,0.9
			c0.5,0.3,1,0.7,1.5,1c0.4,0.3,0.9,0.6,1.3,0.9c0.5,0.3,1,0.7,1.4,1c0.4,0.3,0.8,0.6,1.3,0.9c0.5,0.3,0.9,0.7,1.4,1l1.2,0.9
			c0.5,0.3,0.9,0.7,1.4,1c0.4,0.3,0.8,0.6,1.2,0.9c0.4,0.4,0.9,0.7,1.3,1.1c0.4,0.3,0.8,0.6,1.2,0.9c0.4,0.4,0.9,0.7,1.3,1.1
			c0.4,0.3,0.7,0.6,1.1,1c0.4,0.4,0.8,0.7,1.3,1.1c0.4,0.3,0.7,0.6,1.1,1c0.4,0.4,0.8,0.7,1.2,1.1c0.3,0.3,0.7,0.6,1,1
			c0.4,0.4,0.8,0.7,1.2,1.1c0.3,0.3,0.7,0.7,1,1c0.4,0.4,0.8,0.8,1.1,1.1c0.3,0.3,0.6,0.7,1,1c0.4,0.4,0.7,0.8,1.1,1.1
			c0.3,0.3,0.6,0.7,0.9,1c0.3,0.4,0.7,0.8,1,1.2c0.3,0.3,0.6,0.7,0.9,1c0.3,0.4,0.7,0.8,1,1.2c0.3,0.3,0.6,0.7,0.8,1
			c0.3,0.4,0.6,0.8,1,1.2c0.3,0.3,0.5,0.7,0.8,1c0.3,0.4,0.6,0.8,0.9,1.2c0.3,0.3,0.5,0.7,0.8,1c0.3,0.4,0.6,0.8,0.9,1.2
			c0.2,0.3,0.5,0.7,0.7,1c0.3,0.4,0.6,0.8,0.8,1.2c0.2,0.3,0.5,0.7,0.7,1c0.1,0.1,0.2,0.3,0.3,0.4V238.9z M359.1,17h-74.8
			c-5.7-10.1-21.7-17-41-17c-19.3,0-35.4,6.9-41,17h-74.8C57.2,17,0,74.2,0,144.5v107.2h486.5V144.5C486.5,74.2,429.4,17,359.1,17z
			 M236.9,130.6c-0.8,0-1.5,0-2.3,0c-0.3,0-0.7,0-1,0c-2.7,0.1-5.4,0.1-8.2,0.2c-0.5,0-0.9,0-1.4,0.1c-2.7,0.1-5.3,0.2-8,0.4
			c-0.5,0-0.9,0.1-1.4,0.1c-2.7,0.2-5.3,0.3-8,0.5c-0.3,0-0.7,0.1-1.1,0.1c-2.8,0.2-5.5,0.4-8.3,0.7c-0.1,0-0.1,0-0.2,0
			c-2.7,0.3-5.4,0.6-8.1,0.9c-0.3,0-0.7,0.1-1,0.1c-2.6,0.3-5.2,0.6-7.7,1c-0.5,0.1-0.9,0.1-1.4,0.2c-2.5,0.3-5,0.7-7.5,1.1
			c-0.5,0.1-0.9,0.2-1.4,0.2c-2.5,0.4-5,0.8-7.4,1.2c-0.4,0.1-0.8,0.1-1.1,0.2c-2.6,0.4-5.1,0.9-7.6,1.4c-0.1,0-0.3,0.1-0.4,0.1
			c-2.5,0.5-4.9,1-7.4,1.5c-0.3,0.1-0.6,0.1-1,0.2c-2.4,0.5-4.8,1.1-7.1,1.6c-0.4,0.1-0.9,0.2-1.3,0.3c-2.3,0.6-4.6,1.1-6.8,1.7
			c-0.5,0.1-0.9,0.2-1.4,0.4c-2.3,0.6-4.5,1.2-6.7,1.8c-0.4,0.1-0.8,0.2-1.2,0.3c-2.3,0.7-4.6,1.3-6.9,2c-0.2,0.1-0.4,0.1-0.5,0.2
			c-2.2,0.7-4.4,1.4-6.6,2.1c-0.3,0.1-0.6,0.2-0.9,0.3c-2.2,0.7-4.3,1.5-6.4,2.2c-0.4,0.1-0.8,0.3-1.2,0.4c-2.1,0.8-4.1,1.5-6.1,2.3
			c-0.4,0.2-0.8,0.3-1.3,0.5c-2,0.8-4,1.6-6,2.4c-0.4,0.2-0.7,0.3-1.1,0.5c-2,0.9-4,1.7-6,2.6c-0.2,0.1-0.4,0.2-0.6,0.3
			c-1.9,0.9-3.8,1.8-5.7,2.7c-0.2,0.1-0.5,0.2-0.7,0.4c-1.9,0.9-3.7,1.8-5.6,2.8c-0.3,0.2-0.7,0.4-1,0.6c-1.8,0.9-3.5,1.9-5.3,2.8
			c-0.4,0.2-0.7,0.4-1.1,0.6c-1.7,1-3.4,2-5.1,3c-0.3,0.2-0.6,0.4-0.9,0.6c-1.7,1-3.4,2.1-5.1,3.2c-0.2,0.1-0.3,0.2-0.5,0.3
			c-1.6,1.1-3.3,2.1-4.8,3.2c-0.2,0.1-0.4,0.2-0.5,0.4c-1.6,1.1-3.1,2.2-4.7,3.4c-0.3,0.2-0.5,0.4-0.8,0.6c-1.5,1.1-2.9,2.2-4.4,3.4
			c-0.3,0.2-0.5,0.4-0.8,0.7c-1.4,1.1-2.8,2.3-4.2,3.5c-0.2,0.2-0.4,0.4-0.7,0.6c-1.4,1.2-2.8,2.4-4.1,3.7c-0.1,0.1-0.2,0.2-0.3,0.3
			c-1.3,1.2-2.6,2.5-3.9,3.8c-0.1,0.1-0.2,0.2-0.3,0.3c-1.2,1.3-2.4,2.6-3.6,3.9c-0.1,0.1-0.2,0.2-0.3,0.4v-63.1
			c0-63.2,51.4-114.7,114.7-114.7h73.2c0,0.1,0.1,0.2,0.1,0.4c0.1,0.2,0.1,0.3,0.2,0.5c0.1,0.2,0.2,0.5,0.3,0.7
			c0.1,0.2,0.1,0.3,0.2,0.5c0.1,0.2,0.2,0.5,0.3,0.7c0.1,0.1,0.1,0.3,0.2,0.4c0.1,0.3,0.3,0.6,0.5,0.8c0.1,0.1,0.1,0.2,0.2,0.3
			c0.2,0.4,0.5,0.7,0.7,1.1c0.1,0.1,0.1,0.2,0.2,0.3c0.2,0.3,0.4,0.5,0.6,0.8c0.1,0.1,0.2,0.3,0.3,0.4c0.2,0.2,0.4,0.4,0.6,0.7
			c0.1,0.1,0.3,0.3,0.4,0.4c0.2,0.2,0.4,0.4,0.6,0.6c0.1,0.1,0.3,0.3,0.4,0.4c0.2,0.2,0.4,0.4,0.6,0.6c0.2,0.1,0.3,0.3,0.5,0.4
			c0.2,0.2,0.4,0.4,0.7,0.6c0.2,0.1,0.3,0.3,0.5,0.4c0.2,0.2,0.5,0.4,0.7,0.6c0.2,0.1,0.3,0.2,0.5,0.3c0.3,0.2,0.6,0.4,0.9,0.6
			c0.1,0.1,0.2,0.2,0.4,0.2c0.4,0.3,0.9,0.6,1.3,0.8c0.1,0.1,0.2,0.1,0.3,0.2c0.4,0.2,0.7,0.4,1.1,0.6c0.2,0.1,0.4,0.2,0.5,0.3
			c0.3,0.2,0.6,0.3,0.9,0.5c0.2,0.1,0.4,0.2,0.6,0.3c0.3,0.1,0.6,0.3,0.9,0.4c0.2,0.1,0.4,0.2,0.7,0.3c0.3,0.1,0.6,0.3,0.9,0.4
			c0.2,0.1,0.4,0.2,0.7,0.3c0.3,0.1,0.7,0.2,1,0.4c0.2,0.1,0.5,0.2,0.7,0.2c0.3,0.1,0.7,0.2,1,0.3c0.2,0.1,0.4,0.1,0.7,0.2
			c0.4,0.1,0.8,0.2,1.2,0.3c0.2,0.1,0.4,0.1,0.6,0.2c0.6,0.2,1.2,0.3,1.8,0.5c0.1,0,0.2,0,0.2,0.1c0.6,0.1,1.1,0.3,1.6,0.4
			c0.2,0,0.4,0.1,0.7,0.1c0.4,0.1,0.8,0.2,1.3,0.2c0.3,0,0.5,0.1,0.8,0.1c0.4,0.1,0.8,0.1,1.2,0.2c0.3,0,0.6,0.1,0.8,0.1
			c0.4,0.1,0.8,0.1,1.2,0.2c0.3,0,0.6,0.1,0.8,0.1c0.4,0.1,0.8,0.1,1.2,0.1c0.3,0,0.6,0.1,0.9,0.1c0,0,0,0,0,0V130.6z M212.8,25.2
			c0-0.2,0-0.4,0.1-0.6v0c0.9-4.8,12.3-11.8,30.4-11.8c18.1,0,29.5,7,30.4,11.8c0,0.2,0.1,0.4,0.1,0.6c0,5.1-11.9,12.4-30.5,12.4
			S212.8,30.3,212.8,25.2z M473.7,207.5c-0.1-0.1-0.2-0.2-0.3-0.3c-1.2-1.3-2.4-2.6-3.6-3.9c-0.1-0.1-0.2-0.2-0.2-0.2
			c-1.3-1.3-2.6-2.6-3.9-3.9c-0.1-0.1-0.2-0.2-0.3-0.3c-1.3-1.3-2.7-2.5-4.1-3.7c-0.2-0.2-0.4-0.4-0.6-0.5c-1.4-1.2-2.8-2.4-4.2-3.5
			c-0.2-0.2-0.5-0.4-0.7-0.6c-1.4-1.2-2.9-2.3-4.4-3.4c-0.2-0.2-0.4-0.3-0.7-0.5c-1.6-1.2-3.2-2.3-4.8-3.4c-0.1-0.1-0.3-0.2-0.4-0.2
			c-1.7-1.1-3.4-2.3-5.1-3.4c-0.1-0.1-0.2-0.1-0.3-0.2c-1.7-1.1-3.5-2.2-5.3-3.3c-0.2-0.2-0.5-0.3-0.7-0.4c-1.7-1-3.5-2-5.3-3
			c-0.3-0.2-0.6-0.3-0.9-0.5c-1.8-1-3.6-2-5.4-2.9c-0.3-0.2-0.6-0.3-0.9-0.4c-1.9-1-3.8-1.9-5.8-2.9c-0.2-0.1-0.3-0.2-0.5-0.2
			c-2-1-4-1.9-6.1-2.8c-0.1-0.1-0.2-0.1-0.3-0.1c-2-0.9-4.1-1.8-6.2-2.7c-0.3-0.1-0.6-0.2-0.9-0.4c-2-0.9-4.1-1.7-6.2-2.5
			c-0.3-0.1-0.7-0.3-1.1-0.4c-2.1-0.8-4.2-1.6-6.3-2.4c-0.3-0.1-0.7-0.2-1-0.4c-2.2-0.8-4.4-1.6-6.6-2.3c-0.2-0.1-0.4-0.1-0.7-0.2
			c-2.3-0.8-4.6-1.5-6.9-2.2c-0.1,0-0.2-0.1-0.3-0.1c-2.3-0.7-4.7-1.4-7.1-2.1l-1-0.3c-2.3-0.7-4.6-1.3-6.9-1.9
			c-0.4-0.1-0.8-0.2-1.2-0.3c-2.3-0.6-4.6-1.2-7-1.8c-0.4-0.1-0.8-0.2-1.2-0.3c-2.4-0.6-4.8-1.1-7.3-1.7c-0.3-0.1-0.5-0.1-0.8-0.2
			c-2.5-0.6-5.1-1.1-7.6-1.6c-0.1,0-0.2,0-0.2-0.1c-2.6-0.5-5.1-1-7.7-1.4c-0.3-0.1-0.7-0.1-1-0.2c-2.5-0.4-5-0.8-7.5-1.2
			c-0.4-0.1-0.9-0.1-1.3-0.2c-2.5-0.4-5-0.8-7.5-1.1c-0.4-0.1-0.9-0.1-1.3-0.2c-2.6-0.3-5.2-0.7-7.8-1c-0.3,0-0.6-0.1-0.9-0.1
			c-2.7-0.3-5.4-0.6-8.2-0.9c0,0-0.1,0-0.1,0c-2.7-0.3-5.5-0.5-8.3-0.7c-0.4,0-0.7-0.1-1-0.1c-2.6-0.2-5.3-0.4-8-0.5
			c-0.5,0-0.9-0.1-1.4-0.1c-2.6-0.2-5.3-0.3-8-0.4c-0.5,0-0.9,0-1.4-0.1c-2.7-0.1-5.4-0.2-8.2-0.2c-0.3,0-0.7,0-1,0
			c-0.7,0-1.5,0-2.3,0V50.2c0,0,0,0,0,0c0.3,0,0.6,0,0.8-0.1c0.4,0,0.8-0.1,1.2-0.1c0.3,0,0.6-0.1,0.9-0.1c0.4-0.1,0.8-0.1,1.2-0.2
			c0.3,0,0.6-0.1,0.8-0.1c0.4-0.1,0.8-0.1,1.2-0.2c0.3-0.1,0.5-0.1,0.8-0.1c0.4-0.1,0.8-0.2,1.3-0.2c0.2-0.1,0.4-0.1,0.7-0.1
			c0.5-0.1,1.1-0.2,1.6-0.4c0.1,0,0.2,0,0.3-0.1c0.6-0.1,1.2-0.3,1.8-0.5c0.2-0.1,0.4-0.1,0.6-0.2c0.4-0.1,0.8-0.2,1.2-0.3
			c0.2-0.1,0.4-0.2,0.7-0.2c0.3-0.1,0.7-0.2,1-0.3c0.2-0.1,0.5-0.2,0.7-0.2c0.3-0.1,0.7-0.2,1-0.4c0.2-0.1,0.5-0.2,0.7-0.3
			c0.3-0.1,0.6-0.3,0.9-0.4c0.2-0.1,0.4-0.2,0.7-0.3c0.3-0.1,0.6-0.3,0.9-0.4c0.2-0.1,0.4-0.2,0.6-0.3c0.3-0.2,0.6-0.3,0.9-0.5
			c0.2-0.1,0.4-0.2,0.5-0.3c0.4-0.2,0.7-0.4,1.1-0.6c0.1-0.1,0.2-0.1,0.3-0.2c0.4-0.3,0.9-0.5,1.3-0.8c0.1-0.1,0.3-0.2,0.4-0.3
			c0.3-0.2,0.6-0.4,0.9-0.6c0.2-0.1,0.3-0.2,0.5-0.3c0.3-0.2,0.5-0.4,0.7-0.6c0.2-0.1,0.3-0.3,0.5-0.4c0.2-0.2,0.4-0.4,0.7-0.6
			c0.2-0.1,0.3-0.3,0.5-0.4c0.2-0.2,0.4-0.4,0.6-0.6c0.1-0.1,0.3-0.3,0.4-0.4c0.2-0.2,0.4-0.4,0.6-0.6c0.1-0.1,0.3-0.3,0.4-0.4
			c0.2-0.2,0.4-0.4,0.6-0.6c0.1-0.1,0.2-0.3,0.3-0.4c0.2-0.3,0.4-0.5,0.6-0.8c0.1-0.1,0.1-0.2,0.2-0.3c0.3-0.4,0.5-0.7,0.7-1.1
			c0.1-0.1,0.1-0.2,0.2-0.3c0.2-0.3,0.3-0.6,0.5-0.8c0.1-0.1,0.1-0.3,0.2-0.4c0.1-0.2,0.2-0.5,0.3-0.7c0.1-0.2,0.1-0.3,0.2-0.5
			c0.1-0.2,0.2-0.5,0.3-0.7c0.1-0.2,0.1-0.3,0.2-0.5c0-0.1,0.1-0.2,0.1-0.4h73.2c63.2,0,114.7,51.4,114.7,114.7V207.5z"/>
		<path class="st19" d="M273.7,25.2c0,5.1-11.9,12.4-30.5,12.4s-30.5-7.4-30.5-12.4c0-0.2,0-0.4,0.1-0.6v0
			c0.9-4.8,12.3-11.8,30.4-11.8c18.1,0,29.5,7,30.4,11.8C273.7,24.8,273.7,25,273.7,25.2z"/>
		<path class="st20" d="M473.7,228.6v10.3h-45.6c0,0-79.7-95.1-203.8-95.1c6.3-0.2,12.6-0.4,18.9-0.4c53,0,103.4,8.6,145.7,24.9
			c1.2,0.5,2.5,1,3.7,1.5c0.4,0.2,0.9,0.4,1.3,0.5c0.8,0.3,1.6,0.6,2.4,1c0.5,0.2,1,0.4,1.5,0.6c0.7,0.3,1.4,0.6,2.1,0.9
			c0.5,0.2,1,0.5,1.6,0.7c0.7,0.3,1.3,0.6,2,0.9c0.5,0.2,1,0.5,1.6,0.7c0.6,0.3,1.3,0.6,1.9,0.9c0.5,0.2,1,0.5,1.6,0.7
			c0.6,0.3,1.2,0.6,1.9,0.9c0.5,0.3,1,0.5,1.5,0.8c0.6,0.3,1.2,0.6,1.8,0.9c0.5,0.3,1,0.5,1.5,0.8c0.6,0.3,1.2,0.6,1.7,0.9
			c0.5,0.3,1,0.6,1.5,0.8c0.6,0.3,1.1,0.6,1.7,0.9c0.5,0.3,1,0.6,1.5,0.8c0.6,0.3,1.1,0.6,1.7,0.9c0.5,0.3,1,0.6,1.4,0.8
			c0.6,0.3,1.1,0.6,1.6,1c0.5,0.3,1,0.6,1.4,0.8c0.5,0.3,1.1,0.6,1.6,1c0.5,0.3,0.9,0.6,1.4,0.9c0.5,0.3,1,0.7,1.6,1
			c0.4,0.3,0.9,0.6,1.4,0.9c0.5,0.3,1,0.7,1.5,1c0.4,0.3,0.9,0.6,1.3,0.9c0.5,0.3,1,0.7,1.5,1c0.4,0.3,0.9,0.6,1.3,0.9
			c0.5,0.3,1,0.7,1.4,1c0.4,0.3,0.8,0.6,1.3,0.9c0.5,0.3,0.9,0.7,1.4,1l1.2,0.9c0.5,0.3,0.9,0.7,1.4,1c0.4,0.3,0.8,0.6,1.2,0.9
			c0.4,0.4,0.9,0.7,1.3,1.1c0.4,0.3,0.8,0.6,1.2,0.9c0.4,0.4,0.9,0.7,1.3,1.1c0.4,0.3,0.7,0.6,1.1,1c0.4,0.4,0.8,0.7,1.3,1.1
			c0.4,0.3,0.7,0.6,1.1,1c0.4,0.4,0.8,0.7,1.2,1.1c0.3,0.3,0.7,0.6,1,1c0.4,0.4,0.8,0.7,1.2,1.1c0.3,0.3,0.7,0.7,1,1
			c0.4,0.4,0.8,0.8,1.1,1.1c0.3,0.3,0.6,0.7,1,1c0.4,0.4,0.7,0.8,1.1,1.1c0.3,0.3,0.6,0.7,0.9,1c0.3,0.4,0.7,0.8,1,1.2
			c0.3,0.3,0.6,0.7,0.9,1c0.3,0.4,0.7,0.8,1,1.2c0.3,0.3,0.6,0.7,0.8,1c0.3,0.4,0.6,0.8,1,1.2c0.3,0.3,0.5,0.7,0.8,1
			c0.3,0.4,0.6,0.8,0.9,1.2c0.3,0.3,0.5,0.7,0.8,1c0.3,0.4,0.6,0.8,0.9,1.2c0.2,0.3,0.5,0.7,0.7,1c0.3,0.4,0.6,0.8,0.8,1.2
			c0.2,0.3,0.5,0.7,0.7,1C473.6,228.3,473.7,228.4,473.7,228.6z"/>
		<path class="st21" d="M428.2,238.9H12.8v-10.3c0.1-0.1,0.2-0.3,0.3-0.4c0.2-0.3,0.5-0.7,0.7-1c0.3-0.4,0.5-0.8,0.8-1.2
			c0.2-0.3,0.5-0.7,0.7-1c0.3-0.4,0.6-0.8,0.9-1.2c0.3-0.3,0.5-0.7,0.8-1c0.3-0.4,0.6-0.8,0.9-1.2c0.3-0.3,0.5-0.7,0.8-1
			c0.3-0.4,0.6-0.8,0.9-1.2c0.3-0.3,0.6-0.7,0.9-1c0.3-0.4,0.7-0.8,1-1.2c0.3-0.3,0.6-0.7,0.9-1c0.3-0.4,0.7-0.8,1-1.2
			c0.3-0.3,0.6-0.7,0.9-1c0.4-0.4,0.7-0.8,1.1-1.1c0.3-0.3,0.6-0.7,1-1c0.4-0.4,0.7-0.8,1.1-1.1c0.3-0.3,0.7-0.6,1-1
			c0.4-0.4,0.8-0.7,1.2-1.1c0.3-0.3,0.7-0.6,1-1c0.4-0.4,0.8-0.7,1.2-1.1c0.3-0.3,0.7-0.6,1.1-1c0.4-0.4,0.8-0.7,1.3-1.1
			c0.4-0.3,0.7-0.6,1.1-0.9c0.4-0.4,0.9-0.7,1.3-1.1c0.4-0.3,0.8-0.6,1.2-0.9c0.4-0.4,0.9-0.7,1.3-1.1c0.4-0.3,0.8-0.6,1.2-0.9
			c0.5-0.4,0.9-0.7,1.4-1.1c0.4-0.3,0.8-0.6,1.2-0.9c0.5-0.4,0.9-0.7,1.4-1c0.4-0.3,0.8-0.6,1.3-0.9c0.5-0.3,1-0.7,1.5-1
			c0.4-0.3,0.8-0.6,1.3-0.9c0.5-0.3,1-0.7,1.5-1c0.4-0.3,0.9-0.6,1.3-0.9c0.5-0.3,1-0.7,1.5-1c0.4-0.3,0.9-0.6,1.4-0.9
			c0.5-0.3,1-0.7,1.6-1c0.5-0.3,0.9-0.6,1.4-0.9c0.5-0.3,1.1-0.6,1.6-1c0.5-0.3,0.9-0.6,1.4-0.9c0.5-0.3,1.1-0.6,1.6-0.9
			c0.5-0.3,1-0.6,1.5-0.8c0.6-0.3,1.1-0.6,1.7-0.9c0.5-0.3,1-0.6,1.5-0.8c0.6-0.3,1.1-0.6,1.7-0.9c0.5-0.3,1-0.5,1.5-0.8
			c0.6-0.3,1.2-0.6,1.7-0.9c0.5-0.3,1-0.5,1.5-0.8c0.6-0.3,1.2-0.6,1.8-0.9c0.5-0.3,1-0.5,1.6-0.8c0.6-0.3,1.2-0.6,1.8-0.9
			c0.5-0.2,1-0.5,1.6-0.7c0.6-0.3,1.3-0.6,1.9-0.9c0.5-0.2,1-0.5,1.6-0.7c0.7-0.3,1.3-0.6,2-0.9c0.5-0.2,1-0.5,1.5-0.7
			c0.7-0.3,1.4-0.6,2.1-0.9c0.5-0.2,1-0.4,1.5-0.7c0.8-0.3,1.6-0.7,2.4-1c0.4-0.2,0.9-0.3,1.3-0.5c1.2-0.5,2.5-1,3.7-1.5
			c37.3-14.3,80.8-22.7,126.8-24.5C348.5,143.8,428.2,238.9,428.2,238.9z"/>
		<path class="st22" d="M473.7,144.5v63.1c-0.1-0.1-0.2-0.2-0.3-0.3c-1.2-1.3-2.4-2.6-3.6-3.9c-0.1-0.1-0.2-0.2-0.2-0.2
			c-1.3-1.3-2.6-2.6-3.9-3.9c-0.1-0.1-0.2-0.2-0.3-0.3c-1.3-1.3-2.7-2.5-4.1-3.7c-0.2-0.2-0.4-0.4-0.6-0.5c-1.4-1.2-2.8-2.4-4.2-3.5
			c-0.2-0.2-0.5-0.4-0.7-0.6c-1.4-1.2-2.9-2.3-4.4-3.4c-0.2-0.2-0.4-0.3-0.7-0.5c-1.6-1.2-3.2-2.3-4.8-3.4c-0.1-0.1-0.3-0.2-0.4-0.2
			c-1.7-1.1-3.4-2.3-5.1-3.4c-0.1-0.1-0.2-0.1-0.3-0.2c-1.7-1.1-3.5-2.2-5.3-3.3c-0.2-0.2-0.5-0.3-0.7-0.4c-1.7-1-3.5-2-5.3-3
			c-0.3-0.2-0.6-0.3-0.9-0.5c-1.8-1-3.6-2-5.4-2.9c-0.3-0.2-0.6-0.3-0.9-0.4c-1.9-1-3.8-1.9-5.8-2.9c-0.2-0.1-0.3-0.2-0.5-0.2
			c-2-1-4-1.9-6.1-2.8c-0.1-0.1-0.2-0.1-0.3-0.1c-2-0.9-4.1-1.8-6.2-2.7c-0.3-0.1-0.6-0.2-0.9-0.4c-2-0.9-4.1-1.7-6.2-2.5
			c-0.3-0.1-0.7-0.3-1.1-0.4c-2.1-0.8-4.2-1.6-6.3-2.4c-0.3-0.1-0.7-0.2-1-0.4c-2.2-0.8-4.4-1.6-6.6-2.3c-0.2-0.1-0.4-0.1-0.7-0.2
			c-2.3-0.8-4.6-1.5-6.9-2.2c-0.1,0-0.2-0.1-0.3-0.1c-2.3-0.7-4.7-1.4-7.1-2.1l-1-0.3c-2.3-0.7-4.6-1.3-6.9-1.9
			c-0.4-0.1-0.8-0.2-1.2-0.3c-2.3-0.6-4.6-1.2-7-1.8c-0.4-0.1-0.8-0.2-1.2-0.3c-2.4-0.6-4.8-1.1-7.3-1.7c-0.3-0.1-0.5-0.1-0.8-0.2
			c-2.5-0.6-5.1-1.1-7.6-1.6c-0.1,0-0.2,0-0.2-0.1c-2.6-0.5-5.1-1-7.7-1.4c-0.3-0.1-0.7-0.1-1-0.2c-2.5-0.4-5-0.8-7.5-1.2
			c-0.4-0.1-0.9-0.1-1.3-0.2c-2.5-0.4-5-0.8-7.5-1.1c-0.4-0.1-0.9-0.1-1.3-0.2c-2.6-0.3-5.2-0.7-7.8-1c-0.3,0-0.6-0.1-0.9-0.1
			c-2.7-0.3-5.4-0.6-8.2-0.9c0,0-0.1,0-0.1,0c-2.7-0.3-5.5-0.5-8.3-0.7c-0.4,0-0.7-0.1-1-0.1c-2.6-0.2-5.3-0.4-8-0.5
			c-0.5,0-0.9-0.1-1.4-0.1c-2.6-0.2-5.3-0.3-8-0.4c-0.5,0-0.9,0-1.4-0.1c-2.7-0.1-5.4-0.2-8.2-0.2c-0.3,0-0.7,0-1,0
			c-0.7,0-1.5,0-2.3,0V50.2c0,0,0,0,0,0c0.3,0,0.6,0,0.8-0.1c0.4,0,0.8-0.1,1.2-0.1c0.3,0,0.6-0.1,0.9-0.1c0.4-0.1,0.8-0.1,1.2-0.2
			c0.3,0,0.6-0.1,0.8-0.1c0.4-0.1,0.8-0.1,1.2-0.2c0.3-0.1,0.5-0.1,0.8-0.1c0.4-0.1,0.8-0.2,1.3-0.2c0.2-0.1,0.4-0.1,0.7-0.1
			c0.5-0.1,1.1-0.2,1.6-0.4c0.1,0,0.2,0,0.3-0.1c0.6-0.1,1.2-0.3,1.8-0.5c0.2-0.1,0.4-0.1,0.6-0.2c0.4-0.1,0.8-0.2,1.2-0.3
			c0.2-0.1,0.4-0.2,0.7-0.2c0.3-0.1,0.7-0.2,1-0.3c0.2-0.1,0.5-0.2,0.7-0.2c0.3-0.1,0.7-0.2,1-0.4c0.2-0.1,0.5-0.2,0.7-0.3
			c0.3-0.1,0.6-0.3,0.9-0.4c0.2-0.1,0.4-0.2,0.7-0.3c0.3-0.1,0.6-0.3,0.9-0.4c0.2-0.1,0.4-0.2,0.6-0.3c0.3-0.2,0.6-0.3,0.9-0.5
			c0.2-0.1,0.4-0.2,0.5-0.3c0.4-0.2,0.7-0.4,1.1-0.6c0.1-0.1,0.2-0.1,0.3-0.2c0.4-0.3,0.9-0.5,1.3-0.8c0.1-0.1,0.3-0.2,0.4-0.3
			c0.3-0.2,0.6-0.4,0.9-0.6c0.2-0.1,0.3-0.2,0.5-0.3c0.3-0.2,0.5-0.4,0.7-0.6c0.2-0.1,0.3-0.3,0.5-0.4c0.2-0.2,0.4-0.4,0.7-0.6
			c0.2-0.1,0.3-0.3,0.5-0.4c0.2-0.2,0.4-0.4,0.6-0.6c0.1-0.1,0.3-0.3,0.4-0.4c0.2-0.2,0.4-0.4,0.6-0.6c0.1-0.1,0.3-0.3,0.4-0.4
			c0.2-0.2,0.4-0.4,0.6-0.6c0.1-0.1,0.2-0.3,0.3-0.4c0.2-0.3,0.4-0.5,0.6-0.8c0.1-0.1,0.1-0.2,0.2-0.3c0.3-0.4,0.5-0.7,0.7-1.1
			c0.1-0.1,0.1-0.2,0.2-0.3c0.2-0.3,0.3-0.6,0.5-0.8c0.1-0.1,0.1-0.3,0.2-0.4c0.1-0.2,0.2-0.5,0.3-0.7c0.1-0.2,0.1-0.3,0.2-0.5
			c0.1-0.2,0.2-0.5,0.3-0.7c0.1-0.2,0.1-0.3,0.2-0.5c0-0.1,0.1-0.2,0.1-0.4h73.2C422.3,29.8,473.7,81.2,473.7,144.5z"/>
		<path class="st23" d="M236.9,50.2v1.6H129.2c-51.9,0-93.9,42-93.9,93.9v41.5c-1.5,1.1-2.9,2.2-4.4,3.4c-0.3,0.2-0.5,0.4-0.8,0.7
			c-1.4,1.1-2.8,2.3-4.2,3.5c-0.2,0.2-0.4,0.4-0.7,0.6c-1.4,1.2-2.8,2.4-4.1,3.7c-0.1,0.1-0.2,0.2-0.3,0.3c-1.3,1.2-2.6,2.5-3.9,3.8
			c-0.1,0.1-0.2,0.2-0.3,0.3c-1.2,1.3-2.4,2.6-3.6,3.9c-0.1,0.1-0.2,0.2-0.3,0.4v-63.1c0-63.2,51.4-114.7,114.7-114.7h73.2
			c0,0.1,0.1,0.2,0.1,0.4c0.1,0.2,0.1,0.3,0.2,0.5c0.1,0.2,0.2,0.5,0.3,0.7c0.1,0.2,0.1,0.3,0.2,0.5c0.1,0.2,0.2,0.5,0.3,0.7
			c0.1,0.1,0.1,0.3,0.2,0.4c0.1,0.3,0.3,0.6,0.5,0.8c0.1,0.1,0.1,0.2,0.2,0.3c0.2,0.4,0.5,0.7,0.7,1.1c0.1,0.1,0.1,0.2,0.2,0.3
			c0.2,0.3,0.4,0.5,0.6,0.8c0.1,0.1,0.2,0.3,0.3,0.4c0.2,0.2,0.4,0.4,0.6,0.7c0.1,0.1,0.3,0.3,0.4,0.4c0.2,0.2,0.4,0.4,0.6,0.6
			c0.1,0.1,0.3,0.3,0.4,0.4c0.2,0.2,0.4,0.4,0.6,0.6c0.2,0.1,0.3,0.3,0.5,0.4c0.2,0.2,0.4,0.4,0.7,0.6c0.2,0.1,0.3,0.3,0.5,0.4
			c0.2,0.2,0.5,0.4,0.7,0.6c0.2,0.1,0.3,0.2,0.5,0.3c0.3,0.2,0.6,0.4,0.9,0.6c0.1,0.1,0.2,0.2,0.4,0.2c0.4,0.3,0.9,0.6,1.3,0.8
			c0.1,0.1,0.2,0.1,0.3,0.2c0.4,0.2,0.7,0.4,1.1,0.6c0.2,0.1,0.4,0.2,0.5,0.3c0.3,0.2,0.6,0.3,0.9,0.5c0.2,0.1,0.4,0.2,0.6,0.3
			c0.3,0.1,0.6,0.3,0.9,0.4c0.2,0.1,0.4,0.2,0.7,0.3c0.3,0.1,0.6,0.3,0.9,0.4c0.2,0.1,0.4,0.2,0.7,0.3c0.3,0.1,0.7,0.2,1,0.4
			c0.2,0.1,0.5,0.2,0.7,0.2c0.3,0.1,0.7,0.2,1,0.3c0.2,0.1,0.4,0.1,0.7,0.2c0.4,0.1,0.8,0.2,1.2,0.3c0.2,0.1,0.4,0.1,0.6,0.2
			c0.6,0.2,1.2,0.3,1.8,0.5c0.1,0,0.2,0,0.2,0.1c0.6,0.1,1.1,0.3,1.6,0.4c0.2,0,0.4,0.1,0.7,0.1c0.4,0.1,0.8,0.2,1.3,0.2
			c0.3,0,0.5,0.1,0.8,0.1c0.4,0.1,0.8,0.1,1.2,0.2c0.3,0,0.6,0.1,0.8,0.1c0.4,0.1,0.8,0.1,1.2,0.2c0.3,0,0.6,0.1,0.8,0.1
			c0.4,0.1,0.8,0.1,1.2,0.1C236.3,50.1,236.6,50.2,236.9,50.2C236.8,50.2,236.9,50.2,236.9,50.2z"/>
		<path class="st22" d="M236.9,51.8v78.9c-0.8,0-1.5,0-2.3,0c-0.3,0-0.7,0-1,0c-2.7,0.1-5.4,0.1-8.2,0.2c-0.5,0-0.9,0-1.4,0.1
			c-2.7,0.1-5.3,0.2-8,0.4c-0.5,0-0.9,0.1-1.4,0.1c-2.7,0.2-5.3,0.3-8,0.5c-0.3,0-0.7,0.1-1.1,0.1c-2.8,0.2-5.5,0.4-8.3,0.7
			c-0.1,0-0.1,0-0.2,0c-2.7,0.3-5.4,0.6-8.1,0.9c-0.3,0-0.7,0.1-1,0.1c-2.6,0.3-5.2,0.6-7.7,1c-0.5,0.1-0.9,0.1-1.4,0.2
			c-2.5,0.3-5,0.7-7.5,1.1c-0.5,0.1-0.9,0.2-1.4,0.2c-2.5,0.4-5,0.8-7.4,1.2c-0.4,0.1-0.8,0.1-1.1,0.2c-2.6,0.4-5.1,0.9-7.6,1.4
			c-0.1,0-0.3,0.1-0.4,0.1c-2.5,0.5-4.9,1-7.4,1.5c-0.3,0.1-0.6,0.1-1,0.2c-2.4,0.5-4.8,1.1-7.1,1.6c-0.4,0.1-0.9,0.2-1.3,0.3
			c-2.3,0.6-4.6,1.1-6.8,1.7c-0.5,0.1-0.9,0.2-1.4,0.4c-2.3,0.6-4.5,1.2-6.7,1.8c-0.4,0.1-0.8,0.2-1.2,0.3c-2.3,0.7-4.6,1.3-6.9,2
			c-0.2,0.1-0.4,0.1-0.5,0.2c-2.2,0.7-4.4,1.4-6.6,2.1c-0.3,0.1-0.6,0.2-0.9,0.3c-2.2,0.7-4.3,1.5-6.4,2.2c-0.4,0.1-0.8,0.3-1.2,0.4
			c-2.1,0.8-4.1,1.5-6.1,2.3c-0.4,0.2-0.8,0.3-1.3,0.5c-2,0.8-4,1.6-6,2.4c-0.4,0.2-0.7,0.3-1.1,0.5c-2,0.9-4,1.7-6,2.6
			c-0.2,0.1-0.4,0.2-0.6,0.3c-1.9,0.9-3.8,1.8-5.7,2.7c-0.2,0.1-0.5,0.2-0.7,0.4c-1.9,0.9-3.7,1.8-5.6,2.8c-0.3,0.2-0.7,0.4-1,0.6
			c-1.8,0.9-3.5,1.9-5.3,2.8c-0.4,0.2-0.7,0.4-1.1,0.6c-1.7,1-3.4,2-5.1,3c-0.3,0.2-0.6,0.4-0.9,0.6c-1.7,1-3.4,2.1-5.1,3.2
			c-0.2,0.1-0.3,0.2-0.5,0.3c-1.6,1.1-3.3,2.1-4.8,3.2c-0.2,0.1-0.4,0.2-0.5,0.4c-1.6,1.1-3.1,2.2-4.7,3.4c-0.3,0.2-0.5,0.4-0.8,0.6
			v-41.5c0-51.9,42-93.9,93.9-93.9H236.9z"/>
		<g>
			<path class="st10" d="M313.5,598.2H173.1c-19.5,0-35.4,15.9-35.4,35.4v49.6l6.2,0.2c1.3,0,2.5,0.1,3.8,0.1h191.1
				c1.3,0,2.5,0,3.8-0.1l6.2-0.2v-49.6C348.8,614.1,333,598.2,313.5,598.2z M336,670.6H150.5v-37c0-12.5,10.1-22.6,22.6-22.6h140.4
				c12.5,0,22.6,10.1,22.6,22.6V670.6z"/>
			<path class="st10" d="M457.9,445c-16.6,0-30.1,13.5-30.1,30.1v106.5c0,32.7-17.7,62.3-45.8,77.8v-48c0-27.8-22.6-50.4-50.4-50.4
				H154.9c-27.8,0-50.4,22.6-50.4,50.4v48c-28.1-15.6-45.8-45.2-45.8-77.8V475.1c0-16.6-13.5-30.1-30.1-30.1H0v178.6
				c0,81,65.9,146.9,146.9,146.9h192.8c81,0,146.9-65.9,146.9-146.9V445H457.9z M473.7,623.7c0,73.9-60.1,134.1-134.1,134.1H146.9
				c-73.9,0-134.1-60.1-134.1-134.1V457.8h15.8c9.5,0,17.3,7.7,17.3,17.3v106.5c0,41.2,24.6,78.1,62.5,93.9l8.9,3.7v-67.8
				c0-20.7,16.9-37.6,37.6-37.6h176.7c20.7,0,37.6,16.9,37.6,37.6v67.8l8.9-3.7c38-15.9,62.5-52.8,62.5-93.9V475.1
				c0-9.5,7.8-17.3,17.3-17.3h15.8V623.7z"/>
			<path class="st24" d="M457.9,457.8c-9.5,0-17.3,7.7-17.3,17.3v106.5c0,41.2-24.6,78.1-62.5,93.9l-8.9,3.7v-67.8
				c0-20.7-16.9-37.6-37.6-37.6H154.9c-20.7,0-37.6,16.9-37.6,37.6v67.8l-8.9-3.7c-38-15.9-62.5-52.8-62.5-93.9V475.1
				c0-9.5-7.8-17.3-17.3-17.3H12.8v165.8c0,73.9,60.1,134.1,134.1,134.1h62.4c0-21.1,23.5-23.3,23.5-23.3s35.1,0,118.3,0
				c37.1,0,62.6-20.7,79.4-43.5c18.7-25.5,28.3-56.5,28.3-88.1v-68.9c0-15.8,15-15,15-15v-60.9H457.9z M348.8,683.2l-6.2,0.2
				c-1.3,0-2.5,0.1-3.8,0.1H147.7c-1.3,0-2.5,0-3.8-0.1l-6.2-0.2v-49.6c0-19.5,15.9-35.4,35.4-35.4h140.4
				c19.5,0,35.4,15.9,35.4,35.4V683.2z"/>
			<path class="st25" d="M473.7,518.8v104.9c0,73.9-60.1,134.1-134.1,134.1H209.2c0-21.1,23.5-23.3,23.5-23.3s35.1,0,118.3,0
				c37.1,0,62.6-20.7,79.4-43.5c18.7-25.5,28.3-56.5,28.3-88.1v-68.9C458.7,518,473.7,518.8,473.7,518.8z"/>
		</g>
		<g>
			<path class="st10" d="M463.8,332.1h-51c-4.5,0-8.7,1.3-12.2,3.6c-3.2-2.3-7.1-3.6-11.4-3.6h-56.8c-3.7,0-7.1,1-10,2.7
				c-2.9-1.7-6.2-2.8-9.8-2.8h-22.3c-2.7,0-5.4,0.6-7.8,1.7c-2.4-1.1-5.1-1.7-7.8-1.7h-22.3c-3.2,0-6.3,0.8-8.9,2.2
				c-2.8-1.4-6.2-2.2-10.1-2.2h-55.2c-4,0-7.6,1.1-10.8,3.1c-3.1-2-6.7-3.1-10.6-3.1H99.9c-2.7,0-5.3,0.6-7.7,1.5
				c0.1-1,0.2-2.1,0.2-3.2v-39.8c0-13.4-10.9-24.3-24.3-24.3H24.3C10.9,266.4,0,277.3,0,290.7v113.9c0,13.3,10.8,24.2,24.2,24.2
				h50.6c4.4,0,8.5-1.2,12.1-3.3c2.8,2,6.2,3.3,9.9,3.3h63.6c3,0,5.9-0.8,8.3-2.3c2.8,1.5,6,2.3,9.4,2.3h32.3c3.3,0,6.5-0.8,9.4-2.2
				c2.8,1.4,6,2.2,9.4,2.2h5.4c3.2,0,6.2-0.9,8.8-2.4c2.7,1.5,5.9,2.4,9.2,2.4h9.1c2.8,0,5.6-0.6,8.1-1.8c2.5,1.2,5.3,1.8,8.1,1.8
				h9.1c2.8,0,5.6-0.6,8.1-1.8c2.5,1.2,5.3,1.8,8.1,1.8h9.1c3.2,0,6.2-0.8,8.8-2.2c2.4,1.4,5.2,2.2,8.2,2.2h63.6c3.3,0,6.5-1,9-2.7
				c3.2,1.8,6.9,2.7,10.8,2.7h13.9c4.1,0,8.1-1.1,11.5-3.1c3.4,2,7.4,3.1,11.5,3.1h14c12.5,0,22.8-10.2,22.8-22.8v-51.1
				C486.5,342.3,476.3,332.1,463.8,332.1z M86.2,404.4c0,6.3-5.1,11.4-11.4,11.4H24.2c-6.2,0-11.3-5.1-11.3-11.3V290.7
				c0-6.3,5.1-11.4,11.4-11.4h43.8c6.3,0,11.4,5.1,11.4,11.4v39.8c0,6-4.9,12.8-11.4,12.8c-0.9,0-1.7,0.7-1.7,1.7
				c0,0.9,0.7,1.7,1.7,1.7h6.6c6.3,0,11.4,5.1,11.4,11.4V404.4z M163.7,383.8c0,3.9-3.2,7-7.1,7H117c-0.9,0-1.7,0.7-1.7,1.7
				c0,0.9,0.7,1.7,1.7,1.7h43.4c1.8,0,3.4,1.5,3.4,3.3v15c0,1.9-1.5,3.4-3.4,3.4H96.8c-2.2,0-4-1.8-4-4V352c0-3.9,3.2-7.1,7-7.1
				h56.8c3.9,0,7.1,3.2,7.1,7.1V383.8z M239.5,410.9c0,2.7-2.2,5-5,5h-5.4c-4.2,0-7.7-3.5-7.7-7.7c0-0.9-0.7-1.7-1.7-1.7
				c-0.9,0-1.7,0.7-1.7,1.7c0,4.2-3.5,7.7-7.7,7.7h-32.3c-4.2,0-7.7-3.5-7.7-7.7v-55.5c0-4.2,3.5-7.7,7.7-7.7h55.2
				c4.8,0,6.2,1.4,6.2,6.2V410.9z M318.7,409.4c0,3.5-2.9,6.4-6.4,6.4h-9.1c-3.5,0-6.4-2.9-6.4-6.4c0-0.9-0.8-1.7-1.7-1.7
				c-0.9,0-1.7,0.8-1.7,1.7c0,3.5-2.9,6.4-6.4,6.4h-9.1c-3.5,0-6.4-2.9-6.4-6.4c0-0.9-0.8-1.7-1.7-1.7c-0.9,0-1.7,0.8-1.7,1.7
				c0,3.5-2.9,6.4-6.4,6.4h-9.1c-3.5,0-6.4-2.9-6.4-6.4v-58.3c0-3.4,2.8-6.2,6.2-6.2h22.3c3.4,0,6.2,2.8,6.2,6.2
				c0,0.9,0.7,1.7,1.7,1.7c0.9,0,1.7-0.7,1.7-1.7c0-3.4,2.8-6.2,6.2-6.2h22.3c3.4,0,6.2,2.8,6.2,6.2V409.4z M396.3,383.8
				c0,3.9-3.2,7-7.1,7h-39.7c-0.9,0-1.7,0.7-1.7,1.7c0,0.9,0.7,1.7,1.7,1.7h43.4c1.8,0,3.4,1.5,3.4,3.3v15c0,1.9-1.5,3.4-3.4,3.4
				h-63.6c-2.2,0-4-1.8-4-4V352c0-3.9,3.1-7.1,7-7.1h56.8c3.9,0,7.1,3.2,7.1,7.1V383.8z M473.7,406c0,5.4-4.4,9.9-9.9,9.9h-14
				c-5.5,0-9.9-4.4-9.9-9.9v-25.6c0-0.9-0.7-1.7-1.7-1.7c-0.9,0-1.7,0.7-1.7,1.7V406c0,5.4-4.4,9.9-9.9,9.9h-13.9
				c-5.5,0-9.9-4.4-9.9-9.9v-51.1c0-5.4,4.4-9.9,9.9-9.9h51c5.4,0,9.9,4.4,9.9,9.9V406z"/>
			<path class="st5" d="M86.2,358v46.4c0,6.3-5.1,11.4-11.4,11.4H24.2c-6.2,0-11.3-5.1-11.3-11.3V290.7c0-6.3,5.1-11.4,11.4-11.4
				h43.8c6.3,0,11.4,5.1,11.4,11.4v39.8c0,6-4.9,12.8-11.4,12.8c-0.9,0-1.7,0.7-1.7,1.7c0,0.9,0.7,1.7,1.7,1.7h6.6
				C81.1,346.6,86.2,351.7,86.2,358z"/>
			<path class="st5" d="M115.4,392.5c0,0.9,0.7,1.7,1.7,1.7h43.4c1.8,0,3.4,1.5,3.4,3.3v15c0,1.9-1.5,3.4-3.4,3.4H96.8
				c-2.2,0-4-1.8-4-4V352c0-3.9,3.2-7.1,7-7.1h56.8c3.9,0,7.1,3.2,7.1,7.1v31.8c0,3.9-3.2,7-7.1,7H117
				C116.1,390.9,115.4,391.6,115.4,392.5z"/>
			<path class="st5" d="M347.9,392.5c0,0.9,0.7,1.7,1.7,1.7h43.4c1.8,0,3.4,1.5,3.4,3.3v15c0,1.9-1.5,3.4-3.4,3.4h-63.6
				c-2.2,0-4-1.8-4-4V352c0-3.9,3.1-7.1,7-7.1h56.8c3.9,0,7.1,3.2,7.1,7.1v31.8c0,3.9-3.2,7-7.1,7h-39.7
				C348.6,390.9,347.9,391.6,347.9,392.5z"/>
			<path class="st5" d="M239.5,351.2v59.7c0,2.7-2.2,5-5,5h-5.4c-4.2,0-7.7-3.5-7.7-7.7c0-0.9-0.7-1.7-1.7-1.7
				c-0.9,0-1.7,0.7-1.7,1.7c0,4.2-3.5,7.7-7.7,7.7h-32.3c-4.2,0-7.7-3.5-7.7-7.7v-55.5c0-4.2,3.5-7.7,7.7-7.7h55.2
				C238.1,345,239.5,346.4,239.5,351.2z"/>
			<path class="st5" d="M318.7,351.1v58.3c0,3.5-2.9,6.4-6.4,6.4h-9.1c-3.5,0-6.4-2.9-6.4-6.4c0-0.9-0.8-1.7-1.7-1.7
				c-0.9,0-1.7,0.8-1.7,1.7c0,3.5-2.9,6.4-6.4,6.4h-9.1c-3.5,0-6.4-2.9-6.4-6.4c0-0.9-0.8-1.7-1.7-1.7c-0.9,0-1.7,0.8-1.7,1.7
				c0,3.5-2.9,6.4-6.4,6.4h-9.1c-3.5,0-6.4-2.9-6.4-6.4v-58.3c0-3.4,2.8-6.2,6.2-6.2h22.3c3.4,0,6.2,2.8,6.2,6.2
				c0,0.9,0.7,1.7,1.7,1.7c0.9,0,1.7-0.7,1.7-1.7c0-3.4,2.8-6.2,6.2-6.2h22.3C315.9,345,318.7,347.7,318.7,351.1z"/>
			<path class="st5" d="M473.7,354.9V406c0,5.4-4.4,9.9-9.9,9.9h-14c-5.5,0-9.9-4.4-9.9-9.9v-25.6c0-0.9-0.7-1.7-1.7-1.7
				c-0.9,0-1.7,0.7-1.7,1.7V406c0,5.4-4.4,9.9-9.9,9.9h-13.9c-5.5,0-9.9-4.4-9.9-9.9v-51.1c0-5.4,4.4-9.9,9.9-9.9h51
				C469.2,345,473.7,349.4,473.7,354.9z"/>
		</g>
	</g>
</g>
<g id="Layer_4">
</g>
<g id="Layer_3">
</g>
</svg>
