<?xml version="1.0" encoding="utf-8"?>
<!-- Generator: Adobe Illustrator 26.1.0, SVG Export Plug-In . SVG Version: 6.00 Build 0)  -->
<svg version="1.1" id="Layer_1" xmlns="http://www.w3.org/2000/svg" xmlns:xlink="http://www.w3.org/1999/xlink" x="0px" y="0px"
	 viewBox="0 0 2804.2 792" enable-background="new 0 0 2804.2 792" xml:space="preserve">
<g>
	<g>
		<g>
			<path d="M99,490.8V360c0-29.6,14-43.6,43.6-43.6h64.8c29.6,0,43.6,14,43.6,43.6v23.7h-22.4v-24.3c0-16.2-6.2-22.4-22.4-22.4
				h-62.3c-16.2,0-22.4,6.2-22.4,22.4v132.1c0,16.2,6.2,22.4,22.4,22.4h62.3c16.2,0,22.4-6.2,22.4-22.4v-24.3H251v23.7
				c0,28.3-14,43.6-43.6,43.6h-64.8C113,534.4,99,519.1,99,490.8z"/>
			<path d="M313.3,454.6v39.2c0,15.6,6.2,21.8,21.8,21.8h43c15.6,0,21.8-6.2,21.8-21.8v-12.1h21.2V492c0,28.7-13.7,42.4-42.4,42.4
				h-44.2c-28.7,0-42.4-13.7-42.4-42.4v-83.5c0-28.7,13.7-42.4,42.4-42.4h44.2c28.7,0,42.4,13.7,42.4,42.4v46.1H313.3z M313.3,406.7
				v30.5h86.6v-30.5c0-15.6-5.9-21.8-21.8-21.8h-43C319.5,384.9,313.3,391.1,313.3,406.7z"/>
			<path d="M464.7,366.2h21.2v24.3c14.9-12.5,29.3-24.3,53.6-24.3h11.8v20.6h-11.8c-21.5,0-37.1,9-53.6,19.6v128h-21.2V366.2z"/>
			<path d="M576.2,492v-83.5c0-28.7,13.7-42.4,42.4-42.4h42.4c28.7,0,42.4,13.7,42.4,42.4v11.2h-21.2v-12.5
				c0-15.6-6.2-21.8-21.8-21.8h-41.1c-15.6,0-21.8,6.2-21.8,21.8v86c0,15.6,6.2,21.8,21.8,21.8h41.1c15.6,0,21.8-6.2,21.8-21.8
				v-12.5h21.2V492c0,28.7-13.7,42.4-42.4,42.4h-42.4C589.9,534.4,576.2,520.7,576.2,492z"/>
			<path d="M761.8,454.6v39.2c0,15.6,6.2,21.8,21.8,21.8h43c15.6,0,21.8-6.2,21.8-21.8v-12.1h21.2V492c0,28.7-13.7,42.4-42.4,42.4
				H783c-28.7,0-42.4-13.7-42.4-42.4v-83.5c0-28.7,13.7-42.4,42.4-42.4h44.2c28.7,0,42.4,13.7,42.4,42.4v46.1H761.8z M761.8,406.7
				v30.5h86.6v-30.5c0-15.6-5.9-21.8-21.8-21.8h-43C768,384.9,761.8,391.1,761.8,406.7z"/>
			<path d="M1019.3,534.4L970.1,445l-35.8,41.4v48h-21.2V307h21.2v152.6l77.9-93.4h25.9l-54.8,63.5l59.8,104.7H1019.3z"/>
		</g>
		<g>
			<path d="M1243.2,312h24.3v27.4h-24.3V312z M1244.7,364.9h21.2v168.2h-21.2V364.9z"/>
			<path d="M1539.4,405.4v127.7h-21.2V404.2c0-15.6-6.2-21.8-24-21.8c-23.4,0-37.7,7.5-55.7,20.2v2.8v127.7h-21.2V404.2
				c0-15.6-6.2-21.8-24-21.8c-23.7,0-37.4,7.2-55.7,20.2v130.5h-21.2V364.9h21.2v22.4c16.5-14,29.6-24.3,56.1-24.3
				c24.3,0,38,8.4,43,25.9c15.9-14.6,32.1-25.9,57.9-25.9C1525.7,363.1,1539.4,376.8,1539.4,405.4z"/>
			<path d="M1607.6,510.1v23h-21.2V305.8h21.2V388c16.5-14,29.6-24.3,61.7-24.3c36.8,0,50.5,13.7,50.5,42.4v86
				c0,28.7-13.7,42.4-50.5,42.4C1637.1,534.4,1624.1,524.1,1607.6,510.1z M1698.5,493.3v-88.5c0-15.6-6.2-21.8-29.6-21.8
				c-29.3,0-43,7.2-61.4,20.2v91.6c18.4,13.1,32.1,20.2,61.4,20.2C1692.3,515.1,1698.5,508.8,1698.5,493.3z"/>
			<path d="M1782,453.4v39.2c0,15.6,6.2,21.8,21.8,21.8h43c15.6,0,21.8-6.2,21.8-21.8v-12.1h21.2v10.3c0,28.7-13.7,42.4-42.4,42.4
				h-44.2c-28.7,0-42.4-13.7-42.4-42.4v-83.5c0-28.7,13.7-42.4,42.4-42.4h44.2c28.7,0,42.4,13.7,42.4,42.4v46.1H1782z M1782,405.4
				V436h86.6v-30.5c0-15.6-5.9-21.8-21.8-21.8h-43C1788.2,383.6,1782,389.9,1782,405.4z"/>
			<path d="M1933.3,364.9h21.2v24.3c14.9-12.5,29.3-24.3,53.6-24.3h11.8v20.6h-11.8c-21.5,0-37.1,9-53.6,19.6v128h-21.2V364.9z"/>
			<path d="M2044.8,490.8v-83.5c0-28.7,13.7-42.4,42.4-42.4h42.4c28.7,0,42.4,13.7,42.4,42.4v11.2h-21.2v-12.5
				c0-15.6-6.2-21.8-21.8-21.8h-41.1c-15.6,0-21.8,6.2-21.8,21.8v86c0,15.6,6.2,21.8,21.8,21.8h41.1c15.6,0,21.8-6.2,21.8-21.8
				v-12.5h21.2v11.2c0,28.7-13.7,42.4-42.4,42.4h-42.4C2058.5,533.1,2044.8,519.4,2044.8,490.8z"/>
			<path d="M2213,364.9h21.2v24.3c14.9-12.5,29.3-24.3,53.6-24.3h11.8v20.6h-11.8c-21.5,0-37.1,9-53.6,19.6v128H2213V364.9z"/>
			<path d="M2321.7,484.5c0-34.9,13.7-44.5,42.4-47.3c15.3-1.6,39.2-3.4,66.7-4.7v-27.1c0-15.6-6.2-21.8-21.8-21.8h-38.6
				c-15.6,0-21.8,6.2-21.8,21.8v4.7h-21.2v-2.8c0-28.7,13.7-42.4,42.4-42.4h39.9c28.7,0,42.4,13.7,42.4,42.4v125.8h-21.2v-23
				c-14,16.5-29.6,24.3-60.1,24.3C2335.4,534.4,2321.7,519.4,2321.7,484.5z M2430.7,495.4v-48.3l-66,7.5
				c-15.6,1.9-21.8,6.2-21.8,29.9c0,23.7,6.2,31.1,28,31.1C2398.6,515.7,2412.3,508.5,2430.7,495.4z"/>
			<path d="M2510.4,383h-29.6v-18.1h29.9v-16.8c0-28.7,13.7-42.4,42.4-42.4h24v18.7h-24c-15.3,0-21.8,6.2-21.8,21.8v18.7h48.9V383
				h-48.6v150.1h-21.2V383z"/>
			<path d="M2620.7,490.8V383.6h-24.9v-18.7h24.9v-40.5h21.2v40.5h42v18.7h-42V492c0,15.6,6.2,21.8,21.8,21.8h20.2v19.3H2663
				C2634.4,533.1,2620.7,519.4,2620.7,490.8z"/>
		</g>
		<path d="M1531.8,110.4c2.2,0.5,3.9,2.7,6.8,2.2c-1.1-2.7-2.8-3.9-5.2-4.3c-1.5-1.3-3.9-1-4.9-2.9c1.5-1.1,3.2-0.7,4.8-1
			c0.8-0.1,2.2-0.1,1.9-1.3c-0.2-1.1-1.1-2.2-2.6-1.3c-1-0.1-1.9-0.2-2.9-0.3c-2.4-4.2-2.4-4.2-4.5-2.6c-5.7,4.6-13.5,3.9-19.6,7.4
			c-0.6,0.3-1.7,0.4-1.9-0.6c-0.1-0.6,0.3-1.8,0.9-2c9-4.6,0.8-4.3-1.6-5.7c-0.2-0.2-0.4-0.5-0.7-0.8c3.1-2.4,6.3-0.4,9.5-0.4
			c1.3,1.5,2.6,1.9,3.7-0.1c0.6-0.1,1.1-0.2,1.7-0.4c1.8,0.9,3.8,0.8,4.5-0.9c0.8-1.7-1.2-2.6-2.4-3.5c-0.9-0.6-1.7-1.3-2.6-2
			c0-0.4,0-0.9,0-1.3c0.9-1.8,4.7-2.1,3.6-4c-1.2-2.2-4.2-1-6.4-0.2c-0.3,0.1-0.6,0.3-0.9,0.3c-2,0.1-4.1,0.4-6.1,0.2
			c-1.8-0.2-3.3-1.5-3.3-3.4c0-2,2-1.4,3.3-1.8c1-0.3,2.2-0.1,2.6-1.5c-1.7-1.2-3.6-0.9-5.4-0.9c-1.6,0-2.4-0.5-1.9-2.2
			c1.1,0,2-0.2,2.8-0.7c0.8-0.5,1.5-1.2,2.1-2.2c-8.2-2-8.2-2-9.7,3.8c-0.2,0.2-0.5,0.4-0.7,0.7c-6.3,0.3-6.3,0.3-4.6,5.2
			c-0.4,0.2-0.7,0.4-1.1,0.6c-1.2-0.1-2.5-0.2-3.7-0.4c-1.5-0.2-3.2-0.2-3.5-2.3c-0.3-2,1.2-2.2,2.5-2.7c3-1.2,2.2-3.4,1.8-6.5
			c-4.7,4.3-10,4.8-15.2,5.7c-0.7,0-1.3,0-2,0c-1.6-1.7,0-3.1,0.4-4.6c0.3-1,1.3-1.9,0.4-3c-1-1.1-1.9,0.1-2.8,0.4
			c-1.9,0.7-3.6,1.5-5.5,2.3c-1.2-0.1-2.5-0.2-3.7-0.3c-0.8-1-1.7-1.9-1.6-3.3c0.3-0.1,0.5-0.2,0.6-0.5c4-0.1,7-3.3,11.1-3.3
			c-2.6-2-5.2-2.2-7.9-0.8c-1.4,0.8-2.6,1.8-4.2,0.8l-0.1-0.2c-1-1.6-3.2-2.2-3.5-4.6c-0.2-1.5-1.1-3.7-3.2-3.3
			c-1.9,0.3-2.6,2.2-2.6,4c-0.1,3.4-1.9,4-4.7,2.9c-4.2-1.6-8.5-2.2-13.2-1.4c0.5,1.4,1.6,2.2,2.5,2.2c5.7,0.1,8.7,3.7,11.1,8.1
			c0.6,1.1,3.1,1.4,1.8,3.1c-1.1,1.5-2.5,0.1-3.7-0.6c-1.4-0.9-3.2-1.5-4.5-0.6c-2,1.3,0.7,2.7,0.5,4.1c-0.1,0.5,0.3,1.1,0.6,1.8
			c4.8-4.4,9.4-3.5,12.1,2.1c0.7,1.4,1.5,2.7,2.3,4c0,0.7,0,1.5,0,2.2c-1,3.7-4,2.6-7.2,2.6c3,4.1,0.9,6.6-1.8,9
			c-0.9,0.8-1.9,1.6-2.1,3c-6.8,2.9-13,7.6-20.9,7.5c-3.8,1.5-8-2.2-11.9,0.9c-1,0.8-1.5-0.8-1.7-1.6c-0.9-2.9-2.5-4.5-5.9-3.9
			c-1.3,0.3-2.8-0.2-3.4-1.2c-2.7-4.4-8.8-4.1-11.5-8.5c-0.7-1.2-2.9-2.6-3.4,0c-0.7,3.8-2.3,2.3-4.2,1.4c-0.9-0.5-1.8-0.7-2.6,0.1
			c-0.5,0.6-0.1,1.1,0.3,1.6c0.8,0.9,2.5,1.5,1.6,3c-0.9,1.5-2.5,0.6-3.9,0.7c-2,0.1-5.2-2.2-5.6,0.6c-0.3,2.5,3.4,2.4,5.7,2.8
			c0.9,0.2,1.9,0,2.8,0.3c3.6,1.3,7.5,2,9.6,5.9c-0.1,0.8-0.2,1.7-0.3,2.5c-2.6,2.7-5,1.1-6.8-0.7c-3.2-3.1-6.6-4.4-10.9-2.6
			c-0.4-0.7-0.8-1.4-1.2-2.1c0.3-0.6,0.1-0.9-0.5-1.1c-4.4-2.4-9.5-2.7-14.1-4.7c-0.3-0.3-0.6-0.6-1-0.9l0,0c-1.3-3.3-4-3.9-7.1-3.9
			c-3.9-0.1-4.6-1.7-2.5-5c0.4-0.7,1-1.3,1.4-1.9c0.4-0.6,1-1.4,0.3-2.1c-0.8-0.7-1.6-0.1-2.1,0.4c-4.4,4.4-9.6,8-12.7,13.6
			c-0.9,0.1-1.9,0.2-2.8,0.3c-1.2-4.8-1.4-9.8-7.8-11.7c-2.3-0.7-3.1-1.8-4.5,0.8c-0.6,1.2-2.3,3.6-3.3,1.8c-1.5-2.5-2.3-2.2-4-0.7
			c-0.7,0.6-1.8,0.9-2.5,0c-0.8-1,0.3-1.5,0.9-2.2c1.3-1.8,2.1-3.7,0.9-6.9c-3,5.4-7.3,8.4-11.6,11.4c-1.4,1-3,2.2-4.7,0.8
			c-2.4-2.1-4.9-4.2-5.8-7.7c-0.5-2.1,1.1-6.3-2.3-6.1c-2.8,0.2-1.9,4.1-2.1,6.5c-0.2,2.9-1.2,4.3-4.2,4.3c-2.8,0-5.6,0.8-6.5-3.3
			c-1.1-4.6-3.9-5.2-7.4-2c-0.7,0.6-1.2,1.4-1.8,2.1c-2.8-0.8-2-2.7-1.1-4.2c0.9-1.5,2.3-2.7,3.5-4.1c1.8-0.4,3.9-0.8,4.1-3.1
			c0.2-2-1.5-2.3-3.1-2.9c-2.3-1-0.9-2.4,0.2-3.1c3.8-2.6,4.4-7.4,7.8-10.4c1.2-1.1,1-3.8,1.2-5.8c0.1-1.1-1-2.2-1.6-1.1
			c-2.2,3.3-7.2,4.7-7.8,8.4c-1.1,5.7-5.2,9-8.3,13.1c-0.6,0.6-1.1,1.2-1.7,1.8c-2.2,1-4.2,2-5.6,4c-2.2,1-3.6,3.5-6.4,3.2
			c-0.3-0.2-0.7-0.3-1-0.5c-0.1-0.2-0.3-0.3-0.5-0.3c-1.9-1.8-3.7-3.7-5.6-5.4c-1.8-1.6-4-2.1-6-0.7c-2,1.4-1.9,3.6-0.5,5.3
			c1.4,1.7,0.6,3.2,0.1,4.8c-0.3,0.2-0.6,0.5-0.8,0.8c-0.8,0.1-1.4,0.4-1.8,1.1l0,0c-0.3,0.1-0.6,0.2-1,0.3
			c-0.7-0.2-1.5-0.4-2.3-0.6c-0.8-1.6-2.1-3.2,0.2-4.8c1.5-1.1,1.2-3-0.5-3.2c-3.2-0.5-6.9-1.7-9.1,2.3c-0.7,0.1-1.4,0.4-1.6,1.1
			c-0.6,0.1-1.1,0.2-1.7,0.2c-0.9,0-1.9,0-2.8-0.1c-0.4-1.4-3.1-0.8-2.7-2.6c0.3-1.3,1.9-1.5,3.1-1.9c3.7-1.2,7.5-2.3,11.2-3.4
			c0.9-0.3,1.9-0.6,1.9-1.7c0-1.3-0.8-1.9-2-2.2c-1.4-0.4-2.8-0.1-4.2,0.3c-2.8,0.9-5.7,1.8-8.5,2.8c-1.2,0.4-2.3,0.4-2.7-1
			c-0.5-1.6,0.9-1.7,1.9-1.9c2.1-0.6,4.3-1,5.2-4.3c-4.4,2.7-6.6-0.4-9.4-2.2c-1.6-1-3.4-2.2-5.1-0.3c-1.8,2.1-0.1,3.3,1.4,4.5
			c0.6,0.5,0.9,1.3,1.4,1.9c-0.3,0.4-0.7,0.9-1,1.3c-3.3-0.2-6.6,1.1-10-1c-1.1-0.7-4.3-1.6-6.5,0.1c-4.4,3.3-6.6,2.6-8.1-2.4
			c-0.5-1.6-1.4-3.8-2.9-1.6c-2.9,4.2-5.5,3.8-8.8,0.8c-0.7-0.6-1.7-1.1-2.5-0.2c-0.7,0.7,0.1,1.4,0.3,2.1c1,3.7,4.1,2.7,6.6,2.9
			c2.6,0.2,5.6-0.3,3.4,4c-0.7,1.4,0.2,2.3,1.2,3.2c2.8,2.4,1.2,3.5-1.3,4.6c-2.5,1.1-5.8,0.3-7.7,3c-3.9,2.1-5.8,0.4-6.7-3.4
			c-3.3-4.1-6.9-1.5-10.4-0.4c-0.5,0.1-1,0.1-1.5,0.2c-2.8-4-6.1-4.1-9.6-1.2c-2.5,2.1-3.8,1.9-5.2-1.1c-1.2-2.5-3-4.3-5.8-1.5
			c-1,1-1.6,0.9-2.7,0.1c-4.3-3.1-7.2-2.4-9.3,2c-0.1,0.3-0.3,0.6-0.6,0.7c-5.4,1.2-2.5,3.9-0.1,6.9c-4.4-0.4-7.8-0.7-11.2-1v-3
			c1.5-0.7,3.4-1.2,4.6-2.3c1.7-1.7,3-4-0.2-5.7c-4.5-2.4-4.6-2.6-0.1-5.9c0.9-0.7,2.2-1.1,1.4-2.5c-0.7-1.3-2-0.9-2.9-0.3
			c-2.5,1.7-4.7,1.9-7.3-0.2c-2-1.6-3.6,0.1-4.6,1.6c-1.4,2,0.9,2.2,1.9,2.9c1,0.7,2.5,1.2,1.6,2.8c-0.8,1.3-1.7,2.7-3.6,2.5
			c-1.1-0.1-2.1-0.6-3.2-0.7c-3.9-0.6-7.7-1.2-11.6-1.7c-1.1-0.1-2.4,0.1-2.7,1.4c-0.3,1.6,1.3,1.5,2.2,1.9c2.4,0.9,4.8,1.2,7.4,1.2
			c2,0.1,4,0,6,1.6c-2.4,0.8-5.5,0.7-5,4.4c0.1,1-0.8,1.2-1.6,1.2c-2.1-0.1-3.5,1-4.8,2.4c-1.3,1.4-3,1.2-4.4,0.6
			c-1.9-0.9,0-2.1,0.1-3.1c0.5-5.2-3.6-8.9-8.4-7.2c-3.1,1.1-4.2,0.4-4.7-2.8c-0.5-3.2-3.1-3.2-4.2-1.1c-2.3,4.5-4.8,3-7.7,1.2
			c-1.5-1-2.9-2-4.4-3c-1.6-2.4-4.3-3.9-5.6-6.6c-0.9-1.7-2.8-1.6-4.3,0c-0.9,0.9-1.8,1.6-2.7,2.5c-0.9,0-1.9-0.1-2.8-0.1
			c-2-1.4-3.7-3.7-6.7-2.3c-0.9,0.2-2.6-0.6-2.6,0.8c-0.1,2.2,2.3,1.9,3.6,2.7c1,1.4,2.8,2.8,0.1,4.3c-3.4-0.2-4.1-4.4-7.2-5
			c-0.4-0.6-0.8-0.7-1.3-0.1h-1.7c-0.4,0-0.8,0-1.2-0.1c-0.5,0-1.1-0.1-1.6-0.1c-2.6-0.5-5.2-0.4-7.8,0c-1.5,0-3.1,0-4.6-0.1
			c-1.2-1.4-0.3-8.2-4.5-1.7c-0.2,0.2-1,0.4-1.3,0.2c-2.5-1.1-5.7-0.4-7.7-1.8c-3.8-2.6-5.3,2.7-8.3,1.8c-0.4,5-4.1,3.5-7,3.6
			c-1.3,0.1-3.4-1-3.6,0.8c-0.2,1.9,2.1,1.9,3.5,2.4c2.5,0.8,5.6-0.1,7.7,2.5c-2.3,0.6-5.8-0.6-5.9,2c-0.1,2.2,3.5,1.7,5.5,2.4
			c0.7,0.2,1.6,0.1,2.3,0.2c2.2,0.2,3.4,1.4,3.6,3.6c-0.5,0.1-0.9,0.3-1.4,0.4c-3.2-1.1-6.6-1.5-10.1-1.5c-2.4,0.1-6.5-1.6-6.6,1.7
			c-0.2,2.8,4.1,2,6.5,2.5c0.7,0.3,1.4,0.6,2.2,0.9c0.4,0.5,0.9,0.6,1.5,0.4l0.4,0.2l0.4,0c1.2,0.8,2.5,1.4,4,1.1
			c1.1,0.8,2.3,1.2,3.6,1.3c1.8,2.2,5.1,1.9,7.5,4.1c-1.3,0.2-2,0.3-2.8,0.3c-4.5,0.2-9.2-2.1-13.3,2.2c-1.6,1.6-5.4,1.5-1,4.2
			c1.3,0.8,0.2,1.4-0.2,2.2c-1.2,2.1-1.4,4.3,0.7,5.9c2.7,2,10.9,0.4,13-2.4c1,0.2,2.8,0.3,2.7,1.2c-0.2,1.9-2.2,2.6-3.7,3.5
			c-0.7,0.1-1.4,0.2-2,0.2c-0.8,0.1-1.7,0.1-2.5,0.2c-2.6-0.9-4.9,0.1-7.1,1.3c-2.7,1.5-6,1.7-8.1,0.4c-3.6-2.3-7.8-2-11.4-3.6
			c-0.3-0.1-0.8,0.3-1.1,0.5c-0.2,1.7,2.4,1.7,1.8,3.5c-1.3,0.9-2.7,0.1-4.1,0.4c-1.7,0.3-4.5-1-4.6,1.7c-0.1,2.6,2.7,1.9,4.5,1.9
			c3,0.1,6.1-0.4,9.5,0.6c-2.9,2.2-3.1,3.8,0.5,4.2c2.9,0.3,5.9,1,8.9,0.3c5.2,1.7,11,0.9,17.2,3.9c-5.3,1-9.4,1.8-13.5,2.6
			c-4.3,0.3-8.4,0-11.9-2.9c-1-0.8-2.8-1.6-4-0.5c-2,1.9-4.4,2.2-7,2.2c-1.1,0-2.6,0.1-2.5,1.5c0.1,1.4,1.6,1.3,2.7,1.3
			c4.5,0.1,8.7,1.2,13,2.5c-3.9,1.1-7.7,1.8-11.5,2.6c-0.9,0.2-2,0.6-1.9,1.8c0,1.3,1.3,1.4,2.1,1.2c6.3-1.9,12.8-1,19.1-2.2
			c1.3,0.2,2.6,0.4,3.9,0.6c-0.1,0.5-0.1,1.1-0.2,1.6c-5.2,1.7-10.7,1.7-15.9,2.8c-4,0.4-8,1.1-11.9,2.3c-1,0.3-2.3,0.3-2.4,1.8
			c-0.1,1.1,1.1,1.4,1.7,2c1.6,1.5,3.4,1.6,5,0.3c2.6-2.1,5.7-2.4,8.8-2.7c3.4-0.3,6.7-0.6,10.1-0.8c0.9,0.2,1.8,0.5,2.7-0.1
			c1.1,0.1,2.5,0.7,2.3,1.7c-1.1,5.8,2.9,5.2,6.4,5.3c0.6,0.1,1.1,0.3,1.7,0.4c2.2,2.5,6.8,0.9,8,5l-0.2,0.2
			c-1.1-0.3-1.9,0.2-2.6,1.1c-0.5,0.1-0.9,0.2-1.4,0.4c-0.7-0.2-1.2,0-1.4,0.7c-0.2,0-0.4,0.1-0.5,0.3c-0.6-0.1-1,0.1-1.1,0.8
			c-0.3,0-0.5,0.1-0.6,0.3c-4.2,0.5-7.7,2.4-11.3,5.8c4.1,0.4,7.3,0.7,10.5,0.2c1.1-0.2,3-0.8,2.7,1.3c-1,5.3,1.5,2.9,3.6,1.8
			c1.9-1,3.6-0.6,5.3,0.5c1.6,1,3.2,1.9,4.8,2.9c0.3,0.3,0.6,0.6,0.8,0.9c0.8,1.8,2.3,2.5,3.8,1.4c2.4-1.9,5.4-1.5,8-2.7
			c2,0.6,3.8-0.4,5.6-0.9c1.2,1.9-0.3,2.4-1.6,3c-1.8,0.8-3.7,1.6-5.5,2.4c-1.6,0.6-3,1.6-2.2,3.4c0.6,1.6,2.2,1.3,3.6,0.8
			c3.2-1.1,6.4-2.1,9-4.6c1.5-0.6,2.9-1.2,4.4-1.8c0.7,1,0.6,2-0.1,3c-0.7,1-1.6,2.1-0.3,3.3c1.1,1,2,0.2,3-0.3
			c2.3-1.2,4.6-0.6,6.7,0.5c0.8,0.4,1.7,1.1,2.5,0.1c0.9-1.2,0.1-2-0.7-2.8c-0.6-0.5-1.1-1.1-1.6-1.6c-1.4-1.4-1.8-2.9-1.1-4.7
			c0.8-1.9,2.4-1.6,4-1.5c2.9,0.3,5.9,0.6,8.8,0.9c1.1,0.4,2.5,1.2,3.1-0.6c0.8-2.3-0.9-3-2.6-3.6l0.1-0.3l-0.3-0.2
			c-0.6-1.1-1.4-2-2.6-2.4c-0.1-0.3-0.2-0.5-0.5-0.6c0-0.8,0-1.5,0-2.3c1.6-1.2,3.3-1.6,5.3-1.3c2.5,3.1,6.5,3.5,9.6,5.4
			c0.7,0.4,1.6,0.4,1.9-0.5c0.1-0.4-0.2-1.2-0.6-1.5c-2.6-2.2-5.2-4.3-7.8-6.5c2.6-4,6.9-3.1,10.6-3.8c2.8-0.6,6.6,1.5,6.9-3.7
			c0.1-0.8,1.5-0.9,2.5-1c2.5-0.1,5.2-5,7.7-5c0.4,0,0.8,0,1.2,0c-2.8,4.1-5.6,8-8.1,9.6c0,0,3.7,0.5,7.5-1.6
			c3.8-2.2,21.7-2.1,27.1-4.6l0,0c1.5-0.1,3-0.4,4.5-0.9c2.4-0.7,5-0.4,7.1,1.4c0.3,1.5-2.7,2.5-1.1,4c0.8,0.7,1.6,0.5,2.4,0.1
			c0,0.3,0,0.5,0.1,0.8c0.3,1.3,0.3,2.1-1.1,2.5c-1.2,0.3-2.6,0.5-3.2-1c-0.8-2-2.6-2-4.3-2.1c-4.1-0.3-8.1-0.9-12.2-0.9
			c-3.1,0-6.4-1-9.7,1.4c3.1,1.3,5.9,2.4,8.7,3.5c2.1,0.1,4.2,0.3,6.4,0.4c2.4,1.1,5-1.1,8.3,0.6c-2.2,0.6-3.1,1.7-4.9,1.6
			c-1.5,0-4.1-1.5-4.2,1.1c-0.1,2.4,2.7,2,4.4,2.4c1.8,0.5,3.4-0.4,4.7-1.6c1.9-1.7,4.2-1.8,6-0.5c1.8,1.3,2.3,0.9,3.7-0.5
			c2.8-2.9,5.2-1.8,7.9,0.5c3.8,3.1,0.9,5.7,0.6,8.6c-2.9,1.5-5.9,2.9-8.8,4.4c-1,0.5-2.7,0.8-2.3,2.5c0.3,1.3,1.8,1,2.8,1.2
			c3.3,0.5,6.6,0.5,9.8-0.6c0.8,0.7,1.6,0.7,2.4-0.2c0.5-0.1,0.9-0.3,1.4-0.4c3.9,0.4,7.7,1.3,11.6,0c0.7-0.2,1.5-0.4,2.2-0.7
			c1.6-0.7,3.7-2.6,4.7-0.2c0.9,2.1-1.2,3.7-3.5,3.9c-2,0.2-3.4,1.5-4.8,2.6c-2.6,0.6-5.5-0.1-7.9,1.6c-0.9,0.2-1.8,0.4-2.7,0.6
			c-0.6-0.3-1.1-0.1-1.4,0.4c-0.2-0.1-0.4,0-0.6,0.2c-1.4-0.1-2.1,0.6-2,1.9c0.1,0.9,1.1,1,1.8,1c4.3,0,8.7,0,12.7-1.8
			c0.5-0.3,1-0.6,1.6-0.9c0.4,0.3,0.6,0.2,0.8-0.3c0.4,0,0.8-0.1,1.2-0.1c2.7,1.1,5.5,2.2,8.2,3.2c1.3,0.4,2.6,0,3.3-1.2
			c0.6-1.1-0.4-1.6-1-2.3c-1.1-1.2-3.7-1.9-2.9-3.7c0.8-2,3.4-0.8,5.1-1c1.5-0.1,3.3-0.3,4.6,0.4c5.3,2.9,9.8,2.5,14.6-1.6
			c1.6-1.4,3-2.2,3-3.5c0.4-0.3,0.9-0.7,1.3-1.1c1-0.3,1.9-0.1,2.7,0.3c-0.1,0.1-0.1,0.2-0.2,0.3c-0.5,0.8-0.9,1.6-1.4,2.4
			c-2,0.8-3.6,1.9-4.2,4.1l-0.1,0.1c-2.4,1.6-1.7,4.5-2.9,6.7c-0.5,0.9,0.4,1.6,1.1,1.7c3.1,0.5,6.1,1,9.2,1.3
			c1.7,0.1,2.8-0.6,1.6-2.6c-2-3.3-0.1-2.9,2.1-2.1c1.6,0.6,3.2,0.6,4.1-1.1c0.6-1.1,0.7-2.3,0.1-3.3c2.5,2.3,4.8,4.6,7.4,6.8
			c2.2,2,3.1,4.1,3.1,7c-0.2,8.2-5.2,14.1-9.3,20.5c-0.8,0.3-1.2,0.8-1.2,1.7l0,0.1c-0.6,0.1-0.8,0.5-0.7,1.1l0,0.1
			c-0.8,0.3-1.1,0.9-1,1.8l0,0.1c-1.7,1.1-1.3,3-1.6,4.7c-1.1,6.2-1.9,12.4-3.4,18.5c-2,8.1-6.1,15.4-8.6,23.3
			c-0.7,1.4-1.3,2.7-2,4.1c-2.7,4.5-4.1,9.5-4.5,14.7c-0.4,5.6-1.4,11.2-2.4,16.7c-0.5,2.6-0.7,5.5-3.7,7.2c-0.3-2.7-0.5-5-1-7.3
			c-0.3-1.5-1.5-2.5-3-2.5c-1.7,0.1-2.5,1.5-2.3,3c1.1,8.8,0,17.8,3.6,26.3c0.1,0.6,0.2,1.2,0.3,1.8c-0.2,1.9,0.6,3.4,1.7,4.8
			c0,1,0,1.9,0,2.9c-2.1,4.2-1.6,8.7-1.3,13.2c-0.2,1.1-0.3,2.2-0.5,3.3c-1,1.6-1,3.5-1,5.3c-1.6,3.9-5.7,6.1-6.7,10.4
			c-0.9,1.5-0.7,3.1,0,4.6c0.2,0.9,0.3,1.8,0.5,2.7c-0.3,1.3-0.1,2.4,0.7,3.4c0.1,0.8,0.2,1.6,0.3,2.4c-0.5,0.7-0.5,1.3-0.1,2
			c-0.3,0.5-0.6,1-0.8,1.5c-4,6.1-2.3,12.6-1.4,19c0.2,3.5,0.3,7,0.5,10.5c-0.1,0.9-0.2,1.8-0.3,2.7c-0.7,9.1,2.3,18.7-3.6,27.2
			c-0.2,0.3,0,0.9,0.1,1.3c-0.8,2.7-0.7,5.5,0,8.2c0.5,4.1,1,8.2,1.5,12.3c0.1,1.3,0.3,2.5,0.4,3.8c-0.5,1.7-0.3,3.3,0.1,5
			c-0.2,1.2-0.3,2.5-0.5,3.7c-0.3,2.2-0.6,4.4-1,6.6c-0.7,2.2-1.4,4.5-2,6.7c-2.4,8.1-6.4,15.6-9.2,23.5c-0.9,2.5-1.9,5,0.1,7.5
			c1.1,3.1,3.9,3.3,6.6,3.4c8.9,0.4,17.9,0.7,26.8,0.9c8.7,0.2,13.9-4.7,14.5-13.5c0.9-12.8-1.6-25.5-0.3-38.5c2-20.3-1-40.7-2.5-61
			c0.4-1.5,0.9-3,0.4-4.6c0-0.3,0-0.6,0-0.9c0.1-0.7,0.2-1.4,0.3-2c5.8-7.6,6-16.2,4.1-25.1c-1.1-5.3-6.1-9.3-5.1-15.3
			c0.1-1.6,0.3-3.3,0.4-5c4.8-13.8,5.5-28.2,6.6-42.5c0.1-3.1,0.8-6.3-0.1-9.4c1-1.8,1.6-3.6,1-5.7c0.1-1.2,0.3-2.4,0.4-3.6
			c0.8-1.2,1.1-2.5,0.7-3.9c0.1-0.6,0.2-1.2,0.3-1.8c2.5-6.8,4.7-13.8,6.2-20.9c0.3-1.1,0.5-2.2,0.8-3.3c1-0.5,1.3-1.4,1.1-2.4
			c0.2-0.8,0.5-1.5,0.7-2.3c2.3-3.7,4.2-7.5,4.7-11.9c0.9-2.1,1.8-4.2,2.7-6.3c0.6-0.2,0.9-0.5,0.7-1.1c2.3-4.4,4.4-9.1,8.9-11.9
			c3.2-1.8,6.1-4,8.7-6.6c0.2-0.1,0.4-0.2,0.5-0.4c3.7-2,7.6-3.7,11.1-5.9c2.6-1.6,4.8-4.4,2.7-7.3c-1.4-1.9-0.8-2.6,0.2-3.8
			c1.1-1.5,2.1-3.1,3.1-4.7c2.1-3.3,5.8-3.7,8.6-0.9c1.4,1.4,2.6,3.8,4.3,4.2c2.8,0.6,3.2,2.2,2.9,4.3c-0.4,2.5-2.5,2.9-4.6,3
			c-1.8,0-3.6,0-5.5,0c-1.8-0.1-4.4-2-5.2,0.2c-0.4,1.1,0.3,4.7,3.4,5.3c1.1,0,2.2-0.1,3.3-0.1c0.3,0.8,1,1.5,1.7,1.1
			c1.5-0.9,0.2-2.5,0.6-3.7c0.5-0.1,1-0.2,1.5-0.2c3.9,0.9,7.6,4.9,11.7,0.4c0.3-0.3,1.2-0.1,1.8,0c5,1,10.3-0.3,15.2,2.3
			c1.3,0.7,3.2,0.5,5.7-0.5c-2.4-0.9-4.1-1.8-5.8-2.1c-4.4-0.7-7.1-4.9-11.5-5.6c-2-0.7-3.1-3.1-5.5-2.9c-0.2-2.1-3.8-1.9-3.2-4.6
			c1.7,0,3.2,0,4.8,1c2.5,1.4,5.8,3.8,7.2-1.7c0.4-1.7,2.7-1.1,4.1-1.1c1.3,0.1,2.4,1.5,3.9,0.9c0.6,0.3,1.1,0.6,1.6,0.9
			c0,1.6,0.9,2.3,2.4,2.2c1.3-0.1,2-0.8,1.9-2.2c2-1.8,4.8-0.2,7.5-1.7c-1.9-1.4-4.6-1.7-3.7-4.7c1.1-3.5,3.3-0.9,5-1.1
			c0.9-0.1,2,0,2.1-1.2c0.1-1.1-0.6-1.7-1.6-1.9c-0.6-0.2-1.2-0.2-1.8-0.4c-1.3-0.4-3.2,0.1-3.3-1.8c-0.1-1.6,1.8-1.9,2.9-2.7
			c3.5-2.4,8-1.4,11.6-3.1c1.5,0.2,2.5-0.6,2.4-1.9c-0.1-1.6-1.5-1.5-2.7-1.1c-0.5,0-1.1,0-1.6-0.1c-5.9-1.7-12.1,0.2-17.9-1.9
			c0.6-0.3,1.2-0.6,1.8-0.9c3,0.5,1.1-3.2,3.1-3.7c1-0.2,2.2-0.8,1.7-2.2c-0.5-1.3-1.8-0.9-2.8-0.8c-1.4,0.1-2.7-0.7-4.1,0.1
			c-0.8-0.1-1.6-0.2-2.5-0.2c-0.2-0.7-0.5-1.1-1.3-0.8c-0.4-0.2-0.8-0.3-1.2-0.5c0.3-3,0.3-5.9-0.4-8.8c0.3-0.3,0.6-0.6,0.9-0.8
			c0.9,0,1.8-0.1,2.6-0.1c1.3,2.1,3,3.5,5.5,3.7c0.9,0.1,2.3,0.2,2.3,1.2c-0.1,3.7,2.4,2.8,4.4,2.7c1.9-0.1,3.7,0.3,5.3,1.2
			c1.5,2.1,4.3,1.8,6.1,3.1c5.7,4.3,6.2,4.3,10.7-0.4c2.2-0.8,3.6,0.6,4.9,1.9c1.2,1.7,3,2.3,4.9,2.3c5.6-0.1,10.8,1.3,15.7,3.9
			c0.7-0.6,0.6-1.4,0.5-2.2c-0.1-3.1-2.1-5.5-3.4-8.1c-0.5-1-0.6-2.4,0.6-2.9c1-0.4,1.6,0.6,2,1.5c1.3,3.3,2.3,4.4,3.6-0.1
			c0.6-1.9,2.2-0.5,3.1,0c2.8,1.4,5.5,3.1,8.2,4.6c0.3-0.3,0.6-0.7,0.9-1c-1.9-3.6-5-6.2-8.1-8.9c-1.8-1.6-4.4-2.7-3.3-5.9
			c0.4,0.1,0.9,0.2,1.3,0.2c3.1,3.1,6.9,3.5,11.1,3.9c4.5,0.5,9.3-2.3,13.6,1.2c1,0.8,3.1,2.1,4.1,0.2c1-1.8-0.4-3.2-2.1-4.1
			c-1.3-0.7-2.9-2.7-2-3c2.7-0.9,2.5-6.1,6.7-4.5c1,0.4,2.2,0.2,2.8-1c0.7-1.3-0.3-2.2-1.2-2.7c-3.9-2-1.2-3.5,0.3-5.1
			c0.4-0.3,0.7-0.5,1.1-0.8c0.6,0.4,1.1,0.1,1.4-0.4c0.5-0.2,0.9-0.4,1.4-0.6c4.3,4.5,8.9-1.6,13.4,0.2c0.7,0.3,2.3-1,3.2,0.4
			c0.9,1.3-0.2,2.4-0.9,3.4c-2.2,3.1-4.6,5.9-8,7.8c-1.3,0.7-3.3,1.8-1.2,3.4c4.5,3.5,10.2,0.9,15.1,2.7c0.4,0.1,1.2-0.9,1.8-1.4
			c1.1-1.1,2.2-2.2,3.3-3.4c2.8-3,5.7-2.9,8.3,0.3c0.7,0.9,1.4,1.7,2,2.6c1.9,2.6,3.8,2.2,5.7,0c3.1-3.6,2.8-4.8-2-7.6
			c0-0.5,0-1,0-1.6c1.4-0.2,3.1-3.1,3.9,0.7c0.3,1.5,1.7,2.4,3.3,1.9c1.5-0.5,2.8-1.5,3.4-3c0.7-1.6-0.7-2.2-1.8-2.8
			c-2.4-1.1-2.6-3.3-3.1-5.4c0.5,0,1.1,0.1,1.6,0.1c8.1,7.2,16.1,14.5,28.1,13.8c-8.6-3.9-15.3-10.5-22.6-16.1
			c-1.5-1.2-4.1-2.3-2.2-5.2c0.5-0.1,1-0.1,1.5-0.2c1.2,0.6,2.3,0.5,3.4-0.4c2.3-0.4,4.6-0.9,6.7,0.5c3.6,4.2,8.8,5.2,13.7,6.9
			c0.9,0.3,2.1-0.1,2-1.3c-0.3-3.5,1.5-3.1,3.8-2.3c0.6,0.2,1.4,0.1,1.5-0.6c0.1-0.5-0.1-1.3-0.5-1.7c-1.4-1.4-3.1-2.6-3.1-5
			c2.5-0.3,4.7,0.5,7,0.9c1.5,0.3,3.3,1.2,4.5-0.1c1.5-1.7-2.2-1.9-1.5-3.7c2.5,0,5,0.1,7.5,0c1.7-0.1,4.6,0.5,4.8-1
			c0.6-4.7,3.9-4.7,7.1-5.7c2.4-0.7,2.4-2.8,0.1-3.6c-3.6-1.3-6.7-3.8-10.1-5c-3.6-1.3-1.8-2.6-1.2-4.2c5.9-5.1,12.3-1.9,18.5-1.1
			c1.5,1.9,4,2.3,5.4,1.1c3.3-2.7,6.4-1.3,9.7-0.5c2.5,0.6,5,1.2,8.3,2c-1.4-2.5-3-3.4-4.6-4.3c-1.2-0.7-2.8-1.7-2.2-3.1
			C1528.1,110.2,1530,110,1531.8,110.4z"/>
	</g>
	<g>
		<g>
			<g>
				<path d="M925.9,641.9h49.5v7.4H934v28h35v7.4h-35v35.4h-8V641.9z"/>
				<path d="M985.6,705.4v-45.7h7.6v46.1c0,5.6,2.1,7.8,9.7,7.8c9.6,0,14.5-2.6,21.1-7.3v-46.7h7.6v60.3h-7.6v-8.2
					c-5.9,5-10.6,8.7-21.2,8.7C990.5,720.6,985.6,715.7,985.6,705.4z"/>
				<path d="M1049,659.8h7.6v8.2c5.9-5,10.6-8.7,21.2-8.7c12.3,0,17.2,4.9,17.2,15.2v45.7h-7.6V674c0-5.6-2.1-7.8-9.7-7.8
					c-9.6,0-14.5,2.6-21.1,7.3v46.7h-7.6V659.8z"/>
				<path d="M1110.6,704.9V675c0-10.3,4.9-15.2,15.2-15.2h15.2c10.3,0,15.2,4.9,15.2,15.2v4h-7.6v-4.5c0-5.6-2.2-7.8-7.8-7.8H1126
					c-5.6,0-7.8,2.2-7.8,7.8v30.8c0,5.6,2.2,7.8,7.8,7.8h14.7c5.6,0,7.8-2.2,7.8-7.8v-4.5h7.6v4c0,10.3-4.9,15.2-15.2,15.2h-15.2
					C1115.5,720.1,1110.6,715.2,1110.6,704.9z"/>
				<path d="M1173.3,704.9v-38.4h-8.9v-6.7h8.9v-14.5h7.6v14.5h15.1v6.7h-15.1v38.9c0,5.6,2.2,7.8,7.8,7.8h7.3v6.9h-7.5
					C1178.3,720.1,1173.3,715.2,1173.3,704.9z"/>
				<path d="M1208.6,640.8h8.7v9.8h-8.7V640.8z M1209.2,659.8h7.6v60.3h-7.6V659.8z"/>
				<path d="M1233.5,704.9V675c0-10.3,4.9-15.2,15.2-15.2h16.6c10.3,0,15.2,4.9,15.2,15.2v29.9c0,10.3-4.9,15.2-15.2,15.2h-16.6
					C1238.4,720.1,1233.5,715.2,1233.5,704.9z M1265.1,713.2c5.6,0,7.8-2.2,7.8-7.8v-30.8c0-5.6-2.2-7.8-7.8-7.8h-16.2
					c-5.6,0-7.8,2.2-7.8,7.8v30.8c0,5.6,2.2,7.8,7.8,7.8H1265.1z"/>
				<path d="M1296.6,659.8h7.6v8.2c5.9-5,10.6-8.7,21.2-8.7c12.3,0,17.2,4.9,17.2,15.2v45.7h-7.6V674c0-5.6-2.1-7.8-9.7-7.8
					c-9.6,0-14.5,2.6-21.1,7.3v46.7h-7.6V659.8z"/>
				<path d="M1357.2,702.7c0-12.5,4.9-16,15.2-17c5.5-0.6,14.1-1.2,23.9-1.7v-9.7c0-5.6-2.2-7.8-7.8-7.8h-13.9
					c-5.6,0-7.8,2.2-7.8,7.8v1.7h-7.6v-1c0-10.3,4.9-15.2,15.2-15.2h14.3c10.3,0,15.2,4.9,15.2,15.2v45.1h-7.6v-8.3
					c-5,5.9-10.6,8.7-21.6,8.7C1362.1,720.5,1357.2,715.2,1357.2,702.7z M1396.3,706.6v-17.3l-23.7,2.7c-5.6,0.7-7.8,2.2-7.8,10.7
					c0,8.5,2.2,11.2,10.1,11.2C1384.8,713.8,1389.7,711.3,1396.3,706.6z"/>
				<path d="M1421.4,638.5h7.6v81.5h-7.6V638.5z"/>
				<path d="M1475.9,641.9h39c10.6,0,15.6,5,15.6,15.6v46.9c0,10.6-5,15.6-15.6,15.6h-39V641.9z M1514.4,712.7c5.8,0,8-2.2,8-8
					v-47.4c0-5.8-2.2-8-8-8h-30.5v63.4H1514.4z"/>
				<path d="M1554.2,691.5v14.1c0,5.6,2.2,7.8,7.8,7.8h15.4c5.6,0,7.8-2.2,7.8-7.8v-4.4h7.6v3.7c0,10.3-4.9,15.2-15.2,15.2h-15.9
					c-10.3,0-15.2-4.9-15.2-15.2V675c0-10.3,4.9-15.2,15.2-15.2h15.9c10.3,0,15.2,4.9,15.2,15.2v16.5H1554.2z M1554.2,674.3v10.9
					h31.1v-10.9c0-5.6-2.1-7.8-7.8-7.8H1562C1556.4,666.5,1554.2,668.7,1554.2,674.3z"/>
				<path d="M1605.6,702.7v-0.8h7.4v1.2c0,7.8,2.2,10.1,7.8,10.1h15.2c5.6,0,7.8-2.2,7.8-10.5c0-7-2.2-8.2-6.9-8.9l-17.5-2.9
					c-8.7-1.5-13-5-13-14.4c0-11.7,4.9-16.6,15.2-16.6h13.2c10.3,0,15.2,4.9,15.2,16.3v0.9h-7.4v-1.3c0-6.7-2.2-8.9-7.8-8.9h-13
					c-5.6,0-7.8,2.2-7.8,9.4c0,6,2.2,7.1,6.9,7.9l17.5,2.9c8.7,1.5,13,5,13,15.4c0,12.8-4.9,17.8-15.2,17.8h-15.4
					C1610.5,720.1,1605.6,715.2,1605.6,702.7z"/>
				<path d="M1666,640.8h8.7v9.8h-8.7V640.8z M1666.6,659.8h7.6v60.3h-7.6V659.8z"/>
				<path d="M1697.4,731.3h25.9c5.6,0,7.8-2.2,7.8-7.8v-13.2c-5.9,5-10.6,8.7-22.1,8.7c-13.2,0-18.1-4.9-18.1-15.2v-29.3
					c0-10.3,4.9-15.2,18.1-15.2c11.5,0,16.2,3.7,22.1,8.7v-8.3h7.6v63c0,10.3-4.9,15.2-15.2,15.2h-26.1V731.3z M1731.1,704.8v-31.3
					c-6.6-4.7-11.5-7.3-22-7.3c-8.4,0-10.6,2.2-10.6,7.8v30.2c0,5.6,2.2,7.8,10.6,7.8C1719.6,712,1724.5,709.5,1731.1,704.8z"/>
				<path d="M1756.1,659.8h7.6v8.2c5.9-5,10.6-8.7,21.2-8.7c12.3,0,17.2,4.9,17.2,15.2v45.7h-7.6V674c0-5.6-2.1-7.8-9.7-7.8
					c-9.6,0-14.5,2.6-21.1,7.3v46.7h-7.6V659.8z"/>
				<path d="M1816.1,702.7v-0.8h7.4v1.2c0,7.8,2.2,10.1,7.8,10.1h15.2c5.6,0,7.8-2.2,7.8-10.5c0-7-2.2-8.2-6.9-8.9l-17.5-2.9
					c-8.7-1.5-13-5-13-14.4c0-11.7,4.9-16.6,15.2-16.6h13.2c10.3,0,15.2,4.9,15.2,16.3v0.9h-7.4v-1.3c0-6.7-2.2-8.9-7.8-8.9h-13
					c-5.6,0-7.8,2.2-7.8,9.4c0,6,2.2,7.1,6.9,7.9l17.5,2.9c8.7,1.5,13,5,13,15.4c0,12.8-4.9,17.8-15.2,17.8h-15.4
					C1821,720.1,1816.1,715.2,1816.1,702.7z"/>
			</g>
		</g>
		<g>
			<rect x="1929.5" y="682.5" width="328.1" height="10.1"/>
			<rect x="525.3" y="682.5" width="328.1" height="10.1"/>
		</g>
	</g>
</g>
</svg>
