<?xml version="1.0" encoding="utf-8"?>
<!-- Generator: Adobe Illustrator 26.1.0, SVG Export Plug-In . SVG Version: 6.00 Build 0)  -->
<svg version="1.1" id="Layer_1" xmlns="http://www.w3.org/2000/svg" xmlns:xlink="http://www.w3.org/1999/xlink" x="0px" y="0px"
	 viewBox="0 0 241.9 241.9" enable-background="new 0 0 241.9 241.9" xml:space="preserve">
<g>
	<path fill="#231F20" d="M0,0v241.9h241.9V0H0z M238.6,238.5H3.3V3.3h235.2V238.5z"/>
	<path fill="#231F20" d="M220.7,78.8c-5.4-12.9-13.2-24.5-23.2-34.4c-9.9-9.9-21.5-17.8-34.4-23.2c-13.4-5.6-27.5-8.5-42.1-8.5
		c-14.6,0-28.8,2.9-42.1,8.5c-12.9,5.4-24.5,13.2-34.4,23.2c-9.9,10-17.8,21.5-23.2,34.4c-5.7,13.4-8.5,27.5-8.5,42.1
		c0,14.6,2.9,28.8,8.5,42.1c5.4,12.9,13.2,24.5,23.2,34.4c9.9,9.9,21.5,17.8,34.4,23.2c13.4,5.6,27.5,8.5,42.1,8.5
		c14.6,0,28.8-2.9,42.1-8.5c12.9-5.5,24.5-13.3,34.4-23.2c9.9-9.9,17.8-21.5,23.2-34.4c5.7-13.3,8.5-27.5,8.5-42.1
		C229.2,106.3,226.4,92.1,220.7,78.8z M161.1,28.2l1.5-3.6c12.2,5.3,23.2,12.7,32.6,22.2c9.4,9.4,16.9,20.4,22.1,32.6l-3.2,1.3
		l-1.1,0.4l-11.8,4.9c-0.7-0.2-1.5-0.5-2.2-0.8l0,0c-0.1,0-0.2-0.1-0.3-0.1c-0.1,0-0.2-0.1-0.3-0.1c-6.8-2.5-13.1-6-18.8-10.4
		c-0.2-0.1-0.3-0.3-0.5-0.4c-0.2-0.2-0.5-0.4-0.7-0.6c-2-1.5-3.8-3.3-5.6-5c-1.7-1.8-3.5-3.6-5.1-5.7c-0.2-0.2-0.3-0.4-0.5-0.6
		c-0.2-0.2-0.3-0.4-0.4-0.5c-4.4-5.7-7.9-12-10.4-18.8c0-0.1-0.1-0.2-0.1-0.3c-0.1-0.1-0.1-0.2-0.2-0.3c-0.2-0.4-0.3-0.8-0.4-1.3
		l4.9-11.8L161.1,28.2z M192.3,129.8l0.1,0.5l0,0c0,0.3,0.1,0.6,0.1,0.9c1,6.9,3,13.7,6,20.1l-9.5-3.9l-1-0.4l-10.5-4.4
		c-7-13.5-7.1-29.6-0.4-43.2l10.5-4.4l1-0.4l9.5-3.9c-2.7,6.1-4.6,12.6-5.6,19.2c0,0.3-0.1,0.7-0.1,1c0,0.1,0,0.3-0.1,0.4
		C191.5,117.4,191.5,123.7,192.3,129.8z M49.6,112.1l0-0.4h0v-0.2c0-0.3-0.1-0.5-0.1-0.8c-1-7-3-13.7-6-20.1l9.5,3.9l1,0.4l10.4,4.4
		c7,13.5,7.2,29.6,0.5,43.2l-10.4,4.3l-1,0.5l-9.5,3.9c2.7-6.1,4.6-12.6,5.6-19.2c0-0.3,0.1-0.6,0.1-0.9c0-0.2,0-0.3,0-0.5
		C50.4,124.5,50.4,118.2,49.6,112.1z M177.7,76.7c0.4,0.3,0.8,0.6,1.1,0.9c5.6,4.2,11.9,7.6,18.5,10l-9.5,3.9l-1,0.4l-10.5,4.4
		c-14.5-4.6-26-15.9-30.9-30.3l4.3-10.4l0.4-1l3.9-9.6c2.4,6.3,5.7,12.2,9.7,17.5c0.3,0.4,0.6,0.8,0.8,1.1v0
		C168.4,68.6,172.8,73,177.7,76.7z M169.4,124.7L169.4,124.7c0.5,5.7,1.8,11.2,4.1,16.3l-5.6-2.3l-1-0.4L159,135
		c-4.5-8.7-4.7-19.1-0.4-28l7.8-3.3l1-0.4l5.7-2.4c-2.1,4.9-3.3,10.1-3.8,15.4c-0.1,1.3-0.2,2.7-0.2,4.1
		C169.2,122,169.3,123.5,169.4,124.7z M72.5,117.2c-0.5-5.7-1.8-11.1-4.1-16.3l5.6,2.3l1,0.4l7.9,3.3c4.5,8.7,4.7,19.1,0.4,28
		l-7.9,3.3l-0.9,0.4l-5.7,2.4c2-4.9,3.3-10.1,3.7-15.5c0.1-1.3,0.2-2.7,0.2-4.1C72.7,119.9,72.6,118.5,72.5,117.2z M86.8,108.5
		l5.7,2.4l1,0.4l7.9,3.3c2,3.9,2.1,8.6,0.4,12.6l-7.8,3.3l-1,0.5l-5.7,2.4c1.5-4,2.2-8.2,2.1-12.5C89.2,116.6,88.4,112.4,86.8,108.5
		z M105.1,116l5.8,2.4l1,0.5l4.9,2l-4.6,1.9l-0.9,0.3l-6,2.5C106.2,122.5,106.1,119.2,105.1,116z M123.4,110.9l-0.4,1l-2,4.9
		l-4.8-11.5c1.5,0.4,2.9,0.6,4.4,0.6c1.8,0,3.6-0.3,5.2-0.8L123.4,110.9z M126.1,112.5l2.5-6c1.7,2.8,4.1,5.1,6.9,6.6l-5.8,2.4
		l-1,0.5l-4.9,2l1.9-4.6L126.1,112.5z M118,118l-4.6-1.9l-0.9-0.4l-6-2.5c2.8-1.7,5.1-4.1,6.6-7l2.4,5.8l0.4,1L118,118z
		 M112.1,126.3l1.1-0.4l4.9-2l-1.9,4.6l-0.4,0.9l-2.5,6c-1.7-2.8-4.1-5.1-6.9-6.6L112.1,126.3z M118.5,130.9l0.4-1l2-4.9l1.9,4.6
		l0.4,0.8l2.5,6c-1.4-0.3-2.9-0.5-4.4-0.5c-1.8,0-3.5,0.3-5.2,0.8L118.5,130.9z M123.9,123.9l4.6,1.9l0.9,0.3l6,2.5
		c-2.8,1.7-5.1,4.1-6.6,6.9l-2.4-5.8l-0.4-1L123.9,123.9z M131,123.4l-1.1-0.4l-4.9-2l4.6-1.9l0.9-0.4l6-2.5
		c-0.8,3.2-0.7,6.5,0.2,9.6L131,123.4z M130.1,102.9l3.2-7.8l0.5-1l2.4-5.8c1.8,3.9,4.2,7.4,7.3,10.4c3,2.9,6.6,5.3,10.4,6.9
		l-5.7,2.4l-1.1,0.4l-7.9,3.3C135.1,110.2,131.7,107,130.1,102.9z M131,92.5l-0.4,1l-3.3,7.9c-2.1,1.1-4.4,1.6-6.7,1.6
		c-2.1,0-4.1-0.4-5.9-1.2l-3.3-7.9l-0.4-0.9l-2.4-5.8c3.8,1.4,7.9,2.1,12,2.1c4.4,0,8.7-0.8,12.8-2.5L131,92.5z M111.6,102.5
		c-1.4,4.2-4.6,7.6-8.7,9.2l-7.8-3.3l-1-0.4l-5.8-2.4c3.9-1.8,7.4-4.2,10.4-7.3c2.9-3,5.3-6.6,6.9-10.4l2.4,5.7l0.4,1L111.6,102.5z
		 M93.7,133.9l1-0.4l7.9-3.3c4.2,1.4,7.5,4.6,9.2,8.7l-3.3,7.8l-0.4,1l-2.4,5.8c-1.8-3.8-4.2-7.4-7.3-10.3c-3-2.9-6.6-5.3-10.4-6.9
		L93.7,133.9z M110.9,149.4l0.4-1l3.3-7.9c2.1-1,4.4-1.6,6.7-1.6c2.1,0,4.1,0.4,5.9,1.2l3.3,7.8l0.4,1l2.4,5.8
		c-3.8-1.4-7.9-2.2-12-2.2c-4.4,0-8.7,0.9-12.8,2.5L110.9,149.4z M130.3,139.3c0.8-2.2,2-4.3,3.7-5.9c1.4-1.4,3.2-2.6,5-3.3l7.8,3.3
		l6.8,2.8c-3.8,1.8-7.4,4.2-10.3,7.3c-2.9,3-5.3,6.6-6.9,10.4l-2.7-6.7L130.3,139.3z M149.4,131.1l-0.9-0.5l-7.9-3.3
		c-2-3.9-2.1-8.6-0.4-12.6l7.8-3.2l1-0.4l5.8-2.4c-1.5,4-2.2,8.2-2.2,12.5c0.1,4.2,0.9,8.4,2.5,12.3L149.4,131.1z M137.8,84.5
		l3.3-7.9l0.4-0.9l2.4-5.7c2,4.9,4.8,9.5,8.3,13.5c0.9,1.1,1.8,2.1,2.7,3.1c1,1,2,1.9,3,2.7l0,0c4.3,3.7,9.2,6.6,14.4,8.6l-5.6,2.3
		l-1,0.4l-7.9,3.3C148.5,101,141,93.7,137.8,84.5z M138.7,74l-0.4,1l-3.2,7.9c-4.5,2.3-9.4,3.5-14.4,3.5c-4.7,0-9.3-1.1-13.5-3.1
		l-3.3-7.8l-0.4-1l-2.4-5.7c4.9,2,10.1,3.3,15.4,3.7c1.2,0.1,2.7,0.2,4.1,0.2c1.5,0,2.9-0.1,4.1-0.2c5.7-0.5,11.1-1.8,16.3-4.1
		L138.7,74z M104,84.1c-3,9.3-10.2,16.8-19.5,20l-7.9-3.2l-1-0.4L70,98.1c4.9-2,9.5-4.8,13.5-8.3c1.1-0.9,2.1-1.8,3.1-2.7
		c0.9-0.9,1.8-2,2.6-2.9l0.2-0.2c3.7-4.3,6.6-9.2,8.6-14.4l2.3,5.6l0.4,1L104,84.1z M75.2,141.6l1-0.4l7.9-3.3
		c9.3,3,16.8,10.2,20,19.5l-3.3,7.8l-0.4,1l-2.4,5.7c-2-4.9-4.8-9.5-8.3-13.5c-0.9-1-1.8-2.1-2.7-3c-1-1.1-2.1-2-3.1-2.8
		c-4.3-3.7-9.2-6.6-14.4-8.6L75.2,141.6z M103.2,167.9l0.4-1l3.3-7.9c4.4-2.3,9.4-3.5,14.4-3.5c4.7,0,9.4,1.1,13.6,3.1l3.3,7.9
		l0.4,1l2.4,5.7c-4.9-2.1-10.1-3.3-15.4-3.8c-1.3-0.1-2.7-0.2-4.1-0.2c-1.4,0-2.7,0.1-4.1,0.2c-5.6,0.5-11.1,1.8-16.3,4.1
		L103.2,167.9z M137.9,157.8c3-9.3,10.2-16.8,19.5-20l7.9,3.3l1,0.4l5.7,2.4c-5,2-9.5,4.8-13.5,8.3c-1.1,0.9-2.1,1.8-3.1,2.7
		c-0.9,0.9-1.7,1.9-2.6,2.9l-0.2,0.3c-3.7,4.3-6.6,9.1-8.6,14.4l-2.3-5.6l-0.4-1L137.9,157.8z M147.4,52.9l-0.4,1l-4.3,10.5
		c-6.8,3.5-14.4,5.4-22.1,5.4c-7.3,0-14.6-1.7-21.2-5l-4.3-10.4l-0.4-1l-4-9.5c6.1,2.7,12.6,4.6,19.2,5.6c0.3,0,0.6,0.1,0.9,0.1
		c0.2,0,0.3,0,0.5,0.1c3,0.4,6.2,0.6,9.3,0.6c3.1,0,6.2-0.2,9.3-0.6c0.2,0,0.3-0.1,0.5-0.1c0.3,0,0.6-0.1,0.9-0.1
		c6.9-1,13.7-3,20.1-6L147.4,52.9z M91.6,54.1l4.8,11.5c-4.6,14.5-15.9,26-30.3,30.9l-10.4-4.4L45,87.8c6.2-2.4,12.1-5.6,17.5-9.6
		c0.2-0.2,0.4-0.3,0.6-0.5c0.2-0.1,0.3-0.3,0.5-0.4c4.9-3.8,9.3-8.2,13.1-13.1l0.1-0.1c0.3-0.3,0.5-0.7,0.8-1.1
		c4.2-5.6,7.6-11.8,10-18.4L91.6,54.1z M54.1,150.3l1-0.5l10.5-4.3c14.5,4.6,26,15.9,30.9,30.3l-4.3,10.4l-0.4,1l-4,9.5
		c-2.4-6.3-5.6-12.1-9.6-17.5c-0.2-0.3-0.5-0.6-0.7-0.9l-0.2-0.2c-1.9-2.5-3.9-4.8-6.1-7c-2.2-2.2-4.5-4.2-7-6.1l-0.3-0.3
		c-0.3-0.2-0.5-0.4-0.8-0.6c-5.6-4.2-11.8-7.6-18.4-10L54.1,150.3z M94.5,189l0.4-1l4.3-10.5c6.8-3.5,14.4-5.4,22.1-5.4
		c7.3,0,14.6,1.7,21.2,5l4.3,10.4l0.4,1l3.9,9.5c-6.1-2.7-12.6-4.6-19.2-5.6c-0.3,0-0.6-0.1-0.9-0.1c-0.2,0-0.3,0-0.5-0.1
		c-3-0.4-6.2-0.6-9.3-0.6c-3.1,0-6.2,0.2-9.3,0.6c-0.2,0-0.4,0-0.6,0.1c-0.3,0-0.5,0.1-0.8,0.1c-7,1-13.7,3-20.1,6L94.5,189z
		 M150.3,187.8l-4.8-11.5c4.6-14.5,15.9-26,30.3-30.9l10.4,4.3l1,0.4l9.6,4c-6.3,2.4-12.2,5.6-17.5,9.6c-0.3,0.2-0.5,0.4-0.8,0.6
		c-0.1,0.1-0.2,0.2-0.3,0.3c-4.9,3.8-9.3,8.2-13.1,13.1c-0.1,0.2-0.3,0.3-0.4,0.5c-0.2,0.2-0.3,0.4-0.5,0.6
		c-4.2,5.7-7.5,11.9-10,18.5L150.3,187.8z M121,16c13.4,0,26.4,2.5,38.7,7.4l-1.3,3.2l-0.5,1.1L153,39.4c-0.6,0.3-1.3,0.7-2.1,1.1
		c-0.1,0-0.2,0.1-0.3,0.1c-0.1,0-0.3,0.1-0.4,0.2c-6.5,3-13.5,5.1-20.6,6l-0.3,0c-0.4,0-0.8,0.1-1.2,0.2c-2.5,0.3-5.1,0.4-7.6,0.4
		c-2.5,0-5.1-0.2-7.5-0.4c-0.5,0-0.9-0.1-1.3-0.2l-0.2,0c-7.2-0.9-14.1-2.9-20.7-6l-0.2-0.1c-0.2-0.1-0.3-0.1-0.4-0.2
		c-0.4-0.2-0.8-0.4-1.2-0.6L84.2,28l-1.9-4.6C94.6,18.4,107.6,16,121,16z M46.7,46.7c9.5-9.5,20.4-16.9,32.6-22.2l1.3,3.2l0.4,1
		l4.9,11.8c-0.2,0.8-0.5,1.5-0.8,2.3c0,0.1-0.1,0.2-0.1,0.3c0,0.1-0.1,0.2-0.1,0.3c-2.5,6.8-6,13.1-10.4,18.8l-0.1,0.1
		c-0.3,0.4-0.5,0.7-0.8,1.1c-3.2,3.9-6.8,7.5-10.7,10.7c-0.3,0.2-0.5,0.4-0.8,0.6c-0.1,0.1-0.3,0.2-0.4,0.3
		c-5.7,4.4-12,7.9-18.8,10.4l-0.2,0.1c-0.2,0-0.3,0.1-0.5,0.2c-0.4,0.2-0.9,0.3-1.3,0.5l-11.8-4.9l-1-0.4l-3.6-1.5
		C29.8,67.1,37.3,56.1,46.7,46.7z M16,120.9c0-13.4,2.5-26.4,7.4-38.7l3.2,1.3l1,0.4l11.8,4.9c0.4,0.7,0.7,1.4,1.1,2.1
		c0,0.1,0.1,0.2,0.1,0.3c0.1,0.2,0.1,0.3,0.2,0.4c3,6.5,5,13.5,5.9,20.6c0,0.2,0.1,0.4,0.1,0.6c0,0.3,0.1,0.6,0.1,1
		c0.6,5,0.6,10.1,0,15.1c0,0.3-0.1,0.6-0.1,0.9c0,0.2,0,0.4-0.1,0.6c-0.9,7.1-2.9,14.1-6,20.6c0,0.1,0,0.2-0.1,0.2
		c-0.1,0.2-0.1,0.3-0.2,0.4c-0.2,0.4-0.4,0.8-0.6,1.2L28,157.7l-1,0.4l-3.6,1.5C18.5,147.3,16,134.3,16,120.9z M80.8,213.7l-1.5,3.6
		c-12.2-5.3-23.2-12.7-32.6-22.2c-9.4-9.4-16.9-20.4-22.1-32.6l3.2-1.3l1.1-0.5l11.8-4.9c0.6,0.2,1.4,0.5,2.2,0.8
		c0.1,0,0.2,0.1,0.3,0.1c0.2,0,0.3,0.1,0.4,0.2c6.8,2.5,13.1,6,18.8,10.4c0.5,0.4,0.9,0.6,1.2,0.9c3.9,3.2,7.5,6.7,10.7,10.7
		c0.2,0.2,0.3,0.5,0.5,0.7c0.2,0.2,0.3,0.3,0.4,0.5c4.4,5.7,7.9,12,10.4,18.8c0,0.1,0.1,0.2,0.1,0.3c0.1,0.1,0.1,0.2,0.2,0.3
		c0.2,0.5,0.3,0.9,0.4,1.3l-4.9,11.8L80.8,213.7z M121,225.9c-13.4,0-26.4-2.5-38.7-7.4l1.3-3.2l0.4-1.1l4.9-11.8
		c0.6-0.4,1.4-0.7,2.1-1.1l0.6-0.3c6.6-3,13.5-5,20.6-6c0.2,0,0.5,0,0.7-0.1c0.3,0,0.6-0.1,0.8-0.1c2.5-0.3,5.1-0.4,7.6-0.4
		s5.1,0.2,7.5,0.4c0.3,0,0.6,0.1,0.8,0.1c0.2,0,0.5,0.1,0.7,0.1c7.2,0.9,14.1,2.9,20.7,6l0.6,0.3c0.4,0.2,0.8,0.4,1.2,0.6l4.9,11.8
		l0.4,1.1l1.5,3.6C147.4,223.4,134.4,225.9,121,225.9z M195.2,195.2c-9.5,9.5-20.4,16.9-32.6,22.2l-1.3-3.2l-0.5-1.1l-4.9-11.8
		c0.2-0.8,0.5-1.5,0.8-2.2c0-0.1,0.1-0.2,0.2-0.4c0-0.1,0.1-0.2,0.1-0.3c2.5-6.8,6-13.1,10.4-18.8c0.2-0.2,0.3-0.3,0.4-0.5
		c0.2-0.2,0.3-0.5,0.5-0.7c1.6-2,3.3-3.8,5.1-5.6c1.8-1.8,3.6-3.5,5.6-5.1c0.3-0.2,0.5-0.4,0.8-0.6c0.2-0.1,0.3-0.2,0.5-0.3
		c5.7-4.4,12-7.9,18.8-10.4l0.6-0.3c0.4-0.2,0.8-0.3,1.2-0.4l11.8,4.9l1,0.5l3.6,1.5C212.1,174.8,204.6,185.7,195.2,195.2z
		 M218.5,159.7l-3.2-1.3l-1-0.4l-11.8-4.9c-0.3-0.6-0.7-1.4-1.1-2.1c-0.1-0.1-0.2-0.3-0.2-0.4l-0.1-0.2c-3-6.5-5-13.5-5.9-20.6
		c-0.1-0.5-0.2-1-0.2-1.5c-0.6-5-0.6-10.1,0-15.1c0-0.5,0.1-0.9,0.2-1.5c0.9-7.1,2.9-14.1,5.9-20.6c0-0.1,0.1-0.2,0.1-0.2
		c0.1-0.1,0.1-0.3,0.2-0.4c0.2-0.4,0.4-0.8,0.6-1.2l11.8-4.9l1-0.4l3.6-1.5c4.9,12.3,7.4,25.3,7.4,38.7
		C225.9,134.3,223.5,147.3,218.5,159.7z"/>
</g>
</svg>
