<?xml version="1.0" encoding="utf-8"?>
<!-- Generator: Adobe Illustrator 26.1.0, SVG Export Plug-In . SVG Version: 6.00 Build 0)  -->
<svg version="1.1" id="Layer_1" xmlns="http://www.w3.org/2000/svg" xmlns:xlink="http://www.w3.org/1999/xlink" x="0px" y="0px"
	 viewBox="0 0 567.2 569.2" style="enable-background:new 0 0 567.2 569.2;" xml:space="preserve">
<style type="text/css">
	.st0{fill:#F1E3D0;}
	.st1{fill:#696969;}
	.st2{fill:#6F4393;}
	.st3{fill:none;}
	.st4{fill:#686868;}
	.st5{fill:#231F20;}
</style>
<rect x="-2" class="st5" width="569.2" height="569.2"/>
<g>
	<path class="st3" d="M495.3,371.6l-9.1-3.8l-2.2-0.9L457.6,356c-1-1.8-1.9-3.6-2.7-5.4c-0.2-0.5-0.4-1-0.6-1.4
		c-6.7-14.4-11.1-29.7-13.1-45.4c-0.2-1.1-0.3-2.2-0.4-3.3c-1.2-11.1-1.2-22.2,0-33.3c0.1-1.1,0.3-2.2,0.4-3.3
		c2-15.7,6.4-31.1,13.1-45.4c0.2-0.5,0.4-1,0.6-1.4c0.6-1.2,1.1-2.3,1.7-3.4l26.4-11l2.2-0.9l10.1-4.2l1.2-0.5l-0.8-1.9l-1.2,0.5
		l-9.1,3.8l-2.2,0.9l-26.4,10.9c-1.9-0.6-3.8-1.2-5.7-1.9c-0.5-0.2-1-0.4-1.4-0.5c-14.9-5.4-28.8-13.2-41.4-22.8
		c-0.9-0.7-1.8-1.3-2.7-2c-4.3-3.5-8.5-7.2-12.4-11.1c-3.9-3.9-7.6-8.1-11.1-12.4c-0.7-0.9-1.4-1.8-2.1-2.6
		c-9.7-12.5-17.4-26.5-22.9-41.4c-0.2-0.5-0.4-1-0.5-1.4c-0.4-1.2-0.8-2.4-1.2-3.7l10.9-26.4l1-2.2l4.2-10.1h0l0.5-1.2l-1.9-0.8
		l-0.5,1.2l-3.7,9.1l-1,2.2L354,109.6c-1.8,1-3.6,1.9-5.4,2.7c-0.5,0.2-1,0.4-1.4,0.6c-14.4,6.7-29.7,11.1-45.4,13.1
		c-1.1,0.1-2.2,0.3-3.3,0.4c-11.1,1.2-22.2,1.2-33.2,0c-1.1-0.1-2.2-0.3-3.3-0.4c-15.7-2-31-6.5-45.4-13.2c-0.5-0.2-1-0.4-1.4-0.6
		c-1.1-0.6-2.3-1.1-3.4-1.7l-10.9-26.4l-0.9-2.1l-4.2-10.1l-0.5-1.2l-1.9,0.8l0.5,1.2l3.8,9.1l0.9,2.2l10.9,26.4
		c-0.6,1.9-1.2,3.8-1.9,5.7c-0.2,0.5-0.4,1-0.5,1.4c-5.4,14.9-13.2,28.8-22.9,41.4c-0.7,0.9-1.3,1.8-2,2.6
		c-7,8.7-14.8,16.5-23.5,23.5c-0.9,0.7-1.8,1.4-2.7,2c-12.5,9.7-26.5,17.4-41.4,22.9c-0.5,0.2-1,0.4-1.4,0.5
		c-1.2,0.4-2.4,0.8-3.6,1.2l-26.4-10.9l-2.2-0.9l-10.1-4.2l-1.2-0.5l-0.8,1.9l1.2,0.5l9.1,3.8l2.2,0.9l26.4,10.9
		c1,1.8,1.9,3.6,2.7,5.4c0.2,0.5,0.4,1,0.6,1.4c6.7,14.4,11.1,29.7,13.1,45.4c0.1,1.1,0.3,2.2,0.4,3.3c1.2,11.1,1.2,22.2,0,33.3
		c-0.1,1.1-0.3,2.2-0.4,3.3c-2,15.7-6.4,31.1-13.1,45.4c-0.2,0.5-0.4,1-0.6,1.4c-0.5,1.1-1.1,2.3-1.7,3.4l-26.4,10.9l-2.2,0.9
		l-10.1,4.2l-1.2,0.5l0.8,1.9l1.2-0.5l9.1-3.8l2.3-1l26.4-10.9c1.9,0.6,3.8,1.2,5.7,1.9c0.5,0.2,1,0.4,1.5,0.6
		c14.9,5.5,28.8,13.2,41.4,22.9c0.9,0.7,1.8,1.3,2.6,2c8.7,7,16.5,14.9,23.5,23.5c0.7,0.9,1.4,1.8,2,2.6
		c9.7,12.5,17.4,26.5,22.9,41.4c0.2,0.5,0.4,1,0.5,1.4c0.4,1.2,0.8,2.4,1.2,3.7l-10.9,26.4l-1,2.2l-4.2,10.1l-0.5,1.2l1.9,0.8
		l0.5-1.2l3.8-9.1l0.9-2.2l10.9-26.4c1.8-1,3.6-1.9,5.4-2.7l1.4-0.6c14.4-6.7,29.7-11.1,45.4-13.1c1.1-0.1,2.2-0.3,3.3-0.4
		c11.1-1.2,22.2-1.2,33.3,0c1.1,0.1,2.2,0.3,3.3,0.4c15.7,2,31,6.4,45.4,13.1l1.4,0.6c1.1,0.6,2.3,1.1,3.4,1.7l10.9,26.4l0.9,2.2
		l4.7,11.3l1.9-0.8l-0.5-1.2l-3.8-9.1l-0.9-2.2l-10.9-26.4c0.6-1.9,1.2-3.8,1.9-5.7c0.2-0.5,0.4-1,0.5-1.4
		c5.5-14.9,13.2-28.8,22.9-41.4c0.7-0.9,1.3-1.8,2.1-2.6c3.5-4.3,7.2-8.5,11.1-12.4c3.9-3.9,8.1-7.7,12.4-11.1
		c0.9-0.7,1.8-1.4,2.6-2.1c12.5-9.7,26.5-17.4,41.4-22.8l1.4-0.6c1.2-0.4,2.4-0.8,3.6-1.2l26.4,10.9l2.2,0.9l10.1,4.2l1.2,0.5
		l0.8-1.9L495.3,371.6z M354.5,113.5c0.2,0.7,0.4,1.4,0.7,2.1c0.2,0.5,0.4,1,0.6,1.5c5.2,14.2,12.4,27.5,21.4,39.6
		c0.6,0.8,1.2,1.6,1.8,2.4c8.1,10.5,17.5,19.9,27.9,27.9c0.8,0.6,1.6,1.2,2.4,1.8c12.1,9,25.4,16.3,39.6,21.4l1.5,0.5
		c1.4,0.5,2.8,1,4.2,1.4l-26.4,10.9l-2.2,0.9l-23.5,9.7c-32.9-10.1-58.8-35.6-69.6-68.2l9.7-23.4l0.9-2.2L354.5,113.5z M389.9,292.6
		L389.9,292.6c1.1,14,5,27.6,11.3,40.1l-17.9-7.4l-2.1-0.9l-17.9-7.4c-10.7-20-11-43.9-1-64.3l17.9-7.4l2.2-0.9l17.9-7.4
		c-5.8,11.9-9.3,24.9-10.4,38.1c-0.2,2.9-0.4,5.7-0.4,8.7C389.5,286.8,389.7,289.7,389.9,292.6z M175.2,276.7
		c-1.1-14-4.9-27.6-11.3-40.1l17.9,7.4l2.1,0.9l17.9,7.4c10.6,20,11,44,0.9,64.3l-17.9,7.4l-2.1,0.9l-17.9,7.4
		c5.8-12,9.3-24.9,10.4-38.1c0.2-2.9,0.4-5.8,0.4-8.7C175.6,282.5,175.4,279.5,175.2,276.7z M298.3,244.1c0,0,0-0.1,0-0.1
		c-9.6,5.1-21.1,5.4-31,0.8l-7.4-17.9l-0.9-2.1l-7.4-17.9c19.9,9.3,42.9,9,62.5-0.9l-7.4,17.9l-0.8,2.1L298.3,244.1z M256.7,224.6
		l0.8,2.1l7.5,18.1l-0.1-0.1c-3.2,10.4-11.1,18.8-21.3,22.5l-17.9-7.4l-2.1-0.9l-17.9-7.4c20.6-7.5,36.7-24,43.6-44.9L256.7,224.6z
		 M221.9,260.6l2.1,0.8l18.1,7.5h-0.1c5.1,9.6,5.5,21.1,0.8,31l-17.9,7.4l-2.1,1l-17.9,7.4c9.3-19.9,9-42.9-0.9-62.5L221.9,260.6z
		 M222.7,310.5l2.1-0.9l18.1-7.5l-0.1,0.1c10.4,3.2,18.8,11.1,22.5,21.3l-7.4,17.9l-0.9,2.1l-7.4,17.9c-7.5-20.6-24-36.7-44.9-43.6
		L222.7,310.5z M258.5,345.3l0.8-2.1l7.5-18.1c0,0,0,0.1,0,0.1c9.6-5.1,21.1-5.4,31-0.8l7.4,17.9l0.9,2.1l7.4,17.9
		c-19.9-9.3-42.9-9-62.5,0.9L258.5,345.3z M308.5,344.5l-0.9-2.1l-7.5-18.1l0.1,0.1c1.7-5.5,4.7-10.5,8.7-14.5
		c3.6-3.6,7.9-6.3,12.6-8l17.9,7.4l2.1,0.9l17.9,7.4c-20.6,7.5-36.7,24-43.6,44.9L308.5,344.5z M343.3,308.7l-2.1-0.9l-18.1-7.5h0.1
		c-5.1-9.6-5.5-21.1-0.8-31l17.9-7.4l2.1-0.8l17.9-7.4c-9.3,19.9-9,42.9,0.9,62.5L343.3,308.7z M342.5,258.6l-2.2,0.9l-18.1,7.5
		l0.1-0.1c-10.4-3.2-18.8-11.1-22.5-21.3l7.4-17.9l0.9-2.1l7.4-17.9c7.5,20.6,24,36.7,44.9,43.6L342.5,258.6z M314.9,203.9
		c-20,10.6-44,11-64.3,0.9l-7.4-17.9l-0.9-2.1l-7.4-17.9c12,5.8,24.9,9.3,38.1,10.4c2.9,0.2,5.8,0.4,8.8,0.4c3,0,5.9-0.2,8.7-0.4
		c14-1.1,27.6-5,40.1-11.3l-7.4,17.9l-0.9,2.1L314.9,203.9z M240.1,184.6l0.9,2.1l7.4,17.9c-6.6,21.7-23.3,38.9-44.8,46.1l-17.9-7.4
		l-2.2-0.8l-17.9-7.4c12.5-4.4,24.2-11,34.3-19.6c2.2-1.9,4.4-3.8,6.5-5.9c2.1-2,4-4.3,5.9-6.5c9.1-10.7,16-23,20.3-36.3
		L240.1,184.6z M182.6,327.1l2.1-0.9l17.9-7.4c21.7,6.6,38.9,23.3,46.1,44.8l-7.4,17.9l-0.9,2.1l-7.4,17.9
		c-4.4-12.5-11-24.2-19.6-34.3c-1.9-2.2-3.8-4.4-5.9-6.5c-2-2.1-4.3-4-6.5-5.9c-10.7-9.1-23-16-36.3-20.3L182.6,327.1z M241.9,385.4
		l0.9-2.1l7.4-17.9c20-10.6,44-11,64.3-0.9l7.4,17.9l0.9,2.1l7.4,17.9c-12-5.8-24.9-9.3-38.1-10.4c-2.9-0.2-5.7-0.4-8.7-0.4
		c-3,0-5.9,0.2-8.8,0.4c-14,1.1-27.6,5-40.1,11.3L241.9,385.4z M325.1,384.6l-0.9-2.1l-7.4-17.9c6.6-21.7,23.3-38.9,44.8-46.1
		l17.9,7.4l2.1,0.8l17.9,7.4c-12.5,4.4-24.2,11-34.3,19.6c-2.2,1.9-4.4,3.8-6.5,5.9c-2.1,2-4,4.3-5.9,6.5c-9.1,10.7-16,23-20.4,36.3
		L325.1,384.6z M382.5,242.1l-2.1,0.8l-17.9,7.4c-21.7-6.6-38.9-23.3-46.1-44.8l7.4-17.9l0.8-2.1l7.4-17.9
		c4.4,12.6,11,24.2,19.6,34.3c1.9,2.2,3.8,4.4,5.9,6.5c2,2.1,4.3,4,6.5,5.9c10.7,9.1,23,16,36.3,20.4L382.5,242.1z M214.4,113.7
		l1.4,0.6c13.7,6.4,28.2,10.7,43.2,12.9c1,0.2,2,0.3,3,0.4c13.1,1.7,26.4,1.7,39.5,0c1-0.1,2-0.2,3-0.4c14.9-2.2,29.5-6.5,43.2-12.9
		l1.4-0.6c1.3-0.6,2.6-1.3,3.9-2l-10.9,26.4l-0.9,2.2l-9.7,23.5c-30.4,16.1-66.7,16.4-97.4,1l-9.7-23.4l-0.9-2.2l-10.9-26.4
		C213.2,113.1,213.8,113.4,214.4,113.7z M113.6,211.9l1.4-0.6c14.2-5.2,27.5-12.4,39.6-21.4c0.8-0.6,1.6-1.2,2.4-1.8
		c10.5-8.1,19.9-17.5,27.9-28c0.6-0.8,1.2-1.6,1.8-2.4c9-12.1,16.3-25.4,21.4-39.6c0.2-0.5,0.4-1,0.6-1.4c0.5-1.4,1-2.8,1.4-4.2
		l10.9,26.4l0.9,2.2l9.7,23.5c-10.1,32.9-35.6,58.8-68.2,69.5l-23.4-9.7l-2.2-0.9l-26.4-10.9L113.6,211.9z M111.7,352.8
		c0.2-0.4,0.4-1,0.6-1.4c6.3-13.7,10.7-28.2,12.9-43.2c0.1-1,0.3-2,0.4-3c1.7-13.1,1.7-26.4,0-39.5l-0.1-0.1c-0.1-1-0.2-2-0.4-3
		c-2.2-14.9-6.5-29.5-12.9-43.2c-0.2-0.5-0.4-1-0.6-1.4c-0.6-1.3-1.3-2.6-1.9-3.9l26.4,10.9l2.2,0.9l23.5,9.8
		c16.1,30.4,16.4,66.7,1,97.4l-23.4,9.7l-2.2,0.9l-26.4,10.9C111.1,354,111.4,353.4,111.7,352.8z M210.6,455.6
		c-0.2-0.7-0.4-1.4-0.7-2.1c-0.2-0.5-0.4-1-0.5-1.4c-5.2-14.2-12.4-27.5-21.5-39.6c-0.6-0.8-1.2-1.6-1.8-2.4
		c-4-5.2-8.4-10.2-13.1-14.9c-4.7-4.7-9.7-9-14.9-13.1c-0.8-0.6-1.6-1.2-2.4-1.8c-12.1-9-25.4-16.3-39.6-21.5l-1.4-0.5
		c-1.4-0.5-2.8-1-4.2-1.4l26.4-10.9l2.2-0.9l23.5-9.7c32.9,10.1,58.8,35.6,69.6,68.2l-9.7,23.4l-0.9,2.2L210.6,455.6z M350.7,455.5
		l-1.4-0.7c-13.7-6.3-28.2-10.7-43.2-12.9c-1-0.1-2-0.3-3-0.4c-13.1-1.7-26.4-1.7-39.5,0c-1,0.1-2,0.2-3,0.4
		c-15,2.2-29.5,6.5-43.2,12.9l-1.4,0.6c-1.3,0.6-2.6,1.3-3.9,2L223,431l0.9-2.2l9.7-23.5c30.4-16.1,66.7-16.4,97.4-1l9.7,23.4
		l0.9,2.2l10.9,26.4C352,456.1,351.3,455.8,350.7,455.5z M451.6,357.2c-0.5,0.2-1,0.4-1.4,0.5c-14.2,5.2-27.5,12.4-39.6,21.4
		c-0.8,0.6-1.6,1.2-2.4,1.8c-10.5,8.1-19.9,17.5-27.9,27.9c-0.6,0.8-1.2,1.6-1.8,2.4c-9,12.1-16.2,25.5-21.4,39.6
		c-0.2,0.5-0.4,1-0.5,1.4c-0.5,1.4-1,2.8-1.4,4.2L344,430.3l-0.9-2.2l-9.7-23.5c10.1-32.9,35.6-58.8,68.2-69.5l23.4,9.7l2.2,0.9
		l26.4,10.9C452.9,356.8,452.2,357,451.6,357.2z M429,344.2l-2.2-0.9l-23.5-9.7c-16.1-30.4-16.4-66.7-1-97.4l23.4-9.7l2.2-0.9
		l26.4-10.9c-0.3,0.7-0.7,1.3-1,1.9c-0.2,0.4-0.4,1-0.6,1.4c-6.4,13.7-10.7,28.3-12.9,43.2c-0.2,1-0.3,2-0.4,3
		c-1.7,13.1-1.7,26.4,0,39.5l0,0c0.1,1,0.2,2,0.4,3c2.2,14.9,6.5,29.5,12.9,43.2c0.2,0.5,0.4,1,0.6,1.4c0.6,1.3,1.3,2.6,1.9,3.9
		L429,344.2z"/>
	<path class="st3" d="M495.3,371.6l-9.1-3.8l-2.2-0.9L457.6,356c-1-1.8-1.9-3.6-2.7-5.4c-0.2-0.5-0.4-1-0.6-1.4
		c-6.7-14.4-11.1-29.7-13.1-45.4c-0.2-1.1-0.3-2.2-0.4-3.3c-1.2-11.1-1.2-22.2,0-33.3c0.1-1.1,0.3-2.2,0.4-3.3
		c2-15.7,6.4-31.1,13.1-45.4c0.2-0.5,0.4-1,0.6-1.4c0.6-1.2,1.1-2.3,1.7-3.4l26.4-11l2.2-0.9l10.1-4.2l1.2-0.5l-0.8-1.9l-1.2,0.5
		l-9.1,3.8l-2.2,0.9l-26.4,10.9c-1.9-0.6-3.8-1.2-5.7-1.9c-0.5-0.2-1-0.4-1.4-0.5c-14.9-5.4-28.8-13.2-41.4-22.8
		c-0.9-0.7-1.8-1.3-2.7-2c-4.3-3.5-8.5-7.2-12.4-11.1c-3.9-3.9-7.6-8.1-11.1-12.4c-0.7-0.9-1.4-1.8-2.1-2.6
		c-9.7-12.5-17.4-26.5-22.9-41.4c-0.2-0.5-0.4-1-0.5-1.4c-0.4-1.2-0.8-2.4-1.2-3.7l10.9-26.4l1-2.2l4.2-10.1h0l0.5-1.2l-1.9-0.8
		l-0.5,1.2l-3.7,9.1l-1,2.2L354,109.6c-1.8,1-3.6,1.9-5.4,2.7c-0.5,0.2-1,0.4-1.4,0.6c-14.4,6.7-29.7,11.1-45.4,13.1
		c-1.1,0.1-2.2,0.3-3.3,0.4c-11.1,1.2-22.2,1.2-33.2,0c-1.1-0.1-2.2-0.3-3.3-0.4c-15.7-2-31-6.5-45.4-13.2c-0.5-0.2-1-0.4-1.4-0.6
		c-1.1-0.6-2.3-1.1-3.4-1.7l-10.9-26.4l-0.9-2.1l-4.2-10.1l-0.5-1.2l-1.9,0.8l0.5,1.2l3.8,9.1l0.9,2.2l10.9,26.4
		c-0.6,1.9-1.2,3.8-1.9,5.7c-0.2,0.5-0.4,1-0.5,1.4c-5.4,14.9-13.2,28.8-22.9,41.4c-0.7,0.9-1.3,1.8-2,2.6
		c-7,8.7-14.8,16.5-23.5,23.5c-0.9,0.7-1.8,1.4-2.7,2c-12.5,9.7-26.5,17.4-41.4,22.9c-0.5,0.2-1,0.4-1.4,0.5
		c-1.2,0.4-2.4,0.8-3.6,1.2l-26.4-10.9l-2.2-0.9l-10.1-4.2l-1.2-0.5l-0.8,1.9l1.2,0.5l9.1,3.8l2.2,0.9l26.4,10.9
		c1,1.8,1.9,3.6,2.7,5.4c0.2,0.5,0.4,1,0.6,1.4c6.7,14.4,11.1,29.7,13.1,45.4c0.1,1.1,0.3,2.2,0.4,3.3c1.2,11.1,1.2,22.2,0,33.3
		c-0.1,1.1-0.3,2.2-0.4,3.3c-2,15.7-6.4,31.1-13.1,45.4c-0.2,0.5-0.4,1-0.6,1.4c-0.5,1.1-1.1,2.3-1.7,3.4l-26.4,10.9l-2.2,0.9
		l-10.1,4.2l-1.2,0.5l0.8,1.9l1.2-0.5l9.1-3.8l2.3-1l26.4-10.9c1.9,0.6,3.8,1.2,5.7,1.9c0.5,0.2,1,0.4,1.5,0.6
		c14.9,5.5,28.8,13.2,41.4,22.9c0.9,0.7,1.8,1.3,2.6,2c8.7,7,16.5,14.9,23.5,23.5c0.7,0.9,1.4,1.8,2,2.6
		c9.7,12.5,17.4,26.5,22.9,41.4c0.2,0.5,0.4,1,0.5,1.4c0.4,1.2,0.8,2.4,1.2,3.7l-10.9,26.4l-1,2.2l-4.2,10.1l-0.5,1.2l1.9,0.8
		l0.5-1.2l3.8-9.1l0.9-2.2l10.9-26.4c1.8-1,3.6-1.9,5.4-2.7l1.4-0.6c14.4-6.7,29.7-11.1,45.4-13.1c1.1-0.1,2.2-0.3,3.3-0.4
		c11.1-1.2,22.2-1.2,33.3,0c1.1,0.1,2.2,0.3,3.3,0.4c15.7,2,31,6.4,45.4,13.1l1.4,0.6c1.1,0.6,2.3,1.1,3.4,1.7l10.9,26.4l0.9,2.2
		l4.7,11.3l1.9-0.8l-0.5-1.2l-3.8-9.1l-0.9-2.2l-10.9-26.4c0.6-1.9,1.2-3.8,1.9-5.7c0.2-0.5,0.4-1,0.5-1.4
		c5.5-14.9,13.2-28.8,22.9-41.4c0.7-0.9,1.3-1.8,2.1-2.6c3.5-4.3,7.2-8.5,11.1-12.4c3.9-3.9,8.1-7.7,12.4-11.1
		c0.9-0.7,1.8-1.4,2.6-2.1c12.5-9.7,26.5-17.4,41.4-22.8l1.4-0.6c1.2-0.4,2.4-0.8,3.6-1.2l26.4,10.9l2.2,0.9l10.1,4.2l1.2,0.5
		l0.8-1.9L495.3,371.6z M354.5,113.5c0.2,0.7,0.4,1.4,0.7,2.1c0.2,0.5,0.4,1,0.6,1.5c5.2,14.2,12.4,27.5,21.4,39.6
		c0.6,0.8,1.2,1.6,1.8,2.4c8.1,10.5,17.5,19.9,27.9,27.9c0.8,0.6,1.6,1.2,2.4,1.8c12.1,9,25.4,16.3,39.6,21.4l1.5,0.5
		c1.4,0.5,2.8,1,4.2,1.4l-26.4,10.9l-2.2,0.9l-23.5,9.7c-32.9-10.1-58.8-35.6-69.6-68.2l9.7-23.4l0.9-2.2L354.5,113.5z M389.9,292.6
		L389.9,292.6c1.1,14,5,27.6,11.3,40.1l-17.9-7.4l-2.1-0.9l-17.9-7.4c-10.7-20-11-43.9-1-64.3l17.9-7.4l2.2-0.9l17.9-7.4
		c-5.8,11.9-9.3,24.9-10.4,38.1c-0.2,2.9-0.4,5.7-0.4,8.7C389.5,286.8,389.7,289.7,389.9,292.6z M175.2,276.7
		c-1.1-14-4.9-27.6-11.3-40.1l17.9,7.4l2.1,0.9l17.9,7.4c10.6,20,11,44,0.9,64.3l-17.9,7.4l-2.1,0.9l-17.9,7.4
		c5.8-12,9.3-24.9,10.4-38.1c0.2-2.9,0.4-5.8,0.4-8.7C175.6,282.5,175.4,279.5,175.2,276.7z M298.3,244.1c0,0,0-0.1,0-0.1
		c-9.6,5.1-21.1,5.4-31,0.8l-7.4-17.9l-0.9-2.1l-7.4-17.9c19.9,9.3,42.9,9,62.5-0.9l-7.4,17.9l-0.8,2.1L298.3,244.1z M256.7,224.6
		l0.8,2.1l7.5,18.1l-0.1-0.1c-3.2,10.4-11.1,18.8-21.3,22.5l-17.9-7.4l-2.1-0.9l-17.9-7.4c20.6-7.5,36.7-24,43.6-44.9L256.7,224.6z
		 M221.9,260.6l2.1,0.8l18.1,7.5h-0.1c5.1,9.6,5.5,21.1,0.8,31l-17.9,7.4l-2.1,1l-17.9,7.4c9.3-19.9,9-42.9-0.9-62.5L221.9,260.6z
		 M222.7,310.5l2.1-0.9l18.1-7.5l-0.1,0.1c10.4,3.2,18.8,11.1,22.5,21.3l-7.4,17.9l-0.9,2.1l-7.4,17.9c-7.5-20.6-24-36.7-44.9-43.6
		L222.7,310.5z M258.5,345.3l0.8-2.1l7.5-18.1c0,0,0,0.1,0,0.1c9.6-5.1,21.1-5.4,31-0.8l7.4,17.9l0.9,2.1l7.4,17.9
		c-19.9-9.3-42.9-9-62.5,0.9L258.5,345.3z M308.5,344.5l-0.9-2.1l-7.5-18.1l0.1,0.1c1.7-5.5,4.7-10.5,8.7-14.5
		c3.6-3.6,7.9-6.3,12.6-8l17.9,7.4l2.1,0.9l17.9,7.4c-20.6,7.5-36.7,24-43.6,44.9L308.5,344.5z M343.3,308.7l-2.1-0.9l-18.1-7.5h0.1
		c-5.1-9.6-5.5-21.1-0.8-31l17.9-7.4l2.1-0.8l17.9-7.4c-9.3,19.9-9,42.9,0.9,62.5L343.3,308.7z M342.5,258.6l-2.2,0.9l-18.1,7.5
		l0.1-0.1c-10.4-3.2-18.8-11.1-22.5-21.3l7.4-17.9l0.9-2.1l7.4-17.9c7.5,20.6,24,36.7,44.9,43.6L342.5,258.6z M314.9,203.9
		c-20,10.6-44,11-64.3,0.9l-7.4-17.9l-0.9-2.1l-7.4-17.9c12,5.8,24.9,9.3,38.1,10.4c2.9,0.2,5.8,0.4,8.8,0.4c3,0,5.9-0.2,8.7-0.4
		c14-1.1,27.6-5,40.1-11.3l-7.4,17.9l-0.9,2.1L314.9,203.9z M240.1,184.6l0.9,2.1l7.4,17.9c-6.6,21.7-23.3,38.9-44.8,46.1l-17.9-7.4
		l-2.2-0.8l-17.9-7.4c12.5-4.4,24.2-11,34.3-19.6c2.2-1.9,4.4-3.8,6.5-5.9c2.1-2,4-4.3,5.9-6.5c9.1-10.7,16-23,20.3-36.3
		L240.1,184.6z M182.6,327.1l2.1-0.9l17.9-7.4c21.7,6.6,38.9,23.3,46.1,44.8l-7.4,17.9l-0.9,2.1l-7.4,17.9
		c-4.4-12.5-11-24.2-19.6-34.3c-1.9-2.2-3.8-4.4-5.9-6.5c-2-2.1-4.3-4-6.5-5.9c-10.7-9.1-23-16-36.3-20.3L182.6,327.1z M241.9,385.4
		l0.9-2.1l7.4-17.9c20-10.6,44-11,64.3-0.9l7.4,17.9l0.9,2.1l7.4,17.9c-12-5.8-24.9-9.3-38.1-10.4c-2.9-0.2-5.7-0.4-8.7-0.4
		c-3,0-5.9,0.2-8.8,0.4c-14,1.1-27.6,5-40.1,11.3L241.9,385.4z M325.1,384.6l-0.9-2.1l-7.4-17.9c6.6-21.7,23.3-38.9,44.8-46.1
		l17.9,7.4l2.1,0.8l17.9,7.4c-12.5,4.4-24.2,11-34.3,19.6c-2.2,1.9-4.4,3.8-6.5,5.9c-2.1,2-4,4.3-5.9,6.5c-9.1,10.7-16,23-20.4,36.3
		L325.1,384.6z M382.5,242.1l-2.1,0.8l-17.9,7.4c-21.7-6.6-38.9-23.3-46.1-44.8l7.4-17.9l0.8-2.1l7.4-17.9
		c4.4,12.6,11,24.2,19.6,34.3c1.9,2.2,3.8,4.4,5.9,6.5c2,2.1,4.3,4,6.5,5.9c10.7,9.1,23,16,36.3,20.4L382.5,242.1z M214.4,113.7
		l1.4,0.6c13.7,6.4,28.2,10.7,43.2,12.9c1,0.2,2,0.3,3,0.4c13.1,1.7,26.4,1.7,39.5,0c1-0.1,2-0.2,3-0.4c14.9-2.2,29.5-6.5,43.2-12.9
		l1.4-0.6c1.3-0.6,2.6-1.3,3.9-2l-10.9,26.4l-0.9,2.2l-9.7,23.5c-30.4,16.1-66.7,16.4-97.4,1l-9.7-23.4l-0.9-2.2l-10.9-26.4
		C213.2,113.1,213.8,113.4,214.4,113.7z M113.6,211.9l1.4-0.6c14.2-5.2,27.5-12.4,39.6-21.4c0.8-0.6,1.6-1.2,2.4-1.8
		c10.5-8.1,19.9-17.5,27.9-28c0.6-0.8,1.2-1.6,1.8-2.4c9-12.1,16.3-25.4,21.4-39.6c0.2-0.5,0.4-1,0.6-1.4c0.5-1.4,1-2.8,1.4-4.2
		l10.9,26.4l0.9,2.2l9.7,23.5c-10.1,32.9-35.6,58.8-68.2,69.5l-23.4-9.7l-2.2-0.9l-26.4-10.9L113.6,211.9z M111.7,352.8
		c0.2-0.4,0.4-1,0.6-1.4c6.3-13.7,10.7-28.2,12.9-43.2c0.1-1,0.3-2,0.4-3c1.7-13.1,1.7-26.4,0-39.5l-0.1-0.1c-0.1-1-0.2-2-0.4-3
		c-2.2-14.9-6.5-29.5-12.9-43.2c-0.2-0.5-0.4-1-0.6-1.4c-0.6-1.3-1.3-2.6-1.9-3.9l26.4,10.9l2.2,0.9l23.5,9.8
		c16.1,30.4,16.4,66.7,1,97.4l-23.4,9.7l-2.2,0.9l-26.4,10.9C111.1,354,111.4,353.4,111.7,352.8z M210.6,455.6
		c-0.2-0.7-0.4-1.4-0.7-2.1c-0.2-0.5-0.4-1-0.5-1.4c-5.2-14.2-12.4-27.5-21.5-39.6c-0.6-0.8-1.2-1.6-1.8-2.4
		c-4-5.2-8.4-10.2-13.1-14.9c-4.7-4.7-9.7-9-14.9-13.1c-0.8-0.6-1.6-1.2-2.4-1.8c-12.1-9-25.4-16.3-39.6-21.5l-1.4-0.5
		c-1.4-0.5-2.8-1-4.2-1.4l26.4-10.9l2.2-0.9l23.5-9.7c32.9,10.1,58.8,35.6,69.6,68.2l-9.7,23.4l-0.9,2.2L210.6,455.6z M350.7,455.5
		l-1.4-0.7c-13.7-6.3-28.2-10.7-43.2-12.9c-1-0.1-2-0.3-3-0.4c-13.1-1.7-26.4-1.7-39.5,0c-1,0.1-2,0.2-3,0.4
		c-15,2.2-29.5,6.5-43.2,12.9l-1.4,0.6c-1.3,0.6-2.6,1.3-3.9,2L223,431l0.9-2.2l9.7-23.5c30.4-16.1,66.7-16.4,97.4-1l9.7,23.4
		l0.9,2.2l10.9,26.4C352,456.1,351.3,455.8,350.7,455.5z M451.6,357.2c-0.5,0.2-1,0.4-1.4,0.5c-14.2,5.2-27.5,12.4-39.6,21.4
		c-0.8,0.6-1.6,1.2-2.4,1.8c-10.5,8.1-19.9,17.5-27.9,27.9c-0.6,0.8-1.2,1.6-1.8,2.4c-9,12.1-16.2,25.5-21.4,39.6
		c-0.2,0.5-0.4,1-0.5,1.4c-0.5,1.4-1,2.8-1.4,4.2L344,430.3l-0.9-2.2l-9.7-23.5c10.1-32.9,35.6-58.8,68.2-69.5l23.4,9.7l2.2,0.9
		l26.4,10.9C452.9,356.8,452.2,357,451.6,357.2z M429,344.2l-2.2-0.9l-23.5-9.7c-16.1-30.4-16.4-66.7-1-97.4l23.4-9.7l2.2-0.9
		l26.4-10.9c-0.3,0.7-0.7,1.3-1,1.9c-0.2,0.4-0.4,1-0.6,1.4c-6.4,13.7-10.7,28.3-12.9,43.2c-0.2,1-0.3,2-0.4,3
		c-1.7,13.1-1.7,26.4,0,39.5l0,0c0.1,1,0.2,2,0.4,3c2.2,14.9,6.5,29.5,12.9,43.2c0.2,0.5,0.4,1,0.6,1.4c0.6,1.3,1.3,2.6,1.9,3.9
		L429,344.2z"/>
	<g>
		<path class="st4" d="M20.6,22.6v523.9h523.9V22.6H20.6z M27.8,539.4V29.8h509.5v509.5H27.8z"/>
		<path class="st4" d="M448.4,118.8c-21.5-21.5-46.6-38.5-74.5-50.3c-28.9-12.2-59.6-18.4-91.3-18.4s-62.4,6.2-91.3,18.4
			c-27.9,11.8-53,28.7-74.5,50.3c-21.5,21.5-38.5,46.6-50.3,74.5c-12.2,28.9-18.4,59.6-18.4,91.3s6.2,62.4,18.4,91.3
			c11.8,27.9,28.7,53,50.3,74.5c21.5,21.5,46.6,38.4,74.5,50.3c28.9,12.2,59.6,18.4,91.3,18.4s62.4-6.2,91.3-18.4
			c27.9-11.8,53-28.7,74.5-50.3c21.5-21.5,38.4-46.6,50.3-74.5c12.2-28.9,18.4-59.6,18.4-91.3s-6.2-62.4-18.4-91.3
			C486.9,165.4,469.9,140.3,448.4,118.8z M437.5,260.7c-0.1,0.7-0.2,1.5-0.3,2.2c0,0.3-0.1,0.6-0.1,0.8c-1.7,13.3-1.7,26.8,0,40.2
			l0.1,1.1l0,0c0.1,0.6,0.2,1.3,0.3,2c2.2,15.1,6.5,29.7,12.9,43.6l-20.6-8.5l-2.2-0.9l-22.7-9.4c-15.2-29.3-15.5-64.1-0.9-93.7
			l22.6-9.4l2.2-0.9l20.7-8.6C443.7,232.4,439.6,246.3,437.5,260.7z M127.6,308.5c0.1-0.6,0.2-1.3,0.3-1.9c0-0.4,0.1-0.7,0.1-1.1
			c1.7-13.3,1.7-26.8,0-40.1l-0.1-0.9l-0.1-0.1c0-0.2,0-0.3-0.1-0.5c-0.1-0.6-0.1-1.1-0.2-1.7c-2.2-15.1-6.6-29.8-12.9-43.6
			l20.6,8.5l2.2,0.9l22.7,9.4c15.2,29.2,15.5,64.1,0.9,93.7l-22.6,9.4l-2.2,0.9l-20.6,8.6C121.5,336.8,125.5,322.9,127.6,308.5z
			 M387.5,292.7L387.5,292.7l0,0.1c1,12.3,4,24.1,8.9,35.3l-12.2-5.1l-2.1-0.9l-17.1-7.1c-9.8-18.9-10.1-41.4-0.9-60.5l17-7.1
			l2.2-0.9l12.3-5.1c-4.4,10.6-7.2,21.8-8.1,33.4c-0.2,2.8-0.4,5.8-0.4,8.9C387.1,287,387.3,290.1,387.5,292.7z M177.6,276.5
			c-1-12.3-4-24.1-8.9-35.3l12.2,5l2.1,0.9l17.1,7.1c9.7,18.9,10,41.4,0.9,60.5l-17.1,7.1l-2.1,0.9l-12.3,5.1
			c4.4-10.6,7.2-21.9,8.1-33.4c0.2-2.8,0.4-5.9,0.4-8.9C178,282.3,177.8,279.3,177.6,276.5z M351.1,285c0.1,9.1,2,18.2,5.4,26.6
			l-12.3-5.1l-2.1-0.9l-17.2-7.1c-4.3-8.5-4.6-18.6-0.8-27.4l17-7l2.1-0.9l12.5-5.2C352.6,266.6,351,275.8,351.1,285z M214,284.3
			c-0.1-9.1-2-18.2-5.4-26.6l12.3,5.1l2.1,0.8l17.1,7.1c4.3,8.5,4.6,18.6,0.8,27.4l-17,7l-2.1,1l-12.5,5.2
			C212.5,302.7,214.1,293.5,214,284.3z M287.9,262.8L287,265l-4.4,10.6l-10.3-24.9c3.1,0.8,6.3,1.2,9.5,1.2c3.8,0,7.6-0.6,11.3-1.7
			L287.9,262.8z M276.3,278.3l-10-4.1l-1.9-0.8l-13-5.4c6.1-3.6,11.1-8.8,14.4-15.1l5.2,12.6l0.9,2.2L276.3,278.3z M273.7,284.6
			l-10,4.1l-1.9,0.8l-13,5.4c1.7-6.9,1.6-14.1-0.5-20.8l12.5,5.2l2.2,1L273.7,284.6z M265.7,295.3l10.6-4.4l-4.1,9.9l-0.8,1.9
			l-5.4,13.1c-3.6-6.1-8.8-11-15.1-14.4l12.6-5.2L265.7,295.3z M277.3,306.3l0.9-2.2l4.4-10.6l4.1,10l0.8,1.8l5.4,13
			c-3.1-0.8-6.3-1.2-9.5-1.2c-3.8,0-7.6,0.6-11.3,1.7L277.3,306.3z M288.9,290.9l10,4.1l1.9,0.8l13,5.4c-6.1,3.6-11,8.8-14.3,15.1
			l-5.2-12.6l-0.9-2.2L288.9,290.9z M291.5,284.6l10-4.1l1.9-0.8l13-5.4c-1.7,6.8-1.6,14.1,0.5,20.8l-12.6-5.2l-2.2-0.9L291.5,284.6
			z M299.5,273.9l-10.6,4.4l4.1-10l0.8-1.9l5.4-13c3.6,6.1,8.8,11,15.1,14.4l-12.6,5.2L299.5,273.9z M304.4,223l-0.8,2.1l-7.1,17.1
			c-4.5,2.3-9.5,3.4-14.5,3.4c-4.4,0-8.8-0.9-12.8-2.7L262,226l-0.9-2.1l-5.2-12.5c8.3,3.1,17.1,4.7,25.9,4.7
			c9.4,0,18.9-1.8,27.7-5.4L304.4,223z M262.4,244.8c-3,9.1-9.9,16.4-18.8,20l-17-7l-2.1-0.9l-12.5-5.2c8.3-3.8,16-9.2,22.4-15.8
			c6.3-6.5,11.5-14.2,15-22.6l5.1,12.3l0.9,2.2L262.4,244.8z M225.7,311.8l17.1-7.1c9.1,3,16.4,9.9,19.9,18.8l-7,17l-0.9,2.1
			l-5.2,12.5c-3.8-8.3-9.2-16-15.8-22.4c-6.5-6.3-14.2-11.5-22.6-15l12.3-5.1L225.7,311.8z M260.8,346.2l0.8-2.1l7.1-17.1
			c4.5-2.3,9.5-3.4,14.5-3.4c4.5,0,8.8,0.9,12.8,2.7l7.1,17l0.9,2.1l5.2,12.5c-8.3-3.1-17.1-4.7-25.9-4.7c-9.4,0-18.9,1.8-27.7,5.4
			L260.8,346.2z M302.8,324.4c1.6-4.8,4.3-9.2,7.9-12.8c3.1-3.1,6.9-5.5,10.9-7.1l17,7l14.7,6.1c-8.3,3.8-16,9.2-22.4,15.8
			c-6.3,6.5-11.5,14.2-15,22.6l-6-14.4L302.8,324.4z M339.4,257.3l-17.1,7.1c-9.1-3-16.4-9.9-20-18.8l7-17l0.9-2.1l5.2-12.6
			c3.8,8.3,9.2,16,15.8,22.4c6.5,6.3,14.2,11.5,22.6,15l-12.3,5.1L339.4,257.3z M321,182.9l-0.9,2.1l-7.1,17.1
			c-9.6,4.9-20.4,7.6-31.2,7.6c-10.1,0-20.3-2.3-29.4-6.7l-7.1-17l-0.9-2.1l-5.1-12.3c10.6,4.4,21.9,7.2,33.4,8.1
			c2.6,0.2,5.8,0.4,8.9,0.4c3.1,0,6.2-0.2,8.9-0.4c12.3-1,24.1-4,35.3-8.9L321,182.9z M245.8,204.7c-6.5,20.2-22.2,36.4-42.2,43.4
			l-17-7.1l-2.2-0.9l-12.3-5.1c10.7-4.4,20.5-10.4,29.4-17.9c2.3-2,4.5-3.9,6.6-5.9c2.1-2,3.9-4.2,5.7-6.3l0.3-0.4
			c8-9.4,14.2-19.8,18.7-31.2l5.1,12.2l0.9,2.1L245.8,204.7z M185.7,328.4l17.1-7.1c20.2,6.5,36.4,22.1,43.4,42.2l-7.1,17l-0.9,2.1
			l-5.1,12.3c-4.4-10.7-10.4-20.5-17.9-29.4c-1.9-2.2-3.9-4.4-6-6.6c-2.2-2.2-4.6-4.2-6.7-6c-9.4-8-19.8-14.2-31.2-18.7l12.2-5
			L185.7,328.4z M244.1,386.3l0.9-2.1l7.1-17.1c9.6-4.9,20.3-7.6,31.1-7.6c10.1,0,20.3,2.3,29.4,6.7l7.1,17l0.9,2.1l5.1,12.3
			c-10.6-4.4-21.9-7.2-33.4-8.1c-2.8-0.2-5.8-0.4-8.9-0.4c-3.1,0-6,0.2-8.9,0.4c-12.3,1-24.1,4-35.3,8.9L244.1,386.3z M319.3,364.5
			c6.5-20.2,22.2-36.4,42.2-43.4l17.1,7.1l2.1,0.8l12.4,5.1c-10.7,4.4-20.6,10.4-29.4,17.9c-2.3,2-4.5,3.9-6.6,6
			c-2,1.9-3.8,4.1-5.5,6.1l-0.5,0.6c-8,9.3-14.2,19.8-18.7,31.2l-5-12.2l-0.9-2.1L319.3,364.5z M379.5,240.7l-17.1,7.1
			c-20.2-6.5-36.4-22.2-43.4-42.2l7.1-17.1l0.8-2.1l5.1-12.3c4.4,10.7,10.4,20.5,17.9,29.4c2.1,2.4,3.9,4.5,6,6.6
			c2.1,2.1,4.4,4.1,6.6,6l0.1,0.1c9.4,8,19.8,14.3,31.2,18.7l-12.2,5L379.5,240.7z M339.9,137.3l-0.9,2.2l-9.4,22.7
			c-14.7,7.6-31.2,11.6-47.8,11.6c-15.9,0-31.7-3.7-45.9-10.7l-9.4-22.6l-0.9-2.2l-8.6-20.7c13.2,5.9,27.2,9.9,41.6,12
			c0.7,0.1,1.4,0.2,2.1,0.3c0.3,0,0.6,0.1,0.9,0.1c6.6,0.9,13.4,1.3,20.1,1.3c6.7,0,13.4-0.4,20.1-1.3c0.3,0,0.7-0.1,1-0.1
			c0.7-0.1,1.3-0.2,2-0.3c15.1-2.2,29.7-6.5,43.6-12.9L339.9,137.3z M229.2,164.7c-10,31.4-34.4,56.3-65.6,66.9l-22.6-9.4l-22.9-9.5
			c13.5-5.2,26.3-12.2,38-20.9c0.4-0.3,0.9-0.7,1.3-1c0.3-0.3,0.7-0.5,1.1-0.8c10.6-8.2,20.2-17.7,28.4-28.4l0.1-0.1
			c0.6-0.7,1.2-1.5,1.8-2.3c9.1-12.2,16.4-25.6,21.7-39.9l8.5,20.6L229.2,164.7z M140,347.3l22.7-9.4c31.4,10,56.3,34.4,66.9,65.6
			l-9.4,22.6l-0.9,2.2l-8.6,20.7c-5.2-13.6-12.2-26.3-20.9-37.9c-0.5-0.7-1-1.3-1.5-2l-0.3-0.4c-4.1-5.3-8.6-10.4-13.3-15.1
			c-4.7-4.7-9.8-9.1-15.1-13.3l-0.7-0.5c-0.6-0.4-1.1-0.9-1.7-1.3c-12.2-9.1-25.7-16.4-39.9-21.7l20.6-8.5L140,347.3z M225.2,431.9
			l0.9-2.2l9.4-22.7c14.7-7.6,31.2-11.6,47.8-11.6c15.9,0,31.7,3.7,45.9,10.7l9.4,22.6l0.9,2.2l8.5,20.6c-13.3-5.9-27.3-9.9-41.6-12
			c-0.6-0.1-1.3-0.2-1.9-0.3c-0.4,0-0.7-0.1-1.1-0.1c-6.6-0.9-13.4-1.3-20.1-1.3c-6.7,0-13.4,0.4-20.1,1.3c-0.4,0.1-0.8,0.1-1.2,0.2
			c-0.6,0.1-1.2,0.1-1.8,0.2c-15.1,2.2-29.8,6.5-43.6,12.9L225.2,431.9z M335.9,404.4c10-31.4,34.4-56.3,65.6-66.9l22.6,9.3l2.2,0.9
			l20.7,8.6c-13.6,5.2-26.3,12.2-38,20.9c-0.6,0.4-1.1,0.9-1.7,1.3c-0.2,0.2-0.5,0.4-0.7,0.5c-10.7,8.2-20.2,17.7-28.4,28.4
			c-0.3,0.4-0.5,0.7-0.8,1.1c-0.3,0.4-0.7,0.9-1,1.3c-9.1,12.2-16.4,25.7-21.7,39.9l-8.5-20.5L335.9,404.4z M425.1,221.8l-22.7,9.4
			c-31.4-10-56.3-34.4-66.9-65.6l9.4-22.6l0.9-2.2l8.6-20.7c5.2,13.6,12.2,26.3,20.9,38c0.6,0.8,1.2,1.6,1.8,2.4l0,0.1
			c8.2,10.6,17.7,20.2,28.4,28.4c0.8,0.6,1.6,1.2,2.4,1.9c12.2,9.1,25.7,16.4,39.9,21.7l-20.6,8.5L425.1,221.8z M484.5,197.2
			l-2.2,0.9l-25.6,10.6c-1.5-0.5-3.2-1-4.8-1.6l-0.1,0c-0.2-0.1-0.4-0.2-0.6-0.2c-0.3-0.1-0.5-0.2-0.7-0.3
			c-14.6-5.4-28.4-12.9-40.7-22.5c-0.4-0.3-0.7-0.6-1.1-0.9c-0.5-0.4-1-0.8-1.5-1.2c-4.2-3.4-8.3-7.1-12.2-10.9
			c-3.8-3.8-7.5-7.9-11-12.2c-0.4-0.5-0.7-0.9-1.1-1.4c-0.3-0.4-0.6-0.8-0.9-1.1c-9.6-12.4-17.1-26.1-22.5-40.7
			c-0.1-0.2-0.2-0.5-0.3-0.7c-0.1-0.2-0.2-0.4-0.3-0.7c-0.3-0.9-0.6-1.8-0.9-2.7l10.6-25.6l0.9-2.1l3.3-7.9
			c26.4,11.4,50.2,27.6,70.6,48c20.4,20.4,36.6,44.2,48,70.6L484.5,197.2z M363.6,80l-1,2.3l-10.6,25.6c-1.4,0.7-2.8,1.5-4.5,2.3
			c-0.2,0.1-0.4,0.2-0.5,0.2c-0.3,0.1-0.6,0.3-0.9,0.4c-14.2,6.6-29.2,10.9-44.7,12.9l-0.5,0.1c-0.9,0.1-1.8,0.2-2.7,0.3
			c-5.4,0.6-10.9,0.9-16.4,0.9s-11-0.3-16.4-0.9c-0.9-0.1-1.9-0.2-2.8-0.4l-0.5-0.1c-15.5-2-30.6-6.4-44.7-13l-0.5-0.2
			c-0.3-0.1-0.6-0.3-0.9-0.4c-0.9-0.4-1.7-0.9-2.6-1.3l-10.6-25.6l-4.1-10c26.7-10.6,54.9-16,83.8-16c29,0,57.2,5.4,83.9,16
			L363.6,80z M195.3,82.7l0.9,2.2l10.6,25.6c-0.5,1.6-1,3.2-1.6,4.8c-0.1,0.2-0.2,0.4-0.2,0.6c-0.1,0.3-0.2,0.5-0.3,0.8
			c-5.4,14.7-12.9,28.4-22.5,40.8l-0.2,0.3c-0.6,0.8-1.1,1.5-1.8,2.3c-6.9,8.5-14.6,16.3-23.1,23.2c-0.6,0.5-1.1,0.9-1.7,1.3
			c-0.3,0.2-0.6,0.4-0.9,0.7c-12.3,9.6-26,17.1-40.8,22.5l-0.4,0.1c-0.3,0.1-0.7,0.3-1,0.4c-0.9,0.3-1.8,0.6-2.7,0.9l-25.6-10.6
			l-2.1-0.9l-7.9-3.3c11.4-26.4,27.6-50.2,48-70.6c20.4-20.4,44.2-36.6,70.6-48L195.3,82.7z M78.1,203.6l2.2,0.9l25.6,10.6
			c0.8,1.5,1.5,3,2.3,4.6c0.1,0.2,0.2,0.4,0.3,0.6c0.1,0.3,0.3,0.6,0.4,0.8c6.6,14.2,10.9,29.2,12.9,44.7c0,0.4,0.1,0.8,0.2,1.2
			c0.1,0.7,0.2,1.4,0.3,2.1c1.2,10.9,1.2,21.9,0,32.8c-0.1,0.7-0.2,1.3-0.3,2.1c-0.1,0.4-0.1,0.8-0.2,1.2
			c-2,15.5-6.3,30.5-12.9,44.7c-0.1,0.2-0.1,0.3-0.2,0.5c-0.1,0.3-0.2,0.6-0.4,0.9c-0.4,0.8-0.8,1.7-1.3,2.6l-25.6,10.6l-2.2,0.9
			l-7.9,3.3c-10.6-26.7-16-54.9-16-83.9c0-29,5.4-57.2,16-83.8L78.1,203.6z M80.7,372l2.3-1l25.6-10.6c1.4,0.4,3.1,1,4.8,1.6
			c0.2,0.1,0.4,0.1,0.6,0.2c0.3,0.1,0.6,0.2,0.9,0.3c14.7,5.4,28.4,13,40.8,22.5c1,0.8,1.8,1.4,2.6,2c8.5,6.8,16.3,14.6,23.1,23.1
			c0.4,0.5,0.8,1,1.2,1.6c0.3,0.4,0.5,0.7,0.8,1.1c9.6,12.4,17.1,26.1,22.5,40.7c0.1,0.2,0.2,0.5,0.3,0.7c0.1,0.2,0.2,0.5,0.3,0.7
			c0.3,1,0.7,1.9,0.9,2.7l-10.6,25.6l-0.9,2.2l-3.3,7.9c-26.4-11.4-50.2-27.6-70.6-48c-20.4-20.4-36.6-44.2-48-70.6L80.7,372z
			 M201.6,489.2l0.9-2.2l10.6-25.6c1.4-0.7,2.9-1.5,4.5-2.3l1.4-0.6c14.2-6.6,29.3-10.9,44.7-12.9c0.5-0.1,1-0.1,1.4-0.2
			c0.6-0.1,1.2-0.2,1.8-0.2c5.4-0.6,10.9-0.9,16.4-0.9c5.4,0,11,0.3,16.3,0.9c0.6,0.1,1.2,0.2,1.8,0.2c0.5,0.1,1,0.1,1.5,0.2
			c15.5,2,30.5,6.3,44.7,12.9l1.4,0.6c0.9,0.4,1.7,0.9,2.6,1.3l10.6,25.6l0.9,2.2l3.2,7.8c-26.7,10.6-54.9,16-83.9,16
			c-29,0-57.2-5.4-83.8-15.9L201.6,489.2z M369.9,486.5l-0.9-2.2l-10.6-25.6c0.5-1.6,1-3.2,1.6-4.8c0.1-0.3,0.2-0.5,0.3-0.8
			c0.1-0.2,0.2-0.4,0.2-0.6c5.4-14.7,12.9-28.4,22.5-40.7c0.3-0.4,0.6-0.7,0.9-1.1c0.4-0.5,0.8-1,1.2-1.5c3.4-4.2,7.1-8.3,10.9-12.2
			c3.8-3.8,7.9-7.5,12.2-11c0.5-0.4,1.1-0.8,1.6-1.3c0.3-0.2,0.6-0.5,0.9-0.7c12.4-9.5,26.1-17.1,40.8-22.5l1.4-0.5
			c0.9-0.3,1.8-0.6,2.7-0.9l25.6,10.6l2.2,1l7.8,3.2c-11.4,26.4-27.6,50.1-48,70.6c-20.5,20.4-44.2,36.6-70.6,48L369.9,486.5z
			 M487.1,365.6l-2.2-0.9l-25.6-10.6c-0.8-1.5-1.5-3-2.3-4.6c-0.1-0.3-0.3-0.6-0.4-0.9l-0.2-0.5c-6.6-14.2-10.9-29.2-12.9-44.7
			c-0.2-1.2-0.3-2.2-0.4-3.2c-1.2-10.9-1.2-21.9,0-32.7c0.1-1,0.3-2,0.4-3.3c2-15.5,6.3-30.5,12.9-44.7c0.1-0.2,0.1-0.3,0.2-0.5
			c0.1-0.3,0.2-0.6,0.4-0.9c0.4-0.8,0.8-1.7,1.3-2.6l25.6-10.6l2.2-0.9l7.9-3.3c10.6,26.7,16,54.9,16,83.9c0,29-5.4,57.2-16,83.9
			L487.1,365.6z"/>
	</g>
	<line class="st3" x1="224" y1="261.4" x2="221.9" y2="260.6"/>
	<line class="st3" x1="225.7" y1="259.9" x2="223.6" y2="259"/>
	<line class="st3" x1="257.5" y1="226.8" x2="256.7" y2="224.6"/>
	<line class="st3" x1="259.8" y1="226.9" x2="258.9" y2="224.8"/>
	<line class="st3" x1="306.6" y1="223.9" x2="305.8" y2="226"/>
	<line class="st3" x1="308.2" y1="225.6" x2="307.2" y2="227.7"/>
	<line class="st3" x1="342.5" y1="258.6" x2="340.4" y2="259.5"/>
	<line class="st3" x1="342.4" y1="261" x2="340.3" y2="261.8"/>
	<line class="st3" x1="343.3" y1="308.7" x2="341.2" y2="307.7"/>
	<line class="st3" x1="341.6" y1="310.1" x2="339.5" y2="309.3"/>
	<line class="st3" x1="308.5" y1="344.5" x2="307.7" y2="342.4"/>
	<line class="st3" x1="306.2" y1="344.4" x2="305.3" y2="342.3"/>
	<line class="st3" x1="259.4" y1="343.2" x2="258.5" y2="345.3"/>
	<line class="st3" x1="224.9" y1="307.3" x2="222.8" y2="308.3"/>
	<line class="st3" x1="240.9" y1="186.8" x2="240.1" y2="184.6"/>
	<line class="st3" x1="243.2" y1="186.9" x2="242.3" y2="184.8"/>
	<line class="st3" x1="323.2" y1="183.9" x2="322.3" y2="186"/>
	<line class="st3" x1="324.7" y1="185.6" x2="323.9" y2="187.7"/>
	<line class="st3" x1="382.5" y1="242.1" x2="380.5" y2="243"/>
	<line class="st3" x1="382.4" y1="244.4" x2="380.2" y2="245.3"/>
	<line class="st3" x1="383.3" y1="325.2" x2="381.2" y2="324.4"/>
	<line class="st3" x1="381.6" y1="326.7" x2="379.5" y2="325.9"/>
	<line class="st3" x1="325.1" y1="384.6" x2="324.2" y2="382.4"/>
	<line class="st3" x1="322.8" y1="384.4" x2="321.9" y2="382.3"/>
	<line class="st3" x1="242.8" y1="383.3" x2="241.9" y2="385.4"/>
	<line class="st3" x1="241.3" y1="381.5" x2="240.5" y2="383.7"/>
	<line class="st3" x1="184.8" y1="326.2" x2="182.6" y2="327.1"/>
	<line class="st3" x1="184.8" y1="324" x2="182.7" y2="324.9"/>
	<line class="st3" x1="183.9" y1="244.9" x2="181.8" y2="244"/>
	<line class="st3" x1="185.7" y1="243.3" x2="183.5" y2="242.5"/>
	<line class="st3" x1="224.4" y1="141.4" x2="223.4" y2="139.2"/>
	<line class="st3" x1="222" y1="141.1" x2="221.1" y2="138.9"/>
	<line class="st3" x1="342.1" y1="138.2" x2="341.2" y2="140.4"/>
	<line class="st3" x1="343.6" y1="139.9" x2="342.7" y2="142.1"/>
	<line class="st3" x1="428.3" y1="223.1" x2="426.1" y2="224"/>
	<line class="st3" x1="428" y1="225.4" x2="425.8" y2="226.4"/>
	<line class="st3" x1="429" y1="344.2" x2="426.8" y2="343.3"/>
	<line class="st3" x1="427.3" y1="345.6" x2="425.1" y2="344.7"/>
	<line class="st3" x1="344" y1="430.3" x2="343.1" y2="428.1"/>
	<line class="st3" x1="341.7" y1="430.1" x2="340.8" y2="427.8"/>
	<line class="st3" x1="223.9" y1="428.8" x2="223" y2="431"/>
	<line class="st3" x1="222.4" y1="427.1" x2="221.5" y2="429.3"/>
	<line class="st3" x1="139.1" y1="345.1" x2="136.9" y2="346"/>
	<line class="st3" x1="139.3" y1="342.8" x2="137.2" y2="343.7"/>
	<line class="st3" x1="138.4" y1="225.9" x2="136.2" y2="225"/>
	<line class="st3" x1="140.1" y1="224.5" x2="137.9" y2="223.5"/>
	<line class="st3" x1="81.2" y1="202.3" x2="79" y2="201.4"/>
	<line class="st3" x1="82.9" y1="200.8" x2="80.7" y2="199.9"/>
	<line class="st3" x1="198.4" y1="83.9" x2="197.5" y2="81.8"/>
	<line class="st3" x1="200.7" y1="84.1" x2="199.8" y2="82"/>
	<line class="st3" x1="365.8" y1="81" x2="364.9" y2="83.2"/>
	<line class="st3" x1="367.3" y1="82.7" x2="366.3" y2="84.9"/>
	<line class="st3" x1="485.4" y1="199.4" x2="483.2" y2="200.4"/>
	<line class="st3" x1="485.2" y1="201.8" x2="483" y2="202.7"/>
	<line class="st3" x1="486.2" y1="367.8" x2="484" y2="366.9"/>
	<line class="st3" x1="484.4" y1="369.3" x2="482.3" y2="368.4"/>
	<line class="st3" x1="367.7" y1="487.4" x2="366.8" y2="485.2"/>
	<line class="st3" x1="365.4" y1="487.2" x2="364.5" y2="485"/>
	<line class="st3" x1="200.3" y1="486" x2="199.4" y2="488.3"/>
	<line class="st3" x1="198.8" y1="484.3" x2="197.9" y2="486.5"/>
	<line class="st3" x1="82" y1="368.8" x2="79.7" y2="369.8"/>
	<line class="st3" x1="82.1" y1="366.5" x2="80" y2="367.4"/>
</g>
</svg>
