<?xml version="1.0" encoding="utf-8"?>
<!-- Generator: Adobe Illustrator 26.1.0, SVG Export Plug-In . SVG Version: 6.00 Build 0)  -->
<svg version="1.1" id="Layer_1" xmlns="http://www.w3.org/2000/svg" xmlns:xlink="http://www.w3.org/1999/xlink" x="0px" y="0px"
	 viewBox="0 0 864 864" enable-background="new 0 0 864 864" xml:space="preserve">
<g>
	<g>
		<path fill="#00A7E1" d="M155.2,633.2c-3.8,0-7.6-1.8-9.9-5.2c-39.6-57.8-60.6-125.6-60.6-196c0-95.8,40.2-188.3,110.2-253.8
			c4.8-4.5,12.4-4.3,16.9,0.6c4.5,4.8,4.3,12.4-0.6,16.9C146.1,256.7,108.7,342.8,108.7,432c0,65.5,19.5,128.6,56.4,182.4
			c3.7,5.5,2.3,12.9-3.1,16.7C159.9,632.5,157.5,633.2,155.2,633.2z"/>
	</g>
</g>
<g>
	<g>
		<path fill="#00A7E1" d="M708.7,633.3c-2.3,0-4.7-0.7-6.8-2.1c-5.5-3.7-6.9-11.2-3.1-16.7c36.9-53.9,56.4-117,56.4-182.5
			c0-89.4-37.6-175.7-103-236.6c-4.8-4.5-5.1-12.1-0.6-16.9c4.5-4.8,12.1-5.1,16.9-0.6c70.3,65.5,110.7,158.1,110.7,254.2
			c0,70.4-21,138.2-60.6,196.1C716.3,631.5,712.6,633.3,708.7,633.3z"/>
	</g>
</g>
<g>
	<g>
		<path fill="#323E48" d="M432,864C193.8,864,0,670.2,0,432C0,193.8,193.8,0,432,0c238.2,0,432,193.8,432,432
			C864,670.2,670.2,864,432,864z M432,22.4C206.1,22.4,22.4,206.1,22.4,432S206.1,841.6,432,841.6S841.6,657.9,841.6,432
			S657.9,22.4,432,22.4z"/>
	</g>
</g>
<g>
	<g>
		<path fill="#323E48" d="M224.8,689l-9.5,10.7c-5.1,5.7-12.9,5.5-20.1-0.8l-11.7-10.4l26.4-29.7l11.7,10.4
			C228.7,675.5,229.9,683.3,224.8,689z M218.1,683.6c2.1-2.4,1.7-5.5-1.2-8.1l-5.6-5l-16,18l5.6,5c3,2.7,6.1,2.7,8.3,0.3
			L218.1,683.6z"/>
		<path fill="#323E48" d="M242,695.6l-5,7.1l12,8.5l-4.5,6.4l-12-8.5l-4.4,6.2L242,725l-4.5,6.4l-20.9-14.8l22.9-32.4l20.9,14.8
			l-4.5,6.4L242,695.6z"/>
		<path fill="#323E48" d="M272.6,742.8l-3.9,6.8l-22.6-12.8l19.6-34.6l7.5,4.3l-15.7,27.7L272.6,742.8z"/>
		<path fill="#323E48" d="M291.9,716.6l7.8,3.7l-17.1,35.8l-7.8-3.7L291.9,716.6z"/>
		<path fill="#323E48" d="M335.1,734.4l-23.9,33.4l-11.7-4.4l4.3-40.9l8.3,3.1l-3,30.2l17.9-24.5L335.1,734.4z"/>
		<path fill="#323E48" d="M347.5,745.8l-2.2,8.4l14.2,3.7l-1.9,7.6l-14.2-3.7l-1.9,7.3l16.4,4.2l-1.9,7.6l-24.8-6.4l9.9-38.5
			l24.8,6.4l-1.9,7.6L347.5,745.8z"/>
		<path fill="#323E48" d="M384.5,771.2l-6.9-1l-2,14.2l-8.6-1.2l5.6-39.3l16.6,2.4c7.8,1.1,12.3,6.3,11.3,13.2l-0.3,2.4
			c-0.6,4.4-3.2,7.5-6.9,8.8l3.8,16.7l-8.9-1.3L384.5,771.2z M378.7,762.5l8.5,1.2c2.3,0.3,3.9-0.6,4.2-2.7l0.5-3.2
			c0.3-2-1-3.4-3.3-3.7l-8.6-1.2L378.7,762.5z"/>
		<path fill="#323E48" d="M426.8,775.5l-0.4,13.3l-8.7-0.2l0.4-13.2l-11.7-26.8l9.4,0.3l7,16.5l7.8-16.1l9.3,0.3L426.8,775.5z"/>
		<path fill="#323E48" d="M461.1,775.6l-0.2-1.4l8.6-1.1l0.3,1.9c0.4,3,4.1,4.4,8.1,3.9c2.9-0.4,6.1-2.1,5.7-5.2
			c-1-7.4-21.9-0.2-23.7-14.4c-0.8-6.4,2.8-12.4,13.1-13.7c10-1.3,15.5,3.1,16.4,10.1l0.2,1.8l-8.6,1.1l-0.3-2.1
			c-0.3-2.4-3.3-3.6-6.9-3.2c-3.2,0.4-5.7,2-5.3,4.6c0.8,5.8,21.8-0.1,23.7,14.2c0.9,7-3.7,13.2-13.5,14.4
			C468.7,787.9,462.1,783.3,461.1,775.6z"/>
		<path fill="#323E48" d="M523.6,744.2l-10.3,2.5l7.5,31l-8.4,2.1l-7.5-31l-10.4,2.5l-1.9-7.6l29.1-7.1L523.6,744.2z"/>
		<path fill="#323E48" d="M555.6,759.4l-12.5,4.5l0.4,7.3l-8,2.9l-2.9-41.1l11.6-4.1l23.7,33.7l-8.1,2.9L555.6,759.4z M541.4,739.3
			l1.1,16.4l8.3-3L541.4,739.3z"/>
		<path fill="#323E48" d="M585.3,718.9l-9.5,4.6l13.7,28.8l-7.8,3.7l-13.7-28.8l-9.6,4.6l-3.4-7.1l27-12.9L585.3,718.9z"/>
		<path fill="#323E48" d="M585.1,709.8l7.5-4.3l19.7,34.5l-7.5,4.3L585.1,709.8z"/>
		<path fill="#323E48" d="M613.9,725.5l-9.1-13.2c-4.3-6.3-2.2-13.9,6.2-19.7c8.4-5.8,16.2-5,20.6,1.3l9.1,13.2
			c4.3,6.3,2.3,13.9-6.1,19.6C626.2,732.5,618.3,731.8,613.9,725.5z M633.3,711.7l-8.6-12.5c-1.8-2.6-4.9-3-9.2-0.1
			c-4.3,3-5.1,6-3.3,8.6l8.6,12.5c1.8,2.6,4.9,3,9.2,0.1C634.4,717.4,635.1,714.4,633.3,711.7z"/>
		<path fill="#323E48" d="M653.7,659.2l26.4,29.7l-6,5.3l-26-8.8l15.8,17.8l-6,5.3L631.4,679l6-5.3l26.1,8.8l-15.9-17.9L653.7,659.2
			z"/>
	</g>
	<g>
		<path fill="#323E48" d="M336.1,107.9l10.7,26.6c5.7,14.2-1.7,28.1-19.4,35.1l-29.1,11.7l-29.6-73.7L297.7,96
			C315.4,88.9,330.4,93.7,336.1,107.9z M320.3,115.1c-2.4-5.9-8.3-8-15.6-5l-14,5.6l17.9,44.6l13.9-5.6c7.5-3,10.3-8.6,7.9-14.5
			L320.3,115.1z"/>
		<path fill="#323E48" d="M426.3,132.7l1.7,15.6l-51.7,5.8l-8.9-78.9l17.2-1.9l7.1,63.3L426.3,132.7z"/>
		<path fill="#323E48" d="M502.1,91.6l-21-2.4l-7.4,63.3l-17.2-2l7.4-63.3l-21.2-2.5l1.8-15.5l59.4,6.9L502.1,91.6z"/>
		<path fill="#323E48" d="M575.7,157.6l-2.5,6.1c-4.8,11.7-19.1,14.8-35.4,8.2c-16.6-6.7-24.6-19-19.9-30.7l2.5-6.1
			c2.2-5.5,6.5-9.1,12.1-10.7c-2.6-4.7-3-9.9-0.9-15l2.1-5.2c4.9-12.1,19-15.7,35.2-9.1c16.1,6.5,23.7,18.9,18.8,31l-2.1,5.2
			c-2.1,5.1-6,8.5-11.1,10.1C577.4,146.6,577.9,152.1,575.7,157.6z M559.8,150.8c1.7-4.2-1.4-8.7-8.7-11.6c-7.4-3-12.8-2.1-14.5,2.2
			l-2.5,6.1c-1.6,3.8,1.7,7.9,9.1,10.9c7.4,3,12.6,2.3,14.1-1.5L559.8,150.8z M555.9,127.1c6.9,2.8,11.8,2,13.4-1.8l2.1-5.3
			c1.7-4.2-1.1-8.5-7.9-11.3c-6.9-2.8-12.2-1.8-13.9,2.4l-2.1,5.3C545.9,120.2,548.9,124.3,555.9,127.1z"/>
	</g>
</g>
<g>
	<g>
		<path fill="#00A7E1" d="M358,237.7c0,0,0,0.1,0,0.1c0,0.1,0.1,0.1,0.2,0.2c0.2,0.3,0.3,0.7,0.6,1l70,74.3c0.1,0.1,0.2,0.1,0.2,0.2
			c0.3,0.3,0.6,0.5,1,0.7c0.1,0.1,0.3,0.2,0.4,0.2c0.5,0.2,1,0.3,1.6,0.3c0.6,0,1.1-0.1,1.6-0.3c0.1-0.1,0.3-0.1,0.4-0.2
			c0.4-0.2,0.7-0.4,1-0.7c0.1-0.1,0.2-0.1,0.2-0.2l70-74.3c0.3-0.3,0.4-0.7,0.6-1c0-0.1,0.2-0.1,0.2-0.2c0,0,0-0.1,0-0.1
			c0.3-0.7,0.4-1.4,0.3-2.2c0-0.2-0.1-0.3-0.1-0.5c-0.1-0.6-0.4-1.1-0.8-1.7c-0.1-0.1-0.1-0.2-0.2-0.3L482,206.6c0,0-0.1,0-0.1-0.1
			c-0.8-0.9-1.9-1.4-3.2-1.4h-93.3c-1.3,0-2.4,0.6-3.2,1.4c0,0-0.1,0-0.1,0.1L358.7,233c-0.1,0.1-0.1,0.2-0.2,0.3
			c-0.4,0.5-0.6,1.1-0.8,1.7c0,0.2-0.1,0.3-0.1,0.5C357.6,236.3,357.7,237,358,237.7z M449.3,240.4l-17.3,55l-17.3-55H449.3z
			 M418.5,231.5l13.5-15.3l13.5,15.3H418.5z M458.6,240.4h33.1l-49.6,52.7L458.6,240.4z M455.3,229.2L441.9,214h26.9L455.3,229.2z
			 M408.7,229.2L395.2,214h26.9L408.7,229.2z M405.4,240.4l16.5,52.7l-49.6-52.7H405.4z M465.2,231.5l13.5-15.3l13.5,15.3H465.2z
			 M385.3,216.3l13.5,15.3h-26.9L385.3,216.3z"/>
	</g>
	<g>
		<path fill="#323E48" d="M514.8,584.9l47.4,0.3c0,0,0.1,0,0.1,0c4.2,0,8.2-2.2,10.4-5.8c8.7-14.2,83.8-140.2,47.9-198.4
			c-11.9-19.3-33.7-28.6-64.6-27.7c-2.9-5.7-6.3-11.1-10.6-15.7c-22.4-24.2-60.5-27.4-113.2-9.8c-52.7-17.6-90.8-14.4-113.3,9.8
			c-4.3,4.6-7.8,9.9-10.6,15.7c-30.9-0.9-52.7,8.4-64.6,27.7c-35.9,58.2,39.2,184.3,47.9,198.4c2.2,3.6,6.1,5.8,10.4,5.8
			c0,0,0.1,0,0.1,0l47.4-0.3l5,0l77.8-0.5l77.8,0.5L514.8,584.9z M599.8,393.7c22.6,36.7-21.6,128-44.4,167.1l-24.5-0.2
			c14.9-37.7,44.6-123.7,33.1-183.1C581.5,378.3,593.6,383.6,599.8,393.7z M527.4,354.1c35.9,38.7-1.7,155.5-22.7,206.4l-60.5-0.4
			l0-210.8C484.6,336.5,512.6,338.1,527.4,354.1z M419.8,349.3v210.8l-60.5,0.4c-21-50.9-58.6-167.7-22.7-206.4
			C351.4,338.1,379.4,336.5,419.8,349.3z M264.2,393.7c6.2-10.1,18.3-15.4,35.9-16.1c-11.6,59.4,18.2,145.4,33.1,183.1l-24.5,0.2
			C285.8,521.7,241.6,430.4,264.2,393.7z"/>
	</g>
	<g>
		<path fill="#323E48" d="M596.9,604H271.5c-6.7,0-12.2,5.4-12.2,12.2c0,6.7,5.4,12.2,12.2,12.2h325.4c6.7,0,12.2-5.4,12.2-12.2
			C609.1,609.4,603.7,604,596.9,604z"/>
	</g>
</g>
</svg>
