<?xml version="1.0" encoding="utf-8"?>
<!-- Generator: Adobe Illustrator 26.1.0, SVG Export Plug-In . SVG Version: 6.00 Build 0)  -->
<svg version="1.1" id="Layer_1" xmlns="http://www.w3.org/2000/svg" xmlns:xlink="http://www.w3.org/1999/xlink" x="0px" y="0px"
	 viewBox="0 0 172 171" enable-background="new 0 0 172 171" xml:space="preserve">
<g>
	<path fill="#2B92F9" d="M172,43.2c0-10.5-8.5-19-19-19h-18.2c0.5-1.6,0.7-3.4,0.7-5.2c0-10.5-8.5-19-19-19H77.4
		c-6.5,0-11.8,5.3-11.8,11.8v0.3H43.2c-10.5,0-19,8.5-19,19c0,1.8,0.3,3.6,0.8,5.3c-9.4,1.1-16.7,9.1-16.7,18.9c0,10.5,8.5,19,19,19
		h9.8c-0.5,1.6-0.7,3.4-0.7,5.1c0,1.8,0.3,3.5,0.7,5.1H19c-10.5,0-19,8.5-19,19s8.5,19,19,19h46.6v0.3c0,6.5,5.3,11.8,11.8,11.8
		h31.1c2.3,0,4.5-0.4,6.5-1.2c7.3-2.7,12.5-9.7,12.5-17.9c0-1.8-0.3-3.5-0.7-5.1h14.2c10.5,0,19-8.5,19-19c0-10.5-8.5-19-19-19
		h-22.3c0.5-1.6,0.7-3.4,0.7-5.2c0-1.8-0.3-3.5-0.7-5.1H153C163.5,62.2,172,53.6,172,43.2z M27.3,51.8c-1.9,0-3.4,1.5-3.4,3.4
		c0,1.9,1.5,3.4,3.4,3.4h73.1c4.8,0,8.6,3.9,8.6,8.6c0,4.8-3.9,8.6-8.6,8.6h-45c-1.9,0-3.4,1.5-3.4,3.4c0,1.9,1.5,3.5,3.4,3.5h85.6
		c4.8,0,8.6,3.9,8.6,8.6c0,4.8-3.9,8.6-8.6,8.6H19c-1.9,0-3.4,1.5-3.4,3.5c0,1.9,1.5,3.4,3.4,3.4h89.4c4.8,0,8.6,3.9,8.6,8.6
		c0,4.8-3.9,8.6-8.6,8.6H80c-1.4,0-2.6-1.2-2.6-2.6c0-1.4,1.2-2.6,2.6-2.6h28.5c1.9,0,3.4-1.5,3.4-3.5c0-1.9-1.5-3.4-3.4-3.4H19
		c-4.8,0-8.6-3.9-8.6-8.6c0-4.8,3.9-8.6,8.6-8.6h121.9c1.9,0,3.4-1.5,3.4-3.4c0-1.9-1.5-3.4-3.4-3.4H55.3c-4.8,0-8.6-3.9-8.6-8.6
		c0-4.8,3.9-8.6,8.6-8.6h45c1.9,0,3.5-1.5,3.5-3.4c0-1.9-1.5-3.4-3.5-3.4H27.3c-4.8,0-8.6-3.9-8.6-8.6c0-4.8,3.9-8.6,8.6-8.6H153
		c1.9,0,3.4-1.5,3.4-3.4c0-1.9-1.5-3.4-3.4-3.4H43.2c-4.8,0-8.6-3.9-8.6-8.6c0-4.8,3.9-8.6,8.6-8.6h73.2c1.9,0,3.4-1.5,3.4-3.4
		c0-1.9-1.5-3.4-3.4-3.4H80c-1.4,0-2.6-1.2-2.6-2.6s1.2-2.6,2.6-2.6h36.5c4.8,0,8.6,3.9,8.6,8.6c0,4.8-3.9,8.6-8.6,8.6H43.2
		c-1.9,0-3.4,1.5-3.4,3.4c0,1.9,1.5,3.4,3.4,3.4H153c4.8,0,8.6,3.9,8.6,8.6c0,4.8-3.9,8.6-8.6,8.6H27.3z"/>
	<g>
		<path fill="#2B92F9" d="M35.1,154.6c0,0.4,0,0.9-0.1,1.4l-1.4,9c-0.1,0.4-0.3,0.6-0.7,0.6h-1.9c-0.5,0-0.7-0.3-0.6-0.8l1.4-8.8
			c0.1-0.3,0.1-0.7,0.1-0.9c0-1.4-0.7-2.1-2.1-2.1c-1.6,0-2.6,1-2.9,3.1l-1.4,8.9c-0.1,0.4-0.3,0.6-0.7,0.6h-1.9
			c-0.5,0-0.7-0.3-0.6-0.8l3.2-19.9c0.1-0.4,0.3-0.6,0.7-0.6h1.9c0.5,0,0.7,0.3,0.6,0.8l-1,6.1h0.1c0.8-0.7,1.8-1,3.1-1
			C33.5,150.3,35.1,151.9,35.1,154.6z"/>
		<path fill="#2B92F9" d="M50.1,150.7c0.5,0,0.7,0.3,0.6,0.8l-2.2,14.1c-0.5,3.5-2.9,5.4-6.5,5.4c-2.1,0-3.8-0.6-5-1.6
			c-0.3-0.3-0.3-0.6-0.1-1l0.9-1.2c0.3-0.4,0.6-0.4,1-0.1c0.9,0.7,1.9,1,3.1,1c1.9,0,2.9-1,3.2-2.8l0.1-0.8h-0.1
			c-0.8,0.7-1.8,1.1-3.1,1.1c-2.9,0-4.5-1.6-4.5-4.4c0-0.4,0-0.9,0.1-1.4l1.3-8.5c0.1-0.4,0.3-0.6,0.7-0.6h1.9
			c0.5,0,0.7,0.3,0.6,0.8l-1.3,8.3c-0.1,0.3-0.1,0.6-0.1,0.9c0,1.5,0.7,2.1,2.2,2.1c1.6,0,2.6-1,2.9-3.1l1.3-8.3
			c0.1-0.4,0.3-0.6,0.7-0.6H50.1z"/>
		<path fill="#2B92F9" d="M65.4,155c0,0.4,0,0.8-0.1,1.2l-0.7,4.3c-0.6,3.7-2.6,5.6-6,5.6c-1.4,0-2.5-0.5-3.1-1.3h-0.1l-0.8,5.2
			c-0.1,0.4-0.3,0.6-0.7,0.6H52c-0.5,0-0.7-0.3-0.6-0.8l2.2-13.9c0.6-3.7,2.7-5.6,6.5-5.6C63.4,150.3,65.4,152,65.4,155z M62,156.3
			c0.1-0.3,0.1-0.7,0.1-0.9c0-1.5-0.7-2.2-2.2-2.2c-1.8,0-2.7,1-3.1,3.2l-0.6,3.8c-0.1,0.3-0.1,0.6-0.1,0.9c0,1.5,0.8,2.2,2.2,2.2
			c1.8,0,2.7-1,3-3.2L62,156.3z"/>
		<path fill="#2B92F9" d="M79.7,155c0,0.4,0,0.8-0.1,1.2l-0.4,2.4c-0.1,0.4-0.3,0.6-0.7,0.6h-7.7l-0.1,0.6c-0.1,0.4-0.1,0.7-0.1,1
			c0,1.7,0.9,2.4,2.7,2.4c1,0,1.9-0.4,2.7-1.1c0.4-0.3,0.7-0.3,1,0.1l0.8,1.2c0.2,0.4,0.2,0.7-0.2,1c-1.3,1.1-2.9,1.6-4.6,1.6
			c-3.7,0-5.8-1.6-5.8-4.8c0-0.4,0-0.8,0.1-1.3l0.6-4c0.6-3.7,2.7-5.6,6.3-5.6C77.7,150.3,79.7,152,79.7,155z M71.2,156.3l-0.1,0.4
			h5.2l0.1-0.5c0.1-0.4,0.1-0.7,0.1-1c0-1.5-0.7-2.2-2.2-2.2C72.5,153.2,71.6,154.2,71.2,156.3z"/>
		<path fill="#2B92F9" d="M82.3,155.9c0.6-3.7,2.5-5.6,5.9-5.6c1.4,0,2.6,0.3,3.5,0.9c0.4,0.2,0.4,0.6,0.2,1l-0.8,1.3
			c-0.3,0.4-0.6,0.4-1,0.2c-0.5-0.3-1.1-0.5-1.7-0.5c-1.5,0-2.4,0.9-2.7,2.8l-1.5,9.2c-0.1,0.4-0.3,0.6-0.7,0.6h-1.9
			c-0.5,0-0.7-0.3-0.6-0.8L82.3,155.9z"/>
		<path fill="#2B92F9" d="M104.6,155c0,0.4-0.1,0.8-0.1,1.2l-1.5,9.4c-0.5,3.5-2.8,5.4-6.5,5.4c-2,0-3.8-0.6-4.9-1.6
			c-0.3-0.3-0.3-0.6-0.1-1l0.9-1.2c0.3-0.4,0.6-0.4,1-0.1c0.9,0.7,1.9,1,3.1,1c1.9,0,2.9-1,3.2-2.8l0.1-0.7h-0.1
			c-0.8,0.7-1.7,1-2.9,1c-3.1,0-4.8-1.6-4.8-4.5c0-0.4,0-0.9,0.1-1.4l0.6-3.7c0.6-3.7,2.7-5.6,6.5-5.6
			C102.6,150.3,104.6,152,104.6,155z M101.2,156.3c0.1-0.3,0.1-0.7,0.1-0.9c0-1.5-0.7-2.2-2.2-2.2c-1.8,0-2.7,1-3,3.2l-0.5,3.2
			c-0.1,0.3-0.1,0.7-0.1,0.9c0,1.5,0.7,2.2,2.2,2.2c1.7,0,2.7-1.1,3-3.2L101.2,156.3z"/>
		<path fill="#2B92F9" d="M107.3,165.8c-0.5,0-0.7-0.3-0.6-0.8l3.2-19.9c0.1-0.4,0.3-0.6,0.7-0.6h1.9c0.5,0,0.7,0.3,0.6,0.8
			l-3.2,19.9c-0.1,0.4-0.3,0.6-0.7,0.6H107.3z"/>
		<path fill="#2B92F9" d="M114.3,165.8c-0.5,0-0.7-0.3-0.6-0.8l2.2-13.7c0.1-0.4,0.3-0.6,0.7-0.6h1.9c0.5,0,0.7,0.3,0.6,0.8
			l-2.2,13.7c-0.1,0.4-0.3,0.6-0.7,0.6H114.3z M116.3,146.4c0-1.2,0.9-2.1,2.1-2.1c1.1,0,1.9,0.7,1.9,1.8c0,1.2-0.9,2.1-2.1,2.1
			C117,148.2,116.3,147.4,116.3,146.4z"/>
		<path fill="#2B92F9" d="M134.4,144.5c0.5,0,0.7,0.3,0.6,0.8l-2.4,15.2c-0.6,3.7-2.8,5.6-6.5,5.6c-3.5,0-5.4-1.7-5.4-4.6
			c0-0.4,0.1-0.8,0.1-1.2l0.7-4.3c0.6-3.7,2.6-5.6,6-5.6c1.4,0,2.5,0.5,3.1,1.3h0.1l1.1-6.5c0.1-0.4,0.3-0.6,0.7-0.6H134.4z
			 M130,156.3c0.1-0.3,0.1-0.6,0.1-0.9c0-1.5-0.7-2.3-2.2-2.3c-1.8,0-2.8,1-3.1,3.2l-0.6,3.8c-0.1,0.3-0.1,0.7-0.1,0.9
			c0,1.5,0.7,2.2,2.2,2.2c1.8,0,2.7-1,3.1-3.2L130,156.3z"/>
		<path fill="#2B92F9" d="M148,155c0,0.4,0,0.8-0.1,1.2l-0.4,2.4c-0.1,0.4-0.3,0.6-0.7,0.6h-7.7l-0.1,0.6c-0.1,0.4-0.1,0.7-0.1,1
			c0,1.7,0.9,2.4,2.7,2.4c1,0,1.9-0.4,2.7-1.1c0.4-0.3,0.7-0.3,1,0.1l0.8,1.2c0.2,0.4,0.2,0.7-0.2,1c-1.3,1.1-2.9,1.6-4.6,1.6
			c-3.7,0-5.8-1.6-5.8-4.8c0-0.4,0-0.8,0.1-1.3l0.6-4c0.6-3.7,2.7-5.6,6.3-5.6C146.1,150.3,148,152,148,155z M139.6,156.3l-0.1,0.4
			h5.2l0.1-0.5c0.1-0.4,0.1-0.7,0.1-1c0-1.5-0.7-2.2-2.2-2.2C140.9,153.2,140,154.2,139.6,156.3z"/>
	</g>
</g>
</svg>
