<?xml version="1.0" encoding="utf-8"?>
<!-- Generator: Adobe Illustrator 26.1.0, SVG Export Plug-In . SVG Version: 6.00 Build 0)  -->
<svg version="1.1" id="Layer_1" xmlns="http://www.w3.org/2000/svg" xmlns:xlink="http://www.w3.org/1999/xlink" x="0px" y="0px"
	 viewBox="0 0 165.8 169.2" style="enable-background:new 0 0 165.8 169.2;" xml:space="preserve">
<style type="text/css">
	.st0{fill:#2A3133;}
	.st1{fill:#B7E2E9;}
	.st2{fill:#B3E1E8;}
	.st3{fill:#00ADEE;}
	.st4{fill:#231F20;}
	.st5{fill:#00A69C;}
	.st6{fill:#2A3132;}
	.st7{fill:none;stroke:#FBF9D9;stroke-width:5;stroke-miterlimit:10;}
	.st8{fill:none;stroke:#FBF9D9;stroke-width:5;stroke-linecap:round;stroke-miterlimit:10;}
	.st9{fill:none;stroke:#231F20;stroke-width:5;stroke-miterlimit:10;}
	.st10{fill:none;stroke:#231F20;stroke-width:5;stroke-linecap:round;stroke-miterlimit:10;}
	.st11{fill:none;stroke:#231F20;stroke-width:4.8791;stroke-miterlimit:10;}
	.st12{fill:none;stroke:#231F20;stroke-width:4.8791;stroke-linecap:round;stroke-miterlimit:10;}
	.st13{fill:none;stroke:#231F20;stroke-width:5.007;stroke-miterlimit:10;}
	.st14{fill:url(#SVGID_1_);}
	.st15{fill:url(#SVGID_00000011001462347817659070000001600816418760698296_);}
	.st16{fill:url(#SVGID_00000013895337716955183510000016422612362398263200_);}
	.st17{fill:url(#SVGID_00000104702760225621471860000013875240673821382019_);}
	.st18{fill:#FBF9DA;}
	.st19{fill:#B4E1E9;}
	.st20{fill:url(#SVGID_00000116948231922325555910000009545608396941099164_);}
	.st21{fill:url(#SVGID_00000035523295731130859870000001476969356471031477_);}
	.st22{fill:url(#SVGID_00000077292891867002969790000011894570972791516845_);}
	.st23{fill:#BBD532;}
	.st24{fill:#EC297B;}
	.st25{fill:#EF4142;stroke:#FFFFFF;stroke-width:5;stroke-miterlimit:10;}
	.st26{fill:#FFC520;stroke:#FFFFFF;stroke-width:5;stroke-miterlimit:10;}
	.st27{fill:#FBF173;stroke:#FFFFFF;stroke-width:5;stroke-miterlimit:10;}
	.st28{fill:#F9414B;stroke:#FFFFFF;stroke-width:5;stroke-miterlimit:10;}
	.st29{fill:#B32DF9;stroke:#FFFFFF;stroke-width:5;stroke-miterlimit:10;}
	.st30{fill:#F95886;stroke:#FFFFFF;stroke-width:5;stroke-miterlimit:10;}
	.st31{fill:#37F7AD;stroke:#FFFFFF;stroke-width:5;stroke-miterlimit:10;}
	.st32{fill:#A8F70F;stroke:#FFFFFF;stroke-width:5;stroke-miterlimit:10;}
	.st33{fill:#00FFFF;stroke:#FFFFFF;stroke-width:5;stroke-miterlimit:10;}
	.st34{fill:#9453A1;stroke:#FFFFFF;stroke-width:5;stroke-miterlimit:10;}
	.st35{fill:#75CCD1;stroke:#FFFFFF;stroke-width:5;stroke-miterlimit:10;}
	.st36{fill:#6C6FB4;stroke:#FFFFFF;stroke-width:5;stroke-miterlimit:10;}
	.st37{fill:#0FE8A5;stroke:#FFFFFF;stroke-width:5;stroke-miterlimit:10;}
	.st38{fill:#2B92F9;stroke:#FFFFFF;stroke-width:5;stroke-miterlimit:10;}
	.st39{fill:#6BF7EC;stroke:#FFFFFF;stroke-width:5;stroke-miterlimit:10;}
	.st40{fill:url(#SVGID_00000150096774621488215130000018080772424178657202_);}
	.st41{fill:url(#SVGID_00000047758028192136084090000007455398757960369078_);}
	.st42{fill:url(#SVGID_00000016779241452370769140000012926285895125880463_);}
	.st43{fill:url(#SVGID_00000170978897208332046700000008443129276840245157_);}
	.st44{fill:url(#SVGID_00000080193881728247344510000000770522645005967807_);}
	.st45{fill:url(#SVGID_00000090256750577584798110000013359192988742445221_);}
	.st46{fill:url(#SVGID_00000049944825030243255700000008698070002567329957_);}
	.st47{fill:url(#SVGID_00000073682255766267963920000013281161591512630405_);}
	.st48{fill:url(#SVGID_00000064314625566864301870000017433738534156775297_);}
	.st49{fill:#EF4142;}
	.st50{fill:url(#SVGID_00000116231596665760493080000010074309695463108278_);}
	.st51{fill:url(#SVGID_00000165230552760998358410000012858230343952127895_);}
	.st52{font-family:'Kiro-BoldItalic';}
	.st53{font-size:29.2722px;}
	.st54{fill:#FFFFFF;}
	.st55{fill:#F9414B;}
	.st56{fill:url(#SVGID_00000115500848923792166870000017114125300067129474_);}
	.st57{fill:url(#SVGID_00000139991231189638908520000008160933383735926441_);}
	.st58{fill:url(#SVGID_00000115484950010321734390000004951910837297581450_);}
	.st59{fill:url(#SVGID_00000018215147457414056450000004662545541641954726_);}
	.st60{fill:url(#SVGID_00000123405036898439037620000017360013161287031224_);}
	.st61{fill:url(#SVGID_00000127725940700005440660000006845946569050766011_);}
	.st62{fill:url(#SVGID_00000075876922514733757740000003943200344728112543_);}
	.st63{fill:url(#SVGID_00000015313581051364560000000017312342216803339450_);}
	.st64{fill:url(#SVGID_00000072280117218764472330000012991308963767243155_);}
	.st65{fill:url(#SVGID_00000047040468117152985400000017091566502276708252_);}
	.st66{fill:url(#SVGID_00000181063675281691049110000013701085953306556333_);}
	.st67{fill:url(#SVGID_00000027574286586078741990000009821493468908612542_);}
	.st68{fill:#37F7AD;}
	.st69{fill:url(#SVGID_00000086651183183390743680000006628170741901342655_);}
	.st70{fill:#0FE8A5;}
	.st71{fill:url(#SVGID_00000105387077798402173550000009699151702237070767_);}
	.st72{fill:#A8F70F;}
	.st73{fill:url(#SVGID_00000055702857343948428160000010820644573884260771_);}
	.st74{fill:url(#SVGID_00000049918659238397416000000009839869639818603703_);}
	.st75{fill:url(#SVGID_00000049911473383198830410000016097290689341869994_);}
</style>
<linearGradient id="SVGID_1_" gradientUnits="userSpaceOnUse" x1="82.91" y1="-14.0437" x2="82.91" y2="141.1162">
	<stop  offset="0" style="stop-color:#B32DF9"/>
	<stop  offset="0.4864" style="stop-color:#F9414B"/>
	<stop  offset="1" style="stop-color:#F95886"/>
</linearGradient>
<path class="st14" d="M147.5,59.9h-33.2c0.5,1.6,0.7,3.2,0.7,5c0,1.7-0.2,3.4-0.7,5h21.5c10.1,0,18.3,8.2,18.3,18.3
	s-8.2,18.3-18.3,18.3h-13.7c0.4,1.6,0.7,3.2,0.7,5c0,7.9-5,14.6-12,17.2c-2,0.7-4.1,1.1-6.3,1.1H74.6c-6.3,0-11.3-5.1-11.3-11.4
	v-0.3H18.3C8.2,118.1,0,109.9,0,99.8c0-10.1,8.2-18.3,18.3-18.3h17.4c-0.4-1.6-0.7-3.2-0.7-5c0-1.7,0.3-3.4,0.7-5h-9.4
	C16.2,71.6,8,63.3,8,53.2c0-9.4,7.1-17.1,16.1-18.2c-0.5-1.6-0.7-3.3-0.7-5.1c0-10.1,8.2-18.3,18.3-18.3h21.5v-0.3
	C63.2,5.1,68.3,0,74.6,0h37.7c10.1,0,18.3,8.2,18.3,18.3c0,1.7-0.2,3.4-0.7,5h17.6c10.1,0,18.3,8.2,18.3,18.3S157.6,59.9,147.5,59.9
	z"/>
<text transform="matrix(1 0 0 1 20.4718 159.7864)" class="st49 st52 st53">hyperglide</text>
<g>
	<g>
		<path class="st54" d="M155.8,41.6c0,4.6-3.7,8.3-8.3,8.3H26.3c-1.8,0-3.3,1.5-3.3,3.3s1.5,3.3,3.3,3.3h70.4c4.6,0,8.3,3.7,8.3,8.3
			c0,4.6-3.7,8.3-8.3,8.3H53.4c-1.8,0-3.3,1.5-3.3,3.3c0,1.8,1.5,3.3,3.3,3.3h82.5c4.6,0,8.3,3.7,8.3,8.3c0,4.6-3.7,8.3-8.3,8.3
			H18.3c-1.8,0-3.3,1.5-3.3,3.3c0,1.8,1.5,3.3,3.3,3.3h86.2c4.6,0,8.3,3.7,8.3,8.3c0,4.6-3.7,8.3-8.3,8.3H77.1
			c-1.4,0-2.5-1.1-2.5-2.5c0-1.4,1.1-2.5,2.5-2.5h27.4c1.8,0,3.3-1.5,3.3-3.3c0-1.8-1.5-3.3-3.3-3.3H18.3c-4.6,0-8.3-3.7-8.3-8.3
			c0-4.6,3.7-8.3,8.3-8.3h117.5c1.8,0,3.3-1.5,3.3-3.3c0-1.8-1.5-3.3-3.3-3.3H53.4c-4.6,0-8.3-3.7-8.3-8.3c0-4.6,3.7-8.3,8.3-8.3
			h43.4c1.8,0,3.3-1.5,3.3-3.3c0-1.8-1.5-3.3-3.3-3.3H26.3c-4.6,0-8.3-3.7-8.3-8.3c0-4.6,3.7-8.3,8.3-8.3h121.2
			c1.8,0,3.3-1.5,3.3-3.3s-1.5-3.3-3.3-3.3H41.7c-4.6,0-8.3-3.7-8.3-8.3c0-4.6,3.7-8.3,8.3-8.3h70.6c1.8,0,3.3-1.5,3.3-3.3
			c0-1.8-1.5-3.3-3.3-3.3H77.1c-1.4,0-2.5-1.1-2.5-2.5s1.1-2.5,2.5-2.5h35.2c4.6,0,8.3,3.7,8.3,8.3c0,4.6-3.7,8.3-8.3,8.3H41.7
			c-1.8,0-3.3,1.5-3.3,3.3c0,1.8,1.5,3.3,3.3,3.3h105.8C152.1,33.3,155.8,37,155.8,41.6z"/>
	</g>
</g>
</svg>
