<?xml version="1.0" encoding="utf-8"?>
<!-- Generator: Adobe Illustrator 26.1.0, SVG Export Plug-In . SVG Version: 6.00 Build 0)  -->
<svg version="1.1" id="Layer_1" xmlns="http://www.w3.org/2000/svg" xmlns:xlink="http://www.w3.org/1999/xlink" x="0px" y="0px"
	 viewBox="0 0 117.1 185.4" enable-background="new 0 0 117.1 185.4" xml:space="preserve">
<g>
	<path d="M114,57.5H3.1V55c0,0,0-0.1,0.1-0.1c0.1-0.1,0.1-0.2,0.2-0.2c0.1-0.1,0.1-0.2,0.2-0.3c0.1-0.1,0.1-0.2,0.2-0.2
		c0.1-0.1,0.1-0.2,0.2-0.3c0.1-0.1,0.1-0.2,0.2-0.2c0.1-0.1,0.1-0.2,0.2-0.3c0.1-0.1,0.1-0.2,0.2-0.2c0.1-0.1,0.2-0.2,0.2-0.3
		c0.1-0.1,0.1-0.2,0.2-0.2c0.1-0.1,0.2-0.2,0.2-0.3c0.1-0.1,0.1-0.2,0.2-0.2c0.1-0.1,0.2-0.2,0.3-0.3c0.1-0.1,0.1-0.2,0.2-0.2
		c0.1-0.1,0.2-0.2,0.3-0.3C6.2,51.1,6.3,51,6.3,51c0.1-0.1,0.2-0.2,0.3-0.3c0.1-0.1,0.2-0.2,0.2-0.2C7,50.4,7,50.3,7.1,50.2
		C7.2,50.1,7.3,50,7.4,50c0.1-0.1,0.2-0.2,0.3-0.3c0.1-0.1,0.2-0.2,0.3-0.2c0.1-0.1,0.2-0.2,0.3-0.3C8.3,49.1,8.4,49,8.5,49
		c0.1-0.1,0.2-0.2,0.3-0.3c0.1-0.1,0.2-0.2,0.3-0.2c0.1-0.1,0.2-0.2,0.3-0.3c0.1-0.1,0.2-0.2,0.3-0.2c0.1-0.1,0.2-0.2,0.3-0.3
		c0.1-0.1,0.2-0.1,0.3-0.2c0.1-0.1,0.2-0.2,0.3-0.3c0.1-0.1,0.2-0.1,0.3-0.2c0.1-0.1,0.2-0.2,0.4-0.2c0.1-0.1,0.2-0.1,0.3-0.2
		c0.1-0.1,0.2-0.2,0.4-0.2c0.1-0.1,0.2-0.1,0.3-0.2c0.1-0.1,0.2-0.2,0.4-0.2c0.1-0.1,0.2-0.1,0.3-0.2c0.1-0.1,0.2-0.2,0.4-0.2
		c0.1-0.1,0.2-0.1,0.3-0.2c0.1-0.1,0.3-0.2,0.4-0.2c0.1-0.1,0.2-0.1,0.3-0.2c0.1-0.1,0.3-0.2,0.4-0.2c0.1-0.1,0.2-0.1,0.4-0.2
		c0.1-0.1,0.3-0.2,0.4-0.2c0.1-0.1,0.2-0.1,0.4-0.2c0.1-0.1,0.3-0.1,0.4-0.2c0.1-0.1,0.2-0.1,0.4-0.2c0.1-0.1,0.3-0.1,0.4-0.2
		c0.1-0.1,0.2-0.1,0.4-0.2c0.1-0.1,0.3-0.1,0.4-0.2c0.1-0.1,0.3-0.1,0.4-0.2c0.1-0.1,0.3-0.1,0.4-0.2c0.1-0.1,0.3-0.1,0.4-0.2
		c0.2-0.1,0.3-0.1,0.5-0.2c0.1-0.1,0.3-0.1,0.4-0.2c0.2-0.1,0.3-0.1,0.5-0.2c0.1-0.1,0.2-0.1,0.4-0.2c0.2-0.1,0.3-0.1,0.5-0.2
		c0.1-0.1,0.2-0.1,0.4-0.2c0.2-0.1,0.4-0.2,0.6-0.2c0.1,0,0.2-0.1,0.3-0.1c0.3-0.1,0.6-0.2,0.9-0.4c10.2-3.9,22.3-6,35.1-6
		c12.8,0,24.9,2.1,35.1,6c0.3,0.1,0.6,0.2,0.9,0.4c0.1,0,0.2,0.1,0.3,0.1c0.2,0.1,0.4,0.2,0.6,0.2c0.1,0,0.2,0.1,0.4,0.2
		c0.2,0.1,0.3,0.1,0.5,0.2c0.1,0.1,0.2,0.1,0.4,0.2c0.2,0.1,0.3,0.1,0.5,0.2c0.1,0.1,0.3,0.1,0.4,0.2c0.2,0.1,0.3,0.1,0.5,0.2
		c0.1,0.1,0.3,0.1,0.4,0.2c0.2,0.1,0.3,0.1,0.4,0.2c0.1,0.1,0.2,0.1,0.4,0.2c0.1,0.1,0.3,0.1,0.4,0.2c0.1,0.1,0.2,0.1,0.4,0.2
		c0.1,0.1,0.3,0.1,0.4,0.2c0.1,0.1,0.2,0.1,0.4,0.2c0.1,0.1,0.3,0.1,0.4,0.2c0.1,0.1,0.2,0.1,0.4,0.2c0.1,0.1,0.3,0.1,0.4,0.2
		c0.1,0.1,0.2,0.1,0.3,0.2c0.1,0.1,0.3,0.2,0.4,0.2c0.1,0.1,0.2,0.1,0.3,0.2c0.1,0.1,0.3,0.2,0.4,0.2c0.1,0.1,0.2,0.1,0.3,0.2
		c0.1,0.1,0.3,0.2,0.4,0.2c0.1,0.1,0.2,0.1,0.3,0.2c0.1,0.1,0.2,0.2,0.4,0.2c0.1,0.1,0.2,0.1,0.3,0.2c0.1,0.1,0.2,0.2,0.4,0.2
		c0.1,0.1,0.2,0.1,0.3,0.2c0.1,0.1,0.2,0.2,0.3,0.2c0.1,0.1,0.2,0.1,0.3,0.2c0.1,0.1,0.2,0.2,0.3,0.2l0.3,0.2
		c0.1,0.1,0.2,0.2,0.3,0.3c0.1,0.1,0.2,0.2,0.3,0.2c0.1,0.1,0.2,0.2,0.3,0.3c0.1,0.1,0.2,0.2,0.3,0.2c0.1,0.1,0.2,0.2,0.3,0.3
		c0.1,0.1,0.2,0.2,0.3,0.2c0.1,0.1,0.2,0.2,0.3,0.3c0.1,0.1,0.2,0.2,0.3,0.2c0.1,0.1,0.2,0.2,0.3,0.3c0.1,0.1,0.2,0.2,0.2,0.2
		c0.1,0.1,0.2,0.2,0.3,0.3c0.1,0.1,0.2,0.2,0.2,0.2c0.1,0.1,0.2,0.2,0.3,0.3c0.1,0.1,0.2,0.2,0.2,0.2c0.1,0.1,0.2,0.2,0.3,0.3
		c0.1,0.1,0.2,0.2,0.2,0.2c0.1,0.1,0.2,0.2,0.2,0.3c0.1,0.1,0.1,0.2,0.2,0.2c0.1,0.1,0.2,0.2,0.2,0.3c0.1,0.1,0.1,0.2,0.2,0.2
		c0.1,0.1,0.2,0.2,0.2,0.3c0.1,0.1,0.1,0.2,0.2,0.2c0.1,0.1,0.1,0.2,0.2,0.3c0.1,0.1,0.1,0.2,0.2,0.2c0.1,0.1,0.1,0.2,0.2,0.3
		c0.1,0.1,0.1,0.2,0.2,0.2c0.1,0.1,0.1,0.2,0.2,0.3c0.1,0.1,0.1,0.2,0.2,0.2c0,0,0,0.1,0.1,0.1V57.5z M86.4,4.1h-18
		C67,1.7,63.2,0,58.5,0c-4.6,0-8.5,1.7-9.9,4.1h-18C13.8,4.1,0,17.8,0,34.8v25.8h117.1V34.8C117.1,17.8,103.3,4.1,86.4,4.1z
		 M57,31.4c-0.2,0-0.4,0-0.5,0c-0.1,0-0.2,0-0.2,0c-0.7,0-1.3,0-2,0.1c-0.1,0-0.2,0-0.3,0c-0.6,0-1.3,0.1-1.9,0.1
		c-0.1,0-0.2,0-0.3,0c-0.6,0-1.3,0.1-1.9,0.1c-0.1,0-0.2,0-0.3,0c-0.7,0.1-1.3,0.1-2,0.2c0,0,0,0,0,0c-0.7,0.1-1.3,0.1-1.9,0.2
		c-0.1,0-0.2,0-0.2,0c-0.6,0.1-1.2,0.2-1.9,0.2c-0.1,0-0.2,0-0.3,0c-0.6,0.1-1.2,0.2-1.8,0.3c-0.1,0-0.2,0-0.3,0.1
		c-0.6,0.1-1.2,0.2-1.8,0.3c-0.1,0-0.2,0-0.3,0c-0.6,0.1-1.2,0.2-1.8,0.3c0,0-0.1,0-0.1,0c-0.6,0.1-1.2,0.2-1.8,0.4
		c-0.1,0-0.2,0-0.2,0c-0.6,0.1-1.1,0.3-1.7,0.4c-0.1,0-0.2,0.1-0.3,0.1c-0.6,0.1-1.1,0.3-1.6,0.4c-0.1,0-0.2,0.1-0.3,0.1
		c-0.5,0.1-1.1,0.3-1.6,0.4c-0.1,0-0.2,0.1-0.3,0.1c-0.6,0.2-1.1,0.3-1.7,0.5c0,0-0.1,0-0.1,0c-0.5,0.2-1.1,0.3-1.6,0.5
		c-0.1,0-0.1,0-0.2,0.1c-0.5,0.2-1,0.4-1.5,0.5c-0.1,0-0.2,0.1-0.3,0.1c-0.5,0.2-1,0.4-1.5,0.6c-0.1,0-0.2,0.1-0.3,0.1
		c-0.5,0.2-1,0.4-1.4,0.6c-0.1,0-0.2,0.1-0.3,0.1c-0.5,0.2-1,0.4-1.5,0.6c0,0-0.1,0-0.1,0.1c-0.5,0.2-0.9,0.4-1.4,0.6
		c-0.1,0-0.1,0.1-0.2,0.1c-0.5,0.2-0.9,0.4-1.3,0.7c-0.1,0-0.2,0.1-0.3,0.1c-0.4,0.2-0.9,0.5-1.3,0.7c-0.1,0-0.2,0.1-0.3,0.1
		c-0.4,0.2-0.8,0.5-1.2,0.7c-0.1,0-0.1,0.1-0.2,0.1c-0.4,0.2-0.8,0.5-1.2,0.8c0,0-0.1,0-0.1,0.1c-0.4,0.3-0.8,0.5-1.2,0.8
		c0,0-0.1,0.1-0.1,0.1c-0.4,0.3-0.8,0.5-1.1,0.8c-0.1,0-0.1,0.1-0.2,0.1c-0.4,0.3-0.7,0.5-1,0.8c-0.1,0.1-0.1,0.1-0.2,0.2
		c-0.3,0.3-0.7,0.6-1,0.8c-0.1,0-0.1,0.1-0.2,0.1c-0.3,0.3-0.7,0.6-1,0.9c0,0-0.1,0.1-0.1,0.1c-0.3,0.3-0.6,0.6-0.9,0.9
		c0,0,0,0-0.1,0.1c-0.3,0.3-0.6,0.6-0.9,0.9c0,0-0.1,0.1-0.1,0.1V34.8c0-15.2,12.4-27.6,27.6-27.6h17.6c0,0,0,0.1,0,0.1
		c0,0,0,0.1,0,0.1c0,0.1,0,0.1,0.1,0.2c0,0,0,0.1,0,0.1c0,0.1,0.1,0.1,0.1,0.2c0,0,0,0.1,0.1,0.1c0,0.1,0.1,0.1,0.1,0.2
		c0,0,0,0,0,0.1c0.1,0.1,0.1,0.2,0.2,0.3c0,0,0,0,0.1,0.1c0,0.1,0.1,0.1,0.1,0.2c0,0,0.1,0.1,0.1,0.1c0,0.1,0.1,0.1,0.1,0.2
		c0,0,0.1,0.1,0.1,0.1c0,0,0.1,0.1,0.1,0.1c0,0,0.1,0.1,0.1,0.1c0,0,0.1,0.1,0.1,0.1c0,0,0.1,0.1,0.1,0.1c0.1,0,0.1,0.1,0.2,0.1
		c0,0,0.1,0.1,0.1,0.1c0.1,0,0.1,0.1,0.2,0.1c0,0,0.1,0.1,0.1,0.1c0.1,0,0.1,0.1,0.2,0.1c0,0,0.1,0,0.1,0.1c0.1,0.1,0.2,0.1,0.3,0.2
		c0,0,0,0,0.1,0c0.1,0,0.2,0.1,0.3,0.1c0,0,0.1,0,0.1,0.1c0.1,0,0.2,0.1,0.2,0.1c0,0,0.1,0,0.1,0.1c0.1,0,0.1,0.1,0.2,0.1
		c0.1,0,0.1,0,0.2,0.1c0.1,0,0.2,0.1,0.2,0.1c0.1,0,0.1,0,0.2,0.1c0.1,0,0.2,0.1,0.2,0.1c0.1,0,0.1,0,0.2,0.1c0.1,0,0.2,0.1,0.3,0.1
		c0.1,0,0.1,0,0.2,0.1c0.1,0,0.2,0.1,0.3,0.1c0,0,0.1,0,0.1,0c0.1,0,0.3,0.1,0.4,0.1c0,0,0,0,0.1,0c0.1,0,0.3,0.1,0.4,0.1
		c0.1,0,0.1,0,0.2,0c0.1,0,0.2,0,0.3,0.1c0.1,0,0.1,0,0.2,0c0.1,0,0.2,0,0.3,0c0.1,0,0.1,0,0.2,0c0.1,0,0.2,0,0.3,0
		c0.1,0,0.1,0,0.2,0c0.1,0,0.2,0,0.3,0c0.1,0,0.1,0,0.2,0c0,0,0,0,0,0V31.4z M51.2,6.1c0,0,0-0.1,0-0.2v0c0.2-1.2,2.9-2.8,7.3-2.8
		c4.4,0,7.1,1.7,7.3,2.8c0,0.1,0,0.1,0,0.2c0,1.2-2.9,3-7.3,3S51.2,7.3,51.2,6.1z M114,49.9C114,49.9,113.9,49.9,114,49.9
		c-0.4-0.4-0.7-0.7-1-1c0,0,0,0-0.1-0.1c-0.3-0.3-0.6-0.6-0.9-0.9c0,0,0,0-0.1-0.1c-0.3-0.3-0.7-0.6-1-0.9c0,0-0.1-0.1-0.1-0.1
		c-0.3-0.3-0.7-0.6-1-0.8c-0.1,0-0.1-0.1-0.2-0.1c-0.3-0.3-0.7-0.6-1.1-0.8c-0.1,0-0.1-0.1-0.2-0.1c-0.4-0.3-0.8-0.6-1.2-0.8
		c0,0-0.1,0-0.1-0.1c-0.4-0.3-0.8-0.5-1.2-0.8c0,0,0,0-0.1,0c-0.4-0.3-0.8-0.5-1.3-0.8c-0.1,0-0.1-0.1-0.2-0.1
		c-0.4-0.2-0.8-0.5-1.3-0.7c-0.1,0-0.1-0.1-0.2-0.1c-0.4-0.2-0.9-0.5-1.3-0.7c-0.1,0-0.1-0.1-0.2-0.1c-0.5-0.2-0.9-0.5-1.4-0.7
		c0,0-0.1,0-0.1-0.1c-0.5-0.2-1-0.5-1.5-0.7c0,0-0.1,0-0.1,0c-0.5-0.2-1-0.4-1.5-0.7c-0.1,0-0.1-0.1-0.2-0.1c-0.5-0.2-1-0.4-1.5-0.6
		c-0.1,0-0.2-0.1-0.3-0.1c-0.5-0.2-1-0.4-1.5-0.6c-0.1,0-0.2-0.1-0.2-0.1c-0.5-0.2-1.1-0.4-1.6-0.6c-0.1,0-0.1,0-0.2-0.1
		c-0.5-0.2-1.1-0.4-1.7-0.5c0,0,0,0-0.1,0c-0.6-0.2-1.1-0.3-1.7-0.5l-0.2-0.1c-0.6-0.2-1.1-0.3-1.7-0.5c-0.1,0-0.2-0.1-0.3-0.1
		c-0.6-0.1-1.1-0.3-1.7-0.4c-0.1,0-0.2,0-0.3-0.1c-0.6-0.1-1.2-0.3-1.7-0.4c-0.1,0-0.1,0-0.2,0c-0.6-0.1-1.2-0.3-1.8-0.4
		c0,0,0,0-0.1,0c-0.6-0.1-1.2-0.2-1.9-0.3c-0.1,0-0.2,0-0.2,0c-0.6-0.1-1.2-0.2-1.8-0.3c-0.1,0-0.2,0-0.3,0
		c-0.6-0.1-1.2-0.2-1.8-0.3c-0.1,0-0.2,0-0.3,0c-0.6-0.1-1.2-0.2-1.9-0.2c-0.1,0-0.1,0-0.2,0c-0.7-0.1-1.3-0.1-2-0.2c0,0,0,0,0,0
		c-0.7-0.1-1.3-0.1-2-0.2c-0.1,0-0.2,0-0.3,0c-0.6,0-1.3-0.1-1.9-0.1c-0.1,0-0.2,0-0.3,0c-0.6,0-1.3-0.1-1.9-0.1c-0.1,0-0.2,0-0.3,0
		c-0.7,0-1.3,0-2-0.1c-0.1,0-0.2,0-0.2,0c-0.2,0-0.4,0-0.5,0V12.1c0,0,0,0,0,0c0.1,0,0.1,0,0.2,0c0.1,0,0.2,0,0.3,0
		c0.1,0,0.1,0,0.2,0c0.1,0,0.2,0,0.3,0c0.1,0,0.1,0,0.2,0c0.1,0,0.2,0,0.3,0c0.1,0,0.1,0,0.2,0c0.1,0,0.2,0,0.3-0.1
		c0.1,0,0.1,0,0.2,0c0.1,0,0.3-0.1,0.4-0.1c0,0,0,0,0.1,0c0.2,0,0.3-0.1,0.4-0.1c0,0,0.1,0,0.1,0c0.1,0,0.2-0.1,0.3-0.1
		c0.1,0,0.1,0,0.2-0.1c0.1,0,0.2-0.1,0.3-0.1c0.1,0,0.1,0,0.2-0.1c0.1,0,0.2-0.1,0.2-0.1c0.1,0,0.1,0,0.2-0.1c0.1,0,0.2-0.1,0.2-0.1
		c0.1,0,0.1,0,0.2-0.1c0.1,0,0.1-0.1,0.2-0.1c0,0,0.1,0,0.1-0.1c0.1,0,0.2-0.1,0.2-0.1c0,0,0.1,0,0.1-0.1c0.1,0,0.2-0.1,0.3-0.1
		c0,0,0,0,0.1,0c0.1-0.1,0.2-0.1,0.3-0.2c0,0,0.1,0,0.1-0.1c0.1,0,0.1-0.1,0.2-0.1c0,0,0.1-0.1,0.1-0.1c0.1,0,0.1-0.1,0.2-0.1
		c0,0,0.1-0.1,0.1-0.1c0.1,0,0.1-0.1,0.2-0.1c0,0,0.1-0.1,0.1-0.1c0,0,0.1-0.1,0.1-0.1c0,0,0.1-0.1,0.1-0.1c0,0,0.1-0.1,0.1-0.1
		c0,0,0.1-0.1,0.1-0.1c0-0.1,0.1-0.1,0.1-0.2c0,0,0.1-0.1,0.1-0.1c0-0.1,0.1-0.1,0.1-0.2c0,0,0,0,0-0.1c0.1-0.1,0.1-0.2,0.2-0.3
		c0,0,0,0,0-0.1c0-0.1,0.1-0.1,0.1-0.2c0,0,0-0.1,0-0.1c0-0.1,0.1-0.1,0.1-0.2c0,0,0-0.1,0-0.1c0-0.1,0-0.1,0.1-0.2c0,0,0-0.1,0-0.1
		c0,0,0-0.1,0-0.1h17.6c15.2,0,27.6,12.4,27.6,27.6V49.9z"/>
	<path fill="#1582BF" d="M65.9,6.1c0,1.2-2.9,3-7.3,3s-7.3-1.8-7.3-3c0,0,0-0.1,0-0.2v0c0.2-1.2,2.9-2.8,7.3-2.8
		c4.4,0,7.1,1.7,7.3,2.8C65.9,6,65.9,6,65.9,6.1z"/>
	<path fill="#B4D466" d="M114,55v2.5h-11c0,0-19.2-22.9-49-22.9c1.5-0.1,3-0.1,4.6-0.1c12.8,0,24.9,2.1,35.1,6
		c0.3,0.1,0.6,0.2,0.9,0.4c0.1,0,0.2,0.1,0.3,0.1c0.2,0.1,0.4,0.2,0.6,0.2c0.1,0,0.2,0.1,0.4,0.2c0.2,0.1,0.3,0.1,0.5,0.2
		c0.1,0.1,0.2,0.1,0.4,0.2c0.2,0.1,0.3,0.1,0.5,0.2c0.1,0.1,0.3,0.1,0.4,0.2c0.2,0.1,0.3,0.1,0.5,0.2c0.1,0.1,0.3,0.1,0.4,0.2
		c0.2,0.1,0.3,0.1,0.4,0.2c0.1,0.1,0.2,0.1,0.4,0.2c0.1,0.1,0.3,0.1,0.4,0.2c0.1,0.1,0.2,0.1,0.4,0.2c0.1,0.1,0.3,0.1,0.4,0.2
		c0.1,0.1,0.2,0.1,0.4,0.2c0.1,0.1,0.3,0.1,0.4,0.2c0.1,0.1,0.2,0.1,0.4,0.2c0.1,0.1,0.3,0.1,0.4,0.2c0.1,0.1,0.2,0.1,0.3,0.2
		c0.1,0.1,0.3,0.2,0.4,0.2c0.1,0.1,0.2,0.1,0.3,0.2c0.1,0.1,0.3,0.2,0.4,0.2c0.1,0.1,0.2,0.1,0.3,0.2c0.1,0.1,0.3,0.2,0.4,0.2
		c0.1,0.1,0.2,0.1,0.3,0.2c0.1,0.1,0.2,0.2,0.4,0.2c0.1,0.1,0.2,0.1,0.3,0.2c0.1,0.1,0.2,0.2,0.4,0.2c0.1,0.1,0.2,0.1,0.3,0.2
		c0.1,0.1,0.2,0.2,0.3,0.2c0.1,0.1,0.2,0.1,0.3,0.2c0.1,0.1,0.2,0.2,0.3,0.2l0.3,0.2c0.1,0.1,0.2,0.2,0.3,0.3
		c0.1,0.1,0.2,0.2,0.3,0.2c0.1,0.1,0.2,0.2,0.3,0.3c0.1,0.1,0.2,0.2,0.3,0.2c0.1,0.1,0.2,0.2,0.3,0.3c0.1,0.1,0.2,0.2,0.3,0.2
		c0.1,0.1,0.2,0.2,0.3,0.3c0.1,0.1,0.2,0.2,0.3,0.2c0.1,0.1,0.2,0.2,0.3,0.3c0.1,0.1,0.2,0.2,0.2,0.2c0.1,0.1,0.2,0.2,0.3,0.3
		c0.1,0.1,0.2,0.2,0.2,0.2c0.1,0.1,0.2,0.2,0.3,0.3c0.1,0.1,0.2,0.2,0.2,0.2c0.1,0.1,0.2,0.2,0.3,0.3c0.1,0.1,0.2,0.2,0.2,0.2
		c0.1,0.1,0.2,0.2,0.2,0.3c0.1,0.1,0.1,0.2,0.2,0.2c0.1,0.1,0.2,0.2,0.2,0.3c0.1,0.1,0.1,0.2,0.2,0.2c0.1,0.1,0.2,0.2,0.2,0.3
		c0.1,0.1,0.1,0.2,0.2,0.2c0.1,0.1,0.1,0.2,0.2,0.3c0.1,0.1,0.1,0.2,0.2,0.2c0.1,0.1,0.1,0.2,0.2,0.3c0.1,0.1,0.1,0.2,0.2,0.2
		c0.1,0.1,0.1,0.2,0.2,0.3c0.1,0.1,0.1,0.2,0.2,0.2C113.9,54.9,114,55,114,55z"/>
	<path fill="#8BC541" d="M103,57.5H3.1V55c0,0,0-0.1,0.1-0.1c0.1-0.1,0.1-0.2,0.2-0.2c0.1-0.1,0.1-0.2,0.2-0.3
		c0.1-0.1,0.1-0.2,0.2-0.2c0.1-0.1,0.1-0.2,0.2-0.3c0.1-0.1,0.1-0.2,0.2-0.2c0.1-0.1,0.1-0.2,0.2-0.3c0.1-0.1,0.1-0.2,0.2-0.2
		c0.1-0.1,0.2-0.2,0.2-0.3c0.1-0.1,0.1-0.2,0.2-0.2c0.1-0.1,0.2-0.2,0.2-0.3c0.1-0.1,0.1-0.2,0.2-0.2c0.1-0.1,0.2-0.2,0.3-0.3
		c0.1-0.1,0.1-0.2,0.2-0.2c0.1-0.1,0.2-0.2,0.3-0.3C6.2,51.1,6.3,51,6.3,51c0.1-0.1,0.2-0.2,0.3-0.3c0.1-0.1,0.2-0.2,0.2-0.2
		C7,50.4,7,50.3,7.1,50.2C7.2,50.1,7.3,50,7.4,50c0.1-0.1,0.2-0.2,0.3-0.3c0.1-0.1,0.2-0.2,0.3-0.2c0.1-0.1,0.2-0.2,0.3-0.3
		C8.3,49.1,8.4,49,8.5,49c0.1-0.1,0.2-0.2,0.3-0.3c0.1-0.1,0.2-0.2,0.3-0.2c0.1-0.1,0.2-0.2,0.3-0.3c0.1-0.1,0.2-0.2,0.3-0.2
		c0.1-0.1,0.2-0.2,0.3-0.3c0.1-0.1,0.2-0.1,0.3-0.2c0.1-0.1,0.2-0.2,0.3-0.3c0.1-0.1,0.2-0.1,0.3-0.2c0.1-0.1,0.2-0.2,0.4-0.2
		c0.1-0.1,0.2-0.1,0.3-0.2c0.1-0.1,0.2-0.2,0.4-0.2c0.1-0.1,0.2-0.1,0.3-0.2c0.1-0.1,0.2-0.2,0.4-0.2c0.1-0.1,0.2-0.1,0.3-0.2
		c0.1-0.1,0.2-0.2,0.4-0.2c0.1-0.1,0.2-0.1,0.3-0.2c0.1-0.1,0.3-0.2,0.4-0.2c0.1-0.1,0.2-0.1,0.3-0.2c0.1-0.1,0.3-0.2,0.4-0.2
		c0.1-0.1,0.2-0.1,0.4-0.2c0.1-0.1,0.3-0.2,0.4-0.2c0.1-0.1,0.2-0.1,0.4-0.2c0.1-0.1,0.3-0.1,0.4-0.2c0.1-0.1,0.2-0.1,0.4-0.2
		c0.1-0.1,0.3-0.1,0.4-0.2c0.1-0.1,0.2-0.1,0.4-0.2c0.1-0.1,0.3-0.1,0.4-0.2c0.1-0.1,0.3-0.1,0.4-0.2c0.1-0.1,0.3-0.1,0.4-0.2
		c0.1-0.1,0.3-0.1,0.4-0.2c0.2-0.1,0.3-0.1,0.5-0.2c0.1-0.1,0.3-0.1,0.4-0.2c0.2-0.1,0.3-0.1,0.5-0.2c0.1-0.1,0.2-0.1,0.4-0.2
		c0.2-0.1,0.3-0.1,0.5-0.2c0.1-0.1,0.2-0.1,0.4-0.2c0.2-0.1,0.4-0.2,0.6-0.2c0.1,0,0.2-0.1,0.3-0.1c0.3-0.1,0.6-0.2,0.9-0.4
		c9-3.5,19.4-5.5,30.5-5.9C83.9,34.6,103,57.5,103,57.5z"/>
	<path fill="#1F6296" d="M114,34.8v15.2c0,0-0.1-0.1-0.1-0.1c-0.3-0.3-0.6-0.6-0.9-0.9c0,0,0,0-0.1-0.1c-0.3-0.3-0.6-0.6-0.9-0.9
		c0,0,0,0-0.1-0.1c-0.3-0.3-0.7-0.6-1-0.9c0,0-0.1-0.1-0.1-0.1c-0.3-0.3-0.7-0.6-1-0.8c-0.1,0-0.1-0.1-0.2-0.1
		c-0.3-0.3-0.7-0.6-1.1-0.8c-0.1,0-0.1-0.1-0.2-0.1c-0.4-0.3-0.8-0.6-1.2-0.8c0,0-0.1,0-0.1-0.1c-0.4-0.3-0.8-0.5-1.2-0.8
		c0,0,0,0-0.1,0c-0.4-0.3-0.8-0.5-1.3-0.8c-0.1,0-0.1-0.1-0.2-0.1c-0.4-0.2-0.8-0.5-1.3-0.7c-0.1,0-0.1-0.1-0.2-0.1
		c-0.4-0.2-0.9-0.5-1.3-0.7c-0.1,0-0.1-0.1-0.2-0.1c-0.5-0.2-0.9-0.5-1.4-0.7c0,0-0.1,0-0.1-0.1c-0.5-0.2-1-0.5-1.5-0.7
		c0,0-0.1,0-0.1,0c-0.5-0.2-1-0.4-1.5-0.7c-0.1,0-0.1-0.1-0.2-0.1c-0.5-0.2-1-0.4-1.5-0.6c-0.1,0-0.2-0.1-0.3-0.1
		c-0.5-0.2-1-0.4-1.5-0.6c-0.1,0-0.2-0.1-0.2-0.1c-0.5-0.2-1.1-0.4-1.6-0.6c-0.1,0-0.1,0-0.2-0.1c-0.5-0.2-1.1-0.4-1.7-0.5
		c0,0,0,0-0.1,0c-0.6-0.2-1.1-0.3-1.7-0.5l-0.2-0.1c-0.6-0.2-1.1-0.3-1.7-0.5c-0.1,0-0.2-0.1-0.3-0.1c-0.6-0.1-1.1-0.3-1.7-0.4
		c-0.1,0-0.2,0-0.3-0.1c-0.6-0.1-1.2-0.3-1.7-0.4c-0.1,0-0.1,0-0.2,0c-0.6-0.1-1.2-0.3-1.8-0.4c0,0,0,0-0.1,0
		c-0.6-0.1-1.2-0.2-1.9-0.3c-0.1,0-0.2,0-0.2,0c-0.6-0.1-1.2-0.2-1.8-0.3c-0.1,0-0.2,0-0.3,0c-0.6-0.1-1.2-0.2-1.8-0.3
		c-0.1,0-0.2,0-0.3,0c-0.6-0.1-1.2-0.2-1.9-0.2c-0.1,0-0.1,0-0.2,0c-0.7-0.1-1.3-0.1-2-0.2c0,0,0,0,0,0c-0.7-0.1-1.3-0.1-2-0.2
		c-0.1,0-0.2,0-0.3,0c-0.6,0-1.3-0.1-1.9-0.1c-0.1,0-0.2,0-0.3,0c-0.6,0-1.3-0.1-1.9-0.1c-0.1,0-0.2,0-0.3,0c-0.7,0-1.3,0-2-0.1
		c-0.1,0-0.2,0-0.2,0c-0.2,0-0.4,0-0.5,0V12.1c0,0,0,0,0,0c0.1,0,0.1,0,0.2,0c0.1,0,0.2,0,0.3,0c0.1,0,0.1,0,0.2,0
		c0.1,0,0.2,0,0.3,0c0.1,0,0.1,0,0.2,0c0.1,0,0.2,0,0.3,0c0.1,0,0.1,0,0.2,0c0.1,0,0.2,0,0.3-0.1c0.1,0,0.1,0,0.2,0
		c0.1,0,0.3-0.1,0.4-0.1c0,0,0,0,0.1,0c0.2,0,0.3-0.1,0.4-0.1c0,0,0.1,0,0.1,0c0.1,0,0.2-0.1,0.3-0.1c0.1,0,0.1,0,0.2-0.1
		c0.1,0,0.2-0.1,0.3-0.1c0.1,0,0.1,0,0.2-0.1c0.1,0,0.2-0.1,0.2-0.1c0.1,0,0.1,0,0.2-0.1c0.1,0,0.2-0.1,0.2-0.1c0.1,0,0.1,0,0.2-0.1
		c0.1,0,0.1-0.1,0.2-0.1c0,0,0.1,0,0.1-0.1c0.1,0,0.2-0.1,0.2-0.1c0,0,0.1,0,0.1-0.1c0.1,0,0.2-0.1,0.3-0.1c0,0,0,0,0.1,0
		c0.1-0.1,0.2-0.1,0.3-0.2c0,0,0.1,0,0.1-0.1c0.1,0,0.1-0.1,0.2-0.1c0,0,0.1-0.1,0.1-0.1c0.1,0,0.1-0.1,0.2-0.1c0,0,0.1-0.1,0.1-0.1
		c0.1,0,0.1-0.1,0.2-0.1c0,0,0.1-0.1,0.1-0.1c0,0,0.1-0.1,0.1-0.1c0,0,0.1-0.1,0.1-0.1c0,0,0.1-0.1,0.1-0.1c0,0,0.1-0.1,0.1-0.1
		c0-0.1,0.1-0.1,0.1-0.2c0,0,0.1-0.1,0.1-0.1c0-0.1,0.1-0.1,0.1-0.2c0,0,0,0,0-0.1c0.1-0.1,0.1-0.2,0.2-0.3c0,0,0,0,0-0.1
		c0-0.1,0.1-0.1,0.1-0.2c0,0,0-0.1,0-0.1c0-0.1,0.1-0.1,0.1-0.2c0,0,0-0.1,0-0.1c0-0.1,0-0.1,0.1-0.2c0,0,0-0.1,0-0.1
		c0,0,0-0.1,0-0.1h17.6C101.6,7.2,114,19.5,114,34.8z"/>
	<path fill="#1582BF" d="M57,12.1v0.4H31.1C18.6,12.5,8.5,22.6,8.5,35v10c-0.4,0.3-0.7,0.5-1,0.8c-0.1,0.1-0.1,0.1-0.2,0.2
		c-0.3,0.3-0.7,0.6-1,0.8c-0.1,0-0.1,0.1-0.2,0.1c-0.3,0.3-0.7,0.6-1,0.9c0,0-0.1,0.1-0.1,0.1c-0.3,0.3-0.6,0.6-0.9,0.9
		c0,0,0,0-0.1,0.1c-0.3,0.3-0.6,0.6-0.9,0.9c0,0-0.1,0.1-0.1,0.1V34.8c0-15.2,12.4-27.6,27.6-27.6h17.6c0,0,0,0.1,0,0.1
		c0,0,0,0.1,0,0.1c0,0.1,0,0.1,0.1,0.2c0,0,0,0.1,0,0.1c0,0.1,0.1,0.1,0.1,0.2c0,0,0,0.1,0.1,0.1c0,0.1,0.1,0.1,0.1,0.2
		c0,0,0,0,0,0.1c0.1,0.1,0.1,0.2,0.2,0.3c0,0,0,0,0.1,0.1c0,0.1,0.1,0.1,0.1,0.2c0,0,0.1,0.1,0.1,0.1c0,0.1,0.1,0.1,0.1,0.2
		c0,0,0.1,0.1,0.1,0.1c0,0,0.1,0.1,0.1,0.1c0,0,0.1,0.1,0.1,0.1c0,0,0.1,0.1,0.1,0.1c0,0,0.1,0.1,0.1,0.1c0.1,0,0.1,0.1,0.2,0.1
		c0,0,0.1,0.1,0.1,0.1c0.1,0,0.1,0.1,0.2,0.1c0,0,0.1,0.1,0.1,0.1c0.1,0,0.1,0.1,0.2,0.1c0,0,0.1,0,0.1,0.1c0.1,0.1,0.2,0.1,0.3,0.2
		c0,0,0,0,0.1,0c0.1,0,0.2,0.1,0.3,0.1c0,0,0.1,0,0.1,0.1c0.1,0,0.2,0.1,0.2,0.1c0,0,0.1,0,0.1,0.1c0.1,0,0.1,0.1,0.2,0.1
		c0.1,0,0.1,0,0.2,0.1c0.1,0,0.2,0.1,0.2,0.1c0.1,0,0.1,0,0.2,0.1c0.1,0,0.2,0.1,0.2,0.1c0.1,0,0.1,0,0.2,0.1c0.1,0,0.2,0.1,0.3,0.1
		c0.1,0,0.1,0,0.2,0.1c0.1,0,0.2,0.1,0.3,0.1c0,0,0.1,0,0.1,0c0.1,0,0.3,0.1,0.4,0.1c0,0,0,0,0.1,0c0.1,0,0.3,0.1,0.4,0.1
		c0.1,0,0.1,0,0.2,0c0.1,0,0.2,0,0.3,0.1c0.1,0,0.1,0,0.2,0c0.1,0,0.2,0,0.3,0c0.1,0,0.1,0,0.2,0c0.1,0,0.2,0,0.3,0
		c0.1,0,0.1,0,0.2,0c0.1,0,0.2,0,0.3,0C56.8,12.1,56.9,12.1,57,12.1C57,12.1,57,12.1,57,12.1z"/>
	<path fill="#1F6296" d="M57,12.5v19c-0.2,0-0.4,0-0.5,0c-0.1,0-0.2,0-0.2,0c-0.7,0-1.3,0-2,0.1c-0.1,0-0.2,0-0.3,0
		c-0.6,0-1.3,0.1-1.9,0.1c-0.1,0-0.2,0-0.3,0c-0.6,0-1.3,0.1-1.9,0.1c-0.1,0-0.2,0-0.3,0c-0.7,0.1-1.3,0.1-2,0.2c0,0,0,0,0,0
		c-0.7,0.1-1.3,0.1-1.9,0.2c-0.1,0-0.2,0-0.2,0c-0.6,0.1-1.2,0.2-1.9,0.2c-0.1,0-0.2,0-0.3,0c-0.6,0.1-1.2,0.2-1.8,0.3
		c-0.1,0-0.2,0-0.3,0.1c-0.6,0.1-1.2,0.2-1.8,0.3c-0.1,0-0.2,0-0.3,0c-0.6,0.1-1.2,0.2-1.8,0.3c0,0-0.1,0-0.1,0
		c-0.6,0.1-1.2,0.2-1.8,0.4c-0.1,0-0.2,0-0.2,0c-0.6,0.1-1.1,0.3-1.7,0.4c-0.1,0-0.2,0.1-0.3,0.1c-0.6,0.1-1.1,0.3-1.6,0.4
		c-0.1,0-0.2,0.1-0.3,0.1c-0.5,0.1-1.1,0.3-1.6,0.4c-0.1,0-0.2,0.1-0.3,0.1c-0.6,0.2-1.1,0.3-1.7,0.5c0,0-0.1,0-0.1,0
		c-0.5,0.2-1.1,0.3-1.6,0.5c-0.1,0-0.1,0-0.2,0.1c-0.5,0.2-1,0.4-1.5,0.5c-0.1,0-0.2,0.1-0.3,0.1c-0.5,0.2-1,0.4-1.5,0.6
		c-0.1,0-0.2,0.1-0.3,0.1c-0.5,0.2-1,0.4-1.4,0.6c-0.1,0-0.2,0.1-0.3,0.1c-0.5,0.2-1,0.4-1.5,0.6c0,0-0.1,0-0.1,0.1
		c-0.5,0.2-0.9,0.4-1.4,0.6c-0.1,0-0.1,0.1-0.2,0.1c-0.5,0.2-0.9,0.4-1.3,0.7c-0.1,0-0.2,0.1-0.3,0.1c-0.4,0.2-0.9,0.5-1.3,0.7
		c-0.1,0-0.2,0.1-0.3,0.1c-0.4,0.2-0.8,0.5-1.2,0.7c-0.1,0-0.1,0.1-0.2,0.1c-0.4,0.2-0.8,0.5-1.2,0.8c0,0-0.1,0-0.1,0.1
		c-0.4,0.3-0.8,0.5-1.2,0.8c0,0-0.1,0.1-0.1,0.1c-0.4,0.3-0.8,0.5-1.1,0.8c-0.1,0-0.1,0.1-0.2,0.1V35c0-12.5,10.1-22.6,22.6-22.6H57
		z"/>
	<g>
		<path d="M75.4,143.9H41.6c-4.7,0-8.5,3.8-8.5,8.5v11.9l1.5,0c0.3,0,0.6,0,0.9,0h46c0.3,0,0.6,0,0.9,0l1.5,0v-11.9
			C83.9,147.7,80.1,143.9,75.4,143.9z M80.9,161.4H36.2v-8.9c0-3,2.4-5.4,5.4-5.4h33.8c3,0,5.4,2.4,5.4,5.4V161.4z"/>
		<path d="M110.2,107.1c-4,0-7.2,3.2-7.2,7.2v25.6c0,7.9-4.3,15-11,18.7v-11.6c0-6.7-5.4-12.1-12.1-12.1H37.3
			c-6.7,0-12.1,5.4-12.1,12.1v11.6c-6.8-3.7-11-10.9-11-18.7v-25.6c0-4-3.2-7.2-7.2-7.2H0v43c0,19.5,15.8,35.3,35.3,35.3h46.4
			c19.5,0,35.3-15.8,35.3-35.3v-43H110.2z M114,150.1c0,17.8-14.5,32.3-32.3,32.3H35.3c-17.8,0-32.3-14.5-32.3-32.3v-39.9h3.8
			c2.3,0,4.2,1.9,4.2,4.2v25.6c0,9.9,5.9,18.8,15,22.6l2.1,0.9v-16.3c0-5,4.1-9.1,9-9.1h42.5c5,0,9,4.1,9,9.1v16.3l2.1-0.9
			c9.1-3.8,15-12.7,15-22.6v-25.6c0-2.3,1.9-4.2,4.2-4.2h3.8V150.1z"/>
		<path fill="#2D2018" d="M110.2,110.2c-2.3,0-4.2,1.9-4.2,4.2v25.6c0,9.9-5.9,18.8-15,22.6l-2.1,0.9v-16.3c0-5-4.1-9.1-9-9.1H37.3
			c-5,0-9,4.1-9,9.1v16.3l-2.1-0.9c-9.1-3.8-15-12.7-15-22.6v-25.6c0-2.3-1.9-4.2-4.2-4.2H3.1v39.9c0,17.8,14.5,32.3,32.3,32.3h15
			c0-5.1,5.7-5.6,5.7-5.6s8.4,0,28.5,0c8.9,0,15.1-5,19.1-10.5c4.5-6.1,6.8-13.6,6.8-21.2v-16.6c0-3.8,3.6-3.6,3.6-3.6v-14.7H110.2z
			 M83.9,164.4l-1.5,0c-0.3,0-0.6,0-0.9,0h-46c-0.3,0-0.6,0-0.9,0l-1.5,0v-11.9c0-4.7,3.8-8.5,8.5-8.5h33.8c4.7,0,8.5,3.8,8.5,8.5
			V164.4z"/>
		<path fill="#4C3431" d="M114,124.8v25.2c0,17.8-14.5,32.3-32.3,32.3H50.3c0-5.1,5.7-5.6,5.7-5.6s8.4,0,28.5,0
			c8.9,0,15.1-5,19.1-10.5c4.5-6.1,6.8-13.6,6.8-21.2v-16.6C110.4,124.6,114,124.8,114,124.8z"/>
	</g>
	<g>
		<path d="M111.6,79.9H99.3c-1.1,0-2.1,0.3-2.9,0.9c-0.8-0.5-1.7-0.9-2.7-0.9H80c-0.9,0-1.7,0.2-2.4,0.7c-0.7-0.4-1.5-0.7-2.4-0.7
			h-5.4c-0.7,0-1.3,0.1-1.9,0.4c-0.6-0.3-1.2-0.4-1.9-0.4h-5.4c-0.8,0-1.5,0.2-2.2,0.5c-0.7-0.3-1.5-0.5-2.4-0.5H42.8
			c-1,0-1.8,0.3-2.6,0.7c-0.7-0.5-1.6-0.7-2.6-0.7H24c-0.7,0-1.3,0.1-1.8,0.4c0-0.3,0.1-0.5,0.1-0.8v-9.6c0-3.2-2.6-5.9-5.8-5.9H5.9
			c-3.2,0-5.9,2.6-5.9,5.9v27.4c0,3.2,2.6,5.8,5.8,5.8H18c1.1,0,2.1-0.3,2.9-0.8c0.7,0.5,1.5,0.8,2.4,0.8h15.3c0.7,0,1.4-0.2,2-0.6
			c0.7,0.4,1.5,0.6,2.3,0.6h7.8c0.8,0,1.6-0.2,2.3-0.5c0.7,0.3,1.5,0.5,2.3,0.5h1.3c0.8,0,1.5-0.2,2.1-0.6c0.7,0.4,1.4,0.6,2.2,0.6
			H63c0.7,0,1.3-0.2,1.9-0.4c0.6,0.3,1.3,0.4,1.9,0.4H69c0.7,0,1.3-0.2,1.9-0.4c0.6,0.3,1.3,0.4,1.9,0.4h2.2c0.8,0,1.5-0.2,2.1-0.5
			c0.6,0.3,1.3,0.5,2,0.5h15.3c0.8,0,1.6-0.2,2.2-0.7c0.8,0.4,1.7,0.7,2.6,0.7h3.4c1,0,1.9-0.3,2.8-0.8c0.8,0.5,1.8,0.8,2.8,0.8h3.4
			c3,0,5.5-2.5,5.5-5.5V85.4C117.1,82.4,114.6,79.9,111.6,79.9z M20.7,97.3c0,1.5-1.2,2.8-2.8,2.8H5.8c-1.5,0-2.7-1.2-2.7-2.7V69.9
			c0-1.5,1.2-2.8,2.8-2.8h10.5c1.5,0,2.8,1.2,2.8,2.8v9.6c0,1.5-1.2,3.1-2.7,3.1c-0.2,0-0.4,0.2-0.4,0.4c0,0.2,0.2,0.4,0.4,0.4H18
			c1.5,0,2.8,1.2,2.8,2.8V97.3z M39.4,92.3c0,0.9-0.8,1.7-1.7,1.7h-9.5c-0.2,0-0.4,0.2-0.4,0.4c0,0.2,0.2,0.4,0.4,0.4h10.4
			c0.4,0,0.8,0.4,0.8,0.8v3.6c0,0.4-0.4,0.8-0.8,0.8H23.3c-0.5,0-1-0.4-1-1V84.7c0-0.9,0.8-1.7,1.7-1.7h13.7c0.9,0,1.7,0.8,1.7,1.7
			V92.3z M57.6,98.9c0,0.7-0.5,1.2-1.2,1.2h-1.3c-1,0-1.9-0.8-1.9-1.9c0-0.2-0.2-0.4-0.4-0.4c-0.2,0-0.4,0.2-0.4,0.4
			c0,1-0.8,1.9-1.9,1.9h-7.8c-1,0-1.9-0.8-1.9-1.9V84.9c0-1,0.8-1.9,1.9-1.9h13.3c1.2,0,1.5,0.3,1.5,1.5V98.9z M76.7,98.5
			c0,0.9-0.7,1.5-1.5,1.5h-2.2c-0.9,0-1.5-0.7-1.5-1.5c0-0.2-0.2-0.4-0.4-0.4c-0.2,0-0.4,0.2-0.4,0.4c0,0.9-0.7,1.5-1.5,1.5h-2.2
			c-0.9,0-1.5-0.7-1.5-1.5c0-0.2-0.2-0.4-0.4-0.4c-0.2,0-0.4,0.2-0.4,0.4c0,0.9-0.7,1.5-1.5,1.5h-2.2c-0.9,0-1.5-0.7-1.5-1.5v-14
			c0-0.8,0.7-1.5,1.5-1.5h5.4c0.8,0,1.5,0.7,1.5,1.5c0,0.2,0.2,0.4,0.4,0.4c0.2,0,0.4-0.2,0.4-0.4c0-0.8,0.7-1.5,1.5-1.5h5.4
			c0.8,0,1.5,0.7,1.5,1.5V98.5z M95.3,92.3c0,0.9-0.8,1.7-1.7,1.7h-9.5c-0.2,0-0.4,0.2-0.4,0.4c0,0.2,0.2,0.4,0.4,0.4h10.4
			c0.4,0,0.8,0.4,0.8,0.8v3.6c0,0.4-0.4,0.8-0.8,0.8H79.2c-0.5,0-1-0.4-1-1V84.7c0-0.9,0.8-1.7,1.7-1.7h13.7c0.9,0,1.7,0.8,1.7,1.7
			V92.3z M114,97.7c0,1.3-1.1,2.4-2.4,2.4h-3.4c-1.3,0-2.4-1.1-2.4-2.4v-6.2c0-0.2-0.2-0.4-0.4-0.4c-0.2,0-0.4,0.2-0.4,0.4v6.2
			c0,1.3-1.1,2.4-2.4,2.4h-3.4c-1.3,0-2.4-1.1-2.4-2.4V85.4c0-1.3,1.1-2.4,2.4-2.4h12.3c1.3,0,2.4,1.1,2.4,2.4V97.7z"/>
		<path fill="#FFFFFF" d="M20.7,86.1v11.2c0,1.5-1.2,2.8-2.8,2.8H5.8c-1.5,0-2.7-1.2-2.7-2.7V69.9c0-1.5,1.2-2.8,2.8-2.8h10.5
			c1.5,0,2.8,1.2,2.8,2.8v9.6c0,1.5-1.2,3.1-2.7,3.1c-0.2,0-0.4,0.2-0.4,0.4c0,0.2,0.2,0.4,0.4,0.4H18
			C19.5,83.4,20.7,84.6,20.7,86.1z"/>
		<path fill="#FFFFFF" d="M27.8,94.4c0,0.2,0.2,0.4,0.4,0.4h10.4c0.4,0,0.8,0.4,0.8,0.8v3.6c0,0.4-0.4,0.8-0.8,0.8H23.3
			c-0.5,0-1-0.4-1-1V84.7c0-0.9,0.8-1.7,1.7-1.7h13.7c0.9,0,1.7,0.8,1.7,1.7v7.6c0,0.9-0.8,1.7-1.7,1.7h-9.5
			C27.9,94,27.8,94.2,27.8,94.4z"/>
		<path fill="#FFFFFF" d="M83.7,94.4c0,0.2,0.2,0.4,0.4,0.4h10.4c0.4,0,0.8,0.4,0.8,0.8v3.6c0,0.4-0.4,0.8-0.8,0.8H79.2
			c-0.5,0-1-0.4-1-1V84.7c0-0.9,0.8-1.7,1.7-1.7h13.7c0.9,0,1.7,0.8,1.7,1.7v7.6c0,0.9-0.8,1.7-1.7,1.7h-9.5
			C83.9,94,83.7,94.2,83.7,94.4z"/>
		<path fill="#FFFFFF" d="M57.6,84.5v14.4c0,0.7-0.5,1.2-1.2,1.2h-1.3c-1,0-1.9-0.8-1.9-1.9c0-0.2-0.2-0.4-0.4-0.4
			c-0.2,0-0.4,0.2-0.4,0.4c0,1-0.8,1.9-1.9,1.9h-7.8c-1,0-1.9-0.8-1.9-1.9V84.9c0-1,0.8-1.9,1.9-1.9h13.3
			C57.3,83,57.6,83.3,57.6,84.5z"/>
		<path fill="#FFFFFF" d="M76.7,84.5v14c0,0.9-0.7,1.5-1.5,1.5h-2.2c-0.9,0-1.5-0.7-1.5-1.5c0-0.2-0.2-0.4-0.4-0.4
			c-0.2,0-0.4,0.2-0.4,0.4c0,0.9-0.7,1.5-1.5,1.5h-2.2c-0.9,0-1.5-0.7-1.5-1.5c0-0.2-0.2-0.4-0.4-0.4c-0.2,0-0.4,0.2-0.4,0.4
			c0,0.9-0.7,1.5-1.5,1.5h-2.2c-0.9,0-1.5-0.7-1.5-1.5v-14c0-0.8,0.7-1.5,1.5-1.5h5.4c0.8,0,1.5,0.7,1.5,1.5c0,0.2,0.2,0.4,0.4,0.4
			c0.2,0,0.4-0.2,0.4-0.4c0-0.8,0.7-1.5,1.5-1.5h5.4C76,83,76.7,83.7,76.7,84.5z"/>
		<path fill="#FFFFFF" d="M114,85.4v12.3c0,1.3-1.1,2.4-2.4,2.4h-3.4c-1.3,0-2.4-1.1-2.4-2.4v-6.2c0-0.2-0.2-0.4-0.4-0.4
			c-0.2,0-0.4,0.2-0.4,0.4v6.2c0,1.3-1.1,2.4-2.4,2.4h-3.4c-1.3,0-2.4-1.1-2.4-2.4V85.4c0-1.3,1.1-2.4,2.4-2.4h12.3
			C112.9,83,114,84.1,114,85.4z"/>
	</g>
</g>
</svg>
