<?xml version="1.0" encoding="utf-8"?>
<!-- Generator: Adobe Illustrator 26.1.0, SVG Export Plug-In . SVG Version: 6.00 Build 0)  -->
<svg version="1.1" id="Layer_1" xmlns="http://www.w3.org/2000/svg" xmlns:xlink="http://www.w3.org/1999/xlink" x="0px" y="0px"
	 viewBox="0 0 212.2 212.2" enable-background="new 0 0 212.2 212.2" xml:space="preserve">
<g>
	<path fill="#37475a" d="M71.5,161.3l-2.8-1.9l-9.2,13.9l2.8,1.9c2.5,1.6,4.1,1.3,5.9-1.5l4.3-6.5C74.3,164.5,73.9,162.9,71.5,161.3
		z"/>
	<path fill="#37475a" d="M179.7,127.1l-1.5-0.4c-0.4-0.1-0.6,0-0.7,0.3c-0.1,0.3,0.1,0.5,0.4,0.6l1.5,0.4c0.4,0.1,0.6,0,0.6-0.3
		C180.2,127.4,180.1,127.2,179.7,127.1z"/>
	<path fill="#37475a" d="M46.8,157.8l-0.3,0.3c-0.3,0.3-0.4,0.5-0.2,0.8c0.2,0.3,0.5,0.2,0.9-0.1l0.3-0.2c0.4-0.4,0.5-0.6,0.2-0.9
		C47.5,157.4,47.2,157.5,46.8,157.8z"/>
	<path fill="#37475a" d="M170.3,150.5c0.1-0.2,0.1-0.5-0.2-0.7l-1.3-0.8c-0.3-0.2-0.5-0.2-0.7,0.1c-0.2,0.3-0.1,0.5,0.2,0.7l1.3,0.8
		C170,150.8,170.2,150.8,170.3,150.5z"/>
	<polygon fill="#37475a" points="160.5,157.2 162.3,159.2 162.8,158.6 160.5,157.2 	"/>
	<path fill="#37475a" d="M176.9,137.5c0.1-0.3,0-0.6-0.5-0.8l-2.2-0.9c-0.5-0.2-0.7-0.1-0.9,0.2c-0.1,0.3,0,0.6,0.5,0.8l2.2,0.9
		C176.5,137.9,176.7,137.9,176.9,137.5z"/>
	<path fill="#37475a" d="M43.2,152.1c-0.2-0.3-0.5-0.3-0.9,0l-1.9,1.4c-0.4,0.3-0.5,0.6-0.3,0.9c0.2,0.3,0.5,0.3,0.9,0L43,153
		C43.4,152.7,43.5,152.4,43.2,152.1z"/>
	<path fill="#37475a" d="M106.1,0C47.5,0,0,47.5,0,106.1c0,58.6,47.5,106.1,106.1,106.1c58.6,0,106.1-47.5,106.1-106.1
		C212.2,47.5,164.7,0,106.1,0z M176.4,133.5l2.4,0.8l-0.3,0.8l-4.9-1.6l0.3-0.8l1.5,0.5c0.2,0.1,0.4,0.2,0.7,0.2v0
		c-0.6-0.3-0.8-0.7-0.7-1.2c0.2-0.5,0.6-0.7,1.2-0.4l2.7,0.9l-0.3,0.8l-2.5-0.8c-0.4-0.1-0.6-0.1-0.7,0.2
		C175.8,133.1,176,133.3,176.4,133.5z M174.5,144.6l-0.1-0.1l-0.2,0.5l-1-0.5l0.5-0.9l1.1,0.6c0.7,0.3,0.8,0.8,0.5,1.4l-0.5-0.2l0,0
		C174.9,144.9,174.9,144.8,174.5,144.6z M170.5,146.6l2.2,1.2l-0.4,0.7l-3.3-1.9l0.4-0.7l0.2,0.1c0.2,0.1,0.4,0.2,0.6,0.4l0,0
		c-0.6-0.4-0.7-0.8-0.4-1.3c0.3-0.5,0.7-0.5,1.3-0.2l2.5,1.4l-0.4,0.7l-2.3-1.3c-0.3-0.2-0.5-0.2-0.7,0.1
		C170,146.1,170.1,146.4,170.5,146.6z M166.2,157.4l-0.5,0.7l-4.1-3.2l0.5-0.7l2.2,1.7l0,0l-0.7-1.6l0.6-0.7l0.7,1.8l2.3,0.5
		l-0.6,0.7l-2-0.5l0,0L166.2,157.4z M163.5,160.7l-0.5,0.6l-3.4-4.1l0.8-1l4.5,2.7l-0.6,0.7l-1-0.6l-0.7,0.8L163.5,160.7z
		 M159.5,163c-0.1,0.6-0.6,1-1.2,1c-0.7,0-1.2-0.5-1.2-1.2c0-0.6,0.4-1.1,1-1.2c0.1,0,0.1,0,0.2,0c0.7,0,1.2,0.5,1.2,1.2
		C159.5,162.8,159.5,162.9,159.5,163z M164.9,152.8l0.5-0.7l0.1,0.1c0.2,0.2,0.4,0.3,0.7,0.5l0,0c-0.6-0.5-0.7-0.9-0.4-1.3
		c0.3-0.4,0.7-0.4,1.3,0l0.6,0.4l-0.5,0.7l-0.4-0.3c-0.3-0.2-0.5-0.2-0.6,0c-0.2,0.2-0.1,0.5,0.4,0.8l1.9,1.4L168,155L164.9,152.8z
		 M168,150.6c-0.8-0.5-1-1.1-0.5-1.8l0,0c0.4-0.7,1.1-0.8,1.9-0.3l1.1,0.7c0.8,0.5,1,1.1,0.5,1.8l0,0.1c-0.5,0.7-1.1,0.8-1.8,0.3
		L168,150.6z M173.5,137.7c-1-0.4-1.3-1-1-1.9l0-0.1c0.3-0.8,1-1.1,2-0.7l2.1,0.8c1,0.4,1.3,1,1,1.8l0,0.1c-0.3,0.9-1,1.1-2,0.7
		L173.5,137.7z M174.9,129.8l0.2-0.8l0.9,0.3l-0.2,0.8L174.9,129.8z M176.1,130.1l0.2-0.8l3.7,1.1l-0.2,0.8L176.1,130.1z
		 M179.1,128.7l-1.2-0.3c-0.9-0.2-1.3-0.8-1.1-1.6l0,0c0.2-0.8,0.8-1.1,1.7-0.9l1.2,0.3c0.9,0.2,1.3,0.7,1.1,1.5l0,0.1
		C180.6,128.7,180,129,179.1,128.7z M180.1,123.2c-0.7,0-1.2-0.5-1.2-1.2c0-0.7,0.5-1.2,1.2-1.2c0.7,0,1.2,0.6,1.2,1.2
		C181.3,122.6,180.7,123.2,180.1,123.2z M12.5,66.6c5.1-12.1,12.4-23,21.8-32.3c9.3-9.3,20.2-16.7,32.3-21.8c12.5-5.3,25.8-8,39.5-8
		c13.7,0,27,2.7,39.5,8c12.1,5.1,23,12.4,32.3,21.8c9.3,9.3,16.6,20.2,21.8,32.3c4.7,11.1,7.3,22.9,7.9,35h-50.1
		c-2.3-26.3-24.4-47-51.3-47c-25,0-45.9,17.9-50.5,41.5L32.8,73.3l-3.2-3.2l-3.2,3.2L5.2,94.4C6.3,84.8,8.8,75.5,12.5,66.6z
		 M30.7,138.9l-0.9-2.2l4.8-1.9l0.9,2.2l-0.8,0.3l-0.6-1.5l-1.2,0.5l0.5,1.3l-0.8,0.3l-0.5-1.3l-1.3,0.5l0.6,1.4L30.7,138.9z
		 M29.8,132.2c0-0.7,0.6-1.2,1.2-1.2c0.7,0,1.2,0.5,1.2,1.2c0,0.7-0.6,1.2-1.2,1.2C30.4,133.4,29.8,132.8,29.8,132.2z M31.6,141.3
		L31.6,141.3c-0.4-0.8-0.2-1.3,0.6-1.7l0.1,0l0.3,0.8l-0.2,0.1c-0.3,0.1-0.4,0.3-0.3,0.6c0.1,0.3,0.3,0.3,0.6,0.2
		c0.3-0.1,0.3-0.2,0.3-0.8c0-0.7,0.1-1.2,0.7-1.4c0.7-0.3,1.2-0.1,1.5,0.6l0,0c0.4,0.8,0.2,1.3-0.6,1.6l-0.1,0l-0.4-0.8l0.1-0.1
		c0.3-0.2,0.4-0.3,0.3-0.6c-0.1-0.3-0.3-0.3-0.5-0.2c-0.3,0.1-0.3,0.2-0.3,0.8c0,0.7,0,1.1-0.7,1.5C32.4,142.2,31.9,142,31.6,141.3z
		 M34.8,147.3l-0.5-0.9l1-0.6l0.5,0.9L34.8,147.3z M36.1,143.2l-1.7,0.9c-0.3,0.1-0.3,0.3-0.2,0.6c0,0.1,0.1,0.2,0.1,0.2l-0.7,0.3
		c-0.1-0.1-0.1-0.2-0.2-0.3c-0.4-0.9-0.2-1.3,0.4-1.6l1.8-0.9l-0.3-0.5l0.7-0.3l0.3,0.5l0.9-0.4l0.4,0.7l-0.9,0.4l0.3,0.7l-0.6,0.3
		L36.1,143.2z M38,152.5l-1.4-2.2l0.6-0.4c2.3,0.2,2.9,0.2,3.6-0.2c0.4-0.3,0.5-0.5,0.3-0.7c-0.2-0.3-0.4-0.3-0.8,0l-0.3,0.2
		l-0.5-0.7l0.2-0.1c0.8-0.5,1.5-0.5,2,0.3l0,0c0.5,0.7,0.3,1.3-0.5,1.8c-1,0.6-2,0.5-3.4,0.4l0,0l0.8,1.3L38,152.5z M39.5,154.9
		L39.5,154.9c-0.6-0.8-0.4-1.5,0.4-2.1l1.8-1.3c0.9-0.6,1.6-0.6,2.1,0.2l0,0c0.5,0.7,0.4,1.4-0.5,2l-1.8,1.3
		C40.8,155.7,40.1,155.6,39.5,154.9z M42.6,158.7l-1.4-1.7l0.7-0.5l0.4,0.5l2.7-2.1l-0.5-0.4l0.7-0.5l0.7,0.5l0.4,0.5l-3.4,2.7
		l0.4,0.5L42.6,158.7z M48,159.3l-1.7,1.5c-0.8,0.7-1.5,0.7-2.1,0l-0.1-0.1c-0.6-0.7-0.5-1.4,0.3-2l0.1-0.1l0.6,0.7l-0.1,0.1
		c-0.4,0.3-0.4,0.6-0.2,0.9c0.2,0.3,0.5,0.2,0.9-0.1l1.1-0.9l0,0c-0.5,0.4-0.9,0.3-1.3-0.1c-0.4-0.5-0.3-1,0.4-1.6l0.4-0.4
		c0.7-0.6,1.4-0.6,2,0.1l0.1,0.1C48.9,157.9,48.8,158.6,48,159.3z M49.8,164c-0.7,0-1.2-0.5-1.2-1.2c0-0.7,0.5-1.2,1.2-1.2
		c0.7,0,1.2,0.5,1.2,1.2C51,163.4,50.4,164,49.8,164z M52.2,125.2c-0.5,0.5-1.4,0.5-1.9,0l-20.8-20.8L8.6,125.3
		c-0.3,0.3-0.6,0.4-0.9,0.4c-0.3,0-0.7-0.1-0.9-0.4c-0.5-0.5-0.5-1.4,0-1.9l22.8-22.8l22.6,22.6C52.7,123.8,52.7,124.6,52.2,125.2z
		 M52.2,114.1c-0.5,0.5-1.4,0.5-1.9,0L29.6,93.4L8.6,114.3c-0.3,0.3-0.6,0.4-0.9,0.4c-0.3,0-0.7-0.1-0.9-0.4c-0.5-0.5-0.5-1.4,0-1.9
		l22.8-22.8l22.6,22.6C52.7,112.8,52.7,113.6,52.2,114.1z M52.2,103.1c-0.5,0.5-1.4,0.5-1.9,0L29.6,82.3L8.6,103.3
		c-0.3,0.3-0.6,0.4-0.9,0.4c-0.3,0-0.7-0.1-0.9-0.4c-0.5-0.5-0.5-1.4,0-1.9l22.8-22.8l22.6,22.6C52.7,101.7,52.7,102.6,52.2,103.1z
		 M76.1,169.7L72,176c-3.5,5.3-7.2,5.5-11.8,2.5l-6.5-4.3l4.9-7.4l3.5-5.4l5.1-7.8l6.4,4.2C78.4,161,79.3,164.9,76.1,169.7z
		 M100.4,175.7l-0.2,0.9l-4-0.8l0.2-1.3c0.6-3.2-0.4-4.8-3-5.2c-2.6-0.5-4,0.6-4.6,3.8l-1.6,8.6c-0.6,3.2,0.4,4.8,3,5.3
		c2.5,0.5,4.1-0.7,4.7-3.8l0.2-1.1l4,0.8l-0.2,0.9c-1.2,6.4-4.4,8-9.2,7.1l-0.5-0.1c-5.2-1-7.3-4.5-6.2-10l1.5-8
		c1.1-5.7,4.4-8.1,9.5-7.2l0.3,0.1C99.3,166.6,101.4,170,100.4,175.7z M59.2,106.1c0-25.9,21-47,47-47c25.9,0,46.9,21,46.9,47
		s-21,47-46.9,47C80.2,153.1,59.2,132,59.2,106.1z M113.7,191.3l-5.1-24l4.2-0.9l4.2,20.1l11.3-2.4l0.8,4L113.7,191.3z M140.7,183
		l-2.1-3.2l2.9-9.5c1.2-4.2,1.2-5.4-0.1-7.3c-1.4-2.1-2.6-2.5-4.8-1c-2.3,1.5-2.6,2.9-1.3,5l0.3,0.5l-3.5,2.3l-0.2-0.3
		c-2.6-4-2-7.4,2.5-10.5l0.2-0.2c4.7-3.1,7.7-2.1,10.1,1.5c2.3,3.5,1.9,6.3,0.4,11.2l-1.4,4.6l0,0.1l8.2-5.4l2.2,3.3L140.7,183z
		 M164.6,186.7c-0.2,0.2-0.5,0.3-0.8,0.3c-0.4,0-0.8-0.2-1.1-0.5l-6.2-8.6c-0.4-0.6-0.3-1.4,0.3-1.9c0.6-0.4,1.4-0.3,1.9,0.3
		l6.2,8.6C165.4,185.4,165.2,186.2,164.6,186.7z M172.7,180.1c-0.2,0.2-0.6,0.3-0.9,0.3c-0.4,0-0.7-0.1-1-0.4l-7.1-7.9
		c-0.5-0.5-0.4-1.4,0.1-1.9c0.5-0.5,1.4-0.5,1.9,0.1l7.1,7.9C173.3,178.8,173.3,179.6,172.7,180.1z M180.1,172.7
		c-0.3,0.3-0.6,0.4-1,0.4c-0.3,0-0.6-0.1-0.9-0.3l-7.9-7.1c-0.6-0.5-0.6-1.3-0.1-1.9s1.3-0.6,1.9-0.1l7.9,7.1
		C180.6,171.3,180.6,172.2,180.1,172.7z M186.7,164.6c-0.3,0.4-0.7,0.5-1.1,0.5c-0.3,0-0.5-0.1-0.8-0.2l-8.6-6.2
		c-0.6-0.4-0.7-1.3-0.3-1.9c0.4-0.6,1.3-0.7,1.9-0.3l8.6,6.2C187,163.2,187.1,164,186.7,164.6z M192.4,155.9
		c-0.2,0.4-0.7,0.7-1.2,0.7c-0.2,0-0.5-0.1-0.7-0.2l-9.2-5.3c-0.6-0.4-0.9-1.2-0.5-1.8c0.4-0.6,1.2-0.9,1.8-0.5l9.2,5.3
		C192.5,154.5,192.7,155.3,192.4,155.9z M197.1,146.6c-0.2,0.5-0.7,0.8-1.2,0.8c-0.2,0-0.4,0-0.5-0.1l-9.7-4.3
		c-0.7-0.3-1-1.1-0.7-1.8c0.3-0.7,1.1-1,1.8-0.7l9.7,4.3C197.1,145.2,197.4,145.9,197.1,146.6z M200.8,136.9
		c-0.2,0.6-0.7,0.9-1.3,0.9c-0.1,0-0.3,0-0.4-0.1l-10.1-3.3c-0.7-0.2-1.1-1-0.9-1.7c0.2-0.7,1-1.1,1.7-0.9l10.1,3.3
		C200.7,135.4,201,136.2,200.8,136.9z M203.5,126.8c-0.1,0.6-0.7,1-1.3,1c-0.1,0-0.2,0-0.3,0l-10.4-2.2c-0.7-0.2-1.2-0.9-1-1.6
		c0.2-0.7,0.9-1.2,1.6-1l10.4,2.2C203.2,125.4,203.7,126.1,203.5,126.8z M205.1,116.5c-0.1,0.7-0.7,1.2-1.3,1.2h-0.1l-10.5-1.1
		c-0.7-0.1-1.3-0.7-1.2-1.5c0.1-0.7,0.7-1.3,1.5-1.2l10.5,1.1C204.7,115.1,205.2,115.8,205.1,116.5z"/>
	<path fill="#37475a" d="M159.7,94.8c0,0.7,0.6,1.3,1.3,1.3h42.6c0.7,0,1.3-0.6,1.3-1.3c0-0.7-0.6-1.3-1.3-1.3H161
		C160.3,93.5,159.7,94.1,159.7,94.8z"/>
	<path fill="#37475a" d="M157.8,87.6c0,0.7,0.6,1.3,1.3,1.3h42.6c0.7,0,1.3-0.6,1.3-1.3c0-0.7-0.6-1.3-1.3-1.3h-42.6
		C158.4,86.3,157.8,86.9,157.8,87.6z"/>
	<path fill="#37475a" d="M155.1,80.4c0,0.7,0.6,1.3,1.3,1.3h42.6c0.7,0,1.3-0.6,1.3-1.3c0-0.7-0.6-1.3-1.3-1.3h-42.6
		C155.7,79.1,155.1,79.7,155.1,80.4z"/>
	<path fill="#37475a" d="M45.5,51.2l-0.2,0.2c-2.5,2.8-2.2,5.6,1.1,8.5l6.7,6.1c3.2,2.9,6,3.1,8.6,0.2l0.2-0.3
		c2.6-2.9,2.1-5.6-1.1-8.5l-6.7-6.1C50.8,48.4,48,48.4,45.5,51.2z M47.7,53.4c1-1.1,2-1,3.6,0.4l7.3,6.6c1.6,1.4,1.8,2.5,0.8,3.6
		c-1,1.1-2.1,1-3.7-0.5l-7.3-6.6C46.9,55.5,46.7,54.5,47.7,53.4z"/>
	<polygon fill="#37475a" points="71.4,56.9 64.2,45.9 64.3,45.9 75.2,54.4 78.3,52.4 66.8,34.6 64.1,36.4 71.2,47.4 71.1,47.4 
		60.2,38.9 57.1,40.9 68.7,58.7 	"/>
	<polygon fill="#37475a" points="84.8,46.2 83,40.8 88.3,39 87.2,35.8 81.9,37.6 80.2,32.5 86.3,30.5 85.2,27.3 75.8,30.4 
		82.6,50.5 92,47.4 90.9,44.2 	"/>
	<polygon fill="#37475a" points="102.8,28 106.5,28.1 106,45.9 109.7,46 110.2,28.2 113.9,28.3 114,24.9 102.9,24.6 	"/>
	<polygon fill="#37475a" points="127.4,46 121.2,44.3 122.7,38.8 128.1,40.2 128.9,37 123.6,35.6 124.9,30.4 131.1,32 132,28.8 
		122.4,26.2 117,46.8 126.6,49.3 	"/>
	<path fill="#37475a" d="M132.2,51.8L135,48l3.6,1.9l-1.6,4.4l3.2,1.7l6.9-20.5l-4.6-2.5l-13.3,17L132.2,51.8z M143.3,36.7l0.1,0.1
		L139.7,47l-2.8-1.5L143.3,36.7z"/>
	<polygon fill="#37475a" points="145.2,60.1 158.2,47.2 158.2,47.2 147.4,62.2 150,65 165.1,54.1 165.2,54.2 152.2,67.1 154.7,69.6 
		169.7,54.7 165.6,50.5 153,59.5 153,59.5 162.1,47 157.9,42.8 142.9,57.7 	"/>
	<path fill="#37475a" d="M30,58.2c0-1.8-1.5-3.4-3.4-3.4c-1.8,0-3.4,1.5-3.4,3.4c0,1.9,1.5,3.4,3.4,3.4C28.5,61.6,30,60.1,30,58.2z"
		/>
	<path fill="#37475a" d="M33.6,51c1.8,0.3,3.5-1,3.8-2.9s-1-3.5-2.9-3.8c-1.8-0.3-3.5,1-3.8,2.9C30.5,49,31.8,50.7,33.6,51z"/>
	<path fill="#37475a" d="M42,41.4c1.8,0.5,3.7-0.5,4.2-2.3c0.5-1.8-0.5-3.7-2.3-4.2c-1.8-0.5-3.7,0.5-4.2,2.3
		C39.2,39,40.2,40.9,42,41.4z"/>
	<path fill="#37475a" d="M51.6,33.1c1.7,0.8,3.7,0,4.4-1.7c0.8-1.7,0-3.7-1.7-4.4c-1.7-0.8-3.7,0-4.4,1.7
		C49.2,30.4,49.9,32.4,51.6,33.1z"/>
	<path fill="#37475a" d="M62.3,26.3c1.6,1,3.6,0.5,4.6-1.1c1-1.6,0.5-3.7-1.1-4.6c-1.6-1-3.7-0.5-4.6,1.1
		C60.2,23.2,60.7,25.3,62.3,26.3z"/>
	<path fill="#37475a" d="M78.6,20.5c1.2-1.4,1-3.5-0.4-4.7c-1.4-1.2-3.5-1-4.7,0.4c-1.2,1.4-1,3.5,0.4,4.7
		C75.3,22.1,77.4,22,78.6,20.5z"/>
	<path fill="#37475a" d="M90.8,17.5c1.4-1.2,1.5-3.4,0.2-4.8c-1.2-1.4-3.4-1.5-4.8-0.2c-1.4,1.2-1.5,3.4-0.2,4.8
		C87.2,18.7,89.4,18.8,90.8,17.5z"/>
	<path fill="#37475a" d="M103.2,16.2c1.5-1,1.9-3.1,0.9-4.7c-1-1.5-3.1-1.9-4.7-0.9c-1.5,1-1.9,3.1-0.9,4.7
		C99.6,16.9,101.7,17.3,103.2,16.2z"/>
	<path fill="#37475a" d="M135.3,134.4l-1-0.7v-1.2l0,0l0.6,0.2c0.1,0,0.1,0,0.2,0.1c0,0,0.1,0,0.2,0c0.1,0,0.1,0,0.2,0
		c0.1,0,0.2,0,0.2,0c0.1,0,0.2,0,0.2-0.1l0.1,0l6.9-2.9c0.4-0.2,0.7-0.6,0.7-1.1v-10v0c0-0.1,0-0.2,0-0.2c0,0,0-0.1,0-0.1
		c0-0.1,0-0.1-0.1-0.2c0,0,0,0,0,0c0-0.1-0.1-0.1-0.1-0.2c0,0,0,0-0.1-0.1c-0.1-0.1-0.1-0.1-0.2-0.2c0,0-0.1,0-0.1-0.1l0,0
		c0,0,0,0,0,0l-9.5-4.4l3.4-1.6c0.4-0.2,0.7-0.6,0.7-1v-22v0c0-0.1,0-0.2,0-0.3c0-0.1-0.1-0.2-0.1-0.3c0-0.1-0.1-0.2-0.2-0.2
		c-0.1-0.1-0.1-0.1-0.2-0.2c-0.1,0-0.1-0.1-0.2-0.1l-29.9-12.9c-0.3-0.1-0.7-0.1-1,0L69.5,92.2c-0.1,0-0.1,0.1-0.1,0.1h0
		c-0.1,0-0.1,0.1-0.2,0.2c-0.1,0.1-0.2,0.2-0.2,0.3c0,0.1-0.1,0.1-0.1,0.2c0,0,0,0,0,0c0,0.1,0,0.2,0,0.3v0v22
		c0,0.5,0.3,0.9,0.7,1.1l8.9,3.8l5.1,2.2h0c0,0,0,0,0,0l5,2.2l10.8,4.6l0.1,0.1l0,0c0,0,0,0,0.1,0c0.1,0,0.1,0,0.1,0
		c0.1,0,0.2,0,0.2,0c0.1,0,0.2,0,0.2,0c0.1,0,0.1,0,0.2-0.1c0,0,0,0,0,0l12.9-6.2l14.2,6.6v3.7l-0.9-0.6c-0.5-0.4-1.2-0.2-1.6,0.3
		c-0.4,0.5-0.2,1.2,0.3,1.6l2.7,1.8c0,0,0,0,0,0c0,0,0,0,0.1,0l2,1.1c0.2,0.1,0.4,0.1,0.5,0.1c0.4,0,0.8-0.2,1-0.6
		c0.3-0.6,0.1-1.3-0.5-1.6l-1.4-0.7v-1.2c0.1,0.2,0.2,0.5,0.5,0.6l2.1,1.3c0,0,0,0,0,0l1.6,1c0.2,0.1,0.4,0.2,0.6,0.2
		c0.4,0,0.8-0.2,1-0.5C135.9,135.4,135.8,134.7,135.3,134.4z M141.1,128.1l-4.7,1.9v-7.6v0l4.7-2V128.1z M139.4,118.7l-4.1,1.7
		l-27.4-12.7l4.1-1.7l4,1.8l6.6,3.1l7.5,3.5L139.4,118.7z M117.5,103.2l5.3-2.5v7.9l-5.3-2.4V103.2z M106.2,77.1l27.2,11.7
		l-10.6,5.1l-22.8,11l-15.1-6.5l-12-5.2L106.2,77.1z M82.8,119.5l-2.8-1.2v-5.9l2.8,1.1V119.5z M85.1,114.5l2.8,1.1v6l-2.8-1.2
		V114.5z M89.4,113.8l-5-2.1c0,0,0,0,0,0h0l-5.1-2.1c-0.4-0.2-0.8-0.1-1.1,0.1c-0.3,0.2-0.5,0.6-0.5,1v6.6l-6.6-2.8V95l27.7,11.9
		v19.5l-8.7-3.7v-7.8C90.2,114.4,89.9,114,89.4,113.8z M101.1,126.3v-19.4v0l33.8-16.3V110l-4.4,2.1l-5.4-2.5c0-0.1,0-0.1,0-0.2
		c0,0,0,0,0,0V98.8c0-0.1,0-0.2,0-0.3c-0.1-0.2-0.1-0.4-0.3-0.5c-0.1-0.1-0.1-0.1-0.2-0.2c-0.3-0.2-0.8-0.2-1.1-0.1l-7.6,3.7
		c-0.1,0-0.2,0.1-0.3,0.2c-0.2,0.2-0.4,0.5-0.4,0.8v2.5l-2.8-1.3c-0.3-0.1-0.6-0.1-0.9,0l-6.9,2.9c0,0,0,0,0,0c0,0-0.1,0-0.1,0.1v0
		c0,0,0,0,0,0h0c0,0,0,0,0,0c0,0-0.1,0-0.1,0.1c0,0-0.1,0-0.1,0.1c0,0,0,0,0,0c0,0-0.1,0.1-0.1,0.1c0,0,0,0,0,0l0,0c0,0,0,0,0,0.1
		c0,0.1-0.1,0.1-0.1,0.2c0,0,0,0,0,0.1c0,0,0,0,0,0c0,0.1,0,0.1,0,0.2v0v10.1c0,0.5,0.3,0.8,0.7,1l6.2,2.9L101.1,126.3z M106.2,117
		v-7.5l28,12.9v7.5l-0.6-0.3c0,0,0,0,0,0l-4.1-1.9c0,0-0.1,0-0.1-0.1c0,0,0,0,0,0l-15.3-7.1L106.2,117z M130,132.4
		c0,0.1-0.1,0.2-0.1,0.2v-2.1l0,0l2,0.9l0,0v0.8l-0.3-0.2C131.1,131.7,130.3,131.9,130,132.4z"/>
</g>
</svg>
