<?xml version="1.0" encoding="utf-8"?>
<!-- Generator: Adobe Illustrator 26.1.0, SVG Export Plug-In . SVG Version: 6.00 Build 0)  -->
<svg version="1.1" id="Layer_1" xmlns="http://www.w3.org/2000/svg" xmlns:xlink="http://www.w3.org/1999/xlink" x="0px" y="0px"
	 viewBox="0 0 569.2 201.7" style="enable-background:new 0 0 569.2 201.7;" xml:space="preserve">
<style type="text/css">
	.st0{fill:#3A82C4;}
	.st1{fill:#FFFFFF;}
	.st2{fill:#fff;}
</style>
<g>
	<g>
		<polygon class="st2" points="266.7,86.3 282.8,95.3 185.1,95.3 204.4,58.9 151.8,58.9 137.4,86 153.6,95.3 56,95.3 75.3,58.9 
			0,58.9 31.2,0 312.4,0 		"/>
		<polygon class="st2" points="523.3,86.6 539.3,95.3 313.2,95.3 363.7,0 440.5,0 405.3,66.6 457.1,66.6 492.4,0 569.2,0 		"/>
	</g>
	<g>
		<polygon class="st2" points="127.1,106.4 76.6,201.7 0,201.7 50.5,106.4 		"/>
		<polygon class="st2" points="513.2,106.4 462.7,201.7 385.9,201.7 420.4,136.5 368.6,136.5 334.1,201.7 129.1,201.7 179.6,106.4 
			256.4,106.4 237.1,142.8 288.5,142.8 307.8,106.4 		"/>
	</g>
</g>
</svg>
