<?xml version="1.0" encoding="utf-8"?>
<!-- Generator: Adobe Illustrator 26.1.0, SVG Export Plug-In . SVG Version: 6.00 Build 0)  -->
<svg version="1.1" id="Layer_1" xmlns="http://www.w3.org/2000/svg" xmlns:xlink="http://www.w3.org/1999/xlink" x="0px" y="0px"
	 viewBox="0 0 917.2 1000" enable-background="new 0 0 917.2 1000" xml:space="preserve">
<g>
	<rect x="21.1" y="21.1" fill="#33AA63" width="875.1" height="957.8"/>
	<g>
		<g>
			<path fill="#83F96E" d="M896.1,222.1v88.3c0,13.7-11,24.6-24.5,24.6H747.5c0-68.2-55.8-124-124-124H293.7
				c-68.2,0-123.9,55.8-123.9,124H45.7c-13.6,0-24.6-11-24.6-24.6v-88.3c0-7,3-13.7,8.3-18.4l113.9-101.1c4.6-4,10.3-6.2,16.4-6.2
				H313c13.6,0,24.5,11.1,24.5,24.6c0,6.8,2.8,12.9,7.3,17.4c4.5,4.5,10.5,7.3,17.4,7.3h192.9c6.7,0,12.9-2.8,17.4-7.3
				c4.4-4.5,7.2-10.5,7.2-17.4c0-13.6,11.1-24.6,24.6-24.6h153.4c6,0,11.8,2.2,16.4,6.2l113.8,101.1
				C893.2,208.5,896.1,215.1,896.1,222.1z"/>
			<path fill="#231F20" d="M871.6,356.2H747.5c-11.6,0-21.1-9.4-21.1-21.1c0-56.7-46.2-102.9-102.9-102.9H293.7
				c-56.7,0-102.8,46.2-102.8,102.9c0,11.6-9.4,21.1-21.1,21.1H45.7C20.5,356.2,0,335.7,0,310.4v-88.3c0-12.9,5.5-25.3,15.2-34
				l114-101.2c8.4-7.4,19.2-11.6,30.4-11.6H313c25.2,0,45.6,20.5,45.6,45.7c0,0.3,0,1.4,1.1,2.5c1,1,1.9,1.1,2.5,1.1h192.9
				c1.2,0,2.1-0.7,2.5-1.1c1-1,1-2.1,1-2.5c0-25.2,20.5-45.7,45.7-45.7h153.4c11.2,0,22,4.1,30.4,11.6l113.8,101
				c9.8,8.7,15.4,21.1,15.4,34.2v88.3C917.2,335.7,896.7,356.2,871.6,356.2z M767.1,314h104.5c1.9,0,3.5-1.6,3.5-3.5v-88.3
				c0-0.7-0.2-1.8-1.2-2.6L760.1,118.5c-0.7-0.6-1.5-0.9-2.4-0.9H604.3c-1.9,0-3.5,1.6-3.5,3.5c0,12.1-4.7,23.5-13.2,32.2
				c-8.8,8.8-20.3,13.6-32.4,13.6H362.2c-12.2,0-23.6-4.8-32.3-13.4c-8.7-8.7-13.4-20.1-13.4-32.3c0-2-1.6-3.5-3.5-3.5H159.6
				c-0.9,0-1.7,0.3-2.4,0.9L43.3,219.5c-0.7,0.6-1.2,1.6-1.2,2.6v88.3c0,2,1.6,3.5,3.5,3.5h104.5c10.2-70,70.7-124,143.5-124h329.8
				C696.3,190,756.8,244,767.1,314z"/>
		</g>
		<g>
			<path fill="#83F96E" d="M358.9,211.1l-189.1,124c0-68.2,55.8-124,123.9-124H358.9z"/>
			<path fill="#231F20" d="M169.8,356.2c-3.4,0-6.9-0.8-10-2.5c-6.8-3.7-11.1-10.8-11.1-18.6c0-80,65-145.1,145-145.1h65.2
				c9.3,0,17.5,6.1,20.2,15.1c2.7,8.9-0.8,18.6-8.6,23.7l-189.1,124C177.8,355,173.8,356.2,169.8,356.2z M288,232.3
				c-37.7,2.1-70,24.5-86.2,56.5L288,232.3z"/>
		</g>
		<g>
			<path fill="#83F96E" d="M747.5,335.1l-189.2-124h65.2C691.7,211.1,747.5,266.9,747.5,335.1z"/>
			<path fill="#231F20" d="M747.5,356.2c-4,0-8.1-1.2-11.6-3.5l-189.2-124c-7.8-5.1-11.3-14.7-8.6-23.7c2.7-8.9,10.9-15.1,20.2-15.1
				h65.2c80,0,145.1,65.1,145.1,145.1c0,7.7-4.2,14.9-11.1,18.6C754.4,355.3,750.9,356.2,747.5,356.2z M629.2,232.3l86.2,56.5
				C699.3,256.9,666.9,234.4,629.2,232.3z"/>
		</g>
	</g>
	<g>
		<g>
			<path fill="#83F96E" d="M896.1,685.7V774c0,7-3,13.7-8.3,18.4L774.1,893.6c-4.6,4-10.4,6.2-16.4,6.2H604.3
				c-13.6,0-24.6-11-24.6-24.5c0-6.8-2.8-13-7.2-17.5c-4.5-4.4-10.6-7.2-17.4-7.2H362.2c-6.8,0-12.9,2.8-17.4,7.2
				c-4.5,4.5-7.3,10.6-7.3,17.5c0,13.6-11,24.5-24.5,24.5H159.6c-6.1,0-11.8-2.2-16.4-6.2L29.3,792.4c-5.2-4.6-8.3-11.4-8.3-18.4
				v-88.3c0-13.6,11.1-24.6,24.6-24.6h124.1v3.8c0,68.2,55.8,124,123.9,124h329.8c68.2,0,124-55.8,124-124v-3.8h124.1
				C885.2,661.1,896.1,672.2,896.1,685.7z"/>
			<path fill="#231F20" d="M757.7,920.8H604.3c-25.2,0-45.7-20.5-45.7-45.6c0-1.3-0.6-2.2-1.1-2.7c-0.2-0.1-1.1-0.9-2.3-0.9H362.2
				c-0.4,0-1.5,0-2.6,1.1c-0.6,0.6-0.9,1.4-0.9,2.4c0,25.2-20.5,45.6-45.6,45.6H159.6c-11.1,0-21.8-4-30.2-11.3l-114-101.3
				C5.6,799.6,0,787.1,0,774v-88.3C0,660.5,20.5,640,45.7,640h124.1c11.6,0,21.1,9.4,21.1,21.1v3.8c0,56.7,46.1,102.9,102.8,102.9
				h329.8c56.7,0,102.9-46.2,102.9-102.9v-3.8c0-11.6,9.4-21.1,21.1-21.1h124.1c25.2,0,45.6,20.5,45.6,45.7V774
				c0,13.2-5.6,25.7-15.5,34.3l-113.6,101C779.5,916.8,768.8,920.8,757.7,920.8z M362.2,829.5h192.9c12.1,0,23.5,4.7,32.1,13.2
				c8.8,9,13.5,20.4,13.5,32.5c0,1.9,1.6,3.5,3.5,3.5h153.4c0.9,0,1.8-0.3,2.5-1l113.6-101c0.8-0.7,1.2-1.6,1.2-2.6v-88.3
				c0-2-1.6-3.5-3.5-3.5h-104C759,754.1,697.7,810,623.5,810H293.7c-74.1,0-135.4-55.9-144-127.8h-104c-1.9,0-3.5,1.6-3.5,3.5V774
				c0,1,0.4,2,1.2,2.6l113.9,101.1c0.6,0.5,1.4,0.8,2.4,0.8H313c1.9,0,3.5-1.5,3.5-3.5c0-12.2,4.8-23.7,13.4-32.4
				C338.7,834.2,350.1,829.5,362.2,829.5z"/>
		</g>
	</g>
	<g>
		<path fill="#5CF779" d="M747.5,335.1v329.8c0,68.2-55.8,124-124,124H293.7c-68.2,0-123.9-55.8-123.9-124V335.1
			c0-68.2,55.8-124,123.9-124h329.8C691.7,211.1,747.5,266.9,747.5,335.1z"/>
		<path fill="#231F20" d="M623.5,810H293.7c-80,0-145-65.1-145-145.1V335.1c0-80,65-145.1,145-145.1h329.8
			c80,0,145.1,65.1,145.1,145.1v329.8C768.6,744.9,703.5,810,623.5,810z M293.7,232.2c-56.7,0-102.8,46.2-102.8,102.9v329.8
			c0,56.7,46.1,102.9,102.8,102.9h329.8c56.7,0,102.9-46.2,102.9-102.9V335.1c0-56.7-46.2-102.9-102.9-102.9H293.7z"/>
	</g>
	<g>
		<path fill="#33AA63" d="M169.8,393.5v209.2h-60.1c-5.8,0-10.6-4.8-10.6-10.6V404.2c0-5.9,4.8-10.6,10.6-10.6H169.8z"/>
		<path fill="#231F20" d="M190.9,623.8h-81.1c-17.5,0-31.7-14.2-31.7-31.7V404.2c0-17.5,14.2-31.7,31.7-31.7h81.1V623.8z
			 M120.2,581.6h28.5v-167h-28.5V581.6z"/>
	</g>
	<g>
		<path fill="#33AA63" d="M819.7,404.2v187.7c0,5.9-4.8,10.8-10.8,10.8h-61.4V393.5h61.4C814.9,393.5,819.7,398.3,819.7,404.2z"/>
		<path fill="#231F20" d="M808.9,623.8h-82.5V372.4h82.5c17.6,0,31.9,14.3,31.9,31.8v187.7C840.8,609.5,826.5,623.8,808.9,623.8z
			 M768.6,581.6h30v-167h-30V581.6z"/>
	</g>
	<g>
		<circle fill="#231F20" cx="384.8" cy="96.4" r="8.2"/>
	</g>
	<g>
		<circle fill="#231F20" cx="412.9" cy="96.4" r="8.2"/>
	</g>
	<g>
		<circle fill="#231F20" cx="440.9" cy="96.4" r="8.2"/>
	</g>
	<g>
		<circle fill="#231F20" cx="468.9" cy="96.4" r="8.2"/>
	</g>
	<g>
		<circle fill="#231F20" cx="496.9" cy="96.4" r="8.2"/>
	</g>
	<g>
		<circle fill="#231F20" cx="524.9" cy="96.4" r="8.2"/>
	</g>
	<g>
		<circle fill="#231F20" cx="384.8" cy="69.5" r="8.2"/>
	</g>
	<g>
		<circle fill="#231F20" cx="412.9" cy="69.5" r="8.2"/>
	</g>
	<g>
		<circle fill="#231F20" cx="440.9" cy="69.5" r="8.2"/>
	</g>
	<g>
		<circle fill="#231F20" cx="468.9" cy="69.5" r="8.2"/>
	</g>
	<g>
		<circle fill="#231F20" cx="496.9" cy="69.5" r="8.2"/>
	</g>
	<g>
		<circle fill="#231F20" cx="524.9" cy="69.5" r="8.2"/>
	</g>
	<g>
		<g>
			<circle fill="#231F20" cx="380.8" cy="899.7" r="5.7"/>
		</g>
		<g>
			<circle fill="#231F20" cx="400.4" cy="899.7" r="5.7"/>
		</g>
		<g>
			<circle fill="#231F20" cx="420.1" cy="899.7" r="5.7"/>
		</g>
		<g>
			<circle fill="#231F20" cx="439.8" cy="899.7" r="5.7"/>
		</g>
		<g>
			<circle fill="#231F20" cx="459.5" cy="899.7" r="5.7"/>
		</g>
		<g>
			<circle fill="#231F20" cx="479.2" cy="899.7" r="5.7"/>
		</g>
		<g>
			<circle fill="#231F20" cx="498.8" cy="899.7" r="5.7"/>
		</g>
		<g>
			<circle fill="#231F20" cx="518.5" cy="899.7" r="5.7"/>
		</g>
		<g>
			<circle fill="#231F20" cx="538.2" cy="899.7" r="5.7"/>
		</g>
		<g>
			<circle fill="#231F20" cx="380.8" cy="916.6" r="5.7"/>
		</g>
		<g>
			<circle fill="#231F20" cx="400.4" cy="916.6" r="5.7"/>
		</g>
		<g>
			<circle fill="#231F20" cx="420.1" cy="916.6" r="5.7"/>
		</g>
		<g>
			<circle fill="#231F20" cx="439.8" cy="916.6" r="5.7"/>
		</g>
		<g>
			<circle fill="#231F20" cx="459.5" cy="916.6" r="5.7"/>
		</g>
		<g>
			<circle fill="#231F20" cx="479.2" cy="916.6" r="5.7"/>
		</g>
		<g>
			<circle fill="#231F20" cx="498.8" cy="916.6" r="5.7"/>
		</g>
		<g>
			<circle fill="#231F20" cx="518.5" cy="916.6" r="5.7"/>
		</g>
		<g>
			<circle fill="#231F20" cx="538.2" cy="916.6" r="5.7"/>
		</g>
	</g>
	<polygon fill="#F4C95D" points="28,875.5 31.7,979.5 141.7,975 33,865.1 	"/>
	<path fill="#231F20" d="M902.2,1000H15c-8.3,0-15-6.7-15-15V15C0,6.7,6.7,0,15,0h887.2c8.3,0,15,6.7,15,15V985
		C917.2,993.3,910.5,1000,902.2,1000z M57.2,957.8H860c8.3,0,15-6.7,15-15V57.2c0-8.3-6.7-15-15-15H57.2c-8.3,0-15,6.7-15,15v885.6
		C42.2,951.1,48.9,957.8,57.2,957.8z"/>
	<g>
		<polygon fill="#231F20" points="134.1,993.2 6.5,861 27.1,840.8 154.6,973.1 		"/>
	</g>
</g>
</svg>
