<?xml version="1.0" encoding="utf-8"?>
<!-- Generator: Adobe Illustrator 26.1.0, SVG Export Plug-In . SVG Version: 6.00 Build 0)  -->
<svg version="1.1" id="Layer_1" xmlns="http://www.w3.org/2000/svg" xmlns:xlink="http://www.w3.org/1999/xlink" x="0px" y="0px"
	 viewBox="0 0 1000 1000" enable-background="new 0 0 1000 1000" xml:space="preserve">
<g>
	<path fill="#662D91" d="M957.1,500.7v216.1H579.9V700c0-5.7-2.3-10.9-6.1-14.7c-3.8-3.8-9-6.1-14.7-6.1c-11.4,0-20.8,9.4-20.8,20.8
		v16.8H39.4V500.7"/>
	<g>
		
			<rect x="399.5" y="145.7" transform="matrix(-1.836970e-16 1 -1 -1.836970e-16 1052.3717 54.804)" fill="#AD55E0" width="198.5" height="815.8"/>
		<path fill="#231F20" d="M906.7,667.1H90.9c-7.9,0-14.3-6.4-14.3-14.3V454.4c0-7.9,6.4-14.3,14.3-14.3h815.8
			c7.9,0,14.3,6.4,14.3,14.3v198.5C920.9,660.7,914.5,667.1,906.7,667.1z M105.2,638.6h787.2V468.6H105.2V638.6z"/>
	</g>
	<g>
		<path fill="#231F20" d="M90.9,575c-7.9,0-14.3-6.4-14.3-14.3V416.8c0-7.9,6.4-14.3,14.3-14.3s14.3,6.4,14.3,14.3v143.9
			C105.2,568.6,98.8,575,90.9,575z"/>
	</g>
	<g>
		<path fill="#231F20" d="M150.7,667.1c-7.9,0-14.3-6.4-14.3-14.3v-236c0-7.9,6.4-14.3,14.3-14.3c7.9,0,14.3,6.4,14.3,14.3v236
			C164.9,660.7,158.6,667.1,150.7,667.1z"/>
	</g>
	<g>
		<path fill="#231F20" d="M210.4,667.1c-7.9,0-14.3-6.4-14.3-14.3v-236c0-7.9,6.4-14.3,14.3-14.3c7.9,0,14.3,6.4,14.3,14.3v236
			C224.7,660.7,218.3,667.1,210.4,667.1z"/>
	</g>
	<g>
		<path fill="#231F20" d="M270.2,667.1c-7.9,0-14.3-6.4-14.3-14.3v-236c0-7.9,6.4-14.3,14.3-14.3s14.3,6.4,14.3,14.3v236
			C284.5,660.7,278.1,667.1,270.2,667.1z"/>
	</g>
	<g>
		<path fill="#231F20" d="M330,664.2c-7.9,0-14.3-6.4-14.3-14.3V416.8c0-7.9,6.4-14.3,14.3-14.3s14.3,6.4,14.3,14.3V650
			C344.3,657.8,337.9,664.2,330,664.2z"/>
	</g>
	<g>
		<path fill="#231F20" d="M667.6,667.1c-7.9,0-14.3-6.4-14.3-14.3v-236c0-7.9,6.4-14.3,14.3-14.3s14.3,6.4,14.3,14.3v236
			C681.9,660.7,675.5,667.1,667.6,667.1z"/>
	</g>
	<g>
		<path fill="#231F20" d="M727.4,667.1c-7.9,0-14.3-6.4-14.3-14.3v-236c0-7.9,6.4-14.3,14.3-14.3c7.9,0,14.3,6.4,14.3,14.3v236
			C741.6,660.7,735.2,667.1,727.4,667.1z"/>
	</g>
	<g>
		<path fill="#231F20" d="M787.1,667.1c-7.9,0-14.3-6.4-14.3-14.3v-236c0-7.9,6.4-14.3,14.3-14.3s14.3,6.4,14.3,14.3v236
			C801.4,660.7,795,667.1,787.1,667.1z"/>
	</g>
	<g>
		<path fill="#231F20" d="M846.9,667.1c-7.9,0-14.3-6.4-14.3-14.3v-236c0-7.9,6.4-14.3,14.3-14.3s14.3,6.4,14.3,14.3v236
			C861.2,660.7,854.8,667.1,846.9,667.1z"/>
	</g>
	<g>
		<path fill="#231F20" d="M906.7,575c-7.9,0-14.3-6.4-14.3-14.3V416.8c0-7.9,6.4-14.3,14.3-14.3s14.3,6.4,14.3,14.3v143.9
			C920.9,568.6,914.5,575,906.7,575z"/>
	</g>
	<g>
		<path fill="#92278F" d="M977.4,500.7h-60c-4.6,0-8.3-3.7-8.3-8.3v-29.7c0-4.6,3.7-8.3,8.3-8.3h60c4.6,0,8.3,3.7,8.3,8.3v29.7
			C985.7,496.9,982,500.7,977.4,500.7z"/>
		<path fill="#231F20" d="M977.4,514.9h-60c-12.4,0-22.6-10.1-22.6-22.6v-29.7c0-12.4,10.1-22.6,22.6-22.6h60
			c12.4,0,22.6,10.1,22.6,22.6v29.7C1000,504.8,989.9,514.9,977.4,514.9z M923.4,486.4h48.1v-17.8h-48.1V486.4z"/>
	</g>
	<g>
		<path fill="#92278F" d="M82.6,500.7h-60c-4.6,0-8.3-3.7-8.3-8.3v-29.7c0-4.6,3.7-8.3,8.3-8.3h60c4.6,0,8.3,3.7,8.3,8.3v29.7
			C90.9,496.9,87.2,500.7,82.6,500.7z"/>
		<path fill="#231F20" d="M82.6,514.9h-60C10.1,514.9,0,504.8,0,492.4v-29.7c0-12.4,10.1-22.6,22.6-22.6h60
			c12.4,0,22.6,10.1,22.6,22.6v29.7C105.2,504.8,95,514.9,82.6,514.9z M28.5,486.4h48.1v-17.8H28.5V486.4z"/>
	</g>
	<g>
		<path fill="#231F20" d="M595.1,618.8H402.5c-6.5,0-12.2-4.4-13.8-10.7l-24.8-96.6c-1.1-4.3-0.2-8.8,2.5-12.3
			c2.7-3.5,6.9-5.5,11.3-5.5h242.2c4.4,0,8.6,2,11.3,5.5c2.7,3.5,3.6,8,2.5,12.3l-24.8,96.6C607.3,614.4,601.6,618.8,595.1,618.8z
			 M413.6,590.3H584l17.5-68.1H396.1L413.6,590.3z"/>
	</g>
	<polygon fill="#DB69F7" points="52.6,716.8 533.9,715.1 537.7,685 42.9,685 45.3,716 	"/>
	<g>
		<rect x="39.4" y="677.8" fill="#231F20" width="505.3" height="14.3"/>
	</g>
	<polygon fill="#DB69F7" points="586,718.8 578.5,685 960.3,685 948.2,718.8 	"/>
	<g>
		<rect x="573.8" y="677.8" fill="#231F20" width="383.3" height="14.3"/>
	</g>
	<path fill="#231F20" d="M957.1,726.8H579.9c-5.5,0-10-4.5-10-10V700c0-2.9-1.1-5.6-3.2-7.6c-2.1-2.1-4.8-3.2-7.7-3.2
		c-5.9,0-10.8,5-10.8,10.8v16.8c0,5.5-4.5,10-10,10H39.4c-5.5,0-10-4.5-10-10V500.7h20v206.1h478.9V700c0-17,13.8-30.8,30.8-30.8
		c8.2,0,15.9,3.2,21.8,9.1c5.8,5.8,9,13.6,9,21.8v6.8h357.2V500.7h20v216.1C967.1,722.3,962.6,726.8,957.1,726.8z"/>
</g>
</svg>
