<?xml version="1.0" encoding="utf-8"?>
<!-- Generator: Adobe Illustrator 26.1.0, SVG Export Plug-In . SVG Version: 6.00 Build 0)  -->
<svg version="1.1" id="Layer_1" xmlns="http://www.w3.org/2000/svg" xmlns:xlink="http://www.w3.org/1999/xlink" x="0px" y="0px"
	 viewBox="0 0 1000 1000" enable-background="new 0 0 1000 1000" xml:space="preserve">
<g>
	<path fill="#0B9EF9" stroke="#231F20" stroke-width="41.5694" stroke-miterlimit="10" d="M350.3,523.8l-170.6,93.1
		c-8.3,4.6-18.6-1.5-18.6-11.1V478.5c0-6.9,5.7-12.6,12.6-12.6h170.4c6.9,0,12.6,5.7,12.6,12.6v34.2
		C356.8,517.4,354.3,521.5,350.3,523.8z"/>
	<path fill="#0B9EF9" stroke="#231F20" stroke-width="41.5694" stroke-miterlimit="10" d="M408.9,608.1c3.2,3.4,4.5,8.2,3.2,12.5
		L357.4,807c-2.8,9.2-14.3,12.2-21.1,5.4l-90-90c-4.9-4.9-4.9-12.9,0-17.9L367,584.1c4.8-4.9,12.8-4.9,17.7,0L408.9,608.1z"/>
	<path fill="#0B9EF9" stroke="#231F20" stroke-width="41.5694" stroke-miterlimit="10" d="M183.3,335.9l90-90
		c4.9-4.9,12.9-4.9,17.9,0l120.5,120.5c4.9,4.9,4.9,12.9,0,17.9l-24.2,24.2c-3.2,3.2-8,4.5-12.5,3.1L188.7,357
		C179.5,354.2,176.5,342.6,183.3,335.9z"/>
	<path fill="#0B9EF9" stroke="#231F20" stroke-width="41.5694" stroke-miterlimit="10" d="M378.9,179.3c-4.6-8.3,1.4-18.6,11.1-18.6
		h127.3c6.9,0,12.5,5.7,12.5,12.6v170.4c0,6.9-5.6,12.6-12.5,12.6H483c-4.6,0-8.8-2.5-11.1-6.6L378.9,179.3z"/>
	<circle fill="#0B9EF9" stroke="#231F20" stroke-width="41.5694" stroke-miterlimit="10" cx="498.1" cy="497.6" r="92.1"/>
	<path fill="#0B9EF9" stroke="#231F20" stroke-width="41.5694" stroke-miterlimit="10" d="M617.4,815.8c4.6,8.5-1.4,18.8-11.1,18.8
		H479c-6.9,0-12.5-5.7-12.5-12.6V651.4c0-6.9,5.5-12.5,12.5-12.5h34.2c4.6,0,8.8,2.5,11.1,6.5L617.4,815.8z"/>
	<path fill="#0B9EF9" stroke="#231F20" stroke-width="41.5694" stroke-miterlimit="10" d="M587.3,387c-3.2-3.2-4.5-8-3.2-12.5
		l54.7-186.3c2.8-9.2,14.3-12.2,21.1-5.4l90,90c4.9,4.9,4.9,12.9,0,17.9L629.2,411.2c-4.9,4.9-12.8,4.9-17.7,0L587.3,387z"/>
	<path fill="#0B9EF9" stroke="#231F20" stroke-width="41.5694" stroke-miterlimit="10" d="M812.9,659.3l-90,90
		c-4.9,4.9-12.9,4.9-17.9,0L584.5,628.8c-4.9-4.9-4.9-12.9,0-17.9l24.2-24c3.2-3.2,8-4.5,12.3-3.2l186.4,54.7
		C816.7,640.9,819.7,652.5,812.9,659.3z"/>
	<path fill="#0B9EF9" stroke="#231F20" stroke-width="41.5694" stroke-miterlimit="10" d="M835.1,389.3v127.3
		c0,7.1-5.7,12.6-12.6,12.6H652c-7.1,0-12.6-5.5-12.6-12.6v-34.1c0-4.6,2.5-8.9,6.5-11.1l170.6-93.1
		C824.7,373.8,835.1,379.8,835.1,389.3z"/>
	<path fill="#0B9EF9" stroke="#231F20" stroke-width="41.5694" stroke-miterlimit="10" d="M844.8,21.1H151.4
		C79.9,21.1,21.5,79.5,21.5,151v693.3c0,71.3,58.4,129.9,129.9,129.9h693.3c71.5,0,129.9-58.5,129.9-129.9V151
		C974.7,79.5,916.3,21.1,844.8,21.1z M498.1,901.8c-96.9,0-185.8-34.2-255.5-90.9v-0.2C151.9,736.8,94,623.8,94,497.6
		c0-89.5,29-172.1,78.3-239.1h0.2c73.3-100,192-165,325.7-165c82.4,0,159.2,24.8,223.1,67.2c109.1,72.3,181,196.1,181,337
		c0,92.9-31.3,178.6-84.3,247C744.2,840.2,628.3,901.8,498.1,901.8z"/>
	<path fill="#FFFFFF" stroke="#231F20" stroke-width="31.177" stroke-miterlimit="10" d="M350.3,523.8l-170.6,93.1
		c-8.3,4.6-18.6-1.5-18.6-11.1V478.5c0-6.9,5.7-12.6,12.6-12.6h170.4c6.9,0,12.6,5.7,12.6,12.6v34.2
		C356.8,517.4,354.3,521.5,350.3,523.8z"/>
	<path fill="#FFFFFF" stroke="#231F20" stroke-width="31.177" stroke-miterlimit="10" d="M408.9,608.1c3.2,3.4,4.5,8.2,3.2,12.5
		L357.4,807c-2.8,9.2-14.3,12.2-21.1,5.4l-90-90c-4.9-4.9-4.9-12.9,0-17.9L367,584.1c4.8-4.9,12.8-4.9,17.7,0L408.9,608.1z"/>
	<path fill="#FFFFFF" stroke="#231F20" stroke-width="31.177" stroke-miterlimit="10" d="M183.3,335.9l90-90
		c4.9-4.9,12.9-4.9,17.9,0l120.5,120.5c4.9,4.9,4.9,12.9,0,17.9l-24.2,24.2c-3.2,3.2-8,4.5-12.5,3.1L188.7,357
		C179.5,354.2,176.5,342.6,183.3,335.9z"/>
	<path fill="#FFFFFF" stroke="#231F20" stroke-width="31.177" stroke-miterlimit="10" d="M378.9,179.3c-4.6-8.3,1.4-18.6,11.1-18.6
		h127.3c6.9,0,12.5,5.7,12.5,12.6v170.4c0,6.9-5.6,12.6-12.5,12.6H483c-4.6,0-8.8-2.5-11.1-6.6L378.9,179.3z"/>
	<circle fill="#FFFFFF" stroke="#231F20" stroke-width="31.177" stroke-miterlimit="10" cx="498.1" cy="497.6" r="92.1"/>
	<path fill="#FFFFFF" stroke="#231F20" stroke-width="31.177" stroke-miterlimit="10" d="M617.4,815.8c4.6,8.5-1.4,18.8-11.1,18.8
		H479c-6.9,0-12.5-5.7-12.5-12.6V651.4c0-6.9,5.5-12.5,12.5-12.5h34.2c4.6,0,8.8,2.5,11.1,6.5L617.4,815.8z"/>
	<path fill="#FFFFFF" stroke="#231F20" stroke-width="31.177" stroke-miterlimit="10" d="M587.3,387c-3.2-3.2-4.5-8-3.2-12.5
		l54.7-186.3c2.8-9.2,14.3-12.2,21.1-5.4l90,90c4.9,4.9,4.9,12.9,0,17.9L629.2,411.2c-4.9,4.9-12.8,4.9-17.7,0L587.3,387z"/>
	<path fill="#FFFFFF" stroke="#231F20" stroke-width="31.177" stroke-miterlimit="10" d="M812.9,659.3l-90,90
		c-4.9,4.9-12.9,4.9-17.9,0L584.5,628.8c-4.9-4.9-4.9-12.9,0-17.9l24.2-24c3.2-3.2,8-4.5,12.3-3.2l186.4,54.7
		C816.7,640.9,819.7,652.5,812.9,659.3z"/>
	<path fill="#FFFFFF" stroke="#231F20" stroke-width="31.177" stroke-miterlimit="10" d="M835.1,389.3v127.3
		c0,7.1-5.7,12.6-12.6,12.6H652c-7.1,0-12.6-5.5-12.6-12.6v-34.1c0-4.6,2.5-8.9,6.5-11.1l170.6-93.1
		C824.7,373.8,835.1,379.8,835.1,389.3z"/>
	<circle fill="#46C6F9" stroke="#231F20" stroke-width="24.1813" stroke-miterlimit="10" cx="498.1" cy="497.6" r="92.1"/>
	<path fill="#6ED9F9" stroke="#231F20" stroke-width="24.1813" stroke-miterlimit="10" d="M529.7,173.3v170.4
		c0,6.9-5.6,12.6-12.5,12.6H483c-4.6,0-8.8-2.5-11.1-6.6l-93.1-170.4c-4.6-8.3,1.4-18.6,11.1-18.6h127.3
		C524.1,160.7,529.7,166.4,529.7,173.3z"/>
	<path fill="#6ED9F9" stroke="#231F20" stroke-width="24.1813" stroke-miterlimit="10" d="M411.7,384.2l-24.2,24.2
		c-3.2,3.2-8,4.5-12.5,3.1L188.7,357c-9.2-2.8-12.2-14.3-5.4-21.1l90-90c4.9-4.9,12.9-4.9,17.9,0l120.5,120.5
		C416.6,371.3,416.6,379.3,411.7,384.2z"/>
	<path fill="#6ED9F9" stroke="#231F20" stroke-width="24.1813" stroke-miterlimit="10" d="M356.8,478.5v34.2c0,4.6-2.5,8.8-6.5,11.1
		l-170.6,93.1c-8.3,4.6-18.6-1.5-18.6-11.1V478.5c0-6.9,5.7-12.6,12.6-12.6h170.4C351.1,465.9,356.8,471.6,356.8,478.5z"/>
	<path fill="#6ED9F9" stroke="#231F20" stroke-width="24.1813" stroke-miterlimit="10" d="M412.1,620.6L357.4,807
		c-2.8,9.2-14.3,12.2-21.1,5.4l-90-90c-4.9-4.9-4.9-12.9,0-17.9L367,584.1c4.8-4.9,12.8-4.9,17.7,0l24.2,24
		C412.1,611.5,413.4,616.3,412.1,620.6z"/>
	<path fill="#6ED9F9" stroke="#231F20" stroke-width="24.1813" stroke-miterlimit="10" d="M606.3,834.6H479
		c-6.9,0-12.5-5.7-12.5-12.6V651.4c0-6.9,5.5-12.5,12.5-12.5h34.2c4.6,0,8.8,2.5,11.1,6.5l93.1,170.4
		C622,824.3,616,834.6,606.3,834.6z"/>
	<path fill="#6ED9F9" stroke="#231F20" stroke-width="24.1813" stroke-miterlimit="10" d="M812.9,659.3l-90,90
		c-4.9,4.9-12.9,4.9-17.9,0L584.5,628.8c-4.9-4.9-4.9-12.9,0-17.9l24.2-24c3.2-3.2,8-4.5,12.3-3.2l186.4,54.7
		C816.7,640.9,819.7,652.5,812.9,659.3z"/>
	<path fill="#6ED9F9" stroke="#231F20" stroke-width="24.1813" stroke-miterlimit="10" d="M835.1,389.3v127.3
		c0,7.1-5.7,12.6-12.6,12.6H652c-7.1,0-12.6-5.5-12.6-12.6v-34.1c0-4.6,2.5-8.9,6.5-11.1l170.6-93.1
		C824.7,373.8,835.1,379.8,835.1,389.3z"/>
	<path fill="#6ED9F9" stroke="#231F20" stroke-width="24.1813" stroke-miterlimit="10" d="M749.9,290.7L629.2,411.2
		c-4.9,4.9-12.8,4.9-17.7,0L587.3,387c-3.2-3.2-4.5-8-3.2-12.5l54.7-186.3c2.8-9.2,14.3-12.2,21.1-5.4l90,90
		C754.8,277.8,754.8,285.8,749.9,290.7z"/>
	<g>
		<path fill="none" stroke="#231F20" stroke-width="29.4033" stroke-miterlimit="10" d="M21.9,180.4h111.4
			c25.8,0,46.7-20.9,46.7-46.7V22.3"/>
		<circle fill="none" stroke="#231F20" stroke-width="18.1866" stroke-miterlimit="10" cx="110.6" cy="110.1" r="22.6"/>
	</g>
	<g>
		<path fill="none" stroke="#231F20" stroke-width="29.4033" stroke-miterlimit="10" d="M823.2,22.3v111.4
			c0,25.8,20.9,46.7,46.7,46.7h111.4"/>
		<circle fill="none" stroke="#231F20" stroke-width="18.1866" stroke-miterlimit="10" cx="893.4" cy="111" r="22.6"/>
	</g>
	<g>
		<path fill="none" stroke="#231F20" stroke-width="29.4033" stroke-miterlimit="10" d="M981.3,805.6H869.8
			c-25.8,0-46.7,20.9-46.7,46.7v111.4"/>
		<circle fill="none" stroke="#231F20" stroke-width="18.1866" stroke-miterlimit="10" cx="892.5" cy="875.9" r="22.6"/>
	</g>
	<g>
		<path fill="none" stroke="#231F20" stroke-width="29.4033" stroke-miterlimit="10" d="M180,963.7V852.3
			c0-25.8-20.9-46.7-46.7-46.7H21.9"/>
		<circle fill="none" stroke="#231F20" stroke-width="18.1866" stroke-miterlimit="10" cx="109.7" cy="875" r="22.6"/>
	</g>
	<path fill="none" stroke="#231F20" stroke-width="29.4033" stroke-miterlimit="10" d="M172.4,258.5h-0.2h-48.4
		c-20.3,0-36.8-16.5-36.8-36.7v-41.4"/>
	<path fill="none" stroke="#231F20" stroke-width="29.4033" stroke-miterlimit="10" d="M902.2,805.6v-23.9
		c0-20.5-16.6-37.1-37.1-37.1h-47.2"/>
	<path fill="none" stroke="#231F20" stroke-width="29.4033" stroke-miterlimit="10" d="M242.6,810.7v0.2v48.4
		c0,21.1-17.1,38.4-38.2,38.4h-24.5"/>
	<path fill="none" stroke="#231F20" stroke-width="29.4033" stroke-miterlimit="10" d="M721.3,160.7v-32.8
		c0-22.3,18.1-40.4,40.4-40.4h61.5"/>
</g>
</svg>
