<?xml version="1.0" encoding="utf-8"?>
<!-- Generator: Adobe Illustrator 26.1.0, SVG Export Plug-In . SVG Version: 6.00 Build 0)  -->
<svg version="1.1" id="Layer_1" xmlns="http://www.w3.org/2000/svg" xmlns:xlink="http://www.w3.org/1999/xlink" x="0px" y="0px"
	 viewBox="0 0 824.5 1000" enable-background="new 0 0 824.5 1000" xml:space="preserve">
<g>
	<path fill="#00A5A5" d="M812,97.8v804.5c0,46.9-38.4,85.3-85.3,85.3h-629c-46.9,0-85.3-38.4-85.3-85.3V97.8
		c0-46.9,38.4-85.3,85.3-85.3h629C773.7,12.5,812,50.9,812,97.8z"/>
	
		<rect x="536.4" y="76.1" fill="none" stroke="#231F20" stroke-width="8.7915" stroke-linejoin="round" stroke-miterlimit="10" width="29.7" height="446.2"/>
	
		<rect x="267.3" y="463.6" transform="matrix(-1.836970e-16 1 -1 -1.836970e-16 888.0258 320.1177)" fill="#147264" stroke="#231F20" stroke-width="10.9259" stroke-linejoin="round" stroke-miterlimit="10" width="33.3" height="281"/>
	
		<rect x="446.7" y="583.4" transform="matrix(-1.836970e-16 1 -1 -1.836970e-16 1063.4934 144.6501)" fill="#147264" stroke="#231F20" stroke-width="6.8149" stroke-linejoin="round" stroke-miterlimit="10" width="25.4" height="41.3"/>
	
		<rect x="267.3" y="715.8" transform="matrix(-1.836970e-16 1 -1 -1.836970e-16 1140.2035 572.2954)" fill="#147264" stroke="#231F20" stroke-width="10.9259" stroke-linejoin="round" stroke-miterlimit="10" width="33.3" height="281"/>
	<g>
		<g>
			
				<rect x="745.1" y="266" fill="none" stroke="#231F20" stroke-width="7.8042" stroke-linejoin="round" stroke-miterlimit="10" width="33.4" height="123"/>
			<line fill="none" stroke="#231F20" stroke-width="7.8042" stroke-miterlimit="10" x1="761.8" y1="389" x2="761.8" y2="266"/>
			<line fill="none" stroke="#231F20" stroke-width="7.8042" stroke-miterlimit="10" x1="745.1" y1="283.6" x2="778.5" y2="283.6"/>
			<line fill="none" stroke="#231F20" stroke-width="7.8042" stroke-miterlimit="10" x1="745.1" y1="301.1" x2="778.5" y2="301.1"/>
			<line fill="none" stroke="#231F20" stroke-width="7.8042" stroke-miterlimit="10" x1="745.1" y1="318.7" x2="778.5" y2="318.7"/>
			<line fill="none" stroke="#231F20" stroke-width="7.8042" stroke-miterlimit="10" x1="745.1" y1="336.3" x2="778.5" y2="336.3"/>
			<line fill="none" stroke="#231F20" stroke-width="7.8042" stroke-miterlimit="10" x1="745.1" y1="353.9" x2="778.5" y2="353.9"/>
			<line fill="none" stroke="#231F20" stroke-width="7.8042" stroke-miterlimit="10" x1="745.1" y1="371.4" x2="778.5" y2="371.4"/>
			<line fill="none" stroke="#231F20" stroke-width="7.8042" stroke-miterlimit="10" x1="745.1" y1="389" x2="778.5" y2="389"/>
		</g>
		
			<rect x="745.1" y="389" fill="none" stroke="#231F20" stroke-width="7.8042" stroke-linejoin="round" stroke-miterlimit="10" width="33.4" height="87.9"/>
		<line fill="none" stroke="#231F20" stroke-width="7.8042" stroke-miterlimit="10" x1="761.8" y1="478" x2="761.8" y2="389"/>
		<line fill="none" stroke="#231F20" stroke-width="7.8042" stroke-miterlimit="10" x1="745.1" y1="406.6" x2="778.5" y2="406.6"/>
		<line fill="none" stroke="#231F20" stroke-width="7.8042" stroke-miterlimit="10" x1="745.1" y1="389" x2="778.5" y2="389"/>
		<line fill="none" stroke="#231F20" stroke-width="7.8042" stroke-miterlimit="10" x1="745.1" y1="424.2" x2="778.5" y2="424.2"/>
		<line fill="none" stroke="#231F20" stroke-width="7.8042" stroke-miterlimit="10" x1="745.1" y1="441.7" x2="778.5" y2="441.7"/>
		<line fill="none" stroke="#231F20" stroke-width="7.8042" stroke-miterlimit="10" x1="745.1" y1="459.3" x2="778.5" y2="459.3"/>
	</g>
	<g>
		
			<rect x="281.3" y="29.2" transform="matrix(-1.836970e-16 1 -1 -1.836970e-16 353.1954 -242.7524)" fill="none" stroke="#231F20" stroke-width="7.8042" stroke-linejoin="round" stroke-miterlimit="10" width="33.4" height="52.1"/>
		<line fill="none" stroke="#231F20" stroke-width="7.8042" stroke-miterlimit="10" x1="271.9" y1="55.2" x2="324" y2="55.2"/>
		<line fill="none" stroke="#231F20" stroke-width="7.8042" stroke-miterlimit="10" x1="306.7" y1="38.5" x2="306.7" y2="71.9"/>
		<line fill="none" stroke="#231F20" stroke-width="7.8042" stroke-miterlimit="10" x1="271.9" y1="38.5" x2="271.9" y2="71.9"/>
		<line fill="none" stroke="#231F20" stroke-width="7.8042" stroke-miterlimit="10" x1="289.3" y1="38.5" x2="289.3" y2="71.9"/>
	</g>
	
		<line fill="none" stroke="#231F20" stroke-width="7.8042" stroke-linecap="round" stroke-miterlimit="10" x1="162" y1="604.1" x2="204.5" y2="604.1"/>
	
		<line fill="none" stroke="#231F20" stroke-width="7.8042" stroke-linecap="round" stroke-miterlimit="10" x1="234.4" y1="604.1" x2="395.7" y2="604.1"/>
	
		<line fill="none" stroke="#231F20" stroke-width="7.8042" stroke-linecap="round" stroke-miterlimit="10" x1="162" y1="856.2" x2="204.5" y2="856.2"/>
	
		<line fill="none" stroke="#231F20" stroke-width="7.8042" stroke-linecap="round" stroke-miterlimit="10" x1="234.4" y1="856.2" x2="395.7" y2="856.2"/>
	<g>
		<g>
			
				<rect x="174.9" y="648.5" transform="matrix(-1.836970e-16 1 -1 -1.836970e-16 888.0616 505.0228)" fill="#147264" stroke="#231F20" stroke-width="10.9259" stroke-linejoin="round" stroke-miterlimit="10" width="33.3" height="96.1"/>
			
				<line fill="none" stroke="#231F20" stroke-width="7.8042" stroke-linecap="round" stroke-miterlimit="10" x1="155.9" y1="696.5" x2="173.8" y2="696.5"/>
			
				<line fill="none" stroke="#231F20" stroke-width="7.8042" stroke-linecap="round" stroke-miterlimit="10" x1="188.8" y1="696.5" x2="223.2" y2="696.5"/>
		</g>
		<g>
			
				<rect x="174.9" y="715.7" transform="matrix(-1.836970e-16 1 -1 -1.836970e-16 955.2984 572.2595)" fill="#147264" stroke="#231F20" stroke-width="10.9259" stroke-linejoin="round" stroke-miterlimit="10" width="33.3" height="96.1"/>
			
				<line fill="none" stroke="#231F20" stroke-width="7.8042" stroke-linecap="round" stroke-miterlimit="10" x1="155.9" y1="763.8" x2="173.8" y2="763.8"/>
			
				<line fill="none" stroke="#231F20" stroke-width="7.8042" stroke-linecap="round" stroke-miterlimit="10" x1="188.8" y1="763.8" x2="223.2" y2="763.8"/>
		</g>
	</g>
	<polygon fill="#147264" stroke="#231F20" stroke-width="7.8042" stroke-linejoin="round" stroke-miterlimit="10" points="
		441.9,581 450.1,565.9 485.2,565.9 485.2,581 	"/>
	<polygon fill="#147264" stroke="#231F20" stroke-width="7.8042" stroke-linejoin="round" stroke-miterlimit="10" points="
		441.9,627.2 450.1,642.3 485.2,642.3 485.2,627.2 	"/>
	
		<rect x="446.7" y="835.5" transform="matrix(-1.836970e-16 1 -1 -1.836970e-16 1315.637 396.7936)" fill="#147264" stroke="#231F20" stroke-width="6.8149" stroke-linejoin="round" stroke-miterlimit="10" width="25.4" height="41.3"/>
	<polygon fill="#147264" stroke="#231F20" stroke-width="7.8042" stroke-linejoin="round" stroke-miterlimit="10" points="
		441.9,833.1 450.1,818.1 485.2,818.1 485.2,833.1 	"/>
	<polygon fill="#147264" stroke="#231F20" stroke-width="7.8042" stroke-linejoin="round" stroke-miterlimit="10" points="
		441.9,879.4 450.1,894.4 485.2,894.4 485.2,879.4 	"/>
	<path fill="#7DFFE9" stroke="#231F20" stroke-width="8.1117" stroke-linejoin="round" stroke-miterlimit="10" d="M482.7,318.5
		l-11.4,18.3v22.5l7.6,3.7v62.8H350.6V363l7.6-3.7v-22.5l-11.4-18.3v-17.9l14.8-9.1h106.2l14.8,9.1V318.5z M333.8,270.7v177.2h161.9
		V270.7H333.8z"/>
	<polygon fill="none" stroke="#231F20" stroke-width="8.1117" stroke-miterlimit="10" points="471.2,336.7 471.2,359.3 478.9,363 
		478.9,425.8 350.6,425.8 350.6,363 358.2,359.3 358.2,336.7 346.8,318.5 346.8,300.6 361.7,291.4 467.8,291.4 482.7,300.6 
		482.7,318.5 	"/>
	<polygon fill="#7DFFE9" stroke="#231F20" stroke-width="5.7941" stroke-linejoin="round" stroke-miterlimit="10" points="
		466.6,270.7 365.4,270.7 372.7,258.8 459.3,258.8 	"/>
	<circle fill="#7DFFE9" stroke="#231F20" stroke-width="5.7941" stroke-miterlimit="10" cx="349.6" cy="258.5" r="7.4"/>
	<circle fill="#7DFFE9" stroke="#231F20" stroke-width="5.7941" stroke-miterlimit="10" cx="480.5" cy="258.5" r="7.4"/>
	<rect x="391" y="313.9" fill="none" stroke="#231F20" stroke-width="5.7941" stroke-miterlimit="10" width="48.5" height="75.4"/>
	
		<rect x="407.2" y="371.9" fill="#7DFFE9" stroke="#231F20" stroke-width="2.3176" stroke-miterlimit="10" width="6.4" height="9.3"/>
	<rect x="417" y="371.9" fill="#7DFFE9" stroke="#231F20" stroke-width="2.3176" stroke-miterlimit="10" width="6.4" height="9.3"/>
	
		<rect x="426.8" y="371.9" fill="#7DFFE9" stroke="#231F20" stroke-width="2.3176" stroke-miterlimit="10" width="6.4" height="9.3"/>
	
		<rect x="407.2" y="358.6" fill="#7DFFE9" stroke="#231F20" stroke-width="2.3176" stroke-miterlimit="10" width="6.4" height="9.3"/>
	<rect x="417" y="358.6" fill="#7DFFE9" stroke="#231F20" stroke-width="2.3176" stroke-miterlimit="10" width="6.4" height="9.3"/>
	
		<rect x="397.4" y="358.6" fill="#7DFFE9" stroke="#231F20" stroke-width="2.3176" stroke-miterlimit="10" width="6.4" height="9.3"/>
	
		<rect x="426.8" y="358.6" fill="#7DFFE9" stroke="#231F20" stroke-width="2.3176" stroke-miterlimit="10" width="6.4" height="9.3"/>
	
		<rect x="407.2" y="345.4" fill="#7DFFE9" stroke="#231F20" stroke-width="2.3176" stroke-miterlimit="10" width="6.4" height="9.3"/>
	
		<rect x="399.2" y="331.2" transform="matrix(-1.836970e-16 1 -1 -1.836970e-16 740.2722 -66.2035)" fill="#7DFFE9" stroke="#231F20" stroke-width="2.3176" stroke-miterlimit="10" width="8.1" height="11.7"/>
	
		<rect x="399.2" y="319" transform="matrix(-1.836970e-16 1 -1 -1.836970e-16 728.0619 -78.4137)" fill="#7DFFE9" stroke="#231F20" stroke-width="2.3176" stroke-miterlimit="10" width="8.1" height="11.7"/>
	
		<rect x="415.4" y="319" transform="matrix(-1.836970e-16 1 -1 -1.836970e-16 744.2987 -94.6505)" fill="#7DFFE9" stroke="#231F20" stroke-width="2.3176" stroke-miterlimit="10" width="8.1" height="11.7"/>
	
		<rect x="415.4" y="331.2" transform="matrix(-1.836970e-16 1 -1 -1.836970e-16 756.509 -82.4403)" fill="#7DFFE9" stroke="#231F20" stroke-width="2.3176" stroke-miterlimit="10" width="8.1" height="11.7"/>
	<rect x="417" y="345.4" fill="#7DFFE9" stroke="#231F20" stroke-width="2.3176" stroke-miterlimit="10" width="6.4" height="9.3"/>
	
		<rect x="397.4" y="345.4" fill="#7DFFE9" stroke="#231F20" stroke-width="2.3176" stroke-miterlimit="10" width="6.4" height="9.3"/>
	
		<rect x="426.8" y="345.4" fill="#7DFFE9" stroke="#231F20" stroke-width="2.3176" stroke-miterlimit="10" width="6.4" height="9.3"/>
	<g>
		<polygon fill="none" stroke="#231F20" stroke-width="8.1117" stroke-linejoin="round" stroke-miterlimit="10" points="
			471.2,336.7 471.2,359.3 478.9,363 478.9,425.8 350.6,425.8 350.6,363 358.2,359.3 358.2,336.7 346.8,318.5 346.8,300.6 
			361.7,291.4 467.8,291.4 482.7,300.6 482.7,318.5 		"/>
	</g>
	
		<rect x="712.5" y="773.3" fill="#147264" stroke="#231F20" stroke-width="15.6084" stroke-linejoin="round" stroke-miterlimit="10" width="57.8" height="66.4"/>
	
		<rect x="712.5" y="677.8" fill="#147264" stroke="#231F20" stroke-width="15.6084" stroke-linejoin="round" stroke-miterlimit="10" width="57.8" height="66.4"/>
	
		<rect x="466.8" y="927.9" fill="#7DFFE9" stroke="#231F20" stroke-width="7.8042" stroke-linejoin="round" stroke-miterlimit="10" width="80.3" height="34.5"/>
	<g>
		<circle fill="#231F20" cx="480" cy="939.4" r="3.4"/>
		<circle fill="#231F20" cx="480" cy="950.7" r="3.4"/>
		<circle fill="#231F20" cx="493.5" cy="939.4" r="3.4"/>
		<circle fill="#231F20" cx="493.5" cy="950.7" r="3.4"/>
		<circle fill="#231F20" cx="507" cy="939.4" r="3.4"/>
		<circle fill="#231F20" cx="507" cy="950.7" r="3.4"/>
		<circle fill="#231F20" cx="520.5" cy="939.4" r="3.4"/>
		<circle fill="#231F20" cx="520.5" cy="950.7" r="3.4"/>
		<circle fill="#231F20" cx="533.9" cy="950.7" r="3.4"/>
	</g>
	
		<rect x="134.2" y="927.9" fill="#7DFFE9" stroke="#231F20" stroke-width="7.8042" stroke-linejoin="round" stroke-miterlimit="10" width="80.3" height="34.5"/>
	<g>
		<circle fill="#231F20" cx="147.4" cy="939.4" r="3.4"/>
		<circle fill="#231F20" cx="147.4" cy="950.7" r="3.4"/>
		<circle fill="#231F20" cx="160.9" cy="939.4" r="3.4"/>
		<circle fill="#231F20" cx="160.9" cy="950.7" r="3.4"/>
		<circle fill="#231F20" cx="174.4" cy="939.4" r="3.4"/>
		<circle fill="#231F20" cx="174.4" cy="950.7" r="3.4"/>
		<circle fill="#231F20" cx="187.8" cy="939.4" r="3.4"/>
		<circle fill="#231F20" cx="187.8" cy="950.7" r="3.4"/>
		<circle fill="#231F20" cx="201.3" cy="950.7" r="3.4"/>
	</g>
	<g>
		
			<rect x="287.9" y="927.9" fill="#7DFFE9" stroke="#231F20" stroke-width="7.8042" stroke-linejoin="round" stroke-miterlimit="10" width="124" height="34.5"/>
		<g>
			<circle fill="#231F20" cx="342.7" cy="939.4" r="3.4"/>
			<circle fill="#231F20" cx="342.7" cy="950.7" r="3.4"/>
			<circle fill="#231F20" cx="356.2" cy="939.4" r="3.4"/>
			<circle fill="#231F20" cx="356.2" cy="950.7" r="3.4"/>
			<circle fill="#231F20" cx="315.8" cy="939.4" r="3.4"/>
			<circle fill="#231F20" cx="315.8" cy="950.7" r="3.4"/>
			<circle fill="#231F20" cx="302.3" cy="939.4" r="3.4"/>
			<circle fill="#231F20" cx="302.3" cy="950.7" r="3.4"/>
			<circle fill="#231F20" cx="329.3" cy="939.4" r="3.4"/>
			<circle fill="#231F20" cx="329.3" cy="950.7" r="3.4"/>
			<circle fill="#231F20" cx="369.7" cy="939.4" r="3.4"/>
			<circle fill="#231F20" cx="369.7" cy="950.7" r="3.4"/>
			<circle fill="#231F20" cx="383.1" cy="939.4" r="3.4"/>
			<circle fill="#231F20" cx="383.1" cy="950.7" r="3.4"/>
			<circle fill="#231F20" cx="396.6" cy="950.7" r="3.4"/>
		</g>
	</g>
	<g>
		<circle fill="#231F20" cx="636.8" cy="937.1" r="3.4"/>
		<circle fill="#231F20" cx="636.8" cy="948.4" r="3.4"/>
		<circle fill="#231F20" cx="650.2" cy="937.1" r="3.4"/>
		<circle fill="#231F20" cx="650.2" cy="948.4" r="3.4"/>
		<circle fill="#231F20" cx="609.8" cy="937.1" r="3.4"/>
		<circle fill="#231F20" cx="609.8" cy="948.4" r="3.4"/>
		<circle fill="#231F20" cx="596.4" cy="937.1" r="3.4"/>
		<circle fill="#231F20" cx="596.4" cy="948.4" r="3.4"/>
		<circle fill="#231F20" cx="582.9" cy="937.1" r="3.4"/>
		<circle fill="#231F20" cx="582.9" cy="948.4" r="3.4"/>
		<circle fill="#231F20" cx="623.3" cy="937.1" r="3.4"/>
		<circle fill="#231F20" cx="623.3" cy="948.4" r="3.4"/>
		<circle fill="#231F20" cx="663.7" cy="937.1" r="3.4"/>
		<circle fill="#231F20" cx="663.7" cy="948.4" r="3.4"/>
		<circle fill="#231F20" cx="677.2" cy="937.1" r="3.4"/>
		<circle fill="#231F20" cx="677.2" cy="948.4" r="3.4"/>
		<circle fill="#231F20" cx="690.6" cy="937.1" r="3.4"/>
		<circle fill="#231F20" cx="690.6" cy="948.4" r="3.4"/>
		<circle fill="#231F20" cx="704.1" cy="937.1" r="3.4"/>
		<circle fill="#231F20" cx="704.1" cy="948.4" r="3.4"/>
	</g>
	<path fill="#7DFFE9" d="M12.5,522.3V71.9c0,0,40.6-59.5,85.3-59.5l12.7,68.7l128.8,129.4v134.7l-112.2,120L107.3,521L12.5,522.3z"
		/>
	<path fill="#231F20" d="M726.8,1000h-629C43.9,1000,0,956.1,0,902.2V97.8C0,43.9,43.9,0,97.8,0h629c53.9,0,97.8,43.9,97.8,97.8
		v804.5C824.5,956.1,780.7,1000,726.8,1000z M97.8,25C57.6,25,25,57.6,25,97.8v804.5c0,40.1,32.6,72.8,72.8,72.8h629
		c40.1,0,72.8-32.7,72.8-72.8V97.8c0-40.1-32.7-72.8-72.8-72.8H97.8z"/>
	<g>
		<polyline fill="none" stroke="#231F20" stroke-width="17.7585" stroke-linejoin="round" stroke-miterlimit="10" points="12.5,521 
			107.3,521 125.3,470.3 162.8,364.8 97.8,12.5 		"/>
		<polygon fill="none" stroke="#231F20" stroke-width="17.7585" stroke-linejoin="round" stroke-miterlimit="10" points="
			239.2,206.8 239.2,341.3 125.3,470.3 162.8,364.8 108.7,71.9 		"/>
	</g>
	
		<line fill="#231F20" stroke="#231F20" stroke-width="6.2434" stroke-linecap="round" stroke-miterlimit="10" x1="551.2" y1="508.9" x2="551.2" y2="324.8"/>
	
		<line fill="#231F20" stroke="#231F20" stroke-width="6.2434" stroke-linecap="round" stroke-miterlimit="10" x1="551.2" y1="313.3" x2="551.2" y2="91.3"/>
	
		<rect x="588.4" y="76.1" fill="none" stroke="#231F20" stroke-width="8.7915" stroke-linejoin="round" stroke-miterlimit="10" width="29.7" height="446.2"/>
	
		<line fill="#231F20" stroke="#231F20" stroke-width="6.2434" stroke-linecap="round" stroke-miterlimit="10" x1="603.2" y1="508.9" x2="603.2" y2="324.8"/>
	
		<line fill="#231F20" stroke="#231F20" stroke-width="6.2434" stroke-linecap="round" stroke-miterlimit="10" x1="603.2" y1="313.3" x2="603.2" y2="91.3"/>
	
		<rect x="640.3" y="76.1" fill="none" stroke="#231F20" stroke-width="8.7915" stroke-linejoin="round" stroke-miterlimit="10" width="29.7" height="446.2"/>
	
		<line fill="#231F20" stroke="#231F20" stroke-width="6.2434" stroke-linecap="round" stroke-miterlimit="10" x1="655.2" y1="508.9" x2="655.2" y2="324.8"/>
	
		<line fill="#231F20" stroke="#231F20" stroke-width="6.2434" stroke-linecap="round" stroke-miterlimit="10" x1="655.2" y1="313.3" x2="655.2" y2="91.3"/>
	
		<rect x="692.3" y="76.1" fill="none" stroke="#231F20" stroke-width="8.7915" stroke-linejoin="round" stroke-miterlimit="10" width="29.7" height="446.2"/>
	
		<line fill="#231F20" stroke="#231F20" stroke-width="6.2434" stroke-linecap="round" stroke-miterlimit="10" x1="707.2" y1="508.9" x2="707.2" y2="324.8"/>
	
		<line fill="#231F20" stroke="#231F20" stroke-width="6.2434" stroke-linecap="round" stroke-miterlimit="10" x1="707.2" y1="313.3" x2="707.2" y2="91.3"/>
	
		<polygon fill="none" stroke="#231F20" stroke-width="7.8042" stroke-linecap="round" stroke-linejoin="round" stroke-miterlimit="10" points="
		566.1,64 536.4,64 531.7,43.2 570.8,43.2 	"/>
	
		<polygon fill="none" stroke="#231F20" stroke-width="7.8042" stroke-linecap="round" stroke-linejoin="round" stroke-miterlimit="10" points="
		618.1,64 588.4,64 583.7,43.2 622.8,43.2 	"/>
	
		<polygon fill="none" stroke="#231F20" stroke-width="7.8042" stroke-linecap="round" stroke-linejoin="round" stroke-miterlimit="10" points="
		670.1,64 640.3,64 635.7,43.2 674.7,43.2 	"/>
	
		<polygon fill="none" stroke="#231F20" stroke-width="7.8042" stroke-linecap="round" stroke-linejoin="round" stroke-miterlimit="10" points="
		722,64 692.3,64 687.6,43.2 726.7,43.2 	"/>
	
		<polygon fill="none" stroke="#231F20" stroke-width="7.8042" stroke-linecap="round" stroke-linejoin="round" stroke-miterlimit="10" points="
		566.1,535.2 536.4,535.2 531.7,556 570.8,556 	"/>
	
		<polygon fill="none" stroke="#231F20" stroke-width="7.8042" stroke-linecap="round" stroke-linejoin="round" stroke-miterlimit="10" points="
		618.1,535.2 588.4,535.2 583.7,556 622.8,556 	"/>
	
		<polygon fill="none" stroke="#231F20" stroke-width="7.8042" stroke-linecap="round" stroke-linejoin="round" stroke-miterlimit="10" points="
		670.1,535.2 640.3,535.2 635.7,556 674.7,556 	"/>
	
		<polygon fill="none" stroke="#231F20" stroke-width="7.8042" stroke-linecap="round" stroke-linejoin="round" stroke-miterlimit="10" points="
		722,535.2 692.3,535.2 687.6,556 726.7,556 	"/>
	<g>
		<circle fill="#231F20" cx="363" cy="415" r="1.9"/>
		<circle fill="#231F20" cx="370.4" cy="415" r="1.9"/>
		<circle fill="#231F20" cx="377.8" cy="415" r="1.9"/>
		<circle fill="#231F20" cx="385.2" cy="415" r="1.9"/>
		<circle fill="#231F20" cx="392.6" cy="415" r="1.9"/>
		<circle fill="#231F20" cx="400" cy="415" r="1.9"/>
		<circle fill="#231F20" cx="407.4" cy="415" r="1.9"/>
		<circle fill="#231F20" cx="414.7" cy="415" r="1.9"/>
		<circle fill="#231F20" cx="422.1" cy="415" r="1.9"/>
		<circle fill="#231F20" cx="429.5" cy="415" r="1.9"/>
		<circle fill="#231F20" cx="436.9" cy="415" r="1.9"/>
		<circle fill="#231F20" cx="444.3" cy="415" r="1.9"/>
		<circle fill="#231F20" cx="451.7" cy="415" r="1.9"/>
		<circle fill="#231F20" cx="459.1" cy="415" r="1.9"/>
		<circle fill="#231F20" cx="466.5" cy="415" r="1.9"/>
	</g>
	<g>
		<circle fill="#231F20" cx="363" cy="408.5" r="1.9"/>
		<circle fill="#231F20" cx="370.4" cy="408.5" r="1.9"/>
		<circle fill="#231F20" cx="377.8" cy="408.5" r="1.9"/>
		<circle fill="#231F20" cx="385.2" cy="408.5" r="1.9"/>
		<circle fill="#231F20" cx="392.6" cy="408.5" r="1.9"/>
		<circle fill="#231F20" cx="400" cy="408.5" r="1.9"/>
		<circle fill="#231F20" cx="407.4" cy="408.5" r="1.9"/>
		<circle fill="#231F20" cx="414.7" cy="408.5" r="1.9"/>
		<circle fill="#231F20" cx="422.1" cy="408.5" r="1.9"/>
		<circle fill="#231F20" cx="429.5" cy="408.5" r="1.9"/>
		<circle fill="#231F20" cx="436.9" cy="408.5" r="1.9"/>
		<circle fill="#231F20" cx="444.3" cy="408.5" r="1.9"/>
		<circle fill="#231F20" cx="451.7" cy="408.5" r="1.9"/>
		<circle fill="#231F20" cx="459.1" cy="408.5" r="1.9"/>
		<circle fill="#231F20" cx="466.5" cy="408.5" r="1.9"/>
	</g>
	<g>
		<circle fill="#231F20" cx="363" cy="402" r="1.9"/>
		<circle fill="#231F20" cx="370.4" cy="402" r="1.9"/>
		<circle fill="#231F20" cx="377.8" cy="402" r="1.9"/>
		<circle fill="#231F20" cx="385.2" cy="402" r="1.9"/>
		<circle fill="#231F20" cx="392.6" cy="402" r="1.9"/>
		<circle fill="#231F20" cx="400" cy="402" r="1.9"/>
		<circle fill="#231F20" cx="407.4" cy="402" r="1.9"/>
		<circle fill="#231F20" cx="414.7" cy="402" r="1.9"/>
		<circle fill="#231F20" cx="422.1" cy="402" r="1.9"/>
		<circle fill="#231F20" cx="429.5" cy="402" r="1.9"/>
		<circle fill="#231F20" cx="436.9" cy="402" r="1.9"/>
		<circle fill="#231F20" cx="444.3" cy="402" r="1.9"/>
		<circle fill="#231F20" cx="451.7" cy="402" r="1.9"/>
		<circle fill="#231F20" cx="459.1" cy="402" r="1.9"/>
		<circle fill="#231F20" cx="466.5" cy="402" r="1.9"/>
	</g>
	<circle fill="#231F20" cx="363" cy="395.6" r="1.9"/>
	<circle fill="#231F20" cx="370.4" cy="395.6" r="1.9"/>
	<circle fill="#231F20" cx="377.8" cy="395.6" r="1.9"/>
	<circle fill="#231F20" cx="385.2" cy="395.6" r="1.9"/>
	<circle fill="#231F20" cx="392.6" cy="395.6" r="1.9"/>
	<circle fill="#231F20" cx="400" cy="395.6" r="1.9"/>
	<circle fill="#231F20" cx="407.4" cy="395.6" r="1.9"/>
	<circle fill="#231F20" cx="414.7" cy="395.6" r="1.9"/>
	<circle fill="#231F20" cx="422.1" cy="395.6" r="1.9"/>
	<circle fill="#231F20" cx="429.5" cy="395.6" r="1.9"/>
	<circle fill="#231F20" cx="436.9" cy="395.6" r="1.9"/>
	<circle fill="#231F20" cx="444.3" cy="395.6" r="1.9"/>
	<circle fill="#231F20" cx="385.2" cy="307.7" r="1.9"/>
	<circle fill="#231F20" cx="392.6" cy="307.7" r="1.9"/>
	<circle fill="#231F20" cx="400" cy="307.7" r="1.9"/>
	<circle fill="#231F20" cx="407.4" cy="307.7" r="1.9"/>
	<circle fill="#231F20" cx="414.7" cy="307.7" r="1.9"/>
	<circle fill="#231F20" cx="422.1" cy="307.7" r="1.9"/>
	<circle fill="#231F20" cx="429.5" cy="307.7" r="1.9"/>
	<circle fill="#231F20" cx="436.9" cy="307.7" r="1.9"/>
	<circle fill="#231F20" cx="444.3" cy="307.7" r="1.9"/>
	<circle fill="#231F20" cx="385.2" cy="301" r="1.9"/>
	<circle fill="#231F20" cx="392.6" cy="301" r="1.9"/>
	<circle fill="#231F20" cx="400" cy="301" r="1.9"/>
	<circle fill="#231F20" cx="407.4" cy="301" r="1.9"/>
	<circle fill="#231F20" cx="414.7" cy="301" r="1.9"/>
	<circle fill="#231F20" cx="422.1" cy="301" r="1.9"/>
	<circle fill="#231F20" cx="429.5" cy="301" r="1.9"/>
	<circle fill="#231F20" cx="436.9" cy="301" r="1.9"/>
	<circle fill="#231F20" cx="444.3" cy="301" r="1.9"/>
	<circle fill="#231F20" cx="451.7" cy="395.6" r="1.9"/>
	<circle fill="#231F20" cx="459.1" cy="395.6" r="1.9"/>
	<circle fill="#231F20" cx="466.5" cy="395.6" r="1.9"/>
	<circle fill="#231F20" cx="451.7" cy="388.6" r="1.9"/>
	<circle fill="#231F20" cx="459.1" cy="388.6" r="1.9"/>
	<circle fill="#231F20" cx="466.5" cy="388.6" r="1.9"/>
	<circle fill="#231F20" cx="451.7" cy="381.7" r="1.9"/>
	<circle fill="#231F20" cx="459.1" cy="381.7" r="1.9"/>
	<circle fill="#231F20" cx="466.5" cy="381.7" r="1.9"/>
	<circle fill="#231F20" cx="451.7" cy="374.8" r="1.9"/>
	<circle fill="#231F20" cx="459.1" cy="374.8" r="1.9"/>
	<circle fill="#231F20" cx="466.5" cy="374.8" r="1.9"/>
	<circle fill="#231F20" cx="451.7" cy="367.9" r="1.9"/>
	<circle fill="#231F20" cx="459.1" cy="367.9" r="1.9"/>
	<circle fill="#231F20" cx="451.7" cy="361.2" r="1.9"/>
	<circle fill="#231F20" cx="459.1" cy="361.2" r="1.9"/>
	<circle fill="#231F20" cx="451.7" cy="354.5" r="1.9"/>
	<circle fill="#231F20" cx="459.1" cy="354.5" r="1.9"/>
	<circle fill="#231F20" cx="451.7" cy="347.8" r="1.9"/>
	<circle fill="#231F20" cx="459.1" cy="347.8" r="1.9"/>
	<circle fill="#231F20" cx="451.7" cy="341.1" r="1.9"/>
	<circle fill="#231F20" cx="459.1" cy="341.1" r="1.9"/>
	<circle fill="#231F20" cx="451.7" cy="334.4" r="1.9"/>
	<circle fill="#231F20" cx="459.1" cy="334.4" r="1.9"/>
	<circle fill="#231F20" cx="466.5" cy="367.9" r="1.9"/>
	<circle fill="#231F20" cx="451.7" cy="328" r="1.9"/>
	<circle fill="#231F20" cx="459.1" cy="328" r="1.9"/>
	<circle fill="#231F20" cx="466.5" cy="328" r="1.9"/>
	<circle fill="#231F20" cx="451.7" cy="321.4" r="1.9"/>
	<circle fill="#231F20" cx="459.1" cy="321.4" r="1.9"/>
	<circle fill="#231F20" cx="466.5" cy="321.4" r="1.9"/>
	<circle fill="#231F20" cx="451.7" cy="314.7" r="1.9"/>
	<circle fill="#231F20" cx="459.1" cy="314.7" r="1.9"/>
	<circle fill="#231F20" cx="466.5" cy="314.7" r="1.9"/>
	<circle fill="#231F20" cx="451.7" cy="308" r="1.9"/>
	<circle fill="#231F20" cx="459.1" cy="308" r="1.9"/>
	<circle fill="#231F20" cx="466.5" cy="308" r="1.9"/>
	<circle fill="#231F20" cx="473.9" cy="308" r="1.9"/>
	<circle fill="#231F20" cx="473.9" cy="314.7" r="1.9"/>
	<circle fill="#231F20" cx="451.7" cy="301.4" r="1.9"/>
	<circle fill="#231F20" cx="459.1" cy="301.4" r="1.9"/>
	<circle fill="#231F20" cx="466.5" cy="301.4" r="1.9"/>
	<circle fill="#231F20" cx="377.9" cy="388.3" r="1.9"/>
	<circle fill="#231F20" cx="370.6" cy="388.3" r="1.9"/>
	<circle fill="#231F20" cx="363.2" cy="388.3" r="1.9"/>
	<circle fill="#231F20" cx="377.9" cy="381.3" r="1.9"/>
	<circle fill="#231F20" cx="370.6" cy="381.3" r="1.9"/>
	<circle fill="#231F20" cx="363.2" cy="381.3" r="1.9"/>
	<circle fill="#231F20" cx="377.9" cy="374.4" r="1.9"/>
	<circle fill="#231F20" cx="370.6" cy="374.4" r="1.9"/>
	<circle fill="#231F20" cx="363.2" cy="374.4" r="1.9"/>
	<circle fill="#231F20" cx="377.9" cy="367.5" r="1.9"/>
	<circle fill="#231F20" cx="370.6" cy="367.5" r="1.9"/>
	<circle fill="#231F20" cx="377.9" cy="360.8" r="1.9"/>
	<circle fill="#231F20" cx="370.6" cy="360.8" r="1.9"/>
	<circle fill="#231F20" cx="377.9" cy="354.1" r="1.9"/>
	<circle fill="#231F20" cx="370.6" cy="354.1" r="1.9"/>
	<circle fill="#231F20" cx="377.9" cy="347.4" r="1.9"/>
	<circle fill="#231F20" cx="370.6" cy="347.4" r="1.9"/>
	<circle fill="#231F20" cx="377.9" cy="340.8" r="1.9"/>
	<circle fill="#231F20" cx="370.6" cy="340.8" r="1.9"/>
	<circle fill="#231F20" cx="377.9" cy="334.1" r="1.9"/>
	<circle fill="#231F20" cx="370.6" cy="334.1" r="1.9"/>
	<circle fill="#231F20" cx="363.2" cy="367.5" r="1.9"/>
	<circle fill="#231F20" cx="377.9" cy="327.7" r="1.9"/>
	<circle fill="#231F20" cx="370.6" cy="327.7" r="1.9"/>
	<circle fill="#231F20" cx="363.2" cy="327.7" r="1.9"/>
	<circle fill="#231F20" cx="377.9" cy="321" r="1.9"/>
	<circle fill="#231F20" cx="370.6" cy="321" r="1.9"/>
	<circle fill="#231F20" cx="363.2" cy="321" r="1.9"/>
	<circle fill="#231F20" cx="377.9" cy="314.3" r="1.9"/>
	<circle fill="#231F20" cx="370.6" cy="314.3" r="1.9"/>
	<circle fill="#231F20" cx="363.2" cy="314.3" r="1.9"/>
	<circle fill="#231F20" cx="377.9" cy="307.7" r="1.9"/>
	<circle fill="#231F20" cx="370.6" cy="307.7" r="1.9"/>
	<circle fill="#231F20" cx="363.2" cy="307.7" r="1.9"/>
	<circle fill="#231F20" cx="355.8" cy="307.7" r="1.9"/>
	<circle fill="#231F20" cx="355.8" cy="314.3" r="1.9"/>
	<circle fill="#231F20" cx="377.9" cy="301" r="1.9"/>
	<circle fill="#231F20" cx="370.6" cy="301" r="1.9"/>
	<circle fill="#231F20" cx="363.2" cy="301" r="1.9"/>
	
		<polyline fill="none" stroke="#231F20" stroke-width="7.8042" stroke-linecap="round" stroke-linejoin="round" stroke-miterlimit="10" points="
		495.7,270.7 512,270.7 512,410.4 521.8,429.8 	"/>
</g>
</svg>
