<?xml version="1.0" encoding="utf-8"?>
<!-- Generator: Adobe Illustrator 26.1.0, SVG Export Plug-In . SVG Version: 6.00 Build 0)  -->
<svg version="1.1" id="Layer_1" xmlns="http://www.w3.org/2000/svg" xmlns:xlink="http://www.w3.org/1999/xlink" x="0px" y="0px"
	 viewBox="0 0 912.2 917" enable-background="new 0 0 912.2 917" xml:space="preserve">
<g>
	<polygon fill="#FFDE17" stroke="#231F20" stroke-width="16.2433" stroke-miterlimit="10" points="898,383.4 898,589.8 844.2,555.6 
		844.2,417.6 	"/>
	<polygon fill="#FFDE17" stroke="#231F20" stroke-width="16.2433" stroke-miterlimit="10" points="567.6,417.6 567.6,555.6 
		513.9,589.8 513.9,383.4 	"/>
	<path fill="#FCC751" stroke="#231F20" stroke-width="16.2433" stroke-miterlimit="10" d="M835.1,95.3v60.5l62.9,33.7v194.1
		l-53.8,34.2v138l53.8,34.2V807L834,851.3v50.4H577.8v-60.6L513.9,807V589.8l53.8-34.2v-138l-53.8-34.2V189.9l63.9-34.2V95.3h-63.9
		v-34c0-27.9,22.8-50.8,50.8-50.8h282.6c27.9,0,50.8,22.8,50.8,50.8v34H835.1z"/>
	<path fill="#FFDE17" stroke="#231F20" stroke-width="16.2433" stroke-miterlimit="10" d="M577.8,841.2v60.6h-13.2
		c-27.9,0-50.8-22.8-50.8-50.8v-44L577.8,841.2z"/>
	<path fill="#FFDE17" stroke="#231F20" stroke-width="16.2433" stroke-miterlimit="10" d="M898,807v44c0,27.9-22.8,50.8-50.8,50.8
		H834v-50.4L898,807z"/>
	<g>
		<circle fill="none" stroke="#231F20" stroke-width="7.1065" stroke-miterlimit="10" cx="540.7" cy="455.1" r="11.2"/>
		<circle fill="none" stroke="#231F20" stroke-width="7.1065" stroke-miterlimit="10" cx="540.7" cy="518.2" r="11.2"/>
	</g>
	<circle fill="none" stroke="#231F20" stroke-width="7.1065" stroke-miterlimit="10" cx="544.8" cy="861.5" r="11.2"/>
	<polygon fill="#FFDE17" stroke="#231F20" stroke-width="16.2433" stroke-miterlimit="10" points="898,95.3 898,189.4 835.1,155.7 
		835.1,95.3 	"/>
	<polygon fill="#FFDE17" stroke="#231F20" stroke-width="16.2433" stroke-miterlimit="10" points="577.8,95.3 577.8,155.7 
		513.9,189.9 513.9,95.3 	"/>
	<line fill="none" stroke="#231F20" stroke-width="16.2433" stroke-miterlimit="10" x1="835.1" y1="95.3" x2="577.8" y2="95.3"/>
	<line fill="none" stroke="#231F20" stroke-width="16.2433" stroke-miterlimit="10" x1="899" y1="189.9" x2="898" y2="189.4"/>
	<circle fill="none" stroke="#231F20" stroke-width="7.1065" stroke-miterlimit="10" cx="546.9" cy="131.4" r="11.2"/>
	<circle fill="none" stroke="#231F20" stroke-width="7.1065" stroke-miterlimit="10" cx="866.8" cy="131.4" r="11.2"/>
	<circle fill="none" stroke="#231F20" stroke-width="7.1065" stroke-miterlimit="10" cx="866" cy="861.5" r="11.2"/>
	<g>
		<circle fill="none" stroke="#231F20" stroke-width="7.1065" stroke-miterlimit="10" cx="870.8" cy="455.1" r="11.2"/>
		<circle fill="none" stroke="#231F20" stroke-width="7.1065" stroke-miterlimit="10" cx="870.8" cy="518.2" r="11.2"/>
	</g>
	<line fill="none" stroke="#231F20" stroke-width="12.1825" stroke-miterlimit="10" x1="728.1" y1="95.3" x2="728.1" y2="901.7"/>
	<line fill="none" stroke="#231F20" stroke-width="12.1825" stroke-miterlimit="10" x1="685.6" y1="95.3" x2="685.6" y2="901.7"/>
	<line fill="none" stroke="#231F20" stroke-width="12.1825" stroke-miterlimit="10" x1="600.6" y1="95.3" x2="600.6" y2="901.7"/>
	<line fill="none" stroke="#231F20" stroke-width="12.1825" stroke-miterlimit="10" x1="643.1" y1="95.3" x2="643.1" y2="901.7"/>
	<line fill="none" stroke="#231F20" stroke-width="12.1825" stroke-miterlimit="10" x1="558.2" y1="561" x2="558.2" y2="831.2"/>
	<line fill="none" stroke="#231F20" stroke-width="12.1825" stroke-miterlimit="10" x1="558.2" y1="166.2" x2="558.2" y2="412.2"/>
	<line fill="none" stroke="#231F20" stroke-width="12.1825" stroke-miterlimit="10" x1="813" y1="95.3" x2="813" y2="901.7"/>
	<line fill="none" stroke="#231F20" stroke-width="12.1825" stroke-miterlimit="10" x1="770.6" y1="95.3" x2="770.6" y2="901.7"/>
	<line fill="none" stroke="#231F20" stroke-width="12.1825" stroke-miterlimit="10" x1="855.5" y1="559.3" x2="855.5" y2="840.2"/>
	<line fill="none" stroke="#231F20" stroke-width="12.1825" stroke-miterlimit="10" x1="855.5" y1="163.7" x2="855.5" y2="414"/>
	<g>
		<path fill="#FC9732" stroke="#231F20" stroke-width="16.2433" stroke-miterlimit="10" d="M299.8,398.7c-7.4,0-13.9-5.4-15-13
			c-1.2-8.3,4.5-16,12.8-17.3l0,0c0.4-0.1,35.5-5.6,69.7-27.8c44.4-28.8,66.9-71.3,66.9-126.4c0-66.1,34.8-119.6,100.7-154.7
			c48.2-25.6,95.7-32.3,97.7-32.5c8.4-1.1,16,4.7,17.1,13.1c1.1,8.3-4.7,16-13.1,17.1c-0.4,0.1-44.8,6.4-88.2,29.6
			c-55.6,29.8-83.8,72.7-83.8,127.4c0,82.9-44.5,128.7-81.8,152.6c-39.7,25.4-79.1,31.5-80.8,31.7
			C301.3,398.6,300.5,398.7,299.8,398.7z"/>
	</g>
	<g>
		<path fill="#FC9732" stroke="#231F20" stroke-width="16.2433" stroke-miterlimit="10" d="M299.8,473c-7.8,0-14.5-6-15.2-14
			c-0.7-8.4,5.5-15.7,13.9-16.4l0,0c0.7-0.1,66.1-5.8,130.2-34.4c82.6-36.9,124.2-92.9,123.7-166.5c-0.4-59,17.5-107.1,53.2-143
			c64.7-65,164.2-65.9,169.5-65.9c0,0,0.1,0,0.1,0c8.4,0,15.2,6.8,15.2,15.3c0,8.4-6.8,15.2-15.2,15.2c0,0,0,0,0,0
			c-0.9,0-92.1,0.7-148,57.1c-29.7,29.9-44.6,70.7-44.2,121.1c0.6,85.8-48.7,153.2-142.5,194.9C371.7,466.8,303.9,472.7,301,473
			C300.6,473,300.2,473,299.8,473z"/>
	</g>
	<g>
		<g>
			<path fill="#EF8E10" stroke="#231F20" stroke-width="12.1825" stroke-miterlimit="10" d="M24,301.9l1.9-1.9c12-12,31.5-12,43.5,0
				L274.3,505c12,12,12,31.5,0,43.5l-1.9,1.9c-12,12-31.5,12-43.5,0L24,345.4C12,333.4,12,313.9,24,301.9z"/>
			<path fill="#EF8E10" stroke="#231F20" stroke-width="12.1825" stroke-miterlimit="10" d="M272.4,300l1.9,1.9
				c12,12,12,31.5,0,43.5L69.3,550.3c-12,12-31.5,12-43.5,0l-1.9-1.9c-12-12-12-31.5,0-43.5L228.9,300
				C240.9,288.1,260.4,288.1,272.4,300z"/>
			<circle fill="#FCC751" stroke="#231F20" stroke-width="16.2433" stroke-miterlimit="10" cx="149.1" cy="425.2" r="117.6"/>
		</g>
		<g>
			<path fill="#231F20" d="M58.7,322.1c0,1.1-0.4,2-1.1,2.7S56,326,54.9,326h-5v5c0,2.1-1.7,3.8-3.8,3.8c-2.1,0-3.8-1.7-3.8-3.8v-5
				h-5c-2.1,0-3.8-1.7-3.8-3.8c0-2.1,1.7-3.8,3.8-3.8h5v-5c0-2.1,1.7-3.8,3.8-3.8c1.1,0,2,0.4,2.7,1.1c0.7,0.7,1.1,1.7,1.1,2.7v5h5
				C57,318.3,58.7,320,58.7,322.1z"/>
		</g>
		<g>
			<path fill="#231F20" d="M264.8,322.1c0,1.1-0.4,2-1.1,2.7S262,326,261,326h-5v5c0,2.1-1.7,3.8-3.8,3.8c-2.1,0-3.8-1.7-3.8-3.8v-5
				h-5c-2.1,0-3.8-1.7-3.8-3.8c0-2.1,1.7-3.8,3.8-3.8h5v-5c0-2.1,1.7-3.8,3.8-3.8c1.1,0,2,0.4,2.7,1.1c0.7,0.7,1.1,1.7,1.1,2.7v5h5
				C263.1,318.3,264.8,320,264.8,322.1z"/>
		</g>
		<g>
			<path fill="#231F20" d="M58.7,524.4c0,1.1-0.4,2-1.1,2.7s-1.7,1.1-2.7,1.1h-5v5c0,2.1-1.7,3.8-3.8,3.8c-2.1,0-3.8-1.7-3.8-3.8v-5
				h-5c-2.1,0-3.8-1.7-3.8-3.8c0-2.1,1.7-3.8,3.8-3.8h5v-5c0-2.1,1.7-3.8,3.8-3.8c1.1,0,2,0.4,2.7,1.1c0.7,0.7,1.1,1.7,1.1,2.7v5h5
				C57,520.6,58.7,522.3,58.7,524.4z"/>
		</g>
		<g>
			<path fill="#231F20" d="M264.8,524.4c0,1.1-0.4,2-1.1,2.7s-1.7,1.1-2.7,1.1h-5v5c0,2.1-1.7,3.8-3.8,3.8c-2.1,0-3.8-1.7-3.8-3.8
				v-5h-5c-2.1,0-3.8-1.7-3.8-3.8c0-2.1,1.7-3.8,3.8-3.8h5v-5c0-2.1,1.7-3.8,3.8-3.8c1.1,0,2,0.4,2.7,1.1c0.7,0.7,1.1,1.7,1.1,2.7v5
				h5C263.1,520.6,264.8,522.3,264.8,524.4z"/>
		</g>
		<circle fill="#FCC751" stroke="#231F20" stroke-width="16.2433" stroke-miterlimit="10" cx="149.1" cy="425.2" r="76.3"/>
	</g>
</g>
</svg>
