<?xml version="1.0" encoding="utf-8"?>
<!-- Generator: Adobe Illustrator 26.1.0, SVG Export Plug-In . SVG Version: 6.00 Build 0)  -->
<svg version="1.1" id="Layer_1" xmlns="http://www.w3.org/2000/svg" xmlns:xlink="http://www.w3.org/1999/xlink" x="0px" y="0px"
	 viewBox="0 0 1500 900" enable-background="new 0 0 1500 900" xml:space="preserve">
<rect x="0" fill="#AD55E0" width="1500" height="900"/>
<g>
	<g>
		<polygon fill="#F91244" points="606.5,491.3 618.6,441.3 606.5,391.4 526.3,385.2 360.3,385.2 290.8,393.4 290.8,489.3 
			360.3,497.4 526.3,497.4 		"/>
		<polygon fill="#EA658E" points="591.5,470.9 605.5,489.9 618.6,441.3 597.1,441.3 		"/>
		<polygon fill="#EA658E" points="592.1,411.7 600.1,441.9 618.1,439.4 604.2,394.6 		"/>
		<polygon fill="#EA658E" points="464.3,461.3 480.5,441.9 464.3,420.3 458.4,441.9 		"/>
		<polygon fill="#7F0336" points="350.1,408.9 332.3,441.9 350.1,474.9 463.8,464.2 458.4,441.9 463.8,419.6 		"/>
		<g>
			<line fill="none" stroke="#231F20" stroke-width="1.7771" stroke-miterlimit="10" x1="450.1" y1="418.3" x2="344.7" y2="418.3"/>
			<line fill="none" stroke="#231F20" stroke-width="1.7771" stroke-miterlimit="10" x1="462.7" y1="423.4" x2="341.8" y2="423.4"/>
			<line fill="none" stroke="#231F20" stroke-width="1.7771" stroke-miterlimit="10" x1="461.3" y1="428.5" x2="338.7" y2="428.5"/>
			<line fill="none" stroke="#231F20" stroke-width="1.7771" stroke-miterlimit="10" x1="460" y1="433.5" x2="336.1" y2="433.5"/>
			<line fill="none" stroke="#231F20" stroke-width="1.7771" stroke-miterlimit="10" x1="458.6" y1="438.6" x2="333.2" y2="438.6"/>
			<line fill="none" stroke="#231F20" stroke-width="1.7771" stroke-miterlimit="10" x1="458.4" y1="443.6" x2="332.3" y2="443.6"/>
			<line fill="none" stroke="#231F20" stroke-width="1.7771" stroke-miterlimit="10" x1="459.6" y1="448.7" x2="335.2" y2="448.7"/>
			<line fill="none" stroke="#231F20" stroke-width="1.7771" stroke-miterlimit="10" x1="461" y1="453.8" x2="338" y2="453.8"/>
			<line fill="none" stroke="#231F20" stroke-width="1.7771" stroke-miterlimit="10" x1="462.2" y1="458.8" x2="341.8" y2="458.8"/>
			<line fill="none" stroke="#231F20" stroke-width="1.7771" stroke-miterlimit="10" x1="450.1" y1="463.9" x2="344.7" y2="463.9"/>
		</g>
		<polygon fill="#AA0B44" points="362.4,385.2 385.8,411.7 476.7,388.2 		"/>
		<polygon fill="#AA0B44" points="362.4,499.5 385.8,473 476.7,496.5 		"/>
		<polygon fill="#EA658E" points="497.4,498.5 530.6,498.5 561.2,494.1 530.6,478 		"/>
		<polygon fill="#EA658E" points="498.2,386.6 530.6,383.8 561.2,388.2 530.6,404.3 		"/>
		<line fill="none" stroke="#231F20" stroke-width="6.22" stroke-miterlimit="10" x1="565.1" y1="388.2" x2="530.6" y2="404.3"/>
		<line fill="none" stroke="#231F20" stroke-width="6.22" stroke-miterlimit="10" x1="565.1" y1="494.5" x2="530.6" y2="478"/>
		<polyline fill="none" stroke="#231F20" stroke-width="6.22" stroke-miterlimit="10" points="569.4,388.5 591.5,411.7 598.3,441.3 
					"/>
		<polyline fill="none" stroke="#231F20" stroke-width="6.22" stroke-miterlimit="10" points="569.4,494.1 591.5,470.9 598.3,441.3 
					"/>
		<path fill="none" stroke="#231F20" stroke-width="6.6329" stroke-miterlimit="10" d="M567.4,441.2c0,20.3-16.5,36.8-36.8,36.8
			c-20.3,0-36.8-16.5-36.8-36.8c0-20.3,16.5-36.8,36.8-36.8C550.9,404.3,567.4,420.8,567.4,441.2z"/>
		<line fill="none" stroke="#231F20" stroke-width="6.22" stroke-miterlimit="10" x1="567.4" y1="441.3" x2="618.6" y2="441.3"/>
		<line fill="none" stroke="#231F20" stroke-width="6.22" stroke-miterlimit="10" x1="606.5" y1="391.4" x2="591.5" y2="411.7"/>
		<line fill="none" stroke="#231F20" stroke-width="6.22" stroke-miterlimit="10" x1="606.5" y1="491.3" x2="591.5" y2="470.9"/>
		<polygon fill="none" stroke="#231F20" stroke-width="8.8857" stroke-linejoin="round" stroke-miterlimit="10" points="
			618.6,441.3 606.5,491.3 526.3,497.4 360.3,497.4 290.8,489.3 290.8,393.4 360.3,385.2 526.3,385.2 606.5,391.4 		"/>
		<line fill="none" stroke="#231F20" stroke-width="6.22" stroke-miterlimit="10" x1="457.7" y1="441.3" x2="481.1" y2="441.2"/>
		<polyline fill="none" stroke="#231F20" stroke-width="6.22" stroke-linejoin="round" stroke-miterlimit="10" points="490.1,497.2 
			387.8,471.4 360.3,497.4 		"/>
		<polyline fill="none" stroke="#231F20" stroke-width="6.22" stroke-linejoin="round" stroke-miterlimit="10" points="490.1,386.6 
			386.4,412.3 360.3,385.2 		"/>
		<polyline fill="none" stroke="#231F20" stroke-width="6.22" stroke-miterlimit="10" points="350.1,408.9 331.3,441.9 350.1,474.9 
					"/>
		<line fill="none" stroke="#231F20" stroke-width="6.22" stroke-miterlimit="10" x1="331.3" y1="441.9" x2="290.8" y2="441.9"/>
		<g>
			<path fill="#FCA38B" stroke="#231F20" stroke-width="4.4429" stroke-linejoin="round" stroke-miterlimit="10" d="M378.6,512v6.7
				h-10v-6.2c0-0.2,0-0.3,0-0.5H378.6z"/>
			<path fill="#F90041" stroke="#231F20" stroke-width="4.4429" stroke-linejoin="round" stroke-miterlimit="10" d="M474.5,509v1.9
				h-20.2c0-1.4-0.6-2.7-1.5-3.7c-0.9-0.9-2.2-1.5-3.7-1.5c-2.9,0-5.2,2.3-5.2,5.2v1.2H389c0-1.4-0.6-2.7-1.5-3.7
				c-0.9-0.9-2.2-1.5-3.7-1.5c-2.9,0-5.2,2.3-5.2,5.2h-10c-0.2-3.5-2.3-6.4-4.9-6.4c-2.7,0-5,3.1-5,6.9v0.5h-8.5v-14.4h119.9
				c-1.4,0-2.7,0.6-3.7,1.5c-0.9,1-1.5,2.2-1.5,3.7c0,2.9,2.3,5.2,5.2,5.2H474.5z"/>
			
				<rect x="389" y="512" fill="#FCA38B" stroke="#231F20" stroke-width="4.4429" stroke-linejoin="round" stroke-miterlimit="10" width="54.8" height="6.7"/>
			
				<rect x="454.2" y="510.8" fill="#FCA38B" stroke="#231F20" stroke-width="4.4429" stroke-linejoin="round" stroke-miterlimit="10" width="20.2" height="7.8"/>
		</g>
		<g>
			
				<polyline fill="none" stroke="#231F20" stroke-width="6.22" stroke-linecap="round" stroke-linejoin="round" stroke-miterlimit="10" points="
				266,391.8 278.9,391.8 278.9,515.8 			"/>
			
				<rect x="266.3" y="447.5" fill="#FCA38B" stroke="#231F20" stroke-width="4.4429" stroke-linejoin="round" stroke-miterlimit="10" width="12.3" height="27.2"/>
			
				<rect x="266.3" y="480.9" fill="#FCA38B" stroke="#231F20" stroke-width="4.4429" stroke-linejoin="round" stroke-miterlimit="10" width="12.3" height="8.9"/>
			
				<rect x="266.3" y="432.4" fill="#FCA38B" stroke="#231F20" stroke-width="4.4429" stroke-linejoin="round" stroke-miterlimit="10" width="12.3" height="8.9"/>
		</g>
		
			<circle fill="none" stroke="#231F20" stroke-width="8.8857" stroke-linejoin="round" stroke-miterlimit="10" cx="530.6" cy="441.3" r="17.3"/>
		<polygon fill="#EA658E" stroke="#231F20" stroke-width="4.4429" stroke-linejoin="round" stroke-miterlimit="10" points="
			336.1,414.2 324.9,433.5 324.9,408.9 		"/>
		<polygon fill="#EA658E" stroke="#231F20" stroke-width="4.4429" stroke-linejoin="round" stroke-miterlimit="10" points="
			336.1,469.1 324.9,449.9 324.9,474.5 		"/>
		<path fill="none" stroke="#231F20" stroke-width="6.22" stroke-miterlimit="10" d="M530.6,478l-40.5,19.2l-26.3-33l-6.1-22.8
			l6.1-21.7l26.3-33l40.5,17.7c-20.3,0-36.8,16.5-36.8,36.8C493.7,461.5,510.2,478,530.6,478z"/>
		<polyline fill="none" stroke="#231F20" stroke-width="6.22" stroke-miterlimit="10" points="463.8,464.2 350.1,474.9 290.8,490.4 
					"/>
		<polyline fill="none" stroke="#231F20" stroke-width="6.22" stroke-miterlimit="10" points="290.8,393.4 350.1,408.9 463.8,419.6 
			481.1,441.2 463.8,464.2 491.9,477.3 481.1,441.2 491.9,409.3 463.8,419.6 		"/>
	</g>
	<g>
		<rect x="720" y="383.9" fill="#33AA63" width="105.4" height="115.3"/>
		<g>
			<g>
				<path fill="#83F96E" d="M825.4,408.1v10.6c0,1.6-1.3,3-3,3h-14.9c0-8.2-6.7-14.9-14.9-14.9h-39.7c-8.2,0-14.9,6.7-14.9,14.9H723
					c-1.6,0-3-1.3-3-3v-10.6c0-0.8,0.4-1.6,1-2.2l13.7-12.2c0.5-0.5,1.2-0.8,2-0.8h18.5c1.6,0,3,1.3,3,3c0,0.8,0.3,1.6,0.9,2.1
					c0.5,0.5,1.3,0.9,2.1,0.9h23.2c0.8,0,1.6-0.3,2.1-0.9c0.5-0.5,0.9-1.3,0.9-2.1c0-1.6,1.3-3,3-3h18.5c0.7,0,1.4,0.3,2,0.8
					l13.7,12.2C825,406.4,825.4,407.2,825.4,408.1z"/>
				<path fill="#231F20" d="M822.4,424.2h-14.9c-1.4,0-2.5-1.1-2.5-2.5c0-6.8-5.6-12.4-12.4-12.4h-39.7c-6.8,0-12.4,5.6-12.4,12.4
					c0,1.4-1.1,2.5-2.5,2.5H723c-3,0-5.5-2.5-5.5-5.5v-10.6c0-1.6,0.7-3,1.8-4.1l13.7-12.2c1-0.9,2.3-1.4,3.7-1.4h18.5
					c3,0,5.5,2.5,5.5,5.5c0,0,0,0.2,0.1,0.3c0.1,0.1,0.2,0.1,0.3,0.1h23.2c0.1,0,0.2-0.1,0.3-0.1c0.1-0.1,0.1-0.3,0.1-0.3
					c0-3,2.5-5.5,5.5-5.5h18.5c1.3,0,2.6,0.5,3.7,1.4l13.7,12.2c1.2,1,1.8,2.5,1.8,4.1v10.6C827.9,421.7,825.4,424.2,822.4,424.2z
					 M809.8,419.1h12.6c0.2,0,0.4-0.2,0.4-0.4v-10.6c0-0.1,0-0.2-0.1-0.3L809,395.6c-0.1-0.1-0.2-0.1-0.3-0.1h-18.5
					c-0.2,0-0.4,0.2-0.4,0.4c0,1.5-0.6,2.8-1.6,3.9c-1.1,1.1-2.4,1.6-3.9,1.6h-23.2c-1.5,0-2.8-0.6-3.9-1.6c-1-1-1.6-2.4-1.6-3.9
					c0-0.2-0.2-0.4-0.4-0.4h-18.5c-0.1,0-0.2,0-0.3,0.1l-13.7,12.2c-0.1,0.1-0.1,0.2-0.1,0.3v10.6c0,0.2,0.2,0.4,0.4,0.4h12.6
					c1.2-8.4,8.5-14.9,17.3-14.9h39.7C801.3,404.2,808.6,410.7,809.8,419.1z"/>
			</g>
			<g>
				<path fill="#83F96E" d="M760.7,406.7l-22.8,14.9c0-8.2,6.7-14.9,14.9-14.9H760.7z"/>
				<path fill="#231F20" d="M737.9,424.2c-0.4,0-0.8-0.1-1.2-0.3c-0.8-0.4-1.3-1.3-1.3-2.2c0-9.6,7.8-17.5,17.5-17.5h7.9
					c1.1,0,2.1,0.7,2.4,1.8c0.3,1.1-0.1,2.2-1,2.8l-22.8,14.9C738.9,424.1,738.4,424.2,737.9,424.2z M752.2,409.3
					c-4.5,0.2-8.4,3-10.4,6.8L752.2,409.3z"/>
			</g>
			<g>
				<path fill="#83F96E" d="M807.5,421.7l-22.8-14.9h7.9C800.8,406.7,807.5,413.5,807.5,421.7z"/>
				<path fill="#231F20" d="M807.5,424.2c-0.5,0-1-0.1-1.4-0.4l-22.8-14.9c-0.9-0.6-1.4-1.8-1-2.8c0.3-1.1,1.3-1.8,2.4-1.8h7.9
					c9.6,0,17.5,7.8,17.5,17.5c0,0.9-0.5,1.8-1.3,2.2C808.3,424.1,807.9,424.2,807.5,424.2z M793.2,409.3l10.4,6.8
					C801.7,412.3,797.8,409.6,793.2,409.3z"/>
			</g>
		</g>
		<g>
			<g>
				<path fill="#83F96E" d="M825.4,463.9v10.6c0,0.8-0.4,1.7-1,2.2l-13.7,12.2c-0.5,0.5-1.2,0.7-2,0.7h-18.5c-1.6,0-3-1.3-3-3
					c0-0.8-0.3-1.6-0.9-2.1c-0.5-0.5-1.3-0.9-2.1-0.9h-23.2c-0.8,0-1.6,0.3-2.1,0.9c-0.5,0.5-0.9,1.3-0.9,2.1c0,1.6-1.3,3-3,3h-18.5
					c-0.7,0-1.4-0.3-2-0.7L721,476.7c-0.6-0.6-1-1.4-1-2.2v-10.6c0-1.6,1.3-3,3-3h14.9v0.5c0,8.2,6.7,14.9,14.9,14.9h39.7
					c8.2,0,14.9-6.7,14.9-14.9v-0.5h14.9C824,460.9,825.4,462.3,825.4,463.9z"/>
				<path fill="#231F20" d="M808.7,492.2h-18.5c-3,0-5.5-2.5-5.5-5.5c0-0.2-0.1-0.3-0.1-0.3c0,0-0.1-0.1-0.3-0.1h-23.2
					c0,0-0.2,0-0.3,0.1c-0.1,0.1-0.1,0.2-0.1,0.3c0,3-2.5,5.5-5.5,5.5h-18.5c-1.3,0-2.6-0.5-3.6-1.4l-13.7-12.2
					c-1.2-1-1.8-2.5-1.8-4.1v-10.6c0-3,2.5-5.5,5.5-5.5h14.9c1.4,0,2.5,1.1,2.5,2.5v0.5c0,6.8,5.6,12.4,12.4,12.4h39.7
					c6.8,0,12.4-5.6,12.4-12.4v-0.5c0-1.4,1.1-2.5,2.5-2.5h14.9c3,0,5.5,2.5,5.5,5.5v10.6c0,1.6-0.7,3.1-1.9,4.1l-13.7,12.2
					C811.3,491.7,810,492.2,808.7,492.2z M761.1,481.2h23.2c1.5,0,2.8,0.6,3.9,1.6c1.1,1.1,1.6,2.5,1.6,3.9c0,0.2,0.2,0.4,0.4,0.4
					h18.5c0.1,0,0.2,0,0.3-0.1l13.7-12.2c0.1-0.1,0.1-0.2,0.1-0.3v-10.6c0-0.2-0.2-0.4-0.4-0.4h-12.5c-1,8.7-8.4,15.4-17.3,15.4
					h-39.7c-8.9,0-16.3-6.7-17.3-15.4H723c-0.2,0-0.4,0.2-0.4,0.4v10.6c0,0.1,0.1,0.2,0.1,0.3l13.7,12.2c0.1,0.1,0.2,0.1,0.3,0.1
					h18.5c0.2,0,0.4-0.2,0.4-0.4c0-1.5,0.6-2.9,1.6-3.9C758.3,481.8,759.6,481.2,761.1,481.2z"/>
			</g>
		</g>
		<g>
			<path fill="#5CF779" d="M807.5,421.7v39.7c0,8.2-6.7,14.9-14.9,14.9h-39.7c-8.2,0-14.9-6.7-14.9-14.9v-39.7
				c0-8.2,6.7-14.9,14.9-14.9h39.7C800.8,406.7,807.5,413.5,807.5,421.7z"/>
			<path fill="#231F20" d="M792.5,478.9h-39.7c-9.6,0-17.5-7.8-17.5-17.5v-39.7c0-9.6,7.8-17.5,17.5-17.5h39.7
				c9.6,0,17.5,7.8,17.5,17.5v39.7C810,471,802.2,478.9,792.5,478.9z M752.8,409.3c-6.8,0-12.4,5.6-12.4,12.4v39.7
				c0,6.8,5.6,12.4,12.4,12.4h39.7c6.8,0,12.4-5.6,12.4-12.4v-39.7c0-6.8-5.6-12.4-12.4-12.4H752.8z"/>
		</g>
		<g>
			<path fill="#33AA63" d="M737.9,428.7v25.2h-7.2c-0.7,0-1.3-0.6-1.3-1.3V430c0-0.7,0.6-1.3,1.3-1.3H737.9z"/>
			<path fill="#231F20" d="M740.5,456.4h-9.8c-2.1,0-3.8-1.7-3.8-3.8V430c0-2.1,1.7-3.8,3.8-3.8h9.8V456.4z M731.9,451.4h3.4v-20.1
				h-3.4V451.4z"/>
		</g>
		<g>
			<path fill="#33AA63" d="M816.2,430v22.6c0,0.7-0.6,1.3-1.3,1.3h-7.4v-25.2h7.4C815.6,428.7,816.2,429.3,816.2,430z"/>
			<path fill="#231F20" d="M814.9,456.4h-9.9v-30.3h9.9c2.1,0,3.8,1.7,3.8,3.8v22.6C818.7,454.7,817,456.4,814.9,456.4z M810,451.4
				h3.6v-20.1H810V451.4z"/>
		</g>
		<g>
			<circle fill="#231F20" cx="763.8" cy="392.9" r="1"/>
		</g>
		<g>
			<circle fill="#231F20" cx="767.2" cy="392.9" r="1"/>
		</g>
		<g>
			<circle fill="#231F20" cx="770.6" cy="392.9" r="1"/>
		</g>
		<g>
			<circle fill="#231F20" cx="773.9" cy="392.9" r="1"/>
		</g>
		<g>
			<circle fill="#231F20" cx="777.3" cy="392.9" r="1"/>
		</g>
		<g>
			<circle fill="#231F20" cx="780.7" cy="392.9" r="1"/>
		</g>
		<g>
			<circle fill="#231F20" cx="763.8" cy="389.7" r="1"/>
		</g>
		<g>
			<circle fill="#231F20" cx="767.2" cy="389.7" r="1"/>
		</g>
		<g>
			<circle fill="#231F20" cx="770.6" cy="389.7" r="1"/>
		</g>
		<g>
			<circle fill="#231F20" cx="773.9" cy="389.7" r="1"/>
		</g>
		<g>
			<circle fill="#231F20" cx="777.3" cy="389.7" r="1"/>
		</g>
		<g>
			<circle fill="#231F20" cx="780.7" cy="389.7" r="1"/>
		</g>
		<g>
			<g>
				<circle fill="#231F20" cx="763.3" cy="489.7" r="0.7"/>
			</g>
			<g>
				<circle fill="#231F20" cx="765.7" cy="489.7" r="0.7"/>
			</g>
			<g>
				<circle fill="#231F20" cx="768.1" cy="489.7" r="0.7"/>
			</g>
			<g>
				<circle fill="#231F20" cx="770.4" cy="489.7" r="0.7"/>
			</g>
			<g>
				<circle fill="#231F20" cx="772.8" cy="489.7" r="0.7"/>
			</g>
			<g>
				<circle fill="#231F20" cx="775.2" cy="489.7" r="0.7"/>
			</g>
			<g>
				<circle fill="#231F20" cx="777.5" cy="489.7" r="0.7"/>
			</g>
			<g>
				<circle fill="#231F20" cx="779.9" cy="489.7" r="0.7"/>
			</g>
			<g>
				<circle fill="#231F20" cx="782.3" cy="489.7" r="0.7"/>
			</g>
			<g>
				<circle fill="#231F20" cx="763.3" cy="491.7" r="0.7"/>
			</g>
			<g>
				<circle fill="#231F20" cx="765.7" cy="491.7" r="0.7"/>
			</g>
			<g>
				<circle fill="#231F20" cx="768.1" cy="491.7" r="0.7"/>
			</g>
			<g>
				<circle fill="#231F20" cx="770.4" cy="491.7" r="0.7"/>
			</g>
			<g>
				<circle fill="#231F20" cx="772.8" cy="491.7" r="0.7"/>
			</g>
			<g>
				<circle fill="#231F20" cx="775.2" cy="491.7" r="0.7"/>
			</g>
			<g>
				<circle fill="#231F20" cx="777.5" cy="491.7" r="0.7"/>
			</g>
			<g>
				<circle fill="#231F20" cx="779.9" cy="491.7" r="0.7"/>
			</g>
			<g>
				<circle fill="#231F20" cx="782.3" cy="491.7" r="0.7"/>
			</g>
		</g>
		<polygon fill="#F4C95D" points="720.8,486.7 721.3,499.3 734.5,498.7 721.5,485.5 		"/>
		<path fill="#231F20" d="M826.1,501.7H719.3c-1,0-1.8-0.8-1.8-1.8V383.1c0-1,0.8-1.8,1.8-1.8h106.8c1,0,1.8,0.8,1.8,1.8v116.8
			C827.9,500.9,827.1,501.7,826.1,501.7z M724.4,496.6H821c1,0,1.8-0.8,1.8-1.8V388.2c0-1-0.8-1.8-1.8-1.8h-96.7
			c-1,0-1.8,0.8-1.8,1.8v106.6C722.6,495.8,723.4,496.6,724.4,496.6z"/>
		<g>
			<polygon fill="#231F20" points="733.6,500.9 718.3,485 720.7,482.6 736.1,498.5 			"/>
		</g>
	</g>
	<g>
		<path fill="#662D91" d="M1220.8,421.9v66.4H1105v-5.2c0-1.8-0.7-3.4-1.9-4.5c-1.2-1.2-2.8-1.9-4.5-1.9c-3.5,0-6.4,2.9-6.4,6.4v5.2
			H938.9v-66.4"/>
		<g>
			
				<rect x="1049.6" y="312.8" transform="matrix(-1.836970e-16 1 -1 -1.836970e-16 1518.1785 -641.9063)" fill="#AD55E0" width="61" height="250.6"/>
			<path fill="#231F20" d="M1205.4,473H954.7c-2.4,0-4.4-2-4.4-4.4v-61c0-2.4,2-4.4,4.4-4.4h250.6c2.4,0,4.4,2,4.4,4.4v61
				C1209.7,471,1207.8,473,1205.4,473z M959.1,464.2H1201V412H959.1V464.2z"/>
		</g>
		<g>
			<path fill="#231F20" d="M954.7,444.7c-2.4,0-4.4-2-4.4-4.4v-44.2c0-2.4,2-4.4,4.4-4.4c2.4,0,4.4,2,4.4,4.4v44.2
				C959.1,442.8,957.1,444.7,954.7,444.7z"/>
		</g>
		<g>
			<path fill="#231F20" d="M973.1,473c-2.4,0-4.4-2-4.4-4.4v-72.5c0-2.4,2-4.4,4.4-4.4c2.4,0,4.4,2,4.4,4.4v72.5
				C977.5,471,975.5,473,973.1,473z"/>
		</g>
		<g>
			<path fill="#231F20" d="M991.5,473c-2.4,0-4.4-2-4.4-4.4v-72.5c0-2.4,2-4.4,4.4-4.4s4.4,2,4.4,4.4v72.5
				C995.8,471,993.9,473,991.5,473z"/>
		</g>
		<g>
			<path fill="#231F20" d="M1009.8,473c-2.4,0-4.4-2-4.4-4.4v-72.5c0-2.4,2-4.4,4.4-4.4c2.4,0,4.4,2,4.4,4.4v72.5
				C1014.2,471,1012.2,473,1009.8,473z"/>
		</g>
		<g>
			<path fill="#231F20" d="M1028.2,472.1c-2.4,0-4.4-2-4.4-4.4v-71.6c0-2.4,2-4.4,4.4-4.4s4.4,2,4.4,4.4v71.6
				C1032.6,470.2,1030.6,472.1,1028.2,472.1z"/>
		</g>
		<g>
			<path fill="#231F20" d="M1131.9,473c-2.4,0-4.4-2-4.4-4.4v-72.5c0-2.4,2-4.4,4.4-4.4s4.4,2,4.4,4.4v72.5
				C1136.3,471,1134.3,473,1131.9,473z"/>
		</g>
		<g>
			<path fill="#231F20" d="M1150.3,473c-2.4,0-4.4-2-4.4-4.4v-72.5c0-2.4,2-4.4,4.4-4.4c2.4,0,4.4,2,4.4,4.4v72.5
				C1154.7,471,1152.7,473,1150.3,473z"/>
		</g>
		<g>
			<path fill="#231F20" d="M1168.6,473c-2.4,0-4.4-2-4.4-4.4v-72.5c0-2.4,2-4.4,4.4-4.4c2.4,0,4.4,2,4.4,4.4v72.5
				C1173,471,1171.1,473,1168.6,473z"/>
		</g>
		<g>
			<path fill="#231F20" d="M1187,473c-2.4,0-4.4-2-4.4-4.4v-72.5c0-2.4,2-4.4,4.4-4.4s4.4,2,4.4,4.4v72.5
				C1191.4,471,1189.4,473,1187,473z"/>
		</g>
		<g>
			<path fill="#231F20" d="M1205.4,444.7c-2.4,0-4.4-2-4.4-4.4v-44.2c0-2.4,2-4.4,4.4-4.4s4.4,2,4.4,4.4v44.2
				C1209.7,442.8,1207.8,444.7,1205.4,444.7z"/>
		</g>
		<g>
			<path fill="#92278F" d="M1227.1,421.9h-18.4c-1.4,0-2.6-1.1-2.6-2.6v-9.1c0-1.4,1.1-2.6,2.6-2.6h18.4c1.4,0,2.6,1.1,2.6,2.6v9.1
				C1229.6,420.7,1228.5,421.9,1227.1,421.9z"/>
			<path fill="#231F20" d="M1227.1,426.3h-18.4c-3.8,0-6.9-3.1-6.9-6.9v-9.1c0-3.8,3.1-6.9,6.9-6.9h18.4c3.8,0,6.9,3.1,6.9,6.9v9.1
				C1234,423.2,1230.9,426.3,1227.1,426.3z M1210.5,417.5h14.8V412h-14.8V417.5z"/>
		</g>
		<g>
			<path fill="#92278F" d="M952.2,421.9h-18.4c-1.4,0-2.6-1.1-2.6-2.6v-9.1c0-1.4,1.1-2.6,2.6-2.6h18.4c1.4,0,2.6,1.1,2.6,2.6v9.1
				C954.7,420.7,953.6,421.9,952.2,421.9z"/>
			<path fill="#231F20" d="M952.2,426.3h-18.4c-3.8,0-6.9-3.1-6.9-6.9v-9.1c0-3.8,3.1-6.9,6.9-6.9h18.4c3.8,0,6.9,3.1,6.9,6.9v9.1
				C959.1,423.2,956,426.3,952.2,426.3z M935.6,417.5h14.8V412h-14.8V417.5z"/>
		</g>
		<g>
			<path fill="#231F20" d="M1109.6,458.2h-59.2c-2,0-3.7-1.4-4.2-3.3l-7.6-29.7c-0.3-1.3,0-2.7,0.8-3.8c0.8-1.1,2.1-1.7,3.5-1.7
				h74.4c1.4,0,2.6,0.6,3.5,1.7c0.8,1.1,1.1,2.5,0.8,3.8l-7.6,29.7C1113.4,456.8,1111.6,458.2,1109.6,458.2z M1053.9,449.4h52.4
				l5.4-20.9h-63.1L1053.9,449.4z"/>
		</g>
		<polygon fill="#DB69F7" points="943,488.3 1090.8,487.8 1092,478.5 940,478.5 940.7,488 		"/>
		<g>
			<rect x="938.9" y="476.3" fill="#231F20" width="155.2" height="4.4"/>
		</g>
		<polygon fill="#DB69F7" points="1106.8,488.9 1104.5,478.5 1221.8,478.5 1218.1,488.9 		"/>
		<g>
			<rect x="1103.1" y="476.3" fill="#231F20" width="117.8" height="4.4"/>
		</g>
		<path fill="#231F20" d="M1220.8,491.3H1105c-1.7,0-3.1-1.4-3.1-3.1v-5.2c0-0.9-0.3-1.7-1-2.3c-0.6-0.6-1.5-1-2.4-1
			c-1.8,0-3.3,1.5-3.3,3.3v5.2c0,1.7-1.4,3.1-3.1,3.1H938.9c-1.7,0-3.1-1.4-3.1-3.1v-66.4h6.1v63.3h147.1v-2.1
			c0-5.2,4.2-9.5,9.5-9.5c2.5,0,4.9,1,6.7,2.8c1.8,1.8,2.8,4.2,2.8,6.7v2.1h109.7v-63.3h6.1v66.4
			C1223.9,490,1222.5,491.3,1220.8,491.3z"/>
	</g>
</g>
</svg>
