<?xml version="1.0" encoding="UTF-8"?><svg id="Layer_1" xmlns="http://www.w3.org/2000/svg" xmlns:xlink="http://www.w3.org/1999/xlink" viewBox="0 0 306 198.73"><defs><style>.cls-1,.cls-2{fill:none;}.cls-2{stroke:#ee2350;stroke-linecap:round;stroke-linejoin:round;stroke-width:0px;}.cls-3{fill:#221f1f;}.cls-4{fill:#4165b0;}.cls-5{fill:#0bb68b;}.cls-6{fill:url(#New_Pattern_12);}</style><pattern id="New_Pattern_12" x="0" y="0" width="202.48" height="123.41" patternTransform="translate(-3347.7 -2383.77)" patternUnits="userSpaceOnUse" viewBox="0 0 202.48 123.41"><g><rect class="cls-1" width="202.48" height="123.41"/><path class="cls-5" d="M121.23,4.03l-17.1,17.1v16.8c2.87-6.45,6.76-12.93,11.65-19.31,6.87-8.96,13.67-15.15,16.26-17.38,0-.41-.01-.83-.03-1.24h-10.71c1.05,1.14,1.04,2.92-.07,4.02Z"/><polygon class="cls-5" points="104.13 12.9 117.03 0 105.33 0 104.13 1.21 104.13 12.9"/><polygon class="cls-5" points="98.31 1.21 97.11 0 85.41 0 98.31 12.9 98.31 1.21"/><path class="cls-5" d="M98.31,37.78V21.13L81.21,4.03c-1.11-1.11-1.13-2.88-.07-4.02h-10.71c-.01,.41-.02,.82-.03,1.24,4.25,3.64,19.44,17.53,27.92,36.55Z"/><path class="cls-3" d="M70.39,1.24c0-.41,.01-.83,.03-1.24h-.06c.01,.41,.02,.82,.02,1.23h.01Z"/><path class="cls-3" d="M132.06,1.23c0-.41,.01-.82,.02-1.23h-.06c.01,.41,.02,.83,.03,1.24h.01Z"/><path class="cls-3" d="M104.13,12.9V1.21l-.85,.85c-.57,.57-1.31,.85-2.06,.85s-1.49-.28-2.06-.85l-.85-.85V12.9l2.91,2.91,2.91-2.91Z"/><path class="cls-3" d="M104.13,37.93V21.13l-.85,.85c-.57,.57-1.31,.85-2.06,.85s-1.49-.28-2.06-.85l-.85-.85v16.65c1.11,2.48,2.09,5.05,2.93,7.7,.8-2.51,1.77-5.02,2.89-7.55Z"/><path class="cls-3" d="M99.16,2.06c-.57-.57-.85-1.31-.85-2.06h-1.2l1.2,1.2,.85,.85Z"/><path class="cls-3" d="M81.21,4.03l17.1,17.1,.85,.85c-1.14-1.14-1.14-2.98,0-4.11l2.06-2.06-2.91-2.91L85.41,0h-4.27c-1.05,1.14-1.04,2.92,.07,4.02Z"/><path class="cls-3" d="M99.16,2.06c.57,.57,1.31,.85,2.06,.85s1.49-.28,2.06-.85l.85-.85L105.33,0h-7.02c0,.74,.28,1.49,.85,2.06Z"/><path class="cls-3" d="M101.22,15.81l-2.06,2.06c-1.14,1.14-1.14,2.98,0,4.11,.57,.57,1.31,.85,2.06,.85s1.49-.28,2.06-.85l.85-.85L121.23,4.03c1.11-1.11,1.13-2.88,.07-4.02h-4.27l-12.9,12.9-2.91,2.91Z"/><path class="cls-5" d="M165.79,37.78V21.13l-17.1-17.1c-1.11-1.11-1.13-2.88-.07-4.02h-10.71c-.01,.41-.02,.82-.03,1.24,4.25,3.64,19.44,17.53,27.92,36.55Z"/><path class="cls-5" d="M194.5,5.91c2.2-2.17,3.97-3.75,5.03-4.66,0-.41-.01-.83-.03-1.24h-4.86c.03,.66,.05,1.32,.05,1.97,0,1.3-.06,2.61-.19,3.94Z"/><polygon class="cls-5" points="165.79 1.21 164.59 0 152.89 0 165.79 12.9 165.79 1.21"/><path class="cls-3" d="M133.13,.33L133.54,0h-1.46c-.01,.41-.02,.82-.02,1.23,.63-.54,1.01-.85,1.08-.91Z"/><path class="cls-3" d="M199.54,1.23c0-.41,.01-.82,.02-1.23h-.06c.01,.41,.02,.83,.03,1.24h.01Z"/><path class="cls-3" d="M137.87,1.24c0-.41,.01-.83,.03-1.24h-1.52l.4,.32c.13,.1,.51,.41,1.09,.91Z"/><path class="cls-5" d="M171.61,19.92h0v18.01c2.87-6.45,6.76-12.93,11.65-19.31,1.26-1.65,2.52-3.2,3.76-4.65,1.15-3.86,1.85-7.9,1.85-12.01,0-.66-.02-1.31-.06-1.97h-17.2V19.92Z"/><path class="cls-3" d="M187.02,13.97c2.72-3.21,5.31-5.92,7.48-8.07,.12-1.33,.19-2.64,.19-3.94,0-.65-.02-1.31-.05-1.97h-5.83c.03,.65,.06,1.31,.06,1.97,0,4.11-.7,8.15-1.85,12.01Z"/><path class="cls-3" d="M170.76,2.06c-.57,.57-1.31,.85-2.06,.85s-1.49-.28-2.06-.85l-.85-.85V12.9l4.97,4.97c.57,.57,.85,1.31,.85,2.06V0c0,.74-.28,1.49-.85,2.06Z"/><path class="cls-3" d="M171.61,37.93V19.93c0,.74-.28,1.49-.85,2.06-.57,.57-1.31,.85-2.06,.85s-1.49-.28-2.06-.85l-.85-.85v16.65c1.11,2.48,2.09,5.05,2.93,7.7,.8-2.51,1.77-5.02,2.89-7.55Z"/><path class="cls-3" d="M166.64,2.06c.57,.57,1.31,.85,2.06,.85s1.49-.28,2.06-.85c.57-.57,.85-1.31,.85-2.06h-7.02l1.2,1.2,.85,.85Z"/><path class="cls-3" d="M148.69,4.03l17.1,17.1,.85,.85c.57,.57,1.31,.85,2.06,.85s1.49-.28,2.06-.85c.57-.57,.85-1.31,.85-2.06h0c0-.75-.28-1.49-.85-2.06l-4.97-4.97L152.89,0h-4.27c-1.05,1.14-1.04,2.92,.07,4.02Z"/><path class="cls-5" d="M30.83,37.78V21.13L13.73,4.03C12.62,2.92,12.6,1.14,13.66,0H2.94c-.01,.41-.02,.82-.03,1.24,4.25,3.64,19.44,17.53,27.92,36.55Z"/><polygon class="cls-5" points="30.83 1.21 29.63 0 17.93 0 30.83 12.9 30.83 1.21"/><path class="cls-5" d="M36.65,0h27.89c.01,.41,.02,.83,.03,1.24-2.59,2.24-9.39,8.42-16.26,17.38-4.89,6.38-8.79,12.85-11.65,19.31V19.92h0V0Zm2.89,6.53c0,1.88,1.53,3.41,3.41,3.41s3.41-1.53,3.41-3.41-1.53-3.41-3.41-3.41-3.41,1.53-3.41,3.41Z"/><path class="cls-3" d="M70.38,1.23c0-.41,0-.82-.02-1.23h-1.46l.4,.32c.12,.1,.5,.41,1.08,.9Z"/><path class="cls-3" d="M65.65,.33L66.06,0h-1.52c.01,.41,.02,.83,.03,1.24,.63-.55,1.02-.86,1.09-.92Z"/><path class="cls-3" d="M1.83,.33c.13,.1,.51,.41,1.09,.91,0-.41,.01-.83,.03-1.24H1.42l.4,.32Z"/><path class="cls-3" d="M35.8,2.06c-.57,.57-1.31,.85-2.06,.85s-1.49-.28-2.06-.85l-.85-.85V12.9l4.97,4.97c.57,.57,.85,1.31,.85,2.06V0c0,.74-.28,1.49-.85,2.06Z"/><path class="cls-3" d="M33.76,45.48c.8-2.51,1.77-5.02,2.89-7.55V19.93c0,.74-.28,1.49-.85,2.06-.57,.57-1.31,.85-2.06,.85s-1.49-.28-2.06-.85l-.85-.85v16.65c1.11,2.48,2.09,5.05,2.93,7.7Z"/><path class="cls-3" d="M31.68,2.06c.57,.57,1.31,.85,2.06,.85s1.49-.28,2.06-.85c.57-.57,.85-1.31,.85-2.06h-7.02l1.2,1.2,.85,.85Z"/><path class="cls-3" d="M13.73,4.03L30.83,21.13l.85,.85c.57,.57,1.31,.85,2.06,.85s1.49-.28,2.06-.85c.57-.57,.85-1.31,.85-2.06h0c0-.75-.28-1.49-.85-2.06l-4.97-4.97L17.93,0h-4.27c-1.05,1.14-1.04,2.92,.07,4.02Z"/><circle class="cls-3" cx="42.95" cy="6.53" r="3.41"/><path class="cls-3" d="M200.61,.33L201.02,0h-1.46c-.01,.41-.02,.82-.02,1.23,.63-.54,1.01-.85,1.08-.91Z"/><path class="cls-4" d="M64.57,99.49v-16.65l-17.1-17.1c-1.14-1.14-1.14-2.98,0-4.11,1.14-1.14,2.98-1.14,4.11,0l12.99,12.99v-11.7l-16.91-16.91c-1.14-1.14-1.14-2.98,0-4.11,1.14-1.14,2.98-1.14,4.11,0l12.79,12.79v-13.83l-10.82-10.82c-1.14-1.14-1.14-2.98,0-4.11,1.14-1.14,2.98-1.14,4.11,0l6.7,6.7V9.15c-9,8.72-27.69,29.71-27.92,53.79,4.25,3.64,19.44,17.53,27.92,36.55Z"/><path class="cls-4" d="M77.09,25.92c1.14-1.14,2.98-1.14,4.11,0,1.14,1.14,1.14,2.98,0,4.11l-10.82,10.82v13.83l12.79-12.79c1.14-1.14,2.98-1.14,4.11,0,1.14,1.14,1.14,2.98,0,4.11l-16.91,16.91v11.7l12.99-12.99c1.14-1.14,2.98-1.14,4.11,0,1.14,1.14,1.14,2.98,0,4.11l-17.1,17.1v16.8c2.87-6.45,6.76-12.93,11.65-19.31,6.87-8.96,13.67-15.15,16.26-17.38-.22-24.08-18.92-45.08-27.92-53.8v23.48l6.7-6.7Z"/><path class="cls-3" d="M70.39,2.59v6.56c9,8.72,27.69,29.71,27.92,53.8h.01c.05-5.69,1.04-11.55,2.93-17.47-.84-2.64-1.83-5.21-2.93-7.7C89.84,18.77,74.64,4.88,70.39,1.24h-.01c-.57-.5-.95-.81-1.08-.91L68.9,0h-.12c.95,.48,1.61,1.45,1.61,2.59Z"/><path class="cls-3" d="M64.57,1.24c-2.59,2.24-9.39,8.42-16.26,17.38-4.89,6.38-8.79,12.85-11.65,19.31-1.12,2.52-2.08,5.04-2.89,7.55,1.75,5.52,2.83,11.37,2.88,17.45h.01c.23-24.07,18.92-45.06,27.92-53.78V2.59c0-1.14,.66-2.11,1.61-2.59h-.12l-.4,.32c-.07,.06-.46,.37-1.09,.92Z"/><path class="cls-3" d="M69.54,83.69c-.57,.57-1.31,.85-2.06,.85s-1.49-.28-2.06-.85l-.85-.85v16.65c1.11,2.48,2.09,5.05,2.93,7.7,.8-2.51,1.77-5.02,2.89-7.55v-16.8l-.85,.85Z"/><path class="cls-3" d="M70.39,54.68v-13.83l-.85,.85c-.57,.57-1.31,.85-2.06,.85s-1.49-.28-2.06-.85l-.85-.85v13.83l2.91,2.91,2.91-2.91Z"/><path class="cls-3" d="M70.39,74.61v-11.7l-.85,.85c-.57,.57-1.31,.85-2.06,.85s-1.49-.28-2.06-.85l-.85-.85v11.7l2.91,2.91,2.91-2.91Z"/><path class="cls-3" d="M64.57,2.59v30.04l2.91,2.91,2.91-2.91V2.59c0-1.14-.66-2.11-1.61-2.59h-2.6c-.95,.48-1.61,1.45-1.61,2.59Z"/><path class="cls-3" d="M57.87,25.92c-1.14-1.14-2.98-1.14-4.11,0-1.14,1.14-1.14,2.98,0,4.11l10.82,10.82,.85,.85c-1.14-1.14-1.14-2.98,0-4.11l2.06-2.06-2.91-2.91-6.7-6.7Z"/><path class="cls-3" d="M65.42,59.65l2.06-2.06-2.91-2.91-12.79-12.79c-1.14-1.14-2.98-1.14-4.11,0-1.14,1.14-1.14,2.98,0,4.11l16.91,16.91,.85,.85c-1.14-1.14-1.14-2.98,0-4.11Z"/><path class="cls-3" d="M65.42,79.57l2.06-2.06-2.91-2.91-12.99-12.99c-1.14-1.14-2.98-1.14-4.11,0-1.14,1.14-1.14,2.98,0,4.11l17.1,17.1,.85,.85c-1.14-1.14-1.14-2.98,0-4.11Z"/><path class="cls-3" d="M67.48,84.54c.74,0,1.49-.28,2.06-.85-.57,.57-1.31,.85-2.06,.85Z"/><path class="cls-3" d="M65.42,37.59c-1.14,1.14-1.14,2.98,0,4.11,.57,.57,1.31,.85,2.06,.85s1.49-.28,2.06-.85l.85-.85,10.82-10.82c1.14-1.14,1.14-2.98,0-4.11-1.14-1.14-2.98-1.14-4.11,0l-6.7,6.7-2.91,2.91-2.06,2.06Z"/><path class="cls-3" d="M67.48,57.59l-2.06,2.06c-1.14,1.14-1.14,2.98,0,4.11,.57,.57,1.31,.85,2.06,.85s1.49-.28,2.06-.85l.85-.85,16.91-16.91c1.14-1.14,1.14-2.98,0-4.11-1.14-1.14-2.98-1.14-4.11,0l-12.79,12.79-2.91,2.91Z"/><path class="cls-3" d="M67.48,77.52l-2.06,2.06c-1.14,1.14-1.14,2.98,0,4.11,.57,.57,1.31,.85,2.06,.85s1.49-.28,2.06-.85l.85-.85,17.1-17.1c1.14-1.14,1.14-2.98,0-4.11-1.14-1.14-2.98-1.14-4.11,0l-12.99,12.99-2.91,2.91Z"/><path class="cls-4" d="M132.05,99.49v-16.65l-17.1-17.1c-1.14-1.14-1.14-2.98,0-4.11,1.14-1.14,2.98-1.14,4.11,0l12.99,12.99v-11.7l-16.91-16.91c-1.14-1.14-1.14-2.98,0-4.11,1.14-1.14,2.98-1.14,4.11,0l12.79,12.79v-13.83l-10.82-10.82c-1.14-1.14-1.14-2.98,0-4.11,1.14-1.14,2.98-1.14,4.11,0l6.7,6.7V9.15c-9,8.72-27.69,29.71-27.92,53.79,4.25,3.64,19.44,17.53,27.92,36.55Z"/><path class="cls-4" d="M148.89,30c7.89,11.37,12.06,23.02,12.06,33.68,0,1.3-.06,2.61-.19,3.94,2.2-2.17,3.97-3.75,5.03-4.66-.22-24.08-18.92-45.08-27.92-53.8v7.7c1.92,1.88,6.46,6.57,11.02,13.15Z"/><path class="cls-3" d="M132.06,1.23h-.01c-2.59,2.25-9.39,8.43-16.26,17.39-4.89,6.38-8.79,12.85-11.65,19.31-1.12,2.52-2.08,5.04-2.89,7.55-1.89,5.92-2.88,11.77-2.93,17.46,.63-.54,1.01-.85,1.08-.91l1.83-1.47,1.83,1.47c.13,.1,.51,.41,1.09,.91,.23-24.08,18.92-45.07,27.92-53.79V2.59h5.82v6.56c9,8.72,27.69,29.71,27.92,53.8h.01c.05-5.69,1.04-11.55,2.93-17.47-.84-2.64-1.83-5.21-2.93-7.7-8.48-19.01-23.67-32.9-27.92-36.55-.58-.5-.96-.81-1.09-.91L136.38,0h-2.85l-.4,.32c-.07,.06-.45,.37-1.08,.91Z"/><line class="cls-2" x1="134.96" y1="2.59" x2="134.96" y2="2.59"/><path class="cls-4" d="M137.87,25.36v14.29h0v22.06h0v19.92h0v18.01c2.87-6.45,6.76-12.93,11.65-19.31,1.26-1.65,2.52-3.2,3.76-4.65,1.15-3.86,1.85-7.9,1.85-12.01,0-16.12-10.74-30.86-17.26-38.32Z"/><path class="cls-3" d="M132.05,32.63l4.97,4.97c.57,.57,.85,1.31,.85,2.06v-14.29c6.51,7.46,17.26,22.2,17.26,38.32,0,4.11-.7,8.15-1.85,12.01,2.72-3.21,5.31-5.92,7.48-8.07,.12-1.33,.19-2.64,.19-3.94,0-10.66-4.17-22.31-12.06-33.68-4.56-6.58-9.1-11.27-11.02-13.15V2.59h-5.82v30.04Z"/><path class="cls-3" d="M137.02,59.65c.57,.57,.85,1.31,.85,2.06v-22.05c0,.74-.28,1.49-.85,2.06-.57,.57-1.31,.85-2.06,.85s-1.49-.28-2.06-.85l-.85-.85v13.83l4.97,4.97Z"/><path class="cls-3" d="M137.02,83.69c-.57,.57-1.31,.85-2.06,.85s-1.49-.28-2.06-.85l-.85-.85v16.65c1.11,2.48,2.09,5.05,2.93,7.7,.8-2.51,1.77-5.02,2.89-7.55v-18.01c0,.74-.28,1.49-.85,2.06Z"/><path class="cls-3" d="M137.02,79.57c.57,.57,.85,1.31,.85,2.06v-19.92c0,.74-.28,1.49-.85,2.06-.57,.57-1.31,.85-2.06,.85s-1.49-.28-2.06-.85l-.85-.85v11.7l4.97,4.97Z"/><path class="cls-3" d="M134.96,42.56c.74,0,1.49-.28,2.06-.85,.57-.57,.85-1.31,.85-2.06h0c0-.75-.28-1.49-.85-2.06l-4.97-4.97-6.7-6.7c-1.14-1.14-2.98-1.14-4.11,0-1.14,1.14-1.14,2.98,0,4.11l10.82,10.82,.85,.85c.57,.57,1.31,.85,2.06,.85Z"/><path class="cls-3" d="M134.96,64.61c.74,0,1.49-.28,2.06-.85,.57-.57,.85-1.31,.85-2.06h0c0-.75-.28-1.49-.85-2.06l-4.97-4.97-12.79-12.79c-1.14-1.14-2.98-1.14-4.11,0-1.14,1.14-1.14,2.98,0,4.11l16.91,16.91,.85,.85c.57,.57,1.31,.85,2.06,.85Z"/><path class="cls-3" d="M134.96,84.54c.74,0,1.49-.28,2.06-.85,.57-.57,.85-1.31,.85-2.06h0c0-.75-.28-1.49-.85-2.06l-4.97-4.97-12.99-12.99c-1.14-1.14-2.98-1.14-4.11,0-1.14,1.14-1.14,2.98,0,4.11l17.1,17.1,.85,.85c.57,.57,1.31,.85,2.06,.85Z"/><path class="cls-4" d="M30.83,62.95c-2.59,2.24-9.39,8.42-16.26,17.38-4.89,6.38-8.79,12.85-11.65,19.31v-18.01h0v-19.92h0v-22.06h0V9.15c9,8.72,27.69,29.71,27.92,53.8Zm-18.21,5.29c0-1.88-1.53-3.41-3.41-3.41s-3.41,1.53-3.41,3.41,1.53,3.41,3.41,3.41,3.41-1.53,3.41-3.41Zm0-10.08c0-1.88-1.53-3.41-3.41-3.41s-3.41,1.53-3.41,3.41,1.53,3.41,3.41,3.41,3.41-1.53,3.41-3.41Zm0-10.08c0-1.88-1.53-3.41-3.41-3.41s-3.41,1.53-3.41,3.41,1.53,3.41,3.41,3.41,3.41-1.53,3.41-3.41Z"/><path class="cls-3" d="M2.91,2.59v6.56c9,8.72,27.69,29.71,27.92,53.8,.63-.55,1.02-.86,1.09-.92l1.83-1.47,1.83,1.47c.12,.1,.5,.41,1.08,.9-.05-6.08-1.13-11.93-2.88-17.45-.84-2.64-1.83-5.21-2.93-7.7C22.36,18.77,7.16,4.88,2.91,1.24c-.58-.5-.96-.81-1.09-.91L1.42,0h-.12c.95,.48,1.61,1.45,1.61,2.59Z"/><path class="cls-3" d="M2.91,61.7v-22.05c0,.74-.28,1.49-.85,2.06-.57,.57-1.31,.85-2.06,.85v15.03l2.06,2.06c.57,.57,.85,1.31,.85,2.06Z"/><path class="cls-3" d="M2.91,99.64v-18.01c0,.74-.28,1.49-.85,2.06-.57,.57-1.31,.85-2.06,.85v22.72c.81-2.53,1.78-5.07,2.91-7.62Z"/><path class="cls-3" d="M2.91,39.65V2.59C2.91,1.45,2.25,.48,1.3,0H0V35.54l2.06,2.06c.57,.57,.85,1.31,.85,2.06Z"/><path class="cls-3" d="M2.91,81.63v-19.92c0,.74-.28,1.49-.85,2.06-.57,.57-1.31,.85-2.06,.85v12.9l2.06,2.06c.57,.57,.85,1.31,.85,2.06Z"/><path class="cls-3" d="M2.91,39.65h0c0-.75-.28-1.49-.85-2.06L0,35.54v7.02c.74,0,1.49-.28,2.06-.85,.57-.57,.85-1.31,.85-2.06Z"/><path class="cls-3" d="M2.91,61.71h0c0-.75-.28-1.49-.85-2.06L0,57.59v7.02c.74,0,1.49-.28,2.06-.85,.57-.57,.85-1.31,.85-2.06Z"/><path class="cls-3" d="M2.91,81.63h0c0-.75-.28-1.49-.85-2.06L0,77.52v7.02c.74,0,1.49-.28,2.06-.85,.57-.57,.85-1.31,.85-2.06Z"/><circle class="cls-3" cx="9.21" cy="48.07" r="3.41"/><circle class="cls-3" cx="9.21" cy="58.15" r="3.41"/><path class="cls-3" d="M9.21,64.82c-1.88,0-3.41,1.53-3.41,3.41s1.53,3.41,3.41,3.41,3.41-1.53,3.41-3.41-1.53-3.41-3.41-3.41Z"/><path class="cls-4" d="M199.53,99.49v-16.65l-17.1-17.1c-1.14-1.14-1.14-2.98,0-4.11,1.14-1.14,2.98-1.14,4.11,0l12.99,12.99v-11.7l-16.91-16.91c-1.14-1.14-1.14-2.98,0-4.11,1.14-1.14,2.98-1.14,4.11,0l12.79,12.79v-13.83l-10.82-10.82c-1.14-1.14-1.14-2.98,0-4.11,1.14-1.14,2.98-1.14,4.11,0l6.7,6.7V9.15c-9,8.72-27.69,29.71-27.92,53.79,4.25,3.64,19.44,17.53,27.92,36.55Z"/><path class="cls-3" d="M199.54,1.23h-.01c-1.06,.93-2.83,2.51-5.03,4.68-2.17,2.14-4.76,4.86-7.48,8.07-1.23,1.45-2.49,3-3.76,4.65-4.89,6.38-8.79,12.85-11.65,19.31-1.12,2.52-2.08,5.04-2.89,7.55-1.89,5.92-2.88,11.77-2.93,17.46,.63-.54,1.01-.85,1.08-.91l1.83-1.47,1.83,1.47c.13,.1,.51,.41,1.09,.91,.23-24.08,18.92-45.07,27.92-53.79V2.59c0-1.14,.66-2.11,1.61-2.59h-.12l-.4,.32c-.07,.06-.45,.37-1.08,.91Z"/><path class="cls-3" d="M202.44,64.61c-.74,0-1.49-.28-2.06-.85l-.85-.85v11.7l2.94,2.94v-12.94s-.02,0-.04,0Z"/><path class="cls-3" d="M202.44,42.56c-.74,0-1.49-.28-2.06-.85l-.85-.85v13.83l2.94,2.94v-15.07s-.02,0-.04,0Z"/><path class="cls-3" d="M202.44,84.54c-.74,0-1.49-.28-2.06-.85l-.85-.85v16.65c1.11,2.48,2.09,5.05,2.93,7.7v-22.65s-.01,0-.02,0Z"/><path class="cls-3" d="M199.53,2.59v30.04l2.94,2.94V0h-1.34c-.95,.48-1.61,1.45-1.61,2.59Z"/><path class="cls-3" d="M199.53,32.63l-6.7-6.7c-1.14-1.14-2.98-1.14-4.11,0-1.14,1.14-1.14,2.98,0,4.11l10.82,10.82,.85,.85c.57,.57,1.31,.85,2.06,.85,.01,0,.02,0,.04,0v-6.98l-2.94-2.94Z"/><path class="cls-3" d="M199.53,54.68l-12.79-12.79c-1.14-1.14-2.98-1.14-4.11,0-1.14,1.14-1.14,2.98,0,4.11l16.91,16.91,.85,.85c.57,.57,1.31,.85,2.06,.85,.01,0,.02,0,.04,0v-6.98l-2.94-2.94Z"/><path class="cls-3" d="M199.53,74.61l-12.99-12.99c-1.14-1.14-2.98-1.14-4.11,0-1.14,1.14-1.14,2.98,0,4.11l17.1,17.1,.85,.85c.57,.57,1.31,.85,2.06,.85,.01,0,.02,0,.04,0v-6.98l-2.94-2.94Z"/><path class="cls-5" d="M81.4,107.71c-1.14-1.14-1.14-2.98,0-4.11,1.14-1.14,2.98-1.14,4.11,0l12.79,12.79v-13.83l-10.82-10.82c-1.14-1.14-1.14-2.98,0-4.11,1.14-1.14,2.98-1.14,4.11,0l6.7,6.7v-23.48c-8.84,8.57-27.05,29-27.89,52.56h10.71s.04-.06,.07-.09c1.14-1.14,2.98-1.14,4.11,0l.09,.09h11.7l-15.7-15.7Z"/><path class="cls-5" d="M104.13,70.86v23.48l6.7-6.7c1.14-1.14,2.98-1.14,4.11,0,1.14,1.14,1.14,2.98,0,4.11l-10.82,10.82v13.83l12.79-12.79c1.14-1.14,2.98-1.14,4.11,0,1.14,1.14,1.14,2.98,0,4.11l-15.7,15.7h11.7l.09-.09c1.14-1.14,2.98-1.14,4.11,0,.03,.03,.05,.06,.07,.09h10.71c-.84-23.56-19.04-43.99-27.89-52.56Z"/><path class="cls-3" d="M134.98,107.18c-.84-2.64-1.83-5.21-2.93-7.7-8.48-19.01-23.67-32.9-27.92-36.55-.58-.5-.96-.81-1.09-.91l-1.83-1.47-1.83,1.47c-.07,.06-.45,.37-1.08,.91h-.01c-2.59,2.25-9.39,8.43-16.26,17.39-4.89,6.38-8.79,12.85-11.65,19.31-1.12,2.52-2.08,5.04-2.89,7.55,1.63,5.15,2.68,10.59,2.86,16.23h.06c.84-23.56,19.05-43.99,27.89-52.56v-6.56c0-1.61,1.3-2.91,2.91-2.91s2.91,1.3,2.91,2.91v6.56c8.84,8.57,27.05,29,27.89,52.56h.06c.17-5.3,1.15-10.73,2.9-16.23Z"/><path class="cls-3" d="M101.22,104.26c-.74,0-1.49-.28-2.06-.85l-.85-.85v13.83l2.91,2.91,2.91-2.91v-13.83l-.85,.85c-.57,.57-1.31,.85-2.06,.85Z"/><path class="cls-3" d="M98.31,94.33l2.91,2.91,2.91-2.91v-30.04c0-1.61-1.3-2.91-2.91-2.91s-2.91,1.3-2.91,2.91v30.04Z"/><path class="cls-3" d="M99.16,99.3l2.06-2.06-2.91-2.91-6.7-6.7c-1.14-1.14-2.98-1.14-4.11,0-1.14,1.14-1.14,2.98,0,4.11l10.82,10.82,.85,.85c-1.14-1.14-1.14-2.98,0-4.11Z"/><path class="cls-3" d="M103.28,103.41c-.57,.57-1.31,.85-2.06,.85,.74,0,1.49-.28,2.06-.85Z"/><path class="cls-3" d="M99.16,121.35l2.06-2.06-2.91-2.91-12.79-12.79c-1.14-1.14-2.98-1.14-4.11,0-1.14,1.14-1.14,2.98,0,4.11l15.7,15.7h1.2c0-.74,.28-1.49,.85-2.06Z"/><path class="cls-3" d="M81.21,123.32s-.05,.06-.07,.09h4.27l-.09-.09c-1.14-1.14-2.98-1.14-4.11,0Z"/><path class="cls-3" d="M101.22,97.24l-2.06,2.06c-1.14,1.14-1.14,2.98,0,4.11,.57,.57,1.31,.85,2.06,.85s1.49-.28,2.06-.85l.85-.85,10.82-10.82c1.14-1.14,1.14-2.98,0-4.11-1.14-1.14-2.98-1.14-4.11,0l-6.7,6.7-2.91,2.91Z"/><path class="cls-3" d="M121.03,107.71c1.14-1.14,1.14-2.98,0-4.11-1.14-1.14-2.98-1.14-4.11,0l-12.79,12.79-2.91,2.91-2.06,2.06c-.57,.57-.85,1.31-.85,2.06h7.02l15.7-15.7Z"/><path class="cls-3" d="M117.12,123.32l-.09,.09h4.27s-.04-.06-.07-.09c-1.14-1.14-2.98-1.14-4.11,0Z"/><path class="cls-5" d="M148.88,107.71c-1.14-1.14-1.14-2.98,0-4.11,1.14-1.14,2.98-1.14,4.11,0l12.79,12.79v-13.83l-10.82-10.82c-1.14-1.14-1.14-2.98,0-4.11,1.14-1.14,2.98-1.14,4.11,0l6.7,6.7v-23.48c-8.84,8.57-27.05,29-27.89,52.56h10.71s.04-.06,.07-.09c1.14-1.14,2.98-1.14,4.11,0l.09,.09h11.7l-15.7-15.7Z"/><path class="cls-5" d="M171.61,70.86v7.7c1.92,1.88,6.46,6.57,11.02,13.15,7.4,10.67,11.53,21.59,12.01,31.71h4.86c-.84-23.56-19.04-43.99-27.89-52.56Z"/><path class="cls-3" d="M202.46,107.18c-.84-2.64-1.83-5.21-2.93-7.7-8.48-19.01-23.67-32.9-27.92-36.55-.58-.5-.96-.81-1.09-.91l-1.83-1.47-1.83,1.47c-.07,.06-.45,.37-1.08,.91h-.01c-1.06,.93-2.83,2.51-5.03,4.68-2.17,2.14-4.76,4.86-7.48,8.07-1.23,1.45-2.49,3-3.76,4.65-4.89,6.38-8.79,12.85-11.65,19.31-1.12,2.52-2.08,5.04-2.89,7.55-1.75,5.49-2.73,10.93-2.9,16.23h1.45l1.42-1.15,1.42,1.15h1.52c.84-23.56,19.05-43.99,27.89-52.56v-6.56h5.82v6.56c8.84,8.57,27.05,29,27.89,52.56h.06c.17-5.3,1.15-10.73,2.9-16.23Z"/><path class="cls-5" d="M171.61,87.05v14.3h0v22.06h17.2c-.82-15.37-10.95-29.22-17.2-36.36Z"/><path class="cls-3" d="M182.63,91.7c-4.56-6.58-9.1-11.27-11.02-13.15v-14.26h-5.82v30.04l4.97,4.97c.57,.57,.85,1.31,.85,2.06v-14.3c6.25,7.14,16.38,20.98,17.2,36.36h5.83c-.48-10.12-4.6-21.03-12.01-31.71Z"/><path class="cls-3" d="M168.7,104.26c-.74,0-1.49-.28-2.06-.85l-.85-.85v13.83l4.97,4.97c.57,.57,.85,1.31,.85,2.06v-22.05c0,.74-.28,1.49-.85,2.06-.57,.57-1.31,.85-2.06,.85Z"/><path class="cls-3" d="M159.09,87.63c-1.14-1.14-2.98-1.14-4.11,0-1.14,1.14-1.14,2.98,0,4.11l10.82,10.82,.85,.85c.57,.57,1.31,.85,2.06,.85s1.49-.28,2.06-.85c.57-.57,.85-1.31,.85-2.06h0c0-.75-.28-1.49-.85-2.06l-4.97-4.97-6.7-6.7Z"/><path class="cls-3" d="M171.61,123.41c0-.74-.28-1.49-.85-2.06l-4.97-4.97-12.79-12.79c-1.14-1.14-2.98-1.14-4.11,0-1.14,1.14-1.14,2.98,0,4.11l15.7,15.7h7.02Z"/><path class="cls-3" d="M148.69,123.32s-.05,.06-.07,.09h4.27l-.09-.09c-1.14-1.14-2.98-1.14-4.11,0Z"/><path class="cls-5" d="M64.54,123.41h-27.89v-22.05h0v-30.5c8.84,8.57,27.05,29,27.89,52.56Zm-18.18-3.55c0-1.88-1.53-3.41-3.41-3.41s-3.41,1.53-3.41,3.41,1.53,3.41,3.41,3.41,3.41-1.53,3.41-3.41Zm0-10.08c0-1.88-1.53-3.41-3.41-3.41s-3.41,1.53-3.41,3.41,1.53,3.41,3.41,3.41,3.41-1.53,3.41-3.41Z"/><path class="cls-5" d="M13.92,107.71c-1.14-1.14-1.14-2.98,0-4.11,1.14-1.14,2.98-1.14,4.11,0l12.79,12.79v-13.83l-10.82-10.82c-1.14-1.14-1.14-2.98,0-4.11,1.14-1.14,2.98-1.14,4.11,0l6.7,6.7v-23.48c-8.84,8.57-27.05,29-27.89,52.56H13.66s.04-.06,.07-.09c1.14-1.14,2.98-1.14,4.11,0l.09,.09h11.7l-15.7-15.7Z"/><path class="cls-3" d="M67.5,107.18c-.84-2.64-1.83-5.21-2.93-7.7-8.48-19.01-23.67-32.9-27.92-36.55h-.01c-.57-.5-.95-.81-1.08-.91l-1.83-1.47-1.83,1.47c-.07,.06-.46,.37-1.09,.92-2.59,2.24-9.39,8.42-16.26,17.38-4.89,6.38-8.79,12.85-11.65,19.31C1.78,102.18,.81,104.73,0,107.26v15l1.42,1.15h1.52c.84-23.56,19.05-43.99,27.89-52.56v-6.56c0-1.61,1.3-2.91,2.91-2.91s2.91,1.3,2.91,2.91v6.56c8.84,8.57,27.05,29,27.89,52.56h1.52l1.42-1.15,1.42,1.15h1.46c-.17-5.64-1.23-11.08-2.86-16.23Z"/><path class="cls-3" d="M33.74,104.26c-.74,0-1.49-.28-2.06-.85l-.85-.85v13.83l4.97,4.97c.57,.57,.85,1.31,.85,2.06v-22.05c0,.74-.28,1.49-.85,2.06-.57,.57-1.31,.85-2.06,.85Z"/><path class="cls-3" d="M30.83,94.33l4.97,4.97c.57,.57,.85,1.31,.85,2.06v-37.06c0-1.61-1.3-2.91-2.91-2.91s-2.91,1.3-2.91,2.91v30.04Z"/><path class="cls-3" d="M30.83,94.33l-6.7-6.7c-1.14-1.14-2.98-1.14-4.11,0-1.14,1.14-1.14,2.98,0,4.11l10.82,10.82,.85,.85c.57,.57,1.31,.85,2.06,.85s1.49-.28,2.06-.85c.57-.57,.85-1.31,.85-2.06h0c0-.75-.28-1.49-.85-2.06l-4.97-4.97Z"/><path class="cls-3" d="M36.65,123.41c0-.74-.28-1.49-.85-2.06l-4.97-4.97-12.79-12.79c-1.14-1.14-2.98-1.14-4.11,0-1.14,1.14-1.14,2.98,0,4.11l15.7,15.7h7.02Z"/><path class="cls-3" d="M13.73,123.32s-.05,.06-.07,.09h4.27l-.09-.09c-1.14-1.14-2.98-1.14-4.11,0Z"/><circle class="cls-3" cx="42.95" cy="109.78" r="3.41"/><path class="cls-3" d="M42.95,116.45c-1.88,0-3.41,1.53-3.41,3.41s1.53,3.41,3.41,3.41,3.41-1.53,3.41-3.41-1.53-3.41-3.41-3.41Z"/><path class="cls-3" d="M199.56,123.41h1.45l1.42-1.15,.04,.03v-15.11c-1.77,5.49-2.74,10.93-2.91,16.23Z"/><path class="cls-3" d="M67.48,122.26l-1.42,1.15h.12c.39-.2,.83-.32,1.3-.32s.91,.12,1.3,.32h.12l-1.42-1.15Z"/><path class="cls-3" d="M67.48,123.09c-.47,0-.91,.12-1.3,.32h2.6c-.39-.2-.83-.32-1.3-.32Z"/><polygon class="cls-3" points="134.96 122.26 133.54 123.41 136.38 123.41 134.96 122.26"/><path class="cls-3" d="M0,122.26v.83c.47,0,.91,.12,1.3,.32h.12L0,122.26Z"/><path class="cls-3" d="M0,123.09v.32H1.3c-.39-.2-.83-.32-1.3-.32Z"/><path class="cls-3" d="M201.02,123.41h.12c.39-.2,.83-.32,1.3-.32,.01,0,.02,0,.04,0v-.8l-.04-.03-1.42,1.15Z"/><path class="cls-3" d="M201.14,123.41h1.34v-.32s-.02,0-.04,0c-.47,0-.91,.12-1.3,.32Z"/></g></pattern></defs><rect class="cls-6" width="306" height="198.73"/></svg>