<?xml version="1.0" encoding="UTF-8"?><svg id="Layer_1" xmlns="http://www.w3.org/2000/svg" viewBox="0 0 878.2 408.25"><defs><style>.cls-1{fill:#00904c;}.cls-2{fill:#6c42e2;}.cls-3{fill:#b076f4;}.cls-4{fill:#413470;}</style></defs><polygon class="cls-4" points="812.93 400.75 816.15 386.95 747.46 386.95 744.24 400.75 812.93 400.75"/><polygon class="cls-4" points="772.06 248.83 775.28 235.03 706.6 235.03 703.37 248.83 772.06 248.83"/><path class="cls-1" d="M802.8,150.29l29.48-126.04s0-.06,.01-.09l-29.51,126.13h.01Z"/><path class="cls-2" d="M820.87,386.95h-4.71l-3.23,13.8h-68.69l3.23-13.8h-2.98c-1.14,0-2.22-.52-2.93-1.42-.7-.88-.96-2.02-.72-3.12l-4.96,21.22c-.26,1.11,0,2.28,.71,3.18,.71,.9,1.79,1.42,2.93,1.42h76.38c1.74,0,3.25-1.2,3.65-2.89l53.59-229.17s0-.05,0-.07l-48.62,207.95c-.4,1.69-1.91,2.89-3.65,2.89Z"/><path class="cls-2" d="M772.06,248.83h-68.68l3.23-13.79h-2.98c-1.14,0-2.22-.52-2.93-1.42-.7-.88-.95-2.02-.72-3.11l-4.96,21.22c-.26,1.11,0,2.28,.71,3.18,.71,.9,1.79,1.42,2.93,1.42h71.65l1.75-7.49Z"/><polygon class="cls-4" points="385.1 247.97 388.33 234.18 319.65 234.18 316.42 247.97 385.1 247.97"/><polygon class="cls-4" points="280.66 400.76 425.75 400.76 428.98 386.96 283.89 386.96 280.66 400.76"/><path class="cls-2" d="M486.01,176.07l-48.68,208c-.4,1.69-1.91,2.89-3.65,2.89h-4.71l-3.23,13.8h-145.09l3.23-13.8h-2.98c-1.14,0-2.22-.52-2.93-1.42-.69-.87-.94-1.99-.72-3.07l-4.96,21.17c-.26,1.11,0,2.28,.71,3.18,.71,.9,1.79,1.42,2.93,1.42h152.78c1.74,0,3.25-1.2,3.65-2.89l53.64-229.17s0-.07,.01-.11Z"/><path class="cls-2" d="M385.1,247.97h-68.69l3.23-13.8h-2.98c-1.14,0-2.22-.52-2.93-1.42-.69-.87-.94-1.99-.72-3.07l-4.96,21.17c-.26,1.11,0,2.28,.71,3.18s1.79,1.42,2.93,1.42h71.66l1.75-7.49Z"/><polygon class="cls-4" points="576.22 247.97 579.44 234.18 515.09 234.18 511.86 247.97 576.22 247.97"/><polygon class="cls-4" points="675.4 400.76 678.62 386.96 479.36 386.96 476.13 400.76 675.4 400.76"/><path class="cls-1" d="M647.42,303.08l29.68-126.9s0-.06,0-.08l-29.7,126.98h0Z"/><path class="cls-2" d="M683.34,386.96h-4.71l-3.23,13.8h-199.27l3.23-13.8h-2.98c-1.14,0-2.22-.52-2.93-1.42-.69-.87-.95-2.01-.72-3.1l-4.96,21.21c-.26,1.11,0,2.28,.71,3.18,.71,.9,1.79,1.42,2.93,1.42h206.96c1.74,0,3.25-1.2,3.65-2.89l17.87-76.39s0-.06,.01-.08l-12.91,55.19c-.4,1.69-1.91,2.89-3.65,2.89Z"/><path class="cls-2" d="M576.22,247.97h-64.36l3.23-13.8h-2.98c-1.14,0-2.22-.52-2.93-1.42-.69-.87-.95-2.01-.72-3.1l-4.96,21.21c-.26,1.11,0,2.28,.71,3.18,.71,.9,1.79,1.42,2.93,1.42h67.33l1.75-7.49Z"/><polygon class="cls-4" points="161.37 400.76 230.07 400.76 233.3 386.96 164.6 386.96 161.37 400.76"/><polygon class="cls-4" points="77.29 400.76 80.52 386.96 11.82 386.96 8.59 400.76 77.29 400.76"/><polygon class="cls-4" points="192.63 234.18 123.93 234.18 120.7 247.97 189.4 247.97 192.63 234.18"/><path class="cls-2" d="M290.29,176.11l-48.63,207.96c-.4,1.69-1.91,2.89-3.65,2.89h-4.71l-3.23,13.8h-68.7l3.23-13.8h-2.98c-1.14,0-2.22-.52-2.93-1.42-.69-.87-.95-2.01-.72-3.1l-4.96,21.2c-.26,1.11,0,2.28,.71,3.18,.71,.9,1.79,1.42,2.93,1.42h76.39c1.74,0,3.25-1.2,3.65-2.89l53.59-229.17s0-.05,0-.07Z"/><path class="cls-2" d="M189.4,247.97H120.7l-31.83,136.09c-.4,1.69-1.91,2.89-3.65,2.89h-4.71l-3.23,13.8H8.59l3.23-13.8h-2.98c-1.14,0-2.22-.52-2.93-1.42-.69-.87-.95-2.01-.72-3.1L.22,403.65c-.26,1.11,0,2.28,.71,3.18,.71,.9,1.79,1.42,2.93,1.42H80.26c1.74,0,3.25-1.2,3.65-2.89l35.05-149.89h68.69l1.75-7.49Z"/><path class="cls-2" d="M798.07,157.78c-1.14,0-2.22-.52-2.93-1.42s-.97-2.07-.71-3.18L828.89,5.86h-68.71l-51.83,221.68h71.66c1.14,0,2.22,.52,2.93,1.42,.71,.9,.97,2.07,.71,3.18l-34.44,147.32h68.69l51.83-221.68h-71.66Z"/><path class="cls-3" d="M877.39,151.71c-.71-.9-1.79-1.42-2.93-1.42h-71.66l29.51-126.13,4.96-21.2c.26-1.11,0-2.28-.71-3.18s-1.79-1.42-2.93-1.42h-76.4c-1.74,0-3.25,1.2-3.65,2.89l-53.59,229.17s0,.05,0,.07c-.23,1.09,.02,2.23,.72,3.11,.71,.9,1.79,1.42,2.93,1.42h71.66l-3.22,13.79-1.75,7.49-29.47,126.04s0,.04,0,.06c-.24,1.09,.02,2.24,.72,3.12,.71,.9,1.79,1.42,2.93,1.42h76.38c1.74,0,3.25-1.2,3.65-2.89l48.62-207.95,4.96-21.22c.26-1.11,0-2.28-.71-3.18Zm-59.49,227.75h-68.69l34.44-147.32c.26-1.11,0-2.28-.71-3.18-.71-.9-1.79-1.42-2.93-1.42h-71.66L760.17,5.86h68.71l-34.46,147.32c-.26,1.11,0,2.28,.71,3.18s1.79,1.42,2.93,1.42h71.66l-51.83,221.68Z"/><path class="cls-2" d="M285.63,379.47h145.09l51.88-221.68h-145.09l-16.13,68.9h71.67c1.14,0,2.22,.52,2.93,1.42,.71,.9,.97,2.07,.71,3.18l-17.88,76.39c-.4,1.69-1.91,2.89-3.65,2.89h-73.42l-16.13,68.9Z"/><path class="cls-3" d="M277.97,385.54c.71,.9,1.79,1.42,2.93,1.42h152.78c1.74,0,3.25-1.2,3.65-2.89l48.68-208,4.96-21.18c.26-1.11,0-2.28-.71-3.18s-1.79-1.42-2.93-1.42h-152.78c-1.74,0-3.25,1.2-3.65,2.89l-17.88,76.39s0,.07-.01,.11c-.22,1.08,.04,2.2,.72,3.07,.71,.9,1.79,1.42,2.93,1.42h71.67l-3.23,13.8-1.75,7.49-11.14,47.62h-73.42c-1.74,0-3.25,1.2-3.65,2.89l-17.88,76.39s0,.07-.01,.11c-.22,1.08,.04,2.2,.72,3.07Zm97.2-74.97c1.74,0,3.25-1.2,3.65-2.89l17.88-76.39c.26-1.11,0-2.28-.71-3.18-.71-.9-1.79-1.42-2.93-1.42h-71.67l16.13-68.9h145.09l-51.88,221.68h-145.09l16.13-68.9h73.42Z"/><path class="cls-2" d="M642.69,310.57c-1.14,0-2.22-.52-2.93-1.42-.71-.9-.97-2.07-.71-3.18l34.65-148.18h-140.76l-16.11,68.9h67.34c1.14,0,2.22,.52,2.93,1.42,.71,.9,.97,2.07,.71,3.18l-17.86,76.39c-.4,1.69-1.91,2.89-3.65,2.89h-69.09l-16.11,68.9h199.27l16.11-68.9h-53.79Z"/><path class="cls-3" d="M701.2,303.08h-53.79l29.7-126.98,4.96-21.2c.26-1.11,0-2.28-.71-3.18-.71-.9-1.79-1.42-2.93-1.42h-148.45c-1.74,0-3.25,1.2-3.65,2.89l-17.86,76.39s0,.05,0,.08c-.23,1.09,.03,2.23,.72,3.1,.71,.9,1.79,1.42,2.93,1.42h67.34l-3.23,13.8-1.75,7.49-11.14,47.62h-69.09c-1.74,0-3.25,1.2-3.65,2.89l-17.86,76.39s0,.05,0,.08c-.23,1.09,.03,2.23,.72,3.1,.71,.9,1.79,1.42,2.93,1.42h206.96c1.74,0,3.25-1.2,3.65-2.89l12.91-55.19,4.96-21.2c.26-1.11,0-2.28-.71-3.18-.71-.9-1.79-1.42-2.93-1.42Zm-20.84,76.39h-199.27l16.11-68.9h69.09c1.74,0,3.25-1.2,3.65-2.89l17.86-76.39c.26-1.11,0-2.28-.71-3.18-.71-.9-1.79-1.42-2.93-1.42h-67.34l16.11-68.9h140.76l-34.65,148.18c-.26,1.11,0,2.28,.71,3.18,.71,.9,1.79,1.42,2.93,1.42h53.79l-16.11,68.9Z"/><path class="cls-2" d="M197.35,226.69c1.14,0,2.22,.52,2.93,1.42,.71,.9,.97,2.07,.71,3.18l-34.66,148.18h68.7l51.84-221.68H65.4L13.56,379.47H82.26l35.05-149.89c.4-1.69,1.91-2.89,3.65-2.89h76.39Z"/><path class="cls-3" d="M158.69,385.54c.71,.9,1.79,1.42,2.93,1.42h76.39c1.74,0,3.25-1.2,3.65-2.89l48.63-207.96,4.96-21.21c.26-1.11,0-2.28-.71-3.18-.71-.9-1.79-1.42-2.93-1.42H62.43c-1.74,0-3.25,1.2-3.65,2.89L5.19,382.36s0,.05,0,.08c-.23,1.09,.03,2.23,.72,3.1,.71,.9,1.79,1.42,2.93,1.42H85.23c1.74,0,3.25-1.2,3.65-2.89l31.83-136.09,3.23-13.8h68.7l-3.23,13.8-1.75,7.49-29.68,126.9s0,.06-.01,.08c-.23,1.09,.03,2.22,.72,3.1Zm-41.37-155.96l-35.05,149.89H13.56l51.84-221.68h221.48l-51.84,221.68h-68.7l34.66-148.18c.26-1.11,0-2.28-.71-3.18-.71-.9-1.79-1.42-2.93-1.42H120.96c-1.74,0-3.25,1.2-3.65,2.89Z"/></svg>