<?xml version="1.0" encoding="UTF-8"?><svg id="Layer_1" xmlns="http://www.w3.org/2000/svg" xmlns:xlink="http://www.w3.org/1999/xlink" viewBox="0 0 876.31 398.23"><defs><style>.cls-1{fill:url(#linear-gradient);}.cls-2{fill:url(#linear-gradient-3);}.cls-3{fill:url(#linear-gradient-4);}.cls-4{fill:url(#linear-gradient-2);}.cls-5{fill:url(#linear-gradient-5);}</style><linearGradient id="linear-gradient" x1="674.31" y1="198.22" x2="876.31" y2="198.22" gradientTransform="matrix(1, 0, 0, 1, 0, 0)" gradientUnits="userSpaceOnUse"><stop offset="0" stop-color="#f9c2b8"/><stop offset=".03" stop-color="#dfc0b3"/><stop offset=".13" stop-color="#94bca5"/><stop offset=".23" stop-color="#59b999"/><stop offset=".3" stop-color="#2eb791"/><stop offset=".36" stop-color="#14b68c"/><stop offset=".4" stop-color="#0bb68b"/><stop offset=".74" stop-color="#048284"/><stop offset="1" stop-color="#006080"/></linearGradient><linearGradient id="linear-gradient-2" x1="263.68" y1="271.3" x2="499.93" y2="271.3" xlink:href="#linear-gradient"/><linearGradient id="linear-gradient-3" x1="453.73" y1="271.3" x2="707.66" y2="271.3" xlink:href="#linear-gradient"/><linearGradient id="linear-gradient-4" x1="-15.37" y1="369.95" x2="298.43" y2="188.07" xlink:href="#linear-gradient"/><linearGradient id="linear-gradient-5" x1="438.15" y1="118.74" x2="438.15" y2="382.32" gradientTransform="matrix(1, 0, 0, 1, 0, 0)" gradientUnits="userSpaceOnUse"><stop offset=".13" stop-color="#006080"/><stop offset=".35" stop-color="#0aaf8a"/><stop offset=".55" stop-color="#f9c2b8"/><stop offset=".57" stop-color="#026e82"/><stop offset=".63" stop-color="#027282"/><stop offset=".7" stop-color="#047f84"/><stop offset=".77" stop-color="#069586"/><stop offset=".84" stop-color="#0ab38a"/><stop offset=".85" stop-color="#0bb68b"/><stop offset=".92" stop-color="#7ebba0"/><stop offset=".97" stop-color="#d6c0b1"/><stop offset="1" stop-color="#f9c2b8"/></linearGradient></defs><path class="cls-1" d="M802.84,146.13L837.02,0h-104.19l-58.52,250.32h73.47l-34.16,146.13h104.15l58.54-250.32h-73.47Zm3.07,235.37h-73.47l34.16-146.13h-73.47L744.68,14.95h73.49l-34.18,146.13h73.47l-51.54,220.43Z"/><path class="cls-4" d="M322.29,146.13l-24.21,103.38h73.49l-10.21,43.58h-73.47l-24.21,103.38h177.66l58.59-250.34h-177.64Zm107.2,235.39h-146.96l17.21-73.49h73.47l17.21-73.47h-73.49l17.21-73.49h146.94l-51.58,220.45Z"/><path class="cls-2" d="M651.38,293.08l34.38-146.96h-173.5l-24.17,103.38h69.31l-10.18,43.58h-69.31l-24.17,103.38h229.76l24.17-103.38h-56.28Zm20.26,88.44h-199.08l17.19-73.49h69.31l17.19-73.47h-69.31l17.19-73.49h142.77l-34.35,146.96h56.26l-17.17,73.49Z"/><path class="cls-3" d="M58.54,146.13L0,396.47H104.17l34.38-146.96h42.79l-34.38,146.96h104.17l58.54-250.34H58.54Zm180.74,235.39h-73.47l34.35-146.96H126.7l-34.38,146.96H18.85l51.54-220.45h220.43l-51.54,220.45Z"/><path class="cls-5" d="M857.46,161.07l-51.54,220.43h-73.47l34.16-146.13h-73.47L744.68,14.95h73.49l-34.18,146.13h73.47Zm-523.31,0l-17.21,73.49h73.49l-17.21,73.47h-73.47l-17.21,73.49h146.96l51.58-220.45h-146.94Zm298.4,146.96l34.35-146.96h-142.77l-17.19,73.49h69.31l-17.19,73.47h-69.31l-17.19,73.49h199.08l17.17-73.49h-56.26ZM70.39,161.07L18.85,381.52H92.32l34.38-146.96h73.47l-34.35,146.96h73.47l51.54-220.45H70.39Z"/></svg>