<?xml version="1.0" encoding="UTF-8"?><svg id="Layer_1" xmlns="http://www.w3.org/2000/svg" xmlns:xlink="http://www.w3.org/1999/xlink" viewBox="0 0 913.06 413.1"><defs><style>.cls-1{fill:none;}.cls-2{fill:#fcb01a;}.cls-3{fill:#231f20;}.cls-4{fill:#221f1f;}.cls-5{fill:#0bb68b;}.cls-6{fill:url(#New_Pattern_13);}</style><pattern id="New_Pattern_13" x="0" y="0" width="202.48" height="123.41" patternTransform="translate(3696.42 9939.97) scale(2.22)" patternUnits="userSpaceOnUse" viewBox="0 0 202.48 123.41"><g><rect class="cls-1" width="202.48" height="123.41"/><g><path class="cls-5" d="M121.23,4.03l-17.1,17.1v16.8c2.87-6.45,6.76-12.93,11.65-19.31,6.87-8.96,13.67-15.15,16.26-17.38,0-.41-.01-.83-.03-1.24h-10.71c1.05,1.14,1.04,2.92-.07,4.02Z"/><polygon class="cls-5" points="104.13 12.9 117.03 0 105.33 0 104.13 1.21 104.13 12.9"/><polygon class="cls-5" points="98.31 1.21 97.11 0 85.41 0 98.31 12.9 98.31 1.21"/><path class="cls-5" d="M98.31,37.78V21.13L81.21,4.03c-1.11-1.11-1.13-2.88-.07-4.02h-10.71c-.01,.41-.02,.82-.03,1.24,4.25,3.64,19.44,17.53,27.92,36.55Z"/><path class="cls-5" d="M165.79,37.78V21.13l-17.1-17.1c-1.11-1.11-1.13-2.88-.07-4.02h-10.71c-.01,.41-.02,.82-.03,1.24,4.25,3.64,19.44,17.53,27.92,36.55Z"/><path class="cls-5" d="M194.5,5.91c2.2-2.17,3.97-3.75,5.03-4.66,0-.41-.01-.83-.03-1.24h-4.86c.03,.66,.05,1.32,.05,1.97,0,1.3-.06,2.61-.19,3.94Z"/><polygon class="cls-5" points="165.79 1.21 164.59 0 152.89 0 165.79 12.9 165.79 1.21"/><path class="cls-5" d="M171.61,19.92h0v18.01c2.87-6.45,6.76-12.93,11.65-19.31,1.26-1.65,2.52-3.2,3.76-4.65,1.15-3.86,1.85-7.9,1.85-12.01,0-.66-.02-1.31-.06-1.97h-17.2V19.92Z"/><path class="cls-5" d="M30.83,37.78V21.13L13.73,4.03C12.62,2.92,12.6,1.14,13.66,0H2.94c-.01,.41-.02,.82-.03,1.24,4.25,3.64,19.44,17.53,27.92,36.55Z"/><polygon class="cls-5" points="30.83 1.21 29.63 0 17.93 0 30.83 12.9 30.83 1.21"/><path class="cls-5" d="M36.65,19.92h0v18.01c2.87-6.45,6.76-12.93,11.65-19.31,6.87-8.96,13.67-15.15,16.26-17.38,0-.41-.01-.83-.03-1.24h-27.89V19.92ZM42.95,3.12c1.88,0,3.41,1.53,3.41,3.41s-1.53,3.41-3.41,3.41-3.41-1.53-3.41-3.41,1.53-3.41,3.41-3.41Z"/><circle class="cls-4" cx="42.95" cy="6.53" r="3.41"/><path class="cls-2" d="M47.47,65.73c-1.14-1.14-1.14-2.98,0-4.11,1.14-1.14,2.98-1.14,4.11,0l12.99,12.99v-11.7l-16.91-16.91c-1.14-1.14-1.14-2.98,0-4.11,1.14-1.14,2.98-1.14,4.11,0l12.79,12.79v-13.83l-10.82-10.82c-1.14-1.14-1.14-2.98,0-4.11,1.14-1.14,2.98-1.14,4.11,0l6.7,6.7V9.15c-9,8.72-27.69,29.71-27.92,53.79,4.25,3.64,19.44,17.53,27.92,36.55v-16.65l-17.1-17.1Z"/><path class="cls-2" d="M70.39,9.15v23.48l6.7-6.7c1.14-1.14,2.98-1.14,4.11,0,1.14,1.14,1.14,2.98,0,4.11l-10.82,10.82v13.83l12.79-12.79c1.14-1.14,2.98-1.14,4.11,0,1.14,1.14,1.14,2.98,0,4.11l-16.91,16.91v11.7l12.99-12.99c1.14-1.14,2.98-1.14,4.11,0,1.14,1.14,1.14,2.98,0,4.11l-17.1,17.1v16.8c2.87-6.45,6.76-12.93,11.65-19.31,6.87-8.96,13.67-15.15,16.26-17.38-.22-24.08-18.92-45.08-27.92-53.8Z"/><path class="cls-2" d="M114.95,65.73c-1.14-1.14-1.14-2.98,0-4.11,1.14-1.14,2.98-1.14,4.11,0l12.99,12.99v-11.7l-16.91-16.91c-1.14-1.14-1.14-2.98,0-4.11,1.14-1.14,2.98-1.14,4.11,0l12.79,12.79v-13.83l-10.82-10.82c-1.14-1.14-1.14-2.98,0-4.11,1.14-1.14,2.98-1.14,4.11,0l6.7,6.7V9.15c-9,8.72-27.69,29.71-27.92,53.79,4.25,3.64,19.44,17.53,27.92,36.55v-16.65l-17.1-17.1Z"/><path class="cls-2" d="M137.87,9.15v7.7c1.92,1.88,6.46,6.57,11.02,13.15,7.89,11.37,12.06,23.02,12.06,33.68,0,1.3-.06,2.61-.19,3.94,2.2-2.17,3.97-3.75,5.03-4.66-.22-24.08-18.92-45.08-27.92-53.8Z"/><path class="cls-2" d="M137.87,25.36v14.29h0v22.06h0v19.92h0v18.01c2.87-6.45,6.77-12.93,11.65-19.31,1.26-1.65,2.52-3.2,3.76-4.65,1.15-3.86,1.85-7.9,1.85-12.01,0-16.12-10.74-30.86-17.26-38.32Z"/><path class="cls-2" d="M2.91,9.15v30.5h0v22.06h0v19.92h0v18.01c2.87-6.45,6.76-12.93,11.65-19.31,6.87-8.96,13.67-15.15,16.26-17.38-.22-24.08-18.92-45.08-27.92-53.8Zm6.3,35.51c1.88,0,3.41,1.53,3.41,3.41s-1.53,3.41-3.41,3.41-3.41-1.53-3.41-3.41,1.53-3.41,3.41-3.41Zm0,10.08c1.88,0,3.41,1.53,3.41,3.41s-1.53,3.41-3.41,3.41-3.41-1.53-3.41-3.41,1.53-3.41,3.41-3.41Zm0,10.08c1.88,0,3.41,1.53,3.41,3.41s-1.53,3.41-3.41,3.41-3.41-1.53-3.41-3.41,1.53-3.41,3.41-3.41Z"/><circle class="cls-4" cx="9.21" cy="48.07" r="3.41"/><circle class="cls-4" cx="9.21" cy="58.15" r="3.41"/><path class="cls-4" d="M9.21,71.64c1.88,0,3.41-1.53,3.41-3.41s-1.53-3.41-3.41-3.41-3.41,1.53-3.41,3.41,1.53,3.41,3.41,3.41Z"/><path class="cls-2" d="M192.83,25.92l6.7,6.7V9.15c-9,8.72-27.69,29.71-27.92,53.79,4.25,3.64,19.44,17.53,27.92,36.55v-16.65l-17.1-17.1c-1.14-1.14-1.14-2.98,0-4.11,1.14-1.14,2.98-1.14,4.11,0l12.99,12.99v-11.7l-16.91-16.91c-1.14-1.14-1.14-2.98,0-4.11,1.14-1.14,2.98-1.14,4.11,0l12.79,12.79v-13.83l-10.82-10.82c-1.14-1.14-1.14-2.98,0-4.11,1.14-1.14,2.98-1.14,4.11,0Z"/><path class="cls-4" d="M201.14,0h-1.64c.01,.41,.02,.83,.03,1.24-1.06,.92-2.83,2.5-5.03,4.66,.12-1.33,.19-2.64,.19-3.94,0-.65-.02-1.31-.05-1.97h-5.83c.03,.65,.06,1.31,.06,1.97,0,4.11-.7,8.15-1.85,12.01-1.23,1.45-2.49,3-3.76,4.65-4.89,6.38-8.79,12.85-11.65,19.31V19.93h0V0h-7.02l1.2,1.2V12.9L152.89,0h-4.27c-1.05,1.14-1.04,2.92,.07,4.02l17.1,17.1v16.65c-8.48-19.01-23.67-32.9-27.92-36.55,0-.41,.01-.83,.03-1.24h-5.88c.01,.41,.02,.83,.03,1.24-2.59,2.23-9.39,8.42-16.26,17.38-4.89,6.38-8.79,12.85-11.65,19.31V21.13L121.23,4.03c1.11-1.11,1.13-2.88,.07-4.02h-4.27l-12.9,12.9V1.21L105.33,0h-8.23l1.2,1.2V12.9L85.41,0h-4.27c-1.05,1.14-1.04,2.92,.07,4.02l17.1,17.1v16.65C89.84,18.77,74.64,4.88,70.39,1.24c0-.41,.01-.83,.03-1.24h-5.88c.01,.41,.02,.83,.03,1.24-2.59,2.23-9.39,8.42-16.26,17.38-4.89,6.38-8.79,12.85-11.65,19.31V19.93h0V0h-7.02l1.2,1.2V12.9L17.93,0h-4.27c-1.05,1.14-1.04,2.92,.07,4.02L30.83,21.13v16.65C22.36,18.77,7.16,4.88,2.91,1.24c0-.41,.01-.83,.03-1.24H0V123.41H2.94c.84-23.56,19.05-43.99,27.89-52.56v23.48l-6.7-6.7c-1.14-1.14-2.98-1.14-4.11,0-1.14,1.14-1.14,2.98,0,4.11l10.82,10.82v13.83l-12.79-12.79c-1.14-1.14-2.98-1.14-4.11,0-1.14,1.14-1.14,2.98,0,4.11l15.7,15.7h7.02v-22.05h0v-30.5c8.84,8.57,27.05,29,27.89,52.56h5.88c.84-23.56,19.04-43.99,27.89-52.56v23.48l-6.7-6.7c-1.14-1.14-2.98-1.14-4.11,0-1.14,1.14-1.14,2.98,0,4.11l10.82,10.82v13.83l-12.79-12.79c-1.14-1.14-2.98-1.14-4.11,0-1.14,1.14-1.14,2.98,0,4.11l15.7,15.7h8.23l15.7-15.7c1.14-1.14,1.14-2.98,0-4.11-1.14-1.14-2.98-1.14-4.11,0l-12.79,12.79v-13.83l10.82-10.82c1.14-1.14,1.14-2.98,0-4.11s-2.98-1.14-4.11,0l-6.7,6.7v-23.48c8.84,8.57,27.05,29,27.89,52.56h5.88c.84-23.56,19.05-43.99,27.89-52.56v23.48l-6.7-6.7c-1.14-1.14-2.98-1.14-4.11,0-1.14,1.14-1.14,2.98,0,4.11l10.82,10.82v13.83l-12.79-12.79c-1.14-1.14-2.98-1.14-4.11,0-1.14,1.14-1.14,2.98,0,4.11l15.7,15.7h7.02v-22.05h0v-14.3c6.25,7.14,16.38,20.98,17.2,36.36h5.83c-.48-10.12-4.6-21.03-12.01-31.71-4.56-6.58-9.1-11.27-11.02-13.15v-7.7c8.84,8.57,27.05,29,27.89,52.56h2.98V0h-1.34ZM14.56,80.33c-4.89,6.38-8.79,12.85-11.65,19.31v-18.01h0v-19.92h0v-22.06h0V9.15c9,8.72,27.69,29.71,27.92,53.8-2.59,2.23-9.39,8.42-16.26,17.38Zm22.09-17.39c.23-24.08,18.92-45.07,27.92-53.79v23.48l-6.7-6.7c-1.14-1.14-2.98-1.14-4.11,0-1.14,1.14-1.14,2.98,0,4.11l10.82,10.82v13.83l-12.79-12.79c-1.14-1.14-2.98-1.14-4.11,0-1.14,1.14-1.14,2.98,0,4.11l16.91,16.91v11.7l-12.99-12.99c-1.14-1.14-2.98-1.14-4.11,0-1.14,1.14-1.14,2.98,0,4.11l17.1,17.1v16.65c-8.48-19.01-23.67-32.9-27.92-36.55Zm45.39,17.39c-4.89,6.38-8.79,12.85-11.65,19.31v-16.8l17.1-17.1c1.14-1.14,1.14-2.98,0-4.11-1.14-1.14-2.98-1.14-4.11,0l-12.99,12.99v-11.7l16.91-16.91c1.14-1.14,1.14-2.98,0-4.11-1.14-1.14-2.98-1.14-4.11,0l-12.79,12.79v-13.83l10.82-10.82c1.14-1.14,1.14-2.98,0-4.11-1.14-1.14-2.98-1.14-4.11,0l-6.7,6.7V9.15c9,8.72,27.69,29.71,27.92,53.8-2.59,2.23-9.39,8.42-16.26,17.38Zm22.09-17.39c.23-24.08,18.92-45.07,27.92-53.79v23.48l-6.7-6.7c-1.14-1.14-2.98-1.14-4.11,0-1.14,1.14-1.14,2.98,0,4.11l10.82,10.82v13.83l-12.79-12.79c-1.14-1.14-2.98-1.14-4.11,0-1.14,1.14-1.14,2.98,0,4.11l16.91,16.91v11.7l-12.99-12.99c-1.14-1.14-2.98-1.14-4.11,0-1.14,1.14-1.14,2.98,0,4.11l17.1,17.1v16.65c-8.48-19.01-23.67-32.9-27.92-36.55Zm45.39,17.39c-4.89,6.38-8.79,12.85-11.65,19.31v-18.01h0v-19.92h0v-22.06h0v-14.29c6.51,7.46,17.26,22.2,17.26,38.32,0,4.11-.7,8.15-1.85,12.01-1.23,1.45-2.49,3-3.76,4.65Zm11.24-12.72c.12-1.33,.19-2.64,.19-3.94,0-10.66-4.17-22.31-12.06-33.68-4.56-6.58-9.1-11.27-11.02-13.15v-7.7c9,8.72,27.69,29.71,27.92,53.8-1.06,.92-2.83,2.5-5.03,4.66Zm27.96-37.57l10.82,10.82v13.83l-12.79-12.79c-1.14-1.14-2.98-1.14-4.11,0-1.14,1.14-1.14,2.98,0,4.11l16.91,16.91v11.7l-12.99-12.99c-1.14-1.14-2.98-1.14-4.11,0-1.14,1.14-1.14,2.98,0,4.11l17.1,17.1v16.65c-8.48-19.01-23.67-32.9-27.92-36.55,.23-24.08,18.92-45.07,27.92-53.79v23.48l-6.7-6.7c-1.14-1.14-2.98-1.14-4.11,0-1.14,1.14-1.14,2.98,0,4.11Z"/><path class="cls-5" d="M81.4,103.6c1.14-1.14,2.98-1.14,4.11,0l12.79,12.79v-13.83l-10.82-10.82c-1.14-1.14-1.14-2.98,0-4.11,1.14-1.14,2.98-1.14,4.11,0l6.7,6.7v-23.48c-8.84,8.57-27.05,29-27.89,52.56h10.71s.04-.06,.07-.09c1.14-1.14,2.98-1.14,4.11,0l.09,.09h11.7l-15.7-15.7c-1.14-1.14-1.14-2.98,0-4.11Z"/><path class="cls-5" d="M104.13,70.86v23.48l6.7-6.7c1.14-1.14,2.98-1.14,4.11,0s1.14,2.98,0,4.11l-10.82,10.82v13.83l12.79-12.79c1.14-1.14,2.98-1.14,4.11,0,1.14,1.14,1.14,2.98,0,4.11l-15.7,15.7h11.7l.09-.09c1.14-1.14,2.98-1.14,4.11,0,.03,.03,.05,.06,.07,.09h10.71c-.84-23.56-19.04-43.99-27.89-52.56Z"/><path class="cls-4" d="M81.21,123.32s-.05,.06-.07,.09h4.27l-.09-.09c-1.14-1.14-2.98-1.14-4.11,0Z"/><path class="cls-4" d="M117.12,123.32l-.09,.09h4.27s-.04-.06-.07-.09c-1.14-1.14-2.98-1.14-4.11,0Z"/><path class="cls-5" d="M148.88,103.6c1.14-1.14,2.98-1.14,4.11,0l12.79,12.79v-13.83l-10.82-10.82c-1.14-1.14-1.14-2.98,0-4.11,1.14-1.14,2.98-1.14,4.11,0l6.7,6.7v-23.48c-8.84,8.57-27.05,29-27.89,52.56h10.71s.04-.06,.07-.09c1.14-1.14,2.98-1.14,4.11,0l.09,.09h11.7l-15.7-15.7c-1.14-1.14-1.14-2.98,0-4.11Z"/><path class="cls-5" d="M171.61,70.86v7.7c1.92,1.88,6.46,6.57,11.02,13.15,7.4,10.67,11.53,21.59,12.01,31.71h4.86c-.84-23.56-19.04-43.99-27.89-52.56Z"/><path class="cls-5" d="M171.61,101.35h0v22.06h17.2c-.82-15.37-10.95-29.22-17.2-36.36v14.3Z"/><path class="cls-4" d="M148.69,123.32s-.05,.06-.07,.09h4.27l-.09-.09c-1.14-1.14-2.98-1.14-4.11,0Z"/><path class="cls-5" d="M36.65,70.86v30.5h0v22.06h27.89c-.84-23.56-19.04-43.98-27.89-52.55Zm6.3,35.51c1.88,0,3.41,1.53,3.41,3.41s-1.53,3.41-3.41,3.41-3.41-1.53-3.41-3.41,1.53-3.41,3.41-3.41Zm0,10.08c1.88,0,3.41,1.53,3.41,3.41s-1.53,3.41-3.41,3.41-3.41-1.53-3.41-3.41,1.53-3.41,3.41-3.41Z"/><path class="cls-5" d="M13.92,103.6c1.14-1.14,2.98-1.14,4.11,0l12.79,12.79v-13.83l-10.82-10.82c-1.14-1.14-1.14-2.98,0-4.11,1.14-1.14,2.98-1.14,4.11,0l6.7,6.7v-23.48c-8.84,8.57-27.05,29-27.89,52.56H13.66s.04-.06,.07-.09c1.14-1.14,2.98-1.14,4.11,0l.09,.09h11.7l-15.7-15.7c-1.14-1.14-1.14-2.98,0-4.11Z"/><path class="cls-4" d="M13.73,123.32s-.05,.06-.07,.09h4.27l-.09-.09c-1.14-1.14-2.98-1.14-4.11,0Z"/><circle class="cls-4" cx="42.95" cy="109.78" r="3.41"/><path class="cls-4" d="M42.95,123.27c1.88,0,3.41-1.53,3.41-3.41s-1.53-3.41-3.41-3.41-3.41,1.53-3.41,3.41,1.53,3.41,3.41,3.41Z"/></g></g></pattern></defs><path class="cls-3" d="M836.51,152.26L872.12,.01h-108.56l-60.98,260.82h76.55l-35.59,152.25h108.52l61-260.82h-76.55Zm3.2,245.24h-76.55l35.59-152.25h-76.55L775.91,15.58h76.57l-35.62,152.25h76.55l-53.7,229.67Z"/><polygon class="cls-6" points="893.41 167.84 839.71 397.51 763.16 397.51 798.75 245.25 722.2 245.25 775.91 15.58 852.48 15.58 816.86 167.84 893.41 167.84"/><path class="cls-3" d="M335.81,152.26l-25.23,107.72h76.57l-10.63,45.4h-76.55l-25.23,107.72h185.11l61.04-260.84h-185.09Zm111.7,245.27h-153.12l17.93-76.57h76.55l17.93-76.55h-76.57l17.93-76.57h153.1l-53.75,229.69Z"/><polygon class="cls-6" points="501.25 167.84 447.51 397.53 294.39 397.53 312.32 320.96 388.87 320.96 406.8 244.41 330.22 244.41 348.15 167.84 501.25 167.84"/><path class="cls-3" d="M678.69,305.39l35.82-153.12h-180.77l-25.18,107.72h72.21l-10.61,45.4h-72.21l-25.18,107.72h239.39l25.18-107.72h-58.64Zm21.11,92.14h-207.42l17.91-76.57h72.21l17.91-76.55h-72.21l17.91-76.57h148.76l-35.79,153.12h58.62l-17.89,76.57Z"/><polygon class="cls-6" points="717.69 320.96 699.8 397.53 492.38 397.53 510.29 320.96 582.5 320.96 600.41 244.41 528.19 244.41 546.1 167.84 694.86 167.84 659.07 320.96 717.69 320.96"/><path class="cls-3" d="M61,152.26L0,413.1H108.54l35.82-153.12h44.58l-35.82,153.12h108.54l61-260.84H61Zm188.31,245.27h-76.55l35.79-153.12h-76.55l-35.82,153.12H19.64l53.7-229.69h229.67l-53.7,229.69Z"/><polygon class="cls-6" points="303.02 167.84 249.31 397.53 172.76 397.53 208.56 244.41 132.01 244.41 96.19 397.53 19.64 397.53 73.35 167.84 303.02 167.84"/></svg>