<?xml version="1.0" encoding="UTF-8"?><svg id="Layer_1" xmlns="http://www.w3.org/2000/svg" viewBox="0 0 899.05 419.11"><defs><style>.cls-1{fill:#00904c;}.cls-2{fill:#9eff2e;}.cls-3{fill:#0f4417;}</style></defs><polygon class="cls-3" points="832.31 411.45 835.61 397.34 765.37 397.34 762.07 411.45 832.31 411.45"/><polygon class="cls-3" points="790.52 256.1 793.82 241.99 723.58 241.99 720.28 256.1 790.52 256.1"/><path class="cls-1" d="M821.96,155.35l30.15-128.88s0-.06,.01-.09l-30.17,128.97h.01Z"/><path class="cls-1" d="M840.43,397.34h-4.82l-3.3,14.11h-70.24l3.3-14.11h-3.04c-1.17,0-2.27-.53-3-1.45-.71-.9-.98-2.07-.74-3.19l-5.07,21.7c-.27,1.14,0,2.34,.73,3.25,.73,.92,1.83,1.45,3,1.45h78.1c1.78,0,3.32-1.22,3.73-2.96l54.79-234.34s0-.05,0-.07l-49.72,212.64c-.4,1.73-1.95,2.96-3.73,2.96Z"/><path class="cls-1" d="M790.52,256.1h-70.23l3.3-14.11h-3.04c-1.17,0-2.27-.53-3-1.45-.71-.9-.98-2.06-.74-3.18l-5.07,21.69c-.27,1.14,0,2.34,.73,3.25,.73,.92,1.83,1.45,3,1.45h73.27l1.79-7.66Z"/><polygon class="cls-3" points="394.84 255.23 398.14 241.12 327.9 241.12 324.6 255.23 394.84 255.23"/><polygon class="cls-3" points="288.04 411.46 436.4 411.46 439.7 397.35 291.34 397.35 288.04 411.46"/><path class="cls-1" d="M498.03,181.71l-49.78,212.69c-.4,1.73-1.95,2.96-3.73,2.96h-4.82l-3.3,14.11h-148.36l3.3-14.11h-3.05c-1.17,0-2.27-.53-3-1.45-.7-.89-.96-2.03-.74-3.14l-5.07,21.65c-.27,1.14,0,2.34,.73,3.25,.73,.92,1.83,1.45,3,1.45h156.23c1.78,0,3.32-1.22,3.73-2.96l54.85-234.34s0-.07,.01-.11Z"/><path class="cls-1" d="M394.84,255.23h-70.24l3.3-14.11h-3.05c-1.17,0-2.27-.53-3-1.45-.7-.89-.97-2.03-.74-3.14l-5.07,21.65c-.27,1.14,0,2.34,.73,3.25s1.83,1.45,3,1.45h73.27l1.79-7.66Z"/><polygon class="cls-3" points="590.26 255.23 593.56 241.12 527.75 241.12 524.45 255.23 590.26 255.23"/><polygon class="cls-3" points="691.68 411.46 694.98 397.35 491.22 397.35 487.92 411.46 691.68 411.46"/><path class="cls-1" d="M663.07,311.58l30.35-129.76s0-.06,0-.08l-30.37,129.85h0Z"/><path class="cls-1" d="M699.8,397.35h-4.82l-3.3,14.11h-203.76l3.3-14.11h-3.05c-1.17,0-2.27-.53-3-1.45-.71-.89-.97-2.06-.74-3.17l-5.07,21.68c-.27,1.14,0,2.34,.73,3.25,.73,.92,1.83,1.45,3,1.45h211.63c1.78,0,3.32-1.22,3.73-2.96l18.27-78.11s0-.06,.01-.09l-13.2,56.43c-.4,1.73-1.95,2.96-3.73,2.96Z"/><path class="cls-1" d="M590.26,255.23h-65.81l3.3-14.11h-3.05c-1.17,0-2.27-.53-3-1.45-.71-.89-.97-2.06-.74-3.17l-5.07,21.69c-.27,1.14,0,2.34,.73,3.25,.73,.92,1.83,1.45,3,1.45h68.85l1.79-7.66Z"/><polygon class="cls-3" points="166.06 411.46 236.31 411.46 239.61 397.35 169.36 397.35 166.06 411.46"/><polygon class="cls-3" points="80.08 411.46 83.38 397.35 13.13 397.35 9.84 411.46 80.08 411.46"/><polygon class="cls-3" points="198.02 241.12 127.78 241.12 124.48 255.23 194.73 255.23 198.02 241.12"/><path class="cls-1" d="M297.89,181.74l-49.73,212.65c-.4,1.73-1.95,2.96-3.73,2.96h-4.82l-3.3,14.11h-70.25l3.3-14.11h-3.05c-1.17,0-2.27-.53-3-1.45-.71-.89-.97-2.05-.74-3.16l-5.07,21.68c-.27,1.14,0,2.34,.73,3.25,.73,.92,1.83,1.45,3,1.45h78.11c1.78,0,3.32-1.22,3.73-2.96l54.8-234.34s0-.05,0-.08Z"/><path class="cls-1" d="M194.73,255.23H124.48l-32.55,139.16c-.4,1.73-1.95,2.96-3.73,2.96h-4.82l-3.3,14.11H9.84l3.3-14.11h-3.05c-1.17,0-2.27-.53-3-1.45-.71-.89-.97-2.06-.74-3.17l-5.07,21.69c-.27,1.14,0,2.34,.73,3.25,.73,.92,1.83,1.45,3,1.45H83.12c1.78,0,3.32-1.22,3.73-2.96l35.85-153.27h70.24l1.79-7.66Z"/><path class="cls-1" d="M817.12,163c-1.17,0-2.27-.53-3-1.45-.73-.92-.99-2.11-.73-3.25L848.63,7.66h-70.26l-53,226.68h73.28c1.17,0,2.27,.53,3,1.45,.73,.92,.99,2.11,.73,3.25l-35.22,150.65h70.24l53-226.68h-73.28Z"/><path class="cls-2" d="M898.22,156.8c-.73-.92-1.83-1.45-3-1.45h-73.28l30.17-128.97,5.07-21.67c.27-1.14,0-2.34-.73-3.25-.73-.92-1.83-1.45-3-1.45h-78.13c-1.78,0-3.32,1.22-3.73,2.96l-54.79,234.34s0,.05,0,.07c-.24,1.12,.03,2.28,.74,3.18,.73,.92,1.83,1.45,3,1.45h73.28l-3.3,14.11-1.79,7.66-30.13,128.88s0,.04,0,.06c-.24,1.12,.02,2.29,.74,3.19,.73,.92,1.83,1.45,3,1.45h78.1c1.78,0,3.32-1.22,3.73-2.96l49.72-212.64,5.07-21.69c.27-1.14,0-2.34-.73-3.25Zm-60.83,232.89h-70.24l35.22-150.65c.27-1.14,0-2.34-.73-3.25-.73-.92-1.83-1.45-3-1.45h-73.28L778.37,7.66h70.26l-35.24,150.64c-.27,1.14,0,2.34,.73,3.25,.73,.92,1.83,1.45,3,1.45h73.28l-53,226.68Z"/><path class="cls-1" d="M293.12,389.69h148.36l53.05-226.68h-148.36l-16.49,70.46h73.28c1.17,0,2.27,.53,3,1.45s.99,2.11,.73,3.25l-18.28,78.11c-.4,1.73-1.95,2.96-3.73,2.96h-75.08l-16.49,70.46Z"/><path class="cls-2" d="M285.29,395.9c.73,.92,1.83,1.45,3,1.45h156.23c1.78,0,3.32-1.22,3.73-2.96l49.78-212.69,5.07-21.65c.27-1.14,0-2.34-.73-3.25s-1.83-1.45-3-1.45h-156.23c-1.78,0-3.32,1.22-3.73,2.96l-18.28,78.11s0,.08-.01,.11c-.22,1.1,.04,2.25,.74,3.14,.73,.92,1.83,1.45,3,1.45h73.28l-3.3,14.11-1.79,7.66-11.4,48.69h-75.08c-1.78,0-3.32,1.22-3.73,2.96l-18.28,78.11s0,.08-.01,.11c-.22,1.1,.04,2.25,.74,3.14Zm99.4-76.66c1.78,0,3.32-1.22,3.73-2.96l18.28-78.11c.27-1.14,0-2.34-.73-3.25s-1.83-1.45-3-1.45h-73.28l16.49-70.46h148.36l-53.05,226.68h-148.36l16.49-70.46h75.08Z"/><path class="cls-1" d="M658.23,319.24c-1.17,0-2.27-.53-3-1.45-.73-.92-.99-2.11-.73-3.25l35.44-151.53h-143.93l-16.48,70.46h68.85c1.17,0,2.27,.53,3,1.45,.73,.92,.99,2.11,.73,3.25l-18.27,78.11c-.4,1.73-1.95,2.96-3.73,2.96h-70.65l-16.48,70.46h203.76l16.48-70.46h-55Z"/><path class="cls-2" d="M718.06,311.58h-55l30.37-129.85,5.07-21.68c.27-1.14,0-2.34-.73-3.25-.73-.92-1.83-1.45-3-1.45h-151.8c-1.78,0-3.32,1.22-3.73,2.96l-18.27,78.11s0,.05,0,.08c-.24,1.12,.03,2.28,.74,3.17,.73,.92,1.83,1.45,3,1.45h68.85l-3.3,14.11-1.79,7.66-11.39,48.69h-70.65c-1.78,0-3.32,1.22-3.73,2.96l-18.27,78.11s0,.05,0,.08c-.24,1.11,.03,2.28,.74,3.17,.73,.92,1.83,1.45,3,1.45h211.63c1.78,0,3.32-1.22,3.73-2.96l13.2-56.43,5.07-21.68c.27-1.14,0-2.34-.73-3.25-.73-.92-1.83-1.45-3-1.45Zm-21.31,78.11h-203.76l16.48-70.46h70.65c1.78,0,3.32-1.22,3.73-2.96l18.27-78.11c.27-1.14,0-2.34-.73-3.25-.73-.92-1.83-1.45-3-1.45h-68.85l16.48-70.46h143.93l-35.44,151.53c-.27,1.14,0,2.34,.73,3.25,.73,.92,1.83,1.45,3,1.45h55l-16.48,70.46Z"/><path class="cls-1" d="M202.85,233.47c1.17,0,2.27,.53,3,1.45,.73,.92,.99,2.11,.73,3.25l-35.44,151.53h70.25l53.01-226.68H67.93L14.92,389.69H85.17l35.85-153.27c.4-1.73,1.95-2.96,3.73-2.96h78.11Z"/><path class="cls-2" d="M163.32,395.9c.73,.92,1.83,1.45,3,1.45h78.11c1.78,0,3.32-1.22,3.73-2.96l49.73-212.65,5.07-21.69c.27-1.14,0-2.34-.73-3.25-.73-.92-1.83-1.45-3-1.45H64.89c-1.78,0-3.32,1.22-3.73,2.96L6.36,392.65s0,.05,0,.08c-.24,1.12,.03,2.28,.74,3.17,.73,.92,1.83,1.45,3,1.45H88.2c1.78,0,3.32-1.22,3.73-2.96l32.55-139.16,3.3-14.11h70.25l-3.3,14.11-1.79,7.66-30.35,129.76s0,.06-.01,.09c-.23,1.11,.03,2.27,.74,3.16Zm-42.31-159.48l-35.85,153.27H14.92l53.01-226.68h226.48l-53.01,226.68h-70.25l35.44-151.53c.27-1.14,0-2.34-.73-3.25-.73-.92-1.83-1.45-3-1.45H124.74c-1.78,0-3.32,1.22-3.73,2.96Z"/></svg>