<?xml version="1.0" encoding="utf-8"?>
<!-- Generator: Adobe Illustrator 26.3.1, SVG Export Plug-In . SVG Version: 6.00 Build 0)  -->
<svg version="1.1" xmlns="http://www.w3.org/2000/svg" xmlns:xlink="http://www.w3.org/1999/xlink" x="0px" y="0px"
	 viewBox="0 0 1817.2 1694.4" style="enable-background:new 0 0 1817.2 1694.4;" xml:space="preserve">
<style type="text/css">
	.st0{fill:#9EFF2E;}
	.st1{fill:#00904C;}
	.st2{fill:#45B549;}
	.st3{fill:#231F20;}
	.st4{fill:#BE1E2D;}
	.st5{fill:#FFDD15;}
	.st6{fill:#1B75BB;}
	.st7{fill:#009345;}
	.st8{fill:#9F1622;}
	.st9{fill:#13588E;}
	.st10{fill:#006838;}
	.st11{fill:#C4AA15;}
	.st12{fill:none;}
	.st13{fill:#E8D92A;}
	.st14{fill:#E12626;}
	.st15{fill:#44B449;}
	.st16{fill:#3777BC;}
	.st17{fill:#3677BB;}
	.st18{fill:#E8D828;}
	.st19{fill:#215584;}
	.st20{fill:#21782E;}
	.st21{fill:#837F12;}
	.st22{fill:#10C685;}
	.st23{fill:none;stroke:#FCB01A;stroke-width:6;stroke-miterlimit:10;}
	.st24{fill:#A51C3D;}
	.st25{fill:#702634;}
	.st26{fill:#FF1A3B;}
	.st27{fill:#FC83B2;}
	.st28{fill:#413470;}
	.st29{fill:#6C42E2;}
	.st30{fill:#B076F4;}
	.st31{fill:#0F4417;}
	.st32{fill:#BB3A07;}
	.st33{fill:#7F2602;}
	.st34{fill:#F95B1C;}
	.st35{fill:#FFA60D;}
	.st36{fill:url(#);}
	.st37{fill:url(#SVGID_1_);}
	.st38{fill:url(#SVGID_00000149362605395353296420000000711555301055970706_);}
	.st39{fill:url(#SVGID_00000084513035881685614250000012839504483672075909_);}
	.st40{fill:url(#SVGID_00000024002171075959839870000003027597568970060165_);}
	.st41{fill:url(#SVGID_00000126306742170105913670000013364223348139342224_);}
	.st42{fill:url(#SVGID_00000142887613361499264290000000144883030684648600_);}
	.st43{fill:url(#SVGID_00000110454013126795641760000009339531832249602727_);}
	.st44{fill:url(#SVGID_00000104666199126271443380000015708305507338171520_);}
	.st45{fill:url(#SVGID_00000100355970487854795920000007692236095515553939_);}
	.st46{fill:url(#SVGID_00000171684937251942984300000009101218649478491563_);}
	.st47{fill:url(#SVGID_00000176744420424538879840000018216500736127089831_);}
	.st48{fill:url(#SVGID_00000164477922789967962660000012885337112190263475_);}
	.st49{fill:url(#SVGID_00000172428440044415057660000007747727583219753888_);}
	.st50{fill:url(#SVGID_00000058569968462920779470000007647420969691719097_);}
	.st51{fill:url(#SVGID_00000017493335682067626930000017595376798372482493_);}
	.st52{fill:url(#SVGID_00000072259221998219292610000004145836474258009009_);}
	.st53{fill:url(#SVGID_00000003072633996284353560000000125749293322559896_);}
	.st54{fill:url(#SVGID_00000005958932647175339650000015397601162793502119_);}
	.st55{fill:url(#SVGID_00000089538805903437421150000008524095823464732548_);}
	.st56{fill:url(#SVGID_00000018195944114597978510000008331209745193624480_);}
	.st57{fill:url(#SVGID_00000127023311906786583710000007097130170357151397_);}
	.st58{fill:url(#SVGID_00000152243893694925705250000016884338740821291403_);}
	.st59{fill:url(#SVGID_00000182526088835003800420000007740126191693615524_);}
	.st60{fill:url(#SVGID_00000071547263421550143050000002593222061496590727_);}
	.st61{fill:url(#SVGID_00000042013657032087120130000008464269811916302739_);}
	.st62{fill:url(#SVGID_00000060728490498368686300000010470986104731556271_);}
	.st63{fill:url(#SVGID_00000155114923653485698980000014267538628678152340_);}
	.st64{fill:url(#SVGID_00000150098926036411814950000011388692333874912917_);}
	.st65{fill:url(#SVGID_00000065071028178981124500000012698997977116186018_);}
	.st66{fill:url(#SVGID_00000044900508945465518390000009320316673168430982_);}
	.st67{fill:url(#SVGID_00000124146459455281608860000002749269725361697211_);}
	.st68{fill:url(#SVGID_00000023967415746183342330000008319015196920173745_);}
	.st69{fill:url(#SVGID_00000165952340216089423650000011286062944250477723_);}
	.st70{fill:url(#SVGID_00000161594240088592784470000009840832274671652505_);}
	.st71{fill:url(#SVGID_00000118386735424691618970000011698045997141167760_);}
	.st72{fill:url(#SVGID_00000049902128079505735060000002549940298441362879_);}
	.st73{fill:url(#SVGID_00000098923312730495611750000016155215748111672704_);}
	.st74{fill:url(#SVGID_00000114043745587273771450000010798788978444567708_);}
	.st75{fill:url(#SVGID_00000155134474463155513640000006076698596641529788_);}
	.st76{fill:url(#SVGID_00000149383198660414215740000000473337645971230873_);}
	.st77{fill:url(#SVGID_00000030460253357510449870000015487920376890200461_);}
	.st78{fill:url(#SVGID_00000012454529493045830510000012874838034290581905_);}
	.st79{fill:url(#SVGID_00000149340951029003384610000006880430182797251775_);}
	.st80{fill:url(#SVGID_00000058584782745720724090000000209419967248061112_);}
	.st81{fill:url(#SVGID_00000116194036861775740150000004759568263937067924_);}
	.st82{fill:url(#SVGID_00000023977867758711453800000008081133151259242670_);}
	.st83{fill:#FFDD15;stroke:#6CBA52;stroke-width:11;stroke-miterlimit:10;}
</style>
<g id="Layer_1">
	<rect x="-37.5" y="-32.3" class="st1" width="1930.2" height="1779.8"/>
	<g>
		<g>
			<polygon class="st2" points="1884.1,414.9 1838.4,610.3 1708.1,610.3 1723.4,545.2 1788.5,545.2 1803.7,480 1738.6,480 
				1784.3,284.6 1849.4,284.6 1819,414.9 			"/>
		</g>
		<g>
			<polygon class="st2" points="855.8,612 810.1,807.4 679.9,807.4 695.1,742.3 760.2,742.3 775.5,677.2 710.3,677.2 756,481.7 
				821.2,481.7 790.7,612 			"/>
			<polygon class="st2" points="926.5,677.2 911.3,742.3 846.1,742.3 830.9,807.4 961.2,807.4 1006.9,612 876.6,612 861.4,677.2 			
				"/>
			<polygon class="st2" points="1192.6,612 1177.3,677.2 1127.4,677.2 1097,807.4 981.9,807.4 997.2,742.3 1047.1,742.3 1077.5,612 
							"/>
			<polygon class="st2" points="1596.2,742.3 1581,807.4 1404.5,807.4 1419.7,742.3 1481.2,742.3 1496.4,677.2 1435,677.2 
				1450.2,612 1576.8,612 1546.3,742.3 			"/>
			<polygon class="st2" points="1263.2,677.2 1248,742.3 1313.1,742.3 1297.9,807.4 1167.6,807.4 1213.3,612 1343.6,612 
				1328.4,677.2 			"/>
			<polygon class="st2" points="1429.5,612 1383.8,807.4 1318.6,807.4 1364.3,612 			"/>
		</g>
		<g>
			<polygon class="st2" points="704.8,1054 659.1,1249.4 528.8,1249.4 544.1,1184.3 609.2,1184.3 624.4,1119.2 559.3,1119.2 
				605,923.8 670.1,923.8 639.7,1054 			"/>
			<polygon class="st2" points="775.5,1119.2 760.2,1184.3 695.1,1184.3 679.8,1249.4 810.1,1249.4 855.8,1054 725.6,1054 
				710.3,1119.2 			"/>
			<polygon class="st2" points="1041.5,1054 1026.3,1119.2 976.4,1119.2 945.9,1249.4 830.9,1249.4 846.1,1184.3 896,1184.3 
				926.5,1054 			"/>
			<polygon class="st2" points="1445.2,1184.3 1429.9,1249.4 1253.5,1249.4 1268.7,1184.3 1330.1,1184.3 1345.4,1119.2 
				1283.9,1119.2 1299.2,1054 1425.7,1054 1395.3,1184.3 			"/>
			<polygon class="st2" points="1112.2,1119.2 1096.9,1184.3 1162.1,1184.3 1146.8,1249.4 1016.6,1249.4 1062.3,1054 1192.5,1054 
				1177.3,1119.2 			"/>
			<polygon class="st2" points="1278.4,1054 1232.7,1249.4 1167.6,1249.4 1213.3,1054 			"/>
		</g>
		<g>
			<polygon class="st2" points="541.5,1519.6 495.8,1715 365.5,1715 380.8,1649.8 445.9,1649.8 461.1,1584.7 396,1584.7 
				441.7,1389.3 506.8,1389.3 476.4,1519.6 			"/>
			<polygon class="st2" points="612.2,1584.7 596.9,1649.8 531.8,1649.8 516.5,1715 646.8,1715 692.6,1519.6 562.3,1519.6 
				547,1584.7 			"/>
			<polygon class="st2" points="878.2,1519.6 863,1584.7 813.1,1584.7 782.6,1715 667.6,1715 682.8,1649.8 732.7,1649.8 
				763.2,1519.6 			"/>
			<polygon class="st2" points="1281.9,1649.8 1266.6,1715 1090.2,1715 1105.4,1649.8 1166.9,1649.8 1182.1,1584.7 1120.6,1584.7 
				1135.9,1519.6 1262.5,1519.6 1232,1649.8 			"/>
			<polygon class="st2" points="948.9,1584.7 933.7,1649.8 998.8,1649.8 983.6,1715 853.3,1715 899,1519.6 1029.3,1519.6 
				1014,1584.7 			"/>
			<polygon class="st2" points="1115.1,1519.6 1069.4,1715 1004.3,1715 1050,1519.6 			"/>
		</g>
		<g>
			<polygon class="st2" points="1012,155.5 966.3,350.9 836,350.9 851.2,285.7 916.3,285.7 931.6,220.6 866.4,220.6 912.1,25.2 
				977.3,25.2 946.8,155.5 			"/>
			<polygon class="st2" points="1082.6,220.6 1067.4,285.7 1002.2,285.7 987,350.9 1117.3,350.9 1163,155.5 1032.7,155.5 
				1017.5,220.6 			"/>
			<polygon class="st2" points="1348.7,155.5 1333.5,220.6 1283.6,220.6 1253.1,350.9 1138,350.9 1153.3,285.7 1203.2,285.7 
				1233.6,155.5 			"/>
			<polygon class="st2" points="1752.3,285.7 1737.1,350.9 1560.6,350.9 1575.9,285.7 1637.3,285.7 1652.5,220.6 1591.1,220.6 
				1606.3,155.5 1732.9,155.5 1702.4,285.7 			"/>
			<polygon class="st2" points="1419.3,220.6 1404.1,285.7 1469.2,285.7 1454,350.9 1323.7,350.9 1369.4,155.5 1499.7,155.5 
				1484.5,220.6 			"/>
			<polygon class="st2" points="1585.6,155.5 1539.9,350.9 1474.7,350.9 1520.4,155.5 			"/>
		</g>
		<g>
			<polygon class="st2" points="1728,865.5 1682.3,1060.9 1552,1060.9 1567.3,995.8 1632.4,995.8 1647.6,930.6 1582.5,930.6 
				1628.2,735.2 1693.3,735.2 1662.9,865.5 			"/>
			<polygon class="st2" points="1798.7,930.6 1783.4,995.8 1718.3,995.8 1703,1060.9 1833.3,1060.9 1879,865.5 1748.8,865.5 
				1733.5,930.6 			"/>
		</g>
		<g>
			<polygon class="st2" points="1571.9,1318.2 1526.2,1513.6 1395.9,1513.6 1411.1,1448.5 1476.3,1448.5 1491.5,1383.4 
				1426.4,1383.4 1472.1,1187.9 1537.2,1187.9 1506.8,1318.2 			"/>
			<polygon class="st2" points="1642.6,1383.4 1627.3,1448.5 1562.2,1448.5 1546.9,1513.6 1677.2,1513.6 1722.9,1318.2 
				1592.7,1318.2 1577.4,1383.4 			"/>
			<polygon class="st2" points="1908.6,1318.2 1893.4,1383.4 1843.5,1383.4 1813,1513.6 1698,1513.6 1713.2,1448.5 1763.1,1448.5 
				1793.6,1318.2 			"/>
		</g>
		<g>
			<polygon class="st2" points="1415.7,1770.9 1370,1966.4 1239.7,1966.4 1254.9,1901.2 1320.1,1901.2 1335.3,1836.1 1270.2,1836.1 
				1315.9,1640.7 1381,1640.7 1350.5,1770.9 			"/>
		</g>
		<g>
			<polygon class="st2" points="145.6,-93.6 99.9,101.8 -30.4,101.8 -15.2,36.6 50,36.6 65.2,-28.5 0.1,-28.5 45.8,-223.9 
				110.9,-223.9 80.4,-93.6 			"/>
			<polygon class="st2" points="216.2,-28.5 201,36.6 135.8,36.6 120.6,101.8 250.9,101.8 296.6,-93.6 166.3,-93.6 151.1,-28.5 			
				"/>
			<polygon class="st2" points="482.3,-93.6 467.1,-28.5 417.2,-28.5 386.7,101.8 271.7,101.8 286.9,36.6 336.8,36.6 367.3,-93.6 
							"/>
			<polygon class="st2" points="885.9,36.6 870.7,101.8 694.2,101.8 709.5,36.6 770.9,36.6 786.1,-28.5 724.7,-28.5 739.9,-93.6 
				866.5,-93.6 836,36.6 			"/>
			<polygon class="st2" points="552.9,-28.5 537.7,36.6 602.8,36.6 587.6,101.8 457.3,101.8 503,-93.6 633.3,-93.6 618.1,-28.5 			
				"/>
			<polygon class="st2" points="719.2,-93.6 673.5,101.8 608.4,101.8 654.1,-93.6 			"/>
		</g>
		<g>
			<polygon class="st2" points="60.1,425.6 44.9,490.7 -20.3,490.7 -35.5,555.9 94.8,555.9 140.5,360.5 10.2,360.5 -5,425.6 			"/>
			<polygon class="st2" points="326.2,360.5 311,425.6 261.1,425.6 230.6,555.9 115.5,555.9 130.8,490.7 180.7,490.7 211.2,360.5 
							"/>
			<polygon class="st2" points="729.8,490.7 714.6,555.9 538.1,555.9 553.4,490.7 614.8,490.7 630,425.6 568.6,425.6 583.8,360.5 
				710.4,360.5 679.9,490.7 			"/>
			<polygon class="st2" points="396.8,425.6 381.6,490.7 446.7,490.7 431.5,555.9 301.2,555.9 346.9,360.5 477.2,360.5 462,425.6 
							"/>
			<polygon class="st2" points="563.1,360.5 517.4,555.9 452.2,555.9 497.9,360.5 			"/>
		</g>
		<g>
			<polygon class="st2" points="175.1,814.6 159.9,879.7 110,879.7 79.5,1010 -35.5,1010 -20.3,944.9 29.6,944.9 60.1,814.6 			"/>
			<polygon class="st2" points="578.8,944.9 563.5,1010 387.1,1010 402.3,944.9 463.7,944.9 479,879.7 417.5,879.7 432.8,814.6 
				559.4,814.6 528.9,944.9 			"/>
			<polygon class="st2" points="245.8,879.7 230.6,944.9 295.7,944.9 280.5,1010 150.2,1010 195.9,814.6 326.2,814.6 310.9,879.7 
							"/>
			<polygon class="st2" points="412,814.6 366.3,1010 301.2,1010 346.9,814.6 			"/>
		</g>
		<g>
			<polygon class="st2" points="13.6,1268.7 -1.7,1333.8 -51.6,1333.8 -82,1464.1 -197.1,1464.1 -181.9,1399 -131.9,1399 
				-101.5,1268.7 			"/>
			<polygon class="st2" points="417.2,1399 402,1464.1 225.5,1464.1 240.7,1399 302.2,1399 317.4,1333.8 256,1333.8 271.2,1268.7 
				397.8,1268.7 367.3,1399 			"/>
			<polygon class="st2" points="84.2,1333.8 69,1399 134.1,1399 118.9,1464.1 -11.4,1464.1 34.3,1268.7 164.6,1268.7 149.3,1333.8 
							"/>
			<polygon class="st2" points="250.5,1268.7 204.8,1464.1 139.6,1464.1 185.3,1268.7 			"/>
		</g>
		<g>
		</g>
		<g>
			<polygon class="st2" points="841.8,-125.7 887.5,-321.1 1017.8,-321.1 1002.5,-256 937.4,-256 922.2,-190.9 987.3,-190.9 
				941.6,4.5 876.5,4.5 906.9,-125.7 			"/>
		</g>
		<g>
			<polygon class="st2" points="676.2,329 721.9,133.6 852.1,133.6 836.9,198.7 771.8,198.7 756.5,263.9 821.7,263.9 776,459.3 
				710.8,459.3 741.3,329 			"/>
			<polygon class="st2" points="605.5,263.9 620.7,198.7 685.9,198.7 701.1,133.6 570.9,133.6 525.1,329 655.4,329 670.6,263.9 			
				"/>
			<polygon class="st2" points="339.4,329 354.7,263.9 404.6,263.9 435,133.6 550.1,133.6 534.8,198.7 484.9,198.7 454.5,329 			"/>
			<polygon class="st2" points="-64.2,198.7 -49,133.6 127.5,133.6 112.3,198.7 50.8,198.7 35.6,263.9 97,263.9 81.8,329 -44.8,329 
				-14.3,198.7 			"/>
			<polygon class="st2" points="268.8,263.9 284,198.7 218.9,198.7 234.1,133.6 364.4,133.6 318.7,329 188.4,329 203.7,263.9 			"/>
			<polygon class="st2" points="102.5,329 148.2,133.6 213.4,133.6 167.7,329 			"/>
		</g>
		<g>
			<polygon class="st2" points="528.6,781.6 574.3,586.2 704.6,586.2 689.3,651.4 624.2,651.4 609,716.5 674.1,716.5 628.4,911.9 
				563.3,911.9 593.7,781.6 			"/>
			<polygon class="st2" points="457.9,716.5 473.2,651.4 538.3,651.4 553.5,586.2 423.3,586.2 377.5,781.6 507.8,781.6 523.1,716.5 
							"/>
			<polygon class="st2" points="191.9,781.6 207.1,716.5 257,716.5 287.5,586.2 402.5,586.2 387.3,651.4 337.4,651.4 306.9,781.6 
							"/>
			<polygon class="st2" points="121.2,716.5 136.4,651.4 71.3,651.4 86.5,586.2 216.8,586.2 171.1,781.6 40.8,781.6 56.1,716.5 			
				"/>
			<polygon class="st2" points="-45,781.6 0.7,586.2 65.8,586.2 20.1,781.6 			"/>
		</g>
		<g>
			<polygon class="st2" points="372.3,1234.3 418,1038.9 548.2,1038.9 533,1104 467.9,1104 452.6,1169.1 517.8,1169.1 472.1,1364.6 
				406.9,1364.6 437.4,1234.3 			"/>
			<polygon class="st2" points="301.6,1169.1 316.8,1104 382,1104 397.2,1038.9 267,1038.9 221.2,1234.3 351.5,1234.3 366.7,1169.1 
							"/>
			<polygon class="st2" points="35.5,1234.3 50.8,1169.1 100.7,1169.1 131.1,1038.9 246.2,1038.9 230.9,1104 181,1104 150.6,1234.3 
							"/>
			<polygon class="st2" points="-35.1,1169.1 -19.9,1104 -85,1104 -69.8,1038.9 60.5,1038.9 14.8,1234.3 -115.5,1234.3 
				-100.2,1169.1 			"/>
		</g>
		<g>
			<polygon class="st2" points="218.6,1686.9 264.3,1491.5 394.6,1491.5 379.4,1556.6 314.2,1556.6 299,1621.8 364.1,1621.8 
				318.4,1817.2 253.3,1817.2 283.8,1686.9 			"/>
			<polygon class="st2" points="147.9,1621.8 163.2,1556.6 228.3,1556.6 243.6,1491.5 113.3,1491.5 67.6,1686.9 197.8,1686.9 
				213.1,1621.8 			"/>
			<polygon class="st2" points="-118.1,1686.9 -102.9,1621.8 -53,1621.8 -22.5,1491.5 92.5,1491.5 77.3,1556.6 27.4,1556.6 
				-3.1,1686.9 			"/>
		</g>
		<g>
			<polygon class="st2" points="1708.1,122.4 1753.8,-73 1884.1,-73 1868.9,-7.9 1803.7,-7.9 1788.5,57.2 1853.6,57.2 1807.9,252.7 
				1742.8,252.7 1773.3,122.4 			"/>
			<polygon class="st2" points="1637.5,57.2 1652.7,-7.9 1717.8,-7.9 1733.1,-73 1602.8,-73 1557.1,122.4 1687.4,122.4 1702.6,57.2 
							"/>
			<polygon class="st2" points="1371.4,122.4 1386.6,57.2 1436.5,57.2 1467,-73 1582,-73 1566.8,-7.9 1516.9,-7.9 1486.4,122.4 			
				"/>
			<polygon class="st2" points="967.8,-7.9 983,-73 1159.5,-73 1144.2,-7.9 1082.8,-7.9 1067.6,57.2 1129,57.2 1113.8,122.4 
				987.2,122.4 1017.7,-7.9 			"/>
			<polygon class="st2" points="1300.8,57.2 1316,-7.9 1250.8,-7.9 1266.1,-73 1396.4,-73 1350.7,122.4 1220.4,122.4 1235.6,57.2 
							"/>
			<polygon class="st2" points="1134.5,122.4 1180.2,-73 1245.3,-73 1199.6,122.4 			"/>
		</g>
		<g>
			<polygon class="st2" points="1684,702.9 1699.2,637.7 1875.7,637.7 1860.5,702.9 1799,702.9 1783.8,768 1845.2,768 1830,833.2 
				1703.4,833.2 1733.9,702.9 			"/>
		</g>
		<g>
			<polygon class="st2" points="1531.1,1155.4 1546.4,1090.2 1722.8,1090.2 1707.6,1155.4 1646.2,1155.4 1630.9,1220.5 
				1692.4,1220.5 1677.1,1285.7 1550.5,1285.7 1581,1155.4 			"/>
			<polygon class="st2" points="1864.1,1220.5 1879.3,1155.4 1814.2,1155.4 1829.4,1090.2 1959.7,1090.2 1914,1285.7 1783.7,1285.7 
				1799,1220.5 			"/>
			<polygon class="st2" points="1697.9,1285.7 1743.6,1090.2 1808.7,1090.2 1763,1285.7 			"/>
		</g>
		<g>
			<polygon class="st2" points="1777.7,1747.5 1792.9,1682.4 1842.8,1682.4 1873.3,1552.1 1988.3,1552.1 1973.1,1617.3 
				1923.2,1617.3 1892.7,1747.5 			"/>
			<polygon class="st2" points="1374.1,1617.3 1389.3,1552.1 1565.8,1552.1 1550.5,1617.3 1489.1,1617.3 1473.8,1682.4 
				1535.3,1682.4 1520.1,1747.5 1393.5,1747.5 1423.9,1617.3 			"/>
			<polygon class="st2" points="1707,1682.4 1722.3,1617.3 1657.1,1617.3 1672.4,1552.1 1802.6,1552.1 1756.9,1747.5 1626.7,1747.5 
				1641.9,1682.4 			"/>
			<polygon class="st2" points="1540.8,1747.5 1586.5,1552.1 1651.6,1552.1 1605.9,1747.5 			"/>
		</g>
		<g>
			<polygon class="st2" points="1547.6,575.6 1593.3,380.2 1723.5,380.2 1708.3,445.3 1643.2,445.3 1627.9,510.5 1693.1,510.5 
				1647.4,705.9 1582.2,705.9 1612.7,575.6 			"/>
			<polygon class="st2" points="1476.9,510.5 1492.2,445.3 1557.3,445.3 1572.5,380.2 1442.3,380.2 1396.5,575.6 1526.8,575.6 
				1542,510.5 			"/>
			<polygon class="st2" points="1210.8,575.6 1226.1,510.5 1276,510.5 1306.4,380.2 1421.5,380.2 1406.3,445.3 1356.3,445.3 
				1325.9,575.6 			"/>
			<polygon class="st2" points="807.2,445.3 822.4,380.2 998.9,380.2 983.7,445.3 922.2,445.3 907,510.5 968.4,510.5 953.2,575.6 
				826.6,575.6 857.1,445.3 			"/>
			<polygon class="st2" points="1140.2,510.5 1155.4,445.3 1090.3,445.3 1105.5,380.2 1235.8,380.2 1190.1,575.6 1059.8,575.6 
				1075.1,510.5 			"/>
			<polygon class="st2" points="973.9,575.6 1019.6,380.2 1084.8,380.2 1039.1,575.6 			"/>
		</g>
		<g>
			<polygon class="st2" points="1397.3,1028.6 1443,833.2 1573.3,833.2 1558.1,898.3 1492.9,898.3 1477.7,963.4 1542.8,963.4 
				1497.1,1158.8 1432,1158.8 1462.5,1028.6 			"/>
			<polygon class="st2" points="1326.7,963.4 1341.9,898.3 1407.1,898.3 1422.3,833.2 1292,833.2 1246.3,1028.6 1376.6,1028.6 
				1391.8,963.4 			"/>
			<polygon class="st2" points="1060.6,1028.6 1075.8,963.4 1125.7,963.4 1156.2,833.2 1271.2,833.2 1256,898.3 1206.1,898.3 
				1175.6,1028.6 			"/>
			<polygon class="st2" points="657,898.3 672.2,833.2 848.7,833.2 833.4,898.3 772,898.3 756.8,963.4 818.2,963.4 803,1028.6 
				676.4,1028.6 706.9,898.3 			"/>
			<polygon class="st2" points="990,963.4 1005.2,898.3 940.1,898.3 955.3,833.2 1085.6,833.2 1039.9,1028.6 909.6,1028.6 
				924.8,963.4 			"/>
			<polygon class="st2" points="823.7,1028.6 869.4,833.2 934.5,833.2 888.8,1028.6 			"/>
		</g>
		<g>
			<polygon class="st2" points="1241.1,1481.5 1286.8,1286.1 1417,1286.1 1401.8,1351.2 1336.7,1351.2 1321.4,1416.4 1386.6,1416.4 
				1340.9,1611.8 1275.7,1611.8 1306.2,1481.5 			"/>
			<polygon class="st2" points="1170.4,1416.4 1185.6,1351.2 1250.8,1351.2 1266,1286.1 1135.8,1286.1 1090,1481.5 1220.3,1481.5 
				1235.5,1416.4 			"/>
			<polygon class="st2" points="904.3,1481.5 919.6,1416.4 969.5,1416.4 999.9,1286.1 1115,1286.1 1099.7,1351.2 1049.8,1351.2 
				1019.4,1481.5 			"/>
			<polygon class="st2" points="500.7,1351.2 515.9,1286.1 692.4,1286.1 677.2,1351.2 615.7,1351.2 600.5,1416.4 661.9,1416.4 
				646.7,1481.5 520.1,1481.5 550.6,1351.2 			"/>
			<polygon class="st2" points="833.7,1416.4 848.9,1351.2 783.8,1351.2 799,1286.1 929.3,1286.1 883.6,1481.5 753.3,1481.5 
				768.6,1416.4 			"/>
			<polygon class="st2" points="667.4,1481.5 713.1,1286.1 778.3,1286.1 732.6,1481.5 			"/>
		</g>
	</g>
</g>
<g id="Layer_2">
</g>
<g id="Layer_3">
</g>
</svg>
