<?xml version="1.0" encoding="utf-8"?>
<!-- Generator: Adobe Illustrator 26.3.1, SVG Export Plug-In . SVG Version: 6.00 Build 0)  -->
<svg version="1.1" xmlns="http://www.w3.org/2000/svg" xmlns:xlink="http://www.w3.org/1999/xlink" x="0px" y="0px"
	 viewBox="0 0 1646.7 3150.7" style="enable-background:new 0 0 1646.7 3150.7;" xml:space="preserve">
<style type="text/css">
	.st0{fill:#9EFF2E;}
	.st1{fill:#00904C;}
	.st2{fill:#45B549;}
	.st3{fill:#231F20;}
	.st4{fill:#BE1E2D;}
	.st5{fill:#FFDD15;}
	.st6{fill:#1B75BB;}
	.st7{fill:#009345;}
	.st8{fill:#9F1622;}
	.st9{fill:#13588E;}
	.st10{fill:#006838;}
	.st11{fill:#C4AA15;}
	.st12{fill:none;}
	.st13{fill:#E8D92A;}
	.st14{fill:#E12626;}
	.st15{fill:#44B449;}
	.st16{fill:#3777BC;}
	.st17{fill:#3677BB;}
	.st18{fill:#E8D828;}
	.st19{fill:#215584;}
	.st20{fill:#21782E;}
	.st21{fill:#837F12;}
	.st22{fill:#10C685;}
	.st23{fill:none;stroke:#FCB01A;stroke-width:6;stroke-miterlimit:10;}
	.st24{fill:#A51C3D;}
	.st25{fill:#702634;}
	.st26{fill:#FF1A3B;}
	.st27{fill:#FC83B2;}
	.st28{fill:#413470;}
	.st29{fill:#6C42E2;}
	.st30{fill:#B076F4;}
	.st31{fill:#0F4417;}
	.st32{fill:#BB3A07;}
	.st33{fill:#7F2602;}
	.st34{fill:#F95B1C;}
	.st35{fill:#FFA60D;}
	.st36{fill:url(#);}
	.st37{fill:url(#SVGID_1_);}
	.st38{fill:url(#SVGID_00000066509061516738693740000010941500835407811725_);}
	.st39{fill:url(#SVGID_00000017478795242799491650000009184056362476392611_);}
	.st40{fill:url(#SVGID_00000156558837807473342280000001269755068791025560_);}
	.st41{fill:url(#SVGID_00000152237880991573759730000015629453621791436199_);}
	.st42{fill:url(#SVGID_00000040558547172070007420000001034026658964252034_);}
	.st43{fill:url(#SVGID_00000075868041320892409700000013501161110314456486_);}
	.st44{fill:url(#SVGID_00000176010916228097748100000010421192177584598687_);}
	.st45{fill:url(#SVGID_00000136386958003956660430000016007185671775147176_);}
	.st46{fill:url(#SVGID_00000025427804734588622070000008586742885699187855_);}
	.st47{fill:url(#SVGID_00000129180237118829844110000012660807044674211517_);}
	.st48{fill:url(#SVGID_00000113345427346721917550000004914663794691412886_);}
	.st49{fill:url(#SVGID_00000028319161499281243470000010870939210466190724_);}
	.st50{fill:url(#SVGID_00000042701490845396945860000004012797843642754987_);}
	.st51{fill:url(#SVGID_00000072959427311321252230000010093055395784630918_);}
	.st52{fill:url(#SVGID_00000154396935054699373980000013971991266518406823_);}
	.st53{fill:url(#SVGID_00000019668196094330368660000013029830000629731239_);}
	.st54{fill:url(#SVGID_00000059271443633678293290000003034770892396278670_);}
	.st55{fill:url(#SVGID_00000096760352820644675780000013813055973214699692_);}
	.st56{fill:url(#SVGID_00000096053401433568149170000001321815161325299647_);}
	.st57{fill:url(#SVGID_00000056425353507220208490000007041650890663266956_);}
	.st58{fill:url(#SVGID_00000070820196770011822290000015042617911149836725_);}
	.st59{fill:url(#SVGID_00000096021111220576771120000009345029760363313037_);}
	.st60{fill:url(#SVGID_00000123399255187555931330000005416180914789193900_);}
	.st61{fill:url(#SVGID_00000139987986989869504950000016256998331959483791_);}
	.st62{fill:url(#SVGID_00000117636737968082721210000003231157290293054085_);}
	.st63{fill:url(#SVGID_00000163035700096319105710000003279277033624737417_);}
	.st64{fill:url(#SVGID_00000101822796599519448560000012150501576334149283_);}
	.st65{fill:url(#SVGID_00000041280311123614063370000012823282299546729628_);}
	.st66{fill:url(#SVGID_00000088099252120972931340000007998420121926964122_);}
	.st67{fill:url(#SVGID_00000013911987835836269230000001198915298906102679_);}
	.st68{fill:url(#SVGID_00000111178458131124759970000014543374020369240750_);}
	.st69{fill:url(#SVGID_00000067226185592570813510000014936216183142770320_);}
	.st70{fill:url(#SVGID_00000181784994865081614160000007091242554996835719_);}
	.st71{fill:url(#SVGID_00000104700530824790146150000001387493554100073613_);}
	.st72{fill:url(#SVGID_00000152985916572194721670000000395575210139590539_);}
	.st73{fill:url(#SVGID_00000155835229253007206250000010829687463696828595_);}
	.st74{fill:url(#SVGID_00000056408913429650457590000002177833907647025311_);}
	.st75{fill:url(#SVGID_00000170981666648451233710000006366419001960076991_);}
	.st76{fill:url(#SVGID_00000165948644135751580840000000969536103636513173_);}
	.st77{fill:url(#SVGID_00000134233836695284303710000001437865346614419388_);}
	.st78{fill:url(#SVGID_00000080195151618944136280000007792553844188996025_);}
	.st79{fill:url(#SVGID_00000178916809868210932180000010599147075752683157_);}
	.st80{fill:url(#SVGID_00000101087505159602170270000006360139385502123941_);}
	.st81{fill:url(#SVGID_00000049934617492130391060000012173946611844509076_);}
	.st82{fill:url(#SVGID_00000165930407035427430160000016338330740911237291_);}
	.st83{fill:#FFDD15;stroke:#6CBA52;stroke-width:11;stroke-miterlimit:10;}
</style>
<g id="Layer_1">
	<rect x="-208" y="-105.6" class="st1" width="1930.2" height="3244.3"/>
	<g>
		<g>
			<polygon class="st2" points="438,-73 392.3,122.4 262,122.4 277.3,57.2 342.4,57.2 357.6,-7.9 292.5,-7.9 338.2,-203.3 
				403.3,-203.3 372.9,-73 			"/>
			<polygon class="st2" points="508.7,-7.9 493.4,57.2 428.3,57.2 413,122.4 543.3,122.4 589.1,-73 458.8,-73 443.5,-7.9 			"/>
			<polygon class="st2" points="774.7,-73 759.5,-7.9 709.6,-7.9 679.1,122.4 564.1,122.4 579.3,57.2 629.2,57.2 659.7,-73 			"/>
			<polygon class="st2" points="1178.4,57.2 1163.1,122.4 986.7,122.4 1001.9,57.2 1063.3,57.2 1078.6,-7.9 1017.1,-7.9 1032.4,-73 
				1159,-73 1128.5,57.2 			"/>
			<polygon class="st2" points="845.4,-7.9 830.2,57.2 895.3,57.2 880.1,122.4 749.8,122.4 795.5,-73 925.8,-73 910.5,-7.9 			"/>
			<polygon class="st2" points="1011.6,-73 965.9,122.4 900.8,122.4 946.5,-73 			"/>
		</g>
		<g>
			<polygon class="st2" points="1162.4,635.1 1116.7,830.6 986.4,830.6 1001.7,765.4 1066.8,765.4 1082,700.3 1016.9,700.3 
				1062.6,504.9 1127.7,504.9 1097.3,635.1 			"/>
			<polygon class="st2" points="1233.1,700.3 1217.8,765.4 1152.7,765.4 1137.4,830.6 1267.7,830.6 1313.5,635.1 1183.2,635.1 
				1167.9,700.3 			"/>
			<polygon class="st2" points="1499.1,635.2 1483.9,700.3 1434,700.3 1403.5,830.6 1288.5,830.6 1303.7,765.4 1353.6,765.4 
				1384.1,635.2 			"/>
			<polygon class="st2" points="1569.8,700.3 1554.6,765.4 1619.7,765.4 1604.5,830.6 1474.2,830.6 1519.9,635.1 1650.2,635.1 
				1634.9,700.3 			"/>
			<polygon class="st2" points="1736,635.1 1690.3,830.6 1625.2,830.6 1670.9,635.1 			"/>
		</g>
		<g>
			<polygon class="st2" points="1003.1,1095.6 957.4,1291.1 827.1,1291.1 842.4,1225.9 907.5,1225.9 922.7,1160.8 857.6,1160.8 
				903.3,965.4 968.4,965.4 938,1095.6 			"/>
			<polygon class="st2" points="1073.8,1160.8 1058.5,1225.9 993.4,1225.9 978.1,1291.1 1108.4,1291.1 1154.1,1095.6 1023.9,1095.6 
				1008.6,1160.8 			"/>
			<polygon class="st2" points="1339.8,1095.7 1324.6,1160.8 1274.7,1160.8 1244.2,1291.1 1129.2,1291.1 1144.4,1225.9 
				1194.3,1225.9 1224.8,1095.7 			"/>
			<polygon class="st2" points="1743.5,1225.9 1728.2,1291.1 1551.8,1291.1 1567,1225.9 1628.4,1225.9 1643.7,1160.8 1582.2,1160.8 
				1597.5,1095.6 1724,1095.6 1693.6,1225.9 			"/>
			<polygon class="st2" points="1410.5,1160.8 1395.2,1225.9 1460.4,1225.9 1445.1,1291.1 1314.9,1291.1 1360.6,1095.6 
				1490.8,1095.6 1475.6,1160.8 			"/>
			<polygon class="st2" points="1576.7,1095.6 1531,1291.1 1465.9,1291.1 1511.6,1095.6 			"/>
		</g>
		<g>
			<polygon class="st2" points="1713.7,1806.1 1668,2001.5 1537.7,2001.5 1552.9,1936.3 1618,1936.3 1633.3,1871.2 1568.1,1871.2 
				1613.8,1675.8 1679,1675.8 1648.5,1806.1 			"/>
		</g>
		<g>
			<polygon class="st2" points="685.4,2003.2 639.7,2198.6 509.4,2198.6 524.7,2133.5 589.8,2133.5 605,2068.3 539.9,2068.3 
				585.6,1872.9 650.7,1872.9 620.3,2003.2 			"/>
			<polygon class="st2" points="756.1,2068.3 740.8,2133.5 675.7,2133.5 660.4,2198.6 790.7,2198.6 836.4,2003.2 706.2,2003.2 
				690.9,2068.3 			"/>
			<polygon class="st2" points="1022.1,2003.2 1006.9,2068.3 957,2068.3 926.5,2198.6 811.5,2198.6 826.7,2133.5 876.6,2133.5 
				907.1,2003.2 			"/>
			<polygon class="st2" points="1425.8,2133.5 1410.5,2198.6 1234.1,2198.6 1249.3,2133.5 1310.7,2133.5 1326,2068.3 1264.5,2068.3 
				1279.8,2003.2 1406.3,2003.2 1375.9,2133.5 			"/>
			<polygon class="st2" points="1092.8,2068.3 1077.5,2133.5 1142.7,2133.5 1127.4,2198.6 997.2,2198.6 1042.9,2003.2 
				1173.1,2003.2 1157.9,2068.3 			"/>
			<polygon class="st2" points="1259,2003.2 1213.3,2198.6 1148.2,2198.6 1193.9,2003.2 			"/>
		</g>
		<g>
			<polygon class="st2" points="534.3,2445.2 488.6,2640.6 358.4,2640.6 373.6,2575.5 438.7,2575.5 454,2510.3 388.8,2510.3 
				434.5,2314.9 499.7,2314.9 469.2,2445.2 			"/>
			<polygon class="st2" points="605,2510.3 589.8,2575.5 524.6,2575.5 509.4,2640.6 639.7,2640.6 685.4,2445.2 555.1,2445.2 
				539.9,2510.3 			"/>
			<polygon class="st2" points="871.1,2445.2 855.8,2510.3 805.9,2510.3 775.5,2640.6 660.4,2640.6 675.7,2575.5 725.6,2575.5 
				756,2445.2 			"/>
			<polygon class="st2" points="1274.7,2575.5 1259.5,2640.6 1083,2640.6 1098.2,2575.5 1159.7,2575.5 1174.9,2510.3 1113.5,2510.3 
				1128.7,2445.2 1255.3,2445.2 1224.8,2575.5 			"/>
			<polygon class="st2" points="941.7,2510.3 926.5,2575.5 991.6,2575.5 976.4,2640.6 846.1,2640.6 891.8,2445.2 1022.1,2445.2 
				1006.9,2510.3 			"/>
			<polygon class="st2" points="1108,2445.2 1062.3,2640.6 997.1,2640.6 1042.8,2445.2 			"/>
		</g>
		<g>
			<polygon class="st2" points="371.1,2910.7 325.4,3106.1 195.1,3106.1 210.3,3041 275.5,3041 290.7,2975.9 225.6,2975.9 
				271.3,2780.4 336.4,2780.4 305.9,2910.7 			"/>
			<polygon class="st2" points="441.7,2975.9 426.5,3041 361.3,3041 346.1,3106.1 476.4,3106.1 522.1,2910.7 391.8,2910.7 
				376.6,2975.9 			"/>
			<polygon class="st2" points="707.8,2910.7 692.6,2975.9 642.7,2975.9 612.2,3106.1 497.1,3106.1 512.4,3041 562.3,3041 
				592.8,2910.7 			"/>
			<polygon class="st2" points="1111.4,3041 1096.2,3106.1 919.7,3106.1 935,3041 996.4,3041 1011.6,2975.9 950.2,2975.9 
				965.4,2910.7 1092,2910.7 1061.5,3041 			"/>
			<polygon class="st2" points="778.4,2975.9 763.2,3041 828.3,3041 813.1,3106.1 682.8,3106.1 728.5,2910.7 858.8,2910.7 
				843.6,2975.9 			"/>
			<polygon class="st2" points="944.7,2910.7 899,3106.1 833.8,3106.1 879.5,2910.7 			"/>
		</g>
		<g>
			<polygon class="st2" points="841.5,1546.6 795.8,1742 665.5,1742 680.8,1676.9 745.9,1676.9 761.1,1611.7 696,1611.7 
				741.7,1416.3 806.8,1416.3 776.4,1546.6 			"/>
			<polygon class="st2" points="912.2,1611.7 896.9,1676.9 831.8,1676.9 816.5,1742 946.8,1742 992.6,1546.6 862.3,1546.6 
				847,1611.7 			"/>
			<polygon class="st2" points="1178.2,1546.6 1163,1611.8 1113.1,1611.8 1082.6,1742 967.6,1742 982.8,1676.9 1032.7,1676.9 
				1063.2,1546.6 			"/>
			<polygon class="st2" points="1581.9,1676.9 1566.6,1742 1390.2,1742 1405.4,1676.9 1466.8,1676.9 1482.1,1611.7 1420.6,1611.7 
				1435.9,1546.6 1562.4,1546.6 1532,1676.9 			"/>
			<polygon class="st2" points="1248.9,1611.7 1233.6,1676.9 1298.8,1676.9 1283.6,1742 1153.3,1742 1199,1546.6 1329.3,1546.6 
				1314,1611.7 			"/>
			<polygon class="st2" points="1415.1,1546.6 1369.4,1742 1304.3,1742 1350,1546.6 			"/>
		</g>
		<g>
			<polygon class="st2" points="1557.5,2256.7 1511.8,2452.1 1381.6,2452.1 1396.8,2386.9 1461.9,2386.9 1477.2,2321.8 1412,2321.8 
				1457.7,2126.4 1522.9,2126.4 1492.4,2256.7 			"/>
			<polygon class="st2" points="1628.2,2321.8 1613,2386.9 1547.8,2386.9 1532.6,2452.1 1662.9,2452.1 1708.6,2256.7 1578.3,2256.7 
				1563.1,2321.8 			"/>
		</g>
		<g>
			<polygon class="st2" points="1401.4,2709.4 1355.7,2904.8 1225.5,2904.8 1240.7,2839.7 1305.8,2839.7 1321.1,2774.5 
				1255.9,2774.5 1301.6,2579.1 1366.8,2579.1 1336.3,2709.4 			"/>
			<polygon class="st2" points="1472.1,2774.5 1456.9,2839.7 1391.7,2839.7 1376.5,2904.8 1506.8,2904.8 1552.5,2709.4 
				1422.2,2709.4 1407,2774.5 			"/>
			<polygon class="st2" points="1738.2,2709.4 1722.9,2774.5 1673,2774.5 1642.6,2904.8 1527.5,2904.8 1542.8,2839.7 1592.7,2839.7 
				1623.1,2709.4 			"/>
		</g>
		<g>
			<polygon class="st2" points="1245.2,3162.1 1199.5,3357.5 1069.2,3357.5 1084.5,3292.4 1149.6,3292.4 1164.8,3227.2 
				1099.7,3227.2 1145.4,3031.8 1210.5,3031.8 1180.1,3162.1 			"/>
		</g>
		<g>
			<polygon class="st2" points="300,376.4 254.3,571.8 124,571.8 139.3,506.7 204.4,506.7 219.6,441.6 154.5,441.6 200.2,246.1 
				265.3,246.1 234.9,376.4 			"/>
			<polygon class="st2" points="370.7,441.6 355.4,506.7 290.3,506.7 275.1,571.8 405.3,571.8 451.1,376.4 320.8,376.4 305.5,441.6 
							"/>
			<polygon class="st2" points="636.8,376.4 621.5,441.6 571.6,441.6 541.1,571.8 426.1,571.8 441.3,506.7 491.2,506.7 521.7,376.4 
							"/>
			<polygon class="st2" points="1040.4,506.7 1025.2,571.8 848.7,571.8 863.9,506.7 925.4,506.7 940.6,441.6 879.1,441.6 
				894.4,376.4 1021,376.4 990.5,506.7 			"/>
			<polygon class="st2" points="707.4,441.6 692.2,506.7 757.3,506.7 742.1,571.8 611.8,571.8 657.5,376.4 787.8,376.4 772.5,441.6 
							"/>
			<polygon class="st2" points="873.6,376.4 827.9,571.8 762.8,571.8 808.5,376.4 			"/>
		</g>
		<g>
			<polygon class="st2" points="176.9,239.7 161.6,304.8 -14.8,304.8 0.4,239.7 61.8,239.7 77.1,174.6 15.6,174.6 30.9,109.4 
				157.4,109.4 127,239.7 			"/>
			<polygon class="st2" points="10.1,109.4 -35.6,304.8 -100.7,304.8 -55,109.4 			"/>
		</g>
		<g>
			<polygon class="st2" points="143.9,828.8 98.2,1024.2 -32.1,1024.2 -16.8,959 48.3,959 63.5,893.9 -1.6,893.9 44.1,698.5 
				109.2,698.5 78.8,828.8 			"/>
			<polygon class="st2" points="214.6,893.9 199.3,959 134.2,959 118.9,1024.2 249.2,1024.2 295,828.8 164.7,828.8 149.4,893.9 			
				"/>
			<polygon class="st2" points="480.6,828.8 465.4,893.9 415.5,893.9 385,1024.2 270,1024.2 285.2,959 335.1,959 365.6,828.8 			"/>
			<polygon class="st2" points="884.3,959 869,1024.2 692.6,1024.2 707.8,959 769.2,959 784.5,893.9 723,893.9 738.3,828.8 
				864.8,828.8 834.4,959 			"/>
			<polygon class="st2" points="551.3,893.9 536,959 601.2,959 586,1024.2 455.7,1024.2 501.4,828.8 631.7,828.8 616.4,893.9 			"/>
			<polygon class="st2" points="717.5,828.8 671.8,1024.2 606.7,1024.2 652.4,828.8 			"/>
		</g>
		<g>
			<polygon class="st2" points="45.8,1362.7 30.5,1427.8 -34.6,1427.8 -49.8,1492.9 80.4,1492.9 126.2,1297.5 -4.1,1297.5 
				-19.4,1362.7 			"/>
			<polygon class="st2" points="311.9,1297.5 296.6,1362.7 246.7,1362.7 216.2,1492.9 101.2,1492.9 116.4,1427.8 166.3,1427.8 
				196.8,1297.5 			"/>
			<polygon class="st2" points="715.5,1427.8 700.3,1492.9 523.8,1492.9 539,1427.8 600.5,1427.8 615.7,1362.7 554.2,1362.7 
				569.5,1297.5 696.1,1297.5 665.6,1427.8 			"/>
			<polygon class="st2" points="382.5,1362.7 367.3,1427.8 432.4,1427.8 417.2,1492.9 286.9,1492.9 332.6,1297.5 462.9,1297.5 
				447.6,1362.7 			"/>
			<polygon class="st2" points="548.7,1297.5 503,1492.9 437.9,1492.9 483.6,1297.5 			"/>
		</g>
		<g>
			<polygon class="st2" points="155.7,1751.6 140.5,1816.8 90.6,1816.8 60.1,1947 -54.9,1947 -39.7,1881.9 10.2,1881.9 40.7,1751.6 
							"/>
			<polygon class="st2" points="559.4,1881.9 544.1,1947 367.7,1947 382.9,1881.9 444.3,1881.9 459.6,1816.8 398.1,1816.8 
				413.4,1751.6 540,1751.6 509.5,1881.9 			"/>
			<polygon class="st2" points="226.4,1816.8 211.2,1881.9 276.3,1881.9 261.1,1947 130.8,1947 176.5,1751.6 306.8,1751.6 
				291.5,1816.8 			"/>
			<polygon class="st2" points="392.6,1751.6 346.9,1947 281.8,1947 327.5,1751.6 			"/>
		</g>
		<g>
			<polygon class="st2" points="4.7,2205.8 -10.5,2270.9 -60.4,2270.9 -90.9,2401.2 -206,2401.2 -190.7,2336 -140.8,2336 
				-110.4,2205.8 			"/>
			<polygon class="st2" points="408.3,2336 393.1,2401.2 216.6,2401.2 231.9,2336 293.3,2336 308.5,2270.9 247.1,2270.9 
				262.3,2205.7 388.9,2205.7 358.4,2336 			"/>
			<polygon class="st2" points="75.3,2270.9 60.1,2336 125.2,2336 110,2401.2 -20.3,2401.2 25.4,2205.7 155.7,2205.7 140.5,2270.9 
							"/>
			<polygon class="st2" points="241.6,2205.7 195.9,2401.2 130.7,2401.2 176.4,2205.7 			"/>
		</g>
		<g>
			<polygon class="st2" points="246.7,2790.1 231.5,2855.3 55,2855.3 70.3,2790.1 131.7,2790.1 146.9,2725 85.5,2725 100.7,2659.9 
				227.3,2659.9 196.9,2790.1 			"/>
			<polygon class="st2" points="80,2659.9 34.3,2855.3 -30.8,2855.3 14.9,2659.9 			"/>
		</g>
		<g>
			<polygon class="st2" points="101.2,3236.4 85.9,3301.6 -90.5,3301.6 -75.3,3236.4 -13.9,3236.4 1.4,3171.3 -60.1,3171.3 
				-44.8,3106.1 81.7,3106.1 51.3,3236.4 			"/>
		</g>
		<g>
			<polygon class="st2" points="1312.7,185.2 1267,380.6 1136.7,380.6 1152,315.5 1217.1,315.5 1232.3,250.3 1167.2,250.3 
				1212.9,54.9 1278,54.9 1247.6,185.2 			"/>
			<polygon class="st2" points="1383.4,250.3 1368.1,315.5 1303,315.5 1287.7,380.6 1418,380.6 1463.8,185.2 1333.5,185.2 
				1318.2,250.3 			"/>
			<polygon class="st2" points="1649.4,185.2 1634.2,250.3 1584.3,250.3 1553.8,380.6 1438.8,380.6 1454,315.5 1503.9,315.5 
				1534.4,185.2 			"/>
			<polygon class="st2" points="1720.1,250.3 1704.8,315.5 1770,315.5 1754.8,380.6 1624.5,380.6 1670.2,185.2 1800.5,185.2 
				1785.2,250.3 			"/>
		</g>
		<g>
			<polygon class="st2" points="1141.1,-105.6 1186.8,-301 1317.1,-301 1301.8,-235.9 1236.7,-235.9 1221.5,-170.7 1286.6,-170.7 
				1240.9,24.7 1175.8,24.7 1206.2,-105.6 			"/>
		</g>
		<g>
			<polygon class="st2" points="118.4,87.5 164.1,-107.9 294.4,-107.9 279.2,-42.8 214.1,-42.8 198.8,22.3 264,22.3 218.3,217.8 
				153.1,217.8 183.6,87.5 			"/>
			<polygon class="st2" points="47.8,22.3 63,-42.8 128.2,-42.8 143.4,-107.9 13.1,-107.9 -32.6,87.5 97.7,87.5 112.9,22.3 			"/>
		</g>
		<g>
			<polygon class="st2" points="-22.3,525.4 23.4,329.9 153.6,329.9 138.4,395.1 73.3,395.1 58,460.2 123.2,460.2 77.5,655.6 
				12.3,655.6 42.8,525.4 			"/>
			<polygon class="st2" points="-93,460.2 -77.7,395.1 -12.6,395.1 2.6,329.9 -127.6,329.9 -173.4,525.4 -43.1,525.4 -27.9,460.2 
							"/>
		</g>
		<g>
			<polygon class="st2" points="984.5,348 1030.2,152.6 1160.5,152.6 1145.2,217.8 1080.1,217.8 1064.9,282.9 1130,282.9 
				1084.3,478.3 1019.2,478.3 1049.6,348 			"/>
			<polygon class="st2" points="913.8,282.9 929.1,217.8 994.2,217.8 1009.4,152.6 879.2,152.6 833.4,348 963.7,348 979,282.9 			
				"/>
			<polygon class="st2" points="647.8,348 663,282.9 712.9,282.9 743.4,152.6 858.4,152.6 843.2,217.8 793.3,217.8 762.8,348 			"/>
			<polygon class="st2" points="244.1,217.8 259.4,152.6 435.8,152.6 420.6,217.8 359.1,217.8 343.9,282.9 405.4,282.9 390.1,348 
				263.5,348 294,217.8 			"/>
			<polygon class="st2" points="577.1,282.9 592.3,217.8 527.2,217.8 542.4,152.6 672.7,152.6 627,348 496.7,348 512,282.9 			"/>
			<polygon class="st2" points="410.9,348 456.6,152.6 521.7,152.6 476,348 			"/>
		</g>
		<g>
			<polygon class="st2" points="839.1,794.6 884.8,599.2 1015.1,599.2 999.9,664.3 934.7,664.3 919.5,729.5 984.6,729.5 
				938.9,924.9 873.8,924.9 904.3,794.6 			"/>
			<polygon class="st2" points="768.5,729.5 783.7,664.3 848.8,664.3 864.1,599.2 733.8,599.2 688.1,794.6 818.3,794.6 833.6,729.5 
							"/>
			<polygon class="st2" points="502.4,794.6 517.6,729.5 567.5,729.5 598,599.2 713,599.2 697.8,664.3 647.9,664.3 617.4,794.6 			
				"/>
			<polygon class="st2" points="98.8,664.3 114,599.2 290.5,599.2 275.2,664.3 213.8,664.3 198.5,729.5 260,729.5 244.8,794.6 
				118.2,794.6 148.6,664.3 			"/>
			<polygon class="st2" points="431.7,729.5 447,664.3 381.8,664.3 397.1,599.2 527.3,599.2 481.6,794.6 351.4,794.6 366.6,729.5 
							"/>
			<polygon class="st2" points="265.5,794.6 311.2,599.2 376.3,599.2 330.6,794.6 			"/>
		</g>
		<g>
			<polygon class="st2" points="671.3,1265.4 717,1070 847.3,1070 832.1,1135.2 766.9,1135.2 751.7,1200.3 816.8,1200.3 
				771.1,1395.7 706,1395.7 736.5,1265.4 			"/>
			<polygon class="st2" points="600.7,1200.3 615.9,1135.2 681.1,1135.2 696.3,1070 566,1070 520.3,1265.4 650.6,1265.4 
				665.8,1200.3 			"/>
			<polygon class="st2" points="334.6,1265.4 349.8,1200.3 399.7,1200.3 430.2,1070 545.3,1070 530,1135.2 480.1,1135.2 
				449.6,1265.4 			"/>
			<polygon class="st2" points="-69,1135.2 -53.8,1070 122.7,1070 107.4,1135.2 46,1135.2 30.8,1200.3 92.2,1200.3 77,1265.4 
				-49.6,1265.4 -19.1,1135.2 			"/>
			<polygon class="st2" points="264,1200.3 279.2,1135.2 214.1,1135.2 229.3,1070 359.6,1070 313.9,1265.4 183.6,1265.4 
				198.8,1200.3 			"/>
			<polygon class="st2" points="97.7,1265.4 143.4,1070 208.6,1070 162.9,1265.4 			"/>
		</g>
		<g>
			<polygon class="st2" points="505.7,1720.2 551.4,1524.8 681.7,1524.8 666.5,1589.9 601.3,1589.9 586.1,1655 651.2,1655 
				605.5,1850.4 540.4,1850.4 570.9,1720.2 			"/>
			<polygon class="st2" points="435.1,1655 450.3,1589.9 515.4,1589.9 530.7,1524.8 400.4,1524.8 354.7,1720.2 484.9,1720.2 
				500.2,1655 			"/>
			<polygon class="st2" points="169,1720.2 184.2,1655 234.1,1655 264.6,1524.8 379.6,1524.8 364.4,1589.9 314.5,1589.9 284,1720.2 
							"/>
			<polygon class="st2" points="98.3,1655 113.6,1589.9 48.4,1589.9 63.7,1524.8 193.9,1524.8 148.2,1720.2 18,1720.2 33.2,1655 			
				"/>
			<polygon class="st2" points="-67.9,1720.2 -22.2,1524.8 42.9,1524.8 -2.8,1720.2 			"/>
		</g>
		<g>
			<polygon class="st2" points="358.1,2172.8 403.8,1977.4 534.1,1977.4 518.9,2042.5 453.7,2042.5 438.5,2107.7 503.6,2107.7 
				457.9,2303.1 392.8,2303.1 423.3,2172.8 			"/>
			<polygon class="st2" points="287.5,2107.7 302.7,2042.5 367.9,2042.5 383.1,1977.4 252.8,1977.4 207.1,2172.8 337.4,2172.8 
				352.6,2107.7 			"/>
			<polygon class="st2" points="21.4,2172.8 36.6,2107.7 86.5,2107.7 117,1977.4 232,1977.4 216.8,2042.5 166.9,2042.5 
				136.4,2172.8 			"/>
			<polygon class="st2" points="-49.2,2107.7 -34,2042.5 -99.1,2042.5 -83.9,1977.4 46.4,1977.4 0.7,2172.8 -129.6,2172.8 
				-114.4,2107.7 			"/>
		</g>
		<g>
			<polygon class="st2" points="201.8,2625.4 247.5,2430 377.8,2430 362.6,2495.2 297.4,2495.2 282.2,2560.3 347.3,2560.3 
				301.6,2755.7 236.5,2755.7 267,2625.4 			"/>
			<polygon class="st2" points="131.1,2560.3 146.4,2495.2 211.5,2495.2 226.8,2430 96.5,2430 50.8,2625.4 181,2625.4 196.3,2560.3 
							"/>
			<polygon class="st2" points="-134.9,2625.4 -119.7,2560.3 -69.8,2560.3 -39.3,2430 75.7,2430 60.5,2495.2 10.6,2495.2 
				-19.9,2625.4 			"/>
		</g>
		<g>
			<polygon class="st2" points="48.2,3078.1 93.9,2882.7 224.1,2882.7 208.9,2947.8 143.8,2947.8 128.5,3012.9 193.7,3012.9 
				148,3208.4 82.8,3208.4 113.3,3078.1 			"/>
			<polygon class="st2" points="-22.5,3012.9 -7.3,2947.8 57.9,2947.8 73.1,2882.7 -57.2,2882.7 -102.9,3078.1 27.4,3078.1 
				42.6,3012.9 			"/>
		</g>
		<g>
			<polygon class="st2" points="1635,991.6 1650.2,926.5 1715.4,926.5 1730.6,861.3 1600.3,861.3 1554.6,1056.8 1684.9,1056.8 
				1700.1,991.6 			"/>
			<polygon class="st2" points="1368.9,1056.7 1384.1,991.6 1434,991.6 1464.5,861.3 1579.6,861.3 1564.3,926.5 1514.4,926.5 
				1483.9,1056.7 			"/>
			<polygon class="st2" points="965.3,926.5 980.5,861.3 1157,861.3 1141.7,926.5 1080.3,926.5 1065.1,991.6 1126.5,991.6 
				1111.3,1056.8 984.7,1056.8 1015.2,926.5 			"/>
			<polygon class="st2" points="1298.3,991.6 1313.5,926.5 1248.4,926.5 1263.6,861.3 1393.9,861.3 1348.2,1056.8 1217.9,1056.8 
				1233.1,991.6 			"/>
			<polygon class="st2" points="1132,1056.8 1177.7,861.3 1242.9,861.3 1197.2,1056.8 			"/>
		</g>
		<g>
			<polygon class="st2" points="1537.7,1513.5 1583.4,1318.1 1713.7,1318.1 1698.4,1383.3 1633.3,1383.3 1618,1448.4 1683.2,1448.4 
				1637.5,1643.8 1572.3,1643.8 1602.8,1513.5 			"/>
			<polygon class="st2" points="1467,1448.4 1482.3,1383.3 1547.4,1383.3 1562.6,1318.1 1432.4,1318.1 1386.6,1513.5 1516.9,1513.5 
				1532.1,1448.4 			"/>
			<polygon class="st2" points="1200.9,1513.5 1216.2,1448.4 1266.1,1448.4 1296.5,1318.1 1411.6,1318.1 1396.4,1383.3 
				1346.5,1383.3 1316,1513.5 			"/>
			<polygon class="st2" points="797.3,1383.3 812.5,1318.1 989,1318.1 973.8,1383.3 912.3,1383.3 897.1,1448.4 958.5,1448.4 
				943.3,1513.5 816.7,1513.5 847.2,1383.3 			"/>
			<polygon class="st2" points="1130.3,1448.4 1145.5,1383.3 1080.4,1383.3 1095.6,1318.1 1225.9,1318.1 1180.2,1513.5 
				1049.9,1513.5 1065.2,1448.4 			"/>
			<polygon class="st2" points="964.1,1513.5 1009.8,1318.1 1074.9,1318.1 1029.2,1513.5 			"/>
		</g>
		<g>
			<polygon class="st2" points="1513.5,2094 1528.8,2028.9 1705.2,2028.9 1690,2094 1628.6,2094 1613.3,2159.2 1674.8,2159.2 
				1659.5,2224.3 1533,2224.3 1563.4,2094 			"/>
		</g>
		<g>
			<polygon class="st2" points="1360.7,2546.5 1375.9,2481.4 1552.4,2481.4 1537.1,2546.5 1475.7,2546.5 1460.5,2611.7 
				1521.9,2611.7 1506.7,2676.8 1380.1,2676.8 1410.6,2546.5 			"/>
			<polygon class="st2" points="1693.7,2611.7 1708.9,2546.5 1643.8,2546.5 1659,2481.4 1789.3,2481.4 1743.6,2676.8 1613.3,2676.8 
				1628.5,2611.7 			"/>
			<polygon class="st2" points="1527.4,2676.8 1573.1,2481.4 1638.3,2481.4 1592.6,2676.8 			"/>
		</g>
		<g>
			<polygon class="st2" points="1607.2,3138.7 1622.5,3073.6 1672.4,3073.6 1702.8,2943.3 1817.9,2943.3 1802.6,3008.4 
				1752.7,3008.4 1722.3,3138.7 			"/>
			<polygon class="st2" points="1203.6,3008.4 1218.8,2943.3 1395.3,2943.3 1380.1,3008.4 1318.6,3008.4 1303.4,3073.6 
				1364.8,3073.6 1349.6,3138.7 1223,3138.7 1253.5,3008.4 			"/>
			<polygon class="st2" points="1536.6,3073.6 1551.8,3008.4 1486.7,3008.4 1501.9,2943.3 1632.2,2943.3 1586.5,3138.7 
				1456.2,3138.7 1471.5,3073.6 			"/>
			<polygon class="st2" points="1370.3,3138.7 1416,2943.3 1481.2,2943.3 1435.5,3138.7 			"/>
		</g>
		<g>
			<polygon class="st2" points="1377.1,1966.8 1422.8,1771.4 1553.1,1771.4 1537.9,1836.5 1472.7,1836.5 1457.5,1901.6 
				1522.6,1901.6 1476.9,2097 1411.8,2097 1442.3,1966.8 			"/>
			<polygon class="st2" points="1306.5,1901.6 1321.7,1836.5 1386.8,1836.5 1402.1,1771.4 1271.8,1771.4 1226.1,1966.8 
				1356.3,1966.8 1371.6,1901.6 			"/>
			<polygon class="st2" points="1040.4,1966.8 1055.6,1901.6 1105.5,1901.6 1136,1771.4 1251,1771.4 1235.8,1836.5 1185.9,1836.5 
				1155.4,1966.8 			"/>
			<polygon class="st2" points="636.8,1836.5 652,1771.4 828.5,1771.4 813.2,1836.5 751.8,1836.5 736.5,1901.6 798,1901.6 
				782.8,1966.8 656.2,1966.8 686.6,1836.5 			"/>
			<polygon class="st2" points="969.7,1901.6 985,1836.5 919.8,1836.5 935.1,1771.4 1065.3,1771.4 1019.6,1966.8 889.4,1966.8 
				904.6,1901.6 			"/>
			<polygon class="st2" points="803.5,1966.8 849.2,1771.4 914.3,1771.4 868.6,1966.8 			"/>
		</g>
		<g>
			<polygon class="st2" points="1226.9,2419.7 1272.6,2224.3 1402.9,2224.3 1387.6,2289.4 1322.5,2289.4 1307.3,2354.6 
				1372.4,2354.6 1326.7,2550 1261.6,2550 1292,2419.7 			"/>
			<polygon class="st2" points="1156.2,2354.6 1171.5,2289.4 1236.6,2289.4 1251.8,2224.3 1121.6,2224.3 1075.8,2419.7 
				1206.1,2419.7 1221.4,2354.6 			"/>
			<polygon class="st2" points="890.1,2419.7 905.4,2354.6 955.3,2354.6 985.8,2224.3 1100.8,2224.3 1085.6,2289.4 1035.7,2289.4 
				1005.2,2419.7 			"/>
			<polygon class="st2" points="486.5,2289.4 501.7,2224.3 678.2,2224.3 663,2289.4 601.5,2289.4 586.3,2354.6 647.8,2354.6 
				632.5,2419.7 505.9,2419.7 536.4,2289.4 			"/>
			<polygon class="st2" points="819.5,2354.6 834.7,2289.4 769.6,2289.4 784.8,2224.3 915.1,2224.3 869.4,2419.7 739.1,2419.7 
				754.4,2354.6 			"/>
			<polygon class="st2" points="653.3,2419.7 699,2224.3 764.1,2224.3 718.4,2419.7 			"/>
		</g>
		<g>
			<polygon class="st2" points="1070.6,2872.7 1116.3,2677.3 1246.6,2677.3 1231.4,2742.4 1166.2,2742.4 1151,2807.5 1216.1,2807.5 
				1170.4,3003 1105.3,3003 1135.8,2872.7 			"/>
			<polygon class="st2" points="1000,2807.5 1015.2,2742.4 1080.3,2742.4 1095.6,2677.3 965.3,2677.3 919.6,2872.7 1049.8,2872.7 
				1065.1,2807.5 			"/>
			<polygon class="st2" points="733.9,2872.7 749.1,2807.5 799,2807.5 829.5,2677.3 944.5,2677.3 929.3,2742.4 879.4,2742.4 
				848.9,2872.7 			"/>
			<polygon class="st2" points="330.2,2742.4 345.5,2677.3 522,2677.3 506.7,2742.4 445.3,2742.4 430,2807.5 491.5,2807.5 
				476.3,2872.7 349.7,2872.7 380.1,2742.4 			"/>
			<polygon class="st2" points="663.2,2807.5 678.5,2742.4 613.3,2742.4 628.6,2677.3 758.8,2677.3 713.1,2872.7 582.9,2872.7 
				598.1,2807.5 			"/>
			<polygon class="st2" points="497,2872.7 542.7,2677.3 607.8,2677.3 562.1,2872.7 			"/>
		</g>
		<g>
			<polygon class="st2" points="910.6,3334.1 956.3,3138.7 1086.6,3138.7 1071.4,3203.8 1006.2,3203.8 991,3269 1056.1,3269 
				1010.4,3464.4 945.3,3464.4 975.8,3334.1 			"/>
			<polygon class="st2" points="840,3269 855.2,3203.8 920.3,3203.8 935.6,3138.7 805.3,3138.7 759.6,3334.1 889.9,3334.1 
				905.1,3269 			"/>
			<polygon class="st2" points="573.9,3334.1 589.1,3269 639,3269 669.5,3138.7 784.5,3138.7 769.3,3203.8 719.4,3203.8 
				688.9,3334.1 			"/>
			<polygon class="st2" points="170.3,3203.8 185.5,3138.7 362,3138.7 346.7,3203.8 285.3,3203.8 270.1,3269 331.5,3269 
				316.3,3334.1 189.7,3334.1 220.2,3203.8 			"/>
			<polygon class="st2" points="503.3,3269 518.5,3203.8 453.3,3203.8 468.6,3138.7 598.9,3138.7 553.2,3334.1 422.9,3334.1 
				438.1,3269 			"/>
			<polygon class="st2" points="337,3334.1 382.7,3138.7 447.8,3138.7 402.1,3334.1 			"/>
		</g>
		<g>
			<polygon class="st2" points="1513.5,604.4 1528.8,539.3 1578.7,539.3 1609.1,409 1724.2,409 1709,474.1 1659,474.1 1628.6,604.4 
							"/>
			<polygon class="st2" points="1109.9,474.1 1125.1,409 1301.6,409 1286.4,474.1 1224.9,474.1 1209.7,539.3 1271.1,539.3 
				1255.9,604.4 1129.3,604.4 1159.8,474.1 			"/>
			<polygon class="st2" points="1442.9,539.3 1458.1,474.1 1393,474.1 1408.2,409 1538.5,409 1492.8,604.4 1362.5,604.4 
				1377.8,539.3 			"/>
			<polygon class="st2" points="1276.6,604.4 1322.3,409 1387.5,409 1341.8,604.4 			"/>
		</g>
		<g>
			<polygon class="st2" points="1264.2,22.3 1279.4,-42.8 1455.9,-42.8 1440.6,22.3 1379.2,22.3 1364,87.5 1425.4,87.5 
				1410.2,152.6 1283.6,152.6 1314.1,22.3 			"/>
			<polygon class="st2" points="1597.2,87.5 1612.4,22.3 1547.3,22.3 1562.5,-42.8 1692.8,-42.8 1647.1,152.6 1516.8,152.6 
				1532,87.5 			"/>
			<polygon class="st2" points="1430.9,152.6 1476.6,-42.8 1541.7,-42.8 1496,152.6 			"/>
		</g>
	</g>
</g>
<g id="Layer_2">
</g>
<g id="Layer_3">
</g>
</svg>
