<?xml version="1.0" encoding="utf-8"?>
<!-- Generator: Adobe Illustrator 26.1.0, SVG Export Plug-In . SVG Version: 6.00 Build 0)  -->
<svg version="1.1" id="Layer_1" xmlns="http://www.w3.org/2000/svg" xmlns:xlink="http://www.w3.org/1999/xlink" x="0px" y="0px"
	 viewBox="0 0 999.2 105.8" enable-background="new 0 0 999.2 105.8" xml:space="preserve">
<path d="M366.6,51.2c-0.9-1.3-1.9-2.5-2.6-3.9c-1.1-2.4-3.3-3.7-5.1-5.4c-1-1-2.4-1.5-3.6-2.3c-3.3-2-6.9-2.9-10.7-3
	c-2,0-4,0.3-5.9,0.6c-1.7,0.3-3.4,0.8-5.1,1.3c-0.9,0.3-1.7,1-2.7,0c-0.1,0.3-0.2,0.5-0.1,0.5c0.7,0.8,1.3,1.7,2,2.3
	c2.9,2.5,5.9,4.9,8.8,7.4c3.4,2.9,6.7,5.9,10,8.8c1.8,1.5,3.4,3.2,5.3,4.5c2.6,1.9,5.1,3.9,7.4,6.2c0.3,0.3,0.6,0.4,1,0.7
	c0.1,0,0.3,0,0.4,0c-0.5-1,0.3-1.4,0.6-2.1c1.1-2.1,2-4.2,2-6.6c0-0.8,0.1-1.5,0.1-2.3C368.4,55.7,368.1,53.3,366.6,51.2z
	 M347.8,52.8c-2.3-2-4.2-3.9-6.3-5.7c-2-1.7-4.2-3.3-6.5-5.1c2-0.7,3.9-1.3,5.8-2c1,1.9,2.1,3.6,3,5.4c0.9,1.7,1.7,3.5,2.9,5
	c0.1,0.2,0.3,0.3,0.5,0.5c-0.3-0.7-0.5-1.3-0.9-1.9c-0.2-0.3-0.5-0.6-0.7-0.9c-1-2.8-2.7-5.3-4.1-8.2c2.1-0.4,4-0.4,6-0.1
	c0.3,4.2,0.6,8.3,0.9,12.6c-0.5-0.5-0.8-0.9-1.2-1.2C347.5,51.7,347.6,52.1,347.8,52.8z M349.2,52.5c-0.2-4-0.5-8-0.7-12.1
	c1.1,0,1.9,0.5,2.7,0.8c0.2,0.1,0.4,0.2,0.6,0.3c1.6,0.8,1.6,0.9,0.9,2.5c-0.3,0.6-0.5,1.2-0.9,1.8c-0.3,0.5-0.7,1-0.4,1.7
	c0.1,0.2,0,0.4,0,0.6c-0.5,1.5-1.1,3-1.7,4.5C349.5,52.6,349.3,52.6,349.2,52.5z M352.3,47.2c0.5-1.4,1.3-2.8,1.8-4.4
	c1.1,0.9,2.1,1.8,3.3,2.8c-2,2.2-4.2,4-6.5,6.3C351.4,50.2,351.7,48.7,352.3,47.2z M358.1,46.3c0.7,0.8,1.3,1.5,2,2.2
	c-2.4,1.8-5.3,2.3-8.2,3.5C354.1,50.1,355.7,47.9,358.1,46.3z M353.7,52.3c2.1-0.6,4.1-1.2,5.9-2.5c0.3-0.2,0.7-0.3,1.1-0.4
	c1.2,1.3,2.2,2.6,2.7,4.6c-2.1,0-4.1,0-6,0h-6C352.1,53.1,352.8,52.6,353.7,52.3z M364.1,55.3c0.6,1.5,0.8,3,0.5,4.5
	c-3.2-0.8-7.8-2.8-10.9-4.8c1.3-0.1,2.4-0.2,3.4-0.2c2.1-0.1,4.1-0.1,6.2-0.1C363.6,54.7,364,55,364.1,55.3z M361.8,64.5
	c-1.7-2-4.1-3.1-6.1-4.7c-1.4-1.1-2.8-2.3-4.2-3.5c1-0.2,2.5,0.1,3.8,0.7c2.8,1.3,5.5,2.7,8.5,3.7c0.3,0.1,0.6,0.3,0.8,0.4
	c0.2,2.2-0.1,3.4-1.6,4.8C362.5,65.5,362.2,65,361.8,64.5z M366.9,63.3c-0.4,1.5-0.8,3.1-2.1,4.3c-0.3-0.3-0.5-0.5-0.7-0.7
	c0.5-1.2,1.1-2.2,1.3-3.3c0.9-4.8,0.3-9.3-2.8-13.2c-1.3-1.7-2.7-3.4-4-5.2c-0.1-0.1-0.3-0.2-0.4-0.3c-0.6-0.5-1.3-0.9-1.9-1.4
	c-2.4-2-5.1-3.4-8.1-4.3c-2.3-0.7-4.5-0.3-6.8,0c-1.5,0.2-2.9,0.8-4.4,1.2c-0.6,0.2-1.3,0.4-1.9,0.5c-0.9,0.2-1.2,0.3-2-0.7
	c0.4-0.2,0.7-0.6,1.1-0.7c1.3-0.4,2.7-0.8,4.1-1.2c0.2-0.1,0.5-0.1,0.7-0.2c3.8-1,7.6-0.8,11.3,0.3c1.9,0.6,3.7,1.6,5.5,2.7
	c1.7,1,3.2,2.3,4.7,3.6c0.8,0.6,1.4,1.4,2,2.2c1.1,1.6,2.1,3.2,3.2,4.8c0.7,1,1.1,2,1.3,3.1C367.6,57.6,367.6,60.5,366.9,63.3z"/>
<g>
	<path d="M818.8,58.4c-0.1-1.4-0.5-2.7-0.5-4.1c0-2.4-0.6-4.6-1.9-6.6c-0.2-0.2-0.3-0.5-0.4-0.8c-1.2-2.7-3-4.9-5.1-7
		c-0.7-0.7-1.5-1.1-2.3-1.7c-0.9-0.6-1.9-1.1-2.8-1.7c-3.5-2.3-7.2-4-11.6-3.3c-1.2,0.2-2.6,0.1-3.8,0.5c-2.9,0.9-5.7,1.9-8.5,2.9
		c-0.4,0.2-0.9,0.3-0.9,1.1c1.2-0.4,2.3-0.7,3.4-1.1c3.1-1.2,6.3-2.4,9.7-2.6c0.8,0,1.4,0.4,2.2,0.2c0.8-0.2,1.7-0.1,2.5-0.1
		c0.2,0,0.4,0.1,0.5,0.2c1.2,0.5,2.4,0.9,3.5,1.5c1.5,0.8,2.9,1.9,4.5,2.7c1.9,1,3.3,2.5,4.8,4c2,2.2,3.1,4.9,4.5,7.4
		c0.2,0.4,0.4,0.9,0.5,1.3c0.3,3.4,1.1,6.7,0.5,10.2c-0.4,2.3-0.9,4.5-1.8,6.6c-0.6,1.4-1.5,2.5-2.5,3.4c-0.7-0.5-0.3-0.7-0.1-1
		c0.4-0.5,1-1,1.2-1.5c0.8-2.2,1.6-4.5,2-6.8c0.5-2.6,0.5-5.2-0.2-7.8c-0.4-1.7-0.8-3.4-1.4-5.1s-1.5-3.2-2.4-4.6
		c-0.9-1.3-2.1-2.3-3.2-3.4c-0.3-0.3-0.7-0.5-1-0.8c-1.5-1.5-3.5-2.4-5.4-3.2c-1.7-0.7-3.4-1.5-5.2-1.7c-1.9-0.2-3.7,0.1-5.6,0.1
		c-0.3,0-0.6,0.2-1,0.3c-1,0.2-2,0.8-3.1,0.3c0,0.8-0.5,0.9-1.1,1.1c-0.8,0.2-1.7,0.6-2.7,0.9c-0.8,0-2-0.4-3.2-0.4
		c0.3,0.5,0.7,1.5,1,1.6c1.2,0.6,1.8,1.7,2.6,2.6c2.4,2.8,4.8,5.5,7.2,8.3c1.7,1.9,3.5,3.8,5.4,5.7c1,1,2.2,1.9,3.2,3
		c1.5,1.5,2.7,3.3,4.2,4.7c1.2,1.2,1.9,2.8,3.5,3.7c1.3,0.8,2.2,2.3,3.3,3.5c0.5,0.5,0.8,1.1,1.3,1.7c0.3,0.3,0.7,0.3,1-0.1
		c2-2.2,3.2-4.8,3.9-7.6C818.3,62.7,819.1,60.6,818.8,58.4z M816,61.1c-0.7-0.2-1.2-0.2-1.7-0.4c-2.1-1-4.3-1.4-6.6-1.7
		c-0.2,0-0.5,0-0.7-0.1c-1.3-0.6-2.7-1.2-4.4-1.9c0.7-0.3,1-0.6,1.4-0.6c2-0.2,4-0.3,5.9-0.5c1.8-0.2,3.7,0,5.5-1.2
		C816.2,56.6,815.8,58.7,816,61.1z M795.6,51.7c-1.7-1.9-3.4-3.8-5.2-5.7c-0.9-1-1.9-2-3-2.8c-0.8-0.6-1.4-1.2-2-2
		c-0.5-0.6-1-1.2-1.7-1.9c1.7-0.6,3.1-1.1,4.7-1.6c2.5,4.6,4.9,9.2,7.4,13.8C795.8,51.6,795.7,51.7,795.6,51.7z M792.8,44.6
		c-1.4-2.2-2.3-4.6-3.5-7.1c2.1-0.7,4-1.2,6.1-0.9c0.2,1.1,0.4,2.3,0.5,3.5c0.1,1.3,0,2.5,0.1,3.8c0.1,0.8,0.3,1.7,0.4,2.5
		c0.2,1.6,0.3,3.2,0.3,4.8C794.9,49.3,794.2,46.8,792.8,44.6z M798.1,54.3c-0.3-1-0.6-1.9-0.8-2.9c-0.1-0.6,0-1.3-0.1-1.9
		c-0.2-1.5-0.4-2.9-0.6-4.4c-0.1-0.4,0-0.9-0.1-1.4c-0.1-0.9-0.1-1.9-0.2-2.8c-0.1-1.4-0.3-2.8-0.4-4.3c2.5-0.4,4.5,0.7,6.8,1.4
		c-1.5,5.5-3,10.9-4.4,16.2C798.3,54.3,798.2,54.3,798.1,54.3z M799.8,56c-1-0.6-0.6-1.3-0.4-1.9c0.7-3,1.4-6.1,2.2-9.1
		c0.5-1.7,1.1-3.3,1.2-5.1c0-0.5,0.3-0.9,0.6-1.5c1.7,0.8,3.3,1.5,4.5,2.8c-1.3,2.4-2.8,4.6-3.9,7c-1,2.2-2,4.3-3.2,6.3
		C800.5,55.1,800.2,55.6,799.8,56z M802.5,52.9c0.8-1.1,1.5-2.2,1.8-3.5c0.3-1.4,1.2-2.5,1.8-3.7c0.8-1.3,1.5-2.7,2.3-4.1
		c0,0,0.1,0,0.1,0c2.7,2.5,5.2,5.1,6,8.9c0.1,0.7,0.4,1.4,0.7,2c0.3,1.1,0.1,1.7-1.1,2c-0.7,0.2-1.4,0.3-2.1,0.3
		c-3.2-0.1-6.4,0-9.7,1c0.5-1.2,1.5-1.6,2.2-2.3c0.5-0.5,1.2-0.8,1.9-1.3c0.7-0.5,1.3-1.1,2-1.6c1.3-0.9,2.6-1.7,3.9-2.5
		c0.2-0.1,0.4-0.2,0.6-0.3c0-0.2-0.1-0.3-0.1-0.5c-0.5,0.2-1,0.2-1.4,0.5c-0.9,0.6-1.9,1.1-2.7,1.8c-2.3,2-5.2,3.2-7,5.7
		c0,0.1-0.2,0.1-0.5,0.2C801.6,54.6,801.9,53.7,802.5,52.9z M801.3,57.6c0.5,0,0.7-0.1,0.9,0c1.4,0.6,2.7,1.2,4.1,1.7
		c1.1,0.4,2.3,0.7,3.5,0.9c1.4,0.2,2.7,0.7,4.1,1.3c0.5,0.2,1,0.3,1.8,0.6c-0.5,1.7-1,3.4-1.5,5.2c-2.2-1.1-4.3-2.1-6-3.6
		c-1.1-1-2.4-1.8-3.5-2.8c-0.8-0.7-1.5-1.4-2.3-2.1C802,58.5,801.8,58.1,801.3,57.6z M812.2,70.2c-2.7-2.9-5.2-5.7-7.7-8.4
		c0.1-0.1,0.1-0.1,0.2-0.2c2.9,2.3,5.6,4.8,9,6.7C813.3,68.8,812.8,69.5,812.2,70.2z"/>
</g>
<g>
	<path d="M457.2,53c-0.2-1.9-0.3-3.8-0.5-5.7c-0.1-1-0.4-2.1-0.8-3c-0.4-0.9-1.1-1.6-1.5-2.4c-1.1-2.2-2.9-3.8-4.8-5.2
		c-3-2.2-6.4-3-10.1-2.9c-0.7,0-1.5,0.1-2,0.5c-2.1,1.2-4.5,1.8-6.8,2.4c-0.7,0.2-1.5,0.4-2.1,0.8c-3,2-5.4,4.6-6.1,8.4
		c-0.6,3.1-0.4,6.1,0.8,9.1c0.4,1,0.7,2.2,1,3.2c0.5,1.8,1,3.7,1.6,5.5c0.6,1.7,2.2,2.5,3.5,3.6c1.8,1.6,4.1,2.3,6.2,3.4
		c1.7,0.8,3.4,1.1,5.2,1.3c2.5,0.3,4.8,0.1,7.2-1.1c2.9-1.5,5.3-3.4,7-6c0.5-0.8,0.7-1.7,1-2.6c0.2-0.8,0.2-1.6,0.4-2.4
		C456.7,57.5,457.4,55.3,457.2,53z M455.9,56.3c-0.2,1.7-0.6,3.5-0.9,5.2c-0.3,1.9-1.1,3.6-2.7,4.9c-1.2,0.9-2.2,1.9-3.4,2.8
		c-0.6,0.4-1.3,0.7-2,1c-2.8,0.8-5.6,1-8.4,0.6c-1.3-0.2-2.4-0.8-3.5-1.6c-1.4-1-2.9-1.8-4.3-2.7c-0.3-0.2-0.6-0.4-0.9-0.7
		c-1.9-1.9-3.4-4-4-6.8c-0.4-1.8-1-3.5-1.7-5.1c-1-2.2-1-4.4-0.7-6.7c0.2-1,0.2-2,0.6-2.9c1.2-2.7,2.8-5.1,5.8-6.2
		c0.5-0.2,1-0.3,1.5-0.3c1.5-0.1,2.7-0.8,4-1.4c0.3-0.2,0.7-0.3,1-0.5c1.6-0.9,3.3-1.2,5.1-0.7c1,0.2,2.1,0.2,3.2,0.4
		c3.8,0.7,6.5,3.1,8.5,6.1c2.2,3.3,3.2,7,3.1,11C456.1,53.8,456,55.1,455.9,56.3z"/>
	<path d="M449.8,59c-1.1-0.4-2.1-0.8-3.2-1.1c-1.5-0.3-3-0.2-4.5-0.6c-1.8-0.5-3.6-0.9-5.5-0.8c-2.1,0.1-4.2-0.2-6.2,0.6
		c-0.8,0.3-1.7,0.6-2.2,1.4c0.3,0.3,0.7,0.6,0.8,0.9c0.9,2.8,2.8,4.7,5.3,6c2,1,4.2,1.7,6.5,2c3,0.4,5.7-0.7,8.2-2.3
		c0.3-0.2,0.5-0.4,0.7-0.7c0.7-1.2,1.2-2.4,1.2-3.9C450.8,59.7,450.5,59.2,449.8,59z M444.3,58.7c1,0.6,1.9,1.1,2.2,2.2
		C444.8,61.2,444,60.5,444.3,58.7z M436.3,57.5c1.4,0.7,2,1.9,2.3,3.5C436.6,60.8,435.6,59.3,436.3,57.5z M449.7,61.5
		c-0.7,1.8-1.8,3.2-3.7,3.9c-1.9,0.7-3.8,1.2-5.8,0.6c-1.9-0.5-3.7-1.1-5.6-1.6c-1.6-0.5-2.6-1.7-3.5-3c-0.5-0.8-0.9-1.7-1.3-2.6
		c1.6-1.2,3.3-1.4,5.3-1.3c-0.2,1.6-0.1,3.1,1.5,4c0.7,0.4,1.5,0.6,3,0.4v-2.1c0.4,0.2,0.8,0.4,1.1,0.5c1.2,0.5,1.4,0.3,1.3-1
		c0.3-0.1,0.7-0.2,1-0.3c0.1,0.2,0.2,0.3,0.2,0.4c0.1,1.1,0.6,2,1.6,2.6c1.2,0.8,2,0.6,2.8-0.8c-0.2-0.5-0.5-0.9-0.9-1.7
		c0.9,0.3,1.7,0.4,2.3,0.7C449.9,60.3,450,60.7,449.7,61.5z"/>
	<path d="M453,48.3c-0.4-2.6-1.7-4.9-3.4-7c-2.1-2.5-5.8-2.8-8.6-2c-0.2,0-0.4,0.2-0.4,0.4c-0.1,1.2-0.3,2.4-0.2,3.6
		c0.1,1.1,0.6,2.1,1,3.1c0.8,2.1,1.8,4,3.4,5.6c1.5,1.5,3,2.8,4.5,4.2c0.6-0.3,0.9-0.6,1.1-0.5c1.1,0.2,1.6-0.5,2.1-1.3
		C453.5,52.3,453.2,50.2,453,48.3z M443.7,48c-0.1-0.2-0.2-0.6-0.1-0.9c0-0.1,0.4-0.2,0.6-0.1c0.5,0.2,0.9,0.5,1.6,0.9
		c-0.6,0.2-1,0.5-1.4,0.5C444.1,48.4,443.8,48.2,443.7,48z M446.8,49.1c-0.5,0-0.8,0-1.1-0.1c-0.2,0-0.3-0.1-0.5-0.2
		C446,48.2,446,48.2,446.8,49.1z M451.9,53.1c-0.3,1.4-1.1,1.8-2.3,1.1c-1-0.5-2-1.2-2.8-1.9c-0.7-0.6-1.3-1.5-2.1-2.5h2.8
		c0.5-0.7,0.2-1.2-0.2-1.5c-0.9-0.7-1.8-1.3-2.7-1.9c-0.6-0.4-1.3-0.5-1.8,0.7c-0.3-0.9-0.5-1.4-0.7-2c0.9,0.2,1.8,0.3,2.6,0.5
		c0.1,0,0.2,0.1,0.3,0.1c1,0.1,2.2-0.6,2.2-1.2c0-0.6-1-1.7-1.9-1.7c-1.2-0.1-2.3-0.5-3.5,0.2c0-0.2-0.1-0.3-0.1-0.5
		c0.1-0.6,0-1.4,0.3-1.7c0.6-0.5,1.5-0.8,2.3-0.9c2.2-0.2,5.1,1.8,5.9,3.8c0.9,2.1,1.8,4.3,1.9,6.7C452,51.2,452.1,52.2,451.9,53.1z
		 M442.4,43.7c0.1-0.2,0.4-0.5,0.6-0.5c1.3,0,2.5,0.2,3.5,1.3c-1.1,0.8-3.2,0.6-3.9-0.2C442.4,44.2,442.3,43.8,442.4,43.7z"/>
	<path d="M434.9,38.2c-2.1-0.1-3.8,1-5.1,2.5c-1.4,1.7-2.6,3.5-3.2,5.7c-0.8,2.7-0.7,5.4,0.4,8.1c0.2,0.4,0.5,0.8,0.7,1.1
		c0.9-0.4,1.7-0.8,2.4-1.1c1.2-0.6,1.9-1.6,2.5-2.6c0.4-0.7,0.8-1.4,1.2-2.1c0.2-0.3,0.6-0.6,0.8-1c1.3-3,2.6-5.9,3.6-9.2
		C436.1,38.3,435.9,38.2,434.9,38.2z M431,49.2c-0.6-0.2-1.2-0.5-1.4-1.2c-0.2-0.7,0.3-1.2,1.2-1.1c0.1,0,0.3,0.1,0.4,0.1
		c0.5,0.2,1,0.3,1.4,0.5c0.1,0.6,0.2,1.1,0.3,1.6C432.3,49.8,431.6,49.4,431,49.2z M436.1,43c-0.2,0.7-0.4,1.3-0.6,2.1
		c-0.9-0.7-1.7-1.2-2.4-1.8c-0.2-0.1-0.3-0.2-0.5-0.3c-0.7-0.4-1.4-0.5-1.7,0c-0.4,0.6,0,1.1,0.3,1.5c0.9,1.1,2,1.6,3.5,2
		c-0.3,0.5-0.5,0.9-0.7,1.4c-0.9-0.5-1.6-1.1-2.5-1.5c-0.8-0.4-1.6-0.4-2.3,0.2c-0.6,0.5-0.7,1-0.3,1.6c0.4,0.8,0.9,1.4,1.9,1.7
		c0.4,0.1,0.8,0.3,1.4,0.4c-1,1.7-2.1,3-3.8,4.1c-1.4-2.6-2-5-0.5-7.6c0.7-1.2,1.1-2.5,1.7-3.8c0.8-1.7,1.9-3.1,3.8-3.5
		c1.2-0.3,2-0.2,3.2,0.5c0.2,0.7,0.2,1.4-0.2,2C436.2,42.4,436.2,42.7,436.1,43z M434.4,45.5c-1.4-0.2-2.4-0.8-2.8-2.2
		C432.9,43.6,433.8,44.4,434.4,45.5z"/>
</g>
<g>
	<path d="M908.8,62.2c-0.1-0.4-0.2-0.9-0.3-1.3c-1.1-4.4-3.2-8.5-5.1-12.7c-1.8-4-3.7-7.9-6.5-11.2c-3.6-4.4-5.7-4.6-9.8-0.8
		c-0.1,0.1-0.2,0.2-0.3,0.3c-3.9,4.1-6.6,9-9.2,13.9c-1.3,2.6-2.5,5.3-4,7.8c-1.3,2.2-2.1,4.5-2.5,7c-0.2,1.2,0,2.5,0.2,3.7
		c0.2,1.5,1,2.6,2.8,2.4c0.8-0.1,1.6,0,2.4,0.1c2.2,0.2,4.5,0.4,6.8,0.6c1.2,0.1,2.5,0.3,3.7,0.2c3-0.1,6-0.4,9-0.6
		c0,0.1,0,0.2,0,0.3c2.2-0.2,4.4-0.3,6.6-0.7C907.4,70.6,909.9,67,908.8,62.2z M904.6,68.1c-0.5,0.1-1,0.2-1.5,0.5
		c-1.9,1.2-4,1.9-6.3,1.7c-1.4-0.1-2.9-0.2-4.4-0.3c-0.3,0-0.6-0.2-0.8-0.1c-2.7,1.1-5.5,0.5-8.3,0.4c-2.4-0.1-4.8-0.1-7.3-0.1
		c-3.4-0.1-4.5-1.2-3.7-4.5c0.7-2.7,1.7-5.3,2.9-7.8c2.1-4.2,4.4-8.3,6.9-12.3c1.9-3,4.3-5.8,6.5-8.7c0.4-0.5,0.8-0.9,1.2-1.2
		c1.3-1.1,2-1,3.3,0c1.9,1.6,3.2,3.6,4.5,5.6c2.3,3.3,4.2,6.7,5.8,10.4c1.5,3.6,2.8,7.3,4,11C908.5,65.5,907.5,67.2,904.6,68.1z"/>
	<path d="M898.1,51.1c-0.5,2.2-2.8,4.4-5.4,4.8C894.7,54.2,896.4,52.7,898.1,51.1z"/>
	<path d="M884.9,53.1c0.4-2,0.9-4.1,1.4-6.3C887.3,49.8,886.6,52.3,884.9,53.1z"/>
	<path d="M886.2,63.2c-2.8,0.6-4.3-0.8-5.9-2.1C882,61.7,883.9,62.4,886.2,63.2z"/>
	<path d="M901.2,63.6c-1.2-0.4-1.3-0.6-2.9-4.2C900.3,60.4,900.3,62.4,901.2,63.6z"/>
</g>
<g>
	<path d="M547.8,39.8c-0.7-0.6-1.4-1.1-2.2-1.4c-4.5-2-9-3.9-13.9-4.8c-3.1-0.6-6.2-1.3-9.3-1.8c-3.3-0.5-6.4,0-9.4,1.5
		c-1.9,1-2.6,2.5-2.6,4.3c0,2.4,0.8,5.8,2.2,8.7c2.5,5.3,4.8,10.6,7.5,15.7c1.7,3.3,3.8,6.5,6,9.5c2.5,3.3,5.7,3.2,8.4,0.1
		c1.8-2.1,3.5-4.3,5.1-6.6c1.2-1.7,2.3-3.4,3.2-5.3c1.4-2.8,2.5-5.6,3.8-8.4c1.1-2.5,2.3-4.9,2.8-7.7C549.4,42,549,40.8,547.8,39.8z
		 M546.9,46.5c-3.4,7.2-7.5,14.2-11.3,21.2c-0.7,1.3-1.7,2.4-2.7,3.5c-2,2-3.7,2.1-5.5,0.1c-1.6-1.8-3.1-3.8-4.2-5.9
		c-2.7-5.4-5.3-10.8-7.8-16.3c-1.3-2.9-2.4-6-3.5-9c-0.3-0.8-0.3-1.7-0.3-2.6c0-1.6,0.9-2.6,2.4-3.1c1.9-0.7,3.7-1.4,5.8-1.3
		c2.2,0.3,4.5,0.4,6.7,0.9c5.9,1.2,11.7,2.8,17.3,5.2c0.1,0,0.2,0,0.2,0.1C548.4,41,549.1,41.9,546.9,46.5z"/>
	<path d="M534,63.5c-0.8,0.7-1.7,0.7-4.8,0C531.5,62.8,532.4,62.8,534,63.5z"/>
	<path d="M530.7,57.7c-1.5,0.2-3,0.4-4.5,0.5C527.6,57.3,529,56.4,530.7,57.7z"/>
	<path d="M542.8,47c-0.1,0.2-0.2,0.5-0.3,0.7c-0.7-0.4-1.4-0.7-2.1-1.1c0.1-0.1,0.1-0.3,0.2-0.4C541.3,46.4,542,46.7,542.8,47z"/>
	<path d="M534.6,45.9c-0.1,1.6-1,2.8-3.2,3.8C532.4,48.5,533.4,47.3,534.6,45.9z"/>
	<path d="M522.9,49c-0.2,0.1-0.3,0.3-0.5,0.4c-0.9-1.1-1.8-2.2-2.6-3.3c0.1-0.1,0.2-0.2,0.3-0.4C521.5,46.5,522.3,47.7,522.9,49z"/>
	<path d="M529.4,40.4c-0.2,0.1-0.4,0.1-0.6,0.2c-0.4-1.1-0.9-2.1-1.3-3.2C529.1,38,529.1,39.3,529.4,40.4z"/>
</g>
<g>
	<path d="M279.4,47.1C279.4,47.1,279.4,47.1,279.4,47.1c0.4,0.3,0.9,0.7,1.3,0.9C280.3,47.8,279.8,47.5,279.4,47.1z"/>
	<path d="M289.3,46.7c-0.1-0.2-0.1-0.4-0.1-0.6c0.1-0.4-0.1-0.6-0.4-0.8c-0.2-0.1-0.4-0.2-0.7-0.3c0-0.5,0.1-0.9,0.1-1.3
		c0-0.6,0.1-1.2,0-1.7c-0.2-0.9-0.5-1.7-0.8-2.6c-0.2-0.7-0.7-1.2-1.4-1.6c-0.6-0.4-1.2-0.8-1.8-1.3c-0.6-0.5-1.1-1.1-1.7-1.6
		c-0.9-0.8-1.9-1.4-2.3-2.5c-0.1-0.1-0.2-0.2-0.3-0.3c-0.8,0.2-1.2,0.9-1.9,1c-0.2,0-0.3,0.5-0.4,0.8c0,0.2,0.1,0.5,0.5,0.5
		c0.1,0,0.2,0.1,0.3,0.2c0.2,0.4,0.5,0.8,0.6,1.3c0.1,0.7,0.5,1.2,1.1,1.6c0.8,0.5,1.4,1.4,2,2.1c0.4,0.5,0.8,1.1,1.2,1.5
		c0.5,0.5,0.6,0.9,0.5,1.5c-0.4,0.3-0.9,0.3-1.3,0.2c-0.9-0.2-1.7-0.2-2.6,0.3c-0.2,0.1-0.5,0.3-0.7,0.5c-0.1,0.1-0.2,0.2-0.4,0.2
		c-0.6,0.1-0.7,0.6-0.9,1c-0.4,0.8-0.8,1.5-1.2,2.2c-0.2,0.4-0.5,0.8-0.8,1.2c-0.6,0.7-1.3,1.4-1.9,2c-1.2,1.2-2.4,2.5-3.6,3.6
		c-0.9,0.9-1.8,1.7-2.8,2.4c-1.1,0.8-2.3,1.5-3.5,2.2c-0.5,0.3-1,0.7-1.1,1.3c-0.9,0.6-1.7,1.4-2.6,1.9c-1.2,0.6-2.4,1.1-3.6,1.6
		c-0.6,0.3-1.2,0.5-1.9,0.8c-0.6,0.2-1.2,0.5-1.8,0.7c-1.6,0.4-3.1,0.9-4.7,1.3c-0.9,0.2-1.8,0.3-2.8,0.4c-0.7,0.1-1.4,0-2.1,0.1
		c-1,0-2-0.2-2.9,0c-0.1,0-0.1,0-0.2,0c-1.4-0.1-2.8-0.1-4.2-0.5c-0.8-0.2-1.5-0.4-2-1c-0.5-0.6-1.2-0.9-2-1.2
		c-0.6-0.3-1.2-0.4-1.9,0c-0.3,0.2-0.5,0.4-0.7,0.7c-0.2,0.5,0.1,1,0.1,1.5c0,0.8,0.6,1.4,1,1.9c0.6,0.7,1.5,1.2,2.2,1.9
		c0.7,0.7,1.4,1.2,2.3,1.5c1.2,0.4,2.5,0.8,3.8,1.2c0.3,0.1,0.5,0.2,0.7,0.3c0.5,0.3,0.9,0.5,1.5,0.5c0.3,0,0.7,0.1,1,0.1
		c1.5,0.1,2.9,0.2,4.4,0.3c0.6,0,1.2,0,1.7,0c0.4,0,0.8-0.1,1.2-0.1c0.9,0,1.7,0,2.6-0.1c1.3-0.1,2.7-0.1,4-0.2c0.7,0,1.4,0,2.1-0.2
		c1.7-0.4,3.4-1,5.2-1.3c2-0.4,3.8-1.4,5.5-2.3c1.6-0.8,3.1-1.8,4.6-2.8c1.3-0.8,2.4-1.9,3.5-3c1.2-1.2,2.5-2.3,3.8-3.3
		c1.1-0.8,2.1-1.8,2.9-2.9c1.4-1.9,2.7-4,4.1-5.9c0.7-1,1.1-2.1,1.5-3.2C289.6,47.9,289.5,47.3,289.3,46.7z M280,59.9
		c0,0-0.1,0-0.3,0c0.2-0.1,0.4-0.2,0.5-0.2c0,0,0,0,0.1,0.1C280.1,59.8,280.1,59.9,280,59.9z M285.7,51.6c-0.6,0.9-1.1,1.9-1.8,2.8
		c-0.6,0.7-0.9,1.5-1.7,2.1c-0.5,0.4-0.9,1-1.3,1.5c-0.2,0.2-0.4,0.5-0.6,0.7c-1.1,1.1-2.1,2.2-3.3,3.2c-0.9,0.7-1.8,1.4-2.7,2.1
		c-0.3,0.2-0.6,0.4-0.8,0.7c-0.8,0.7-1.8,1.3-2.8,1.8c-1.2,0.6-2.4,1.2-3.5,1.8c-0.4,0.2-0.8,0.4-1.2,0.6c-1.5,0.7-3,1.4-4.5,2.1
		c-0.1,0-0.2,0.1-0.3,0.1c-1.2,0.3-2.4,0.6-3.6,0.9c-0.7,0.1-1.4,0.2-2.1,0.2c-1.1,0.1-2.3,0.1-3.4,0.1c-1.5,0-2.9,0-4.3,0
		c-0.5,0-1-0.1-1.4-0.1c-1-0.1-2.1-0.2-3.1-0.2c-2.2-0.1-4.4-0.6-6.4-1.6c-0.2-0.1-0.5-0.2-0.8-0.3c-1.2-0.3-2-1-2.9-1.9
		c-0.5-0.5-1.1-1.1-1.7-1.6c-0.6-0.6-0.6-0.8-0.2-1.7c0.1,0,0.2,0,0.2,0c0.8,0.6,1.7,0.9,2.4,1.6c0.1,0.1,0.3,0.2,0.4,0.2
		c1.1,0.2,2.3,0.5,3.4,0.7c1.8,0.3,3.7,0.7,5.6,1c0.7,0.1,1.5,0.1,2.2-0.1c1.3-0.3,2.6-0.7,4-0.9c1.9-0.2,3.8-0.8,5.7-1.3
		c1.1-0.3,2.1-0.8,3.1-1.3c0.8-0.5,1.6-1.1,2.3-1.8c1.1-1,2.4-1.7,3.7-2.5c1.9-1.1,3.8-2.3,5.5-3.8c0.3-0.3,0.7-0.6,1-0.9
		c0.3-0.2,0.5-0.4,0.6-0.8c0-0.3,0.4-0.5,0.7-0.8c0.5-0.6,1-1.2,1.6-1.7c0.4-0.4,0.9-0.8,1.3-1.2c0.9-0.8,1.8-1.5,2.5-2.5
		c0.2-0.2,0.3-0.4,0.5-0.6c0.3,0,0.7,0,1,0.1c0.3,0.1,0.5,0.4,0.6,0.6c0.1,0.1,0.1,0.3,0.2,0.5c0.2,0.4,0.4,0.7,0.9,0.7
		c0.5,0.1,0.9,0.6,1.5,0.6c0.3,0,0.6,0.2,0.9,0.1c0.2-0.1,0.4,0.1,0.6,0.2c0.2,0.1,0.2,0.3,0.4,0.5c0.3,0.4,0.8,0.6,1.2,0.2
		c0.1-0.1,0.2-0.3,0.2-0.5c0-0.1-0.2-0.3-0.3-0.4c-0.3,0-0.5-0.3-0.7-0.5c-0.4-0.4-0.7-0.7-1.3-0.6c-0.1,0-0.3-0.1-0.5-0.1
		c-0.1-0.1-0.3-0.1-0.4-0.1c-0.9,0.1-1.5-0.4-1.9-1.1c-0.2-0.4-0.4-0.7-0.6-1.1c-0.1-0.1,0-0.2,0-0.4c0,0,0,0,0,0s0,0,0,0
		c0,0,0,0,0,0h0c0,0,0,0,0,0v0c0.4,0.3,0.9,0.7,1.3,0.9s1,0.5,1.5,0.6c1,0.2,1.9,0.7,3,0.8c0.5,0,1,0.1,1.5,0.1
		C286.5,50.4,286.1,51,285.7,51.6z M288.3,46.7c-0.1,0.2-0.1,0.4-0.2,0.6c-0.1,0.6-0.2,0.7-0.8,0.7c-0.5,0-1.1,0-1.6-0.1
		c-0.8-0.2-1.6-0.4-2.5-0.6c-0.9-0.2-1.7-0.7-2.4-1.4c-0.2-0.2-0.2-0.4,0-0.6c0.2-0.2,0.4-0.4,0.6-0.6c0.2-0.2,0.5-0.5,0.7-0.7
		c0.1-0.1,0.2-0.2,0.3-0.2c0.4,0,0.9,0,1.4-0.1c-0.1,0.5-0.1,0.8-0.1,1.2c-0.2,0.9-0.1,1,0.7,1.6c0.3-0.4,0.6-0.9,0.7-1.3
		c0.3-1.2,0.3-2.4,0-3.6c-0.2-0.9-0.7-1.7-1.5-2.3c-0.4-0.3-0.8-0.7-1.1-1.2c-0.4-0.6-1-1.1-1.6-1.5c-0.4-0.3-0.8-0.6-1-1
		c-0.2-0.4-0.5-0.7-0.8-1.1c-0.4-0.6-0.3-0.8,0.4-1.2c0.5,0.6,0.9,1.2,1.4,1.7c0.7,0.7,1.2,1.4,2,2c0.7,0.5,1.5,0.9,2.1,1.6
		c0.4,0.4,0.6,0.9,0.9,1.4c0,0.1,0.1,0.2,0.1,0.2c-0.1,0.8,0.3,1.5,0.4,2.2c0.2,1,0.3,2.1-0.2,3.1c-0.2,0.4-0.2,0.7,0,1.1
		c0.1,0.1,0.2,0.4,0.3,0.4c0.2,0,0.3-0.2,0.5-0.3c0.2-0.2,0.2-0.4,0.4-0.5c0.2-0.2,0.4-0.3,0.7-0.1
		C288.3,46.1,288.4,46.4,288.3,46.7z"/>
	<path fill="#FFFFFF" d="M280.7,48.1c-0.5-0.3-0.9-0.6-1.3-0.9c0,0,0,0,0,0C279.8,47.5,280.3,47.8,280.7,48.1z"/>
	<path fill="#FFFFFF" d="M279.4,47.1L279.4,47.1C279.4,47.1,279.4,47.1,279.4,47.1L279.4,47.1C279.4,47.1,279.4,47.1,279.4,47.1z"/>
	<path fill="#FFFFFF" d="M280.2,59.8c-0.1,0.1-0.1,0.1-0.2,0.1c0,0-0.1,0-0.3,0C279.9,59.8,280,59.7,280.2,59.8
		C280.1,59.7,280.1,59.7,280.2,59.8z"/>
</g>
<g>
	<path d="M726,70.6c-0.8-1.4-1.7-2.6-3.2-3.3c-0.3-0.1-0.5-0.3-0.8-0.5c-0.5-0.3-1-0.8-1.6-1c-1.8-0.7-3.3-1.6-4.3-3.4
		c-0.1-0.1-0.2-0.2-0.2-0.3c-1.2-1.3-1.9-2.9-2.6-4.5c-0.1-0.3-0.3-0.7-0.4-1c-0.5-1.7-0.9-3.4-1.3-5.1c-0.4-1.5-0.8-3-1.2-4.5
		c-0.1-0.5-0.3-1.1-0.5-1.6c-0.1-0.5-0.2-0.9-0.4-1.4c-0.2-0.7-0.4-1.4-0.7-2c-0.8-1.6-2.4-2.1-4.1-1.7c-0.1-0.1-0.2-0.3-0.4-0.4
		c-0.9-1.1-1.7-2.3-2.7-3.4c-0.5-0.6-1.4-1-2-1.6c-0.8-0.8-1.8-1.1-2.9-1.3c-0.5-0.1-1-0.1-1.5-0.5c-0.4-0.3-0.8,0-0.8,0.5
		c0.1,0.8-0.1,1.6-0.8,2.2c-0.4,0.3-0.3,0.8,0.1,1.1c0.6,0.3,1.2,0.6,1.8,0.9c0.7,0.4,1.6,0.6,2.2,1.2c0.3,0.4,0.7,0.7,1,1
		c0.6,0.7,1.2,1.5,1.5,2.4c-1.3,0.4-2.1,1.3-2.9,2.2c-0.1,0.1-0.3,0.3-0.3,0.5c0.1,0.5,0,1,0.3,1.4c0.2,0.2,0.2,0.6,0.3,0.8
		c0.1,0.2,0.2,0.4,0.3,0.6c0.9,0.9,1.2,2.1,1.8,3.1c0.5,1,0.8,2,1.3,3c0.7,1.6,1.5,3.1,2.3,4.7c0.6,1.2,1.1,2.5,2.1,3.5
		c0.7,0.8,1.3,1.7,2.1,2.5c0.6,0.5,1,1.1,1.5,1.7c0.7,1,1.6,1.8,2.4,2.7c0.5,0.6,1.3,1,1.9,1.5c0.3,0.2,0.6,0.3,0.9,0.4
		c1.5,0.5,3,1.1,4.5,1.5c0.8,0.2,1.7,0.3,2.5,0.4c0.2,0,0.4,0,0.5-0.1c0.5-0.4,1.1-0.3,1.7-0.4c0.8-0.1,1.5-0.4,2.1-0.9
		C726.1,71.2,726.2,70.9,726,70.6z M706.4,42.6c-0.3-0.4-0.5-0.8-0.8-1.1C706.6,41.8,706.6,41.9,706.4,42.6z M699.8,39.1
		c-0.9-1.3-2-2.4-3.4-3.3c-0.1-0.1-0.3-0.2-0.5-0.2c0.1-0.1,0.1-0.2,0.2-0.3c0.4,0,0.8,0,1.2,0.2c0.7,0.2,1.4,0.5,2,0.9
		c0.3,0.2,0.5,0.5,0.7,0.8c0.4,0.5,0.7,1.1,1.1,1.6c1.5,1.7,2.8,3.6,3.8,5.6c-0.7,0.7-1.6,0.9-2.8,1.1c0.6-0.4,0.4-0.8,0.3-1.2
		C702,42.2,701,40.6,699.8,39.1z M700.5,44.1c0.4,0.4,0.7,0.8,1,1.1C700.7,45.4,700.4,45.1,700.5,44.1z M700.6,46.7
		c0.1,0,0.2-0.1,0.3,0c0.9,0.3,1.7,0.1,2.6-0.2c0.7-0.3,1.4-0.5,2-0.9c0.6-0.4,1.2-0.9,1.7-1.4c0.2-0.1,0.3-0.3,0.4-0.5
		c0.6,0.5,0.6,0.7,0.1,1.1c-0.3,0.3-0.6,0.6-1,0.8c-0.5,0.3-1.1,0.5-1.7,0.8c-0.2,0.1-0.4,0.1-0.5,0.2c-0.7,0.7-1.7,0.6-2.6,0.9
		C701.5,47.6,700.8,47.2,700.6,46.7z M723.9,71c-1.1,0.2-2.2,0.5-3.3,0.2c-0.5-0.1-1.1-0.2-1.6-0.3c-2-0.7-4-1.6-5.7-2.9
		c-1.1-0.9-2.3-1.9-3.3-2.8c-0.5-0.4-0.8-1-1.2-1.5c-0.5-0.7-0.9-1.3-1.3-2c-1.2-2.1-2.8-4-3.7-6.3c-0.3-0.8-0.6-1.6-0.7-2.5
		c-0.2-1.3-0.5-2.6-1.5-3.7c-0.2-0.2-0.3-0.4-0.4-0.6c0.5-0.1,1-0.3,1.5-0.4c1.1-0.1,1.9-0.7,2.9-1c0.6-0.2,1.2-0.4,1.7-0.8
		c0.4-0.3,0.7-0.6,1.1-0.8c0.5,0.4,0.5,1,0.7,1.6c0.2,0.8,0.4,1.6,0.6,2.3c0.1,0.4,0.1,0.8,0,1.2c0,0.2,0,0.4,0.1,0.6
		c0.6,0.6,0.7,1.3,0.9,2.1c0.1,0.5,0.1,1,0.4,1.4c0.1,0.2,0.1,0.4,0.1,0.7c0.1,0.8,0.2,1.7,0.4,2.5c0.2,0.9,0.5,1.8,0.8,2.8
		c0.1,0.4,0.4,0.8,0.7,1.1c0.7,0.8,1.4,1.6,2.1,2.4c0.3,0.3,0.6,0.5,0.9,0.8c0.5,0.4,0.9,0.9,1.4,1.2c1,0.7,2.1,1.3,3.1,2
		c0.9,0.6,1.8,1.3,2.7,2c0.3,0.2,0.5,0.4,0.9,0.7C724.1,70.9,724,71,723.9,71z"/>
</g>
<g>
	<path d="M98.1,53.4c-0.4-1.4-1.1-2.7-1.7-4c-0.6-1.2-1.2-2.3-1.9-3.5c-0.3-0.5-0.8-1-1.3-1.5c0-0.1,0.1-0.1,0.1-0.2
		c0.4,0.1,0.8,0.2,1.1,0.4c0.3,0.2,0.6,0.4,0.9,0.6c1,0.6,2.1,1,3.1-0.2c-0.2-0.6-0.4-1.1-1.2-1c-0.1,0-0.2-0.1-0.3-0.2
		c-0.6-0.6-1.2-1.2-1.8-1.9c-0.9-1-2-1.6-3.3-2.1c-0.3-0.1-0.6-0.2-1.1-0.4c0.3-0.2,0.5-0.3,0.7-0.4c0.3-0.2,0.7-0.4,0.9-0.6
		c0.2-0.2,0.3-0.5,0.3-0.8c-0.1-0.2-0.4-0.5-0.6-0.6c-1-0.2-2-0.2-2.9-0.3c-0.3,0-0.7,0-1-0.1c0-0.7,0.1-1.3,0.2-2
		c0-0.8-0.1-0.8-0.9-0.9c-0.4,0-0.8-0.1-1.1-0.3c-0.9-0.6-1.8-0.4-2.7-0.3c-0.2,0-0.4,0.4-0.4,0.5c0.4,0.5,0.1,1.1,0.2,1.7
		c0.1,0.7-0.3,0.7-0.7,0.6c-0.2,0-0.5-0.1-0.7-0.2c-1.6-0.8-3.2-1.7-4.8-2.5c-0.2-0.1-0.5-0.2-0.7-0.2c-1,0.1-2.1,0.2-3.1,0.3
		c-0.2,0-0.4,0.2-0.5,0.3c0.1,0.2,0.2,0.4,0.3,0.5c0.3,0.3,0.7,0.7,1.1,0.9c0.9,0.5,1.5,1.4,2.6,1.5c0.5,0,0.9,0.4,1.3,0.6
		c0,0.1,0,0.1,0,0.2c-0.3,0-0.5,0.1-0.8,0.2c-2,0.2-4.1-0.1-6.1,0.7c-1.2,0.5-2.4,1-3.5,1.6c-0.7,0.4-1.3,0.9-1.8,1.5
		c-0.8,0.8-1.7,1.6-2.2,2.6c-1,1.6-1.7,3.4-2.5,5.1c-1.5,3-1.5,6.2-0.5,9.3c0.7,2.3,2,4.3,3.6,6.1c1.5,1.7,3.2,3.1,5.3,4.1
		c1.4,0.7,2.7,1.6,4.3,1.9c1,0.2,1.9,0.7,2.8,1.1c1.4,0.7,3,0.6,4.5,0.8c0.9,0.2,1.8,0.3,2.7,0.2c1.4-0.1,2.8-0.6,4.3-0.7
		c2.4-0.3,4.4-1.4,6.1-3.1c1.3-1.3,2.6-2.6,3.4-4.3C99.2,60.8,99,57.1,98.1,53.4z M77,36c-0.9-0.2-1.5-0.8-2.2-1.3
		c-0.1-0.1-0.2-0.3-0.3-0.5c0.2-0.1,0.3-0.1,0.5-0.2c1.4-0.2,2.5,0.4,3.6,1c0.9,0.5,1.8,1,2.8,1.4c0.5,0.2,1,0.3,1.6,0.5
		c-0.2,0.4-0.4,0.9-0.5,1.3c-0.1,0.2-0.1,0.4-0.1,0.6c0,0.1,0.1,0.2,0.2,0.3c0.1,0,0.3,0,0.3-0.1c0.3-0.4,0.6-0.8,0.7-1.2
		c0.2-0.5,0.2-1.1,0.8-1c-0.1-0.5-0.3-0.9-0.4-1.4c-0.1-0.4,0.2-0.6,0.6-0.6c0.6,0,1.2-0.1,1.8-0.2c0.3-0.1,0.5,0.1,0.5,0.4
		c-0.1,1.1-0.2,2.2-0.4,3.3c0,0.3-0.5,0.6-0.8,0.9c0.2,0.2,0.5,0.5,0.8,0.6c0.2,0,0.5-0.2,0.6-0.4c0.2-0.4,0.4-0.9,0.5-1.4
		c0.1-0.4,0.3-0.5,0.7-0.5c0.8,0.1,1.6,0.2,2.6,0.3c-1.2,0.5-1.5,1.8-2.7,2c-0.1,0-0.2,0.3-0.3,0.5c0.2,0.1,0.4,0.2,0.6,0.2
		c0.7,0,1.5,0,2.2,0.1c1.2,0.1,2.1,0.9,2.9,1.5c0.7,0.5,1.2,1.3,2,2.1c-0.4-0.1-0.8-0.1-1-0.2c-1.1-0.5-2.2-0.9-3.4-0.9
		c-0.4,0-0.8-0.4-1.2-0.6c-0.4-0.2-0.7-0.7-1.1,0.1c-0.1,0.1-0.6,0-0.9,0c-0.2,0-0.7-0.1-0.7,0c-0.1,0.5-0.6,0.9-0.2,1.4
		c0.3,0.4,0.5,0.8,0.9,1.1c1.3,1.2,1.7,2.9,2,4.6c0.1,0.6,0.2,1.2,0.3,1.8c0,0.3-0.1,0.6-0.2,0.9h-0.2c-0.5-1.1-1.2-2.1-1.6-3.2
		c-0.4-1.3-0.8-2.6-2-3.4c-0.7-0.5-1.1-1.4-2.1-1.6c-0.4-0.1-0.8-0.2-1.2-0.3c-0.1,0-0.2,0-0.3,0.1c-0.7,0.9-1.8,1.5-2.4,2.5
		c-1.2,1.8-1.8,3.7-1.6,5.9c0,0.6,0.4,1.2,0.8,1.7c0.4,0.8,0.9,1.4,0.8,2.4c0,0.2-0.1,0.4-0.1,0.6c-0.1,0-0.1,0-0.2,0
		c-0.2-0.4-0.4-0.8-0.6-1.1c-0.4-0.6-0.7-1.4-1.1-1.9c-0.5-0.6-0.7-1.2-0.6-1.9c0.1-2,0.1-4,1.1-5.9c0.7-1.4,1.2-2.9,2.3-4.2
		c0.5-0.6,0.4-0.8-0.4-1c-1.6-0.4-3.1-0.1-4.5,0.5c-0.9,0.4-1.7,1.2-2.5,1.8c-1.3,0.9-2.6,1.7-4,2.5c-0.1-0.1-0.1-0.2-0.2-0.2
		c0.4-0.7,0.8-1.2,1.4-1.7c1-0.8,2.1-1.5,3-2.4c1-1,2.2-1.3,3.4-1.7c1.1-0.3,2.3-0.4,3.5-0.7c0.3-0.1,0.5-0.2,0.9-0.4
		c-0.8-0.6-1.5-1.2-2.2-1.7C78.5,36.8,77.8,36.3,77,36z M97.5,58.6c0,1.8-0.5,3.4-1.2,5.1c-0.8,1.8-1.9,3.3-3.1,4.8
		c-0.8,1-1.9,1.8-3.3,2c-1.5,0.2-2.9,0.7-4.4,0.9c-1.1,0.2-2.2,0.1-3.3,0.2c-1.4,0.1-2.6-0.6-3.9-1c-1.5-0.4-3-0.7-4.5-1.1
		c-0.6-0.2-1.3-0.4-1.9-0.6c-0.5-0.2-0.9-0.6-1.5-0.8c-1-0.4-1.5-1.1-2-2c-0.2-0.3-0.6-0.5-0.8-0.8c-0.8-0.8-1.5-1.7-2.3-2.5
		c-0.7-0.6-1.4-1.3-2.2-1.8c-0.7-0.5-1.1-1.1-1.4-1.9c-1.2-2.4-0.7-4.9-0.3-7.5c0.3-1.8,0.8-3.5,1.7-5.1c0.9-1.7,2-3.1,3.7-4.2
		c0.8-0.5,1.6-1,2.4-1.6c1.2-0.8,2.5-1.3,3.8-1.5c1.5-0.3,3.1-0.4,4.6-0.6c0.1,0,0.2,0,0.3,0c0,0,0.1,0.1,0.2,0.2
		c-0.4,0.1-0.7,0.2-1,0.3c-1,0.3-2.1,0.6-3,1.1c-0.8,0.5-1.5,1.2-2.2,1.9c-1.3,1.2-2.7,2.4-4,3.5c-0.2,0.2-0.5,0.3-0.7,0.5
		c-0.1,0.1-0.2,0.3-0.3,0.5c0.2,0.1,0.3,0.2,0.5,0.2s0.3,0,0.5-0.1c2.2-0.5,4.3-0.9,6.2-2.3c1.1-0.8,2.3-1.4,3.4-2.2
		c0.6-0.5,1.3-0.6,2.1-0.7c0.1,0,0.3,0.1,0.4,0.2c0,0-0.1,0.2-0.1,0.3c-0.7,1.2-1.4,2.5-1.9,3.8c-0.6,1.7-1.1,3.4-1.5,5.1
		c-0.2,0.8-0.2,1.8,0.4,2.6c0.2,0.3,0.3,0.6,0.5,0.9c0.1,0.3,0.2,0.7,0.7,0.7c0.1,0,0.2,0.1,0.2,0.2c0.3,0.9,0.8,1.8,0.5,2.8
		c-0.1,0.4-0.1,0.6,0.3,0.9c0.2,0.2,0.2,0.7,0.4,1c0.1,0.2,0.3,0.4,0.5,0.6c0.2-0.2,0.4-0.4,0.5-0.6c0.3-0.9,0.6-1.8,0.7-2.7
		c0.1-0.7-0.2-1.4-0.3-2c-0.1-0.6-0.3-1.1-0.3-1.7c-0.1-1.6-0.2-3.1-0.2-4.7c0-1.6,1.1-2.6,2.4-3.4c0.4-0.3,0.9-0.5,1.4-0.8
		c0.5,0.4,1,0.9,1.5,1.3c0.4,0.5,0.9,1,1.1,1.5c0.5,1.3,1,2.5,1.7,3.6c0.4,0.8,0.5,1.9,0.7,2.8c0,0.2,0.1,0.3,0.1,0.5
		c0.8-0.3,1.3-0.6,1.5-1.4c0.4-1.2,0.2-2.4,0.2-3.7c0-1.7-0.8-3-1.6-4.4c-0.1-0.2-0.4-0.4-0.5-0.7c-0.1-0.2-0.2-0.4-0.2-0.6
		c0.2,0,0.4,0,0.5-0.1c0.1,0,0.2,0,0.3,0c2.1-0.3,3.1,1.2,4.1,2.6c1,1.4,2,2.9,2.6,4.5c0.8,1.9,1.7,3.8,1.3,6
		C97.4,57.6,97.5,58.1,97.5,58.6z"/>
</g>
<g>
	<path d="M633.1,33.2c0.1-0.5-0.2-0.9-0.8-0.7c-0.5,0.1-0.9,0-1.3-0.2c-0.4-0.1-0.8-0.2-1.2-0.3c-1.6-0.2-3.1-0.4-4.7-0.6
		c-0.7-0.1-1.5,0-2.2,0c0,0-0.1,0-0.1,0c-0.8,0.2-1.5,0.4-2.3,0.7c-0.2,0.1-0.4,0.1-0.5,0.1c-0.7,0.4-1.4,0.8-2.2,1.1
		c-0.2,0.1-0.4,0.2-0.6,0.4c-0.5,0.3-0.9,0.7-1.4,0.9c-1,0.5-1.8,1.2-2.4,2c-0.1,0.1-0.4,0.3-0.5,0.3c-0.5,0-0.8,0.2-1,0.5
		c-0.3,0.4-0.5,1-1.1,1.2c0,0-0.1,0.1-0.1,0.1c-0.2,0.5-0.5,0.9-0.6,1.4c-0.3,1.1-0.9,2-1.3,3c-0.2,0.5-0.5,0.9-0.6,1.4
		c-0.5,1.7-1.1,3.3-1.3,5c-0.1,1-0.3,2-0.3,3c0,1.2,0,2.3,0.4,3.5c0.2,0.6,0.2,1.4,0.2,2.1c0,1.3,0.5,2.5,1,3.6
		c0.3,0.6,0.7,1.3,1,1.9c0.2,0.5,0.5,0.9,0.7,1.4c0.5,1,1,1.9,1.7,2.8c0.6,0.8,1.3,1.5,2,2.2c0.8,0.8,1.6,1.4,2.6,1.9
		c0.6,0.3,1.3,0.5,1.9,0.9c0.5,0.4,1.3,0.6,1.5,1.4c0,0.1,0.3,0.3,0.5,0.3c0.1,0,0.3-0.2,0.4-0.3c0.1-0.1,0.2-0.2,0.3-0.3
		c0.1-0.1,0.2-0.2,0.2-0.3c0.1-0.4,0.1-0.8,0.2-1.1c0.1-0.4,0.2-0.7,0.6-0.8c0.2-0.1,0.4-0.1,0.2-0.4c-0.1-0.2-0.2-0.4-0.3-0.6
		c0.1-0.1,0.2-0.3,0.3-0.5c0.1-0.3,0-0.6,0.1-1c0.1-0.3,0.2-0.7,0.3-1c0.2-0.4,0.4-0.8,0.6-1.2c0.4-0.9,0.7-1.8,1.1-2.7
		c0.2-0.5,0.5-0.9,0.7-1.3c0.2-0.3,0.2-0.8,0.5-1c0.3-0.3,0.2-0.6,0.2-0.9c-0.4-0.2-0.7-0.3-0.8-0.5c-0.3-0.3-0.7-0.4-1-0.6
		c-0.1-0.1-0.3-0.1-0.4-0.1c-0.9-0.6-2-1-2.4-2.2c0-0.1-0.1-0.1-0.1-0.2c-0.7-0.9-1.2-1.8-1.3-3c0-0.5-0.1-1-0.2-1.6
		c-0.2-0.8-0.2-1.6,0.2-2.4c0.2-0.4,0.5-0.9,0.7-1.3c0.6-0.9,1.2-1.8,2.3-2.1c0.7-0.2,1.3-0.5,1.9-0.8c0,0,0.1-0.1,0.1-0.1
		c0.4-0.2,0.9-0.3,1.3-0.5c0.3-0.1,0.7-0.1,1.1-0.2c0.2-0.1,0.4-0.1,0.6,0.2c0.3,0.3,0.9,0.2,1.1-0.2c0.2-0.5,0.4-1,0.6-1.5
		c0.6-1.3,1.2-2.6,1.7-3.9c0.2-0.5,0.4-1,0.6-1.4c0.2-0.5,0.4-0.9,0.6-1.4c0.1-0.3,0.3-0.7,0.5-0.9c0.2-0.2,0.3-0.4,0.2-0.7
		c0-0.2-0.1-0.5,0-0.7C632.7,34.5,633,33.8,633.1,33.2z M630.1,38.2c-0.5,1.3-0.9,2.6-1.4,3.8c-0.1,0.2-0.2,0.3-0.3,0.5
		c-0.2,0.3-0.3,0.7-0.5,1c-0.1,0.2-0.3,0.4-0.4,0.4c-0.7-0.1-1.2,0.2-1.9,0.4c-0.8,0.2-1.5,0.3-2.3,0.6c-0.6,0.2-1.1,0.5-1.6,0.9
		c-0.7,0.5-1.3,1-1.9,1.6c-0.7,0.8-1.4,1.7-1.7,2.7c-0.3,1-0.6,2.1-0.8,3.1c-0.1,0.7,0.1,1.5,0.2,2.3c0,0.3,0.1,0.7,0.2,1
		c0.4,1.1,1.3,1.8,2.2,2.4c0.6,0.4,1.2,0.9,1.8,1.4c0.3,0.2,0.7,0.5,1.1,0.6c0.4,0.1,0.6,0.3,0.5,0.7c-0.1,0.5-0.2,1-0.4,1.5
		c-0.4,1.1-0.8,2.1-1.1,3.2c-0.2,0.6-0.4,1.2-0.6,1.8c-0.1,0.3-0.2,0.5-0.4,0.7c-0.1,0.1-0.3,0.1-0.4,0.1c-0.4-0.1-0.8-0.3-1.2-0.5
		c-0.6-0.3-1.2-0.6-1.7-0.9c-0.8-0.4-1.3-1.2-1.9-1.9c-0.5-0.6-1-1.3-1.5-1.9c-0.4-0.5-0.9-0.9-1.2-1.4c-0.5-0.7-0.9-1.5-1.2-2.4
		c-0.2-0.5-0.4-1.1-0.4-1.7c0-0.9-0.4-1.7-0.5-2.6c-0.1-0.8-0.1-1.6-0.2-2.5c-0.1-1.1,0.2-2.1,0.3-3.1c0.1-0.8,0.3-1.5,0.5-2.3
		c0.2-0.9,0.5-1.7,0.9-2.5c0.5-1.1,1-2.2,1.7-3.2c0.2-0.3,0.3-0.6,0.5-0.9c0.2-0.3,0.4-0.7,0.7-1c0.7-0.7,1.4-1.3,2.1-2
		c0.5-0.5,1-1,1.5-1.3c0.9-0.5,1.8-1,2.9-1.1c1.2-0.1,2.4-0.3,3.5-0.5c1.7-0.2,3.4,0,5,0.5c0.2,0,0.3,0.2,0.4,0.3
		C630.5,37,630.3,37.6,630.1,38.2z M631.4,34.5c-0.2,0.3-0.4,0.5-0.8,0.4c-0.6-0.2-1.3-0.3-1.9-0.4c-0.3-0.1-0.5-0.1-0.8-0.1
		c-1,0-1.9-0.2-2.9,0.1c-0.8,0.2-1.7,0.1-2.5,0.2c-1.1,0.1-2.1,0.5-3,1c-0.3,0.2-0.7,0.2-1,0.4c-0.6,0.5-1.4,0.7-1.9,1.4
		c0,0.1-0.1,0.1-0.2,0.1c-0.8,0.3-1.1,1.1-1.5,1.7c-0.2,0.3-0.5,0.6-0.8,0.9c-1.4,1.4-2.5,3.1-3.1,5.1c-0.2,0.8-0.5,1.5-0.8,2.3
		c-0.1,0.4-0.1,0.7-0.2,1.1c-0.1,0.2-0.2,0.4-0.2,0.7c0,0.1-0.1,0.2-0.1,0.3c0.2,0.5,0.2,1,0.1,1.5c-0.1,0.4-0.1,0.9-0.1,1.3
		c0,0.5-0.1,0.9,0,1.4c0,0.7,0.1,1.5,0.2,2.2c0.1,1,0.3,2,0.5,2.9c0.2,0.8,0.4,1.5,0.7,2.2c0.4,0.9,0.8,1.7,1.3,2.5
		c0.4,0.6,0.7,1.2,1.3,1.7c0.8,0.6,1.4,1.5,2.1,2.2c1.1,1,2.2,1.9,3.6,2.5c0.3,0.1,0.5,0.4,0.7,0.6c0.1,0.1,0.1,0.2,0,0.3
		c0,0.2-0.1,0.4-0.2,0.6c-0.1,0.4-0.5,0.6-0.9,0.4c-0.7-0.3-1.3-0.6-1.9-1c-0.5-0.3-0.9-0.7-1.4-1.1c-0.3-0.2-0.6-0.4-0.9-0.6
		c-0.4-0.4-0.9-0.7-1.2-1.2c-0.3-0.5-0.6-0.9-1-1.2c-0.7-0.6-1.1-1.5-1.5-2.3c-0.3-0.7-0.7-1.3-1.1-1.9c-0.6-1-0.9-2.1-1.1-3.2
		c-0.1-0.9-0.4-1.7-0.7-2.6c-0.4-1.5-0.7-3-0.5-4.6c0.1-1,0.1-2,0.3-3c0.1-0.6,0.4-1.1,0.6-1.7c0.3-0.7,0.5-1.3,0.8-2
		c0.4-0.8,0.8-1.5,1.3-2.2c0.3-0.5,0.6-1.1,0.9-1.6c0-0.1,0.1-0.3,0-0.3c-0.4-0.4-0.1-0.7,0.1-1c0.3-0.5,0.5-1.1,0.8-1.6
		c0.1-0.2,0.2-0.3,0.3-0.5c0.5-0.5,1.1-1,1.6-1.4c0.2-0.2,0.4-0.3,0.6-0.4c1.2-0.5,2.3-0.9,3.5-1.5c1.2-0.6,2.3-1.2,3.3-2.1
		c0.2-0.2,0.6-0.1,0.9-0.2c0.4-0.1,0.7-0.1,1.1-0.1v0c0.5,0,1.1,0,1.6,0c0.4,0,0.8,0.1,1.2,0.1c1,0.1,2,0.2,3,0.4
		c0.6,0.1,1.2,0.2,1.7,0.4c0.1,0,0.2,0.2,0.1,0.3C631.6,34.1,631.5,34.3,631.4,34.5z"/>
</g>
<g>
	<path d="M186.5,53.3c-0.2-1.4-0.5-2.8-0.7-4.2c-0.2-1-0.3-2-0.4-3c-0.1-0.9-0.1-1.9-0.1-2.8c0-0.8,0-1.6,0-2.4
		c0-0.5-0.1-0.9-0.2-1.4c0,0,0,0,0,0c0-0.2,0-0.3,0-0.5c-0.2-1.1-0.5-2.2-0.7-3.3c-0.2-1-0.3-2.1-0.8-3c-0.4-0.8-0.7-1.8-1.6-2.4
		c-0.5-0.3-0.8-0.7-1.4-0.9c-0.2,0-0.4-0.1-0.6-0.2c-1-0.5-2.2-0.5-3.3-0.5c-0.6,0-1.3,0.1-1.9,0.1c-1.1,0.1-2.1,0.3-3.2,0.5
		c-0.5,0.1-1,0.4-1.5,0.5c-1.2,0.2-2.2,0.9-3.2,1.5c-0.2,0.1-0.4,0.2-0.5,0.4c-0.9,0.8-1.8,1.7-2.7,2.5c-0.2,0.2-0.4,0.5-0.5,0.8
		c-0.1,0.1-0.1,0.2-0.2,0.3c-0.3,0.4-0.7,0.9-1,1.3c-0.2,0.3-0.3,0.6-0.5,0.9c-0.3,0.5-0.6,1.1-0.9,1.6c-0.2,0.3-0.4,0.6-0.6,0.9
		c-0.2,0.3-0.4,0.5-0.6,0.8c-0.2,0.4-0.4,0.8-0.7,1.2c-0.4,0.7-0.8,1.4-1.2,2.2c-0.2,0.5-0.4,1-0.6,1.4c-0.4,0.7-0.9,1.3-1.1,2.2
		c-0.3,1-0.8,1.9-1.1,2.9c-0.5,1.6-1,3.2-1.4,4.9c-0.2,1-0.3,2.1-0.4,3.1c-0.2,1.7-0.4,3.5-0.6,5.2c0,0.3-0.1,0.6-0.2,0.9
		c0,0.4,0.1,0.7,0.2,1.1c0.3,0.6,0.3,1.2,0.5,1.8c0.1,0.3,0.2,0.6,0.3,1c0.1,0.2,0.1,0.5,0.2,0.7c0.2,0.3,0.4,0.6,0.6,0.9
		c0.6,1,1.3,1.7,2.2,2.5c0.4,0.4,0.9,0.8,1.3,1.2c0.6,0.7,1.4,1.1,2.2,1.3c0.6,0.2,1.2,0.2,1.8,0.4c1.1,0.3,2.3,0.5,3.5,0.7
		c0.9,0.1,1.7,0.2,2.6-0.1c0.3-0.1,0.7-0.2,1-0.2c1,0,1.9-0.3,2.8-0.6c0.8-0.3,1.6-0.7,2.4-1.1c0.6-0.3,1.1-0.5,1.7-0.8
		c0.4-0.2,0.8-0.4,1.2-0.7c0.9-0.5,1.8-1.1,2.6-1.8c1.5-1.5,2.9-3.2,4.1-5c0.6-0.9,1.3-1.6,1.8-2.5c0.5-0.8,0.9-1.7,1.2-2.6
		c0.3-0.8,0.3-1.7,0.3-2.5C186.6,57,186.7,55.1,186.5,53.3z M185.3,56.5c-0.1,0.6-0.3,1.2-0.4,1.8c-0.1,0.6-0.3,1.2-0.4,1.8
		c-0.2,0.9-0.4,1.9-0.8,2.8c-0.4,1.1-0.8,2.1-1.4,3.1c-0.8,1.2-1.9,2.1-2.9,3.1c-0.4,0.4-0.8,0.9-1.2,1.3c-0.8,0.9-1.8,1.7-2.8,2.3
		c-1.2,0.7-2.4,1.3-3.8,1.7c-0.3,0.1-0.6,0.2-0.8,0.4c-0.7,0.4-1.5,0.3-2.3,0.5c-0.5,0.1-1,0.2-1.2,0.2c-1.6-0.1-2.9-0.2-4.3-0.3
		c-0.7-0.1-1.4-0.2-1.9-0.5c-0.9-0.5-1.6-1.1-2.4-1.6c-0.3-0.2-0.7-0.4-1-0.7c-0.5-0.5-0.9-1.1-1.3-1.7c-0.3-0.4-0.5-0.8-0.7-1.2
		c-0.3-0.6-0.6-1.2-0.8-1.8c-0.2-0.5-0.3-1-0.5-1.4c-0.2-0.5-0.4-0.9-0.3-1.5c0.1-0.9,0-1.8,0.1-2.6c0.1-1.8,0.1-3.6,0.5-5.3
		c0.3-1.2,0.6-2.4,1-3.6c0.4-1.2,0.9-2.4,1.3-3.6c0.6-2,1.6-3.9,2.6-5.8c0.7-1.2,1.5-2.4,2.2-3.6c0.3-0.4,0.5-0.9,0.8-1.3
		c0.2-0.3,0.4-0.5,0.6-0.8c1-1,1.9-2.1,2.9-3.1c0.3-0.3,0.4-0.7,0.7-1c0.7-0.9,1.7-1.4,2.7-2c0.5-0.3,1-0.8,1.5-0.9
		c0.9-0.3,1.9-0.5,2.8-0.6c1.1-0.1,2.2-0.2,3.4-0.2c0.6,0,1.1,0.1,1.7,0.3c0.7,0.2,1.3,0.4,2,0.6c0.4,0.2,0.8,0.4,1.2,0.7
		c0.9,0.6,1.4,1.6,1.6,2.6c0.2,0.6,0.3,1.2,0.4,1.8c0.1,0.6,0.2,1.2,0.3,1.8c0.1,0.3,0,0.7,0,1c0,0.6,0.1,1.2,0.2,1.8
		c0.1,0.8,0.1,1.6,0.2,2.5c0.1,1.2,0,2.4,0.1,3.7c0.1,1.2,0.3,2.4,0.5,3.7c0.2,1.1,0.5,2.1,0.6,3.2
		C185.5,54.7,185.4,55.6,185.3,56.5z"/>
	<path d="M183.8,52.1c0-1.1-0.3-2.2-0.6-3.2c-0.2-0.8-0.5-1.5-0.6-2.3c-0.1-1.6-0.1-3.3,0-4.9c0.1-1.1,0.2-2.1,0.1-3.2
		c-0.1-0.9,0-1.7-0.4-2.6c-0.4-0.9-0.8-1.7-1.4-2.5c-0.4-0.4-0.8-0.9-1.3-1.1c-0.8-0.3-1.8-0.3-2.7-0.5c-1.1-0.2-2.2,0-3.2,0.3
		c-1,0.3-2,0.6-2.9,0.9c-0.9,0.4-1.9,0.7-2.6,1.3c-1,0.8-2,1.7-2.7,2.8c-0.6,1-1.4,1.8-2,2.8c-0.7,1-1.3,2.1-2,3.1
		c-0.1,0.2-0.1,0.5-0.2,0.7c-0.5,0.9-1.1,1.7-1.5,2.6c-0.6,1.2-1.1,2.4-1.5,3.7c-0.5,1.2-0.8,2.4-1.2,3.6c-0.2,0.6-0.4,1.2-0.6,1.9
		c-0.1,0.3-0.2,0.7-0.2,1.1c-0.1,0.3-0.1,0.7-0.2,1c0,0.1,0,0.2,0,0.2c-0.1,0.8-0.3,1.6-0.4,2.5c-0.1,0.7-0.1,1.4-0.1,2.1
		c0,0.7,0,1.5,0.2,2.1c0.2,0.8,0.6,1.6,0.9,2.5c0.4,1.1,0.9,2.2,1.3,3.3c0.2,0.6,0.6,1.1,1.1,1.6c0.3,0.2,0.6,0.5,0.9,0.7
		c0.1,0.1,0.2,0.2,0.4,0.2c0.3,0.2,0.7,0.3,1,0.5c0.6,0.3,1.2,0.6,1.8,0.8c0.6,0.2,1.3,0.4,2,0.5c0.6,0.1,1.2,0,1.7,0c0,0,0,0,0,0.1
		c0.7-0.1,1.5-0.1,2.2-0.3c1.6-0.4,3.1-0.9,4.5-1.7c1-0.6,2.1-1,2.8-2c0.2-0.3,0.4-0.5,0.6-0.8c0.8-0.9,1.7-1.7,2.5-2.5
		c0.3-0.3,0.6-0.5,0.7-0.8c0.5-0.8,0.9-1.6,1.3-2.4c0.5-0.9,0.9-1.9,1.3-2.9c0.2-0.4,0.3-0.8,0.4-1.2c0.1-0.7,0.2-1.3,0.3-2
		c0.1-0.4,0.1-0.8,0.1-1.2c0-0.6-0.1-1.3-0.1-1.9C183.7,54,183.8,53.1,183.8,52.1z M181.8,55.8c0,1.3-0.4,2.5-0.6,3.8
		c-0.3,1.8-0.7,3.6-1.3,5.3c-0.2,0.6-0.6,0.9-1,1.3c-0.4,0.4-0.7,0.8-1.1,1.1c-0.6,0.6-1.1,1.2-1.7,1.8c-0.3,0.3-0.5,0.7-0.9,1
		c-1,0.7-2,1.5-3.2,1.9c-0.7,0.2-1.3,0.6-2,0.8c-0.8,0.2-1.7,0.3-2.6,0.5c-1,0.2-1.8-0.2-2.7-0.5c-0.8-0.3-1.7-0.6-2.5-0.7
		c-0.7-0.2-1.4-0.5-1.9-1c-0.3-0.3-0.4-0.9-0.6-1.4c-0.3-0.8-0.4-1.7-0.7-2.5c-0.1-0.4-0.5-0.6-0.7-1c-0.8-1-1.5-2.1-1.6-3.5
		c-0.1-1.1,0-2.3,0.3-3.4c0.2-0.8,0.3-1.6,0.7-2.3c0.2-0.4,0-0.8,0.2-1.2c0.2-0.4,0.2-0.8,0.4-1.2c0.2-0.5,0.4-1,0.5-1.5
		c0.4-1.4,1-2.7,1.6-4c0.3-0.6,0.7-1.2,1-1.8c0.6-1.2,1.1-2.5,1.6-3.8c0.6-1.4,1.4-2.7,2.1-4c0.1-0.2,0.3-0.4,0.5-0.5
		c0.7-0.8,1.3-1.6,2.1-2.2c0.8-0.7,1.6-1.5,2.5-2c1-0.5,2-1,3.1-1.2c1.2-0.3,2.5-0.4,3.8-0.2c0.5,0.1,1,0.1,1.5,0.2
		c1,0.2,1.7,0.7,2.1,1.7c0.1,0.1,0.1,0.3,0.2,0.3c0.6,0.5,0.7,1.2,0.7,2c0,0.3-0.2,0.8-0.1,1.3c0.1,0.6-0.1,1.2-0.2,1.8
		c-0.1,0.9-0.3,1.9-0.3,2.8c0,0.4,0.1,0.9,0.1,1.3c0,0.5-0.1,1.1-0.1,1.6c0.1,0.7,0.2,1.4,0.4,2.2c0.1,0.3,0.2,0.7,0.2,1
		c0,0.1-0.1,0.2-0.2,0.2c-0.4,0.2-0.4,0.3-0.2,0.7s0.3,0.7,0.4,1.1C181.9,53.1,181.8,54.5,181.8,55.8z"/>
	<path d="M175.1,59.4c0-0.4-0.1-0.8-0.2-1.1c-0.1-0.9-0.3-1.9-0.4-2.8c-0.1-0.6-0.2-1.3-0.3-1.9c0,0,0.1,0,0.1,0
		c-0.2-0.5-0.4-1.1-0.7-1.5c-0.4-0.6-1.1-0.9-1.8-1c-0.5,0-1,0.1-1.5,0.2c-1.1,0-1.9,0.7-2.7,1.2c-0.5,0.4-1,0.9-1.4,1.4
		c-1,1.2-2,2.4-3,3.6c-0.5,0.7-0.9,1.6-1.3,2.4c-0.2,0.5-0.3,1.1-0.5,1.6c-0.3,0.8-0.4,1.7-0.3,2.5c0.1,0.6,0.3,1.3,0.6,1.8
		c0.3,0.5,0.7,1,1.3,1.2c0.5,0.1,0.9,0.3,1.3,0.5c0.1,0.1,0.2,0.2,0.3,0.2c1.2,0.1,2.3,0.3,3.5,0.4c0.5,0,1.1-0.1,1.7-0.1
		c0.7,0,1.4-0.2,1.9-0.7c0.8-0.7,1.6-1.4,1.9-2.4c0.2-0.6,0.6-1.3,0.8-1.9c0.2-0.9,0.4-1.9,0.5-2.8
		C175.2,59.9,175.2,59.6,175.1,59.4z M173.3,63.5c-0.3,0.9-0.8,1.6-1.5,2.4c-0.7,0.8-1.5,1.1-2.6,1.1c-1.3,0-2.6,0-3.8-0.4
		c-0.9-0.3-1.9-0.6-2.6-1.4c-0.4-0.4-0.3-0.9-0.4-1.4c0-0.1,0-0.2,0-0.4c-0.1-1,0.1-2,0.4-3c0.1-0.2,0.1-0.5,0.2-0.7
		c0.1-0.8,0.6-1.4,1.2-1.8c0.2-0.2,0.4-0.4,0.6-0.7c0.5-0.6,1-1.1,1.5-1.7c0.4-0.5,0.8-1.2,1.2-1.7c0.6-0.8,1.3-1.5,2.5-1.5
		c0.6,0,1.1-0.2,1.7-0.2c0.2,0,0.5,0,0.7,0.2c0.7,0.5,0.9,1.2,1,2c0.1,1,0.3,2,0.4,3c0.1,0.9,0.1,1.7,0.1,2.6
		C174,61.2,173.6,62.4,173.3,63.5z"/>
</g>
</svg>
