<?xml version="1.0" encoding="utf-8"?>
<!-- Generator: Adobe Illustrator 26.1.0, SVG Export Plug-In . SVG Version: 6.00 Build 0)  -->
<svg version="1.1" xmlns="http://www.w3.org/2000/svg" xmlns:xlink="http://www.w3.org/1999/xlink" x="0px" y="0px"
	 viewBox="0 0 100 100" enable-background="new 0 0 100 100" xml:space="preserve">

	<g id="arrow">
		<path fill="#00A5A5" d="M52.5,66.9c-1.7,0-3.5-1.3-3.5-3.5V36.5c0-2.1,1.8-3.5,3.5-3.5c0.6,0,1.2,0.2,1.7,0.5L77.6,47
			c1.1,0.6,1.7,1.7,1.7,3s-0.6,2.4-1.7,3L54.3,66.4C53.7,66.7,53.1,66.9,52.5,66.9z"/>
		<path fill="#FFFFFF" d="M52.5,34.1L52.5,34.1c0.4,0,0.8,0.1,1.2,0.3l11.7,6.7l11.7,6.7c1.1,0.6,1.2,1.7,1.2,2.1s-0.1,1.5-1.2,2.1
			l-11.7,6.7l-11.7,6.7c-0.4,0.2-0.8,0.3-1.2,0.3c-1.2,0-2.5-0.9-2.5-2.5V50V36.5C50.1,35,51.4,34.1,52.5,34.1 M52.5,32.1
			c-2.3,0-4.5,1.9-4.5,4.5V50v13.5c0,2.6,2.1,4.5,4.5,4.5c0.7,0,1.5-0.2,2.2-0.6l11.7-6.7l11.7-6.7c3-1.7,3-6,0-7.7l-11.7-6.7
			l-11.7-6.7C54,32.2,53.3,32.1,52.5,32.1L52.5,32.1z"/>
	</g>
	<g id="arrow2">
		<path fill="#00A5A5" d="M31.5,67.2c-1.7,0-3.5-1.3-3.5-3.5V36.8c0-2.1,1.8-3.5,3.5-3.5c0.6,0,1.2,0.2,1.7,0.5l23.3,13.5
			c1.1,0.6,1.7,1.7,1.7,3s-0.6,2.4-1.7,3L33.2,66.7C32.6,67,32.1,67.2,31.5,67.2z"/>
		<path fill="#FFFFFF" d="M31.5,34.3L31.5,34.3c0.4,0,0.8,0.1,1.2,0.3l11.7,6.7L56,48.1c1.1,0.6,1.2,1.7,1.2,2.1
			c0,0.4-0.1,1.5-1.2,2.1l-11.7,6.7l-11.7,6.7c-0.4,0.2-0.8,0.3-1.2,0.3c-1.2,0-2.5-0.9-2.5-2.5V50.2V36.8
			C29,35.2,30.3,34.3,31.5,34.3 M31.5,32.3c-2.3,0-4.5,1.9-4.5,4.5v13.5v13.5c0,2.6,2.1,4.5,4.5,4.5c0.7,0,1.5-0.2,2.2-0.6l11.7-6.7
			L57,54.1c3-1.7,3-6,0-7.7l-11.7-6.7l-11.7-6.7C33,32.5,32.2,32.3,31.5,32.3L31.5,32.3z"/>
	</g>
</svg>
