<?xml version="1.0" encoding="utf-8"?>
<!-- Generator: Adobe Illustrator 26.1.0, SVG Export Plug-In . SVG Version: 6.00 Build 0)  -->
<svg version="1.1" id="Layer_1" xmlns="http://www.w3.org/2000/svg" xmlns:xlink="http://www.w3.org/1999/xlink" x="0px" y="0px"
	 viewBox="0 0 1285.6 650.1" enable-background="new 0 0 1285.6 650.1" xml:space="preserve">
<g>
	<rect x="1139.6" y="508" width="118.5" height="118.5"/>
	<rect x="1139.6" y="389.5" width="118.5" height="118.5"/>
	<rect x="1139.6" y="271" width="118.5" height="118.5"/>
	<rect x="1021.1" y="271" width="118.5" height="118.5"/>
	<rect x="1021.1" y="152.5" width="118.5" height="118.5"/>
	<rect x="1021.1" y="33.9" width="118.5" height="118.5"/>
</g>
<g>
	<rect x="965.7" y="508" width="118.5" height="118.5"/>
	<rect x="847.2" y="508" width="118.5" height="118.5"/>
	<rect x="847.2" y="389.5" width="118.5" height="118.5"/>
	<rect x="847.2" y="271" width="118.5" height="118.5"/>
	<rect x="728.6" y="271" width="118.5" height="118.5"/>
	<rect x="728.6" y="508" width="118.5" height="118.5"/>
</g>
<g>
	<rect x="262.2" y="508" width="118.5" height="118.5"/>
	<rect x="262.2" y="389.5" width="118.5" height="118.5"/>
	<rect x="262.2" y="271" width="118.5" height="118.5"/>
	<rect x="143.7" y="271" width="118.5" height="118.5"/>
	<rect x="25.2" y="271" width="118.5" height="118.5"/>
	<rect x="25.2" y="389.5" width="118.5" height="118.5"/>
	<rect x="25.2" y="508" width="118.5" height="118.5"/>
</g>
<g>
	<rect x="436.2" y="508" width="118.5" height="118.5"/>
	<rect x="554.7" y="508" width="118.5" height="118.5"/>
	<rect x="554.7" y="389.5" width="118.5" height="118.5"/>
	<rect x="436.2" y="271" width="118.5" height="118.5"/>
	<rect x="554.7" y="271" width="118.5" height="118.5"/>
</g>
</svg>
