<?xml version="1.0" encoding="utf-8"?>
<!-- Generator: Adobe Illustrator 26.1.0, SVG Export Plug-In . SVG Version: 6.00 Build 0)  -->
<svg version="1.1" id="Layer_1" xmlns="http://www.w3.org/2000/svg" xmlns:xlink="http://www.w3.org/1999/xlink" x="0px" y="0px"
	 viewBox="0 0 872.3 394.8" enable-background="new 0 0 872.3 394.8" xml:space="preserve">
<pattern  x="-4539.7" y="-3085.9" width="202.5" height="123.4" patternUnits="userSpaceOnUse" id="New_Pattern_40" viewBox="0 -123.4 202.5 123.4" overflow="hidden">
	<g>
		<rect y="-123.4" fill="none" width="202.5" height="123.4"/>
		<path fill="#BC6054" d="M121.2-119.4l-17.1,17.1v16.8c2.9-6.5,6.8-12.9,11.7-19.3c6.9-9,13.7-15.1,16.3-17.4c0-0.4,0-0.8,0-1.2
			h-10.7C122.4-122.3,122.3-120.5,121.2-119.4z"/>
		<polygon fill="#BC6054" points="104.1,-110.5 117,-123.4 105.3,-123.4 104.1,-122.2 		"/>
		<polygon fill="#BC6054" points="98.3,-122.2 97.1,-123.4 85.4,-123.4 98.3,-110.5 		"/>
		<path fill="#BC6054" d="M98.3-85.6v-16.7l-17.1-17.1c-1.1-1.1-1.1-2.9-0.1-4H70.4c0,0.4,0,0.8,0,1.2
			C74.6-118.5,89.8-104.6,98.3-85.6z"/>
		<path fill="#221F1F" d="M70.4-122.2c0-0.4,0-0.8,0-1.2h-0.1C70.4-123,70.4-122.6,70.4-122.2C70.4-122.2,70.4-122.2,70.4-122.2z"/>
		<path fill="#221F1F" d="M132.1-122.2c0-0.4,0-0.8,0-1.2H132C132-123,132-122.6,132.1-122.2C132-122.2,132.1-122.2,132.1-122.2z"/>
		<path fill="#221F1F" d="M104.1-110.5v-11.7l-0.9,0.9c-0.6,0.6-1.3,0.9-2.1,0.9c-0.7,0-1.5-0.3-2.1-0.9l-0.9-0.9v11.7l2.9,2.9
			L104.1-110.5z"/>
		<path fill="#221F1F" d="M104.1-85.5v-16.8l-0.9,0.9c-0.6,0.6-1.3,0.9-2.1,0.9c-0.7,0-1.5-0.3-2.1-0.9l-0.9-0.9v16.7
			c1.1,2.5,2.1,5.1,2.9,7.7C102-80.4,103-83,104.1-85.5z"/>
		<path fill="#221F1F" d="M99.2-121.4c-0.6-0.6-0.9-1.3-0.9-2.1h-1.2l1.2,1.2L99.2-121.4z"/>
		<path fill="#221F1F" d="M81.2-119.4l17.1,17.1l0.9,0.9c-1.1-1.1-1.1-3,0-4.1l2.1-2.1l-2.9-2.9l-12.9-12.9h-4.3
			C80.1-122.3,80.1-120.5,81.2-119.4z"/>
		<path fill="#221F1F" d="M99.2-121.4c0.6,0.6,1.3,0.9,2.1,0.9c0.7,0,1.5-0.3,2.1-0.9l0.9-0.9l1.2-1.2h-7
			C98.3-122.7,98.6-121.9,99.2-121.4z"/>
		<path fill="#221F1F" d="M101.2-107.6l-2.1,2.1c-1.1,1.1-1.1,3,0,4.1c0.6,0.6,1.3,0.9,2.1,0.9c0.7,0,1.5-0.3,2.1-0.9l0.9-0.9
			l17.1-17.1c1.1-1.1,1.1-2.9,0.1-4H117l-12.9,12.9L101.2-107.6z"/>
		<path fill="#B2D235" d="M165.8-85.6v-16.7l-17.1-17.1c-1.1-1.1-1.1-2.9-0.1-4h-10.7c0,0.4,0,0.8,0,1.2
			C142.1-118.5,157.3-104.6,165.8-85.6z"/>
		<path fill="#B2D235" d="M194.5-117.5c2.2-2.2,4-3.7,5-4.7c0-0.4,0-0.8,0-1.2h-4.9c0,0.7,0,1.3,0,2
			C194.7-120.1,194.6-118.8,194.5-117.5z"/>
		<polygon fill="#B2D235" points="165.8,-122.2 164.6,-123.4 152.9,-123.4 165.8,-110.5 		"/>
		<path fill="#221F1F" d="M133.1-123.1l0.4-0.3h-1.5c0,0.4,0,0.8,0,1.2C132.7-122.7,133.1-123,133.1-123.1z"/>
		<path fill="#221F1F" d="M199.5-122.2c0-0.4,0-0.8,0-1.2h-0.1C199.5-123,199.5-122.6,199.5-122.2
			C199.5-122.2,199.5-122.2,199.5-122.2z"/>
		<path fill="#221F1F" d="M137.9-122.2c0-0.4,0-0.8,0-1.2h-1.5l0.4,0.3C136.9-123,137.3-122.7,137.9-122.2z"/>
		<path fill="#B2D235" d="M171.6-103.5C171.6-103.5,171.6-103.5,171.6-103.5v18c2.9-6.5,6.8-12.9,11.7-19.3c1.3-1.6,2.5-3.2,3.8-4.7
			c1.1-3.9,1.8-7.9,1.8-12c0-0.7,0-1.3-0.1-2h-17.2c0,0,0,0,0,0V-103.5z"/>
		<path fill="#221F1F" d="M187-109.4c2.7-3.2,5.3-5.9,7.5-8.1c0.1-1.3,0.2-2.6,0.2-3.9c0-0.7,0-1.3,0-2h-5.8c0,0.7,0.1,1.3,0.1,2
			C188.9-117.3,188.2-113.3,187-109.4z"/>
		<path fill="#221F1F" d="M170.8-121.4c-0.6,0.6-1.3,0.9-2.1,0.9c-0.7,0-1.5-0.3-2.1-0.9l-0.9-0.9v11.7l5,5c0.6,0.6,0.9,1.3,0.9,2.1
			v-19.9C171.6-122.7,171.3-121.9,170.8-121.4z"/>
		<path fill="#221F1F" d="M171.6-85.5v-18c0,0.7-0.3,1.5-0.9,2.1c-0.6,0.6-1.3,0.9-2.1,0.9c-0.7,0-1.5-0.3-2.1-0.9l-0.9-0.9v16.7
			c1.1,2.5,2.1,5.1,2.9,7.7C169.5-80.4,170.5-83,171.6-85.5z"/>
		<path fill="#221F1F" d="M166.6-121.4c0.6,0.6,1.3,0.9,2.1,0.9c0.7,0,1.5-0.3,2.1-0.9c0.6-0.6,0.9-1.3,0.9-2.1c0,0,0,0,0,0h-7
			l1.2,1.2L166.6-121.4z"/>
		<path fill="#221F1F" d="M148.7-119.4l17.1,17.1l0.9,0.9c0.6,0.6,1.3,0.9,2.1,0.9c0.7,0,1.5-0.3,2.1-0.9c0.6-0.6,0.9-1.3,0.9-2.1
			c0,0,0,0,0,0c0-0.7-0.3-1.5-0.9-2.1l-5-5l-12.9-12.9h-4.3C147.6-122.3,147.6-120.5,148.7-119.4z"/>
		<path fill="#B2D235" d="M30.8-85.6v-16.7l-17.1-17.1c-1.1-1.1-1.1-2.9-0.1-4H2.9c0,0.4,0,0.8,0,1.2
			C7.2-118.5,22.4-104.6,30.8-85.6z"/>
		<polygon fill="#B2D235" points="30.8,-122.2 29.6,-123.4 17.9,-123.4 30.8,-110.5 		"/>
		<path fill="#B2D235" d="M36.6-123.4C36.6-123.4,36.6-123.4,36.6-123.4l27.9,0c0,0.4,0,0.8,0,1.2c-2.6,2.2-9.4,8.4-16.3,17.4
			c-4.9,6.4-8.8,12.9-11.7,19.3v-18c0,0,0,0,0,0V-123.4z M39.5-116.9c0,1.9,1.5,3.4,3.4,3.4c1.9,0,3.4-1.5,3.4-3.4
			c0-1.9-1.5-3.4-3.4-3.4C41.1-120.3,39.5-118.8,39.5-116.9z"/>
		<path fill="#221F1F" d="M70.4-122.2c0-0.4,0-0.8,0-1.2h-1.5l0.4,0.3C69.4-123,69.8-122.7,70.4-122.2z"/>
		<path fill="#221F1F" d="M65.7-123.1l0.4-0.3h-1.5c0,0.4,0,0.8,0,1.2C65.2-122.7,65.6-123,65.7-123.1z"/>
		<path fill="#221F1F" d="M1.8-123.1c0.1,0.1,0.5,0.4,1.1,0.9c0-0.4,0-0.8,0-1.2H1.4L1.8-123.1z"/>
		<path fill="#221F1F" d="M35.8-121.4c-0.6,0.6-1.3,0.9-2.1,0.9c-0.7,0-1.5-0.3-2.1-0.9l-0.9-0.9v11.7l5,5c0.6,0.6,0.9,1.3,0.9,2.1
			v-19.9C36.6-122.7,36.4-121.9,35.8-121.4z"/>
		<path fill="#221F1F" d="M33.8-77.9c0.8-2.5,1.8-5,2.9-7.5v-18c0,0.7-0.3,1.5-0.9,2.1c-0.6,0.6-1.3,0.9-2.1,0.9
			c-0.7,0-1.5-0.3-2.1-0.9l-0.9-0.9v16.7C31.9-83.1,32.9-80.6,33.8-77.9z"/>
		<path fill="#221F1F" d="M31.7-121.4c0.6,0.6,1.3,0.9,2.1,0.9c0.7,0,1.5-0.3,2.1-0.9c0.6-0.6,0.9-1.3,0.9-2.1c0,0,0,0,0,0h-7
			l1.2,1.2L31.7-121.4z"/>
		<path fill="#221F1F" d="M13.7-119.4l17.1,17.1l0.9,0.9c0.6,0.6,1.3,0.9,2.1,0.9c0.7,0,1.5-0.3,2.1-0.9c0.6-0.6,0.9-1.3,0.9-2.1
			c0,0,0,0,0,0c0-0.7-0.3-1.5-0.9-2.1l-5-5l-12.9-12.9h-4.3C12.6-122.3,12.6-120.5,13.7-119.4z"/>
		<circle fill="#221F1F" cx="42.9" cy="-116.9" r="3.4"/>
		<path fill="#221F1F" d="M200.6-123.1l0.4-0.3h-1.5c0,0.4,0,0.8,0,1.2C200.2-122.7,200.5-123,200.6-123.1z"/>
		<path fill="#2A6649" d="M64.6-23.9v-16.7L47.5-57.7c-1.1-1.1-1.1-3,0-4.1c1.1-1.1,3-1.1,4.1,0l13,13v-11.7L47.7-77.4
			c-1.1-1.1-1.1-3,0-4.1c1.1-1.1,3-1.1,4.1,0l12.8,12.8v-13.8L53.8-93.4c-1.1-1.1-1.1-3,0-4.1c1.1-1.1,3-1.1,4.1,0l6.7,6.7v-23.5
			c-9,8.7-27.7,29.7-27.9,53.8C40.9-56.8,56.1-42.9,64.6-23.9z"/>
		<path fill="#2A6649" d="M77.1-97.5c1.1-1.1,3-1.1,4.1,0c1.1,1.1,1.1,3,0,4.1L70.4-82.6v13.8l12.8-12.8c1.1-1.1,3-1.1,4.1,0
			c1.1,1.1,1.1,3,0,4.1L70.4-60.5v11.7l13-13c1.1-1.1,3-1.1,4.1,0c1.1,1.1,1.1,3,0,4.1L70.4-40.6v16.8c2.9-6.5,6.8-12.9,11.7-19.3
			c6.9-9,13.7-15.1,16.3-17.4c-0.2-24.1-18.9-45.1-27.9-53.8v23.5L77.1-97.5z"/>
		<path fill="#221F1F" d="M70.4-120.8v6.6c9,8.7,27.7,29.7,27.9,53.8c0,0,0,0,0,0c0-5.7,1-11.5,2.9-17.5c-0.8-2.6-1.8-5.2-2.9-7.7
			c-8.5-19-23.7-32.9-27.9-36.5c0,0,0,0,0,0c-0.6-0.5-1-0.8-1.1-0.9l-0.4-0.3h-0.1C69.7-122.9,70.4-122,70.4-120.8z"/>
		<path fill="#221F1F" d="M64.6-122.2c-2.6,2.2-9.4,8.4-16.3,17.4c-4.9,6.4-8.8,12.9-11.7,19.3c-1.1,2.5-2.1,5-2.9,7.5
			c1.7,5.5,2.8,11.4,2.9,17.5c0,0,0,0,0,0c0.2-24.1,18.9-45.1,27.9-53.8v-6.6c0-1.1,0.7-2.1,1.6-2.6h-0.1l-0.4,0.3
			C65.6-123,65.2-122.7,64.6-122.2z"/>
		<path fill="#221F1F" d="M69.5-39.7c-0.6,0.6-1.3,0.9-2.1,0.9c-0.7,0-1.5-0.3-2.1-0.9l-0.9-0.9v16.7c1.1,2.5,2.1,5.1,2.9,7.7
			c0.8-2.5,1.8-5,2.9-7.5v-16.8L69.5-39.7z"/>
		<path fill="#221F1F" d="M70.4-68.7v-13.8l-0.9,0.9c-0.6,0.6-1.3,0.9-2.1,0.9c-0.7,0-1.5-0.3-2.1-0.9l-0.9-0.9v13.8l2.9,2.9
			L70.4-68.7z"/>
		<path fill="#221F1F" d="M70.4-48.8v-11.7l-0.9,0.9c-0.6,0.6-1.3,0.9-2.1,0.9c-0.7,0-1.5-0.3-2.1-0.9l-0.9-0.9v11.7l2.9,2.9
			L70.4-48.8z"/>
		<path fill="#221F1F" d="M64.6-120.8v6.6v23.5l2.9,2.9l2.9-2.9v-23.5v-6.6c0-1.1-0.7-2.1-1.6-2.6h-2.6
			C65.2-122.9,64.6-122,64.6-120.8z"/>
		<path fill="#221F1F" d="M57.9-97.5c-1.1-1.1-3-1.1-4.1,0c-1.1,1.1-1.1,3,0,4.1l10.8,10.8l0.9,0.9c-1.1-1.1-1.1-3,0-4.1l2.1-2.1
			l-2.9-2.9L57.9-97.5z"/>
		<path fill="#221F1F" d="M65.4-63.8l2.1-2.1l-2.9-2.9L51.8-81.5c-1.1-1.1-3-1.1-4.1,0c-1.1,1.1-1.1,3,0,4.1l16.9,16.9l0.9,0.9
			C64.3-60.8,64.3-62.6,65.4-63.8z"/>
		<path fill="#221F1F" d="M65.4-43.8l2.1-2.1l-2.9-2.9l-13-13c-1.1-1.1-3-1.1-4.1,0c-1.1,1.1-1.1,3,0,4.1l17.1,17.1l0.9,0.9
			C64.3-40.9,64.3-42.7,65.4-43.8z"/>
		<path fill="#221F1F" d="M67.5-38.9c0.7,0,1.5-0.3,2.1-0.9C69-39.2,68.2-38.9,67.5-38.9z"/>
		<path fill="#221F1F" d="M65.4-85.8c-1.1,1.1-1.1,3,0,4.1c0.6,0.6,1.3,0.9,2.1,0.9c0.7,0,1.5-0.3,2.1-0.9l0.9-0.9l10.8-10.8
			c1.1-1.1,1.1-3,0-4.1c-1.1-1.1-3-1.1-4.1,0l-6.7,6.7l-2.9,2.9L65.4-85.8z"/>
		<path fill="#221F1F" d="M67.5-65.8l-2.1,2.1c-1.1,1.1-1.1,3,0,4.1c0.6,0.6,1.3,0.9,2.1,0.9c0.7,0,1.5-0.3,2.1-0.9l0.9-0.9
			l16.9-16.9c1.1-1.1,1.1-3,0-4.1c-1.1-1.1-3-1.1-4.1,0L70.4-68.7L67.5-65.8z"/>
		<path fill="#221F1F" d="M67.5-45.9l-2.1,2.1c-1.1,1.1-1.1,3,0,4.1c0.6,0.6,1.3,0.9,2.1,0.9c0.7,0,1.5-0.3,2.1-0.9l0.9-0.9
			l17.1-17.1c1.1-1.1,1.1-3,0-4.1c-1.1-1.1-3-1.1-4.1,0l-13,13L67.5-45.9z"/>
		<path fill="#2A6649" d="M132.1-23.9v-16.7l-17.1-17.1c-1.1-1.1-1.1-3,0-4.1c1.1-1.1,3-1.1,4.1,0l13,13v-11.7l-16.9-16.9
			c-1.1-1.1-1.1-3,0-4.1c1.1-1.1,3-1.1,4.1,0l12.8,12.8v-13.8l-10.8-10.8c-1.1-1.1-1.1-3,0-4.1c1.1-1.1,3-1.1,4.1,0l6.7,6.7v-23.5
			c-9,8.7-27.7,29.7-27.9,53.8C108.4-56.8,123.6-42.9,132.1-23.9z"/>
		<path fill="#2A6649" d="M148.9-93.4c7.9,11.4,12.1,23,12.1,33.7c0,1.3-0.1,2.6-0.2,3.9c2.2-2.2,4-3.7,5-4.7
			c-0.2-24.1-18.9-45.1-27.9-53.8v7.7C139.8-104.7,144.3-100,148.9-93.4z"/>
		<path fill="#221F1F" d="M132.1-122.2C132.1-122.2,132-122.2,132.1-122.2c-2.6,2.2-9.4,8.4-16.3,17.4c-4.9,6.4-8.8,12.9-11.7,19.3
			c-1.1,2.5-2.1,5-2.9,7.5c-1.9,5.9-2.9,11.8-2.9,17.5c0.6-0.5,1-0.8,1.1-0.9l1.8-1.5l1.8,1.5c0.1,0.1,0.5,0.4,1.1,0.9
			c0.2-24.1,18.9-45.1,27.9-53.8v-6.6h2.9v0v0h2.9v6.6c9,8.7,27.7,29.7,27.9,53.8c0,0,0,0,0,0c0-5.7,1-11.5,2.9-17.5
			c-0.8-2.6-1.8-5.2-2.9-7.7c-8.5-19-23.7-32.9-27.9-36.5c-0.6-0.5-1-0.8-1.1-0.9l-0.4-0.3h-2.8l-0.4,0.3
			C133.1-123,132.7-122.7,132.1-122.2z"/>
		
			<line fill="none" stroke="#C2D955" stroke-width="0" stroke-linecap="round" stroke-linejoin="round" x1="135" y1="-120.8" x2="135" y2="-120.8"/>
		<path fill="#2A6649" d="M137.9-98.1v14.3c0,0,0,0,0,0v22.1c0,0,0,0,0,0v19.9c0,0,0,0,0,0v18c2.9-6.5,6.8-12.9,11.7-19.3
			c1.3-1.6,2.5-3.2,3.8-4.7c1.1-3.9,1.8-7.9,1.8-12C155.1-75.9,144.4-90.6,137.9-98.1z"/>
		<path fill="#221F1F" d="M132.1-90.8l5,5c0.6,0.6,0.9,1.3,0.9,2.1v-14.3c6.5,7.5,17.3,22.2,17.3,38.3c0,4.1-0.7,8.1-1.8,12
			c2.7-3.2,5.3-5.9,7.5-8.1c0.1-1.3,0.2-2.6,0.2-3.9c0-10.7-4.2-22.3-12.1-33.7c-4.6-6.6-9.1-11.3-11-13.1v-7.7v-6.6H135h-2.9v6.6
			V-90.8z"/>
		<path fill="#221F1F" d="M137-63.8c0.6,0.6,0.9,1.3,0.9,2.1v-22.1c0,0.7-0.3,1.5-0.9,2.1c-0.6,0.6-1.3,0.9-2.1,0.9
			c-0.7,0-1.5-0.3-2.1-0.9l-0.9-0.9v13.8L137-63.8z"/>
		<path fill="#221F1F" d="M137-39.7c-0.6,0.6-1.3,0.9-2.1,0.9c-0.7,0-1.5-0.3-2.1-0.9l-0.9-0.9v16.7c1.1,2.5,2.1,5.1,2.9,7.7
			c0.8-2.5,1.8-5,2.9-7.5v-18C137.9-41,137.6-40.3,137-39.7z"/>
		<path fill="#221F1F" d="M137-43.8c0.6,0.6,0.9,1.3,0.9,2.1v-19.9c0,0.7-0.3,1.5-0.9,2.1c-0.6,0.6-1.3,0.9-2.1,0.9
			c-0.7,0-1.5-0.3-2.1-0.9l-0.9-0.9v11.7L137-43.8z"/>
		<path fill="#221F1F" d="M135-80.9c0.7,0,1.5-0.3,2.1-0.9c0.6-0.6,0.9-1.3,0.9-2.1c0,0,0,0,0,0c0-0.7-0.3-1.5-0.9-2.1l-5-5
			l-6.7-6.7c-1.1-1.1-3-1.1-4.1,0c-1.1,1.1-1.1,3,0,4.1l10.8,10.8l0.9,0.9C133.5-81.1,134.2-80.9,135-80.9z"/>
		<path fill="#221F1F" d="M135-58.8c0.7,0,1.5-0.3,2.1-0.9c0.6-0.6,0.9-1.3,0.9-2.1c0,0,0,0,0,0c0-0.7-0.3-1.5-0.9-2.1l-5-5
			l-12.8-12.8c-1.1-1.1-3-1.1-4.1,0c-1.1,1.1-1.1,3,0,4.1l16.9,16.9l0.9,0.9C133.5-59.1,134.2-58.8,135-58.8z"/>
		<path fill="#221F1F" d="M135-38.9c0.7,0,1.5-0.3,2.1-0.9c0.6-0.6,0.9-1.3,0.9-2.1c0,0,0,0,0,0c0-0.7-0.3-1.5-0.9-2.1l-5-5l-13-13
			c-1.1-1.1-3-1.1-4.1,0c-1.1,1.1-1.1,3,0,4.1l17.1,17.1l0.9,0.9C133.5-39.2,134.2-38.9,135-38.9z"/>
		<path fill="#5D7244" d="M30.8-60.5c-2.6,2.2-9.4,8.4-16.3,17.4C9.7-36.7,5.8-30.2,2.9-23.8v-18c0,0,0,0,0,0v-19.9c0,0,0,0,0,0
			v-22.1c0,0,0,0,0,0v-30.5C11.9-105.5,30.6-84.5,30.8-60.5z M12.6-55.2c0-1.9-1.5-3.4-3.4-3.4c-1.9,0-3.4,1.5-3.4,3.4
			c0,1.9,1.5,3.4,3.4,3.4C11.1-51.8,12.6-53.3,12.6-55.2z M12.6-65.3c0-1.9-1.5-3.4-3.4-3.4c-1.9,0-3.4,1.5-3.4,3.4s1.5,3.4,3.4,3.4
			C11.1-61.8,12.6-63.4,12.6-65.3z M12.6-75.3c0-1.9-1.5-3.4-3.4-3.4c-1.9,0-3.4,1.5-3.4,3.4c0,1.9,1.5,3.4,3.4,3.4
			C11.1-71.9,12.6-73.5,12.6-75.3z"/>
		<path fill="#221F1F" d="M2.9-120.8v6.6c9,8.7,27.7,29.7,27.9,53.8c0.6-0.5,1-0.9,1.1-0.9l1.8-1.5l1.8,1.5c0.1,0.1,0.5,0.4,1.1,0.9
			c-0.1-6.1-1.1-11.9-2.9-17.5c-0.8-2.6-1.8-5.2-2.9-7.7c-8.5-19-23.7-32.9-27.9-36.5c-0.6-0.5-1-0.8-1.1-0.9l-0.4-0.3H1.3
			C2.3-122.9,2.9-122,2.9-120.8z"/>
		<path fill="#221F1F" d="M2.9-61.7v-22.1c0,0.7-0.3,1.5-0.9,2.1c-0.6,0.6-1.3,0.9-2.1,0.9v15l2.1,2.1C2.6-63.2,2.9-62.4,2.9-61.7z"
			/>
		<path fill="#221F1F" d="M2.9-23.8v-18c0,0.7-0.3,1.5-0.9,2.1c-0.6,0.6-1.3,0.9-2.1,0.9v22.7C0.8-18.7,1.8-21.2,2.9-23.8z"/>
		<path fill="#221F1F" d="M2.9-83.8v-30.5v-6.6c0-1.1-0.7-2.1-1.6-2.6H0v2.6v32.9l2.1,2.1C2.6-85.2,2.9-84.5,2.9-83.8z"/>
		<path fill="#221F1F" d="M2.9-41.8v-19.9c0,0.7-0.3,1.5-0.9,2.1c-0.6,0.6-1.3,0.9-2.1,0.9v12.9l2.1,2.1C2.6-43.3,2.9-42.5,2.9-41.8
			z"/>
		<path fill="#221F1F" d="M2.9-83.8C2.9-83.8,2.9-83.8,2.9-83.8c0-0.7-0.3-1.5-0.9-2.1L0-87.9v7c0.7,0,1.5-0.3,2.1-0.9
			C2.6-82.3,2.9-83,2.9-83.8z"/>
		<path fill="#221F1F" d="M2.9-61.7C2.9-61.7,2.9-61.7,2.9-61.7c0-0.7-0.3-1.5-0.9-2.1L0-65.8v7c0.7,0,1.5-0.3,2.1-0.9
			C2.6-60.2,2.9-61,2.9-61.7z"/>
		<path fill="#221F1F" d="M2.9-41.8C2.9-41.8,2.9-41.8,2.9-41.8c0-0.7-0.3-1.5-0.9-2.1L0-45.9v7c0.7,0,1.5-0.3,2.1-0.9
			C2.6-40.3,2.9-41,2.9-41.8z"/>
		<circle fill="#221F1F" cx="9.2" cy="-75.3" r="3.4"/>
		<circle fill="#221F1F" cx="9.2" cy="-65.3" r="3.4"/>
		<path fill="#221F1F" d="M9.2-58.6c-1.9,0-3.4,1.5-3.4,3.4c0,1.9,1.5,3.4,3.4,3.4c1.9,0,3.4-1.5,3.4-3.4
			C12.6-57.1,11.1-58.6,9.2-58.6z"/>
		<path fill="#5D7244" d="M199.5-23.9v-16.7l-17.1-17.1c-1.1-1.1-1.1-3,0-4.1c1.1-1.1,3-1.1,4.1,0l13,13v-11.7l-16.9-16.9
			c-1.1-1.1-1.1-3,0-4.1c1.1-1.1,3-1.1,4.1,0l12.8,12.8v-13.8l-10.8-10.8c-1.1-1.1-1.1-3,0-4.1c1.1-1.1,3-1.1,4.1,0l6.7,6.7v-23.5
			c-9,8.7-27.7,29.7-27.9,53.8C175.9-56.8,191.1-42.9,199.5-23.9z"/>
		<path fill="#221F1F" d="M199.5-122.2C199.5-122.2,199.5-122.2,199.5-122.2c-1.1,0.9-2.8,2.5-5,4.7c-2.2,2.1-4.8,4.9-7.5,8.1
			c-1.2,1.5-2.5,3-3.8,4.7c-4.9,6.4-8.8,12.9-11.7,19.3c-1.1,2.5-2.1,5-2.9,7.5c-1.9,5.9-2.9,11.8-2.9,17.5c0.6-0.5,1-0.8,1.1-0.9
			l1.8-1.5l1.8,1.5c0.1,0.1,0.5,0.4,1.1,0.9c0.2-24.1,18.9-45.1,27.9-53.8v-6.6c0-1.1,0.7-2.1,1.6-2.6H201l-0.4,0.3
			C200.5-123,200.2-122.7,199.5-122.2z"/>
		<path fill="#221F1F" d="M202.4-58.8c-0.7,0-1.5-0.3-2.1-0.9l-0.9-0.9v11.7l2.9,2.9L202.4-58.8C202.5-58.8,202.5-58.8,202.4-58.8z"
			/>
		<path fill="#221F1F" d="M202.4-80.9c-0.7,0-1.5-0.3-2.1-0.9l-0.9-0.9v13.8l2.9,2.9L202.4-80.9C202.5-80.9,202.5-80.9,202.4-80.9z"
			/>
		<path fill="#221F1F" d="M202.4-38.9c-0.7,0-1.5-0.3-2.1-0.9l-0.9-0.9v16.7c1.1,2.5,2.1,5.1,2.9,7.7c0,0,0,0,0,0L202.4-38.9
			C202.5-38.9,202.5-38.9,202.4-38.9z"/>
		<path fill="#221F1F" d="M199.5-120.8v6.6v23.5l2.9,2.9v-35.6h-1.3C200.2-122.9,199.5-122,199.5-120.8z"/>
		<path fill="#221F1F" d="M199.5-90.8l-6.7-6.7c-1.1-1.1-3-1.1-4.1,0c-1.1,1.1-1.1,3,0,4.1l10.8,10.8l0.9,0.9
			c0.6,0.6,1.3,0.9,2.1,0.9c0,0,0,0,0,0v-7L199.5-90.8z"/>
		<path fill="#221F1F" d="M199.5-68.7l-12.8-12.8c-1.1-1.1-3-1.1-4.1,0c-1.1,1.1-1.1,3,0,4.1l16.9,16.9l0.9,0.9
			c0.6,0.6,1.3,0.9,2.1,0.9c0,0,0,0,0,0v-7L199.5-68.7z"/>
		<path fill="#221F1F" d="M199.5-48.8l-13-13c-1.1-1.1-3-1.1-4.1,0c-1.1,1.1-1.1,3,0,4.1l17.1,17.1l0.9,0.9c0.6,0.6,1.3,0.9,2.1,0.9
			c0,0,0,0,0,0v-7L199.5-48.8z"/>
		<path fill="#BC6054" d="M81.4-15.7c-1.1-1.1-1.1-3,0-4.1c1.1-1.1,3-1.1,4.1,0L98.3-7v-13.8L87.5-31.7c-1.1-1.1-1.1-3,0-4.1
			c1.1-1.1,3-1.1,4.1,0l6.7,6.7v-23.5C89.5-44,71.3-23.6,70.4,0h10.7c0,0,0-0.1,0.1-0.1c1.1-1.1,3-1.1,4.1,0L85.4,0h11.7L81.4-15.7z
			"/>
		<path fill="#BC6054" d="M104.1-52.6v23.5l6.7-6.7c1.1-1.1,3-1.1,4.1,0c1.1,1.1,1.1,3,0,4.1l-10.8,10.8V-7l12.8-12.8
			c1.1-1.1,3-1.1,4.1,0c1.1,1.1,1.1,3,0,4.1L105.3,0H117l0.1-0.1c1.1-1.1,3-1.1,4.1,0c0,0,0,0.1,0.1,0.1H132
			C131.2-23.6,113-44,104.1-52.6z"/>
		<path fill="#221F1F" d="M135-16.2c-0.8-2.6-1.8-5.2-2.9-7.7c-8.5-19-23.7-32.9-27.9-36.5c-0.6-0.5-1-0.8-1.1-0.9l-1.8-1.5
			l-1.8,1.5c-0.1,0.1-0.5,0.4-1.1,0.9c0,0,0,0,0,0C95.7-58.2,88.9-52,82-43.1c-4.9,6.4-8.8,12.9-11.7,19.3c-1.1,2.5-2.1,5-2.9,7.5
			c1.6,5.2,2.7,10.6,2.9,16.2h0.1c0.8-23.6,19-44,27.9-52.6v-6.6c0-1.6,1.3-2.9,2.9-2.9s2.9,1.3,2.9,2.9v6.6
			C113-44,131.2-23.6,132,0h0.1C132.3-5.3,133.2-10.7,135-16.2z"/>
		<path fill="#221F1F" d="M101.2-19.1c-0.7,0-1.5-0.3-2.1-0.9l-0.9-0.9V-7l2.9,2.9l2.9-2.9v-13.8l-0.9,0.9
			C102.7-19.4,102-19.1,101.2-19.1z"/>
		<path fill="#221F1F" d="M98.3-29.1l2.9,2.9l2.9-2.9v-23.5v-6.6c0-1.6-1.3-2.9-2.9-2.9s-2.9,1.3-2.9,2.9v6.6V-29.1z"/>
		<path fill="#221F1F" d="M99.2-24.1l2.1-2.1l-2.9-2.9l-6.7-6.7c-1.1-1.1-3-1.1-4.1,0c-1.1,1.1-1.1,3,0,4.1l10.8,10.8l0.9,0.9
			C98-21.1,98-23,99.2-24.1z"/>
		<path fill="#221F1F" d="M103.3-20c-0.6,0.6-1.3,0.9-2.1,0.9C102-19.1,102.7-19.4,103.3-20z"/>
		<path fill="#221F1F" d="M99.2-2.1l2.1-2.1L98.3-7L85.5-19.8c-1.1-1.1-3-1.1-4.1,0c-1.1,1.1-1.1,3,0,4.1L97.1,0h1.2
			C98.3-0.7,98.6-1.5,99.2-2.1z"/>
		<path fill="#221F1F" d="M81.2-0.1C81.2-0.1,81.2,0,81.2-0.1L85.4,0l-0.1-0.1C84.2-1.2,82.3-1.2,81.2-0.1z"/>
		<path fill="#221F1F" d="M101.2-26.2l-2.1,2.1c-1.1,1.1-1.1,3,0,4.1c0.6,0.6,1.3,0.9,2.1,0.9c0.7,0,1.5-0.3,2.1-0.9l0.9-0.9
			l10.8-10.8c1.1-1.1,1.1-3,0-4.1c-1.1-1.1-3-1.1-4.1,0l-6.7,6.7L101.2-26.2z"/>
		<path fill="#221F1F" d="M121-15.7c1.1-1.1,1.1-3,0-4.1c-1.1-1.1-3-1.1-4.1,0L104.1-7l-2.9,2.9l-2.1,2.1c-0.6,0.6-0.9,1.3-0.9,2.1
			h7L121-15.7z"/>
		<path fill="#221F1F" d="M117.1-0.1L117.1-0.1l4.2,0.1c0,0,0-0.1-0.1-0.1C120.1-1.2,118.3-1.2,117.1-0.1z"/>
		<path fill="#B2D235" d="M148.9-15.7c-1.1-1.1-1.1-3,0-4.1c1.1-1.1,3-1.1,4.1,0L165.8-7v-13.8L155-31.7c-1.1-1.1-1.1-3,0-4.1
			c1.1-1.1,3-1.1,4.1,0l6.7,6.7v-23.5c-8.8,8.6-27.1,29-27.9,52.6h10.7c0,0,0-0.1,0.1-0.1c1.1-1.1,3-1.1,4.1,0l0.1,0.1h11.7
			L148.9-15.7z"/>
		<path fill="#B2D235" d="M171.6-52.6v7.7c1.9,1.9,6.5,6.6,11,13.1C190-21,194.2-10.1,194.6,0h4.9C198.7-23.6,180.5-44,171.6-52.6z"
			/>
		<path fill="#221F1F" d="M202.5-16.2c-0.8-2.6-1.8-5.2-2.9-7.7c-8.5-19-23.7-32.9-27.9-36.5c-0.6-0.5-1-0.8-1.1-0.9l-1.8-1.5
			l-1.8,1.5c-0.1,0.1-0.5,0.4-1.1,0.9c0,0,0,0,0,0c-1.1,0.9-2.8,2.5-5,4.7c-2.2,2.1-4.8,4.9-7.5,8.1c-1.2,1.5-2.5,3-3.8,4.7
			c-4.9,6.4-8.8,12.9-11.7,19.3c-1.1,2.5-2.1,5-2.9,7.5c-1.8,5.5-2.7,10.9-2.9,16.2h1.5l1.4-1.1l1.4,1.1h1.5
			c0.8-23.6,19-44,27.9-52.6v-6.6h5.8v6.6c8.8,8.6,27.1,29,27.9,52.6h0.1C199.7-5.3,200.7-10.7,202.5-16.2z"/>
		<path fill="#B2D235" d="M171.6-36.4v14.3c0,0,0,0,0,0V0c0,0,0,0,0,0h17.2C188-15.4,177.9-29.2,171.6-36.4z"/>
		<path fill="#221F1F" d="M182.6-31.7c-4.6-6.6-9.1-11.3-11-13.1v-7.7v-6.6h-5.8v6.6v23.5l5,5c0.6,0.6,0.9,1.3,0.9,2.1v-14.3
			c6.2,7.1,16.4,21,17.2,36.4h5.8C194.2-10.1,190-21,182.6-31.7z"/>
		<path fill="#221F1F" d="M168.7-19.1c-0.7,0-1.5-0.3-2.1-0.9l-0.9-0.9V-7l5,5c0.6,0.6,0.9,1.3,0.9,2.1v-22.1c0,0.7-0.3,1.5-0.9,2.1
			C170.2-19.4,169.4-19.1,168.7-19.1z"/>
		<path fill="#221F1F" d="M159.1-35.8c-1.1-1.1-3-1.1-4.1,0c-1.1,1.1-1.1,3,0,4.1l10.8,10.8l0.9,0.9c0.6,0.6,1.3,0.9,2.1,0.9
			s1.5-0.3,2.1-0.9c0.6-0.6,0.9-1.3,0.9-2.1c0,0,0,0,0,0c0-0.7-0.3-1.5-0.9-2.1l-5-5L159.1-35.8z"/>
		<path fill="#221F1F" d="M171.6,0c0-0.7-0.3-1.5-0.9-2.1l-5-5L153-19.8c-1.1-1.1-3-1.1-4.1,0c-1.1,1.1-1.1,3,0,4.1L164.6,0L171.6,0
			C171.6,0,171.6,0,171.6,0z"/>
		<path fill="#221F1F" d="M148.7-0.1C148.7-0.1,148.6,0,148.7-0.1l4.2,0.1l-0.1-0.1C151.7-1.2,149.8-1.2,148.7-0.1z"/>
		<path fill="#B2D235" d="M64.5,0H36.6c0,0,0,0,0,0v-22.1c0,0,0,0,0,0v-30.5C45.5-44,63.7-23.6,64.5,0z M46.4-3.6
			c0-1.9-1.5-3.4-3.4-3.4c-1.9,0-3.4,1.5-3.4,3.4c0,1.9,1.5,3.4,3.4,3.4C44.8-0.1,46.4-1.7,46.4-3.6z M46.4-13.6
			c0-1.9-1.5-3.4-3.4-3.4c-1.9,0-3.4,1.5-3.4,3.4c0,1.9,1.5,3.4,3.4,3.4C44.8-10.2,46.4-11.8,46.4-13.6z"/>
		<path fill="#B2D235" d="M13.9-15.7c-1.1-1.1-1.1-3,0-4.1c1.1-1.1,3-1.1,4.1,0L30.8-7v-13.8L20-31.7c-1.1-1.1-1.1-3,0-4.1
			c1.1-1.1,3-1.1,4.1,0l6.7,6.7v-23.5C22-44,3.8-23.6,2.9,0h10.7c0,0,0-0.1,0.1-0.1c1.1-1.1,3-1.1,4.1,0L17.9,0h11.7L13.9-15.7z"/>
		<path fill="#221F1F" d="M67.5-16.2c-0.8-2.6-1.8-5.2-2.9-7.7c-8.5-19-23.7-32.9-27.9-36.5c0,0,0,0,0,0c-0.6-0.5-1-0.8-1.1-0.9
			l-1.8-1.5l-1.8,1.5c-0.1,0.1-0.5,0.4-1.1,0.9c-2.6,2.2-9.4,8.4-16.3,17.4C9.7-36.7,5.8-30.2,2.9-23.8c-1.1,2.5-2.1,5.1-2.9,7.6
			v2.5v12.5L1.4,0h1.5c0.8-23.6,19-44,27.9-52.6v-6.6c0-1.6,1.3-2.9,2.9-2.9s2.9,1.3,2.9,2.9v6.6C45.5-44,63.7-23.6,64.5,0h1.5
			l1.4-1.1L68.9,0h1.5C70.2-5.6,69.1-11.1,67.5-16.2z"/>
		<path fill="#221F1F" d="M33.7-19.1c-0.7,0-1.5-0.3-2.1-0.9l-0.9-0.9V-7l5,5c0.6,0.6,0.9,1.3,0.9,2.1v-22.1c0,0.7-0.3,1.5-0.9,2.1
			C35.2-19.4,34.5-19.1,33.7-19.1z"/>
		<path fill="#221F1F" d="M30.8-29.1l5,5c0.6,0.6,0.9,1.3,0.9,2.1v-30.5v-6.6c0-1.6-1.3-2.9-2.9-2.9s-2.9,1.3-2.9,2.9v6.6V-29.1z"/>
		<path fill="#221F1F" d="M30.8-29.1l-6.7-6.7c-1.1-1.1-3-1.1-4.1,0c-1.1,1.1-1.1,3,0,4.1l10.8,10.8l0.9,0.9
			c0.6,0.6,1.3,0.9,2.1,0.9s1.5-0.3,2.1-0.9c0.6-0.6,0.9-1.3,0.9-2.1c0,0,0,0,0,0c0-0.7-0.3-1.5-0.9-2.1L30.8-29.1z"/>
		<path fill="#221F1F" d="M36.6,0c0-0.7-0.3-1.5-0.9-2.1l-5-5L18-19.8c-1.1-1.1-3-1.1-4.1,0c-1.1,1.1-1.1,3,0,4.1L29.6,0L36.6,0
			C36.6,0,36.6,0,36.6,0z"/>
		<path fill="#221F1F" d="M13.7-0.1C13.7-0.1,13.7,0,13.7-0.1L17.9,0l-0.1-0.1C16.7-1.2,14.9-1.2,13.7-0.1z"/>
		<circle fill="#221F1F" cx="42.9" cy="-13.6" r="3.4"/>
		<path fill="#221F1F" d="M42.9-7c-1.9,0-3.4,1.5-3.4,3.4c0,1.9,1.5,3.4,3.4,3.4c1.9,0,3.4-1.5,3.4-3.4C46.4-5.4,44.8-7,42.9-7z"/>
		<path fill="#221F1F" d="M199.6,0h1.5l1.4-1.1l0,0v-15.1c0,0,0,0,0,0C200.7-10.7,199.7-5.3,199.6,0z"/>
		<path fill="#221F1F" d="M67.5-1.1L66.1,0h0.1c0.4-0.2,0.8-0.3,1.3-0.3s0.9,0.1,1.3,0.3h0.1L67.5-1.1z"/>
		<path fill="#221F1F" d="M67.5-0.3c-0.5,0-0.9,0.1-1.3,0.3h2.6C68.4-0.2,67.9-0.3,67.5-0.3z"/>
		<polygon fill="#221F1F" points="135,-1.1 133.5,0 136.4,0 		"/>
		<path fill="#221F1F" d="M0-1.1v0.8c0.5,0,0.9,0.1,1.3,0.3h0.1L0-1.1z"/>
		<path fill="#221F1F" d="M0-0.3V0h1.3C0.9-0.2,0.5-0.3,0-0.3z"/>
		<path fill="#221F1F" d="M201,0h0.1c0.4-0.2,0.8-0.3,1.3-0.3c0,0,0,0,0,0v-0.8l0,0L201,0z"/>
		<path fill="#221F1F" d="M201.1,0h1.3v-0.3c0,0,0,0,0,0C202-0.3,201.5-0.2,201.1,0z"/>
	</g>
</pattern>
<g>
</g>
<g>
	<path fill="#231F20" d="M799.2,145.6l34-145.5H729.5l-58.3,249.2h73.1l-34,145.5H814l58.3-249.2H799.2z M802.2,379.9h-73.1
		l34-145.5H690L741.3,15h73.2l-34,145.5h73.1L802.2,379.9z"/>
	
		<pattern  id="SVGID_00000089559614168435588570000015198704960009639046_" xlink:href="#New_Pattern_40" patternTransform="matrix(2.1253 0 0 2.1253 -1340.8831 4345.3687)">
	</pattern>
	<polygon fill="url(#SVGID_00000089559614168435588570000015198704960009639046_)" points="853.5,160.5 802.2,379.9 729.1,379.9 
		763.1,234.4 690,234.4 741.3,15 814.4,15 780.4,160.5 	"/>
	<path fill="#231F20" d="M320.8,145.6l-24.1,102.9h73.2l-10.2,43.4h-73.1l-24.1,102.9h176.8l58.3-249.2H320.8z M427.5,379.9H281.2
		l17.1-73.2h73.1l17.1-73.1h-73.2l17.1-73.2h146.3L427.5,379.9z"/>
	
		<pattern  id="SVGID_00000080193097432323954300000004466531223405133758_" xlink:href="#New_Pattern_40" patternTransform="matrix(2.1253 0 0 2.1253 -1340.8831 4345.3687)">
	</pattern>
	<polygon fill="url(#SVGID_00000080193097432323954300000004466531223405133758_)" points="478.9,160.5 427.5,379.9 281.2,379.9 
		298.4,306.8 371.5,306.8 388.6,233.6 315.5,233.6 332.6,160.5 	"/>
	<path fill="#231F20" d="M648.4,291.9l34.2-146.3H509.9l-24.1,102.9h69l-10.1,43.4h-69l-24.1,102.9h228.7l24.1-102.9H648.4z
		 M668.6,379.9H470.4l17.1-73.2h69l17.1-73.1h-69l17.1-73.2h142.1l-34.2,146.3h56L668.6,379.9z"/>
	
		<pattern  id="SVGID_00000163072198954893996410000008544948662399199104_" xlink:href="#New_Pattern_40" patternTransform="matrix(2.1253 0 0 2.1253 -1340.8831 4345.3687)">
	</pattern>
	<polygon fill="url(#SVGID_00000163072198954893996410000008544948662399199104_)" points="685.7,306.8 668.6,379.9 470.4,379.9 
		487.5,306.8 556.5,306.8 573.6,233.6 504.6,233.6 521.7,160.5 663.9,160.5 629.7,306.8 	"/>
	<path fill="#231F20" d="M58.3,145.6L0,394.8h103.7l34.2-146.3h42.6l-34.2,146.3H250l58.3-249.2H58.3z M238.2,379.9h-73.1
		l34.2-146.3h-73.1L91.9,379.9H18.8l51.3-219.4h219.4L238.2,379.9z"/>
	
		<pattern  id="SVGID_00000126294900197663382650000005317161053874871715_" xlink:href="#New_Pattern_40" patternTransform="matrix(2.1253 0 0 2.1253 -1340.8831 4345.3687)">
	</pattern>
	<polygon fill="url(#SVGID_00000126294900197663382650000005317161053874871715_)" points="289.5,160.5 238.2,379.9 165.1,379.9 
		199.3,233.6 126.1,233.6 91.9,379.9 18.8,379.9 70.1,160.5 	"/>
</g>
</svg>
