<?xml version="1.0" encoding="utf-8"?>
<!-- Generator: Adobe Illustrator 26.3.1, SVG Export Plug-In . SVG Version: 6.00 Build 0)  -->
<svg version="1.1" xmlns="http://www.w3.org/2000/svg" xmlns:xlink="http://www.w3.org/1999/xlink" x="0px" y="0px"
	 viewBox="0 0 599.4 78.1" enable-background="new 0 0 599.4 78.1" xml:space="preserve">
<g id="Layer_2">
	<g>
		<g>
			<g>
				<path fill="#BB3A07" d="M2.2,76.2v-68h24.7c18.5,0,28.7,8.7,28.7,24.4C55.6,47.7,45.4,57,28.8,57H18.4v19.2H2.2z M26.1,43.8
					c10.8,0,13.1-6.1,13.1-11.2c0-7.2-4.9-11.2-13.7-11.2h-7.1v22.4H26.1z"/>
				<path fill="#7F2602" d="M26.9,9.2c17.3,0,27.7,7.8,27.7,23.4S43.7,56,28.8,56H17.4v19.2H3.2v-66H26.9 M17.4,44.8h8.7
					c9,0,14.1-4.3,14.1-12.2c0-7.5-4.9-12.2-14.7-12.2h-8.1V44.8 M26.9,7.2H3.2h-2v2v66v2h2h14.2h2v-2V58h9.4
					c17.1,0,27.8-9.7,27.8-25.4c0-8.3-2.7-14.7-8.1-19.1C43.4,9.3,36.2,7.2,26.9,7.2L26.9,7.2z M19.4,22.4h6.1
					c5.8,0,12.7,1.8,12.7,10.2s-6.6,10.2-12.1,10.2h-6.7V22.4L19.4,22.4z"/>
			</g>
			<g>
				<path fill="#BB3A07" d="M102.8,76.9c-19.9,0-33.2-14-33.2-34.8c0-20.7,13.3-34.6,33.2-34.6c19.8,0,33.1,13.9,33.1,34.6
					C135.9,62.9,122.6,76.9,102.8,76.9z M102.8,21.8c-10.2,0-16.8,8-16.8,20.3c0,12.4,6.6,20.4,16.8,20.4c10.1,0,16.7-8,16.7-20.4
					C119.5,29.8,113,21.8,102.8,21.8z"/>
				<path fill="#7F2602" d="M102.8,8.5c18.9,0,32.1,13,32.1,33.6c0,20.8-13.2,33.8-32.1,33.8c-18.9,0-32.2-13-32.2-33.8
					C70.6,21.5,83.9,8.5,102.8,8.5 M102.8,63.5c10.3,0,17.7-7.9,17.7-21.4c0-13.4-7.4-21.3-17.7-21.3C92.5,20.8,85,28.7,85,42.1
					C85,55.6,92.5,63.5,102.8,63.5 M102.8,6.5c-20.5,0-34.2,14.3-34.2,35.6c0,21.4,13.7,35.8,34.2,35.8c20.4,0,34.1-14.4,34.1-35.8
					C136.9,20.8,123.2,6.5,102.8,6.5L102.8,6.5z M102.8,61.5c-9.6,0-15.8-7.6-15.8-19.4c0-11.7,6.2-19.3,15.8-19.3
					c9.5,0,15.7,7.6,15.7,19.3C118.5,53.9,112.4,61.5,102.8,61.5L102.8,61.5z"/>
			</g>
			<g>
				<path fill="#BB3A07" d="M202.3,76.9c-11.4,0-15-7.2-18.3-13.5c-2.7-5.3-5-9.8-11.2-9.8h-2v22.6h-16.2v-68H178
					c18.4,0,27.4,7.6,27.4,23.3c0,8.7-4.2,15.1-12.1,18.8c2.3,1.7,3.8,4.2,5.3,6.6c2.2,3.6,4,6.7,8.1,6.7c1,0,1.8-0.2,1.8-0.2
					l1.1-0.2l1.1,12.9l-0.8,0.2C209.8,76.2,207.1,76.9,202.3,76.9z M176.1,41.6c8.3,0,13.3-3.7,13.3-10c0-8.4-6.6-10.2-12.2-10.2
					h-6.4v20.2H176.1z"/>
				<path fill="#7F2602" d="M178,9.2c17.2,0,26.4,6.8,26.4,22.3c0,9.2-4.9,15.4-13.3,18.6c7.1,3.3,7.3,14.4,15.6,14.4
					c1.1,0,2-0.2,2-0.2l0.9,10.9c0,0-2.6,0.7-7.3,0.7c-20.1,0-14.6-23.3-29.5-23.3h-3v22.6h-14.2v-66H178 M169.8,42.6h6.3
					c8.5,0,14.3-3.9,14.3-11c0-7.4-4.8-11.2-13.2-11.2h-7.4V42.6 M178,7.2h-22.4h-2v2v66v2h2h14.2h2v-2V54.6h1
					c5.4,0,7.4,3.5,10.4,9.3c3.2,6.3,7.1,14,19.1,14c4.9,0,7.7-0.7,7.8-0.8l1.6-0.4l-0.1-1.7l-0.9-10.9l-0.2-2.3l-2.2,0.5
					c0,0-0.7,0.2-1.6,0.2c-3.4,0-4.9-2.3-7.3-6.2c-1.2-2-2.5-4.1-4.3-5.9c7.4-3.9,11.3-10.4,11.3-19C206.4,15.4,196.9,7.2,178,7.2
					L178,7.2z M171.8,22.4h5.4c7.4,0,11.2,3.1,11.2,9.2c0,5.6-4.6,9-12.3,9h-4.3V22.4L171.8,22.4z"/>
			</g>
			<g>
				<polygon fill="#BB3A07" points="239.2,76.2 239.2,21.9 219.1,21.9 219.1,8.2 275.5,8.2 275.5,21.9 255.4,21.9 255.4,76.2 				
					"/>
				<path fill="#7F2602" d="M274.5,9.2v11.7h-20.1v54.3h-14.2V20.9h-20.1V9.2H274.5 M276.5,7.2h-2h-54.4h-2v2v11.7v2h2h18.1v52.3v2
					h2h14.2h2v-2V22.9h18.1h2v-2V9.2V7.2L276.5,7.2z"/>
			</g>
			<g>
				<polygon fill="#BB3A07" points="291.7,76.2 291.7,8.2 336.4,8.2 336.4,21.9 307.9,21.9 307.9,36.1 332.5,36.1 332.5,49.6 
					307.9,49.6 307.9,76.2 				"/>
				<path fill="#7F2602" d="M335.4,9.2v11.7h-28.5v16.2h24.6v11.5h-24.6v26.6h-14.2v-66H335.4 M337.4,7.2h-2h-42.7h-2v2v66v2h2h14.2
					h2v-2V50.6h22.6h2v-2V37.1v-2h-2h-22.6V22.9h26.5h2v-2V9.2V7.2L337.4,7.2z"/>
			</g>
			<g>
				<path fill="#BB3A07" d="M382.8,76.9c-19.9,0-33.2-14-33.2-34.8c0-20.7,13.3-34.6,33.2-34.6c19.8,0,33.1,13.9,33.1,34.6
					C415.9,62.9,402.6,76.9,382.8,76.9z M382.8,21.8c-10.2,0-16.8,8-16.8,20.3c0,12.4,6.6,20.4,16.8,20.4c10.1,0,16.7-8,16.7-20.4
					C399.5,29.8,393,21.8,382.8,21.8z"/>
				<path fill="#7F2602" d="M382.8,8.5c18.9,0,32.1,13,32.1,33.6c0,20.8-13.2,33.8-32.1,33.8s-32.2-13-32.2-33.8
					C350.6,21.5,363.9,8.5,382.8,8.5 M382.8,63.5c10.3,0,17.7-7.9,17.7-21.4c0-13.4-7.4-21.3-17.7-21.3S365,28.7,365,42.1
					C365,55.6,372.5,63.5,382.8,63.5 M382.8,6.5c-20.5,0-34.2,14.3-34.2,35.6c0,21.4,13.7,35.8,34.2,35.8
					c20.4,0,34.1-14.4,34.1-35.8C416.9,20.8,403.2,6.5,382.8,6.5L382.8,6.5z M382.8,61.5c-9.6,0-15.8-7.6-15.8-19.4
					c0-11.7,6.2-19.3,15.8-19.3c9.5,0,15.7,7.6,15.7,19.3C398.5,53.9,392.4,61.5,382.8,61.5L382.8,61.5z"/>
			</g>
			<g>
				<polygon fill="#BB3A07" points="434.6,76.2 434.6,8.2 450.8,8.2 450.8,62.5 480.6,62.5 480.6,76.2 				"/>
				<path fill="#7F2602" d="M449.8,9.2v54.3h29.8v11.7h-44v-66H449.8 M451.8,7.2h-2h-14.2h-2v2v66v2h2h44h2v-2V63.5v-2h-2h-27.8V9.2
					V7.2L451.8,7.2z"/>
			</g>
			<g>
				<rect x="496.7" y="8.2" fill="#BB3A07" width="15.9" height="68"/>
				<path fill="#7F2602" d="M511.6,9.2v66h-13.9v-66H511.6 M513.6,7.2h-2h-13.9h-2v2v66v2h2h13.9h2v-2v-66V7.2L513.6,7.2z"/>
			</g>
			<g>
				<path fill="#BB3A07" d="M564.5,76.9c-19.9,0-33.2-14-33.2-34.8c0-20.7,13.3-34.6,33.2-34.6c19.8,0,33.1,13.9,33.1,34.6
					C597.6,62.9,584.3,76.9,564.5,76.9z M564.5,21.8c-10.2,0-16.8,8-16.8,20.3c0,12.4,6.6,20.4,16.8,20.4c10.1,0,16.7-8,16.7-20.4
					C581.2,29.8,574.7,21.8,564.5,21.8z"/>
				<path fill="#7F2602" d="M564.5,8.5c18.9,0,32.1,13,32.1,33.6c0,20.8-13.2,33.8-32.1,33.8s-32.2-13-32.2-33.8
					C532.3,21.5,545.6,8.5,564.5,8.5 M564.5,63.5c10.3,0,17.7-7.9,17.7-21.4c0-13.4-7.4-21.3-17.7-21.3s-17.8,7.9-17.8,21.3
					C546.7,55.6,554.2,63.5,564.5,63.5 M564.5,6.5c-20.5,0-34.2,14.3-34.2,35.6c0,21.4,13.7,35.8,34.2,35.8
					c20.4,0,34.1-14.4,34.1-35.8C598.6,20.8,584.9,6.5,564.5,6.5L564.5,6.5z M564.5,61.5c-9.6,0-15.8-7.6-15.8-19.4
					c0-11.7,6.2-19.3,15.8-19.3c9.5,0,15.7,7.6,15.7,19.3C580.2,53.9,574.1,61.5,564.5,61.5L564.5,61.5z"/>
			</g>
		</g>
		<g>
			<g>
				<path fill="#F95B1C" d="M2.2,69.7v-68h24.7c18.5,0,28.7,8.7,28.7,24.4c0,15.1-10.3,24.4-26.8,24.4H18.4v19.2H2.2z M26.1,37.3
					c10.8,0,13.1-6.1,13.1-11.2c0-7.2-4.9-11.2-13.7-11.2h-7.1v22.4H26.1z"/>
				<path fill="#FCB01A" d="M26.9,2.7c17.3,0,27.7,7.8,27.7,23.4c0,15.6-10.9,23.4-25.8,23.4H17.4v19.2H3.2v-66H26.9 M17.4,38.3h8.7
					c9,0,14.1-4.3,14.1-12.2c0-7.5-4.9-12.2-14.7-12.2h-8.1V38.3 M26.9,0.7H3.2h-2v2v66v2h2h14.2h2v-2V51.5h9.4
					c17.1,0,27.8-9.7,27.8-25.4c0-8.3-2.7-14.7-8.1-19.1C43.4,2.8,36.2,0.7,26.9,0.7L26.9,0.7z M19.4,15.9h6.1
					c5.8,0,12.7,1.8,12.7,10.2c0,8.4-6.6,10.2-12.1,10.2h-6.7V15.9L19.4,15.9z"/>
			</g>
			<g>
				<path fill="#F95B1C" d="M102.8,70.4c-19.9,0-33.2-14-33.2-34.8C69.6,14.9,83,1,102.8,1c19.8,0,33.1,13.9,33.1,34.6
					C135.9,56.4,122.6,70.4,102.8,70.4z M102.8,15.3c-10.2,0-16.8,8-16.8,20.3C86,48,92.6,56,102.8,56c10.1,0,16.7-8,16.7-20.4
					C119.5,23.3,113,15.3,102.8,15.3z"/>
				<path fill="#FCB01A" d="M102.8,2c18.9,0,32.1,13,32.1,33.6c0,20.8-13.2,33.8-32.1,33.8c-18.9,0-32.2-13-32.2-33.8
					C70.6,15,83.9,2,102.8,2 M102.8,57c10.3,0,17.7-7.9,17.7-21.4c0-13.4-7.4-21.3-17.7-21.3C92.5,14.3,85,22.2,85,35.6
					C85,49.1,92.5,57,102.8,57 M102.8,0C82.4,0,68.6,14.3,68.6,35.6c0,21.4,13.7,35.8,34.2,35.8c20.4,0,34.1-14.4,34.1-35.8
					C136.9,14.3,123.2,0,102.8,0L102.8,0z M102.8,55C93.2,55,87,47.4,87,35.6c0-11.7,6.2-19.3,15.8-19.3c9.5,0,15.7,7.6,15.7,19.3
					C118.5,47.4,112.4,55,102.8,55L102.8,55z"/>
			</g>
			<g>
				<path fill="#F95B1C" d="M202.3,70.4c-11.4,0-15-7.2-18.3-13.5c-2.7-5.3-5-9.8-11.2-9.8h-2v22.6h-16.2v-68H178
					c18.4,0,27.4,7.6,27.4,23.3c0,8.7-4.2,15.1-12.1,18.8c2.3,1.7,3.8,4.2,5.3,6.6c2.2,3.6,4,6.7,8.1,6.7c1,0,1.8-0.2,1.8-0.2
					l1.1-0.2l1.1,12.9l-0.8,0.2C209.8,69.7,207.1,70.4,202.3,70.4z M176.1,35.1c8.3,0,13.3-3.7,13.3-10c0-8.4-6.6-10.2-12.2-10.2
					h-6.4v20.2H176.1z"/>
				<path fill="#FCB01A" d="M178,2.7c17.2,0,26.4,6.8,26.4,22.3c0,9.2-4.9,15.4-13.3,18.6c7.1,3.3,7.3,14.4,15.6,14.4
					c1.1,0,2-0.2,2-0.2l0.9,10.9c0,0-2.6,0.7-7.3,0.7c-20.1,0-14.6-23.3-29.5-23.3h-3v22.6h-14.2v-66H178 M169.8,36.1h6.3
					c8.5,0,14.3-3.9,14.3-11c0-7.4-4.8-11.2-13.2-11.2h-7.4V36.1 M178,0.7h-22.4h-2v2v66v2h2h14.2h2v-2V48.1h1
					c5.4,0,7.4,3.5,10.4,9.3c3.2,6.3,7.1,14,19.1,14c4.9,0,7.7-0.7,7.8-0.8l1.6-0.4l-0.1-1.7l-0.9-10.9l-0.2-2.3l-2.2,0.5
					c0,0-0.7,0.2-1.6,0.2c-3.4,0-4.9-2.3-7.3-6.2c-1.2-2-2.5-4.1-4.3-5.9c7.4-3.9,11.3-10.4,11.3-19C206.4,8.9,196.9,0.7,178,0.7
					L178,0.7z M171.8,15.9h5.4c7.4,0,11.2,3.1,11.2,9.2c0,5.6-4.6,9-12.3,9h-4.3V15.9L171.8,15.9z"/>
			</g>
			<g>
				<polygon fill="#F95B1C" points="239.2,69.7 239.2,15.4 219.1,15.4 219.1,1.7 275.5,1.7 275.5,15.4 255.4,15.4 255.4,69.7 				
					"/>
				<path fill="#FCB01A" d="M274.5,2.7v11.7h-20.1v54.3h-14.2V14.4h-20.1V2.7H274.5 M276.5,0.7h-2h-54.4h-2v2v11.7v2h2h18.1v52.3v2
					h2h14.2h2v-2V16.4h18.1h2v-2V2.7V0.7L276.5,0.7z"/>
			</g>
			<g>
				<polygon fill="#F95B1C" points="291.7,69.7 291.7,1.7 336.4,1.7 336.4,15.4 307.9,15.4 307.9,29.6 332.5,29.6 332.5,43.1 
					307.9,43.1 307.9,69.7 				"/>
				<path fill="#FCB01A" d="M335.4,2.7v11.7h-28.5v16.2h24.6v11.5h-24.6v26.6h-14.2v-66H335.4 M337.4,0.7h-2h-42.7h-2v2v66v2h2h14.2
					h2v-2V44.1h22.6h2v-2V30.6v-2h-2h-22.6V16.4h26.5h2v-2V2.7V0.7L337.4,0.7z"/>
			</g>
			<g>
				<path fill="#F95B1C" d="M382.8,70.4c-19.9,0-33.2-14-33.2-34.8C349.6,14.9,363,1,382.8,1c19.8,0,33.1,13.9,33.1,34.6
					C415.9,56.4,402.6,70.4,382.8,70.4z M382.8,15.3c-10.2,0-16.8,8-16.8,20.3C366,48,372.6,56,382.8,56c10.1,0,16.7-8,16.7-20.4
					C399.5,23.3,393,15.3,382.8,15.3z"/>
				<path fill="#FCB01A" d="M382.8,2c18.9,0,32.1,13,32.1,33.6c0,20.8-13.2,33.8-32.1,33.8s-32.2-13-32.2-33.8
					C350.6,15,363.9,2,382.8,2 M382.8,57c10.3,0,17.7-7.9,17.7-21.4c0-13.4-7.4-21.3-17.7-21.3S365,22.2,365,35.6
					C365,49.1,372.5,57,382.8,57 M382.8,0c-20.5,0-34.2,14.3-34.2,35.6c0,21.4,13.7,35.8,34.2,35.8c20.4,0,34.1-14.4,34.1-35.8
					C416.9,14.3,403.2,0,382.8,0L382.8,0z M382.8,55c-9.6,0-15.8-7.6-15.8-19.4c0-11.7,6.2-19.3,15.8-19.3c9.5,0,15.7,7.6,15.7,19.3
					C398.5,47.4,392.4,55,382.8,55L382.8,55z"/>
			</g>
			<g>
				<polygon fill="#F95B1C" points="434.6,69.7 434.6,1.7 450.8,1.7 450.8,56 480.6,56 480.6,69.7 				"/>
				<path fill="#FCB01A" d="M449.8,2.7V57h29.8v11.7h-44v-66H449.8 M451.8,0.7h-2h-14.2h-2v2v66v2h2h44h2v-2V57v-2h-2h-27.8V2.7V0.7
					L451.8,0.7z"/>
			</g>
			<g>
				<rect x="496.7" y="1.7" fill="#F95B1C" width="15.9" height="68"/>
				<path fill="#FCB01A" d="M511.6,2.7v66h-13.9v-66H511.6 M513.6,0.7h-2h-13.9h-2v2v66v2h2h13.9h2v-2v-66V0.7L513.6,0.7z"/>
			</g>
			<g>
				<path fill="#F95B1C" d="M564.5,70.4c-19.9,0-33.2-14-33.2-34.8c0-20.7,13.3-34.6,33.2-34.6c19.8,0,33.1,13.9,33.1,34.6
					C597.6,56.4,584.3,70.4,564.5,70.4z M564.5,15.3c-10.2,0-16.8,8-16.8,20.3c0,12.4,6.6,20.4,16.8,20.4c10.1,0,16.7-8,16.7-20.4
					C581.2,23.3,574.7,15.3,564.5,15.3z"/>
				<path fill="#FCB01A" d="M564.5,2c18.9,0,32.1,13,32.1,33.6c0,20.8-13.2,33.8-32.1,33.8s-32.2-13-32.2-33.8
					C532.3,15,545.6,2,564.5,2 M564.5,57c10.3,0,17.7-7.9,17.7-21.4c0-13.4-7.4-21.3-17.7-21.3s-17.8,7.9-17.8,21.3
					C546.7,49.1,554.2,57,564.5,57 M564.5,0c-20.5,0-34.2,14.3-34.2,35.6c0,21.4,13.7,35.8,34.2,35.8c20.4,0,34.1-14.4,34.1-35.8
					C598.6,14.3,584.9,0,564.5,0L564.5,0z M564.5,55c-9.6,0-15.8-7.6-15.8-19.4c0-11.7,6.2-19.3,15.8-19.3c9.5,0,15.7,7.6,15.7,19.3
					C580.2,47.4,574.1,55,564.5,55L564.5,55z"/>
			</g>
		</g>
	</g>
</g>
<g id="Layer_1">
</g>
<g id="notes">
</g>
</svg>
