<?xml version="1.0" encoding="utf-8"?>
<!-- Generator: Adobe Illustrator 26.1.0, SVG Export Plug-In . SVG Version: 6.00 Build 0)  -->
<svg version="1.1" id="Layer_1" xmlns="http://www.w3.org/2000/svg" xmlns:xlink="http://www.w3.org/1999/xlink" x="0px" y="0px"
	 viewBox="0 0 568.5 142.1" enable-background="new 0 0 568.5 142.1" xml:space="preserve">
<g>
	<path fill="#F37421" d="M68.8,89.1c0,17.7-13.9,24.3-37,24.3c-9.2,0-20.7-0.6-31.1-2.3c-0.9-5.1-0.9-13.3,0-18.4
		C12.6,94.2,22.4,95,31.5,95c8.5,0,15.4-1.2,15.4-9.2v-5c0-6.6-2-7.2-10.6-10L15,63.9c-9.2-3-14.6-7.9-14.6-22V31.7
		C0.4,13.9,15.6,7.4,38,7.4c9.8,0,18.4,0.6,29.7,3c1.1,5,1.1,12.8,0,17.8c-11.8-2-19.6-2.6-29.1-2.6c-9.4,0-16.3,1.1-16.3,9.2v4.2
		c0,5.6,2.3,6.6,11.5,9.8l20.5,6.9c9.4,3.2,14.5,7.2,14.5,22V89.1z"/>
	<path fill="#F37421" d="M155.4,88.2c0,18.7-14.2,25.2-35.3,25.2c-21.1,0-35.3-6.5-35.3-25.2V57.1c0-19.5,14.2-25.5,35.3-25.5
		c21.1,0,35.3,6,35.3,25.5V88.2z M133.8,61.4c0-10.4-6.3-11.6-13.7-11.6c-7.5,0-13.7,1.2-13.7,11.6v22c0,10.3,6.2,11.5,13.7,11.5
		c7.4,0,13.7-1.2,13.7-11.5V61.4z"/>
	<path fill="#F37421" d="M173.2,28.2C173.2,5.3,186.7,0,216.7,0c0.8,5.1,0.8,11.8,0,16.9c-17.7,0-23.1,4.4-23.1,17.5v73.4
		c0,12.7,5.4,17.1,23.1,17.1c0.8,5.1,0.8,12.1,0,17.2c-30,0-43.5-5.3-43.5-28.2V28.2z"/>
	<path fill="#F37421" d="M227.7,57.1c0-19.6,13.3-25.5,33.4-25.5c7.9,0,15.4,0.5,23.9,2.1c0.8,5.4,0.8,12.7,0,17.8
		c-6.8-1.2-11.8-1.8-19.6-1.8c-8.3,0-16,1.4-16,11.9v21.7c0,10.4,7.7,11.8,16,11.8c8,0,12.7-0.8,19.6-2.3c0.8,5.1,0.8,12.7,0,17.7
		c-8.5,2-16,2.9-23.9,2.9c-20.2,0-33.4-6.5-33.4-25.2V57.1z"/>
	<path fill="#F37421" d="M300.3,57.1c0-19.6,13.3-25.5,33.4-25.5c7.9,0,15.4,0.5,23.9,2.1c0.8,5.4,0.8,12.7,0,17.8
		c-6.8-1.2-11.8-1.8-19.6-1.8c-8.3,0-16,1.4-16,11.9v21.7c0,10.4,7.7,11.8,16,11.8c8,0,12.7-0.8,19.6-2.3c0.8,5.1,0.8,12.7,0,17.7
		c-8.5,2-16,2.9-23.9,2.9c-20.2,0-33.4-6.5-33.4-25.2V57.1z"/>
	<path fill="#F37421" d="M389.3,34.4c0-13.1-5.4-17.5-23.1-17.5c-0.8-5.1-0.8-11.8,0-16.9c30,0,43.5,5.3,43.5,28.2v85.6
		c0,22.9-13.4,28.2-43.5,28.2c-0.8-5.1-0.8-12.1,0-17.2c17.7,0,23.1-4.4,23.1-17.1V34.4z"/>
	<path fill="#F37421" d="M458.6,77L451,78v33.5c-5.3,0.8-16.5,0.8-21.6,0V3.3c5.1-0.8,16.3-0.8,21.6,0v56.3l8.5-1.2l19-25.7
		c5-0.8,18.3-0.8,23.2,0l-25.4,34.6l26.4,44.2c-5,0.8-18.4,0.8-23.6,0L458.6,77z"/>
	<path fill="#F37421" d="M568.5,93.1c0,14.6-11.5,20.2-30.2,20.2c-8,0-17.2-0.6-25.8-2.1c-0.8-5.4-0.8-11.6,0-16.9
		c8.2,1.4,16.3,1.8,22.6,1.8c6,0,11.8-0.5,11.8-5.6v-2.9c0-4.4-3-5.1-8.2-6.5l-13.6-3.9c-8.6-2.4-13.3-7.8-13.3-17.8v-8.3
		c0-14,12.1-19.6,31.2-19.6c7.5,0,15.4,0.6,24.2,2.4c0.8,5.4,0.8,11.5,0,16.8c-9.2-1.7-15.1-2.1-21.7-2.1c-6.5,0-12.1,0.5-12.1,5.6
		v2.9c0,3.8,3.5,5.1,8.2,6.5l12.7,3.5c9.4,2.6,14.2,7.2,14.2,18.7V93.1z"/>
</g>
</svg>
